<svg xmlns="http://www.w3.org/2000/svg" width="92.06" height="87.136" viewBox="0 0 92.06 87.136">
  <g id="Flame_Line_8" data-name="Flame Line 8" transform="matrix(0.656, -0.755, 0.755, 0.656, -12.19, 17.188)">
    <path id="Path_14390" data-name="Path 14390" d="M4.414,22.079C14.347,10.9,4.414,0,4.414,0S-5.518,10.9,4.414,22.079Z" transform="matrix(-0.883, -0.469, 0.469, -0.883, 16.011, 23.639)" fill="#69c3e8"/>
    <path id="Path_14391" data-name="Path 14391" d="M4.414,22.079C14.347,10.9,4.414,0,4.414,0S-5.518,10.9,4.414,22.079Z" transform="matrix(-0.978, -0.208, 0.208, -0.978, 8.636, 54.535)" fill="#69c3e8"/>
    <path id="Path_14392" data-name="Path 14392" d="M4.414,22.079C14.347,10.9,4.414,0,4.414,0S-5.518,10.9,4.414,22.079Z" transform="matrix(-0.998, 0.07, -0.07, -0.998, 10.776, 88.013)" fill="#69c3e8"/>
    <path id="Path_14393" data-name="Path 14393" d="M4.414,22.079C14.347,10.9,4.414,0,4.414,0S-5.518,10.9,4.414,22.079Z" transform="translate(21.865 119.126) rotate(159)" fill="#69c3e8"/>
  </g>
</svg>
