<svg xmlns="http://www.w3.org/2000/svg" width="374.275" height="131.918" viewBox="0 0 374.275 131.918">
  <g id="Flame_Line_5" data-name="Flame Line 5" transform="translate(-3528.541 -3857.794) rotate(-41)">
    <path id="Path_14351" data-name="Path 14351" d="M4.414,22.079C14.347,10.9,4.414,0,4.414,0S-5.518,10.9,4.414,22.079Z" transform="translate(320.239 5530.957) rotate(155)" fill="#69c3e8"/>
    <path id="Path_14357" data-name="Path 14357" d="M4.414,22.079C14.347,10.9,4.414,0,4.414,0S-5.518,10.9,4.414,22.079Z" transform="translate(204.57 5427.162) rotate(130)" fill="#69c3e8"/>
    <path id="Path_14372" data-name="Path 14372" d="M4.414,22.079C14.347,10.9,4.414,0,4.414,0S-5.518,10.9,4.414,22.079Z" transform="translate(142.793 5328.79) rotate(172)" fill="#69c3e8"/>
    <path id="Path_14373" data-name="Path 14373" d="M4.414,22.079C14.347,10.9,4.414,0,4.414,0S-5.518,10.9,4.414,22.079Z" transform="translate(137.076 5290.297) rotate(-179)" fill="#69c3e8"/>
    <path id="Path_14418" data-name="Path 14418" d="M4.414,22.079C14.347,10.9,4.414,0,4.414,0S-5.518,10.9,4.414,22.079Z" transform="translate(136.802 5252.958) rotate(-179)" fill="#69c3e8"/>
    <path id="Path_14354" data-name="Path 14354" d="M4.414,22.079C14.347,10.9,4.414,0,4.414,0S-5.518,10.9,4.414,22.079Z" transform="translate(332.691 5566.161) rotate(167)" fill="#69c3e8"/>
    <path id="Path_14371" data-name="Path 14371" d="M4.414,22.079C14.347,10.9,4.414,0,4.414,0S-5.518,10.9,4.414,22.079Z" transform="matrix(-0.921, 0.391, -0.391, -0.921, 156.25, 5368.559)" fill="#69c3e8"/>
    <path id="Path_14422" data-name="Path 14422" d="M4.414,22.079C14.347,10.9,4.414,0,4.414,0S-5.518,10.9,4.414,22.079Z" transform="translate(176.443 5400.995) rotate(148)" fill="#69c3e8"/>
    <path id="Path_14353" data-name="Path 14353" d="M4.414,22.079C14.347,10.9,4.414,0,4.414,0S-5.518,10.9,4.414,22.079Z" transform="translate(300.604 5495.255) rotate(144)" fill="#69c3e8"/>
    <path id="Path_14352" data-name="Path 14352" d="M4.414,0c9.932,11.174,0,22.079,0,22.079S-5.518,11.174,4.414,0Z" transform="translate(220.883 5443.392) rotate(-70)" fill="#69c3e8"/>
    <path id="Path_14389" data-name="Path 14389" d="M4.414,0c9.932,11.174,0,22.079,0,22.079S-5.518,11.174,4.414,0Z" transform="translate(255.085 5457.331) rotate(-47)" fill="#69c3e8"/>
  </g>
</svg>
