<svg xmlns="http://www.w3.org/2000/svg" width="8.829" height="118.078" viewBox="0 0 8.829 118.078"><g transform="translate(-957 -8631)"><path d="M124.794,35.462c9.932,11.174,0,22.079,0,22.079S114.862,46.636,124.794,35.462Z" transform="translate(836.62 8595.537)" fill="#69c3e8"/><path d="M124.794,35.462c9.932,11.174,0,22.079,0,22.079S114.862,46.636,124.794,35.462Z" transform="translate(836.62 8627.537)" fill="#69c3e8"/><path d="M124.794,35.462c9.932,11.174,0,22.079,0,22.079S114.862,46.636,124.794,35.462Z" transform="translate(836.62 8659.537)" fill="#69c3e8"/><path d="M124.794,35.462c9.932,11.174,0,22.079,0,22.079S114.862,46.636,124.794,35.462Z" transform="translate(836.62 8691.537)" fill="#69c3e8"/></g></svg>