<svg xmlns="http://www.w3.org/2000/svg" width="199.556" height="230.411" viewBox="0 0 199.556 230.411"><g transform="translate(-0.22 0.26)" opacity="0.6"><path d="M147.206,56.733C143.721,29.925,126.591,11.991,100-.26,73.378,11.991,56.275,29.925,52.763,56.733H.22v161.3H79.892a23.832,23.832,0,0,0,20.079,12.117,23.832,23.832,0,0,0,20.079-12.117h79.726V56.733ZM100,16.522c18.98,10.08,30,24.609,31.981,42.115A46.484,46.484,0,0,0,100,84.452,46.484,46.484,0,0,0,68.016,58.609C70,41.131,81.018,26.6,100,16.522ZM184.388,203h-76.16V207.9a7.694,7.694,0,0,1-8.257,8.042,7.694,7.694,0,0,1-8.257-8.042V203h-76V71.906H52.28v105.97l15.388-11.232V74.211C85.575,79.573,92.3,92.789,92.3,121.741V190.02h15.361V121.741c0-28.952,6.756-42.061,24.636-47.53v92.433l15.361,11.286V71.906h36.726Z" transform="translate(0 0)" fill="#fff"/><path d="M42.4,10.16c17.8,20.025,0,39.568,0,39.568S24.6,30.185,42.4,10.16Z" transform="translate(57.598 17.514)" fill="#fff"/></g></svg>