<svg xmlns="http://www.w3.org/2000/svg" xmlns:xlink="http://www.w3.org/1999/xlink" width="1686.285" height="805.363" viewBox="0 0 1686.285 805.363">
  <defs>
    <linearGradient id="linear-gradient" y1="0.5" x2="1" y2="0.5" gradientUnits="objectBoundingBox">
      <stop offset="0.05" stop-color="#0b2343" stop-opacity="0.2"/>
      <stop offset="0.68" stop-color="#0b2343"/>
    </linearGradient>
  </defs>
  <g id="Layer_2" transform="translate(0 0.001)" opacity="0.3">
    <g id="Infinity-navy" transform="translate(0 -0.001)">
      <path id="Path_14418" data-name="Path 14418" d="M1654.613,250.794A388.348,388.348,0,0,0,1564,117.2,400.085,400.085,0,0,0,1426.783,28.66,449.448,449.448,0,0,0,1272.308.009a417.513,417.513,0,0,0-155.338,28.824A399.736,399.736,0,0,0,980.1,117.2L911.06,184.775l156.806,151.11,68.09-66.364a199.264,199.264,0,0,1,197.021-46,188.741,188.741,0,0,1,25.89,10.529c82.07,42.287,122.372,129.449,100.452,216.525a176.4,176.4,0,0,1-20.28,47.378,194.345,194.345,0,0,1-181.228,93.2,197.969,197.969,0,0,1-126.859-58.338L982.688,388.355,703.6,118.929a401.2,401.2,0,0,0-137.3-88.543A447.374,447.374,0,0,0,411.819,1.735,417.774,417.774,0,0,0,256.912,30.472a402.068,402.068,0,0,0-136.87,88.457,389.726,389.726,0,0,0-90.7,133.936A419.154,419.154,0,0,0,0,403.63a363.233,363.233,0,0,0,32.966,151.11A391.02,391.02,0,0,0,123.58,688.33a400.43,400.43,0,0,0,137.3,88.37,448.752,448.752,0,0,0,154.389,28.651A417.519,417.519,0,0,0,570.178,776.7a399.739,399.739,0,0,0,136.87-88.37l68.435-66.968L619.023,470.684l-65.846,66.968a199.351,199.351,0,0,1-197.021,46.084,185.806,185.806,0,0,1-26.321-10.529C247.765,530.921,207.463,443.759,229.383,356.6a182.78,182.78,0,0,1,20.28-47.292A194.777,194.777,0,0,1,431.5,215.756a198.488,198.488,0,0,1,126.86,58.338L982.515,688.33a399.224,399.224,0,0,0,137.043,88.37,449.448,449.448,0,0,0,154.475,28.651,417.859,417.859,0,0,0,155.338-28.824,399.741,399.741,0,0,0,136.87-88.37,390.5,390.5,0,0,0,90.7-133.764,419.151,419.151,0,0,0,29.342-150.765,402.758,402.758,0,0,0-31.24-152.836" transform="translate(0 0.001)" fill="url(#linear-gradient)"/>
    </g>
  </g>
</svg>
