<svg xmlns="http://www.w3.org/2000/svg" xmlns:xlink="http://www.w3.org/1999/xlink" width="186.25" height="88" viewBox="0 0 186.25 88"><defs><filter id="a"><feOffset dy="3" input="SourceAlpha"/><feGaussianBlur stdDeviation="5" result="b"/><feFlood flood-opacity="0.8" result="c"/><feComposite operator="out" in="SourceGraphic" in2="b"/><feComposite operator="in" in="c"/><feComposite operator="in" in2="SourceGraphic"/></filter></defs><g data-type="innerShadowGroup"><path d="M182.752,27.4a42.415,42.415,0,0,0-10.008-14.6A44.244,44.244,0,0,0,157.588,3.13,50.118,50.118,0,0,0,140.526,0a46.556,46.556,0,0,0-17.157,3.15A44.206,44.206,0,0,0,108.252,12.8l-7.625,7.383L117.946,36.7l7.521-7.251a22.181,22.181,0,0,1,21.761-5.026,20.973,20.973,0,0,1,2.86,1.15c9.065,4.621,13.516,14.145,11.095,23.659a19.165,19.165,0,0,1-2.24,5.177,21.533,21.533,0,0,1-20.017,10.184,21.969,21.969,0,0,1-14.012-6.374L108.538,42.433,77.712,12.993A44.369,44.369,0,0,0,62.547,3.318,49.886,49.886,0,0,0,45.485.188a46.584,46.584,0,0,0-17.109,3.14,44.463,44.463,0,0,0-15.117,9.665A42.565,42.565,0,0,0,3.241,27.628,45.372,45.372,0,0,0,0,44.1,39.332,39.332,0,0,0,3.641,60.613a42.708,42.708,0,0,0,10.008,14.6,44.284,44.284,0,0,0,15.165,9.656A50.04,50.04,0,0,0,45.867,88a46.556,46.556,0,0,0,17.109-3.131A44.206,44.206,0,0,0,78.093,75.21l7.559-7.317L68.371,51.429,61.1,58.746a22.19,22.19,0,0,1-21.761,5.035,20.652,20.652,0,0,1-2.907-1.15c-9.065-4.621-13.516-14.145-11.095-23.669a19.86,19.86,0,0,1,2.24-5.167A21.58,21.58,0,0,1,47.659,23.573,22.027,22.027,0,0,1,61.67,29.948L108.519,75.21a44.149,44.149,0,0,0,15.136,9.656A50.117,50.117,0,0,0,140.717,88a46.594,46.594,0,0,0,17.157-3.15,44.206,44.206,0,0,0,15.117-9.656,42.651,42.651,0,0,0,10.018-14.616A45.372,45.372,0,0,0,186.25,44.1a43.6,43.6,0,0,0-3.45-16.7" transform="translate(0 0.002)" fill="#f15a4f"/><g transform="matrix(1, 0, 0, 1, 0, 0)" filter="url(#a)"><path d="M182.752,27.4a42.415,42.415,0,0,0-10.008-14.6A44.244,44.244,0,0,0,157.588,3.13,50.118,50.118,0,0,0,140.526,0a46.556,46.556,0,0,0-17.157,3.15A44.206,44.206,0,0,0,108.252,12.8l-7.625,7.383L117.946,36.7l7.521-7.251a22.181,22.181,0,0,1,21.761-5.026,20.973,20.973,0,0,1,2.86,1.15c9.065,4.621,13.516,14.145,11.095,23.659a19.165,19.165,0,0,1-2.24,5.177,21.533,21.533,0,0,1-20.017,10.184,21.969,21.969,0,0,1-14.012-6.374L108.538,42.433,77.712,12.993A44.369,44.369,0,0,0,62.547,3.318,49.886,49.886,0,0,0,45.485.188a46.584,46.584,0,0,0-17.109,3.14,44.463,44.463,0,0,0-15.117,9.665A42.565,42.565,0,0,0,3.241,27.628,45.372,45.372,0,0,0,0,44.1,39.332,39.332,0,0,0,3.641,60.613a42.708,42.708,0,0,0,10.008,14.6,44.284,44.284,0,0,0,15.165,9.656A50.04,50.04,0,0,0,45.867,88a46.556,46.556,0,0,0,17.109-3.131A44.206,44.206,0,0,0,78.093,75.21l7.559-7.317L68.371,51.429,61.1,58.746a22.19,22.19,0,0,1-21.761,5.035,20.652,20.652,0,0,1-2.907-1.15c-9.065-4.621-13.516-14.145-11.095-23.669a19.86,19.86,0,0,1,2.24-5.167A21.58,21.58,0,0,1,47.659,23.573,22.027,22.027,0,0,1,61.67,29.948L108.519,75.21a44.149,44.149,0,0,0,15.136,9.656A50.117,50.117,0,0,0,140.717,88a46.594,46.594,0,0,0,17.157-3.15,44.206,44.206,0,0,0,15.117-9.656,42.651,42.651,0,0,0,10.018-14.616A45.372,45.372,0,0,0,186.25,44.1a43.6,43.6,0,0,0-3.45-16.7" transform="translate(0 0)" fill="#fff"/></g></g></svg>