<svg xmlns="http://www.w3.org/2000/svg" width="414.55" height="80.142" viewBox="0 0 414.55 80.142"><g transform="translate(-190.83)"><g transform="translate(339.594)"><line y2="55.559" transform="translate(0 20.533)" fill="none" stroke="#fff" stroke-width="0.67"/><path d="M363.056,23.482s6.2-6.8,0-13.769c-6.192,6.967,0,13.769,0,13.769m29.369,47.206h-26.5v1.7a2.873,2.873,0,0,1-5.734,0v-1.7H333.713V25.1h12.714v36.87l5.34-3.929V25.9c6.23,1.907,8.569,6.459,8.569,16.528V66.175h5.353V42.426c0-10.069,2.339-14.621,8.569-16.528V58.026l5.34,3.929V25.084h12.777ZM374.181,20.482a16.185,16.185,0,0,0-11.125,8.989,16.121,16.121,0,0,0-11.112-8.989c.687-6.09,4.513-11.137,11.112-14.646,6.611,3.509,10.438,8.556,11.125,14.646m23.648,55.445V19.846H379.495c-1.271-9.4-7.183-15.587-16.439-19.846-9.243,4.259-15.257,10.451-16.414,19.846H328.36V75.927h27.716a7.908,7.908,0,0,0,13.985,0Z" transform="translate(-302.271)" fill="#fff"/><path d="M462.054,37.509h3.5c.814,0,2.2.1,4.424.1h1.157a23.12,23.12,0,0,0,.407-3.306h-.5c-.14.954-.445,1.767-.953,1.983a5.849,5.849,0,0,1-2,.229c-2.085,0-2.288-.292-2.352-1.64V29.385h0c.356,0,2.454,0,3.013.1.75.076.941.381,1.017.674a3.128,3.128,0,0,1,.089.814h.483V30.8a13.136,13.136,0,0,1,.076-1.526c.076-.432.1-.737.127-.928a2.189,2.189,0,0,0,0-.267v-.267h-.458a2.874,2.874,0,0,1-.153.267h0a1.386,1.386,0,0,1-.941.356h-3.369V22.252h0c.254,0,2.543,0,2.9.064,1.106.114,1.271.356,1.424.661a3.026,3.026,0,0,1,.191,1.093h.445a7.861,7.861,0,0,1,.076-1.271,2.971,2.971,0,0,1,0-.432,5.566,5.566,0,0,1,.127-.737,5.6,5.6,0,0,0,.089-.559,5.6,5.6,0,0,1-.674.127,4.043,4.043,0,0,1-.776.089H461.8v.509a4.878,4.878,0,0,1,.992.064c.661.14.788.458.826,1.119s0,1.271,0,4.564v3.725c0,1.983,0,3.7-.1,4.59-.089.661-.114.865-.534,1.081a3.688,3.688,0,0,1-1.03.076h0v.5Z" transform="translate(-266.058 5.718)" fill="#fff" stroke="#fff" stroke-miterlimit="10" stroke-width="1"/><path d="M462.054,37.509h3.5c.814,0,2.2.1,4.424.1h1.157a23.12,23.12,0,0,0,.407-3.306h-.5c-.14.954-.445,1.767-.953,1.983a5.849,5.849,0,0,1-2,.229c-2.085,0-2.288-.292-2.352-1.64V29.385h0c.356,0,2.454,0,3.013.1.75.076.941.381,1.017.674a3.128,3.128,0,0,1,.089.814h.483V30.8a13.136,13.136,0,0,1,.076-1.526c.076-.432.1-.737.127-.928a2.189,2.189,0,0,0,0-.267v-.267h-.458a2.874,2.874,0,0,1-.153.267h0a1.386,1.386,0,0,1-.941.356h-3.369V22.252h0c.254,0,2.543,0,2.9.064,1.106.114,1.271.356,1.424.661a3.026,3.026,0,0,1,.191,1.093h.445a7.861,7.861,0,0,1,.076-1.271,2.971,2.971,0,0,1,0-.432,5.566,5.566,0,0,1,.127-.737,5.6,5.6,0,0,0,.089-.559,5.6,5.6,0,0,1-.674.127,4.043,4.043,0,0,1-.776.089H461.8v.509a4.878,4.878,0,0,1,.992.064c.661.14.788.458.826,1.119s0,1.271,0,4.564v3.725c0,1.983,0,3.7-.1,4.59-.089.661-.114.865-.534,1.081a3.688,3.688,0,0,1-1.03.076h0v.5Z" transform="translate(-266.058 5.718)" fill="#fff" stroke="#fff" stroke-width="1.1"/><path d="M416.176,37.509h3.5c.826,0,2.2.1,4.424.1h1.157a23.12,23.12,0,0,0,.407-3.306h-.5c-.14.954-.445,1.767-.941,1.983a5.925,5.925,0,0,1-2,.229c-2.1,0-2.3-.292-2.365-1.64V29.385h0c.356,0,2.454,0,3.013.1.75.076.941.381,1.03.674a3.089,3.089,0,0,1,.076.814h.483a.9.9,0,0,0,0-.178,12.384,12.384,0,0,1,.076-1.526,7.883,7.883,0,0,1,.14-.928,1.6,1.6,0,0,0,0-.267v-.267h-.445a2.859,2.859,0,0,0-.153.267h0a1.348,1.348,0,0,1-.928.356h-3.382V22.252h0c.242,0,2.543,0,2.886.064,1.106.114,1.271.356,1.424.661a3.026,3.026,0,0,1,.191,1.093h.6a7.855,7.855,0,0,1,.076-1.271.679.679,0,0,0,0-.432,5.556,5.556,0,0,1,.127-.737,5.586,5.586,0,0,0,.089-.559,5.6,5.6,0,0,1-.661.127,4.2,4.2,0,0,1-.776.089H416.1v.509a4.814,4.814,0,0,1,.979.064c.661.14.8.458.826,1.119s0,1.271,0,4.564v3.725c0,1.983,0,3.7-.114,4.59-.089.661-.114.865-.534,1.081a3.56,3.56,0,0,1-1.017.076h0v.5Z" transform="translate(-278.46 5.718)" fill="#fff" stroke="#fff" stroke-miterlimit="10" stroke-width="1"/><path d="M416.176,37.509h3.5c.826,0,2.2.1,4.424.1h1.157a23.12,23.12,0,0,0,.407-3.306h-.5c-.14.954-.445,1.767-.941,1.983a5.925,5.925,0,0,1-2,.229c-2.1,0-2.3-.292-2.365-1.64V29.385h0c.356,0,2.454,0,3.013.1.75.076.941.381,1.03.674a3.089,3.089,0,0,1,.076.814h.483a.9.9,0,0,0,0-.178,12.384,12.384,0,0,1,.076-1.526,7.883,7.883,0,0,1,.14-.928,1.6,1.6,0,0,0,0-.267v-.267h-.445a2.859,2.859,0,0,0-.153.267h0a1.348,1.348,0,0,1-.928.356h-3.382V22.252h0c.242,0,2.543,0,2.886.064,1.106.114,1.271.356,1.424.661a3.026,3.026,0,0,1,.191,1.093h.6a7.855,7.855,0,0,1,.076-1.271.679.679,0,0,0,0-.432,5.556,5.556,0,0,1,.127-.737,5.586,5.586,0,0,0,.089-.559,5.6,5.6,0,0,1-.661.127,4.2,4.2,0,0,1-.776.089H416.1v.509a4.814,4.814,0,0,1,.979.064c.661.14.8.458.826,1.119s0,1.271,0,4.564v3.725c0,1.983,0,3.7-.114,4.59-.089.661-.114.865-.534,1.081a3.56,3.56,0,0,1-1.017.076h0v.5Z" transform="translate(-278.46 5.718)" fill="#fff" stroke="#fff" stroke-width="1.1"/><path d="M412.7,35.217a9.993,9.993,0,0,1-7.069,2.759c-2.8,0-4.488-.394-5.009-1.157a7.019,7.019,0,0,1-.318-2.225V18.015a.458.458,0,0,1,.305-.521,8.124,8.124,0,0,1,1.907-.191c3.929,0,7.082.559,9.726,3.356a10.667,10.667,0,0,1,2.861,7.488,10.362,10.362,0,0,1-2.378,7.094m2.339-15.714c-3.382-3.5-8.48-3.471-11.531-3.445h-.572c-1.271,0-2.543,0-3.331.064h-1.119c-.636,0-1.971-.076-2.988-.076h-.585v.623a10.513,10.513,0,0,1,1.335.076c.979.216,1.17.674,1.271,1.627s.013,1.78.013,6.484v5.276c0,2.924,0,5.238-.153,6.5-.127.954-.292,1.462-.788,1.564a4.248,4.248,0,0,1-.877.114H395.4v.534h4.335c1.373.114,3.916.305,5.836.305a12.307,12.307,0,0,0,9.167-3.484A12.447,12.447,0,0,0,418,27.169a10.794,10.794,0,0,0-2.937-7.692" transform="translate(-284.203 4.361)" fill="#fff" stroke="#fff" stroke-miterlimit="10" stroke-width="1"/><path d="M412.707,35.222a9.993,9.993,0,0,1-7.069,2.759c-2.8,0-4.488-.394-5.009-1.157a7.019,7.019,0,0,1-.318-2.225V18.021a.458.458,0,0,1,.305-.521,8.124,8.124,0,0,1,1.907-.191c3.929,0,7.082.559,9.726,3.356a10.667,10.667,0,0,1,2.861,7.488,10.361,10.361,0,0,1-2.4,7.069Zm2.339-15.714c-3.382-3.5-8.48-3.471-11.531-3.445h-.572c-1.271,0-2.543,0-3.331.064h-1.119c-.636,0-1.971-.076-2.988-.076h-.585v.623a10.514,10.514,0,0,1,1.335.076c.979.216,1.17.674,1.271,1.627s.038,1.805.038,6.509v5.276c0,2.924,0,5.238-.153,6.5-.127.954-.292,1.462-.788,1.564a4.248,4.248,0,0,1-.877.114H395.4v.534h4.335c1.373.114,3.916.305,5.836.305a12.307,12.307,0,0,0,9.167-3.484,12.447,12.447,0,0,0,3.268-8.518,10.794,10.794,0,0,0-2.962-7.666Z" transform="translate(-284.208 4.356)" fill="#fff" stroke="#fff" stroke-width="1.1"/><path d="M435.1,25.979l-.839-.661c-2.721-2.225-3.623-3.255-3.623-4.958a3.28,3.28,0,0,1,.915-2.377,3.725,3.725,0,0,1,2.67-1c2.543,0,3.42,1.081,3.662,1.538a3.98,3.98,0,0,1,.432,1.462s0,.458,0,.483H439s-.064-1.081-.064-1.5A21.35,21.35,0,0,1,439,16.71v-.42c-.216,0-.852-.14-1.449-.254a11.188,11.188,0,0,0-2.81-.305,6.789,6.789,0,0,0-4.59,1.513,5.149,5.149,0,0,0-1.716,3.979c0,2.009.674,3.9,3.941,6.586l1.348,1.106c2.683,2.212,3.407,3.356,3.407,5.327a3.9,3.9,0,0,1-4.183,3.89c-2.339,0-3.967-1.119-4.348-2.988a5.428,5.428,0,0,1-.127-1.081V33.62h-.547v.928c0,.61-.127,2.543-.127,3.814a9.5,9.5,0,0,0,4.577,1.093,7.908,7.908,0,0,0,4.577-1.271A6.28,6.28,0,0,0,439.5,33.1c0-2.3-.725-4.208-4.412-7.12" transform="translate(-275.285 4.267)" fill="#fff" stroke="#fff" stroke-miterlimit="10" stroke-width="1"/><path d="M435.1,25.979l-.839-.661c-2.721-2.225-3.623-3.255-3.623-4.958a3.28,3.28,0,0,1,.915-2.377,3.725,3.725,0,0,1,2.67-1c2.543,0,3.42,1.081,3.662,1.538a3.98,3.98,0,0,1,.432,1.462s0,.458,0,.483H439s-.064-1.081-.064-1.5A21.35,21.35,0,0,1,439,16.71v-.42c-.216,0-.852-.14-1.449-.254a11.188,11.188,0,0,0-2.81-.305,6.789,6.789,0,0,0-4.59,1.513,5.149,5.149,0,0,0-1.716,3.979c0,2.009.674,3.9,3.941,6.586l1.348,1.106c2.683,2.212,3.407,3.356,3.407,5.327a3.9,3.9,0,0,1-4.183,3.89c-2.339,0-3.967-1.119-4.348-2.988a5.428,5.428,0,0,1-.127-1.081V33.62h-.547v.928c0,.61-.127,2.543-.127,3.814a9.5,9.5,0,0,0,4.577,1.093,7.908,7.908,0,0,0,4.577-1.271A6.28,6.28,0,0,0,439.5,33.1C439.5,30.8,438.785,28.89,435.1,25.979Z" transform="translate(-275.285 4.267)" fill="#fff" stroke="#fff" stroke-width="1.1"/><path d="M477.766,28.324l-.6-.47c-1.92-1.577-2.543-2.314-2.543-3.522a2.276,2.276,0,0,1,.648-1.678,2.644,2.644,0,0,1,1.894-.712c1.805,0,2.416.763,2.543,1.093a2.746,2.746,0,0,1,.292,1.03,3.111,3.111,0,0,0,0,.343h.483v-2.95c0-.025-.61-.1-1.03-.191A8.735,8.735,0,0,0,477.55,21a4.869,4.869,0,0,0-3.255,1.081,3.662,3.662,0,0,0-1.208,2.822c0,1.424.47,2.759,2.784,4.666l.953.788c1.907,1.564,2.428,2.377,2.428,3.814a3.12,3.12,0,0,1-6.052.648,3.819,3.819,0,0,1-.089-.776s0-.292,0-.305h-.394V34.4c0,.432-.089,1.831-.089,2.683a6.687,6.687,0,0,0,3.229.776,5.709,5.709,0,0,0,3.255-.9,4.437,4.437,0,0,0,1.831-3.585c0-1.64-.509-2.988-3.128-5.086" transform="translate(-263.119 5.698)" fill="#fff" stroke="#fff" stroke-miterlimit="10" stroke-width="1"/><path d="M477.766,28.324l-.6-.47c-1.92-1.577-2.543-2.314-2.543-3.522a2.276,2.276,0,0,1,.648-1.678,2.644,2.644,0,0,1,1.894-.712c1.805,0,2.416.763,2.543,1.093a2.746,2.746,0,0,1,.292,1.03,3.111,3.111,0,0,0,0,.343h.483v-2.95c0-.025-.61-.1-1.03-.191A8.735,8.735,0,0,0,477.55,21a4.869,4.869,0,0,0-3.255,1.081,3.662,3.662,0,0,0-1.208,2.822c0,1.424.47,2.759,2.784,4.666l.953.788c1.907,1.564,2.428,2.377,2.428,3.814a3.12,3.12,0,0,1-6.052.648,3.819,3.819,0,0,1-.089-.776s0-.292,0-.305h-.394V34.4c0,.432-.089,1.831-.089,2.683a6.687,6.687,0,0,0,3.229.776,5.709,5.709,0,0,0,3.255-.9,4.437,4.437,0,0,0,1.831-3.585C480.894,31.731,480.385,30.384,477.766,28.324Z" transform="translate(-263.119 5.698)" fill="#fff" stroke="#fff" stroke-width="1.1"/><path d="M452.385,37.452h4.31c.979,0,2.212.089,4.081.089h1.182a16.071,16.071,0,0,0,.572-2.8v-.483h-.419a5.088,5.088,0,0,1-.572,1.653c-.47.559-1.271.6-2.543.6-1.691,0-2.174-.165-2.466-.458s-.445-1.894-.445-4.78V22.882c0-.674.216-1.017.737-1.106a8.989,8.989,0,0,1,.966,0v-.5H452.22v.47h0a7.3,7.3,0,0,1,.928,0c.661.153.788.458.839,1.119s0,1.271,0,4.577v3.725c0,1.983,0,3.7-.1,4.577-.1.661-.381,1.017-.712,1.081a3.457,3.457,0,0,1-.623.089h-.292Z" transform="translate(-268.658 5.775)" fill="#fff" stroke="#fff" stroke-miterlimit="10" stroke-width="1"/><path d="M452.385,37.452h4.31c.979,0,2.212.089,4.081.089h1.182a16.071,16.071,0,0,0,.572-2.8v-.483h-.419a5.088,5.088,0,0,1-.572,1.653c-.47.559-1.271.6-2.543.6-1.691,0-2.174-.165-2.466-.458s-.445-1.894-.445-4.78V22.882c0-.674.216-1.017.737-1.106a8.989,8.989,0,0,1,.966,0v-.5H452.22v.47h0a7.3,7.3,0,0,1,.928,0c.661.153.788.458.839,1.119s0,1.271,0,4.577v3.725c0,1.983,0,3.7-.1,4.577-.1.661-.381,1.017-.712,1.081a3.457,3.457,0,0,1-.623.089h-.292Z" transform="translate(-268.658 5.775)" fill="#fff" stroke="#fff" stroke-width="1.1"/><path d="M448.237,30.448h-4.043s-.1,0,0-.153l1.856-5.721c.1-.318.216-.318.318,0l2.009,5.721c0,.089,0,.153-.076.153m5.518,6.484c-.47-.127-1.043-.509-1.767-2.288-.915-2.3-2.873-7.4-4.043-10.451l-.89-2.327c-.153-.381-.216-.534-.318-.826h-.5c-.076.28-.153.47-.305.9l-4.806,13.146c-.407,1.132-.814,1.805-1.7,1.92h-.89v.509h4.971v-.483h-.521a.865.865,0,0,1-.585-.216.381.381,0,0,1-.127-.305,4.3,4.3,0,0,1,.292-1.386l1.271-3.751a.1.1,0,0,1,.114-.1h4.552c.064,0,.076,0,.1.076l1.882,5.225c0,.14.1.229,0,.356s-.127.076-.14.089h-.572v.5h4.971v-.483a4.449,4.449,0,0,1-1.093-.127" transform="translate(-272.354 5.71)" fill="#fff" stroke="#fff" stroke-miterlimit="10" stroke-width="1"/><path d="M448.251,30.448h-4.043s-.1,0,0-.153l1.856-5.721c.1-.318.216-.318.318,0L448.39,30.3C448.352,30.385,448.352,30.448,448.251,30.448Zm5.518,6.484c-.47-.127-1.043-.509-1.767-2.288-.915-2.3-2.873-7.4-4.043-10.451l-.89-2.327c-.153-.381-.216-.534-.318-.826h-.5c-.076.28-.153.47-.305.9l-4.806,13.146c-.407,1.132-.814,1.805-1.7,1.92h-.89v.509h4.971v-.483H443a.865.865,0,0,1-.585-.216.381.381,0,0,1-.127-.305,4.3,4.3,0,0,1,.292-1.386l1.271-3.751a.1.1,0,0,1,.114-.1h4.552c.064,0,.076,0,.1.076l1.945,5.225c0,.14.1.229,0,.356s-.127.076-.14.089h-.572v.5h4.971v-.483a4.45,4.45,0,0,1-1.055-.1Z" transform="translate(-272.368 5.71)" fill="#fff" stroke="#fff" stroke-width="1.1"/><path d="M452.729,63.184h3.5c.826,0,2.2.089,4.424.089h1.157a21.267,21.267,0,0,0,.407-3.293h-.5c-.14.954-.432,1.767-.941,1.983a5.925,5.925,0,0,1-2,.229c-2.1,0-2.3-.292-2.365-1.64v-5.48h0c.356,0,2.454,0,3.013.1a1.256,1.256,0,0,1,1.03.674,3.174,3.174,0,0,1,.076.814h.483a.842.842,0,0,0,0-.178,12.384,12.384,0,0,1,.076-1.526,8.338,8.338,0,0,1,.14-.928,1.456,1.456,0,0,0,0-.267V53.5h-.445s-.127.242-.153.267h0a1.348,1.348,0,0,1-.928.356h-3.382V48h2.886c1.106.127,1.271.369,1.424.661a3.077,3.077,0,0,1,.191,1.093h.445a7.861,7.861,0,0,1,.076-1.271.693.693,0,0,0,0-.432,6,6,0,0,1,.127-.737c0-.114.089-.483.089-.547a4.589,4.589,0,0,1-.661.114,4.2,4.2,0,0,1-.776.089H452.5v.521h.979c.661.14.8.458.826,1.119s0,1.271,0,4.564v3.738c0,1.983,0,3.687-.1,4.577-.1.661-.127.865-.547,1.081a3.191,3.191,0,0,1-1.017.089h0v.483Z" transform="translate(-268.582 12.693)" fill="#fff" stroke="#fff" stroke-miterlimit="10" stroke-width="1"/><path d="M452.729,63.184h3.5c.826,0,2.2.089,4.424.089h1.157a21.267,21.267,0,0,0,.407-3.293h-.5c-.14.954-.432,1.767-.941,1.983a5.925,5.925,0,0,1-2,.229c-2.1,0-2.3-.292-2.365-1.64v-5.48h0c.356,0,2.454,0,3.013.1a1.256,1.256,0,0,1,1.03.674,3.174,3.174,0,0,1,.076.814h.483a.842.842,0,0,0,0-.178,12.384,12.384,0,0,1,.076-1.526,8.338,8.338,0,0,1,.14-.928,1.456,1.456,0,0,0,0-.267V53.5h-.445s-.127.242-.153.267h0a1.348,1.348,0,0,1-.928.356h-3.382V48h2.886c1.106.127,1.271.369,1.424.661a3.077,3.077,0,0,1,.191,1.093h.445a7.861,7.861,0,0,1,.076-1.271.693.693,0,0,0,0-.432,6,6,0,0,1,.127-.737c0-.114.089-.483.089-.547a4.589,4.589,0,0,1-.661.114,4.2,4.2,0,0,1-.776.089H452.5v.521h.979c.661.14.8.458.826,1.119s0,1.271,0,4.564v3.738c0,1.983,0,3.687-.1,4.577-.1.661-.127.865-.547,1.081a3.191,3.191,0,0,1-1.017.089h0v.483Z" transform="translate(-268.582 12.693)" fill="#fff" stroke="#fff" stroke-width="1.1"/><path d="M482.427,54l-.6-.47c-1.92-1.577-2.543-2.3-2.543-3.509a2.314,2.314,0,0,1,.661-1.691,2.644,2.644,0,0,1,1.894-.712c1.805,0,2.416.763,2.543,1.093a2.745,2.745,0,0,1,.292,1.03v.343h.5v-2.95c0-.025-.61-.1-1.03-.191a8.76,8.76,0,0,0-2-.2,4.87,4.87,0,0,0-3.255,1.068,3.662,3.662,0,0,0-1.208,2.822c0,1.424.47,2.772,2.784,4.666l.954.788c1.907,1.564,2.428,2.377,2.428,3.814a3.117,3.117,0,0,1-6.052.636,3.7,3.7,0,0,1-.089-.763s0-.292,0-.318h-.394v.661c0,.42-.076,1.818-.076,2.683a6.84,6.84,0,0,0,3.229.763,5.607,5.607,0,0,0,3.255-.9,4.463,4.463,0,0,0,1.831-3.585c0-1.64-.509-2.988-3.128-5.086" transform="translate(-261.868 12.683)" fill="#fff" stroke="#fff" stroke-miterlimit="10" stroke-width="1"/><path d="M482.427,54l-.6-.47c-1.92-1.577-2.543-2.3-2.543-3.509a2.314,2.314,0,0,1,.661-1.691,2.644,2.644,0,0,1,1.894-.712c1.805,0,2.416.763,2.543,1.093a2.745,2.745,0,0,1,.292,1.03v.343h.5v-2.95c0-.025-.61-.1-1.03-.191a8.76,8.76,0,0,0-2-.2,4.87,4.87,0,0,0-3.255,1.068,3.662,3.662,0,0,0-1.208,2.822c0,1.424.47,2.772,2.784,4.666l.954.788c1.907,1.564,2.428,2.377,2.428,3.814a3.117,3.117,0,0,1-6.052.636,3.7,3.7,0,0,1-.089-.763s0-.292,0-.318h-.394v.661c0,.42-.076,1.818-.076,2.683a6.84,6.84,0,0,0,3.229.763,5.607,5.607,0,0,0,3.255-.9,4.463,4.463,0,0,0,1.831-3.585C485.555,57.408,485.046,56.06,482.427,54Z" transform="translate(-261.868 12.683)" fill="#fff" stroke="#fff" stroke-width="1.1"/><path d="M417.542,41.782h-.585a17.025,17.025,0,0,0-2,.076h-.89c-.623,0-1.767-.076-2.759-.076h-.585v.61a8.823,8.823,0,0,1,1.335.089c.979.2,1.157.661,1.271,1.615s.064,1.805.064,6.471v3.751c0,3.611-.521,5.8-1.716,7.285a6.192,6.192,0,0,1-4.742,2.1,5.785,5.785,0,0,1-4.463-1.627c-1.093-1.043-2.212-2.733-2.212-7.336v-4.2c0-4.666,0-5.518.064-6.471s.331-1.513,1.017-1.615a6.851,6.851,0,0,1,1-.089v-.61h-4.107c-.7,0-1.882-.076-2.822-.076H395v.61a7.629,7.629,0,0,1,1.271.089c.966.2,1.157.661,1.208,1.615s.064,1.805.064,6.471v4.374c0,4.819,1.411,6.789,2.644,7.972a9.243,9.243,0,0,0,6.242,2.149,8.9,8.9,0,0,0,6.243-2.238c2.479-2.2,2.8-5.988,2.8-9.04V50.567c0-4.666,0-5.518.064-6.471s.318-1.488,1.017-1.615a6.027,6.027,0,0,1,1.081-.089Z" transform="translate(-284.186 11.311)" fill="#fff" stroke="#fff" stroke-miterlimit="10" stroke-width="1"/><path d="M417.542,41.782h-.585a17.025,17.025,0,0,0-2,.076h-.89c-.623,0-1.767-.076-2.759-.076h-.585v.61a8.823,8.823,0,0,1,1.335.089c.979.2,1.157.661,1.271,1.615s.064,1.805.064,6.471v3.751c0,3.611-.521,5.8-1.716,7.285a6.192,6.192,0,0,1-4.742,2.1,5.785,5.785,0,0,1-4.463-1.627c-1.093-1.043-2.212-2.733-2.212-7.336v-4.2c0-4.666,0-5.518.064-6.471s.331-1.513,1.017-1.615a6.851,6.851,0,0,1,1-.089v-.61h-4.107c-.7,0-1.882-.076-2.822-.076H395v.61a7.629,7.629,0,0,1,1.271.089c.966.2,1.157.661,1.208,1.615s.064,1.805.064,6.471v4.374c0,4.819,1.411,6.789,2.644,7.972a9.243,9.243,0,0,0,6.242,2.149,8.9,8.9,0,0,0,6.243-2.238c2.479-2.2,2.8-5.988,2.8-9.04V50.567c0-4.666,0-5.518.064-6.471s.318-1.488,1.017-1.615a6.027,6.027,0,0,1,1.081-.089Z" transform="translate(-284.186 11.311)" fill="#fff" stroke="#fff" stroke-width="1.1"/><path d="M431.622,47.062h-4.513v.5a5.865,5.865,0,0,1,1.271.1c.572.153.725.547.75,1.92l.216,9.815L416.633,46.77V60.056c0,1.945-.114,2.543-.559,2.543a4.818,4.818,0,0,1-1.093.127v.5h5.111v-.483a6.166,6.166,0,0,1-1.271-.127c-.47-.127-.712-.534-.75-2.352l-.242-9.485,12.777,12.612V49.4c0-1.271.089-1.666.7-1.793a4.4,4.4,0,0,1,.839,0h0v-.547h-.5" transform="translate(-278.764 12.693)" fill="#fff" stroke="#fff" stroke-miterlimit="10" stroke-width="1"/><path d="M431.622,47.062h-4.513v.5a5.865,5.865,0,0,1,1.271.1c.572.153.725.547.75,1.92l.216,9.815L416.633,46.77V60.056c0,1.945-.114,2.543-.559,2.543a4.818,4.818,0,0,1-1.093.127v.5h5.111v-.483a6.166,6.166,0,0,1-1.271-.127c-.47-.127-.712-.534-.75-2.352l-.242-9.485,12.777,12.612V49.4c0-1.271.089-1.666.7-1.793a4.4,4.4,0,0,1,.839,0h0v-.547Z" transform="translate(-278.764 12.693)" fill="#fff" stroke="#fff" stroke-width="1.1"/><path d="M437.372,62.678A7.935,7.935,0,0,1,436.1,62.6c-.534-.076-.674-.432-.737-1.081a43.148,43.148,0,0,1-.114-4.59V48.642c0-.839.2-1.03.7-1.119a6.93,6.93,0,0,1,.788,0V47H432.07a2.618,2.618,0,0,0-.432,0v.47h.267a2.721,2.721,0,0,1,.636.076c.42.1.6.42.648,1.106s0,1.271,0,4.564v3.725a44.237,44.237,0,0,1-.1,4.59c-.089.661-.153.915-.534,1.081a1.653,1.653,0,0,1-.623.076H431.6v.458h5.645Z" transform="translate(-274.254 12.753)" fill="#fff" stroke="#fff" stroke-miterlimit="10" stroke-width="1"/><path d="M437.372,62.678A7.935,7.935,0,0,1,436.1,62.6c-.534-.076-.674-.432-.737-1.081a43.148,43.148,0,0,1-.114-4.59V48.642c0-.839.2-1.03.7-1.119a6.93,6.93,0,0,1,.788,0V47H432.07a2.618,2.618,0,0,0-.432,0v.47h.267a2.721,2.721,0,0,1,.636.076c.42.1.6.42.648,1.106s0,1.271,0,4.564v3.725a44.237,44.237,0,0,1-.1,4.59c-.089.661-.153.915-.534,1.081a1.653,1.653,0,0,1-.623.076H431.6v.458h5.645Z" transform="translate(-274.254 12.753)" fill="#fff" stroke="#fff" stroke-width="1.1"/><path d="M493.345,62.716a6.817,6.817,0,0,1-1.271-.089c-.547,0-.674-.432-.737-1.081a42.733,42.733,0,0,1-.114-4.577v-8.3c0-.852.2-1.017.7-1.106a6.927,6.927,0,0,1,.788,0V47h-4.666a2.85,2.85,0,0,0-.445,0v.458h.28a2.721,2.721,0,0,1,.636.076c.42.1.6.42.636,1.093s0,1.271,0,4.577v3.725a39.334,39.334,0,0,1-.114,4.577c-.089.661-.153.915-.534,1.081a1.386,1.386,0,0,1-.61.089h-.331v.47H493.2Z" transform="translate(-259.067 12.753)" fill="#fff" stroke="#fff" stroke-miterlimit="10" stroke-width="1"/><path d="M493.345,62.716a6.817,6.817,0,0,1-1.271-.089c-.547,0-.674-.432-.737-1.081a42.733,42.733,0,0,1-.114-4.577v-8.3c0-.852.2-1.017.7-1.106a6.927,6.927,0,0,1,.788,0V47h-4.666a2.85,2.85,0,0,0-.445,0v.458h.28a2.721,2.721,0,0,1,.636.076c.42.1.6.42.636,1.093s0,1.271,0,4.577v3.725a39.334,39.334,0,0,1-.114,4.577c-.089.661-.153.915-.534,1.081a1.386,1.386,0,0,1-.61.089h-.331v.47H493.2Z" transform="translate(-259.067 12.753)" fill="#fff" stroke="#fff" stroke-width="1.1"/><path d="M445.839,63.325h.776l5.658-13.68c.559-1.411.877-1.767,1.119-1.945a3.013,3.013,0,0,1,1.271-.242h0V47H449.92v.483h0a5.455,5.455,0,0,1,1.106.076c.28.165.216.305.216.394a2.911,2.911,0,0,1-.178.776c-.458,1.462-3.178,8.607-4.437,11.442l-3.979-10.591h0A8.125,8.125,0,0,1,442.1,47.9a.331.331,0,0,1,.216-.331,4.475,4.475,0,0,1,1.068-.1V47H437.6v.483a5.722,5.722,0,0,1,1.068.089c.687.191.992.381,1.462,1.564Z" transform="translate(-272.626 12.755)" fill="#fff" stroke="#fff" stroke-miterlimit="10" stroke-width="1"/><path d="M445.839,63.325h.776l5.658-13.68c.559-1.411.877-1.767,1.119-1.945a3.013,3.013,0,0,1,1.271-.242h0V47H449.92v.483h0a5.455,5.455,0,0,1,1.106.076c.28.165.216.305.216.394a2.911,2.911,0,0,1-.178.776c-.458,1.462-3.178,8.607-4.437,11.442l-3.979-10.591h0A8.125,8.125,0,0,1,442.1,47.9a.331.331,0,0,1,.216-.331,4.475,4.475,0,0,1,1.068-.1V47H437.6v.483a5.722,5.722,0,0,1,1.068.089c.687.191.992.381,1.462,1.564Z" transform="translate(-272.626 12.755)" fill="#fff" stroke="#fff" stroke-width="1.1"/><path d="M471.4,55.089a2.683,2.683,0,0,1-1.488.458,6.141,6.141,0,0,1-2.174-.28.216.216,0,0,1-.1-.178V48.121a.178.178,0,0,1,.114-.165,6.827,6.827,0,0,1,1.373-.114,3.382,3.382,0,0,1,2.466.928,4.437,4.437,0,0,1,1.106,3.2,3.661,3.661,0,0,1-1.271,3.115M480,62.717a5.874,5.874,0,0,1-.954,0,4.31,4.31,0,0,1-2.543-1.487c-1.081-1.157-2.327-2.759-3.814-4.615l-.559-.725a5.7,5.7,0,0,0,2.543-4.908,3.814,3.814,0,0,0-1.5-2.962A6.624,6.624,0,0,0,469.229,47H463.47v.483h1.386c.674.14.8.458.839,1.119s0,1.271,0,4.564v3.725c0,1.983,0,3.7-.1,4.59-.089.661-.2,1-.534,1.081a5.813,5.813,0,0,1-1.055.076v.5h5.645v-.483a6.842,6.842,0,0,1-1.208-.076c-.534-.076-.674-.432-.75-1.081-.1-.89-.1-2.606-.1-4.59V56.4h2.543a.267.267,0,0,1,.2.089l.788,1.081c.445.61,1,1.386,1.513,2.06l.267.343a9.737,9.737,0,0,0,2.619,2.8,4.526,4.526,0,0,0,2.314.407h1.971Z" transform="translate(-265.605 12.752)" fill="#fff" stroke="#fff" stroke-miterlimit="10" stroke-width="1"/><path d="M471.4,55.088a2.683,2.683,0,0,1-1.488.458,6.141,6.141,0,0,1-2.174-.28.216.216,0,0,1-.1-.178V48.121a.178.178,0,0,1,.114-.165,6.827,6.827,0,0,1,1.373-.114,3.382,3.382,0,0,1,2.466.928,4.437,4.437,0,0,1,1.106,3.2A3.661,3.661,0,0,1,471.4,55.088Zm8.569,7.628a5.875,5.875,0,0,1-.954,0,4.31,4.31,0,0,1-2.543-1.488c-1.081-1.157-2.327-2.759-3.814-4.615l-.559-.725a5.7,5.7,0,0,0,2.543-4.908,3.814,3.814,0,0,0-1.5-2.962A6.624,6.624,0,0,0,469.229,47H463.47v.483h1.386c.674.14.8.458.839,1.119s0,1.271,0,4.564v3.725c0,1.983,0,3.7-.1,4.59-.089.661-.2,1-.534,1.081A5.813,5.813,0,0,1,464,62.64v.5h5.645v-.483a6.842,6.842,0,0,1-1.208-.076c-.534-.076-.674-.432-.75-1.081-.1-.89-.1-2.606-.1-4.59V56.4h2.543a.267.267,0,0,1,.2.089l.788,1.081c.445.61,1,1.386,1.513,2.06l.267.343a9.737,9.737,0,0,0,2.619,2.8,4.526,4.526,0,0,0,2.314.407h1.971Z" transform="translate(-265.605 12.753)" fill="#fff" stroke="#fff" stroke-width="1.1"/><path d="M507.107,48.882V46.81c-.076,0-.61.165-.979.2a13.592,13.592,0,0,1-1.615.064h-7.628a11.075,11.075,0,0,1-1.666-.1,6.561,6.561,0,0,1-1.157-.165l-.089.381c0,.1-.661,2.441-.674,2.733h.559a8.809,8.809,0,0,1,.5-1.119c.318-.47.775-.61,2.085-.636h3.013v8.9c0,1.983,0,3.7-.1,4.59-.089.661-.2,1-.534,1.081a5.544,5.544,0,0,1-.852.076h0v.5h5.556v-.5a6.842,6.842,0,0,1-1.208-.076c-.534-.076-.674-.432-.737-1.081-.1-.89-.1-2.606-.1-4.59v-8.9h2.543c2.085,0,2.39.61,2.543,1.119v.191a3.441,3.441,0,0,1,.064.432h.445a3.33,3.33,0,0,0,0-.356v-.674" transform="translate(-257.51 12.703)" fill="#fff" stroke="#fff" stroke-miterlimit="10" stroke-width="1"/><path d="M507.107,48.882V46.81c-.076,0-.61.165-.979.2a13.592,13.592,0,0,1-1.615.064h-7.628a11.075,11.075,0,0,1-1.666-.1,6.561,6.561,0,0,1-1.157-.165l-.089.381c0,.1-.661,2.441-.674,2.733h.559a8.809,8.809,0,0,1,.5-1.119c.318-.47.775-.61,2.085-.636h3.013v8.9c0,1.983,0,3.7-.1,4.59-.089.661-.2,1-.534,1.081a5.544,5.544,0,0,1-.852.076h0v.5h5.556v-.5a6.842,6.842,0,0,1-1.208-.076c-.534-.076-.674-.432-.737-1.081-.1-.89-.1-2.606-.1-4.59v-8.9h2.543c2.085,0,2.39.61,2.543,1.119v.191a3.441,3.441,0,0,1,.064.432h.445a3.33,3.33,0,0,0,0-.356A5.576,5.576,0,0,0,507.107,48.882Z" transform="translate(-257.51 12.703)" fill="#fff" stroke="#fff" stroke-width="1.1"/><path d="M519.581,47h-3.9v.432a1.056,1.056,0,0,1,.394.089.47.47,0,0,1,.318.5,2.06,2.06,0,0,1-.394,1.03c-.381.674-3.039,5.162-3.433,6.065-.394-.636-3.471-5.925-3.814-6.522a1.666,1.666,0,0,1-.267-.776.318.318,0,0,1,.216-.292h.42V47H504.49v.458h.267a1.907,1.907,0,0,1,.865.331,5.846,5.846,0,0,1,1.411,1.538c.75,1.119,3.585,5.759,3.712,6.077h0a4.45,4.45,0,0,1,.47,2.174V59.4c0,.331,0,1.271-.064,2.11,0,.445-.153.992-.572,1.081a5.988,5.988,0,0,1-.877.076h0v.483h5.607v-.483a8.174,8.174,0,0,1-1.271-.076c-.5-.076-.737-.394-.788-1.081V57.591a5.086,5.086,0,0,1,.305-2.085,66.374,66.374,0,0,1,4.03-6.7,4.042,4.042,0,0,1,1.093-1.068,2.008,2.008,0,0,1,.928-.28h.1V47h-.1" transform="translate(-254.473 12.755)" fill="#fff" stroke="#fff" stroke-miterlimit="10" stroke-width="1"/><path d="M519.581,47h-3.9v.432a1.056,1.056,0,0,1,.394.089.47.47,0,0,1,.318.5,2.06,2.06,0,0,1-.394,1.03c-.381.674-3.039,5.162-3.433,6.065-.394-.636-3.471-5.925-3.814-6.522a1.666,1.666,0,0,1-.267-.776.318.318,0,0,1,.216-.292h.42V47H504.49v.458h.267a1.907,1.907,0,0,1,.865.331,5.846,5.846,0,0,1,1.411,1.538c.75,1.119,3.585,5.759,3.712,6.077h0a4.45,4.45,0,0,1,.47,2.174V59.4c0,.331,0,1.271-.064,2.11,0,.445-.153.992-.572,1.081a5.988,5.988,0,0,1-.877.076h0v.483h5.607v-.483a8.174,8.174,0,0,1-1.271-.076c-.5-.076-.737-.394-.788-1.081V57.591a5.086,5.086,0,0,1,.305-2.085,66.374,66.374,0,0,1,4.03-6.7,4.042,4.042,0,0,1,1.093-1.068,2.008,2.008,0,0,1,.928-.28h.1V47Z" transform="translate(-254.473 12.755)" fill="#fff" stroke="#fff" stroke-width="1.1"/></g><g transform="translate(190.83 38.714)"><path d="M307.276,45.554c0,5.632,5.175,6.357,7.844,6.357a10.247,10.247,0,0,0,1.526-.1V46.914a6.357,6.357,0,0,1-.75,0c-1.068,0-2.988-.267-2.988-2.149V39.655h3.509V35.269h-3.509V30.45h-5.467v4.819h-2.314v4.386h2.149Zm-19.694-2.212c0,4.615,3.356,8.785,9.345,8.785a10.171,10.171,0,0,0,7.2-2.772l-2.06-3.941a8.149,8.149,0,0,1-4.59,2.021,4.043,4.043,0,0,1-4.2-4.17,3.814,3.814,0,0,1,4-3.992,6.115,6.115,0,0,1,3.941,1.627l2.377-3.814a8.9,8.9,0,0,0-6.675-2.543c-6.026,0-9.345,4.259-9.345,8.76M275.5,41.18a2.746,2.746,0,0,1,2.708-2.4,2.288,2.288,0,0,1,2.212,2.4ZM269.618,43.3a8.7,8.7,0,0,0,9.154,8.823,11.29,11.29,0,0,0,7.158-2.441l-2.072-3.941a8.9,8.9,0,0,1-4.628,1.691,3.738,3.738,0,0,1-3.9-2.988H285.9s.127-1.271.127-1.767c0-4.653-2.8-8.1-7.743-8.1a8.34,8.34,0,0,0-8.722,8.76m-19.172,8.391h5.62V44.308a6.688,6.688,0,0,1,.331-2.212,3.306,3.306,0,0,1,3.356-2.4c1.271,0,1.856.648,1.856,2.212v9.828h5.632V40.863c0-4.717-2.632-6.281-6.026-6.281a5.874,5.874,0,0,0-5.276,2.924h-.076a7.738,7.738,0,0,0,.076-1.043v-1.5h-5.4Zm-20.342,0h5.632V44.308A6.688,6.688,0,0,1,236,42.1a3.306,3.306,0,0,1,3.356-2.4c1.271,0,1.856.648,1.856,2.212v9.828h5.632V40.863c0-4.717-2.632-6.281-6.014-6.281a5.9,5.9,0,0,0-5.34,2.9h-.064a9.256,9.256,0,0,0,.064-1.043V34.963h-5.4Zm-15.918-8.328a3.814,3.814,0,1,1,3.814,3.814,3.814,3.814,0,0,1-3.814-3.814m-5.7,0c0,5.238,4.234,8.722,9.5,8.722s9.51-3.484,9.51-8.722-4.234-8.823-9.535-8.823-9.472,3.547-9.472,8.823m-17.609,0c0,4.615,3.344,8.785,9.332,8.785a10.069,10.069,0,0,0,7.2-2.772l-2.047-3.941a8.2,8.2,0,0,1-4.59,2.021,4.043,4.043,0,0,1-4.2-4.17,3.814,3.814,0,0,1,4-3.992,6.1,6.1,0,0,1,3.929,1.627l2.377-3.814a8.824,8.824,0,0,0-6.675-2.543c-6.014,0-9.332,4.259-9.332,8.76" transform="translate(-190.83 -30.45)" fill="#6bc4e8"/></g></g></svg>