<svg width="55" height="48" viewBox="0 0 55 48" fill="none" xmlns="http://www.w3.org/2000/svg">
<g clip-path="url(#clip0_31_246)">
<path d="M55 0H0V48H55V0Z" fill="#C20F2F"/>
<path d="M31.5422 23.3789C31.5422 19.8603 28.6897 17.0079 25.1711 17.0078C21.6525 17.0078 18.8 19.8603 18.8 23.3789C18.8001 26.8975 21.6526 29.75 25.1711 29.75C28.6897 29.7499 31.5422 26.8974 31.5422 23.3789ZM33.5422 23.3789C33.5422 28.002 29.7942 31.75 25.1711 31.75C20.548 31.75 16.8001 28.002 16.8 23.3789C16.8 18.7557 20.548 15.0078 25.1711 15.0078C29.7943 15.0079 33.5422 18.7558 33.5422 23.3789Z" fill="white"/>
<path d="M30.3125 27.663C30.6661 27.2388 31.2974 27.1815 31.7217 27.535L37.6299 32.4598C38.0541 32.8134 38.1114 33.4438 37.7578 33.868C37.4042 34.292 36.7737 34.3494 36.3496 33.996L30.4404 29.0721C30.0162 28.7186 29.959 28.0872 30.3125 27.663Z" fill="white"/>
</g>
<defs>
<clipPath id="clip0_31_246">
<path d="M0 15C0 6.71573 6.71573 0 15 0H55V48H15C6.71573 48 0 41.2843 0 33V15Z" fill="white"/>
</clipPath>
</defs>
</svg>
