<svg width="81" height="12" viewBox="0 0 81 12" fill="none" xmlns="http://www.w3.org/2000/svg">
<path d="M77.1715 11.085C76.3815 11.085 75.6915 10.93 75.1015 10.62C74.5215 10.31 74.0715 9.86503 73.7515 9.28503C73.4315 8.70503 73.2715 8.00503 73.2715 7.18503C73.2715 6.36503 73.4315 5.66503 73.7515 5.08503C74.0715 4.50503 74.5165 4.06003 75.0865 3.75003C75.6665 3.44003 76.3265 3.28503 77.0665 3.28503C77.8265 3.28503 78.4715 3.44003 79.0015 3.75003C79.5315 4.05003 79.9365 4.46503 80.2165 4.99503C80.4965 5.51503 80.6365 6.11003 80.6365 6.78004C80.6365 6.98004 80.6315 7.17003 80.6215 7.35003C80.6115 7.53003 80.5965 7.69003 80.5765 7.83003H74.5915V6.40503H79.6765L78.6865 6.76503C78.6865 6.13503 78.5415 5.65003 78.2515 5.31003C77.9715 4.97003 77.5715 4.80003 77.0515 4.80003C76.6715 4.80003 76.3415 4.89003 76.0615 5.07003C75.7915 5.25003 75.5865 5.52003 75.4465 5.88003C75.3065 6.23003 75.2365 6.67503 75.2365 7.21503C75.2365 7.74503 75.3115 8.18503 75.4615 8.53503C75.6215 8.87503 75.8415 9.13003 76.1215 9.30003C76.4115 9.47003 76.7565 9.55503 77.1565 9.55503C77.5965 9.55503 77.9515 9.47003 78.2215 9.30003C78.4915 9.13003 78.7015 8.89503 78.8515 8.59503L80.4865 9.22503C80.3265 9.61503 80.0815 9.95003 79.7515 10.23C79.4315 10.51 79.0465 10.725 78.5965 10.875C78.1565 11.015 77.6815 11.085 77.1715 11.085Z" fill="white"/>
<path d="M70.9263 0.150024V8.62502C70.9263 8.97503 70.9863 9.22003 71.1063 9.36003C71.2263 9.50003 71.4263 9.57003 71.7063 9.57003C71.8763 9.57003 72.0163 9.56002 72.1263 9.54002C72.2363 9.51003 72.3763 9.47003 72.5463 9.42002L72.3663 10.77C72.1963 10.87 71.9813 10.945 71.7213 10.995C71.4713 11.055 71.2213 11.085 70.9713 11.085C70.2413 11.085 69.7063 10.91 69.3663 10.56C69.0363 10.2 68.8713 9.63002 68.8713 8.85003V0.150024H70.9263Z" fill="white"/>
<path d="M61.9044 0C62.2544 0 62.5694 0.04 62.8494 0.12C63.1394 0.19 63.3544 0.28 63.4944 0.39L63.2094 1.755C63.0994 1.685 62.9744 1.63 62.8344 1.59C62.6944 1.55 62.5294 1.53 62.3394 1.53C61.9494 1.53 61.6394 1.62 61.4094 1.8C61.1794 1.97 61.0644 2.265 61.0644 2.685V3.72L61.1544 4.125V10.935H59.0994V2.535C59.0994 2.115 59.1694 1.745 59.3094 1.425C59.4494 1.105 59.6444 0.84 59.8944 0.63C60.1444 0.42 60.4394 0.265 60.7794 0.164999C61.1294 0.0549997 61.5044 0 61.9044 0ZM63.4344 3.435V4.965H57.7944V3.435H63.4344ZM65.6994 2.355C65.2694 2.355 64.9494 2.265 64.7394 2.085C64.5294 1.895 64.4244 1.62 64.4244 1.26C64.4244 0.89 64.5294 0.615 64.7394 0.435C64.9494 0.245 65.2694 0.15 65.6994 0.15C66.1294 0.15 66.4494 0.245 66.6594 0.435C66.8694 0.615 66.9744 0.89 66.9744 1.26C66.9744 1.62 66.8694 1.895 66.6594 2.085C66.4494 2.265 66.1294 2.355 65.6994 2.355ZM66.7194 3.435V10.935H64.6644V3.435H66.7194Z" fill="white"/>
<path d="M53.0734 3.28503C53.8334 3.28503 54.4984 3.44003 55.0684 3.75003C55.6484 4.06003 56.0984 4.50503 56.4184 5.08503C56.7484 5.66503 56.9134 6.36503 56.9134 7.18503C56.9134 7.99503 56.7484 8.69503 56.4184 9.28503C56.0984 9.86503 55.6484 10.31 55.0684 10.62C54.4984 10.93 53.8334 11.085 53.0734 11.085C52.3234 11.085 51.6584 10.93 51.0784 10.62C50.4984 10.31 50.0434 9.86503 49.7134 9.28503C49.3934 8.69503 49.2334 7.99503 49.2334 7.18503C49.2334 6.36503 49.3934 5.66503 49.7134 5.08503C50.0434 4.50503 50.4984 4.06003 51.0784 3.75003C51.6584 3.44003 52.3234 3.28503 53.0734 3.28503ZM53.0734 4.81503C52.6934 4.81503 52.3684 4.90503 52.0984 5.08503C51.8384 5.25503 51.6384 5.51503 51.4984 5.86503C51.3584 6.21503 51.2884 6.65503 51.2884 7.18503C51.2884 7.71503 51.3584 8.15503 51.4984 8.50503C51.6384 8.85503 51.8384 9.12003 52.0984 9.30003C52.3684 9.47003 52.6934 9.55503 53.0734 9.55503C53.4434 9.55503 53.7584 9.47003 54.0184 9.30003C54.2884 9.12003 54.4934 8.85503 54.6334 8.50503C54.7734 8.15503 54.8434 7.71503 54.8434 7.18503C54.8434 6.65503 54.7734 6.21503 54.6334 5.86503C54.4934 5.51503 54.2884 5.25503 54.0184 5.08503C53.7584 4.90503 53.4434 4.81503 53.0734 4.81503Z" fill="white"/>
<path d="M43.4717 10.935V3.43503H45.2567L45.3917 4.90503C45.5917 4.38503 45.8817 3.98503 46.2617 3.70503C46.6517 3.42503 47.1367 3.28503 47.7167 3.28503C47.8867 3.28503 48.0417 3.30003 48.1817 3.33003C48.3217 3.36003 48.4367 3.40003 48.5267 3.45003L48.2867 5.17503C48.1867 5.13503 48.0617 5.10503 47.9117 5.08503C47.7717 5.06503 47.5867 5.05503 47.3567 5.05503C47.0567 5.05503 46.7667 5.13003 46.4867 5.28004C46.2067 5.42003 45.9767 5.64003 45.7967 5.94003C45.6167 6.23003 45.5267 6.60003 45.5267 7.05003V10.935H43.4717Z" fill="white"/>
<path d="M38.1394 1.03503C38.8994 1.03503 39.5494 1.16503 40.0894 1.42503C40.6294 1.67503 41.0444 2.04003 41.3344 2.52003C41.6344 2.99003 41.7844 3.56003 41.7844 4.23003C41.7844 4.90003 41.6344 5.47503 41.3344 5.95503C41.0444 6.42503 40.6294 6.79003 40.0894 7.05003C39.5494 7.30003 38.8994 7.42503 38.1394 7.42503H36.0544V10.935H33.9844V1.03503H38.1394ZM37.8244 5.79003C38.4444 5.79003 38.9094 5.66003 39.2194 5.40003C39.5294 5.13003 39.6844 4.74003 39.6844 4.23003C39.6844 3.71003 39.5294 3.32003 39.2194 3.06003C38.9094 2.80003 38.4444 2.67003 37.8244 2.67003H36.0544V5.79003H37.8244Z" fill="white"/>
<path d="M25.3991 1.14001V8.49002C25.3991 8.85002 25.4891 9.11502 25.6691 9.28502C25.8591 9.44501 26.1141 9.52502 26.4341 9.52502C26.6841 9.52502 26.9041 9.49002 27.0941 9.42002C27.2841 9.34002 27.4541 9.23502 27.6041 9.10502L27.9341 10.47C27.6941 10.66 27.3941 10.81 27.0341 10.92C26.6741 11.03 26.2941 11.085 25.8941 11.085C25.3941 11.085 24.9491 11.01 24.5591 10.86C24.1791 10.71 23.8791 10.47 23.6591 10.14C23.4491 9.81002 23.3441 9.37002 23.3441 8.82002V1.71002L25.3991 1.14001ZM27.7991 3.43502V4.96502H21.9641V3.43502H27.7991Z" fill="white"/>
<path d="M19.5455 2.35502C19.1155 2.35502 18.7955 2.26502 18.5855 2.08502C18.3755 1.89502 18.2705 1.62002 18.2705 1.26002C18.2705 0.890024 18.3755 0.615024 18.5855 0.435024C18.7955 0.245024 19.1155 0.150024 19.5455 0.150024C19.9755 0.150024 20.2955 0.245024 20.5055 0.435024C20.7155 0.615024 20.8205 0.890024 20.8205 1.26002C20.8205 1.62002 20.7155 1.89502 20.5055 2.08502C20.2955 2.26502 19.9755 2.35502 19.5455 2.35502ZM20.5655 3.43502V10.935H18.5105V3.43502H20.5655Z" fill="white"/>
<path d="M11.9414 11.085C11.3214 11.085 10.7664 10.93 10.2764 10.62C9.79645 10.31 9.41645 9.86502 9.13645 9.28502C8.86645 8.70502 8.73145 8.01002 8.73145 7.20002C8.73145 6.37002 8.87645 5.66502 9.16645 5.08502C9.45645 4.49502 9.84645 4.05002 10.3364 3.75002C10.8364 3.44002 11.3964 3.28502 12.0164 3.28502C12.6764 3.28502 13.2214 3.47502 13.6514 3.85502C14.0814 4.23502 14.3614 4.72502 14.4914 5.32502L14.2964 5.56503V0.150024H16.3514V10.935H14.5064L14.3714 8.65503L14.6264 8.77503C14.5564 9.24503 14.3964 9.65502 14.1464 10.005C13.8964 10.345 13.5814 10.61 13.2014 10.8C12.8214 10.99 12.4014 11.085 11.9414 11.085ZM12.5414 9.51003C12.9014 9.51003 13.2114 9.42003 13.4714 9.24003C13.7314 9.05003 13.9314 8.77502 14.0714 8.41502C14.2214 8.05502 14.2964 7.62502 14.2964 7.12502C14.2964 6.64502 14.2264 6.24002 14.0864 5.91002C13.9464 5.57002 13.7464 5.31003 13.4864 5.13002C13.2264 4.95002 12.9214 4.86002 12.5714 4.86002C12.0114 4.86002 11.5714 5.06002 11.2514 5.46002C10.9414 5.85002 10.7864 6.42502 10.7864 7.18503C10.7864 7.94502 10.9414 8.52503 11.2514 8.92502C11.5614 9.31503 11.9914 9.51003 12.5414 9.51003Z" fill="white"/>
<path d="M0 10.935V1.03503H7.425V2.70003H2.07V5.16003H6.285V6.75003H2.07V9.27003H7.635V10.935H0Z" fill="white"/>
</svg>
