<svg width="203" height="62" viewBox="0 0 203 62" fill="none" xmlns="http://www.w3.org/2000/svg">
<path d="M197.57 60.9932V61.9932H5V60.9932H197.57ZM201.57 56.9932V5C201.57 2.79086 199.779 1 197.57 1H5C2.79086 1 1 2.79086 1 5V56.9932C1.00008 59.2022 2.79091 60.9932 5 60.9932V61.9932L4.74316 61.9863C2.18622 61.857 0.136295 59.8069 0.00683594 57.25L0 56.9932V5C0 2.23858 2.23858 0 5 0H197.57C200.332 0 202.57 2.23858 202.57 5V56.9932L202.564 57.25C202.435 59.8067 200.385 61.8566 197.828 61.9863L197.57 61.9932V60.9932C199.779 60.9932 201.57 59.2022 201.57 56.9932Z" fill="#C20F2F"/>
</svg>
