<svg width="296" height="50" viewBox="0 0 296 50" fill="none" xmlns="http://www.w3.org/2000/svg">
<path d="M0 0H296V50H0V0Z" fill="white"/>
<path d="M105.826 33.1998C104.773 33.1998 103.853 32.9931 103.066 32.5798C102.293 32.1665 101.693 31.5731 101.266 30.7998C100.839 30.0265 100.626 29.0931 100.626 27.9998C100.626 26.9065 100.839 25.9731 101.266 25.1998C101.693 24.4265 102.286 23.8331 103.046 23.4198C103.819 23.0065 104.699 22.7998 105.686 22.7998C106.699 22.7998 107.559 23.0065 108.266 23.4198C108.973 23.8198 109.513 24.3731 109.886 25.0798C110.259 25.7731 110.446 26.5665 110.446 27.4598C110.446 27.7265 110.439 27.9798 110.426 28.2198C110.413 28.4598 110.393 28.6731 110.366 28.8598H102.386V26.9598H109.166L107.846 27.4398C107.846 26.5998 107.653 25.9531 107.266 25.4998C106.893 25.0465 106.359 24.8198 105.666 24.8198C105.159 24.8198 104.719 24.9398 104.346 25.1798C103.986 25.4198 103.713 25.7798 103.526 26.2598C103.339 26.7265 103.246 27.3198 103.246 28.0398C103.246 28.7465 103.346 29.3331 103.546 29.7998C103.759 30.2531 104.053 30.5931 104.426 30.8198C104.813 31.0465 105.273 31.1598 105.806 31.1598C106.393 31.1598 106.866 31.0465 107.226 30.8198C107.586 30.5931 107.866 30.2798 108.066 29.8798L110.246 30.7198C110.033 31.2398 109.706 31.6865 109.266 32.0598C108.839 32.4331 108.326 32.7198 107.726 32.9198C107.139 33.1065 106.506 33.1998 105.826 33.1998Z" fill="black"/>
<path d="M92.9438 32.9998V22.9998H95.3238L95.5038 24.9598C95.7705 24.2665 96.1572 23.7331 96.6638 23.3598C97.1838 22.9865 97.8305 22.7998 98.6038 22.7998C98.8305 22.7998 99.0372 22.8198 99.2238 22.8598C99.4105 22.8998 99.5638 22.9531 99.6838 23.0198L99.3638 25.3198C99.2305 25.2665 99.0638 25.2265 98.8638 25.1998C98.6772 25.1731 98.4305 25.1598 98.1238 25.1598C97.7238 25.1598 97.3372 25.2598 96.9638 25.4598C96.5905 25.6465 96.2838 25.9398 96.0438 26.3398C95.8038 26.7265 95.6838 27.2198 95.6838 27.8198V32.9998H92.9438Z" fill="black"/>
<path d="M84.0606 33.2C83.394 33.2 82.794 33.08 82.2606 32.84C81.7273 32.6 81.3006 32.22 80.9806 31.7C80.674 31.1667 80.5206 30.48 80.5206 29.64V23H83.2606V28.98C83.2606 29.7533 83.4206 30.2933 83.7406 30.6C84.0606 30.8933 84.5206 31.04 85.1206 31.04C85.4006 31.04 85.674 30.9933 85.9406 30.9C86.2073 30.7933 86.4406 30.6333 86.6406 30.42C86.854 30.2067 87.0206 29.9333 87.1406 29.6C87.2606 29.2533 87.3206 28.8467 87.3206 28.38V23H90.0606V33H87.6206L87.5206 31.26C87.1873 31.9267 86.7273 32.42 86.1406 32.74C85.5673 33.0467 84.874 33.2 84.0606 33.2Z" fill="black"/>
<path d="M75.5269 19.9399V29.7399C75.5269 30.2199 75.6469 30.5733 75.8869 30.7999C76.1402 31.0133 76.4802 31.1199 76.9069 31.1199C77.2402 31.1199 77.5336 31.0733 77.7869 30.9799C78.0402 30.8733 78.2669 30.7333 78.4669 30.5599L78.9069 32.3799C78.5869 32.6333 78.1869 32.8333 77.7069 32.9799C77.2269 33.1266 76.7202 33.1999 76.1869 33.1999C75.5202 33.1999 74.9269 33.0999 74.4069 32.8999C73.9002 32.6999 73.5002 32.3799 73.2069 31.9399C72.9269 31.4999 72.7869 30.9133 72.7869 30.1799V20.6999L75.5269 19.9399ZM78.7269 22.9999V25.0399H70.9469V22.9999H78.7269Z" fill="black"/>
<path d="M67.7223 21.5601C67.149 21.5601 66.7223 21.4401 66.4423 21.2001C66.1623 20.9468 66.0223 20.5801 66.0223 20.1001C66.0223 19.6068 66.1623 19.2401 66.4423 19.0001C66.7223 18.7468 67.149 18.6201 67.7223 18.6201C68.2957 18.6201 68.7223 18.7468 69.0023 19.0001C69.2823 19.2401 69.4223 19.6068 69.4223 20.1001C69.4223 20.5801 69.2823 20.9468 69.0023 21.2001C68.7223 21.4401 68.2957 21.5601 67.7223 21.5601ZM69.0823 23.0001V33.0001H66.3423V23.0001H69.0823Z" fill="black"/>
<path d="M53.9595 32.9998V22.9998H56.4195L56.5795 25.9998L56.2395 25.6798C56.3995 25.0265 56.6528 24.4865 56.9995 24.0598C57.3461 23.6331 57.7661 23.3198 58.2595 23.1198C58.7661 22.9065 59.3195 22.7998 59.9195 22.7998C60.6128 22.7998 61.2261 22.9331 61.7595 23.1998C62.3061 23.4665 62.7328 23.8731 63.0395 24.4198C63.3595 24.9531 63.5195 25.6265 63.5195 26.4398V32.9998H60.7795V27.2198C60.7795 26.3665 60.6128 25.7798 60.2795 25.4598C59.9461 25.1265 59.5128 24.9598 58.9795 24.9598C58.6061 24.9598 58.2395 25.0531 57.8795 25.2398C57.5328 25.4131 57.2461 25.6998 57.0195 26.0998C56.8061 26.4998 56.6995 27.0331 56.6995 27.6998V32.9998H53.9595Z" fill="black"/>
<path d="M45.522 32.9998V22.9998H47.902L48.082 24.9598C48.3486 24.2665 48.7353 23.7331 49.242 23.3598C49.762 22.9865 50.4086 22.7998 51.182 22.7998C51.4086 22.7998 51.6153 22.8198 51.802 22.8598C51.9886 22.8998 52.142 22.9531 52.262 23.0198L51.942 25.3198C51.8086 25.2665 51.642 25.2265 51.442 25.1998C51.2553 25.1731 51.0086 25.1598 50.702 25.1598C50.302 25.1598 49.9153 25.2598 49.542 25.4598C49.1686 25.6465 48.862 25.9398 48.622 26.3398C48.382 26.7265 48.262 27.2198 48.262 27.8198V32.9998H45.522Z" fill="black"/>
<path d="M36.6388 33.2C35.9721 33.2 35.3721 33.08 34.8388 32.84C34.3054 32.6 33.8788 32.22 33.5588 31.7C33.2521 31.1667 33.0988 30.48 33.0988 29.64V23H35.8388V28.98C35.8388 29.7533 35.9988 30.2933 36.3188 30.6C36.6388 30.8933 37.0988 31.04 37.6988 31.04C37.9788 31.04 38.2521 30.9933 38.5188 30.9C38.7854 30.7933 39.0188 30.6333 39.2188 30.42C39.4321 30.2067 39.5988 29.9333 39.7188 29.6C39.8388 29.2533 39.8988 28.8467 39.8988 28.38V23H42.6388V33H40.1988L40.0988 31.26C39.7654 31.9267 39.3054 32.42 38.7188 32.74C38.1454 33.0467 37.4521 33.2 36.6388 33.2Z" fill="black"/>
<path d="M31.6 22.0198H24.48V25.3798H30.1V27.5998H24.48V32.9998H21.72V19.7998H31.6V22.0198Z" fill="black"/>
</svg>
