<svg width="76" height="16" viewBox="0 0 76 16" fill="none" xmlns="http://www.w3.org/2000/svg">
<path d="M75.2542 6.53408L73.7485 6.96022C73.6538 6.70927 73.5141 6.46542 73.3295 6.22868C73.1495 5.9872 72.9033 5.78834 72.5908 5.63209C72.2783 5.47584 71.8782 5.39772 71.3905 5.39772C70.7229 5.39772 70.1666 5.5516 69.7215 5.85936C69.2812 6.16239 69.061 6.54828 69.061 7.01703C69.061 7.4337 69.2125 7.76277 69.5155 8.00425C69.8186 8.24573 70.292 8.44696 70.936 8.60794L72.5553 9.00567C73.5307 9.24241 74.2575 9.60463 74.7357 10.0923C75.2139 10.5753 75.453 11.1979 75.453 11.9602C75.453 12.5852 75.2731 13.1439 74.9133 13.6364C74.5581 14.1288 74.061 14.517 73.4218 14.8011C72.7826 15.0852 72.0392 15.2273 71.1917 15.2273C70.079 15.2273 69.1581 14.9858 68.4289 14.5028C67.6997 14.0199 67.2381 13.3144 67.0439 12.3864L68.6348 11.9886C68.7864 12.5757 69.0728 13.0161 69.4942 13.3096C69.9204 13.6032 70.4767 13.75 71.1633 13.75C71.9445 13.75 72.5648 13.5843 73.0241 13.2528C73.4881 12.9167 73.7201 12.5142 73.7201 12.0454C73.7201 11.6667 73.5875 11.3494 73.3223 11.0937C73.0572 10.8333 72.65 10.6392 72.1008 10.5114L70.2826 10.0852C69.2835 9.84847 68.5496 9.48152 68.0809 8.98436C67.6169 8.48247 67.3848 7.8551 67.3848 7.10226C67.3848 6.48673 67.5577 5.94222 67.9033 5.46874C68.2537 4.99525 68.7295 4.62357 69.3309 4.35368C69.9369 4.0838 70.6235 3.94885 71.3905 3.94885C72.4701 3.94885 73.3176 4.18559 73.9331 4.65908C74.5534 5.13256 74.9937 5.75756 75.2542 6.53408Z" fill="black"/>
<path d="M53.7484 15L50.4246 4.09094H52.1859L54.5439 12.4432H54.6575L56.9871 4.09094H58.7768L61.078 12.4148H61.1916L63.5496 4.09094H65.3109L61.9871 15H60.3393L57.953 6.61935H57.7825L55.3961 15H53.7484Z" fill="black"/>
<path d="M44.21 15.2273C43.1588 15.2273 42.2521 14.9953 41.4898 14.5312C40.7322 14.0625 40.1475 13.4091 39.7355 12.571C39.3284 11.7282 39.1248 10.7481 39.1248 9.63067C39.1248 8.51325 39.3284 7.5284 39.7355 6.67612C40.1475 5.81912 40.7204 5.1515 41.4543 4.67328C42.1929 4.19033 43.0547 3.94885 44.0395 3.94885C44.6077 3.94885 45.1688 4.04355 45.7228 4.23294C46.2767 4.42234 46.781 4.7301 47.2355 5.15624C47.6901 5.57764 48.0523 6.13635 48.3222 6.83237C48.5921 7.5284 48.727 8.38541 48.727 9.4034V10.1136H40.3179V8.66476H47.0225C47.0225 8.04923 46.8994 7.49999 46.6532 7.01703C46.4117 6.53408 46.066 6.15292 45.6162 5.87357C45.1712 5.59421 44.6456 5.45453 44.0395 5.45453C43.3719 5.45453 42.7943 5.62025 42.3066 5.95169C41.8236 6.2784 41.4519 6.70453 41.1915 7.2301C40.9311 7.75567 40.8009 8.31912 40.8009 8.92044V9.88635C40.8009 10.7102 40.9429 11.4086 41.227 11.9815C41.5159 12.5497 41.9159 12.9829 42.4273 13.2812C42.9387 13.5748 43.5329 13.7216 44.21 13.7216C44.6503 13.7216 45.048 13.66 45.4032 13.5369C45.763 13.4091 46.0731 13.2197 46.3336 12.9687C46.594 12.7131 46.7952 12.3958 46.9373 12.017L48.5566 12.4716C48.3861 13.0208 48.0997 13.5038 47.6972 13.9204C47.2947 14.3324 46.7976 14.6543 46.2057 14.8864C45.6139 15.1136 44.9486 15.2273 44.21 15.2273Z" fill="black"/>
<path d="M34.89 15V4.09091H36.5661V15H34.89ZM35.7423 2.27273C35.4156 2.27273 35.1338 2.16146 34.8971 1.93892C34.6651 1.71638 34.5491 1.44886 34.5491 1.13636C34.5491 0.823864 34.6651 0.556344 34.8971 0.333806C35.1338 0.111269 35.4156 0 35.7423 0C36.069 0 36.3483 0.111269 36.5803 0.333806C36.8171 0.556344 36.9354 0.823864 36.9354 1.13636C36.9354 1.44886 36.8171 1.71638 36.5803 1.93892C36.3483 2.16146 36.069 2.27273 35.7423 2.27273Z" fill="black"/>
<path d="M32.6778 4.09094L28.6437 15H26.9391L22.905 4.09094H24.7232L27.7346 12.7841H27.8482L30.8596 4.09094H32.6778Z" fill="black"/>
<path d="M17.0225 15.2273C15.9713 15.2273 15.0646 14.9953 14.3023 14.5312C13.5447 14.0625 12.96 13.4091 12.5481 12.571C12.1409 11.7282 11.9373 10.7481 11.9373 9.63067C11.9373 8.51325 12.1409 7.5284 12.5481 6.67612C12.96 5.81912 13.5329 5.1515 14.2668 4.67328C15.0054 4.19033 15.8672 3.94885 16.852 3.94885C17.4202 3.94885 17.9813 4.04355 18.5353 4.23294C19.0892 4.42234 19.5935 4.7301 20.0481 5.15624C20.5026 5.57764 20.8648 6.13635 21.1347 6.83237C21.4046 7.5284 21.5395 8.38541 21.5395 9.4034V10.1136H13.1304V8.66476H19.835C19.835 8.04923 19.7119 7.49999 19.4657 7.01703C19.2242 6.53408 18.8785 6.15292 18.4287 5.87357C17.9837 5.59421 17.4581 5.45453 16.852 5.45453C16.1844 5.45453 15.6068 5.62025 15.1191 5.95169C14.6361 6.2784 14.2644 6.70453 14.004 7.2301C13.7436 7.75567 13.6134 8.31912 13.6134 8.92044V9.88635C13.6134 10.7102 13.7554 11.4086 14.0395 11.9815C14.3284 12.5497 14.7285 12.9829 15.2398 13.2812C15.7512 13.5748 16.3454 13.7216 17.0225 13.7216C17.4628 13.7216 17.8606 13.66 18.2157 13.5369C18.5755 13.4091 18.8856 13.2197 19.1461 12.9687C19.4065 12.7131 19.6077 12.3958 19.7498 12.017L21.3691 12.4716C21.1986 13.0208 20.9122 13.5038 20.5097 13.9204C20.1072 14.3324 19.6101 14.6543 19.0182 14.8864C18.4264 15.1136 17.7611 15.2273 17.0225 15.2273Z" fill="black"/>
<path d="M0 15V0.45459H4.91477C6.05114 0.45459 6.9839 0.648718 7.71307 1.03698C8.44223 1.4205 8.98201 1.94843 9.33239 2.62078C9.68277 3.29313 9.85795 4.05781 9.85795 4.91482C9.85795 5.77182 9.68277 6.53177 9.33239 7.19465C8.98201 7.85753 8.4446 8.37836 7.72017 8.75715C6.99574 9.1312 6.07008 9.31823 4.94318 9.31823H0.965909V7.72732H4.88636C5.66288 7.72732 6.28788 7.61368 6.76136 7.38641C7.23958 7.15914 7.58523 6.83717 7.7983 6.4205C8.0161 5.9991 8.125 5.4972 8.125 4.91482C8.125 4.33243 8.0161 3.82343 7.7983 3.38783C7.58049 2.95222 7.23248 2.61605 6.75426 2.37931C6.27604 2.13783 5.64394 2.01709 4.85795 2.01709H1.76136V15H0ZM6.84659 8.46595L10.4261 15H8.38068L4.85795 8.46595H6.84659Z" fill="black"/>
</svg>
