<svg width="77" height="35" viewBox="0 0 77 35" fill="none" xmlns="http://www.w3.org/2000/svg">
<path d="M0 5C0 2.23857 2.23858 0 5 0H71.1355C73.897 0 76.1356 2.23858 76.1356 5V29.0606C76.1356 31.822 73.897 34.0606 71.1356 34.0606H5C2.23858 34.0606 0 31.822 0 29.0606V5Z" fill="white"/>
<path d="M71.1356 33.0606V34.0606H4.99999V33.0606H71.1356ZM75.1356 29.0606V5.00001C75.1356 2.79093 73.3446 1.00011 71.1356 1H4.99999C2.79085 1 0.999997 2.79087 0.999997 5.00001V29.0606C0.999997 31.2697 2.79085 33.0606 4.99999 33.0606V34.0606C2.23857 34.0606 0 31.822 0 29.0606V5.00001C0 2.23858 2.23857 0 4.99999 0H71.1356L71.3924 0.00683595C74.0344 0.140628 76.1356 2.32479 76.1356 5.00001V29.0606L76.1287 29.3184C75.9989 31.8749 73.949 33.9243 71.3924 34.0538L71.1356 34.0606V33.0606C73.3446 33.0605 75.1356 31.2697 75.1356 29.0606Z" fill="#C20F2F"/>
<path d="M68.2932 14.4688V19.3688C68.2932 19.6088 68.3532 19.7854 68.4732 19.8988C68.5998 20.0054 68.7698 20.0588 68.9832 20.0588C69.1498 20.0588 69.2965 20.0354 69.4232 19.9888C69.5498 19.9354 69.6632 19.8654 69.7632 19.7788L69.9832 20.6888C69.8232 20.8154 69.6232 20.9154 69.3832 20.9888C69.1432 21.0621 68.8898 21.0988 68.6232 21.0988C68.2898 21.0988 67.9932 21.0488 67.7332 20.9488C67.4798 20.8488 67.2798 20.6888 67.1332 20.4688C66.9932 20.2488 66.9232 19.9554 66.9232 19.5888V14.8488L68.2932 14.4688ZM69.8932 15.9988V17.0188H66.0032V15.9988H69.8932Z" fill="black"/>
<path d="M65.0813 13.7085C65.3146 13.7085 65.5246 13.7352 65.7113 13.7885C65.9046 13.8352 66.048 13.8952 66.1413 13.9685L65.9513 14.8785C65.878 14.8318 65.7946 14.7952 65.7013 14.7685C65.608 14.7418 65.498 14.7285 65.3713 14.7285C65.1113 14.7285 64.9046 14.7885 64.7513 14.9085C64.598 15.0218 64.5213 15.2185 64.5213 15.4985V16.1885L64.5813 16.4585V20.9985H63.2113V15.3985C63.2113 15.1185 63.258 14.8718 63.3513 14.6585C63.4446 14.4452 63.5746 14.2685 63.7413 14.1285C63.908 13.9885 64.1046 13.8852 64.3313 13.8185C64.5646 13.7452 64.8146 13.7085 65.0813 13.7085ZM66.1013 15.9985V17.0185H62.3413V15.9985H66.1013Z" fill="black"/>
<path d="M59.9884 17.8084C59.9884 17.5218 59.9051 17.2984 59.7384 17.1384C59.5784 16.9784 59.3651 16.8984 59.0984 16.8984C58.8517 16.8984 58.6351 16.9618 58.4484 17.0884C58.2617 17.2151 58.1251 17.4251 58.0384 17.7184L56.8684 17.3584C56.9817 16.9184 57.2284 16.5651 57.6084 16.2984C57.9951 16.0318 58.5117 15.8984 59.1584 15.8984C59.5984 15.8984 59.9817 15.9684 60.3084 16.1084C60.6351 16.2418 60.8884 16.4451 61.0684 16.7184C61.2551 16.9918 61.3484 17.3351 61.3484 17.7484V19.7784C61.3484 20.0318 61.4684 20.1584 61.7084 20.1584C61.8217 20.1584 61.9284 20.1418 62.0284 20.1084L61.9484 20.9584C61.7751 21.0451 61.5584 21.0884 61.2984 21.0884C61.0651 21.0884 60.8551 21.0484 60.6684 20.9684C60.4817 20.8884 60.3351 20.7684 60.2284 20.6084C60.1217 20.4418 60.0684 20.2351 60.0684 19.9884V19.9484L60.3084 19.9084C60.2684 20.1618 60.1584 20.3784 59.9784 20.5584C59.7984 20.7318 59.5784 20.8651 59.3184 20.9584C59.0651 21.0518 58.8017 21.0984 58.5284 21.0984C58.1884 21.0984 57.8951 21.0484 57.6484 20.9484C57.4017 20.8418 57.2117 20.6884 57.0784 20.4884C56.9451 20.2884 56.8784 20.0418 56.8784 19.7484C56.8784 19.3751 56.9984 19.0718 57.2384 18.8384C57.4784 18.5984 57.8217 18.4351 58.2684 18.3484L60.1484 17.9684L60.1384 18.8184L58.9384 19.0584C58.7117 19.1051 58.5384 19.1684 58.4184 19.2484C58.3051 19.3218 58.2484 19.4451 58.2484 19.6184C58.2484 19.7851 58.3084 19.9118 58.4284 19.9984C58.5551 20.0851 58.7051 20.1284 58.8784 20.1284C59.0184 20.1284 59.1551 20.1118 59.2884 20.0784C59.4217 20.0451 59.5417 19.9918 59.6484 19.9184C59.7551 19.8451 59.8384 19.7451 59.8984 19.6184C59.9584 19.4918 59.9884 19.3384 59.9884 19.1584V17.8084Z" fill="black"/>
<path d="M53.0076 20.9984V15.9984H54.1976L54.2876 16.9784C54.4209 16.6318 54.6142 16.3651 54.8676 16.1784C55.1276 15.9918 55.4509 15.8984 55.8376 15.8984C55.9509 15.8984 56.0542 15.9084 56.1476 15.9284C56.2409 15.9484 56.3176 15.9751 56.3776 16.0084L56.2176 17.1584C56.1509 17.1318 56.0676 17.1118 55.9676 17.0984C55.8742 17.0851 55.7509 17.0784 55.5976 17.0784C55.3976 17.0784 55.2042 17.1284 55.0176 17.2284C54.8309 17.3218 54.6776 17.4684 54.5576 17.6684C54.4376 17.8618 54.3776 18.1084 54.3776 18.4084V20.9984H53.0076Z" fill="black"/>
<path d="M48.5393 14.3984C49.5726 14.3984 50.3726 14.6851 50.9393 15.2584C51.5059 15.8251 51.7893 16.6384 51.7893 17.6984C51.7893 18.7518 51.5059 19.5651 50.9393 20.1384C50.3726 20.7118 49.5726 20.9984 48.5393 20.9984H45.9893V14.3984H48.5393ZM48.4693 19.8984C49.0959 19.8984 49.5659 19.7118 49.8793 19.3384C50.1993 18.9584 50.3593 18.4118 50.3593 17.6984C50.3593 16.9851 50.1993 16.4418 49.8793 16.0684C49.5659 15.6884 49.0959 15.4984 48.4693 15.4984H47.3693V19.8984H48.4693Z" fill="black"/>
<path d="M39.4801 21.0984C38.9734 21.0984 38.5101 21.0084 38.0901 20.8284C37.6767 20.6484 37.3401 20.3951 37.0801 20.0684L37.8701 19.2684C38.0301 19.5084 38.2434 19.7051 38.5101 19.8584C38.7767 20.0118 39.0934 20.0884 39.4601 20.0884C39.7201 20.0884 39.9267 20.0518 40.0801 19.9784C40.2401 19.8984 40.3201 19.7751 40.3201 19.6084C40.3201 19.5018 40.2834 19.4118 40.2101 19.3384C40.1367 19.2584 39.9901 19.1951 39.7701 19.1484L38.8901 18.9684C38.3101 18.8484 37.8967 18.6684 37.6501 18.4284C37.4101 18.1818 37.2901 17.8651 37.2901 17.4784C37.2901 17.2051 37.3701 16.9484 37.5301 16.7084C37.6967 16.4684 37.9434 16.2751 38.2701 16.1284C38.5967 15.9751 39.0034 15.8984 39.4901 15.8984C39.9901 15.8984 40.4234 15.9784 40.7901 16.1384C41.1634 16.2918 41.4567 16.5218 41.6701 16.8284L40.8501 17.6284C40.7034 17.3951 40.5101 17.2184 40.2701 17.0984C40.0367 16.9718 39.7901 16.9084 39.5301 16.9084C39.3434 16.9084 39.1834 16.9284 39.0501 16.9684C38.9167 17.0084 38.8167 17.0651 38.7501 17.1384C38.6834 17.2051 38.6501 17.2918 38.6501 17.3984C38.6501 17.5051 38.6967 17.5984 38.7901 17.6784C38.8834 17.7518 39.0534 17.8151 39.3001 17.8684L40.3201 18.0784C40.8134 18.1784 41.1667 18.3484 41.3801 18.5884C41.5934 18.8218 41.7001 19.1051 41.7001 19.4384C41.7001 19.7584 41.6134 20.0451 41.4401 20.2984C41.2734 20.5451 41.0234 20.7418 40.6901 20.8884C40.3634 21.0284 39.9601 21.0984 39.4801 21.0984Z" fill="black"/>
<path d="M34.588 17.8084C34.588 17.5218 34.5047 17.2984 34.338 17.1384C34.178 16.9784 33.9647 16.8984 33.698 16.8984C33.4514 16.8984 33.2347 16.9618 33.048 17.0884C32.8614 17.2151 32.7247 17.4251 32.638 17.7184L31.468 17.3584C31.5814 16.9184 31.828 16.5651 32.208 16.2984C32.5947 16.0318 33.1113 15.8984 33.758 15.8984C34.198 15.8984 34.5813 15.9684 34.908 16.1084C35.2347 16.2418 35.488 16.4451 35.668 16.7184C35.8547 16.9918 35.948 17.3351 35.948 17.7484V19.7784C35.948 20.0318 36.068 20.1584 36.308 20.1584C36.4214 20.1584 36.528 20.1418 36.628 20.1084L36.548 20.9584C36.3747 21.0451 36.158 21.0884 35.898 21.0884C35.6647 21.0884 35.4547 21.0484 35.268 20.9684C35.0814 20.8884 34.9347 20.7684 34.828 20.6084C34.7213 20.4418 34.668 20.2351 34.668 19.9884V19.9484L34.908 19.9084C34.868 20.1618 34.758 20.3784 34.578 20.5584C34.398 20.7318 34.178 20.8651 33.918 20.9584C33.6647 21.0518 33.4014 21.0984 33.128 21.0984C32.788 21.0984 32.4947 21.0484 32.248 20.9484C32.0013 20.8418 31.8114 20.6884 31.678 20.4884C31.5447 20.2884 31.478 20.0418 31.478 19.7484C31.478 19.3751 31.598 19.0718 31.838 18.8384C32.078 18.5984 32.4214 18.4351 32.868 18.3484L34.748 17.9684L34.738 18.8184L33.538 19.0584C33.3114 19.1051 33.138 19.1684 33.018 19.2484C32.9047 19.3218 32.848 19.4451 32.848 19.6184C32.848 19.7851 32.908 19.9118 33.028 19.9984C33.1547 20.0851 33.3047 20.1284 33.478 20.1284C33.618 20.1284 33.7547 20.1118 33.888 20.0784C34.0214 20.0451 34.1413 19.9918 34.248 19.9184C34.3547 19.8451 34.438 19.7451 34.498 19.6184C34.558 19.4918 34.588 19.3384 34.588 19.1584V17.8084Z" fill="black"/>
<path d="M25.2104 21.0984C24.6837 21.0984 24.2237 20.9951 23.8304 20.7884C23.4437 20.5818 23.1437 20.2851 22.9304 19.8984C22.717 19.5118 22.6104 19.0451 22.6104 18.4984C22.6104 17.9518 22.717 17.4851 22.9304 17.0984C23.1437 16.7118 23.4404 16.4151 23.8204 16.2084C24.207 16.0018 24.647 15.8984 25.1404 15.8984C25.647 15.8984 26.077 16.0018 26.4304 16.2084C26.7837 16.4084 27.0537 16.6851 27.2404 17.0384C27.427 17.3851 27.5204 17.7818 27.5204 18.2284C27.5204 18.3618 27.517 18.4884 27.5104 18.6084C27.5037 18.7284 27.4937 18.8351 27.4804 18.9284H23.4904V17.9784H26.8804L26.2204 18.2184C26.2204 17.7984 26.1237 17.4751 25.9304 17.2484C25.7437 17.0218 25.477 16.9084 25.1304 16.9084C24.877 16.9084 24.657 16.9684 24.4704 17.0884C24.2904 17.2084 24.1537 17.3884 24.0604 17.6284C23.967 17.8618 23.9204 18.1584 23.9204 18.5184C23.9204 18.8718 23.9704 19.1651 24.0704 19.3984C24.177 19.6251 24.3237 19.7951 24.5104 19.9084C24.7037 20.0218 24.9337 20.0784 25.2004 20.0784C25.4937 20.0784 25.7304 20.0218 25.9104 19.9084C26.0904 19.7951 26.2304 19.6384 26.3304 19.4384L27.4204 19.8584C27.3137 20.1184 27.1504 20.3418 26.9304 20.5284C26.717 20.7151 26.4604 20.8584 26.1604 20.9584C25.867 21.0518 25.5504 21.0984 25.2104 21.0984Z" fill="black"/>
<path d="M20.7701 15.9985H22.1901L20.2901 20.9985H18.7101L16.8101 15.9985H18.2701L19.5101 19.9485L20.7701 15.9985Z" fill="black"/>
<path d="M14.7931 17.8084C14.7931 17.5218 14.7098 17.2984 14.5431 17.1384C14.3831 16.9784 14.1698 16.8984 13.9031 16.8984C13.6564 16.8984 13.4398 16.9618 13.2531 17.0884C13.0664 17.2151 12.9298 17.4251 12.8431 17.7184L11.6731 17.3584C11.7864 16.9184 12.0331 16.5651 12.4131 16.2984C12.7998 16.0318 13.3164 15.8984 13.9631 15.8984C14.4031 15.8984 14.7864 15.9684 15.1131 16.1084C15.4398 16.2418 15.6931 16.4451 15.8731 16.7184C16.0598 16.9918 16.1531 17.3351 16.1531 17.7484V19.7784C16.1531 20.0318 16.2731 20.1584 16.5131 20.1584C16.6264 20.1584 16.7331 20.1418 16.8331 20.1084L16.7531 20.9584C16.5798 21.0451 16.3631 21.0884 16.1031 21.0884C15.8698 21.0884 15.6598 21.0484 15.4731 20.9684C15.2864 20.8884 15.1398 20.7684 15.0331 20.6084C14.9264 20.4418 14.8731 20.2351 14.8731 19.9884V19.9484L15.1131 19.9084C15.0731 20.1618 14.9631 20.3784 14.7831 20.5584C14.6031 20.7318 14.3831 20.8651 14.1231 20.9584C13.8698 21.0518 13.6064 21.0984 13.3331 21.0984C12.9931 21.0984 12.6998 21.0484 12.4531 20.9484C12.2064 20.8418 12.0164 20.6884 11.8831 20.4884C11.7498 20.2884 11.6831 20.0418 11.6831 19.7484C11.6831 19.3751 11.8031 19.0718 12.0431 18.8384C12.2831 18.5984 12.6264 18.4351 13.0731 18.3484L14.9531 17.9684L14.9431 18.8184L13.7431 19.0584C13.5164 19.1051 13.3431 19.1684 13.2231 19.2484C13.1098 19.3218 13.0531 19.4451 13.0531 19.6184C13.0531 19.7851 13.1131 19.9118 13.2331 19.9984C13.3598 20.0851 13.5098 20.1284 13.6831 20.1284C13.8231 20.1284 13.9598 20.1118 14.0931 20.0784C14.2264 20.0451 14.3464 19.9918 14.4531 19.9184C14.5598 19.8451 14.6431 19.7451 14.7031 19.6184C14.7631 19.4918 14.7931 19.3384 14.7931 19.1584V17.8084Z" fill="black"/>
<path d="M8.1162 14.2988C8.7162 14.2988 9.24287 14.4022 9.6962 14.6088C10.1495 14.8155 10.5362 15.1222 10.8562 15.5288L10.0862 16.4188C9.81287 16.0722 9.51287 15.8188 9.1862 15.6588C8.8662 15.4922 8.49287 15.4088 8.0662 15.4088C7.7862 15.4088 7.55287 15.4455 7.3662 15.5188C7.1862 15.5922 7.05287 15.6888 6.9662 15.8088C6.8862 15.9288 6.8462 16.0622 6.8462 16.2088C6.8462 16.3888 6.9162 16.5422 7.0562 16.6688C7.1962 16.7888 7.4362 16.8888 7.7762 16.9688L9.0062 17.2488C9.65953 17.3955 10.1262 17.6155 10.4062 17.9088C10.6929 18.1955 10.8362 18.5688 10.8362 19.0288C10.8362 19.4622 10.7229 19.8355 10.4962 20.1488C10.2695 20.4555 9.95287 20.6922 9.5462 20.8588C9.13953 21.0188 8.67287 21.0988 8.1462 21.0988C7.6862 21.0988 7.26287 21.0455 6.8762 20.9388C6.4962 20.8255 6.1562 20.6722 5.8562 20.4788C5.5562 20.2855 5.3062 20.0622 5.1062 19.8088L5.8862 18.8788C6.03953 19.0922 6.22953 19.2822 6.4562 19.4488C6.68287 19.6155 6.93953 19.7488 7.2262 19.8488C7.51953 19.9422 7.8262 19.9888 8.1462 19.9888C8.41953 19.9888 8.64953 19.9588 8.8362 19.8988C9.02953 19.8322 9.17287 19.7422 9.2662 19.6288C9.3662 19.5088 9.4162 19.3655 9.4162 19.1988C9.4162 19.0255 9.3562 18.8788 9.2362 18.7588C9.12287 18.6322 8.90953 18.5355 8.5962 18.4688L7.2562 18.1688C6.86953 18.0755 6.5362 17.9555 6.2562 17.8088C5.98287 17.6555 5.77287 17.4622 5.6262 17.2288C5.4862 16.9888 5.4162 16.7055 5.4162 16.3788C5.4162 15.9855 5.52287 15.6322 5.7362 15.3188C5.94953 15.0055 6.2562 14.7588 6.6562 14.5788C7.06287 14.3922 7.54953 14.2988 8.1162 14.2988Z" fill="black"/>
</svg>
