<svg width="296" height="50" viewBox="0 0 296 50" fill="none" xmlns="http://www.w3.org/2000/svg">
<path d="M0 0H296V50H0V0Z" fill="white"/>
<path d="M98.785 20.6201L99.105 22.5801C99.0517 22.5801 98.9917 22.5801 98.925 22.5801C98.8717 22.5668 98.8117 22.5601 98.745 22.5601C98.1317 22.5601 97.6717 22.7001 97.365 22.9801C97.0583 23.2468 96.905 23.6201 96.905 24.1001L95.785 23.6401C95.785 23.1068 95.8917 22.6135 96.105 22.1601C96.3183 21.6935 96.6317 21.3201 97.045 21.0401C97.4717 20.7601 97.9783 20.6201 98.565 20.6201C98.5917 20.6201 98.625 20.6201 98.665 20.6201C98.705 20.6201 98.745 20.6201 98.785 20.6201ZM95.505 31.1201C96.585 31.1201 97.4183 31.3535 98.005 31.8201C98.5917 32.2868 98.885 32.9401 98.885 33.7801C98.885 34.5401 98.665 35.1801 98.225 35.7001C97.785 36.2335 97.165 36.6335 96.365 36.9001C95.5783 37.1668 94.665 37.3001 93.625 37.3001C91.905 37.3001 90.645 37.0601 89.845 36.5801C89.0583 36.1001 88.665 35.4735 88.665 34.7001C88.665 34.1535 88.8717 33.6934 89.285 33.3201C89.7117 32.9468 90.4117 32.7401 91.385 32.7001L91.285 33.0201C90.5917 32.9001 90.0583 32.6735 89.685 32.3401C89.325 31.9935 89.145 31.5201 89.145 30.9201C89.145 30.3068 89.3783 29.8068 89.845 29.4201C90.325 29.0201 90.9717 28.7868 91.785 28.7201L92.985 29.2801H92.705C92.1317 29.3201 91.725 29.4401 91.485 29.6401C91.2583 29.8268 91.145 30.0401 91.145 30.2801C91.145 30.5601 91.2517 30.7735 91.465 30.9201C91.6917 31.0535 92.0117 31.1201 92.425 31.1201H95.505ZM93.645 35.4201C94.3383 35.4201 94.905 35.3601 95.345 35.2401C95.7983 35.1201 96.1317 34.9668 96.345 34.7801C96.5717 34.5935 96.685 34.3868 96.685 34.1601C96.685 33.9068 96.585 33.7001 96.385 33.5401C96.185 33.3935 95.825 33.3201 95.305 33.3201H91.925C91.605 33.3201 91.3383 33.4001 91.125 33.5601C90.925 33.7201 90.825 33.9401 90.825 34.2201C90.825 34.5934 91.0717 34.8868 91.565 35.1001C92.0717 35.3135 92.765 35.4201 93.645 35.4201ZM93.665 22.8001C94.5983 22.8001 95.405 22.9401 96.085 23.2201C96.7783 23.4868 97.305 23.8735 97.665 24.3801C98.0383 24.8868 98.225 25.4935 98.225 26.2001C98.225 26.8935 98.0383 27.4935 97.665 28.0001C97.305 28.5068 96.7783 28.9001 96.085 29.1801C95.405 29.4468 94.5983 29.5801 93.665 29.5801C92.185 29.5801 91.0517 29.2801 90.265 28.6801C89.4917 28.0668 89.105 27.2401 89.105 26.2001C89.105 25.4935 89.285 24.8868 89.645 24.3801C90.0183 23.8735 90.545 23.4868 91.225 23.2201C91.905 22.9401 92.7183 22.8001 93.665 22.8001ZM93.665 24.5201C93.1317 24.5201 92.6917 24.6668 92.345 24.9601C91.9983 25.2535 91.825 25.6601 91.825 26.1801C91.825 26.7001 91.9983 27.1135 92.345 27.4201C92.6917 27.7135 93.1317 27.8601 93.665 27.8601C94.1983 27.8601 94.6317 27.7135 94.965 27.4201C95.3117 27.1135 95.485 26.7001 95.485 26.1801C95.485 25.6601 95.3117 25.2535 94.965 24.9601C94.6317 24.6668 94.1983 24.5201 93.665 24.5201Z" fill="black"/>
<path d="M77.1822 33V23H79.6422L79.8022 26L79.4622 25.68C79.6222 25.0267 79.8755 24.4867 80.2222 24.06C80.5689 23.6334 80.9889 23.32 81.4822 23.12C81.9889 22.9067 82.5422 22.8 83.1422 22.8C83.8355 22.8 84.4489 22.9334 84.9822 23.2C85.5289 23.4667 85.9555 23.8734 86.2622 24.42C86.5822 24.9534 86.7422 25.6267 86.7422 26.44V33H84.0022V27.22C84.0022 26.3667 83.8355 25.78 83.5022 25.46C83.1689 25.1267 82.7355 24.96 82.2022 24.96C81.8289 24.96 81.4622 25.0534 81.1022 25.24C80.7555 25.4134 80.4689 25.7 80.2422 26.1C80.0289 26.5 79.9222 27.0334 79.9222 27.7V33H77.1822Z" fill="black"/>
<path d="M72.9177 21.5601C72.3443 21.5601 71.9177 21.4401 71.6377 21.2001C71.3577 20.9468 71.2177 20.5801 71.2177 20.1001C71.2177 19.6068 71.3577 19.2401 71.6377 19.0001C71.9177 18.7468 72.3443 18.6201 72.9177 18.6201C73.491 18.6201 73.9177 18.7468 74.1977 19.0001C74.4777 19.2401 74.6177 19.6068 74.6177 20.1001C74.6177 20.5801 74.4777 20.9468 74.1977 21.2001C73.9177 21.4401 73.491 21.5601 72.9177 21.5601ZM74.2777 23.0001V33.0001H71.5377V23.0001H74.2777Z" fill="black"/>
<path d="M62.7786 33.2001C61.9519 33.2001 61.2119 32.9935 60.5586 32.5801C59.9186 32.1668 59.4119 31.5735 59.0386 30.8001C58.6786 30.0268 58.4986 29.1001 58.4986 28.0201C58.4986 26.9135 58.6919 25.9735 59.0786 25.2001C59.4653 24.4135 59.9853 23.8201 60.6386 23.4201C61.3053 23.0068 62.0519 22.8001 62.8786 22.8001C63.7586 22.8001 64.4853 23.0535 65.0586 23.5601C65.6319 24.0668 66.0053 24.7201 66.1786 25.5201L65.9186 25.8401V18.6201H68.6586V33.0001H66.1986L66.0186 29.9601L66.3586 30.1201C66.2653 30.7468 66.0519 31.2935 65.7186 31.7601C65.3853 32.2135 64.9653 32.5668 64.4586 32.8201C63.9519 33.0735 63.3919 33.2001 62.7786 33.2001ZM63.5786 31.1001C64.0586 31.1001 64.4719 30.9801 64.8186 30.7401C65.1653 30.4868 65.4319 30.1201 65.6186 29.6401C65.8186 29.1601 65.9186 28.5868 65.9186 27.9201C65.9186 27.2801 65.8253 26.7401 65.6386 26.3001C65.4519 25.8468 65.1853 25.5001 64.8386 25.2601C64.4919 25.0201 64.0853 24.9001 63.6186 24.9001C62.8719 24.9001 62.2853 25.1668 61.8586 25.7001C61.4453 26.2201 61.2386 26.9868 61.2386 28.0001C61.2386 29.0135 61.4453 29.7868 61.8586 30.3201C62.2719 30.8401 62.8453 31.1001 63.5786 31.1001Z" fill="black"/>
<path d="M50.2395 33.2001C49.4129 33.2001 48.6729 32.9935 48.0195 32.5801C47.3795 32.1668 46.8729 31.5735 46.4995 30.8001C46.1395 30.0268 45.9595 29.1001 45.9595 28.0201C45.9595 26.9135 46.1529 25.9735 46.5395 25.2001C46.9262 24.4135 47.4462 23.8201 48.0995 23.4201C48.7662 23.0068 49.5129 22.8001 50.3395 22.8001C51.2195 22.8001 51.9462 23.0535 52.5195 23.5601C53.0929 24.0668 53.4662 24.7201 53.6395 25.5201L53.3795 25.8401V18.6201H56.1195V33.0001H53.6595L53.4795 29.9601L53.8195 30.1201C53.7262 30.7468 53.5129 31.2935 53.1795 31.7601C52.8462 32.2135 52.4262 32.5668 51.9195 32.8201C51.4129 33.0735 50.8529 33.2001 50.2395 33.2001ZM51.0395 31.1001C51.5195 31.1001 51.9329 30.9801 52.2795 30.7401C52.6262 30.4868 52.8929 30.1201 53.0795 29.6401C53.2795 29.1601 53.3795 28.5868 53.3795 27.9201C53.3795 27.2801 53.2862 26.7401 53.0995 26.3001C52.9129 25.8468 52.6462 25.5001 52.2995 25.2601C51.9529 25.0201 51.5462 24.9001 51.0795 24.9001C50.3329 24.9001 49.7462 25.1668 49.3195 25.7001C48.9062 26.2201 48.6995 26.9868 48.6995 28.0001C48.6995 29.0135 48.9062 29.7868 49.3195 30.3201C49.7329 30.8401 50.3062 31.1001 51.0395 31.1001Z" fill="black"/>
<path d="M39.5175 33.2C38.4642 33.2 37.5442 32.9934 36.7575 32.58C35.9842 32.1667 35.3842 31.5734 34.9575 30.8C34.5308 30.0267 34.3175 29.0934 34.3175 28C34.3175 26.9067 34.5308 25.9734 34.9575 25.2C35.3842 24.4267 35.9775 23.8334 36.7375 23.42C37.5108 23.0067 38.3908 22.8 39.3775 22.8C40.3908 22.8 41.2508 23.0067 41.9575 23.42C42.6642 23.82 43.2042 24.3734 43.5775 25.08C43.9508 25.7734 44.1375 26.5667 44.1375 27.46C44.1375 27.7267 44.1308 27.9801 44.1175 28.22C44.1042 28.46 44.0842 28.6734 44.0575 28.86H36.0775V26.96H42.8575L41.5375 27.44C41.5375 26.6 41.3442 25.9534 40.9575 25.5C40.5842 25.0467 40.0508 24.82 39.3575 24.82C38.8508 24.82 38.4108 24.94 38.0375 25.18C37.6775 25.42 37.4042 25.78 37.2175 26.26C37.0308 26.7267 36.9375 27.32 36.9375 28.04C36.9375 28.7467 37.0375 29.3334 37.2375 29.8C37.4508 30.2534 37.7442 30.5934 38.1175 30.82C38.5042 31.0467 38.9642 31.16 39.4975 31.16C40.0842 31.16 40.5575 31.0467 40.9175 30.82C41.2775 30.5934 41.5575 30.28 41.7575 29.88L43.9375 30.72C43.7242 31.2401 43.3975 31.6867 42.9575 32.0601C42.5308 32.4334 42.0175 32.72 41.4175 32.92C40.8308 33.1067 40.1975 33.2 39.5175 33.2Z" fill="black"/>
<path d="M21.72 33V19.8H27.5C29.1 19.8 30.28 20.1134 31.04 20.74C31.8 21.3667 32.18 22.2534 32.18 23.4C32.18 24.1067 31.9667 24.7334 31.54 25.28C31.1133 25.8267 30.4867 26.1734 29.66 26.32V26.34C30.58 26.4734 31.2867 26.82 31.78 27.38C32.2733 27.94 32.52 28.6067 32.52 29.38C32.52 30.5134 32.1067 31.4 31.28 32.04C30.4667 32.68 29.2733 33 27.7 33H21.72ZM24.4 30.92H27.46C28.2067 30.92 28.76 30.7667 29.12 30.46C29.48 30.1534 29.66 29.7267 29.66 29.18C29.66 28.62 29.48 28.1934 29.12 27.9C28.76 27.6067 28.2067 27.46 27.46 27.46H24.4V30.92ZM24.4 25.34H27.14C28.5933 25.34 29.32 24.7734 29.32 23.64C29.32 22.5067 28.5933 21.94 27.14 21.94H24.4V25.34Z" fill="black"/>
</svg>
