<svg width="26" height="9" viewBox="0 0 26 9" fill="none" xmlns="http://www.w3.org/2000/svg">
<path d="M23.5201 7.6999C22.7734 7.6999 22.1767 7.4099 21.7301 6.8299C21.2834 6.2499 21.0601 5.40657 21.0601 4.2999C21.0601 3.19324 21.2834 2.3499 21.7301 1.7699C22.1767 1.1899 22.7734 0.899902 23.5201 0.899902C24.2734 0.899902 24.8701 1.1899 25.3101 1.7699C25.7567 2.3499 25.9801 3.19324 25.9801 4.2999C25.9801 5.40657 25.7567 6.2499 25.3101 6.8299C24.8701 7.4099 24.2734 7.6999 23.5201 7.6999ZM23.5201 6.9799C23.8734 6.9799 24.1701 6.8799 24.4101 6.6799C24.6567 6.47324 24.8401 6.1699 24.9601 5.7699C25.0867 5.3699 25.1501 4.8799 25.1501 4.2999C25.1501 3.7199 25.0867 3.2299 24.9601 2.8299C24.8401 2.4299 24.6567 2.1299 24.4101 1.9299C24.1701 1.72324 23.8734 1.6199 23.5201 1.6199C23.1667 1.6199 22.8667 1.72324 22.6201 1.9299C22.3801 2.1299 22.1967 2.4299 22.0701 2.8299C21.9501 3.2299 21.8901 3.7199 21.8901 4.2999C21.8901 4.8799 21.9501 5.3699 22.0701 5.7699C22.1967 6.1699 22.3801 6.47324 22.6201 6.6799C22.8667 6.8799 23.1667 6.9799 23.5201 6.9799Z" fill="#555555"/>
<path d="M17.2994 7.6999C16.5527 7.6999 15.956 7.4099 15.5094 6.8299C15.0627 6.2499 14.8394 5.40657 14.8394 4.2999C14.8394 3.19324 15.0627 2.3499 15.5094 1.7699C15.956 1.1899 16.5527 0.899902 17.2994 0.899902C18.0527 0.899902 18.6494 1.1899 19.0894 1.7699C19.536 2.3499 19.7594 3.19324 19.7594 4.2999C19.7594 5.40657 19.536 6.2499 19.0894 6.8299C18.6494 7.4099 18.0527 7.6999 17.2994 7.6999ZM17.2994 6.9799C17.6527 6.9799 17.9494 6.8799 18.1894 6.6799C18.436 6.47324 18.6194 6.1699 18.7394 5.7699C18.866 5.3699 18.9294 4.8799 18.9294 4.2999C18.9294 3.7199 18.866 3.2299 18.7394 2.8299C18.6194 2.4299 18.436 2.1299 18.1894 1.9299C17.9494 1.72324 17.6527 1.6199 17.2994 1.6199C16.946 1.6199 16.646 1.72324 16.3994 1.9299C16.1594 2.1299 15.976 2.4299 15.8494 2.8299C15.7294 3.2299 15.6694 3.7199 15.6694 4.2999C15.6694 4.8799 15.7294 5.3699 15.8494 5.7699C15.976 6.1699 16.1594 6.47324 16.3994 6.6799C16.646 6.8799 16.946 6.9799 17.2994 6.9799Z" fill="#555555"/>
<path d="M13.1075 6.3999C13.3009 6.3999 13.4575 6.4599 13.5775 6.5799C13.6975 6.6999 13.7575 6.85657 13.7575 7.0499C13.7575 7.24324 13.6975 7.3999 13.5775 7.5199C13.4575 7.6399 13.3009 7.6999 13.1075 7.6999C12.9142 7.6999 12.7575 7.6399 12.6375 7.5199C12.5175 7.3999 12.4575 7.24324 12.4575 7.0499C12.4575 6.85657 12.5175 6.6999 12.6375 6.5799C12.7575 6.4599 12.9142 6.3999 13.1075 6.3999Z" fill="#555555"/>
<path d="M8.91068 7.6999C8.16402 7.6999 7.56735 7.4099 7.12068 6.8299C6.67402 6.2499 6.45068 5.40657 6.45068 4.2999C6.45068 3.19324 6.67402 2.3499 7.12068 1.7699C7.56735 1.1899 8.16402 0.899902 8.91068 0.899902C9.66402 0.899902 10.2607 1.1899 10.7007 1.7699C11.1473 2.3499 11.3707 3.19324 11.3707 4.2999C11.3707 5.40657 11.1473 6.2499 10.7007 6.8299C10.2607 7.4099 9.66402 7.6999 8.91068 7.6999ZM8.91068 6.9799C9.26402 6.9799 9.56068 6.8799 9.80068 6.6799C10.0474 6.47324 10.2307 6.1699 10.3507 5.7699C10.4774 5.3699 10.5407 4.8799 10.5407 4.2999C10.5407 3.7199 10.4774 3.2299 10.3507 2.8299C10.2307 2.4299 10.0474 2.1299 9.80068 1.9299C9.56068 1.72324 9.26402 1.6199 8.91068 1.6199C8.55735 1.6199 8.25735 1.72324 8.01068 1.9299C7.77068 2.1299 7.58735 2.4299 7.46068 2.8299C7.34068 3.2299 7.28068 3.7199 7.28068 4.2999C7.28068 4.8799 7.34068 5.3699 7.46068 5.7699C7.58735 6.1699 7.77068 6.47324 8.01068 6.6799C8.25735 6.8799 8.55735 6.9799 8.91068 6.9799Z" fill="#555555"/>
<path d="M2.75 7.59C2.29 7.59 1.88333 7.52667 1.53 7.4C1.17667 7.27333 0.873333 7.10333 0.62 6.89C0.366667 6.67667 0.16 6.43667 0 6.17L0.68 5.62C0.806667 5.86 0.966667 6.07333 1.16 6.26C1.35333 6.44667 1.58667 6.59333 1.86 6.7C2.13333 6.80667 2.44667 6.86 2.8 6.86C3.29333 6.86 3.68333 6.77 3.97 6.59C4.26333 6.41 4.41 6.14667 4.41 5.8C4.41 5.59333 4.34 5.41 4.2 5.25C4.06667 5.08333 3.81333 4.95667 3.44 4.87L1.94 4.53C1.54 4.43667 1.22 4.31333 0.98 4.16C0.74 4 0.566667 3.81333 0.46 3.6C0.353333 3.38 0.3 3.14333 0.3 2.89C0.3 2.54333 0.393333 2.22667 0.58 1.94C0.773333 1.65333 1.04667 1.42333 1.4 1.25C1.76 1.07667 2.19 0.99 2.69 0.99C3.25 0.99 3.73333 1.10333 4.14 1.33C4.55333 1.55667 4.89333 1.89667 5.16 2.35L4.51 2.85C4.27667 2.43667 4.00667 2.14333 3.7 1.97C3.4 1.79667 3.03667 1.71 2.61 1.71C2.26333 1.71 1.98 1.76 1.76 1.86C1.54 1.95333 1.37667 2.08 1.27 2.24C1.16333 2.4 1.11 2.58 1.11 2.78C1.11 2.93333 1.14 3.07333 1.2 3.2C1.26 3.32667 1.36667 3.44 1.52 3.54C1.68 3.63333 1.9 3.71333 2.18 3.78L3.57 4.09C4.18333 4.22333 4.61 4.43 4.85 4.71C5.09667 4.98333 5.22 5.32333 5.22 5.73C5.22 6.09667 5.11667 6.42 4.91 6.7C4.71 6.98 4.42333 7.2 4.05 7.36C3.68333 7.51333 3.25 7.59 2.75 7.59ZM2.37 8.6V0H3.06V8.6H2.37Z" fill="#555555"/>
</svg>
