<svg width="296" height="50" viewBox="0 0 296 50" fill="none" xmlns="http://www.w3.org/2000/svg">
<path d="M0 0H296V50H0V0Z" fill="white"/>
<path d="M122.706 33.2C121.692 33.2 120.766 33.02 119.926 32.66C119.099 32.3 118.426 31.7934 117.906 31.14L119.486 29.54C119.806 30.02 120.232 30.4134 120.766 30.72C121.299 31.0267 121.932 31.18 122.666 31.18C123.186 31.18 123.599 31.1067 123.906 30.96C124.226 30.8 124.386 30.5534 124.386 30.22C124.386 30.0067 124.312 29.8267 124.166 29.68C124.019 29.5201 123.726 29.3934 123.286 29.3L121.526 28.94C120.366 28.7 119.539 28.34 119.046 27.86C118.566 27.3667 118.326 26.7334 118.326 25.96C118.326 25.4134 118.486 24.9 118.806 24.42C119.139 23.94 119.632 23.5534 120.286 23.26C120.939 22.9534 121.752 22.8 122.726 22.8C123.726 22.8 124.592 22.96 125.326 23.28C126.072 23.5867 126.659 24.0467 127.086 24.66L125.446 26.26C125.152 25.7934 124.766 25.44 124.286 25.2C123.819 24.9467 123.326 24.82 122.806 24.82C122.432 24.82 122.112 24.86 121.846 24.94C121.579 25.02 121.379 25.1334 121.246 25.28C121.112 25.4134 121.046 25.5867 121.046 25.8C121.046 26.0134 121.139 26.2 121.326 26.36C121.512 26.5067 121.852 26.6334 122.346 26.74L124.386 27.16C125.372 27.36 126.079 27.7 126.506 28.18C126.932 28.6467 127.146 29.2134 127.146 29.88C127.146 30.52 126.972 31.0934 126.626 31.6C126.292 32.0934 125.792 32.4867 125.126 32.78C124.472 33.06 123.666 33.2 122.706 33.2Z" fill="black"/>
<path d="M111.764 33.2C110.71 33.2 109.79 32.9934 109.004 32.58C108.23 32.1667 107.63 31.5734 107.204 30.8C106.777 30.0267 106.564 29.0934 106.564 28C106.564 26.9067 106.777 25.9734 107.204 25.2C107.63 24.4267 108.224 23.8334 108.984 23.42C109.757 23.0067 110.637 22.8 111.624 22.8C112.637 22.8 113.497 23.0067 114.204 23.42C114.91 23.82 115.45 24.3734 115.824 25.08C116.197 25.7734 116.384 26.5667 116.384 27.46C116.384 27.7267 116.377 27.9801 116.364 28.22C116.35 28.46 116.33 28.6734 116.304 28.86H108.324V26.96H115.104L113.784 27.44C113.784 26.6 113.59 25.9534 113.204 25.5C112.83 25.0467 112.297 24.82 111.604 24.82C111.097 24.82 110.657 24.94 110.284 25.18C109.924 25.42 109.65 25.78 109.464 26.26C109.277 26.7267 109.184 27.32 109.184 28.04C109.184 28.7467 109.284 29.3334 109.484 29.8C109.697 30.2534 109.99 30.5934 110.364 30.82C110.75 31.0467 111.21 31.16 111.744 31.16C112.33 31.16 112.804 31.0467 113.164 30.82C113.524 30.5934 113.804 30.28 114.004 29.88L116.184 30.72C115.97 31.2401 115.644 31.6867 115.204 32.0601C114.777 32.4334 114.264 32.72 113.664 32.92C113.077 33.1067 112.444 33.2 111.764 33.2Z" fill="black"/>
<path d="M100.375 22.8C101.268 22.8 102.021 22.9334 102.635 23.2C103.261 23.4534 103.761 23.8067 104.135 24.26C104.521 24.7 104.795 25.1934 104.955 25.74L102.395 26.66C102.261 26.06 102.035 25.6067 101.715 25.3C101.395 24.9934 100.961 24.84 100.415 24.84C99.9079 24.84 99.4745 24.96 99.1145 25.2C98.7545 25.4267 98.4812 25.78 98.2945 26.26C98.1079 26.7267 98.0145 27.3134 98.0145 28.02C98.0145 28.7267 98.1079 29.3134 98.2945 29.78C98.4945 30.2467 98.7745 30.5934 99.1345 30.82C99.5079 31.0467 99.9412 31.16 100.435 31.16C100.835 31.16 101.175 31.0934 101.455 30.96C101.735 30.8134 101.961 30.6067 102.135 30.34C102.321 30.0734 102.448 29.7534 102.515 29.38L104.995 30.18C104.848 30.78 104.575 31.3067 104.175 31.76C103.775 32.2134 103.261 32.5667 102.635 32.82C102.008 33.0734 101.281 33.2 100.455 33.2C99.4279 33.2 98.5212 32.9934 97.7345 32.58C96.9479 32.1667 96.3412 31.5734 95.9145 30.8C95.4879 30.0267 95.2745 29.0934 95.2745 28C95.2745 26.9067 95.4879 25.9734 95.9145 25.2C96.3412 24.4267 96.9412 23.8334 97.7145 23.42C98.4879 23.0067 99.3745 22.8 100.375 22.8Z" fill="black"/>
<path d="M83.4517 33V23H85.9117L86.0717 26L85.7317 25.68C85.8917 25.0267 86.1451 24.4867 86.4917 24.06C86.8384 23.6334 87.2584 23.32 87.7517 23.12C88.2584 22.9067 88.8117 22.8 89.4117 22.8C90.1051 22.8 90.7184 22.9334 91.2517 23.2C91.7984 23.4667 92.2251 23.8734 92.5317 24.42C92.8517 24.9534 93.0117 25.6267 93.0117 26.44V33H90.2717V27.22C90.2717 26.3667 90.1051 25.78 89.7717 25.46C89.4384 25.1267 89.0051 24.96 88.4717 24.96C88.0984 24.96 87.7317 25.0534 87.3717 25.24C87.0251 25.4134 86.7384 25.7 86.5117 26.1C86.2984 26.5 86.1917 27.0334 86.1917 27.7V33H83.4517Z" fill="black"/>
<path d="M77.6673 26.62C77.6673 26.0467 77.5007 25.6 77.1673 25.28C76.8473 24.96 76.4207 24.8 75.8873 24.8C75.394 24.8 74.9607 24.9267 74.5873 25.18C74.214 25.4334 73.9407 25.8534 73.7673 26.44L71.4273 25.72C71.654 24.84 72.1473 24.1334 72.9073 23.6C73.6807 23.0667 74.714 22.8 76.0073 22.8C76.8873 22.8 77.654 22.94 78.3073 23.22C78.9607 23.4867 79.4673 23.8934 79.8273 24.44C80.2007 24.9867 80.3873 25.6734 80.3873 26.5V30.56C80.3873 31.0667 80.6273 31.32 81.1073 31.32C81.334 31.32 81.5473 31.2867 81.7473 31.22L81.5873 32.92C81.2407 33.0934 80.8073 33.18 80.2873 33.18C79.8207 33.18 79.4007 33.1 79.0273 32.94C78.654 32.78 78.3607 32.54 78.1473 32.22C77.934 31.8867 77.8273 31.4734 77.8273 30.98V30.9L78.3073 30.82C78.2273 31.3267 78.0073 31.76 77.6473 32.12C77.2873 32.4667 76.8473 32.7334 76.3273 32.92C75.8207 33.1067 75.294 33.2 74.7473 33.2C74.0673 33.2 73.4807 33.1 72.9873 32.9C72.494 32.6867 72.114 32.38 71.8473 31.98C71.5807 31.58 71.4473 31.0867 71.4473 30.5C71.4473 29.7534 71.6873 29.1467 72.1673 28.68C72.6473 28.2 73.334 27.8734 74.2273 27.7L77.9873 26.94L77.9673 28.64L75.5673 29.12C75.114 29.2134 74.7673 29.34 74.5273 29.5C74.3007 29.6467 74.1873 29.8934 74.1873 30.24C74.1873 30.5734 74.3073 30.8267 74.5473 31C74.8007 31.1734 75.1007 31.26 75.4473 31.26C75.7273 31.26 76.0007 31.2267 76.2673 31.16C76.534 31.0934 76.774 30.9867 76.9873 30.84C77.2007 30.6934 77.3673 30.4934 77.4873 30.24C77.6073 29.9867 77.6673 29.68 77.6673 29.32V26.62Z" fill="black"/>
<path d="M67.7028 21.5601C67.1295 21.5601 66.7028 21.4401 66.4228 21.2001C66.1428 20.9468 66.0028 20.5801 66.0028 20.1001C66.0028 19.6068 66.1428 19.2401 66.4228 19.0001C66.7028 18.7468 67.1295 18.6201 67.7028 18.6201C68.2761 18.6201 68.7028 18.7468 68.9828 19.0001C69.2628 19.2401 69.4028 19.6068 69.4028 20.1001C69.4028 20.5801 69.2628 20.9468 68.9828 21.2001C68.7028 21.4401 68.2761 21.5601 67.7028 21.5601ZM69.0628 23.0001V33.0001H66.3228V23.0001H69.0628Z" fill="black"/>
<path d="M62.6361 18.6201V29.9201C62.6361 30.3868 62.7161 30.7135 62.8761 30.9001C63.0361 31.0868 63.3028 31.1801 63.6761 31.1801C63.9028 31.1801 64.0894 31.1668 64.2361 31.1401C64.3828 31.1001 64.5694 31.0468 64.7961 30.9801L64.5561 32.7801C64.3294 32.9135 64.0428 33.0135 63.6961 33.0801C63.3628 33.1601 63.0294 33.2001 62.6961 33.2001C61.7228 33.2001 61.0094 32.9668 60.5561 32.5001C60.1161 32.0201 59.8961 31.2601 59.8961 30.2201V18.6201H62.6361Z" fill="black"/>
<path d="M47.397 37.2001V23H49.857L50.037 26.18L49.697 25.82C49.817 25.2334 50.037 24.7134 50.357 24.26C50.6904 23.8067 51.1104 23.4534 51.617 23.2C52.1237 22.9334 52.6904 22.8 53.317 22.8C54.1304 22.8 54.857 23.0067 55.497 23.42C56.137 23.8334 56.637 24.4267 56.997 25.2C57.3704 25.96 57.557 26.8867 57.557 27.98C57.557 29.0734 57.3704 30.0134 56.997 30.8C56.6237 31.5734 56.1104 32.1667 55.457 32.58C54.817 32.9934 54.0837 33.2 53.257 33.2C52.377 33.2 51.6437 32.9534 51.057 32.46C50.4837 31.9667 50.0904 31.3467 49.877 30.6L50.137 30.18V37.2001H47.397ZM52.457 31.1C53.1904 31.1 53.7637 30.84 54.177 30.32C54.6037 29.7867 54.817 29.0134 54.817 28C54.817 26.9867 54.6104 26.22 54.197 25.7C53.797 25.1667 53.2304 24.9 52.497 24.9C52.0304 24.9 51.617 25.0267 51.257 25.28C50.9104 25.52 50.637 25.8734 50.437 26.34C50.237 26.7934 50.137 27.3467 50.137 28C50.137 28.64 50.2304 29.1934 50.417 29.66C50.6037 30.1267 50.8704 30.4867 51.217 30.74C51.577 30.98 51.9904 31.1 52.457 31.1Z" fill="black"/>
<path d="M34.858 37.2001V23H37.318L37.498 26.18L37.158 25.82C37.278 25.2334 37.498 24.7134 37.818 24.26C38.1513 23.8067 38.5713 23.4534 39.078 23.2C39.5846 22.9334 40.1513 22.8 40.778 22.8C41.5913 22.8 42.318 23.0067 42.958 23.42C43.598 23.8334 44.098 24.4267 44.458 25.2C44.8313 25.96 45.018 26.8867 45.018 27.98C45.018 29.0734 44.8313 30.0134 44.458 30.8C44.0846 31.5734 43.5713 32.1667 42.918 32.58C42.278 32.9934 41.5446 33.2 40.718 33.2C39.838 33.2 39.1046 32.9534 38.518 32.46C37.9446 31.9667 37.5513 31.3467 37.338 30.6L37.598 30.18V37.2001H34.858ZM39.918 31.1C40.6513 31.1 41.2246 30.84 41.638 30.32C42.0646 29.7867 42.278 29.0134 42.278 28C42.278 26.9867 42.0713 26.22 41.658 25.7C41.258 25.1667 40.6913 24.9 39.958 24.9C39.4913 24.9 39.078 25.0267 38.718 25.28C38.3713 25.52 38.098 25.8734 37.898 26.34C37.698 26.7934 37.598 27.3467 37.598 28C37.598 28.64 37.6913 29.1934 37.878 29.66C38.0646 30.1267 38.3313 30.4867 38.678 30.74C39.038 30.98 39.4513 31.1 39.918 31.1Z" fill="black"/>
<path d="M33.18 33H30.32L29.22 29.78H24.16L23.06 33H20.24L25.06 19.8H28.36L33.18 33ZM24.78 27.74H28.6L26.68 21.98L24.78 27.74Z" fill="black"/>
</svg>
