<svg width="165" height="19" viewBox="0 0 165 19" fill="none" xmlns="http://www.w3.org/2000/svg">
<path d="M164.034 14.3799H161.174L160.074 11.1599H155.014L153.914 14.3799H151.094L155.914 1.17993H159.214L164.034 14.3799ZM155.634 9.11993H159.454L157.534 3.35993L155.634 9.11993Z" fill="black"/>
<path d="M146.376 1.17993C147.389 1.17993 148.256 1.35327 148.976 1.69993C149.696 2.03327 150.249 2.51993 150.636 3.15993C151.036 3.7866 151.236 4.5466 151.236 5.43993C151.236 6.33327 151.036 7.09993 150.636 7.73993C150.249 8.3666 149.696 8.85327 148.976 9.19993C148.256 9.53327 147.389 9.69993 146.376 9.69993H143.596V14.3799H140.836V1.17993H146.376ZM145.956 7.51993C146.782 7.51993 147.402 7.3466 147.816 6.99993C148.229 6.63993 148.436 6.11993 148.436 5.43993C148.436 4.7466 148.229 4.2266 147.816 3.87993C147.402 3.53327 146.782 3.35993 145.956 3.35993H143.596V7.51993H145.956Z" fill="black"/>
<path d="M130.157 11.3198C130.584 11.3198 130.937 11.4265 131.217 11.6398C131.497 11.8398 131.711 12.1132 131.857 12.4598C132.004 12.7932 132.077 13.1665 132.077 13.5798C132.077 14.1265 131.964 14.6532 131.737 15.1598C131.524 15.6665 131.224 16.1198 130.837 16.5198C130.451 16.9198 130.011 17.2332 129.517 17.4598L128.337 16.5198C128.697 16.3732 129.024 16.1932 129.317 15.9798C129.624 15.7665 129.884 15.5265 130.097 15.2598C130.311 14.9932 130.464 14.7198 130.557 14.4398L130.457 14.3798C130.391 14.4198 130.311 14.4532 130.217 14.4798C130.124 14.5198 129.991 14.5398 129.817 14.5398C129.604 14.5398 129.391 14.4865 129.177 14.3798C128.964 14.2598 128.784 14.0932 128.637 13.8798C128.491 13.6532 128.417 13.3732 128.417 13.0398C128.417 12.6798 128.497 12.3732 128.657 12.1198C128.817 11.8665 129.031 11.6732 129.297 11.5398C129.564 11.3932 129.851 11.3198 130.157 11.3198Z" fill="black"/>
<path d="M128.706 4.37988L124.666 14.9999C124.346 15.9066 123.986 16.6265 123.586 17.1599C123.199 17.6932 122.746 18.0799 122.226 18.3199C121.719 18.5599 121.112 18.6799 120.406 18.6799C119.886 18.6799 119.406 18.6132 118.966 18.4799C118.539 18.3599 118.166 18.1999 117.846 17.9999L118.426 16.0199C118.679 16.2199 118.946 16.3599 119.226 16.4399C119.506 16.5332 119.826 16.5799 120.186 16.5799C120.559 16.5799 120.879 16.4999 121.146 16.3399C121.426 16.1799 121.659 15.8599 121.846 15.3799L122.186 14.5199L121.086 11.9199L118.026 4.37988H121.066L122.966 10.3799L123.486 12.3799L124.106 10.2599L125.926 4.37988H128.706Z" fill="black"/>
<path d="M112.774 14.5799C111.72 14.5799 110.8 14.3733 110.014 13.9599C109.24 13.5466 108.64 12.9533 108.214 12.1799C107.787 11.4066 107.574 10.4733 107.574 9.37993C107.574 8.2866 107.787 7.35327 108.214 6.57993C108.64 5.8066 109.234 5.21327 109.994 4.79993C110.767 4.3866 111.647 4.17993 112.634 4.17993C113.647 4.17993 114.507 4.3866 115.214 4.79993C115.92 5.19993 116.46 5.75327 116.834 6.45993C117.207 7.15327 117.394 7.9466 117.394 8.83993C117.394 9.1066 117.387 9.35993 117.374 9.59993C117.36 9.83993 117.34 10.0533 117.314 10.2399H109.334V8.33993H116.114L114.794 8.81993C114.794 7.97993 114.6 7.33326 114.214 6.87993C113.84 6.4266 113.307 6.19993 112.614 6.19993C112.107 6.19993 111.667 6.31993 111.294 6.55993C110.934 6.79993 110.66 7.15993 110.474 7.63993C110.287 8.1066 110.194 8.69993 110.194 9.41993C110.194 10.1266 110.294 10.7133 110.494 11.1799C110.707 11.6333 111 11.9733 111.374 12.1999C111.76 12.4266 112.22 12.5399 112.754 12.5399C113.34 12.5399 113.814 12.4266 114.174 12.1999C114.534 11.9733 114.814 11.6599 115.014 11.2599L117.194 12.0999C116.98 12.6199 116.654 13.0666 116.214 13.4399C115.787 13.8133 115.274 14.0999 114.674 14.2999C114.087 14.4866 113.454 14.5799 112.774 14.5799Z" fill="black"/>
<path d="M104.447 0V11.3C104.447 11.7667 104.527 12.0933 104.687 12.28C104.847 12.4667 105.114 12.56 105.487 12.56C105.714 12.56 105.9 12.5467 106.047 12.52C106.194 12.48 106.38 12.4267 106.607 12.36L106.367 14.16C106.14 14.2933 105.854 14.3933 105.507 14.46C105.174 14.54 104.84 14.58 104.507 14.58C103.534 14.58 102.82 14.3467 102.367 13.88C101.927 13.4 101.707 12.64 101.707 11.6V0H104.447Z" fill="black"/>
<path d="M98.0603 0V11.3C98.0603 11.7667 98.1403 12.0933 98.3003 12.28C98.4603 12.4667 98.727 12.56 99.1003 12.56C99.327 12.56 99.5136 12.5467 99.6603 12.52C99.807 12.48 99.9936 12.4267 100.22 12.36L99.9803 14.16C99.7536 14.2933 99.467 14.3933 99.1203 14.46C98.787 14.54 98.4536 14.58 98.1203 14.58C97.147 14.58 96.4336 14.3467 95.9803 13.88C95.5403 13.4 95.3203 12.64 95.3203 11.6V0H98.0603Z" fill="black"/>
<path d="M89.5759 7.99993C89.5759 7.4266 89.4093 6.97993 89.0759 6.65993C88.7559 6.33993 88.3293 6.17993 87.7959 6.17993C87.3026 6.17993 86.8693 6.3066 86.4959 6.55993C86.1226 6.81327 85.8493 7.23327 85.6759 7.81993L83.3359 7.09993C83.5626 6.21993 84.0559 5.51327 84.8159 4.97993C85.5893 4.4466 86.6226 4.17993 87.9159 4.17993C88.7959 4.17993 89.5626 4.31993 90.2159 4.59993C90.8693 4.8666 91.3759 5.27327 91.7359 5.81993C92.1093 6.3666 92.2959 7.05327 92.2959 7.87993V11.9399C92.2959 12.4466 92.5359 12.6999 93.0159 12.6999C93.2426 12.6999 93.4559 12.6666 93.6559 12.5999L93.4959 14.2999C93.1493 14.4733 92.7159 14.5599 92.1959 14.5599C91.7293 14.5599 91.3093 14.4799 90.9359 14.3199C90.5626 14.1599 90.2693 13.9199 90.0559 13.5999C89.8426 13.2666 89.7359 12.8533 89.7359 12.3599V12.2799L90.2159 12.1999C90.1359 12.7066 89.9159 13.1399 89.5559 13.4999C89.1959 13.8466 88.7559 14.1133 88.2359 14.2999C87.7293 14.4866 87.2026 14.5799 86.6559 14.5799C85.9759 14.5799 85.3893 14.4799 84.8959 14.2799C84.4026 14.0666 84.0226 13.7599 83.7559 13.3599C83.4893 12.9599 83.3559 12.4666 83.3559 11.8799C83.3559 11.1333 83.5959 10.5266 84.0759 10.0599C84.5559 9.57993 85.2426 9.25327 86.1359 9.07993L89.8959 8.31993L89.8759 10.0199L87.4759 10.4999C87.0226 10.5933 86.6759 10.7199 86.4359 10.8799C86.2093 11.0266 86.0959 11.2733 86.0959 11.6199C86.0959 11.9533 86.2159 12.2066 86.4559 12.3799C86.7093 12.5533 87.0093 12.6399 87.3559 12.6399C87.6359 12.6399 87.9093 12.6066 88.1759 12.5399C88.4426 12.4733 88.6826 12.3666 88.8959 12.2199C89.1093 12.0733 89.2759 11.8733 89.3959 11.6199C89.5159 11.3666 89.5759 11.0599 89.5759 10.6999V7.99993Z" fill="black"/>
<path d="M83.349 1.17993L78.549 14.3799H75.329L70.509 1.17993H73.429L76.209 9.57993L76.969 12.1799L77.709 9.59993L80.509 1.17993H83.349Z" fill="black"/>
<path d="M58.0947 14.3799V4.37993H60.4747L60.6547 6.33993C60.9214 5.6466 61.3081 5.11327 61.8147 4.73993C62.3347 4.3666 62.9814 4.17993 63.7547 4.17993C63.9814 4.17993 64.1881 4.19993 64.3747 4.23993C64.5614 4.27993 64.7147 4.33327 64.8347 4.39993L64.5147 6.69993C64.3814 6.6466 64.2147 6.6066 64.0147 6.57993C63.8281 6.55327 63.5814 6.53993 63.2747 6.53993C62.8747 6.53993 62.4881 6.63993 62.1147 6.83993C61.7414 7.0266 61.4347 7.31993 61.1947 7.71993C60.9547 8.1066 60.8347 8.59993 60.8347 9.19993V14.3799H58.0947Z" fill="black"/>
<path d="M51.1526 14.5799C50.0993 14.5799 49.1793 14.3733 48.3926 13.9599C47.6193 13.5466 47.0193 12.9533 46.5926 12.1799C46.166 11.4066 45.9526 10.4733 45.9526 9.37993C45.9526 8.2866 46.166 7.35327 46.5926 6.57993C47.0193 5.8066 47.6126 5.21327 48.3726 4.79993C49.146 4.3866 50.026 4.17993 51.0126 4.17993C52.026 4.17993 52.886 4.3866 53.5926 4.79993C54.2993 5.19993 54.8393 5.75327 55.2126 6.45993C55.586 7.15327 55.7726 7.9466 55.7726 8.83993C55.7726 9.1066 55.766 9.35993 55.7526 9.59993C55.7393 9.83993 55.7193 10.0533 55.6926 10.2399H47.7126V8.33993H54.4926L53.1726 8.81993C53.1726 7.97993 52.9793 7.33326 52.5926 6.87993C52.2193 6.4266 51.686 6.19993 50.9926 6.19993C50.486 6.19993 50.046 6.31993 49.6726 6.55993C49.3126 6.79993 49.0393 7.15993 48.8526 7.63993C48.666 8.1066 48.5726 8.69993 48.5726 9.41993C48.5726 10.1266 48.6726 10.7133 48.8726 11.1799C49.086 11.6333 49.3793 11.9733 49.7526 12.1999C50.1393 12.4266 50.5993 12.5399 51.1326 12.5399C51.7193 12.5399 52.1926 12.4266 52.5526 12.1999C52.9126 11.9733 53.1926 11.6599 53.3926 11.2599L55.5726 12.0999C55.3593 12.6199 55.0326 13.0666 54.5926 13.4399C54.166 13.8133 53.6526 14.0999 53.0526 14.2999C52.466 14.4866 51.8326 14.5799 51.1526 14.5799Z" fill="black"/>
<path d="M41.4589 1.31982V11.1198C41.4589 11.5998 41.5789 11.9532 41.8189 12.1798C42.0722 12.3932 42.4122 12.4998 42.8389 12.4998C43.1722 12.4998 43.4656 12.4532 43.7189 12.3598C43.9722 12.2532 44.1989 12.1132 44.3989 11.9398L44.8389 13.7598C44.5189 14.0132 44.1189 14.2132 43.6389 14.3598C43.1589 14.5065 42.6522 14.5798 42.1189 14.5798C41.4522 14.5798 40.8589 14.4798 40.3389 14.2798C39.8322 14.0798 39.4322 13.7598 39.1389 13.3198C38.8589 12.8798 38.7189 12.2932 38.7189 11.5598V2.07983L41.4589 1.31982ZM44.6589 4.37983V6.41982H36.8789V4.37983H44.6589Z" fill="black"/>
<path d="M25.6143 14.3799V4.37993H28.0743L28.2343 7.37993L27.8943 7.05993C28.0543 6.4066 28.3076 5.8666 28.6543 5.43993C29.0009 5.01327 29.4209 4.69993 29.9143 4.49993C30.4209 4.2866 30.9743 4.17993 31.5743 4.17993C32.2676 4.17993 32.8809 4.31326 33.4143 4.57993C33.9609 4.8466 34.3876 5.25327 34.6943 5.79993C35.0143 6.33327 35.1743 7.0066 35.1743 7.81993V14.3799H32.4343V8.59993C32.4343 7.7466 32.2676 7.15993 31.9343 6.83993C31.6009 6.5066 31.1676 6.33993 30.6343 6.33993C30.2609 6.33993 29.8943 6.43327 29.5343 6.61993C29.1876 6.79327 28.9009 7.07993 28.6743 7.47993C28.4609 7.87993 28.3543 8.41327 28.3543 9.07993V14.3799H25.6143Z" fill="black"/>
<path d="M18.6722 14.5799C17.6188 14.5799 16.6988 14.3733 15.9122 13.9599C15.1388 13.5466 14.5388 12.9533 14.1122 12.1799C13.6855 11.4066 13.4722 10.4733 13.4722 9.37993C13.4722 8.2866 13.6855 7.35327 14.1122 6.57993C14.5388 5.8066 15.1322 5.21327 15.8922 4.79993C16.6655 4.3866 17.5455 4.17993 18.5322 4.17993C19.5455 4.17993 20.4055 4.3866 21.1122 4.79993C21.8188 5.19993 22.3588 5.75327 22.7322 6.45993C23.1055 7.15327 23.2922 7.9466 23.2922 8.83993C23.2922 9.1066 23.2855 9.35993 23.2722 9.59993C23.2588 9.83993 23.2388 10.0533 23.2122 10.2399H15.2322V8.33993H22.0122L20.6922 8.81993C20.6922 7.97993 20.4988 7.33326 20.1122 6.87993C19.7388 6.4266 19.2055 6.19993 18.5122 6.19993C18.0055 6.19993 17.5655 6.31993 17.1922 6.55993C16.8322 6.79993 16.5588 7.15993 16.3722 7.63993C16.1855 8.1066 16.0922 8.69993 16.0922 9.41993C16.0922 10.1266 16.1922 10.7133 16.3922 11.1799C16.6055 11.6333 16.8988 11.9733 17.2722 12.1999C17.6588 12.4266 18.1188 12.5399 18.6522 12.5399C19.2388 12.5399 19.7122 12.4266 20.0722 12.1999C20.4322 11.9733 20.7122 11.6599 20.9122 11.2599L23.0922 12.0999C22.8788 12.6199 22.5522 13.0666 22.1122 13.4399C21.6855 13.8133 21.1722 14.0999 20.5722 14.2999C19.9855 14.4866 19.3522 14.5799 18.6722 14.5799Z" fill="black"/>
<path d="M11.96 10.74C11.7067 11.5933 11.3067 12.3066 10.76 12.88C10.2133 13.4533 9.56667 13.88 8.82 14.16C8.07333 14.44 7.25333 14.58 6.36 14.58C5.05333 14.58 3.92 14.3066 2.96 13.76C2.01333 13.2133 1.28 12.4333 0.76 11.42C0.253333 10.4066 0 9.19331 0 7.77998C0 6.36665 0.253333 5.15331 0.76 4.13998C1.28 3.12665 2.01333 2.34665 2.96 1.79998C3.92 1.25331 5.04 0.97998 6.32 0.97998C7.22667 0.97998 8.04667 1.10665 8.78 1.35998C9.51333 1.59998 10.1333 1.97331 10.64 2.47998C11.16 2.98665 11.54 3.62665 11.78 4.39998L9.28 5.45998C9.05333 4.65998 8.70667 4.09331 8.24 3.75998C7.77333 3.41331 7.17333 3.23998 6.44 3.23998C5.72 3.23998 5.08667 3.41331 4.54 3.75998C4.00667 4.10665 3.59333 4.61998 3.3 5.29998C3.00667 5.96665 2.86 6.79331 2.86 7.77998C2.86 8.75331 2.99333 9.57998 3.26 10.26C3.54 10.94 3.94667 11.4533 4.48 11.8C5.01333 12.1466 5.66667 12.32 6.44 12.32C7.16 12.32 7.78 12.1266 8.3 11.74C8.83333 11.3533 9.20667 10.7666 9.42 9.97998L11.96 10.74Z" fill="black"/>
</svg>
