<svg width="130" height="63" viewBox="0 0 130 63" fill="none" xmlns="http://www.w3.org/2000/svg">
<path d="M129.299 51.6363V53.0568H123.418V51.6363H129.299ZM125.179 62.5454V50.1306C125.179 49.5056 125.326 48.9848 125.62 48.5681C125.913 48.1514 126.294 47.8389 126.763 47.6306C127.232 47.4223 127.727 47.3181 128.248 47.3181C128.659 47.3181 128.996 47.3513 129.256 47.4175C129.516 47.4838 129.711 47.5454 129.838 47.6022L129.355 49.0511C129.27 49.0227 129.152 48.9871 129 48.9445C128.854 48.9019 128.659 48.8806 128.418 48.8806C127.864 48.8806 127.464 49.0203 127.218 49.2996C126.976 49.579 126.855 49.9886 126.855 50.5283V62.5454H125.179Z" fill="black"/>
<path d="M116.138 62.7727C115.229 62.7727 114.427 62.5431 113.731 62.0838C113.035 61.6198 112.49 60.9664 112.097 60.1236C111.704 59.276 111.508 58.2746 111.508 57.1193C111.508 55.9735 111.704 54.9792 112.097 54.1364C112.49 53.2936 113.037 52.6425 113.738 52.1832C114.438 51.724 115.248 51.4943 116.167 51.4943C116.877 51.4943 117.438 51.6127 117.85 51.8494C118.267 52.0814 118.584 52.3466 118.802 52.6449C119.024 52.9384 119.197 53.1799 119.32 53.3693H119.462V48H121.138V62.5455H119.519V60.8693H119.32C119.197 61.0682 119.022 61.3191 118.795 61.6222C118.567 61.9205 118.243 62.188 117.821 62.4247C117.4 62.6567 116.839 62.7727 116.138 62.7727ZM116.366 61.267C117.038 61.267 117.606 61.0919 118.07 60.7415C118.534 60.3864 118.887 59.8963 119.128 59.2713C119.37 58.6416 119.491 57.9148 119.491 57.0909C119.491 56.2765 119.372 55.5639 119.135 54.9531C118.899 54.3376 118.548 53.8594 118.084 53.5185C117.62 53.1728 117.047 53 116.366 53C115.655 53 115.063 53.1823 114.59 53.5469C114.121 53.9067 113.768 54.3968 113.532 55.017C113.3 55.6326 113.184 56.3239 113.184 57.0909C113.184 57.8674 113.302 58.5729 113.539 59.2074C113.78 59.8371 114.135 60.339 114.604 60.7131C115.078 61.0824 115.665 61.267 116.366 61.267Z" fill="black"/>
<path d="M109.297 54.0794L107.791 54.5055C107.697 54.2546 107.557 54.0107 107.372 53.774C107.192 53.5325 106.946 53.3336 106.634 53.1774C106.321 53.0211 105.921 52.943 105.434 52.943C104.766 52.943 104.21 53.0969 103.764 53.4047C103.324 53.7077 103.104 54.0936 103.104 54.5623C103.104 54.979 103.255 55.3081 103.559 55.5495C103.862 55.791 104.335 55.9922 104.979 56.1532L106.598 56.551C107.574 56.7877 108.3 57.1499 108.779 57.6376C109.257 58.1206 109.496 58.7432 109.496 59.5055C109.496 60.1305 109.316 60.6892 108.956 61.1816C108.601 61.6741 108.104 62.0623 107.465 62.3464C106.826 62.6305 106.082 62.7725 105.235 62.7725C104.122 62.7725 103.201 62.5311 102.472 62.0481C101.743 61.5652 101.281 60.8597 101.087 59.9316L102.678 59.5339C102.829 60.121 103.116 60.5614 103.537 60.8549C103.963 61.1485 104.52 61.2953 105.206 61.2953C105.987 61.2953 106.608 61.1296 107.067 60.7981C107.531 60.4619 107.763 60.0595 107.763 59.5907C107.763 59.2119 107.63 58.8947 107.365 58.639C107.1 58.3786 106.693 58.1845 106.144 58.0566L104.326 57.6305C103.326 57.3938 102.593 57.0268 102.124 56.5297C101.66 56.0278 101.428 55.4004 101.428 54.6475C101.428 54.032 101.601 53.4875 101.946 53.014C102.297 52.5405 102.773 52.1689 103.374 51.899C103.98 51.6291 104.666 51.4941 105.434 51.4941C106.513 51.4941 107.361 51.7309 107.976 52.2044C108.596 52.6779 109.037 53.3029 109.297 54.0794Z" fill="black"/>
<path d="M93.5104 62.801C92.8191 62.801 92.1918 62.6708 91.6283 62.4103C91.0649 62.1452 90.6174 61.764 90.286 61.2669C89.9545 60.765 89.7888 60.1589 89.7888 59.4487C89.7888 58.8237 89.9119 58.3171 90.1581 57.9288C90.4043 57.5358 90.7334 57.228 91.1454 57.0055C91.5573 56.783 92.0118 56.6172 92.509 56.5083C93.0109 56.3947 93.5151 56.3047 94.0218 56.2385C94.6847 56.1532 95.2221 56.0893 95.634 56.0467C96.0507 55.9993 96.3537 55.9212 96.5431 55.8123C96.7372 55.7034 96.8343 55.514 96.8343 55.2441V55.1873C96.8343 54.4866 96.6425 53.9421 96.259 53.5538C95.8802 53.1655 95.3049 52.9714 94.5331 52.9714C93.7329 52.9714 93.1056 53.1466 92.651 53.497C92.1965 53.8474 91.8769 54.2214 91.6922 54.6191L90.1013 54.051C90.3854 53.3881 90.7642 52.872 91.2377 52.5027C91.7159 52.1286 92.2367 51.8682 92.8002 51.7214C93.3684 51.5699 93.9271 51.4941 94.4763 51.4941C94.8267 51.4941 95.2292 51.5368 95.6837 51.622C96.143 51.7025 96.5857 51.8706 97.0118 52.1262C97.4427 52.3819 97.8002 52.7678 98.0843 53.2839C98.3684 53.8 98.5104 54.4913 98.5104 55.3578V62.5453H96.8343V61.068H96.749C96.6354 61.3047 96.446 61.5581 96.1809 61.8279C95.9157 62.0978 95.563 62.3275 95.1226 62.5169C94.6823 62.7063 94.1449 62.801 93.5104 62.801ZM93.7661 61.2953C94.429 61.2953 94.9877 61.1651 95.4422 60.9047C95.9015 60.6442 96.2471 60.3081 96.4792 59.8961C96.7159 59.4842 96.8343 59.051 96.8343 58.5964V57.0623C96.7633 57.1475 96.607 57.2257 96.3655 57.2967C96.1288 57.363 95.8542 57.4222 95.5417 57.4743C95.2339 57.5216 94.9332 57.5642 94.6397 57.6021C94.3508 57.6352 94.1165 57.6636 93.9365 57.6873C93.5009 57.7441 93.0937 57.8365 92.715 57.9643C92.3409 58.0874 92.0379 58.2744 91.8059 58.5254C91.5786 58.7716 91.465 59.1078 91.465 59.5339C91.465 60.1163 91.6804 60.5566 92.1113 60.8549C92.5469 61.1485 93.0985 61.2953 93.7661 61.2953Z" fill="black"/>
<path d="M88.2635 51.6363V53.0568H82.3828V51.6363H88.2635ZM84.1442 62.5454V50.1306C84.1442 49.5056 84.291 48.9848 84.5845 48.5681C84.8781 48.1514 85.2592 47.8389 85.728 47.6306C86.1967 47.4223 86.6915 47.3181 87.2124 47.3181C87.6243 47.3181 87.9605 47.3513 88.2209 47.4175C88.4813 47.4838 88.6754 47.5454 88.8033 47.6022L88.3203 49.0511C88.2351 49.0227 88.1167 48.9871 87.9652 48.9445C87.8184 48.9019 87.6243 48.8806 87.3828 48.8806C86.8288 48.8806 86.4287 49.0203 86.1825 49.2996C85.9411 49.579 85.8203 49.9886 85.8203 50.5283V62.5454H84.1442Z" fill="black"/>
<path d="M81.0565 51.6363V53.0568H75.1758V51.6363H81.0565ZM76.9371 62.5454V50.1306C76.9371 49.5056 77.0839 48.9848 77.3775 48.5681C77.671 48.1514 78.0522 47.8389 78.521 47.6306C78.9897 47.4223 79.4845 47.3181 80.0053 47.3181C80.4173 47.3181 80.7534 47.3513 81.0139 47.4175C81.2743 47.4838 81.4684 47.5454 81.5962 47.6022L81.1133 49.0511C81.0281 49.0227 80.9097 48.9871 80.7582 48.9445C80.6114 48.9019 80.4173 48.8806 80.1758 48.8806C79.6218 48.8806 79.2217 49.0203 78.9755 49.2996C78.734 49.579 78.6133 49.9886 78.6133 50.5283V62.5454H76.9371Z" fill="black"/>
<path d="M67.8961 62.7727C66.987 62.7727 66.1844 62.5431 65.4884 62.0838C64.7924 61.6198 64.2479 60.9664 63.8549 60.1236C63.4619 59.276 63.2654 58.2746 63.2654 57.1193C63.2654 55.9735 63.4619 54.9792 63.8549 54.1364C64.2479 53.2936 64.7947 52.6425 65.4955 52.1832C66.1962 51.724 67.0059 51.4943 67.9245 51.4943C68.6347 51.4943 69.1958 51.6127 69.6077 51.8494C70.0244 52.0814 70.3416 52.3466 70.5594 52.6449C70.782 52.9384 70.9548 53.1799 71.0779 53.3693H71.2199V48H72.8961V62.5455H71.2767V60.8693H71.0779C70.9548 61.0682 70.7796 61.3191 70.5523 61.6222C70.325 61.9205 70.0007 62.188 69.5793 62.4247C69.1579 62.6567 68.5968 62.7727 67.8961 62.7727ZM68.1233 61.267C68.7957 61.267 69.3639 61.0919 69.8279 60.7415C70.2919 60.3864 70.6446 59.8963 70.8861 59.2713C71.1276 58.6416 71.2483 57.9148 71.2483 57.0909C71.2483 56.2765 71.13 55.5639 70.8932 54.9531C70.6565 54.3376 70.3061 53.8594 69.8421 53.5185C69.3781 53.1728 68.8052 53 68.1233 53C67.4131 53 66.8212 53.1823 66.3478 53.5469C65.879 53.9067 65.5263 54.3968 65.2895 55.017C65.0575 55.6326 64.9415 56.3239 64.9415 57.0909C64.9415 57.8674 65.0599 58.5729 65.2966 59.2074C65.5381 59.8371 65.8932 60.339 66.362 60.7131C66.8355 61.0824 67.4226 61.267 68.1233 61.267Z" fill="black"/>
<path d="M61.055 54.0794L59.5493 54.5055C59.4546 54.2546 59.3149 54.0107 59.1302 53.774C58.9503 53.5325 58.7041 53.3336 58.3916 53.1774C58.0791 53.0211 57.679 52.943 57.1913 52.943C56.5237 52.943 55.9674 53.0969 55.5223 53.4047C55.0819 53.7077 54.8618 54.0936 54.8618 54.5623C54.8618 54.979 55.0133 55.3081 55.3163 55.5495C55.6193 55.791 56.0928 55.9922 56.7368 56.1532L58.3561 56.551C59.3315 56.7877 60.0583 57.1499 60.5365 57.6376C61.0147 58.1206 61.2538 58.7432 61.2538 59.5055C61.2538 60.1305 61.0739 60.6892 60.714 61.1816C60.3589 61.6741 59.8618 62.0623 59.2226 62.3464C58.5834 62.6305 57.84 62.7725 56.9925 62.7725C55.8798 62.7725 54.9588 62.5311 54.2297 62.0481C53.5005 61.5652 53.0389 60.8597 52.8447 59.9316L54.4356 59.5339C54.5871 60.121 54.8736 60.5614 55.295 60.8549C55.7211 61.1485 56.2775 61.2953 56.964 61.2953C57.7453 61.2953 58.3656 61.1296 58.8248 60.7981C59.2889 60.4619 59.5209 60.0595 59.5209 59.5907C59.5209 59.2119 59.3883 58.8947 59.1231 58.639C58.858 58.3786 58.4508 58.1845 57.9015 58.0566L56.0834 57.6305C55.0843 57.3938 54.3504 57.0268 53.8817 56.5297C53.4176 56.0278 53.1856 55.4004 53.1856 54.6475C53.1856 54.032 53.3585 53.4875 53.7041 53.014C54.0545 52.5405 54.5303 52.1689 55.1317 51.899C55.7377 51.6291 56.4243 51.4941 57.1913 51.4941C58.2709 51.4941 59.1184 51.7309 59.7339 52.2044C60.3542 52.6779 60.7945 53.3029 61.055 54.0794Z" fill="black"/>
<path d="M45.2682 62.801C44.5769 62.801 43.9496 62.6708 43.3861 62.4103C42.8227 62.1452 42.3752 61.764 42.0438 61.2669C41.7123 60.765 41.5466 60.1589 41.5466 59.4487C41.5466 58.8237 41.6697 58.3171 41.9159 57.9288C42.1622 57.5358 42.4912 57.228 42.9032 57.0055C43.3151 56.783 43.7696 56.6172 44.2668 56.5083C44.7687 56.3947 45.273 56.3047 45.7796 56.2385C46.4425 56.1532 46.9799 56.0893 47.3918 56.0467C47.8085 55.9993 48.1115 55.9212 48.3009 55.8123C48.495 55.7034 48.5921 55.514 48.5921 55.2441V55.1873C48.5921 54.4866 48.4003 53.9421 48.0168 53.5538C47.638 53.1655 47.0627 52.9714 46.2909 52.9714C45.4908 52.9714 44.8634 53.1466 44.4088 53.497C43.9543 53.8474 43.6347 54.2214 43.45 54.6191L41.8591 54.051C42.1432 53.3881 42.522 52.872 42.9955 52.5027C43.4737 52.1286 43.9945 51.8682 44.558 51.7214C45.1262 51.5699 45.6849 51.4941 46.2341 51.4941C46.5845 51.4941 46.987 51.5368 47.4415 51.622C47.9008 51.7025 48.3435 51.8706 48.7696 52.1262C49.2005 52.3819 49.558 52.7678 49.8421 53.2839C50.1262 53.8 50.2682 54.4913 50.2682 55.3578V62.5453H48.5921V61.068H48.5069C48.3932 61.3047 48.2038 61.5581 47.9387 61.8279C47.6735 62.0978 47.3208 62.3275 46.8804 62.5169C46.4401 62.7063 45.9027 62.801 45.2682 62.801ZM45.5239 61.2953C46.1868 61.2953 46.7455 61.1651 47.2 60.9047C47.6593 60.6442 48.005 60.3081 48.237 59.8961C48.4737 59.4842 48.5921 59.051 48.5921 58.5964V57.0623C48.5211 57.1475 48.3648 57.2257 48.1233 57.2967C47.8866 57.363 47.612 57.4222 47.2995 57.4743C46.9917 57.5216 46.691 57.5642 46.3975 57.6021C46.1087 57.6352 45.8743 57.6636 45.6944 57.6873C45.2588 57.7441 44.8516 57.8365 44.4728 57.9643C44.0987 58.0874 43.7957 58.2744 43.5637 58.5254C43.3364 58.7716 43.2228 59.1078 43.2228 59.5339C43.2228 60.1163 43.4382 60.5566 43.8691 60.8549C44.3047 61.1485 44.8563 61.2953 45.5239 61.2953Z" fill="black"/>
<path d="M40.0213 51.6363V53.0568H34.1406V51.6363H40.0213ZM35.902 62.5454V50.1306C35.902 49.5056 36.0488 48.9848 36.3423 48.5681C36.6359 48.1514 37.017 47.8389 37.4858 47.6306C37.9545 47.4223 38.4493 47.3181 38.9702 47.3181C39.3821 47.3181 39.7183 47.3513 39.9787 47.4175C40.2391 47.4838 40.4332 47.5454 40.5611 47.6022L40.0781 49.0511C39.9929 49.0227 39.8745 48.9871 39.723 48.9445C39.5762 48.9019 39.3821 48.8806 39.1406 48.8806C38.5866 48.8806 38.1866 49.0203 37.9403 49.2996C37.6989 49.579 37.5781 49.9886 37.5781 50.5283V62.5454H35.902Z" fill="black"/>
<path d="M26.8609 62.7727C25.9518 62.7727 25.1493 62.5431 24.4532 62.0838C23.7572 61.6198 23.2127 60.9664 22.8197 60.1236C22.4267 59.276 22.2302 58.2746 22.2302 57.1193C22.2302 55.9735 22.4267 54.9792 22.8197 54.1364C23.2127 53.2936 23.7596 52.6425 24.4603 52.1832C25.1611 51.724 25.9708 51.4943 26.8893 51.4943C27.5995 51.4943 28.1606 51.6127 28.5726 51.8494C28.9892 52.0814 29.3065 52.3466 29.5243 52.6449C29.7468 52.9384 29.9196 53.1799 30.0427 53.3693H30.1848V48H31.8609V62.5455H30.2416V60.8693H30.0427C29.9196 61.0682 29.7444 61.3191 29.5172 61.6222C29.2899 61.9205 28.9655 62.188 28.5441 62.4247C28.1227 62.6567 27.5617 62.7727 26.8609 62.7727ZM27.0882 61.267C27.7605 61.267 28.3287 61.0919 28.7927 60.7415C29.2567 60.3864 29.6095 59.8963 29.851 59.2713C30.0924 58.6416 30.2132 57.9148 30.2132 57.0909C30.2132 56.2765 30.0948 55.5639 29.8581 54.9531C29.6213 54.3376 29.2709 53.8594 28.8069 53.5185C28.3429 53.1728 27.77 53 27.0882 53C26.378 53 25.7861 53.1823 25.3126 53.5469C24.8439 53.9067 24.4911 54.3968 24.2544 55.017C24.0224 55.6326 23.9064 56.3239 23.9064 57.0909C23.9064 57.8674 24.0247 58.5729 24.2615 59.2074C24.503 59.8371 24.8581 60.339 25.3268 60.7131C25.8003 61.0824 26.3874 61.267 27.0882 61.267Z" fill="black"/>
<path d="M20.0198 54.0794L18.5141 54.5055C18.4194 54.2546 18.2797 54.0107 18.0951 53.774C17.9152 53.5325 17.6689 53.3336 17.3564 53.1774C17.0439 53.0211 16.6439 52.943 16.1562 52.943C15.4885 52.943 14.9322 53.0969 14.4871 53.4047C14.0468 53.7077 13.8266 54.0936 13.8266 54.5623C13.8266 54.979 13.9781 55.3081 14.2812 55.5495C14.5842 55.791 15.0577 55.9922 15.7016 56.1532L17.3209 56.551C18.2963 56.7877 19.0231 57.1499 19.5013 57.6376C19.9796 58.1206 20.2187 58.7432 20.2187 59.5055C20.2187 60.1305 20.0387 60.6892 19.6789 61.1816C19.3238 61.6741 18.8266 62.0623 18.1874 62.3464C17.5482 62.6305 16.8048 62.7725 15.9573 62.7725C14.8446 62.7725 13.9237 62.5311 13.1945 62.0481C12.4653 61.5652 12.0037 60.8597 11.8096 59.9316L13.4005 59.5339C13.552 60.121 13.8385 60.5614 14.2599 60.8549C14.686 61.1485 15.2423 61.2953 15.9289 61.2953C16.7101 61.2953 17.3304 61.1296 17.7897 60.7981C18.2537 60.4619 18.4857 60.0595 18.4857 59.5907C18.4857 59.2119 18.3531 58.8947 18.088 58.639C17.8228 58.3786 17.4156 58.1845 16.8664 58.0566L15.0482 57.6305C14.0492 57.3938 13.3153 57.0268 12.8465 56.5297C12.3825 56.0278 12.1505 55.4004 12.1505 54.6475C12.1505 54.032 12.3233 53.4875 12.6689 53.014C13.0193 52.5405 13.4952 52.1689 14.0965 51.899C14.7026 51.6291 15.3891 51.4941 16.1562 51.4941C17.2357 51.4941 18.0832 51.7309 18.6988 52.2044C19.319 52.6779 19.7594 53.3029 20.0198 54.0794Z" fill="black"/>
<path d="M4.23307 62.801C3.54178 62.801 2.91441 62.6708 2.35096 62.4103C1.78752 62.1452 1.34007 61.764 1.00863 61.2669C0.677194 60.765 0.511475 60.1589 0.511475 59.4487C0.511475 58.8237 0.634581 58.3171 0.880793 57.9288C1.127 57.5358 1.45608 57.228 1.86801 57.0055C2.27994 56.783 2.73449 56.6172 3.23165 56.5083C3.73354 56.3947 4.2378 56.3047 4.74443 56.2385C5.40731 56.1532 5.94471 56.0893 6.35665 56.0467C6.77331 55.9993 7.07634 55.9212 7.26574 55.8123C7.45986 55.7034 7.55693 55.514 7.55693 55.2441V55.1873C7.55693 54.4866 7.36517 53.9421 6.98165 53.5538C6.60286 53.1655 6.02757 52.9714 5.25579 52.9714C4.4556 52.9714 3.82824 53.1466 3.37369 53.497C2.91915 53.8474 2.59954 54.2214 2.41488 54.6191L0.823975 54.051C1.10807 53.3881 1.48685 52.872 1.96034 52.5027C2.43856 52.1286 2.95939 51.8682 3.52284 51.7214C4.09102 51.5699 4.64973 51.4941 5.19897 51.4941C5.54935 51.4941 5.95182 51.5368 6.40636 51.622C6.86564 51.7025 7.30835 51.8706 7.73449 52.1262C8.16536 52.3819 8.52284 52.7678 8.80693 53.2839C9.09102 53.8 9.23307 54.4913 9.23307 55.3578V62.5453H7.55693V61.068H7.4717C7.35807 61.3047 7.16867 61.5581 6.90352 61.8279C6.63837 62.0978 6.28562 62.3275 5.84528 62.5169C5.40494 62.7063 4.86754 62.801 4.23307 62.801ZM4.48875 61.2953C5.15163 61.2953 5.71034 61.1651 6.16488 60.9047C6.62416 60.6442 6.96981 60.3081 7.20182 59.8961C7.43856 59.4842 7.55693 59.051 7.55693 58.5964V57.0623C7.48591 57.1475 7.32966 57.2257 7.08818 57.2967C6.85144 57.363 6.57682 57.4222 6.26432 57.4743C5.95655 57.5216 5.65589 57.5642 5.36233 57.6021C5.0735 57.6352 4.83913 57.6636 4.6592 57.6873C4.2236 57.7441 3.8164 57.8365 3.43761 57.9643C3.06356 58.0874 2.76053 58.2744 2.52852 58.5254C2.30125 58.7716 2.18761 59.1078 2.18761 59.5339C2.18761 60.1163 2.40305 60.5566 2.83392 60.8549C3.26952 61.1485 3.82113 61.2953 4.48875 61.2953Z" fill="black"/>
<path d="M122.092 27.6363V29.0568H116.211V27.6363H122.092ZM117.972 38.5454V26.1306C117.972 25.5056 118.119 24.9848 118.413 24.5681C118.706 24.1514 119.087 23.8389 119.556 23.6306C120.025 23.4223 120.52 23.3181 121.04 23.3181C121.452 23.3181 121.789 23.3513 122.049 23.4175C122.309 23.4838 122.504 23.5454 122.631 23.6022L122.148 25.0511C122.063 25.0227 121.945 24.9871 121.793 24.9445C121.647 24.9019 121.452 24.8806 121.211 24.8806C120.657 24.8806 120.257 25.0203 120.011 25.2997C119.769 25.579 119.648 25.9886 119.648 26.5283V38.5454H117.972Z" fill="black"/>
<path d="M108.931 38.7727C108.022 38.7727 107.22 38.5431 106.524 38.0838C105.828 37.6198 105.283 36.9664 104.89 36.1236C104.497 35.276 104.301 34.2746 104.301 33.1193C104.301 31.9735 104.497 30.9792 104.89 30.1364C105.283 29.2936 105.83 28.6425 106.531 28.1832C107.231 27.724 108.041 27.4943 108.96 27.4943C109.67 27.4943 110.231 27.6127 110.643 27.8494C111.06 28.0814 111.377 28.3466 111.595 28.6449C111.817 28.9384 111.99 29.1799 112.113 29.3693H112.255V24H113.931V38.5455H112.312V36.8693H112.113C111.99 37.0682 111.815 37.3191 111.587 37.6222C111.36 37.9205 111.036 38.188 110.614 38.4247C110.193 38.6567 109.632 38.7727 108.931 38.7727ZM109.158 37.267C109.831 37.267 110.399 37.0919 110.863 36.7415C111.327 36.3864 111.68 35.8963 111.921 35.2713C112.163 34.6416 112.283 33.9148 112.283 33.0909C112.283 32.2765 112.165 31.5639 111.928 30.9531C111.692 30.3376 111.341 29.8594 110.877 29.5185C110.413 29.1728 109.84 29 109.158 29C108.448 29 107.856 29.1823 107.383 29.5469C106.914 29.9067 106.561 30.3968 106.325 31.017C106.093 31.6326 105.977 32.3239 105.977 33.0909C105.977 33.8674 106.095 34.5729 106.332 35.2074C106.573 35.8371 106.928 36.339 107.397 36.7131C107.871 37.0824 108.458 37.267 109.158 37.267Z" fill="black"/>
<path d="M102.09 30.0794L100.584 30.5055C100.49 30.2546 100.35 30.0107 100.165 29.774C99.9855 29.5325 99.7393 29.3336 99.4268 29.1774C99.1143 29.0211 98.7142 28.943 98.2265 28.943C97.5589 28.943 97.0025 29.0969 96.5574 29.4047C96.1171 29.7077 95.8969 30.0936 95.8969 30.5623C95.8969 30.979 96.0484 31.3081 96.3515 31.5495C96.6545 31.791 97.128 31.9922 97.7719 32.1532L99.3912 32.551C100.367 32.7877 101.093 33.1499 101.572 33.6376C102.05 34.1206 102.289 34.7432 102.289 35.5055C102.289 36.1305 102.109 36.6892 101.749 37.1816C101.394 37.6741 100.897 38.0623 100.258 38.3464C99.6185 38.6305 98.8751 38.7725 98.0276 38.7725C96.9149 38.7725 95.994 38.5311 95.2648 38.0481C94.5357 37.5652 94.074 36.8597 93.8799 35.9316L95.4708 35.5339C95.6223 36.121 95.9088 36.5614 96.3302 36.8549C96.7563 37.1485 97.3126 37.2953 97.9992 37.2953C98.7804 37.2953 99.4007 37.1296 99.86 36.7981C100.324 36.4619 100.556 36.0595 100.556 35.5907C100.556 35.2119 100.423 34.8947 100.158 34.639C99.8931 34.3786 99.4859 34.1845 98.9367 34.0566L97.1185 33.6305C96.1195 33.3938 95.3856 33.0268 94.9168 32.5297C94.4528 32.0278 94.2208 31.4004 94.2208 30.6475C94.2208 30.032 94.3936 29.4875 94.7393 29.014C95.0896 28.5405 95.5655 28.1689 96.1668 27.899C96.7729 27.6291 97.4594 27.4941 98.2265 27.4941C99.306 27.4941 100.154 27.7309 100.769 28.2044C101.389 28.6779 101.83 29.3029 102.09 30.0794Z" fill="black"/>
<path d="M86.3034 38.801C85.6121 38.801 84.9847 38.6707 84.4213 38.4103C83.8578 38.1452 83.4104 37.764 83.0789 37.2669C82.7475 36.765 82.5818 36.1589 82.5818 35.4487C82.5818 34.8237 82.7049 34.3171 82.9511 33.9288C83.1973 33.5358 83.5264 33.228 83.9383 33.0055C84.3503 32.783 84.8048 32.6172 85.302 32.5083C85.8039 32.3947 86.3081 32.3047 86.8147 32.2385C87.4776 32.1532 88.015 32.0893 88.427 32.0467C88.8436 31.9993 89.1467 31.9212 89.336 31.8123C89.5302 31.7034 89.6272 31.514 89.6272 31.2441V31.1873C89.6272 30.4866 89.4355 29.9421 89.052 29.5538C88.6732 29.1655 88.0979 28.9714 87.3261 28.9714C86.5259 28.9714 85.8985 29.1466 85.444 29.497C84.9895 29.8474 84.6699 30.2214 84.4852 30.6191L82.8943 30.051C83.1784 29.3881 83.5572 28.872 84.0306 28.5027C84.5089 28.1286 85.0297 27.8682 85.5931 27.7214C86.1613 27.5699 86.72 27.4941 87.2693 27.4941C87.6197 27.4941 88.0221 27.5368 88.4767 27.622C88.9359 27.7025 89.3787 27.8706 89.8048 28.1262C90.2357 28.3819 90.5932 28.7678 90.8772 29.2839C91.1613 29.8 91.3034 30.4913 91.3034 31.3578V38.5453H89.6272V37.068H89.542C89.4284 37.3047 89.239 37.5581 88.9738 37.8279C88.7087 38.0978 88.3559 38.3275 87.9156 38.5169C87.4753 38.7063 86.9378 38.801 86.3034 38.801ZM86.5591 37.2953C87.2219 37.2953 87.7807 37.1651 88.2352 36.9047C88.6945 36.6442 89.0401 36.3081 89.2721 35.8961C89.5089 35.4842 89.6272 35.051 89.6272 34.5964V33.0623C89.5562 33.1475 89.4 33.2257 89.1585 33.2967C88.9218 33.363 88.6471 33.4222 88.3346 33.4743C88.0269 33.5216 87.7262 33.5642 87.4326 33.6021C87.1438 33.6352 86.9094 33.6636 86.7295 33.6873C86.2939 33.7441 85.8867 33.8365 85.5079 33.9643C85.1339 34.0874 84.8308 34.2744 84.5988 34.5254C84.3716 34.7716 84.2579 35.1078 84.2579 35.5339C84.2579 36.1163 84.4734 36.5566 84.9042 36.8549C85.3398 37.1485 85.8914 37.2953 86.5591 37.2953Z" fill="black"/>
<path d="M81.0565 27.6363V29.0568H75.1758V27.6363H81.0565ZM76.9371 38.5454V26.1306C76.9371 25.5056 77.0839 24.9848 77.3775 24.5681C77.671 24.1514 78.0522 23.8389 78.521 23.6306C78.9897 23.4223 79.4845 23.3181 80.0053 23.3181C80.4173 23.3181 80.7534 23.3513 81.0139 23.4175C81.2743 23.4838 81.4684 23.5454 81.5962 23.6022L81.1133 25.0511C81.0281 25.0227 80.9097 24.9871 80.7582 24.9445C80.6114 24.9019 80.4173 24.8806 80.1758 24.8806C79.6218 24.8806 79.2217 25.0203 78.9755 25.2997C78.734 25.579 78.6133 25.9886 78.6133 26.5283V38.5454H76.9371Z" fill="black"/>
<path d="M67.8961 38.7727C66.987 38.7727 66.1844 38.5431 65.4884 38.0838C64.7924 37.6198 64.2479 36.9664 63.8549 36.1236C63.4619 35.276 63.2654 34.2746 63.2654 33.1193C63.2654 31.9735 63.4619 30.9792 63.8549 30.1364C64.2479 29.2936 64.7947 28.6425 65.4955 28.1832C66.1962 27.724 67.0059 27.4943 67.9245 27.4943C68.6347 27.4943 69.1958 27.6127 69.6077 27.8494C70.0244 28.0814 70.3416 28.3466 70.5594 28.6449C70.782 28.9384 70.9548 29.1799 71.0779 29.3693H71.2199V24H72.8961V38.5455H71.2767V36.8693H71.0779C70.9548 37.0682 70.7796 37.3191 70.5523 37.6222C70.325 37.9205 70.0007 38.188 69.5793 38.4247C69.1579 38.6567 68.5968 38.7727 67.8961 38.7727ZM68.1233 37.267C68.7957 37.267 69.3639 37.0919 69.8279 36.7415C70.2919 36.3864 70.6446 35.8963 70.8861 35.2713C71.1276 34.6416 71.2483 33.9148 71.2483 33.0909C71.2483 32.2765 71.13 31.5639 70.8932 30.9531C70.6565 30.3376 70.3061 29.8594 69.8421 29.5185C69.3781 29.1728 68.8052 29 68.1233 29C67.4131 29 66.8212 29.1823 66.3478 29.5469C65.879 29.9067 65.5263 30.3968 65.2895 31.017C65.0575 31.6326 64.9415 32.3239 64.9415 33.0909C64.9415 33.8674 65.0599 34.5729 65.2966 35.2074C65.5381 35.8371 65.8932 36.339 66.362 36.7131C66.8355 37.0824 67.4226 37.267 68.1233 37.267Z" fill="black"/>
<path d="M61.055 30.0794L59.5493 30.5055C59.4546 30.2546 59.3149 30.0107 59.1302 29.774C58.9503 29.5325 58.7041 29.3336 58.3916 29.1774C58.0791 29.0211 57.679 28.943 57.1913 28.943C56.5237 28.943 55.9674 29.0969 55.5223 29.4047C55.0819 29.7077 54.8618 30.0936 54.8618 30.5623C54.8618 30.979 55.0133 31.3081 55.3163 31.5495C55.6193 31.791 56.0928 31.9922 56.7368 32.1532L58.3561 32.551C59.3315 32.7877 60.0583 33.1499 60.5365 33.6376C61.0147 34.1206 61.2538 34.7432 61.2538 35.5055C61.2538 36.1305 61.0739 36.6892 60.714 37.1816C60.3589 37.6741 59.8618 38.0623 59.2226 38.3464C58.5834 38.6305 57.84 38.7725 56.9925 38.7725C55.8798 38.7725 54.9588 38.5311 54.2297 38.0481C53.5005 37.5652 53.0389 36.8597 52.8447 35.9316L54.4356 35.5339C54.5871 36.121 54.8736 36.5614 55.295 36.8549C55.7211 37.1485 56.2775 37.2953 56.964 37.2953C57.7453 37.2953 58.3656 37.1296 58.8248 36.7981C59.2889 36.4619 59.5209 36.0595 59.5209 35.5907C59.5209 35.2119 59.3883 34.8947 59.1231 34.639C58.858 34.3786 58.4508 34.1845 57.9015 34.0566L56.0834 33.6305C55.0843 33.3938 54.3504 33.0268 53.8817 32.5297C53.4176 32.0278 53.1856 31.4004 53.1856 30.6475C53.1856 30.032 53.3585 29.4875 53.7041 29.014C54.0545 28.5405 54.5303 28.1689 55.1317 27.899C55.7377 27.6291 56.4243 27.4941 57.1913 27.4941C58.2709 27.4941 59.1184 27.7309 59.7339 28.2044C60.3542 28.6779 60.7945 29.3029 61.055 30.0794Z" fill="black"/>
<path d="M45.2682 38.801C44.5769 38.801 43.9496 38.6707 43.3861 38.4103C42.8227 38.1452 42.3752 37.764 42.0438 37.2669C41.7123 36.765 41.5466 36.1589 41.5466 35.4487C41.5466 34.8237 41.6697 34.3171 41.9159 33.9288C42.1622 33.5358 42.4912 33.228 42.9032 33.0055C43.3151 32.783 43.7696 32.6172 44.2668 32.5083C44.7687 32.3947 45.273 32.3047 45.7796 32.2385C46.4425 32.1532 46.9799 32.0893 47.3918 32.0467C47.8085 31.9993 48.1115 31.9212 48.3009 31.8123C48.495 31.7034 48.5921 31.514 48.5921 31.2441V31.1873C48.5921 30.4866 48.4003 29.9421 48.0168 29.5538C47.638 29.1655 47.0627 28.9714 46.2909 28.9714C45.4908 28.9714 44.8634 29.1466 44.4088 29.497C43.9543 29.8474 43.6347 30.2214 43.45 30.6191L41.8591 30.051C42.1432 29.3881 42.522 28.872 42.9955 28.5027C43.4737 28.1286 43.9945 27.8682 44.558 27.7214C45.1262 27.5699 45.6849 27.4941 46.2341 27.4941C46.5845 27.4941 46.987 27.5368 47.4415 27.622C47.9008 27.7025 48.3435 27.8706 48.7696 28.1262C49.2005 28.3819 49.558 28.7678 49.8421 29.2839C50.1262 29.8 50.2682 30.4913 50.2682 31.3578V38.5453H48.5921V37.068H48.5069C48.3932 37.3047 48.2038 37.5581 47.9387 37.8279C47.6735 38.0978 47.3208 38.3275 46.8804 38.5169C46.4401 38.7063 45.9027 38.801 45.2682 38.801ZM45.5239 37.2953C46.1868 37.2953 46.7455 37.1651 47.2 36.9047C47.6593 36.6442 48.005 36.3081 48.237 35.8961C48.4737 35.4842 48.5921 35.051 48.5921 34.5964V33.0623C48.5211 33.1475 48.3648 33.2257 48.1233 33.2967C47.8866 33.363 47.612 33.4222 47.2995 33.4743C46.9917 33.5216 46.691 33.5642 46.3975 33.6021C46.1087 33.6352 45.8743 33.6636 45.6944 33.6873C45.2588 33.7441 44.8516 33.8365 44.4728 33.9643C44.0987 34.0874 43.7957 34.2744 43.5637 34.5254C43.3364 34.7716 43.2228 35.1078 43.2228 35.5339C43.2228 36.1163 43.4382 36.5566 43.8691 36.8549C44.3047 37.1485 44.8563 37.2953 45.5239 37.2953Z" fill="black"/>
<path d="M40.0213 27.6363V29.0568H34.1406V27.6363H40.0213ZM35.902 38.5454V26.1306C35.902 25.5056 36.0488 24.9848 36.3423 24.5681C36.6359 24.1514 37.017 23.8389 37.4858 23.6306C37.9545 23.4223 38.4493 23.3181 38.9702 23.3181C39.3821 23.3181 39.7183 23.3513 39.9787 23.4175C40.2391 23.4838 40.4332 23.5454 40.5611 23.6022L40.0781 25.0511C39.9929 25.0227 39.8745 24.9871 39.723 24.9445C39.5762 24.9019 39.3821 24.8806 39.1406 24.8806C38.5866 24.8806 38.1866 25.0203 37.9403 25.2997C37.6989 25.579 37.5781 25.9886 37.5781 26.5283V38.5454H35.902Z" fill="black"/>
<path d="M26.8609 38.7727C25.9518 38.7727 25.1493 38.5431 24.4532 38.0838C23.7572 37.6198 23.2127 36.9664 22.8197 36.1236C22.4267 35.276 22.2302 34.2746 22.2302 33.1193C22.2302 31.9735 22.4267 30.9792 22.8197 30.1364C23.2127 29.2936 23.7596 28.6425 24.4603 28.1832C25.1611 27.724 25.9708 27.4943 26.8893 27.4943C27.5995 27.4943 28.1606 27.6127 28.5726 27.8494C28.9892 28.0814 29.3065 28.3466 29.5243 28.6449C29.7468 28.9384 29.9196 29.1799 30.0427 29.3693H30.1848V24H31.8609V38.5455H30.2416V36.8693H30.0427C29.9196 37.0682 29.7444 37.3191 29.5172 37.6222C29.2899 37.9205 28.9655 38.188 28.5441 38.4247C28.1227 38.6567 27.5617 38.7727 26.8609 38.7727ZM27.0882 37.267C27.7605 37.267 28.3287 37.0919 28.7927 36.7415C29.2567 36.3864 29.6095 35.8963 29.851 35.2713C30.0924 34.6416 30.2132 33.9148 30.2132 33.0909C30.2132 32.2765 30.0948 31.5639 29.8581 30.9531C29.6213 30.3376 29.2709 29.8594 28.8069 29.5185C28.3429 29.1728 27.77 29 27.0882 29C26.378 29 25.7861 29.1823 25.3126 29.5469C24.8439 29.9067 24.4911 30.3968 24.2544 31.017C24.0224 31.6326 23.9064 32.3239 23.9064 33.0909C23.9064 33.8674 24.0247 34.5729 24.2615 35.2074C24.503 35.8371 24.8581 36.339 25.3268 36.7131C25.8003 37.0824 26.3874 37.267 27.0882 37.267Z" fill="black"/>
<path d="M20.0198 30.0794L18.5141 30.5055C18.4194 30.2546 18.2797 30.0107 18.0951 29.774C17.9152 29.5325 17.6689 29.3336 17.3564 29.1774C17.0439 29.0211 16.6439 28.943 16.1562 28.943C15.4885 28.943 14.9322 29.0969 14.4871 29.4047C14.0468 29.7077 13.8266 30.0936 13.8266 30.5623C13.8266 30.979 13.9781 31.3081 14.2812 31.5495C14.5842 31.791 15.0577 31.9922 15.7016 32.1532L17.3209 32.551C18.2963 32.7877 19.0231 33.1499 19.5013 33.6376C19.9796 34.1206 20.2187 34.7432 20.2187 35.5055C20.2187 36.1305 20.0387 36.6892 19.6789 37.1816C19.3238 37.6741 18.8266 38.0623 18.1874 38.3464C17.5482 38.6305 16.8048 38.7725 15.9573 38.7725C14.8446 38.7725 13.9237 38.5311 13.1945 38.0481C12.4653 37.5652 12.0037 36.8597 11.8096 35.9316L13.4005 35.5339C13.552 36.121 13.8385 36.5614 14.2599 36.8549C14.686 37.1485 15.2423 37.2953 15.9289 37.2953C16.7101 37.2953 17.3304 37.1296 17.7897 36.7981C18.2537 36.4619 18.4857 36.0595 18.4857 35.5907C18.4857 35.2119 18.3531 34.8947 18.088 34.639C17.8228 34.3786 17.4156 34.1845 16.8664 34.0566L15.0482 33.6305C14.0492 33.3938 13.3153 33.0268 12.8465 32.5297C12.3825 32.0278 12.1505 31.4004 12.1505 30.6475C12.1505 30.032 12.3233 29.4875 12.6689 29.014C13.0193 28.5405 13.4952 28.1689 14.0965 27.899C14.7026 27.6291 15.3891 27.4941 16.1562 27.4941C17.2357 27.4941 18.0832 27.7309 18.6988 28.2044C19.319 28.6779 19.7594 29.3029 20.0198 30.0794Z" fill="black"/>
<path d="M4.23307 38.801C3.54178 38.801 2.91441 38.6707 2.35096 38.4103C1.78752 38.1452 1.34007 37.764 1.00863 37.2669C0.677194 36.765 0.511475 36.1589 0.511475 35.4487C0.511475 34.8237 0.634581 34.3171 0.880793 33.9288C1.127 33.5358 1.45608 33.228 1.86801 33.0055C2.27994 32.783 2.73449 32.6172 3.23165 32.5083C3.73354 32.3947 4.2378 32.3047 4.74443 32.2385C5.40731 32.1532 5.94471 32.0893 6.35665 32.0467C6.77331 31.9993 7.07634 31.9212 7.26574 31.8123C7.45986 31.7034 7.55693 31.514 7.55693 31.2441V31.1873C7.55693 30.4866 7.36517 29.9421 6.98165 29.5538C6.60286 29.1655 6.02757 28.9714 5.25579 28.9714C4.4556 28.9714 3.82824 29.1466 3.37369 29.497C2.91915 29.8474 2.59954 30.2214 2.41488 30.6191L0.823975 30.051C1.10807 29.3881 1.48685 28.872 1.96034 28.5027C2.43856 28.1286 2.95939 27.8682 3.52284 27.7214C4.09102 27.5699 4.64973 27.4941 5.19897 27.4941C5.54935 27.4941 5.95182 27.5368 6.40636 27.622C6.86564 27.7025 7.30835 27.8706 7.73449 28.1262C8.16536 28.3819 8.52284 28.7678 8.80693 29.2839C9.09102 29.8 9.23307 30.4913 9.23307 31.3578V38.5453H7.55693V37.068H7.4717C7.35807 37.3047 7.16867 37.5581 6.90352 37.8279C6.63837 38.0978 6.28562 38.3275 5.84528 38.5169C5.40494 38.7063 4.86754 38.801 4.23307 38.801ZM4.48875 37.2953C5.15163 37.2953 5.71034 37.1651 6.16488 36.9047C6.62416 36.6442 6.96981 36.3081 7.20182 35.8961C7.43856 35.4842 7.55693 35.051 7.55693 34.5964V33.0623C7.48591 33.1475 7.32966 33.2257 7.08818 33.2967C6.85144 33.363 6.57682 33.4222 6.26432 33.4743C5.95655 33.5216 5.65589 33.5642 5.36233 33.6021C5.0735 33.6352 4.83913 33.6636 4.6592 33.6873C4.2236 33.7441 3.8164 33.8365 3.43761 33.9643C3.06356 34.0874 2.76053 34.2744 2.52852 34.5254C2.30125 34.7716 2.18761 35.1078 2.18761 35.5339C2.18761 36.1163 2.40305 36.5566 2.83392 36.8549C3.26952 37.1485 3.82113 37.2953 4.48875 37.2953Z" fill="black"/>
<path d="M59.0023 14.659C58.6519 14.659 58.3512 14.5335 58.1003 14.2826C57.8494 14.0317 57.7239 13.731 57.7239 13.3806C57.7239 13.0302 57.8494 12.7296 58.1003 12.4786C58.3512 12.2277 58.6519 12.1022 59.0023 12.1022C59.3527 12.1022 59.6533 12.2277 59.9043 12.4786C60.1552 12.7296 60.2807 13.0302 60.2807 13.3806C60.2807 13.6126 60.2215 13.8257 60.1031 14.0198C59.9895 14.2139 59.8356 14.3702 59.6415 14.4886C59.4521 14.6022 59.239 14.659 59.0023 14.659ZM59.0023 6.56243C58.6519 6.56243 58.3512 6.43696 58.1003 6.18601C57.8494 5.93507 57.7239 5.6344 57.7239 5.28402C57.7239 4.93364 57.8494 4.63298 58.1003 4.38203C58.3512 4.13109 58.6519 4.00562 59.0023 4.00562C59.3527 4.00562 59.6533 4.13109 59.9043 4.38203C60.1552 4.63298 60.2807 4.93364 60.2807 5.28402C60.2807 5.51603 60.2215 5.7291 60.1031 5.92323C59.9895 6.11736 59.8356 6.27361 59.6415 6.39198C59.4521 6.50561 59.239 6.56243 59.0023 6.56243Z" fill="black"/>
<path d="M55.2594 3.63634V5.0568H49.606V3.63634H55.2594ZM51.2537 1.02271H52.9298V11.4204C52.9298 11.8939 52.9985 12.249 53.1358 12.4858C53.2778 12.7178 53.4578 12.874 53.6756 12.9545C53.8981 13.0303 54.1325 13.0682 54.3787 13.0682C54.5633 13.0682 54.7149 13.0587 54.8332 13.0398C54.9516 13.0161 55.0463 12.9971 55.1173 12.9829L55.4582 14.4886C55.3446 14.5312 55.186 14.5738 54.9824 14.6165C54.7788 14.6638 54.5207 14.6875 54.2082 14.6875C53.7347 14.6875 53.2707 14.5857 52.8162 14.3821C52.3664 14.1785 51.9923 13.8684 51.694 13.4517C51.4005 13.035 51.2537 12.5094 51.2537 11.875V1.02271Z" fill="black"/>
<path d="M45.769 10.0851V3.63623H47.4452V14.5453H45.769V12.6987H45.6554C45.3997 13.2527 45.002 13.7238 44.4622 14.1121C43.9225 14.4956 43.2406 14.6874 42.4168 14.6874C41.735 14.6874 41.1289 14.5382 40.5986 14.2399C40.0683 13.9369 39.6516 13.4823 39.3486 12.8763C39.0456 12.2655 38.894 11.4961 38.894 10.568V3.63623H40.5702V10.4544C40.5702 11.2499 40.7927 11.8843 41.2378 12.3578C41.6876 12.8313 42.2605 13.068 42.9565 13.068C43.3732 13.068 43.797 12.9615 44.2278 12.7484C44.6635 12.5354 45.028 12.2087 45.3216 11.7683C45.6199 11.328 45.769 10.7669 45.769 10.0851Z" fill="black"/>
<path d="M31.3922 14.7725C30.4073 14.7725 29.5432 14.5382 28.7998 14.0694C28.0612 13.6007 27.4835 12.9449 27.0669 12.1021C26.6549 11.2593 26.449 10.2744 26.449 9.14755C26.449 8.01118 26.6549 7.01923 27.0669 6.1717C27.4835 5.32416 28.0612 4.66602 28.7998 4.19727C29.5432 3.72852 30.4073 3.49414 31.3922 3.49414C32.377 3.49414 33.2387 3.72852 33.9774 4.19727C34.7208 4.66602 35.2984 5.32416 35.7103 6.1717C36.127 7.01923 36.3353 8.01118 36.3353 9.14755C36.3353 10.2744 36.127 11.2593 35.7103 12.1021C35.2984 12.9449 34.7208 13.6007 33.9774 14.0694C33.2387 14.5382 32.377 14.7725 31.3922 14.7725ZM31.3922 13.2669C32.1403 13.2669 32.7558 13.0751 33.2387 12.6916C33.7217 12.3081 34.0792 11.8038 34.3112 11.1788C34.5432 10.5538 34.6592 9.87672 34.6592 9.14755C34.6592 8.41838 34.5432 7.73893 34.3112 7.1092C34.0792 6.47946 33.7217 5.97047 33.2387 5.58221C32.7558 5.19395 32.1403 4.99982 31.3922 4.99982C30.6441 4.99982 30.0285 5.19395 29.5456 5.58221C29.0626 5.97047 28.7051 6.47946 28.4731 7.1092C28.2411 7.73893 28.1251 8.41838 28.1251 9.14755C28.1251 9.87672 28.2411 10.5538 28.4731 11.1788C28.7051 11.8038 29.0626 12.3081 29.5456 12.6916C30.0285 13.0751 30.6441 13.2669 31.3922 13.2669Z" fill="black"/>
<path d="M14.7656 14.5455V0H16.4418V5.36932H16.5838C16.7069 5.17992 16.8774 4.93845 17.0952 4.64489C17.3177 4.34659 17.6349 4.08144 18.0469 3.84943C18.4635 3.61269 19.027 3.49432 19.7372 3.49432C20.6558 3.49432 21.4654 3.72396 22.1662 4.18324C22.867 4.64252 23.4138 5.29356 23.8068 6.13636C24.1998 6.97917 24.3963 7.97348 24.3963 9.11932C24.3963 10.2746 24.1998 11.276 23.8068 12.1236C23.4138 12.9664 22.8693 13.6198 22.1733 14.0838C21.4773 14.5431 20.6747 14.7727 19.7656 14.7727C19.0649 14.7727 18.5038 14.6567 18.0824 14.4247C17.661 14.188 17.3366 13.9205 17.1094 13.6222C16.8821 13.3191 16.7069 13.0682 16.5838 12.8693H16.3849V14.5455H14.7656ZM16.4134 9.09091C16.4134 9.91477 16.5341 10.6416 16.7756 11.2713C17.017 11.8963 17.3698 12.3864 17.8338 12.7415C18.2978 13.0919 18.866 13.267 19.5384 13.267C20.2391 13.267 20.8239 13.0824 21.2926 12.7131C21.7661 12.339 22.1212 11.8371 22.358 11.2074C22.5994 10.5729 22.7202 9.86742 22.7202 9.09091C22.7202 8.32386 22.6018 7.63258 22.3651 7.01705C22.133 6.39678 21.7803 5.90672 21.3068 5.54688C20.8381 5.18229 20.2486 5 19.5384 5C18.8565 5 18.2836 5.17282 17.8196 5.51847C17.3556 5.85938 17.0052 6.33759 16.7685 6.95312C16.5317 7.56392 16.4134 8.27652 16.4134 9.09091Z" fill="black"/>
<path d="M1.84659 14.5455H0L5.34091 0H7.15909L12.5 14.5455H10.6534L6.30682 2.30114H6.19318L1.84659 14.5455ZM2.52841 8.86364H9.97159V10.4261H2.52841V8.86364Z" fill="black"/>
</svg>
