<svg width="17" height="15" viewBox="0 0 17 15" fill="none" xmlns="http://www.w3.org/2000/svg">
<path d="M10.9521 6.47656C10.9521 4.00452 8.94856 2.00018 6.47656 2C4.00441 2 2 4.00441 2 6.47656C2.00018 8.94856 4.00452 10.9521 6.47656 10.9521C8.94845 10.952 10.952 8.94845 10.9521 6.47656ZM12.9521 6.47656C12.952 10.053 10.053 12.952 6.47656 12.9521C2.89995 12.9521 0.000182188 10.0531 0 6.47656C0 2.89984 2.89984 0 6.47656 0C10.0531 0.000182192 12.9521 2.89995 12.9521 6.47656Z" fill="white"/>
<path d="M10.0985 9.4945C10.4521 9.07031 11.0834 9.01304 11.5077 9.36657L15.8973 13.0248C16.3216 13.3783 16.3788 14.0097 16.0253 14.434C15.6717 14.8579 15.0412 14.9152 14.6171 14.5619L10.2264 10.9037C9.80225 10.5501 9.74497 9.91874 10.0985 9.4945Z" fill="white"/>
</svg>
