<svg width="203" height="48" viewBox="0 0 203 48" fill="none" xmlns="http://www.w3.org/2000/svg">
<path d="M201.688 19.4544L196.869 20.818C196.566 20.015 196.119 19.2347 195.528 18.4771C194.953 17.7044 194.165 17.068 193.165 16.568C192.165 16.068 190.884 15.818 189.324 15.818C187.188 15.818 185.407 16.3104 183.983 17.2953C182.574 18.265 181.869 19.4998 181.869 20.9998C181.869 22.3332 182.354 23.3862 183.324 24.1589C184.294 24.9316 185.809 25.5756 187.869 26.0907L193.051 27.3635C196.172 28.121 198.498 29.2801 200.028 30.8407C201.559 32.3862 202.324 34.3786 202.324 36.818C202.324 38.818 201.748 40.6059 200.597 42.1816C199.46 43.7574 197.869 44.9998 195.824 45.9089C193.778 46.818 191.4 47.2725 188.688 47.2725C185.127 47.2725 182.18 46.4998 179.847 44.9544C177.513 43.4089 176.036 41.1513 175.415 38.1816L180.506 36.9089C180.991 38.7877 181.907 40.1968 183.256 41.1362C184.619 42.0756 186.4 42.5453 188.597 42.5453C191.097 42.5453 193.081 42.015 194.551 40.9544C196.036 39.8786 196.778 38.5907 196.778 37.0907C196.778 35.8786 196.354 34.8635 195.506 34.0453C194.657 33.2119 193.354 32.5907 191.597 32.1816L185.778 30.818C182.581 30.0604 180.233 28.8862 178.733 27.2953C177.248 25.6892 176.506 23.6816 176.506 21.2725C176.506 19.3029 177.059 17.5604 178.165 16.0453C179.286 14.5301 180.809 13.3407 182.733 12.4771C184.672 11.6135 186.869 11.1816 189.324 11.1816C192.778 11.1816 195.491 11.9392 197.46 13.4544C199.445 14.9695 200.854 16.9695 201.688 19.4544Z" fill="black"/>
<path d="M152.955 47.2725C149.803 47.2725 147.038 46.5225 144.659 45.0225C142.295 43.5225 140.447 41.4241 139.114 38.7271C137.795 36.0301 137.136 32.8786 137.136 29.2725C137.136 25.6362 137.795 22.4619 139.114 19.7498C140.447 17.0377 142.295 14.9316 144.659 13.4316C147.038 11.9316 149.803 11.1816 152.955 11.1816C156.106 11.1816 158.864 11.9316 161.227 13.4316C163.606 14.9316 165.455 17.0377 166.773 19.7498C168.106 22.4619 168.773 25.6362 168.773 29.2725C168.773 32.8786 168.106 36.0301 166.773 38.7271C165.455 41.4241 163.606 43.5225 161.227 45.0225C158.864 46.5225 156.106 47.2725 152.955 47.2725ZM152.955 42.4544C155.348 42.4544 157.318 41.8407 158.864 40.6135C160.409 39.3862 161.553 37.7725 162.295 35.7725C163.038 33.7725 163.409 31.6059 163.409 29.2725C163.409 26.9392 163.038 24.765 162.295 22.7498C161.553 20.7347 160.409 19.1059 158.864 17.8635C157.318 16.621 155.348 15.9998 152.955 15.9998C150.561 15.9998 148.591 16.621 147.045 17.8635C145.5 19.1059 144.356 20.7347 143.614 22.7498C142.871 24.765 142.5 26.9392 142.5 29.2725C142.5 31.6059 142.871 33.7725 143.614 35.7725C144.356 37.7725 145.5 39.3862 147.045 40.6135C148.591 41.8407 150.561 42.4544 152.955 42.4544Z" fill="black"/>
<path d="M131.08 11.6363V16.1818H112.989V11.6363H131.08ZM118.261 3.27271H123.625V36.5454C123.625 38.0606 123.845 39.1969 124.284 39.9545C124.739 40.6969 125.314 41.1969 126.011 41.4545C126.724 41.6969 127.474 41.8182 128.261 41.8182C128.852 41.8182 129.337 41.7879 129.716 41.7272C130.095 41.6515 130.398 41.5909 130.625 41.5454L131.716 46.3636C131.352 46.5 130.845 46.6363 130.193 46.7727C129.542 46.9242 128.716 47 127.716 47C126.201 47 124.716 46.6742 123.261 46.0227C121.822 45.3712 120.625 44.3788 119.67 43.0454C118.731 41.7121 118.261 40.0303 118.261 38V3.27271Z" fill="black"/>
<path d="M91.892 47.2725C88.7405 47.2725 85.9754 46.5225 83.5966 45.0225C81.233 43.5225 79.3845 41.4241 78.0511 38.7271C76.733 36.0301 76.0739 32.8786 76.0739 29.2725C76.0739 25.6362 76.733 22.4619 78.0511 19.7498C79.3845 17.0377 81.233 14.9316 83.5966 13.4316C85.9754 11.9316 88.7405 11.1816 91.892 11.1816C95.0436 11.1816 97.8011 11.9316 100.165 13.4316C102.544 14.9316 104.392 17.0377 105.71 19.7498C107.044 22.4619 107.71 25.6362 107.71 29.2725C107.71 32.8786 107.044 36.0301 105.71 38.7271C104.392 41.4241 102.544 43.5225 100.165 45.0225C97.8011 46.5225 95.0436 47.2725 91.892 47.2725ZM91.892 42.4544C94.286 42.4544 96.2557 41.8407 97.8011 40.6135C99.3466 39.3862 100.491 37.7725 101.233 35.7725C101.975 33.7725 102.347 31.6059 102.347 29.2725C102.347 26.9392 101.975 24.765 101.233 22.7498C100.491 20.7347 99.3466 19.1059 97.8011 17.8635C96.2557 16.621 94.286 15.9998 91.892 15.9998C89.4981 15.9998 87.5284 16.621 85.983 17.8635C84.4375 19.1059 83.2936 20.7347 82.5511 22.7498C81.8087 24.765 81.4375 26.9392 81.4375 29.2725C81.4375 31.6059 81.8087 33.7725 82.5511 35.7725C83.2936 37.7725 84.4375 39.3862 85.983 40.6135C87.5284 41.8407 89.4981 42.4544 91.892 42.4544Z" fill="black"/>
<path d="M45.2614 25.5455V46.5455H39.8977V0H45.2614V17.0909H45.7159C46.5341 15.2879 47.7613 13.8561 49.3977 12.7955C51.0492 11.7197 53.2462 11.1818 55.9886 11.1818C58.3674 11.1818 60.4507 11.6591 62.2386 12.6136C64.0265 13.553 65.4129 15 66.3977 16.9545C67.3977 18.8939 67.8977 21.3636 67.8977 24.3636V46.5455H62.5341V24.7273C62.5341 21.9545 61.8144 19.8106 60.375 18.2955C58.9507 16.7652 56.9735 16 54.4432 16C52.6856 16 51.1098 16.3712 49.7159 17.1136C48.3371 17.8561 47.2462 18.9394 46.4432 20.3636C45.6553 21.7879 45.2614 23.5152 45.2614 25.5455Z" fill="black"/>
<path d="M0 46.5455V0H15.7273C19.3788 0 22.3636 0.659091 24.6818 1.97727C27.0152 3.2803 28.7424 5.04546 29.8636 7.27273C30.9848 9.5 31.5455 11.9848 31.5455 14.7273C31.5455 17.4697 30.9848 19.9621 29.8636 22.2045C28.7576 24.447 27.0455 26.2348 24.7273 27.5682C22.4091 28.8864 19.4394 29.5455 15.8182 29.5455H4.54545V24.5455H15.6364C18.1364 24.5455 20.1439 24.1136 21.6591 23.25C23.1742 22.3864 24.2727 21.2197 24.9545 19.75C25.6515 18.2652 26 16.5909 26 14.7273C26 12.8636 25.6515 11.197 24.9545 9.72727C24.2727 8.25758 23.1667 7.10606 21.6364 6.27273C20.1061 5.42424 18.0758 5 15.5454 5H5.63636V46.5455H0Z" fill="black"/>
</svg>
