<svg width="191" height="74" viewBox="0 0 191 74" fill="none" xmlns="http://www.w3.org/2000/svg">
<path d="M0 0H191V74H0V0Z" fill="white"/>
<path d="M62 36.5C62 51.1355 50.3594 63 36 63C21.6406 63 10 51.1355 10 36.5C10 21.8645 21.6406 10 36 10C50.3594 10 62 21.8645 62 36.5Z" fill="#E6E6E6"/>
<path d="M121.448 43V32.0909H123.067V33.7386H123.181C123.38 33.1988 123.74 32.7608 124.261 32.4247C124.781 32.0885 125.369 31.9204 126.022 31.9204C126.145 31.9204 126.299 31.9228 126.484 31.9275C126.668 31.9322 126.808 31.9394 126.903 31.9488V33.6534C126.846 33.6392 126.716 33.6179 126.512 33.5894C126.313 33.5563 126.103 33.5397 125.88 33.5397C125.35 33.5397 124.876 33.651 124.46 33.8735C124.048 34.0913 123.721 34.3944 123.479 34.7826C123.243 35.1661 123.124 35.6041 123.124 36.0965V43H121.448Z" fill="black"/>
<path d="M114.381 43.2271C113.33 43.2271 112.424 42.9951 111.661 42.5311C110.904 42.0624 110.319 41.409 109.907 40.5709C109.5 39.7281 109.296 38.748 109.296 37.6305C109.296 36.5131 109.5 35.5283 109.907 34.676C110.319 33.819 110.892 33.1514 111.626 32.6732C112.364 32.1902 113.226 31.9487 114.211 31.9487C114.779 31.9487 115.34 32.0434 115.894 32.2328C116.448 32.4222 116.952 32.73 117.407 33.1561C117.862 33.5775 118.224 34.1362 118.494 34.8323C118.764 35.5283 118.898 36.3853 118.898 37.4033V38.1135H110.489V36.6646H117.194C117.194 36.0491 117.071 35.4999 116.825 35.0169C116.583 34.534 116.237 34.1528 115.788 33.8734C115.343 33.5941 114.817 33.4544 114.211 33.4544C113.543 33.4544 112.966 33.6201 112.478 33.9516C111.995 34.2783 111.623 34.7044 111.363 35.23C111.103 35.7555 110.972 36.319 110.972 36.9203V37.8862C110.972 38.7101 111.114 39.4085 111.398 39.9814C111.687 40.5496 112.087 40.9828 112.599 41.2811C113.11 41.5747 113.704 41.7215 114.381 41.7215C114.822 41.7215 115.219 41.6599 115.575 41.5368C115.934 41.409 116.245 41.2196 116.505 40.9686C116.765 40.7129 116.967 40.3957 117.109 40.0169L118.728 40.4715C118.558 41.0207 118.271 41.5037 117.869 41.9203C117.466 42.3323 116.969 42.6542 116.377 42.8862C115.785 43.1135 115.12 43.2271 114.381 43.2271Z" fill="black"/>
<path d="M107.086 34.534L105.58 34.9601C105.485 34.7091 105.346 34.4653 105.161 34.2286C104.981 33.9871 104.735 33.7882 104.422 33.632C104.11 33.4757 103.71 33.3976 103.222 33.3976C102.554 33.3976 101.998 33.5515 101.553 33.8592C101.113 34.1623 100.892 34.5482 100.892 35.0169C100.892 35.4336 101.044 35.7627 101.347 36.0041C101.65 36.2456 102.123 36.4468 102.767 36.6078L104.387 37.0055C105.362 37.2423 106.089 37.6045 106.567 38.0922C107.045 38.5752 107.284 39.1978 107.284 39.9601C107.284 40.5851 107.105 41.1438 106.745 41.6362C106.39 42.1287 105.892 42.5169 105.253 42.801C104.614 43.0851 103.871 43.2271 103.023 43.2271C101.91 43.2271 100.989 42.9857 100.26 42.5027C99.5311 42.0198 99.0695 41.3143 98.8754 40.3862L100.466 39.9885C100.618 40.5756 100.904 41.016 101.326 41.3095C101.752 41.6031 102.308 41.7499 102.995 41.7499C103.776 41.7499 104.396 41.5841 104.855 41.2527C105.319 40.9165 105.552 40.5141 105.552 40.0453C105.552 39.6665 105.419 39.3493 105.154 39.0936C104.889 38.8332 104.481 38.6391 103.932 38.5112L102.114 38.0851C101.115 37.8484 100.381 37.4814 99.9123 36.9842C99.4483 36.4823 99.2163 35.855 99.2163 35.1021C99.2163 34.4866 99.3891 33.9421 99.7347 33.4686C100.085 32.9951 100.561 32.6234 101.162 32.3536C101.768 32.0837 102.455 31.9487 103.222 31.9487C104.302 31.9487 105.149 32.1855 105.765 32.659C106.385 33.1324 106.825 33.7574 107.086 34.534Z" fill="black"/>
<path d="M94.3068 28.4546H96.0682V38.0853C96.0682 39.0796 95.8338 39.9674 95.365 40.7486C94.901 41.5251 94.2453 42.1383 93.3977 42.5881C92.5502 43.0332 91.5559 43.2557 90.4148 43.2557C89.2737 43.2557 88.2793 43.0332 87.4318 42.5881C86.5843 42.1383 85.9261 41.5251 85.4574 40.7486C84.9934 39.9674 84.7614 39.0796 84.7614 38.0853V28.4546H86.5227V37.9432C86.5227 38.6535 86.679 39.2856 86.9915 39.8395C87.304 40.3888 87.749 40.822 88.3267 41.1392C88.9091 41.4517 89.6051 41.608 90.4148 41.608C91.2244 41.608 91.9204 41.4517 92.5028 41.1392C93.0852 40.822 93.5303 40.3888 93.8381 39.8395C94.1506 39.2856 94.3068 38.6535 94.3068 37.9432V28.4546Z" fill="black"/>
</svg>
