<svg width="121" height="10" viewBox="0 0 121 10" fill="none" xmlns="http://www.w3.org/2000/svg">
<path d="M118.083 0.599609C118.523 0.599609 118.906 0.669609 119.233 0.809609C119.56 0.949609 119.813 1.14961 119.993 1.40961C120.18 1.66961 120.273 1.97961 120.273 2.33961C120.273 2.72628 120.187 3.04961 120.013 3.30961C119.847 3.56294 119.62 3.75628 119.333 3.88961C119.053 4.02294 118.74 4.10961 118.393 4.14961V5.21961H117.563V3.71961C118.05 3.64628 118.427 3.55628 118.693 3.44961C118.967 3.34294 119.157 3.20961 119.263 3.04961C119.377 2.88961 119.433 2.69294 119.433 2.45961C119.433 2.22628 119.38 2.02628 119.273 1.85961C119.173 1.69294 119.02 1.56628 118.813 1.47961C118.606 1.39294 118.343 1.34961 118.023 1.34961C117.583 1.34961 117.223 1.47294 116.943 1.71961C116.67 1.95961 116.506 2.28961 116.453 2.70961L115.743 2.29961C115.816 1.95961 115.956 1.66294 116.163 1.40961C116.376 1.14961 116.643 0.949609 116.963 0.809609C117.29 0.669609 117.663 0.599609 118.083 0.599609ZM117.963 6.09961C118.156 6.09961 118.313 6.15961 118.433 6.27961C118.553 6.39961 118.613 6.55628 118.613 6.74961C118.613 6.94294 118.553 7.09961 118.433 7.21961C118.313 7.33961 118.156 7.39961 117.963 7.39961C117.77 7.39961 117.613 7.33961 117.493 7.21961C117.373 7.09961 117.313 6.94294 117.313 6.74961C117.313 6.55628 117.373 6.39961 117.493 6.27961C117.613 6.15961 117.77 6.09961 117.963 6.09961Z" fill="#555555"/>
<path d="M115.171 1.37988L115.351 2.08988C115.344 2.08988 115.334 2.08988 115.321 2.08988C115.307 2.08988 115.294 2.08988 115.281 2.08988C114.954 2.08988 114.701 2.15655 114.521 2.28988C114.347 2.41655 114.261 2.62322 114.261 2.90988L113.771 2.65988C113.771 2.39988 113.831 2.17322 113.951 1.97988C114.071 1.78655 114.234 1.63988 114.441 1.53988C114.647 1.43322 114.874 1.37988 115.121 1.37988C115.127 1.37988 115.134 1.37988 115.141 1.37988C115.154 1.37988 115.164 1.37988 115.171 1.37988ZM113.651 6.65988C114.124 6.65988 114.494 6.76988 114.761 6.98988C115.027 7.20322 115.161 7.48988 115.161 7.84988C115.161 8.17655 115.051 8.45988 114.831 8.69988C114.617 8.93988 114.327 9.12322 113.961 9.24988C113.601 9.38322 113.194 9.44988 112.741 9.44988C111.954 9.44988 111.364 9.31655 110.971 9.04988C110.584 8.78322 110.391 8.46322 110.391 8.08988C110.391 7.82322 110.477 7.58322 110.651 7.36988C110.831 7.16322 111.131 7.04655 111.551 7.01988L111.481 7.16988C111.254 7.10988 111.061 7.00988 110.901 6.86988C110.747 6.72322 110.671 6.51322 110.671 6.23988C110.671 5.96655 110.771 5.73322 110.971 5.53988C111.177 5.33988 111.481 5.21655 111.881 5.16988L112.411 5.43988H112.311C111.984 5.47322 111.751 5.55655 111.611 5.68988C111.477 5.81655 111.411 5.95655 111.411 6.10988C111.411 6.29655 111.477 6.43655 111.611 6.52988C111.751 6.61655 111.944 6.65988 112.191 6.65988H113.651ZM112.731 8.77988C113.117 8.77988 113.434 8.73988 113.681 8.65988C113.934 8.57988 114.121 8.47655 114.241 8.34988C114.361 8.22322 114.421 8.08655 114.421 7.93988C114.421 7.75988 114.347 7.61655 114.201 7.50988C114.061 7.40322 113.804 7.34988 113.431 7.34988H111.891C111.677 7.34988 111.497 7.40322 111.351 7.50988C111.204 7.62322 111.131 7.77655 111.131 7.96988C111.131 8.21655 111.271 8.41322 111.551 8.55988C111.837 8.70655 112.231 8.77988 112.731 8.77988ZM112.661 2.19988C113.061 2.19988 113.414 2.27322 113.721 2.41988C114.034 2.55988 114.277 2.75655 114.451 3.00988C114.624 3.26322 114.711 3.55655 114.711 3.88988C114.711 4.21655 114.624 4.50988 114.451 4.76988C114.277 5.02322 114.034 5.22322 113.721 5.36988C113.414 5.50988 113.061 5.57988 112.661 5.57988C112.001 5.57988 111.494 5.42322 111.141 5.10988C110.787 4.78988 110.611 4.38322 110.611 3.88988C110.611 3.55655 110.697 3.26322 110.871 3.00988C111.051 2.75655 111.294 2.55988 111.601 2.41988C111.907 2.27322 112.261 2.19988 112.661 2.19988ZM112.661 2.84988C112.314 2.84988 112.024 2.94655 111.791 3.13988C111.557 3.32655 111.441 3.57655 111.441 3.88988C111.441 4.19655 111.557 4.44655 111.791 4.63988C112.024 4.83322 112.314 4.92988 112.661 4.92988C113.007 4.92988 113.297 4.83322 113.531 4.63988C113.764 4.44655 113.881 4.19655 113.881 3.88988C113.881 3.57655 113.764 3.32655 113.531 3.13988C113.297 2.94655 113.007 2.84988 112.661 2.84988Z" fill="#555555"/>
<path d="M104.77 7.29971V2.29971H105.47L105.54 3.41971L105.41 3.30971C105.516 3.04304 105.66 2.82971 105.84 2.66971C106.02 2.50304 106.226 2.38304 106.46 2.30971C106.7 2.23637 106.946 2.19971 107.2 2.19971C107.56 2.19971 107.886 2.26971 108.18 2.40971C108.473 2.54304 108.706 2.74971 108.88 3.02971C109.06 3.30971 109.15 3.66637 109.15 4.09971V7.29971H108.35V4.37971C108.35 3.82637 108.23 3.44304 107.99 3.22971C107.756 3.00971 107.466 2.89971 107.12 2.89971C106.88 2.89971 106.64 2.95637 106.4 3.06971C106.16 3.18304 105.96 3.36637 105.8 3.61971C105.646 3.87304 105.57 4.21304 105.57 4.63971V7.29971H104.77Z" fill="#555555"/>
<path d="M102.513 1.33965C102.333 1.33965 102.186 1.28632 102.073 1.17965C101.966 1.06632 101.913 0.919649 101.913 0.739649C101.913 0.559649 101.966 0.416315 102.073 0.309648C102.186 0.196315 102.333 0.139648 102.513 0.139648C102.693 0.139648 102.836 0.196315 102.943 0.309648C103.056 0.416315 103.113 0.559649 103.113 0.739649C103.113 0.919649 103.056 1.06632 102.943 1.17965C102.836 1.28632 102.693 1.33965 102.513 1.33965ZM102.913 2.29965V7.29965H102.113V2.29965H102.913Z" fill="#555555"/>
<path d="M97.7937 7.4C97.3803 7.4 97.0003 7.29667 96.6537 7.09C96.307 6.88333 96.0303 6.58667 95.8237 6.2C95.617 5.80667 95.5137 5.34 95.5137 4.8C95.5137 4.24667 95.6237 3.77667 95.8437 3.39C96.0637 3.00333 96.3537 2.71 96.7137 2.51C97.0737 2.30333 97.4603 2.2 97.8737 2.2C98.287 2.2 98.6437 2.30667 98.9437 2.52C99.2503 2.73333 99.4537 3.01667 99.5537 3.37L99.4537 3.44V0H100.254V7.3H99.5537L99.4837 6.09L99.5937 6.03C99.547 6.32333 99.4337 6.57333 99.2537 6.78C99.0803 6.98 98.8637 7.13333 98.6037 7.24C98.3503 7.34667 98.0803 7.4 97.7937 7.4ZM97.8737 6.7C98.1937 6.7 98.4703 6.62 98.7037 6.46C98.9437 6.3 99.127 6.07333 99.2537 5.78C99.387 5.48 99.4537 5.13 99.4537 4.73C99.4537 4.35 99.387 4.02333 99.2537 3.75C99.127 3.47667 98.947 3.26667 98.7137 3.12C98.487 2.97333 98.2203 2.9 97.9137 2.9C97.407 2.9 97.0137 3.07333 96.7337 3.42C96.4537 3.76667 96.3137 4.22667 96.3137 4.8C96.3137 5.37333 96.4503 5.83333 96.7237 6.18C96.997 6.52667 97.3803 6.7 97.8737 6.7Z" fill="#555555"/>
<path d="M93.0994 4.06971C93.0994 3.69637 92.9994 3.40971 92.7994 3.20971C92.5994 3.00304 92.316 2.89971 91.9494 2.89971C91.6027 2.89971 91.3094 2.97637 91.0694 3.12971C90.8294 3.27637 90.6527 3.51637 90.5394 3.84971L89.8894 3.44971C90.0227 3.07637 90.2694 2.77637 90.6294 2.54971C90.9894 2.31637 91.436 2.19971 91.9694 2.19971C92.3294 2.19971 92.656 2.26304 92.9494 2.38971C93.2427 2.50971 93.4727 2.69637 93.6394 2.94971C93.8127 3.19637 93.8994 3.51637 93.8994 3.90971V6.32971C93.8994 6.56971 94.026 6.68971 94.2794 6.68971C94.406 6.68971 94.5294 6.67304 94.6494 6.63971L94.6094 7.26971C94.476 7.33637 94.3027 7.36971 94.0894 7.36971C93.896 7.36971 93.7227 7.33304 93.5694 7.25971C93.416 7.18637 93.296 7.07637 93.2094 6.92971C93.1227 6.77637 93.0794 6.58637 93.0794 6.35971V6.25971L93.2794 6.28971C93.1994 6.54971 93.0627 6.76304 92.8694 6.92971C92.676 7.08971 92.4594 7.20971 92.2194 7.28971C91.9794 7.36304 91.7427 7.39971 91.5094 7.39971C91.216 7.39971 90.9427 7.34971 90.6894 7.24971C90.436 7.14971 90.2327 6.99971 90.0794 6.79971C89.9327 6.59304 89.8594 6.33971 89.8594 6.03971C89.8594 5.66637 89.9827 5.35971 90.2294 5.11971C90.4827 4.87304 90.8327 4.70637 91.2794 4.61971L93.2594 4.22971V4.88971L91.6494 5.21971C91.3227 5.28637 91.0794 5.37971 90.9194 5.49971C90.7594 5.61971 90.6794 5.78637 90.6794 5.99971C90.6794 6.20637 90.7594 6.37637 90.9194 6.50971C91.086 6.63637 91.3194 6.69971 91.6194 6.69971C91.8127 6.69971 91.996 6.67637 92.1694 6.62971C92.3494 6.57637 92.5094 6.49971 92.6494 6.39971C92.7894 6.29304 92.8994 6.16304 92.9794 6.00971C93.0594 5.84971 93.0994 5.66304 93.0994 5.44971V4.06971Z" fill="#555555"/>
<path d="M86.2535 2.19971C86.7268 2.19971 87.1435 2.30304 87.5035 2.50971C87.8702 2.71637 88.1568 3.01637 88.3635 3.40971C88.5702 3.79637 88.6735 4.25971 88.6735 4.79971C88.6735 5.33971 88.5702 5.80637 88.3635 6.19971C88.1568 6.58637 87.8702 6.88304 87.5035 7.08971C87.1435 7.29637 86.7268 7.39971 86.2535 7.39971C85.7868 7.39971 85.3702 7.29637 85.0035 7.08971C84.6368 6.88304 84.3502 6.58637 84.1435 6.19971C83.9368 5.80637 83.8335 5.33971 83.8335 4.79971C83.8335 4.25971 83.9368 3.79637 84.1435 3.40971C84.3502 3.01637 84.6368 2.71637 85.0035 2.50971C85.3702 2.30304 85.7868 2.19971 86.2535 2.19971ZM86.2535 2.88971C85.9135 2.88971 85.6235 2.96637 85.3835 3.11971C85.1435 3.27304 84.9568 3.49304 84.8235 3.77971C84.6968 4.05971 84.6335 4.39971 84.6335 4.79971C84.6335 5.19304 84.6968 5.53304 84.8235 5.81971C84.9568 6.10637 85.1435 6.32637 85.3835 6.47971C85.6235 6.63304 85.9135 6.70971 86.2535 6.70971C86.5935 6.70971 86.8835 6.63304 87.1235 6.47971C87.3635 6.32637 87.5468 6.10637 87.6735 5.81971C87.8068 5.53304 87.8735 5.19304 87.8735 4.79971C87.8735 4.39971 87.8068 4.05971 87.6735 3.77971C87.5468 3.49304 87.3635 3.27304 87.1235 3.11971C86.8835 2.96637 86.5935 2.88971 86.2535 2.88971Z" fill="#555555"/>
<path d="M81.8869 0V6.03C81.8869 6.28333 81.9336 6.46 82.0269 6.56C82.1202 6.65333 82.2702 6.7 82.4769 6.7C82.6102 6.7 82.7202 6.69 82.8069 6.67C82.8936 6.65 83.0102 6.61333 83.1569 6.56L83.0269 7.26C82.9202 7.30667 82.8036 7.34 82.6769 7.36C82.5503 7.38667 82.4202 7.4 82.2869 7.4C81.8802 7.4 81.5769 7.29 81.3769 7.07C81.1836 6.85 81.0869 6.51333 81.0869 6.06V0H81.8869Z" fill="#555555"/>
<path d="M74.8574 9.39971V2.29971H75.5574L75.6274 3.51971L75.5174 3.37971C75.6041 3.14637 75.7341 2.94304 75.9074 2.76971C76.0808 2.58971 76.2908 2.44971 76.5374 2.34971C76.7841 2.24971 77.0508 2.19971 77.3374 2.19971C77.7441 2.19971 78.1174 2.30304 78.4574 2.50971C78.8041 2.71637 79.0808 3.01304 79.2874 3.39971C79.4941 3.78637 79.5974 4.25304 79.5974 4.79971C79.5974 5.33971 79.4908 5.80637 79.2774 6.19971C79.0708 6.58637 78.7941 6.88304 78.4474 7.08971C78.1008 7.29637 77.7208 7.39971 77.3074 7.39971C76.8941 7.39971 76.5308 7.29971 76.2174 7.09971C75.9108 6.89304 75.6908 6.63304 75.5574 6.31971L75.6574 6.16971V9.39971H74.8574ZM77.2274 6.69971C77.7208 6.69971 78.1041 6.52637 78.3774 6.17971C78.6574 5.83304 78.7974 5.37304 78.7974 4.79971C78.7974 4.22637 78.6608 3.76637 78.3874 3.41971C78.1208 3.07304 77.7441 2.89971 77.2574 2.89971C76.9374 2.89971 76.6574 2.97971 76.4174 3.13971C76.1774 3.29304 75.9908 3.51304 75.8574 3.79971C75.7241 4.07971 75.6574 4.41304 75.6574 4.79971C75.6574 5.17971 75.7208 5.51304 75.8474 5.79971C75.9808 6.08637 76.1641 6.30971 76.3974 6.46971C76.6374 6.62304 76.9141 6.69971 77.2274 6.69971Z" fill="#555555"/>
<path d="M70.4953 7.39981C70.1753 7.39981 69.8719 7.3398 69.5853 7.2198C69.3053 7.0998 69.0753 6.90647 68.8953 6.6398C68.7219 6.36647 68.6353 6.01314 68.6353 5.5798V2.2998H69.4353V5.3698C69.4353 5.87647 69.5453 6.22647 69.7653 6.4198C69.9853 6.60647 70.2953 6.6998 70.6953 6.6998C70.8819 6.6998 71.0653 6.6698 71.2453 6.6098C71.4253 6.54314 71.5853 6.44314 71.7253 6.3098C71.8719 6.16981 71.9853 5.99314 72.0653 5.7798C72.1519 5.56647 72.1953 5.31314 72.1953 5.0198V2.2998H72.9953V7.2998H72.2953L72.2453 6.5398C72.0719 6.8398 71.8353 7.0598 71.5353 7.1998C71.2419 7.33314 70.8953 7.39981 70.4953 7.39981Z" fill="#555555"/>
<path d="M60.9152 7.39981C60.5952 7.39981 60.2918 7.3398 60.0052 7.2198C59.7252 7.0998 59.4952 6.90647 59.3152 6.6398C59.1418 6.36647 59.0552 6.01314 59.0552 5.5798V2.2998H59.8552V5.3698C59.8552 5.87647 59.9652 6.22647 60.1852 6.4198C60.4052 6.60647 60.7152 6.6998 61.1152 6.6998C61.3018 6.6998 61.4852 6.6698 61.6652 6.6098C61.8452 6.54314 62.0052 6.44314 62.1452 6.3098C62.2918 6.16981 62.4052 5.99314 62.4852 5.7798C62.5718 5.56647 62.6152 5.31314 62.6152 5.0198V2.2998H63.4152V7.2998H62.7152L62.6652 6.5398C62.4918 6.8398 62.2552 7.0598 61.9552 7.1998C61.6618 7.33314 61.3152 7.39981 60.9152 7.39981Z" fill="#555555"/>
<path d="M55.1793 2.19971C55.6526 2.19971 56.0693 2.30304 56.4293 2.50971C56.7959 2.71637 57.0826 3.01637 57.2893 3.40971C57.4959 3.79637 57.5993 4.25971 57.5993 4.79971C57.5993 5.33971 57.4959 5.80637 57.2893 6.19971C57.0826 6.58637 56.7959 6.88304 56.4293 7.08971C56.0693 7.29637 55.6526 7.39971 55.1793 7.39971C54.7126 7.39971 54.2959 7.29637 53.9293 7.08971C53.5626 6.88304 53.2759 6.58637 53.0693 6.19971C52.8626 5.80637 52.7593 5.33971 52.7593 4.79971C52.7593 4.25971 52.8626 3.79637 53.0693 3.40971C53.2759 3.01637 53.5626 2.71637 53.9293 2.50971C54.2959 2.30304 54.7126 2.19971 55.1793 2.19971ZM55.1793 2.88971C54.8393 2.88971 54.5493 2.96637 54.3093 3.11971C54.0693 3.27304 53.8826 3.49304 53.7493 3.77971C53.6226 4.05971 53.5593 4.39971 53.5593 4.79971C53.5593 5.19304 53.6226 5.53304 53.7493 5.81971C53.8826 6.10637 54.0693 6.32637 54.3093 6.47971C54.5493 6.63304 54.8393 6.70971 55.1793 6.70971C55.5193 6.70971 55.8093 6.63304 56.0493 6.47971C56.2893 6.32637 56.4726 6.10637 56.5993 5.81971C56.7326 5.53304 56.7993 5.19304 56.7993 4.79971C56.7993 4.39971 56.7326 4.05971 56.5993 3.77971C56.4726 3.49304 56.2893 3.27304 56.0493 3.11971C55.8093 2.96637 55.5193 2.88971 55.1793 2.88971Z" fill="#555555"/>
<path d="M52.063 2.2998L49.713 8.1398C49.5863 8.46647 49.4463 8.72314 49.293 8.90981C49.1463 9.10314 48.9796 9.23981 48.793 9.31981C48.613 9.40647 48.403 9.4498 48.163 9.4498C47.9363 9.4498 47.7263 9.41647 47.533 9.3498C47.3463 9.2898 47.1796 9.20647 47.033 9.0998L47.253 8.39981C47.3863 8.5198 47.5263 8.60647 47.673 8.6598C47.8263 8.7198 47.9763 8.7498 48.123 8.7498C48.2963 8.7498 48.4596 8.69647 48.613 8.5898C48.7663 8.48314 48.9063 8.26647 49.033 7.93981L49.293 7.2898L48.793 6.0998L47.203 2.2998H48.113L49.363 5.5598L49.673 6.4498L50.033 5.4598L51.203 2.2998H52.063Z" fill="#555555"/>
<path d="M41.1172 7.39971C40.6439 7.39971 40.2206 7.29637 39.8472 7.08971C39.4806 6.88304 39.1939 6.58637 38.9872 6.19971C38.7806 5.80637 38.6772 5.33971 38.6772 4.79971C38.6772 4.25971 38.7806 3.79637 38.9872 3.40971C39.1939 3.01637 39.4772 2.71637 39.8372 2.50971C40.1972 2.30304 40.6072 2.19971 41.0672 2.19971C41.5339 2.19971 41.9306 2.29971 42.2572 2.49971C42.5906 2.69971 42.8439 2.97304 43.0172 3.31971C43.1906 3.65971 43.2772 4.04304 43.2772 4.46971C43.2772 4.58304 43.2739 4.68637 43.2672 4.77971C43.2606 4.87304 43.2506 4.95637 43.2372 5.02971H39.1972V4.31971H42.8872L42.4772 4.39971C42.4772 3.91971 42.3439 3.54971 42.0772 3.28971C41.8172 3.02971 41.4739 2.89971 41.0472 2.89971C40.7206 2.89971 40.4372 2.97637 40.1972 3.12971C39.9639 3.27637 39.7806 3.49304 39.6472 3.77971C39.5206 4.05971 39.4572 4.39971 39.4572 4.79971C39.4572 5.19304 39.5239 5.53304 39.6572 5.81971C39.7906 6.10637 39.9772 6.32637 40.2172 6.47971C40.4639 6.62637 40.7572 6.69971 41.0972 6.69971C41.4639 6.69971 41.7606 6.62971 41.9872 6.48971C42.2206 6.34971 42.4072 6.15971 42.5472 5.91971L43.1772 6.28971C43.0506 6.51637 42.8872 6.71304 42.6872 6.87971C42.4939 7.04637 42.2639 7.17637 41.9972 7.26971C41.7372 7.35637 41.4439 7.39971 41.1172 7.39971Z" fill="#555555"/>
<path d="M35.1016 7.29971V2.29971H35.7516L35.8616 3.11971C36.0016 2.81304 36.2049 2.58304 36.4716 2.42971C36.7449 2.27637 37.0749 2.19971 37.4616 2.19971C37.5482 2.19971 37.6416 2.20637 37.7416 2.21971C37.8482 2.23304 37.9382 2.25971 38.0116 2.29971L37.8716 3.02971C37.7982 3.00304 37.7182 2.98304 37.6316 2.96971C37.5449 2.95637 37.4216 2.94971 37.2616 2.94971C37.0549 2.94971 36.8449 3.00971 36.6316 3.12971C36.4249 3.24971 36.2516 3.43304 36.1116 3.67971C35.9716 3.91971 35.9016 4.22637 35.9016 4.59971V7.29971H35.1016Z" fill="#555555"/>
<path d="M32.3572 4.06971C32.3572 3.69637 32.2572 3.40971 32.0572 3.20971C31.8572 3.00304 31.5739 2.89971 31.2072 2.89971C30.8605 2.89971 30.5672 2.97637 30.3272 3.12971C30.0872 3.27637 29.9105 3.51637 29.7972 3.84971L29.1472 3.44971C29.2805 3.07637 29.5272 2.77637 29.8872 2.54971C30.2472 2.31637 30.6939 2.19971 31.2272 2.19971C31.5872 2.19971 31.9139 2.26304 32.2072 2.38971C32.5005 2.50971 32.7305 2.69637 32.8972 2.94971C33.0705 3.19637 33.1572 3.51637 33.1572 3.90971V6.32971C33.1572 6.56971 33.2839 6.68971 33.5372 6.68971C33.6639 6.68971 33.7872 6.67304 33.9072 6.63971L33.8672 7.26971C33.7339 7.33637 33.5605 7.36971 33.3472 7.36971C33.1539 7.36971 32.9805 7.33304 32.8272 7.25971C32.6739 7.18637 32.5539 7.07637 32.4672 6.92971C32.3805 6.77637 32.3372 6.58637 32.3372 6.35971V6.25971L32.5372 6.28971C32.4572 6.54971 32.3205 6.76304 32.1272 6.92971C31.9339 7.08971 31.7172 7.20971 31.4772 7.28971C31.2372 7.36304 31.0005 7.39971 30.7672 7.39971C30.4739 7.39971 30.2005 7.34971 29.9472 7.24971C29.6939 7.14971 29.4905 6.99971 29.3372 6.79971C29.1905 6.59304 29.1172 6.33971 29.1172 6.03971C29.1172 5.66637 29.2405 5.35971 29.4872 5.11971C29.7405 4.87304 30.0905 4.70637 30.5372 4.61971L32.5172 4.22971V4.88971L30.9072 5.21971C30.5805 5.28637 30.3372 5.37971 30.1772 5.49971C30.0172 5.61971 29.9372 5.78637 29.9372 5.99971C29.9372 6.20637 30.0172 6.37637 30.1772 6.50971C30.3439 6.63637 30.5772 6.69971 30.8772 6.69971C31.0705 6.69971 31.2539 6.67637 31.4272 6.62971C31.6072 6.57637 31.7672 6.49971 31.9072 6.39971C32.0472 6.29304 32.1572 6.16304 32.2372 6.00971C32.3172 5.84971 32.3572 5.66304 32.3572 5.44971V4.06971Z" fill="#555555"/>
<path d="M23.0197 0.879883V5.91988C23.0197 6.16655 23.0897 6.34988 23.2297 6.46988C23.3697 6.58988 23.5497 6.64988 23.7697 6.64988C23.9631 6.64988 24.1297 6.61655 24.2697 6.54988C24.4097 6.48322 24.5364 6.39322 24.6497 6.27988L24.9297 6.94988C24.7764 7.08988 24.5931 7.19988 24.3797 7.27988C24.1731 7.35988 23.9331 7.39988 23.6597 7.39988C23.4064 7.39988 23.1697 7.35655 22.9497 7.26988C22.7297 7.17655 22.5531 7.03322 22.4197 6.83988C22.2931 6.63988 22.2264 6.37988 22.2197 6.05988V1.09988L23.0197 0.879883ZM24.8397 2.29988V2.98988H21.2197V2.29988H24.8397Z" fill="#555555"/>
<path d="M19.2908 4.06971C19.2908 3.69637 19.1908 3.40971 18.9908 3.20971C18.7908 3.00304 18.5074 2.89971 18.1408 2.89971C17.7941 2.89971 17.5008 2.97637 17.2608 3.12971C17.0208 3.27637 16.8441 3.51637 16.7308 3.84971L16.0808 3.44971C16.2141 3.07637 16.4608 2.77637 16.8208 2.54971C17.1808 2.31637 17.6274 2.19971 18.1608 2.19971C18.5208 2.19971 18.8474 2.26304 19.1408 2.38971C19.4341 2.50971 19.6641 2.69637 19.8308 2.94971C20.0041 3.19637 20.0908 3.51637 20.0908 3.90971V6.32971C20.0908 6.56971 20.2174 6.68971 20.4708 6.68971C20.5974 6.68971 20.7208 6.67304 20.8408 6.63971L20.8008 7.26971C20.6674 7.33637 20.4941 7.36971 20.2808 7.36971C20.0874 7.36971 19.9141 7.33304 19.7608 7.25971C19.6074 7.18637 19.4874 7.07637 19.4008 6.92971C19.3141 6.77637 19.2708 6.58637 19.2708 6.35971V6.25971L19.4708 6.28971C19.3908 6.54971 19.2541 6.76304 19.0608 6.92971C18.8674 7.08971 18.6508 7.20971 18.4108 7.28971C18.1708 7.36304 17.9341 7.39971 17.7008 7.39971C17.4074 7.39971 17.1341 7.34971 16.8808 7.24971C16.6274 7.14971 16.4241 6.99971 16.2708 6.79971C16.1241 6.59304 16.0508 6.33971 16.0508 6.03971C16.0508 5.66637 16.1741 5.35971 16.4208 5.11971C16.6741 4.87304 17.0241 4.70637 17.4708 4.61971L19.4508 4.22971V4.88971L17.8408 5.21971C17.5141 5.28637 17.2708 5.37971 17.1108 5.49971C16.9508 5.61971 16.8708 5.78637 16.8708 5.99971C16.8708 6.20637 16.9508 6.37637 17.1108 6.50971C17.2774 6.63637 17.5108 6.69971 17.8108 6.69971C18.0041 6.69971 18.1874 6.67637 18.3608 6.62971C18.5408 6.57637 18.7008 6.49971 18.8408 6.39971C18.9808 6.29304 19.0908 6.16304 19.1708 6.00971C19.2508 5.84971 19.2908 5.66304 19.2908 5.44971V4.06971Z" fill="#555555"/>
<path d="M10.1797 7.3V0H10.9797V3.05C11.153 2.75 11.383 2.53333 11.6697 2.4C11.9564 2.26667 12.2697 2.2 12.6097 2.2C12.9697 2.2 13.2964 2.27 13.5897 2.41C13.883 2.54333 14.1164 2.75 14.2897 3.03C14.4697 3.31 14.5597 3.66667 14.5597 4.1V7.3H13.7597V4.38C13.7597 3.82667 13.6397 3.44333 13.3997 3.23C13.1664 3.01 12.8764 2.9 12.5297 2.9C12.2897 2.9 12.0497 2.95667 11.8097 3.07C11.5697 3.18333 11.3697 3.37 11.2097 3.63C11.0564 3.88333 10.9797 4.22333 10.9797 4.65V7.3H10.1797Z" fill="#555555"/>
<path d="M1.95 7.29971L0 0.699707H0.83L2.46 6.56971L4.01 0.699707H4.92L6.47 6.58971L8.1 0.699707H8.89L6.95 7.29971H5.96L4.79 3.01971L4.45 1.52971H4.44L4.1 3.01971L2.94 7.29971H1.95Z" fill="#555555"/>
</svg>
