<svg width="97" height="14" viewBox="0 0 97 14" fill="none" xmlns="http://www.w3.org/2000/svg">
<path d="M92.1005 13.4C91.0472 13.4 90.1272 13.1933 89.3405 12.78C88.5672 12.3667 87.9672 11.7733 87.5405 11C87.1138 10.2267 86.9005 9.29333 86.9005 8.2C86.9005 7.10667 87.1138 6.17333 87.5405 5.4C87.9672 4.62667 88.5605 4.03333 89.3205 3.62C90.0939 3.20667 90.9739 3 91.9605 3C92.9739 3 93.8339 3.20667 94.5405 3.62C95.2472 4.02 95.7872 4.57333 96.1605 5.28C96.5338 5.97333 96.7205 6.76667 96.7205 7.66C96.7205 7.92667 96.7138 8.18 96.7005 8.42C96.6872 8.66 96.6672 8.87333 96.6405 9.06H88.6605V7.16H95.4405L94.1205 7.64C94.1205 6.8 93.9272 6.15333 93.5405 5.7C93.1672 5.24667 92.6338 5.02 91.9405 5.02C91.4338 5.02 90.9938 5.14 90.6205 5.38C90.2605 5.62 89.9872 5.98 89.8005 6.46C89.6138 6.92667 89.5205 7.52 89.5205 8.24C89.5205 8.94667 89.6205 9.53333 89.8205 10C90.0339 10.4533 90.3272 10.7933 90.7005 11.02C91.0872 11.2467 91.5472 11.36 92.0805 11.36C92.6672 11.36 93.1405 11.2467 93.5005 11.02C93.8605 10.7933 94.1405 10.48 94.3405 10.08L96.5205 10.92C96.3072 11.44 95.9805 11.8867 95.5405 12.26C95.1138 12.6333 94.6005 12.92 94.0005 13.12C93.4139 13.3067 92.7805 13.4 92.1005 13.4Z" fill="black"/>
<path d="M68.5542 13.2V3.2H71.0142L71.1142 5C71.4475 4.33333 71.9009 3.83333 72.4742 3.5C73.0609 3.16667 73.7075 3 74.4142 3C75.1342 3 75.7809 3.16667 76.3542 3.5C76.9409 3.83333 77.3809 4.32667 77.6742 4.98C77.8875 4.54 78.1742 4.17333 78.5342 3.88C78.8942 3.58667 79.2942 3.36667 79.7342 3.22C80.1742 3.07333 80.6209 3 81.0742 3C81.7275 3 82.3209 3.13333 82.8542 3.4C83.4009 3.66667 83.8342 4.06667 84.1542 4.6C84.4742 5.13333 84.6342 5.81333 84.6342 6.64V13.2H81.8942V7.18C81.8942 6.44667 81.7342 5.92667 81.4142 5.62C81.0942 5.31333 80.6809 5.16 80.1742 5.16C79.7742 5.16 79.4009 5.26 79.0542 5.46C78.7209 5.66 78.4542 5.96 78.2542 6.36C78.0675 6.74667 77.9742 7.23333 77.9742 7.82V13.2H75.2342V7.18C75.2342 6.44667 75.0675 5.92667 74.7342 5.62C74.4142 5.31333 74.0009 5.16 73.4942 5.16C73.1475 5.16 72.8009 5.25333 72.4542 5.44C72.1209 5.62667 71.8409 5.92 71.6142 6.32C71.4009 6.72 71.2942 7.24667 71.2942 7.9V13.2H68.5542Z" fill="black"/>
<path d="M62.7699 6.82C62.7699 6.24667 62.6032 5.8 62.2699 5.48C61.9499 5.16 61.5232 5 60.9899 5C60.4966 5 60.0632 5.12667 59.6899 5.38C59.3166 5.63333 59.0432 6.05333 58.8699 6.64L56.5299 5.92C56.7566 5.04 57.2499 4.33333 58.0099 3.8C58.7832 3.26667 59.8166 3 61.1099 3C61.9899 3 62.7566 3.14 63.4099 3.42C64.0632 3.68667 64.5699 4.09333 64.9299 4.64C65.3032 5.18667 65.4899 5.87333 65.4899 6.7V10.76C65.4899 11.2667 65.7299 11.52 66.2099 11.52C66.4366 11.52 66.6499 11.4867 66.8499 11.42L66.6899 13.12C66.3432 13.2933 65.9099 13.38 65.3899 13.38C64.9232 13.38 64.5032 13.3 64.1299 13.14C63.7566 12.98 63.4632 12.74 63.2499 12.42C63.0366 12.0867 62.9299 11.6733 62.9299 11.18V11.1L63.4099 11.02C63.3299 11.5267 63.1099 11.96 62.7499 12.32C62.3899 12.6667 61.9499 12.9333 61.4299 13.12C60.9232 13.3067 60.3966 13.4 59.8499 13.4C59.1699 13.4 58.5832 13.3 58.0899 13.1C57.5966 12.8867 57.2166 12.58 56.9499 12.18C56.6832 11.78 56.5499 11.2867 56.5499 10.7C56.5499 9.95333 56.7899 9.34667 57.2699 8.88C57.7499 8.4 58.4366 8.07333 59.3299 7.9L63.0899 7.14L63.0699 8.84L60.6699 9.32C60.2166 9.41333 59.8699 9.54 59.6299 9.7C59.4032 9.84667 59.2899 10.0933 59.2899 10.44C59.2899 10.7733 59.4099 11.0267 59.6499 11.2C59.9032 11.3733 60.2032 11.46 60.5499 11.46C60.8299 11.46 61.1032 11.4267 61.3699 11.36C61.6366 11.2933 61.8766 11.1867 62.0899 11.04C62.3032 10.8933 62.4699 10.6933 62.5899 10.44C62.7099 10.1867 62.7699 9.88 62.7699 9.52V6.82Z" fill="black"/>
<path d="M44.687 13.2V3.2H47.147L47.307 6.2L46.967 5.88C47.127 5.22667 47.3803 4.68667 47.727 4.26C48.0737 3.83333 48.4937 3.52 48.987 3.32C49.4937 3.10667 50.047 3 50.647 3C51.3403 3 51.9537 3.13333 52.487 3.4C53.0337 3.66667 53.4603 4.07333 53.767 4.62C54.087 5.15333 54.247 5.82667 54.247 6.64V13.2H51.507V7.42C51.507 6.56667 51.3403 5.98 51.007 5.66C50.6737 5.32667 50.2403 5.16 49.707 5.16C49.3337 5.16 48.967 5.25333 48.607 5.44C48.2603 5.61333 47.9737 5.9 47.747 6.3C47.5337 6.7 47.427 7.23333 47.427 7.9V13.2H44.687Z" fill="black"/>
<path d="M36.2495 13.2V3.2H38.6295L38.8095 5.16C39.0762 4.46667 39.4628 3.93333 39.9695 3.56C40.4895 3.18667 41.1362 3 41.9095 3C42.1362 3 42.3428 3.02 42.5295 3.06C42.7162 3.1 42.8695 3.15333 42.9895 3.22L42.6695 5.52C42.5362 5.46667 42.3695 5.42667 42.1695 5.4C41.9828 5.37333 41.7362 5.36 41.4295 5.36C41.0295 5.36 40.6428 5.46 40.2695 5.66C39.8962 5.84667 39.5895 6.14 39.3495 6.54C39.1095 6.92667 38.9895 7.42 38.9895 8.02V13.2H36.2495Z" fill="black"/>
<path d="M29.3075 13.4C28.2542 13.4 27.3342 13.1933 26.5475 12.78C25.7742 12.3667 25.1742 11.7733 24.7475 11C24.3209 10.2267 24.1075 9.29333 24.1075 8.2C24.1075 7.10667 24.3209 6.17333 24.7475 5.4C25.1742 4.62667 25.7675 4.03333 26.5275 3.62C27.3009 3.20667 28.1809 3 29.1675 3C30.1809 3 31.0409 3.20667 31.7475 3.62C32.4542 4.02 32.9942 4.57333 33.3675 5.28C33.7409 5.97333 33.9275 6.76667 33.9275 7.66C33.9275 7.92667 33.9209 8.18 33.9075 8.42C33.8942 8.66 33.8742 8.87333 33.8475 9.06H25.8675V7.16H32.6475L31.3275 7.64C31.3275 6.8 31.1342 6.15333 30.7475 5.7C30.3742 5.24667 29.8409 5.02 29.1475 5.02C28.6409 5.02 28.2009 5.14 27.8275 5.38C27.4675 5.62 27.1942 5.98 27.0075 6.46C26.8209 6.92667 26.7275 7.52 26.7275 8.24C26.7275 8.94667 26.8275 9.53333 27.0275 10C27.2409 10.4533 27.5342 10.7933 27.9075 11.02C28.2942 11.2467 28.7542 11.36 29.2875 11.36C29.8742 11.36 30.3475 11.2467 30.7075 11.02C31.0675 10.7933 31.3475 10.48 31.5475 10.08L33.7275 10.92C33.5142 11.44 33.1875 11.8867 32.7475 12.26C32.3209 12.6333 31.8075 12.92 31.2075 13.12C30.6209 13.3067 29.9875 13.4 29.3075 13.4Z" fill="black"/>
<path d="M18.0816 13.4C17.0683 13.4 16.1416 13.22 15.3016 12.86C14.4749 12.5 13.8016 11.9933 13.2816 11.34L14.8616 9.74C15.1816 10.22 15.6083 10.6133 16.1416 10.92C16.6749 11.2267 17.3083 11.38 18.0416 11.38C18.5616 11.38 18.9749 11.3067 19.2816 11.16C19.6016 11 19.7616 10.7533 19.7616 10.42C19.7616 10.2067 19.6883 10.0267 19.5416 9.88C19.395 9.72 19.1016 9.59333 18.6616 9.5L16.9016 9.14C15.7416 8.9 14.9149 8.54 14.4216 8.06C13.9416 7.56667 13.7016 6.93333 13.7016 6.16C13.7016 5.61333 13.8616 5.1 14.1816 4.62C14.5149 4.14 15.0083 3.75333 15.6616 3.46C16.3149 3.15333 17.1283 3 18.1016 3C19.1016 3 19.9683 3.16 20.7016 3.48C21.4483 3.78667 22.0349 4.24667 22.4616 4.86L20.8216 6.46C20.5283 5.99333 20.1416 5.64 19.6616 5.4C19.1949 5.14667 18.7016 5.02 18.1816 5.02C17.8083 5.02 17.4883 5.06 17.2216 5.14C16.9549 5.22 16.7549 5.33333 16.6216 5.48C16.4883 5.61333 16.4216 5.78667 16.4216 6C16.4216 6.21333 16.5149 6.4 16.7016 6.56C16.8883 6.70667 17.2283 6.83333 17.7216 6.94L19.7616 7.36C20.7483 7.56 21.4549 7.9 21.8816 8.38C22.3083 8.84667 22.5216 9.41333 22.5216 10.08C22.5216 10.72 22.3483 11.2933 22.0016 11.8C21.6683 12.2933 21.1683 12.6867 20.5016 12.98C19.8483 13.26 19.0416 13.4 18.0816 13.4Z" fill="black"/>
<path d="M11.28 0V8C11.28 9.8 10.8 11.1533 9.84 12.06C8.88 12.9533 7.48 13.4 5.64 13.4C3.8 13.4 2.4 12.9533 1.44 12.06C0.48 11.1533 0 9.8 0 8V0H2.76V7.88C2.76 8.98667 2.99333 9.80667 3.46 10.34C3.94 10.8733 4.66667 11.14 5.64 11.14C6.61333 11.14 7.33333 10.8733 7.8 10.34C8.26667 9.80667 8.5 8.98667 8.5 7.88V0H11.28Z" fill="black"/>
</svg>
