<svg width="89" height="15" viewBox="0 0 89 15" fill="none" xmlns="http://www.w3.org/2000/svg">
<path d="M84.1061 14.5797C83.0528 14.5797 82.1328 14.373 81.3461 13.9597C80.5728 13.5464 79.9728 12.953 79.5461 12.1797C79.1195 11.4064 78.9061 10.473 78.9061 9.37969C78.9061 8.28635 79.1195 7.35302 79.5461 6.57969C79.9728 5.80635 80.5661 5.21302 81.3261 4.79969C82.0995 4.38635 82.9795 4.17969 83.9661 4.17969C84.9795 4.17969 85.8395 4.38635 86.5461 4.79969C87.2528 5.19969 87.7928 5.75302 88.1661 6.45969C88.5395 7.15302 88.7261 7.94635 88.7261 8.83969C88.7261 9.10636 88.7195 9.35969 88.7061 9.59969C88.6928 9.83969 88.6728 10.053 88.6461 10.2397H80.6661V8.33969H87.4461L86.1261 8.81969C86.1261 7.97969 85.9328 7.33302 85.5461 6.87969C85.1728 6.42635 84.6395 6.19969 83.9461 6.19969C83.4395 6.19969 82.9995 6.31969 82.6261 6.55969C82.2661 6.79969 81.9928 7.15969 81.8061 7.63969C81.6195 8.10636 81.5261 8.69969 81.5261 9.41969C81.5261 10.1264 81.6261 10.713 81.8261 11.1797C82.0395 11.633 82.3328 11.973 82.7061 12.1997C83.0928 12.4264 83.5528 12.5397 84.0861 12.5397C84.6728 12.5397 85.1461 12.4264 85.5061 12.1997C85.8661 11.973 86.1461 11.6597 86.3461 11.2597L88.5261 12.0997C88.3128 12.6197 87.9861 13.0664 87.5461 13.4397C87.1195 13.813 86.6061 14.0997 86.0061 14.2997C85.4195 14.4864 84.7861 14.5797 84.1061 14.5797Z" fill="black"/>
<path d="M71.2239 14.3797V4.37969H73.6039L73.7839 6.33969C74.0505 5.64635 74.4372 5.11302 74.9439 4.73969C75.4639 4.36635 76.1105 4.17969 76.8839 4.17969C77.1105 4.17969 77.3172 4.19969 77.5039 4.23969C77.6905 4.27969 77.8439 4.33302 77.9639 4.39969L77.6439 6.69969C77.5105 6.64635 77.3439 6.60635 77.1439 6.57969C76.9572 6.55302 76.7105 6.53969 76.4039 6.53969C76.0039 6.53969 75.6172 6.63969 75.2439 6.83969C74.8705 7.02636 74.5639 7.31969 74.3239 7.71969C74.0839 8.10635 73.9639 8.59969 73.9639 9.19969V14.3797H71.2239Z" fill="black"/>
<path d="M62.3407 14.5799C61.674 14.5799 61.074 14.4599 60.5407 14.2199C60.0073 13.9799 59.5807 13.5999 59.2607 13.0799C58.954 12.5465 58.8007 11.8599 58.8007 11.0199V4.37988H61.5407V10.3599C61.5407 11.1332 61.7007 11.6732 62.0207 11.9799C62.3407 12.2732 62.8007 12.4199 63.4007 12.4199C63.6807 12.4199 63.954 12.3732 64.2207 12.2799C64.4873 12.1732 64.7207 12.0132 64.9207 11.7999C65.134 11.5865 65.3007 11.3132 65.4207 10.9799C65.5407 10.6332 65.6007 10.2265 65.6007 9.75988V4.37988H68.3407V14.3799H65.9007L65.8007 12.6399C65.4673 13.3066 65.0073 13.7999 64.4207 14.1199C63.8473 14.4265 63.154 14.5799 62.3407 14.5799Z" fill="black"/>
<path d="M53.8069 1.31982V11.1198C53.8069 11.5998 53.9269 11.9532 54.1669 12.1798C54.4203 12.3932 54.7603 12.4998 55.1869 12.4998C55.5203 12.4998 55.8136 12.4532 56.0669 12.3598C56.3203 12.2532 56.5469 12.1132 56.7469 11.9398L57.1869 13.7598C56.8669 14.0132 56.4669 14.2132 55.9869 14.3598C55.5069 14.5065 55.0003 14.5798 54.4669 14.5798C53.8003 14.5798 53.2069 14.4798 52.6869 14.2798C52.1803 14.0798 51.7803 13.7598 51.4869 13.3198C51.2069 12.8798 51.0669 12.2932 51.0669 11.5598V2.07983L53.8069 1.31982ZM57.0069 4.37983V6.41982H49.2269V4.37983H57.0069Z" fill="black"/>
<path d="M46.0024 2.94C45.429 2.94 45.0024 2.82 44.7224 2.58C44.4424 2.32667 44.3024 1.96 44.3024 1.48C44.3024 0.986667 44.4424 0.62 44.7224 0.38C45.0024 0.126667 45.429 0 46.0024 0C46.5757 0 47.0024 0.126667 47.2824 0.38C47.5624 0.62 47.7024 0.986667 47.7024 1.48C47.7024 1.96 47.5624 2.32667 47.2824 2.58C47.0024 2.82 46.5757 2.94 46.0024 2.94ZM47.3624 4.38V14.38H44.6224V4.38H47.3624Z" fill="black"/>
<path d="M32.2395 14.3797V4.37969H34.6995L34.8595 7.37969L34.5195 7.05969C34.6795 6.40635 34.9328 5.86635 35.2795 5.43969C35.6262 5.01302 36.0462 4.69969 36.5395 4.49969C37.0462 4.28635 37.5995 4.17969 38.1995 4.17969C38.8928 4.17969 39.5062 4.31302 40.0395 4.57969C40.5862 4.84635 41.0128 5.25302 41.3195 5.79969C41.6395 6.33302 41.7995 7.00635 41.7995 7.81969V14.3797H39.0595V8.59969C39.0595 7.74636 38.8928 7.15969 38.5595 6.83969C38.2262 6.50635 37.7928 6.33969 37.2595 6.33969C36.8862 6.33969 36.5195 6.43302 36.1595 6.61969C35.8128 6.79302 35.5262 7.07969 35.2995 7.47969C35.0862 7.87969 34.9795 8.41302 34.9795 9.07969V14.3797H32.2395Z" fill="black"/>
<path d="M23.802 14.3797V4.37969H26.182L26.362 6.33969C26.6287 5.64635 27.0153 5.11302 27.522 4.73969C28.042 4.36635 28.6887 4.17969 29.462 4.17969C29.6887 4.17969 29.8953 4.19969 30.082 4.23969C30.2687 4.27969 30.422 4.33302 30.542 4.39969L30.222 6.69969C30.0887 6.64635 29.922 6.60635 29.722 6.57969C29.5353 6.55302 29.2887 6.53969 28.982 6.53969C28.582 6.53969 28.1953 6.63969 27.822 6.83969C27.4487 7.02636 27.142 7.31969 26.902 7.71969C26.662 8.10635 26.542 8.59969 26.542 9.19969V14.3797H23.802Z" fill="black"/>
<path d="M14.9188 14.5799C14.2521 14.5799 13.6521 14.4599 13.1188 14.2199C12.5855 13.9799 12.1588 13.5999 11.8388 13.0799C11.5321 12.5465 11.3788 11.8599 11.3788 11.0199V4.37988H14.1188V10.3599C14.1188 11.1332 14.2788 11.6732 14.5988 11.9799C14.9188 12.2732 15.3788 12.4199 15.9788 12.4199C16.2588 12.4199 16.5321 12.3732 16.7988 12.2799C17.0655 12.1732 17.2988 12.0132 17.4988 11.7999C17.7121 11.5865 17.8788 11.3132 17.9988 10.9799C18.1188 10.6332 18.1788 10.2265 18.1788 9.75988V4.37988H20.9188V14.3799H18.4788L18.3788 12.6399C18.0455 13.3066 17.5855 13.7999 16.9988 14.1199C16.4255 14.4265 15.7321 14.5799 14.9188 14.5799Z" fill="black"/>
<path d="M9.88 3.39969H2.76V6.75969H8.38V8.97969H2.76V14.3797H0V1.17969H9.88V3.39969Z" fill="black"/>
</svg>
