<svg width="220" height="24" viewBox="0 0 220 24" fill="none" xmlns="http://www.w3.org/2000/svg">
<path d="M212.202 23.6481C210.581 23.6481 209.098 23.3601 207.754 22.7841C206.431 22.2081 205.354 21.3974 204.522 20.3521L207.05 17.7921C207.562 18.5601 208.245 19.1894 209.098 19.6801C209.951 20.1707 210.965 20.4161 212.138 20.4161C212.97 20.4161 213.631 20.2987 214.122 20.0641C214.634 19.8081 214.89 19.4134 214.89 18.8801C214.89 18.5387 214.773 18.2507 214.538 18.0161C214.303 17.7601 213.834 17.5574 213.13 17.4081L210.314 16.8321C208.458 16.4481 207.135 15.8721 206.346 15.1041C205.578 14.3147 205.194 13.3014 205.194 12.0641C205.194 11.1894 205.45 10.3681 205.962 9.60006C206.495 8.83206 207.285 8.21339 208.33 7.74406C209.375 7.25339 210.677 7.00806 212.234 7.00806C213.834 7.00806 215.221 7.26406 216.394 7.77606C217.589 8.26672 218.527 9.00272 219.21 9.98406L216.586 12.5441C216.117 11.7974 215.498 11.2321 214.73 10.8481C213.983 10.4427 213.194 10.2401 212.362 10.2401C211.765 10.2401 211.253 10.3041 210.826 10.4321C210.399 10.5601 210.079 10.7414 209.866 10.9761C209.653 11.1894 209.546 11.4667 209.546 11.8081C209.546 12.1494 209.695 12.4481 209.994 12.7041C210.293 12.9387 210.837 13.1414 211.626 13.3121L214.89 13.9841C216.469 14.3041 217.599 14.8481 218.282 15.6161C218.965 16.3627 219.306 17.2694 219.306 18.3361C219.306 19.3601 219.029 20.2774 218.474 21.0881C217.941 21.8774 217.141 22.5067 216.074 22.9761C215.029 23.4241 213.738 23.6481 212.202 23.6481Z" fill="black"/>
<path d="M199.903 0.320068V18.4001C199.903 19.1467 200.031 19.6694 200.287 19.9681C200.543 20.2667 200.97 20.4161 201.567 20.4161C201.93 20.4161 202.229 20.3947 202.463 20.3521C202.698 20.2881 202.997 20.2027 203.359 20.0961L202.975 22.9761C202.613 23.1894 202.154 23.3494 201.599 23.4561C201.066 23.5841 200.533 23.6481 199.999 23.6481C198.442 23.6481 197.301 23.2747 196.575 22.5281C195.871 21.7601 195.519 20.5441 195.519 18.8801V0.320068H199.903Z" fill="black"/>
<path d="M188.76 5.02407C187.843 5.02407 187.16 4.83207 186.712 4.44807C186.264 4.04274 186.04 3.45607 186.04 2.68807C186.04 1.89874 186.264 1.31207 186.712 0.928068C187.16 0.522735 187.843 0.320068 188.76 0.320068C189.677 0.320068 190.36 0.522735 190.808 0.928068C191.256 1.31207 191.48 1.89874 191.48 2.68807C191.48 3.45607 191.256 4.04274 190.808 4.44807C190.36 4.83207 189.677 5.02407 188.76 5.02407ZM190.936 7.32807V23.3281H186.552V7.32807H190.936Z" fill="black"/>
<path d="M177.297 13.1201C177.297 12.2027 177.03 11.4881 176.497 10.9761C175.985 10.4641 175.302 10.2081 174.449 10.2081C173.66 10.2081 172.966 10.4107 172.369 10.8161C171.772 11.2214 171.334 11.8934 171.057 12.8321L167.313 11.6801C167.676 10.2721 168.465 9.14139 169.681 8.28806C170.918 7.43472 172.572 7.00806 174.641 7.00806C176.049 7.00806 177.276 7.23206 178.321 7.68006C179.366 8.10672 180.177 8.75739 180.753 9.63206C181.35 10.5067 181.649 11.6054 181.649 12.9281V19.4241C181.649 20.2347 182.033 20.6401 182.801 20.6401C183.164 20.6401 183.505 20.5867 183.825 20.4801L183.569 23.2001C183.014 23.4774 182.321 23.6161 181.489 23.6161C180.742 23.6161 180.07 23.4881 179.473 23.2321C178.876 22.9761 178.406 22.5921 178.065 22.0801C177.724 21.5467 177.553 20.8854 177.553 20.0961V19.9681L178.321 19.8401C178.193 20.6507 177.841 21.3441 177.265 21.9201C176.689 22.4747 175.985 22.9014 175.153 23.2001C174.342 23.4987 173.5 23.6481 172.625 23.6481C171.537 23.6481 170.598 23.4881 169.809 23.1681C169.02 22.8267 168.412 22.3361 167.985 21.6961C167.558 21.0561 167.345 20.2667 167.345 19.3281C167.345 18.1334 167.729 17.1627 168.497 16.4161C169.265 15.6481 170.364 15.1254 171.793 14.8481L177.809 13.6321L177.777 16.3521L173.937 17.1201C173.212 17.2694 172.657 17.4721 172.273 17.7281C171.91 17.9627 171.729 18.3574 171.729 18.9121C171.729 19.4454 171.921 19.8507 172.305 20.1281C172.71 20.4054 173.19 20.5441 173.745 20.5441C174.193 20.5441 174.63 20.4907 175.057 20.3841C175.484 20.2774 175.868 20.1067 176.209 19.8721C176.55 19.6374 176.817 19.3174 177.009 18.9121C177.201 18.5067 177.297 18.0161 177.297 17.4401V13.1201Z" fill="black"/>
<path d="M159.935 2.43213V18.1121C159.935 18.8801 160.127 19.4455 160.511 19.8081C160.916 20.1495 161.46 20.3201 162.143 20.3201C162.676 20.3201 163.145 20.2455 163.551 20.0961C163.956 19.9255 164.319 19.7015 164.639 19.4241L165.343 22.3361C164.831 22.7415 164.191 23.0615 163.423 23.2961C162.655 23.5308 161.844 23.6481 160.991 23.6481C159.924 23.6481 158.975 23.4881 158.143 23.1681C157.332 22.8481 156.692 22.3361 156.223 21.6321C155.775 20.9281 155.551 19.9895 155.551 18.8161V3.64813L159.935 2.43213ZM165.055 7.32813V10.5921H152.607V7.32813H165.055Z" fill="black"/>
<path d="M143.445 23.6481C141.759 23.6481 140.287 23.3174 139.029 22.6561C137.791 21.9947 136.831 21.0454 136.149 19.8081C135.466 18.5707 135.125 17.0774 135.125 15.3281C135.125 13.5787 135.466 12.0854 136.149 10.8481C136.831 9.61073 137.781 8.66139 138.997 8.00006C140.234 7.33872 141.642 7.00806 143.221 7.00806C144.842 7.00806 146.218 7.33872 147.349 8.00006C148.479 8.64006 149.343 9.52539 149.941 10.6561C150.538 11.7654 150.837 13.0347 150.837 14.4641C150.837 14.8907 150.826 15.2961 150.805 15.6801C150.783 16.0641 150.751 16.4054 150.709 16.7041H137.941V13.6641H148.789L146.677 14.4321C146.677 13.0881 146.367 12.0534 145.749 11.3281C145.151 10.6027 144.298 10.2401 143.189 10.2401C142.378 10.2401 141.674 10.4321 141.077 10.8161C140.501 11.2001 140.063 11.7761 139.765 12.5441C139.466 13.2907 139.317 14.2401 139.317 15.3921C139.317 16.5227 139.477 17.4614 139.797 18.2081C140.138 18.9334 140.607 19.4774 141.205 19.8401C141.823 20.2027 142.559 20.3841 143.413 20.3841C144.351 20.3841 145.109 20.2027 145.685 19.8401C146.261 19.4774 146.709 18.9761 147.029 18.3361L150.517 19.6801C150.175 20.5121 149.653 21.2267 148.949 21.8241C148.266 22.4214 147.445 22.8801 146.485 23.2001C145.546 23.4987 144.533 23.6481 143.445 23.6481Z" fill="black"/>
<path d="M121.629 2.20801C124.935 2.20801 127.495 3.12534 129.309 4.96001C131.122 6.77334 132.029 9.37601 132.029 12.768C132.029 16.1387 131.122 18.7413 129.309 20.576C127.495 22.4107 124.935 23.328 121.629 23.328H113.469V2.20801H121.629ZM121.405 19.808C123.41 19.808 124.914 19.2107 125.917 18.016C126.941 16.8 127.453 15.0507 127.453 12.768C127.453 10.4853 126.941 8.74668 125.917 7.55201C124.914 6.33601 123.41 5.72801 121.405 5.72801H117.885V19.808H121.405Z" fill="black"/>
<path d="M92.1323 23.6481C90.4469 23.6481 88.9749 23.3174 87.7163 22.6561C86.4789 21.9947 85.5189 21.0454 84.8363 19.8081C84.1536 18.5707 83.8123 17.0774 83.8123 15.3281C83.8123 13.5787 84.1536 12.0854 84.8363 10.8481C85.5189 9.61073 86.4683 8.66139 87.6843 8.00006C88.9216 7.33872 90.3296 7.00806 91.9083 7.00806C93.5296 7.00806 94.9056 7.33872 96.0363 8.00006C97.1669 8.64006 98.0309 9.52539 98.6283 10.6561C99.2256 11.7654 99.5243 13.0347 99.5243 14.4641C99.5243 14.8907 99.5136 15.2961 99.4923 15.6801C99.4709 16.0641 99.4389 16.4054 99.3963 16.7041H86.6283V13.6641H97.4763L95.3643 14.4321C95.3643 13.0881 95.0549 12.0534 94.4363 11.3281C93.8389 10.6027 92.9856 10.2401 91.8763 10.2401C91.0656 10.2401 90.3616 10.4321 89.7643 10.8161C89.1883 11.2001 88.7509 11.7761 88.4523 12.5441C88.1536 13.2907 88.0043 14.2401 88.0043 15.3921C88.0043 16.5227 88.1643 17.4614 88.4843 18.2081C88.8256 18.9334 89.2949 19.4774 89.8923 19.8401C90.5109 20.2027 91.2469 20.3841 92.1003 20.3841C93.0389 20.3841 93.7963 20.2027 94.3723 19.8401C94.9483 19.4774 95.3963 18.9761 95.7163 18.3361L99.2043 19.6801C98.8629 20.5121 98.3403 21.2267 97.6363 21.8241C96.9536 22.4214 96.1323 22.8801 95.1723 23.2001C94.2336 23.4987 93.2203 23.6481 92.1323 23.6481Z" fill="black"/>
<path d="M78.8095 0.320068V18.4001C78.8095 19.1467 78.9375 19.6694 79.1935 19.9681C79.4495 20.2667 79.8762 20.4161 80.4735 20.4161C80.8362 20.4161 81.1349 20.3947 81.3695 20.3521C81.6042 20.2881 81.9029 20.2027 82.2655 20.0961L81.8815 22.9761C81.5189 23.1894 81.0602 23.3494 80.5055 23.4561C79.9722 23.5841 79.4389 23.6481 78.9055 23.6481C77.3482 23.6481 76.2069 23.2747 75.4815 22.5281C74.7775 21.7601 74.4255 20.5441 74.4255 18.8801V0.320068H78.8095Z" fill="black"/>
<path d="M59.563 0C60.3097 0 60.9817 0.0853335 61.579 0.256001C62.1977 0.405333 62.6564 0.597333 62.955 0.832001L62.347 3.744C62.1124 3.59467 61.8457 3.47733 61.547 3.392C61.2484 3.30667 60.8964 3.264 60.491 3.264C59.659 3.264 58.9977 3.456 58.507 3.84C58.0164 4.20267 57.771 4.832 57.771 5.728V7.936L57.963 8.8V23.328H53.579V5.408C53.579 4.512 53.7284 3.72267 54.027 3.04C54.3257 2.35733 54.7417 1.792 55.275 1.344C55.8084 0.896001 56.4377 0.565334 57.163 0.351999C57.9097 0.117333 58.7097 0 59.563 0ZM62.827 7.328V10.592H50.795V7.328H62.827ZM67.659 5.024C66.7417 5.024 66.059 4.832 65.611 4.448C65.163 4.04267 64.939 3.456 64.939 2.688C64.939 1.89867 65.163 1.312 65.611 0.927999C66.059 0.522666 66.7417 0.32 67.659 0.32C68.5764 0.32 69.259 0.522666 69.707 0.927999C70.155 1.312 70.379 1.89867 70.379 2.688C70.379 3.456 70.155 4.04267 69.707 4.448C69.259 4.832 68.5764 5.024 67.659 5.024ZM69.835 7.328V23.328H65.451V7.328H69.835Z" fill="black"/>
<path d="M40.723 7.00806C42.3443 7.00806 43.763 7.33872 44.979 8.00006C46.2163 8.66139 47.1763 9.61073 47.859 10.8481C48.563 12.0854 48.915 13.5787 48.915 15.3281C48.915 17.0561 48.563 18.5494 47.859 19.8081C47.1763 21.0454 46.2163 21.9947 44.979 22.6561C43.763 23.3174 42.3443 23.6481 40.723 23.6481C39.123 23.6481 37.7043 23.3174 36.467 22.6561C35.2297 21.9947 34.259 21.0454 33.555 19.8081C32.8723 18.5494 32.531 17.0561 32.531 15.3281C32.531 13.5787 32.8723 12.0854 33.555 10.8481C34.259 9.61073 35.2297 8.66139 36.467 8.00006C37.7043 7.33872 39.123 7.00806 40.723 7.00806ZM40.723 10.2721C39.9123 10.2721 39.219 10.4641 38.643 10.8481C38.0883 11.2107 37.6617 11.7654 37.363 12.5121C37.0643 13.2587 36.915 14.1974 36.915 15.3281C36.915 16.4587 37.0643 17.3974 37.363 18.1441C37.6617 18.8907 38.0883 19.4561 38.643 19.8401C39.219 20.2027 39.9123 20.3841 40.723 20.3841C41.5123 20.3841 42.1843 20.2027 42.739 19.8401C43.315 19.4561 43.7523 18.8907 44.051 18.1441C44.3497 17.3974 44.499 16.4587 44.499 15.3281C44.499 14.1974 44.3497 13.2587 44.051 12.5121C43.7523 11.7654 43.315 11.2107 42.739 10.8481C42.1843 10.4641 41.5123 10.2721 40.723 10.2721Z" fill="black"/>
<path d="M20.2395 23.3281V7.32806H24.0475L24.3355 10.4641C24.7622 9.35472 25.3808 8.50139 26.1915 7.90406C27.0235 7.30672 28.0582 7.00806 29.2955 7.00806C29.6582 7.00806 29.9888 7.04006 30.2875 7.10406C30.5862 7.16806 30.8315 7.25339 31.0235 7.36006L30.5115 11.0401C30.2982 10.9547 30.0315 10.8907 29.7115 10.8481C29.4128 10.8054 29.0182 10.7841 28.5275 10.7841C27.8875 10.7841 27.2688 10.9441 26.6715 11.2641C26.0742 11.5627 25.5835 12.0321 25.1995 12.6721C24.8155 13.2907 24.6235 14.0801 24.6235 15.0401V23.3281H20.2395Z" fill="black"/>
<path d="M8.864 2.20801C10.4853 2.20801 11.872 2.48534 13.024 3.04001C14.176 3.57334 15.0613 4.35201 15.68 5.37601C16.32 6.37867 16.64 7.59468 16.64 9.02401C16.64 10.4533 16.32 11.68 15.68 12.704C15.0613 13.7067 14.176 14.4853 13.024 15.04C11.872 15.5733 10.4853 15.84 8.864 15.84H4.416V23.328H0V2.20801H8.864ZM8.192 12.352C9.51467 12.352 10.5067 12.0747 11.168 11.52C11.8293 10.944 12.16 10.112 12.16 9.02401C12.16 7.91467 11.8293 7.08267 11.168 6.52801C10.5067 5.97334 9.51467 5.69601 8.192 5.69601H4.416V12.352H8.192Z" fill="black"/>
</svg>
