<svg width="144" height="35" viewBox="0 0 144 35" fill="none" xmlns="http://www.w3.org/2000/svg">
<path d="M126.291 34.2322V22.8722H128.259L128.403 25.4162L128.131 25.1282C128.227 24.6588 128.403 24.2428 128.659 23.8802C128.926 23.5175 129.262 23.2348 129.667 23.0322C130.073 22.8188 130.526 22.7122 131.027 22.7122C131.678 22.7122 132.259 22.8775 132.771 23.2082C133.283 23.5388 133.683 24.0135 133.971 24.6322C134.27 25.2402 134.419 25.9815 134.419 26.8562C134.419 27.7308 134.27 28.4828 133.971 29.1122C133.673 29.7308 133.262 30.2055 132.739 30.5362C132.227 30.8668 131.641 31.0322 130.979 31.0322C130.275 31.0322 129.689 30.8348 129.219 30.4402C128.761 30.0455 128.446 29.5495 128.275 28.9522L128.483 28.6162V34.2322H126.291ZM130.339 29.3522C130.926 29.3522 131.385 29.1442 131.715 28.7282C132.057 28.3015 132.227 27.6828 132.227 26.8722C132.227 26.0615 132.062 25.4482 131.731 25.0322C131.411 24.6055 130.958 24.3922 130.371 24.3922C129.998 24.3922 129.667 24.4935 129.379 24.6962C129.102 24.8882 128.883 25.1708 128.723 25.5442C128.563 25.9068 128.483 26.3495 128.483 26.8722C128.483 27.3842 128.558 27.8268 128.707 28.2002C128.857 28.5735 129.07 28.8615 129.347 29.0642C129.635 29.2562 129.966 29.3522 130.339 29.3522Z" fill="#69C3E8"/>
<path d="M119.185 31.0321C118.651 31.0321 118.171 30.9361 117.745 30.7441C117.318 30.5521 116.977 30.2481 116.721 29.8321C116.475 29.4054 116.353 28.8561 116.353 28.1841V22.8721H118.545V27.6561C118.545 28.2747 118.673 28.7067 118.929 28.9521C119.185 29.1867 119.553 29.3041 120.033 29.3041C120.257 29.3041 120.475 29.2667 120.689 29.1921C120.902 29.1067 121.089 28.9787 121.249 28.8081C121.419 28.6374 121.553 28.4187 121.649 28.1521C121.745 27.8747 121.793 27.5494 121.793 27.1761V22.8721H123.985V30.8721H122.033L121.953 29.4801C121.686 30.0134 121.318 30.4081 120.849 30.6641C120.39 30.9094 119.835 31.0321 119.185 31.0321Z" fill="#69C3E8"/>
<path d="M101.604 30.8722V22.8722H103.572L103.7 25.2722L103.428 25.0162C103.556 24.4935 103.759 24.0615 104.036 23.7202C104.313 23.3788 104.649 23.1282 105.044 22.9682C105.449 22.7975 105.892 22.7122 106.372 22.7122C106.927 22.7122 107.417 22.8188 107.844 23.0322C108.281 23.2455 108.623 23.5708 108.868 24.0082C109.124 24.4348 109.252 24.9735 109.252 25.6242V30.8722H107.06V26.2482C107.06 25.5655 106.927 25.0962 106.66 24.8402C106.393 24.5735 106.047 24.4402 105.62 24.4402C105.321 24.4402 105.028 24.5148 104.74 24.6642C104.463 24.8028 104.233 25.0322 104.052 25.3522C103.881 25.6722 103.796 26.0988 103.796 26.6322V30.8722H101.604Z" fill="#69C3E8"/>
<path d="M100.199 20.968L100.455 22.536C100.412 22.536 100.364 22.536 100.311 22.536C100.268 22.5253 100.22 22.52 100.167 22.52C99.676 22.52 99.308 22.632 99.0627 22.856C98.8173 23.0693 98.6947 23.368 98.6947 23.752L97.7987 23.384C97.7987 22.9573 97.884 22.5627 98.0547 22.2C98.2253 21.8267 98.476 21.528 98.8067 21.304C99.148 21.08 99.5533 20.968 100.023 20.968C100.044 20.968 100.071 20.968 100.103 20.968C100.135 20.968 100.167 20.968 100.199 20.968ZM97.5747 29.368C98.4387 29.368 99.1053 29.5547 99.5747 29.928C100.044 30.3013 100.279 30.824 100.279 31.496C100.279 32.104 100.103 32.616 99.7507 33.032C99.3987 33.4587 98.9027 33.7787 98.2627 33.992C97.6333 34.2053 96.9027 34.312 96.0707 34.312C94.6947 34.312 93.6867 34.12 93.0467 33.736C92.4173 33.352 92.1027 32.8507 92.1027 32.232C92.1027 31.7947 92.268 31.4267 92.5987 31.128C92.94 30.8294 93.5 30.664 94.2787 30.632L94.1987 30.888C93.644 30.792 93.2173 30.6107 92.9187 30.344C92.6307 30.0667 92.4867 29.688 92.4867 29.208C92.4867 28.7173 92.6733 28.3173 93.0467 28.008C93.4307 27.688 93.948 27.5014 94.5987 27.448L95.5587 27.896H95.3347C94.876 27.928 94.5507 28.024 94.3587 28.184C94.1773 28.3334 94.0867 28.504 94.0867 28.696C94.0867 28.92 94.172 29.0907 94.3427 29.208C94.524 29.3147 94.78 29.368 95.1107 29.368H97.5747ZM96.0867 32.808C96.6413 32.808 97.0947 32.76 97.4467 32.664C97.8093 32.568 98.076 32.4453 98.2467 32.296C98.428 32.1467 98.5187 31.9814 98.5187 31.8C98.5187 31.5974 98.4387 31.432 98.2787 31.304C98.1187 31.1867 97.8307 31.128 97.4147 31.128H94.7107C94.4547 31.128 94.2413 31.192 94.0707 31.32C93.9107 31.448 93.8307 31.624 93.8307 31.848C93.8307 32.1467 94.028 32.3814 94.4227 32.552C94.828 32.7227 95.3827 32.808 96.0867 32.808ZM96.1027 22.712C96.8493 22.712 97.4947 22.824 98.0387 23.048C98.5933 23.2613 99.0147 23.5707 99.3027 23.976C99.6013 24.3814 99.7507 24.8667 99.7507 25.432C99.7507 25.9867 99.6013 26.4667 99.3027 26.872C99.0147 27.2773 98.5933 27.592 98.0387 27.816C97.4947 28.0294 96.8493 28.136 96.1027 28.136C94.9187 28.136 94.012 27.896 93.3827 27.416C92.764 26.9254 92.4547 26.264 92.4547 25.432C92.4547 24.8667 92.5987 24.3814 92.8867 23.976C93.1853 23.5707 93.6067 23.2613 94.1507 23.048C94.6947 22.824 95.3453 22.712 96.1027 22.712ZM96.1027 24.088C95.676 24.088 95.324 24.2054 95.0467 24.44C94.7693 24.6747 94.6307 25 94.6307 25.416C94.6307 25.832 94.7693 26.1627 95.0467 26.408C95.324 26.6427 95.676 26.76 96.1027 26.76C96.5293 26.76 96.876 26.6427 97.1427 26.408C97.42 26.1627 97.5587 25.832 97.5587 25.416C97.5587 25 97.42 24.6747 97.1427 24.44C96.876 24.2054 96.5293 24.088 96.1027 24.088Z" fill="#69C3E8"/>
<path d="M89.411 21.7202C88.9524 21.7202 88.611 21.6242 88.387 21.4322C88.163 21.2295 88.051 20.9362 88.051 20.5522C88.051 20.1575 88.163 19.8642 88.387 19.6722C88.611 19.4695 88.9524 19.3682 89.411 19.3682C89.8697 19.3682 90.211 19.4695 90.435 19.6722C90.659 19.8642 90.771 20.1575 90.771 20.5522C90.771 20.9362 90.659 21.2295 90.435 21.4322C90.211 21.6242 89.8697 21.7202 89.411 21.7202ZM90.499 22.8722V30.8722H88.307V22.8722H90.499Z" fill="#69C3E8"/>
<path d="M82.137 20.1521C83.097 20.1521 83.9397 20.3174 84.665 20.6481C85.3904 20.9788 86.009 21.4694 86.521 22.1201L85.289 23.5441C84.8517 22.9894 84.3717 22.5841 83.849 22.3281C83.337 22.0614 82.7397 21.9281 82.057 21.9281C81.609 21.9281 81.2357 21.9868 80.937 22.1041C80.649 22.2214 80.4357 22.3761 80.297 22.5681C80.169 22.7601 80.105 22.9734 80.105 23.2081C80.105 23.4961 80.217 23.7414 80.441 23.9441C80.665 24.1361 81.049 24.2961 81.593 24.4241L83.561 24.8721C84.6064 25.1068 85.353 25.4588 85.801 25.9281C86.2597 26.3868 86.489 26.9841 86.489 27.7201C86.489 28.4134 86.3077 29.0108 85.945 29.5121C85.5824 30.0028 85.0757 30.3814 84.425 30.6481C83.7744 30.9041 83.0277 31.0321 82.185 31.0321C81.449 31.0321 80.7717 30.9468 80.153 30.7761C79.545 30.5948 79.001 30.3494 78.521 30.0401C78.041 29.7308 77.641 29.3734 77.321 28.9681L78.569 27.4801C78.8144 27.8214 79.1184 28.1254 79.481 28.3921C79.8437 28.6588 80.2544 28.8721 80.713 29.0321C81.1824 29.1814 81.673 29.2561 82.185 29.2561C82.6224 29.2561 82.9904 29.2081 83.289 29.1121C83.5984 29.0054 83.8277 28.8614 83.977 28.6801C84.137 28.4881 84.217 28.2588 84.217 27.9921C84.217 27.7148 84.121 27.4801 83.929 27.2881C83.7477 27.0854 83.4064 26.9308 82.905 26.8241L80.761 26.3441C80.1424 26.1948 79.609 26.0028 79.161 25.7681C78.7237 25.5228 78.3877 25.2134 78.153 24.8401C77.929 24.4561 77.817 24.0028 77.817 23.4801C77.817 22.8508 77.9877 22.2854 78.329 21.7841C78.6704 21.2828 79.161 20.8881 79.801 20.6001C80.4517 20.3014 81.2304 20.1521 82.137 20.1521Z" fill="#69C3E8"/>
<path d="M67.4063 20.1521C68.1637 20.1521 68.8357 20.2641 69.4223 20.4881C70.009 20.7121 70.4677 21.0428 70.7983 21.4801C71.129 21.9068 71.2943 22.4348 71.2943 23.0641C71.2943 23.7041 71.1557 24.2321 70.8783 24.6481C70.6117 25.0534 70.249 25.3628 69.7903 25.5761C69.3317 25.7788 68.825 25.9121 68.2703 25.9761L68.1583 27.4801H66.1583L66.1743 25.0641C66.889 24.9788 67.4437 24.8668 67.8383 24.7281C68.2437 24.5788 68.5263 24.3921 68.6863 24.1681C68.857 23.9441 68.9423 23.6774 68.9423 23.3681C68.9423 23.0694 68.8783 22.8188 68.7503 22.6161C68.633 22.4134 68.4517 22.2588 68.2063 22.1521C67.961 22.0454 67.6463 21.9921 67.2623 21.9921C66.7077 21.9921 66.265 22.1521 65.9343 22.4721C65.6037 22.7814 65.401 23.2241 65.3263 23.8001L63.2463 23.0001C63.3743 22.4454 63.609 21.9548 63.9503 21.5281C64.2917 21.0908 64.745 20.7548 65.3103 20.5201C65.8863 20.2748 66.585 20.1521 67.4063 20.1521ZM67.1823 28.5521C67.5983 28.5521 67.929 28.6641 68.1743 28.8881C68.4197 29.1121 68.5423 29.4108 68.5423 29.7841C68.5423 30.1681 68.4197 30.4721 68.1743 30.6961C67.929 30.9094 67.5983 31.0161 67.1823 31.0161C66.7663 31.0161 66.4357 30.9094 66.1903 30.6961C65.945 30.4721 65.8223 30.1681 65.8223 29.7841C65.8223 29.4108 65.945 29.1121 66.1903 28.8881C66.4357 28.6641 66.7663 28.5521 67.1823 28.5521Z" fill="black"/>
<path d="M59.7953 20.4241V28.2641C59.7953 28.6481 59.8913 28.9307 60.0833 29.1121C60.286 29.2827 60.558 29.3681 60.8993 29.3681C61.166 29.3681 61.4007 29.3307 61.6033 29.2561C61.806 29.1707 61.9873 29.0587 62.1473 28.9201L62.4993 30.3761C62.2433 30.5787 61.9233 30.7387 61.5393 30.8561C61.1553 30.9734 60.75 31.0321 60.3233 31.0321C59.79 31.0321 59.3153 30.9521 58.8993 30.7921C58.494 30.6321 58.174 30.3761 57.9393 30.0241C57.7153 29.6721 57.6033 29.2027 57.6033 28.6161V21.0321L59.7953 20.4241ZM62.3553 22.8721V24.5041H56.1313V22.8721H62.3553Z" fill="black"/>
<path d="M47.1195 30.8722V22.8722H49.0875L49.2155 25.2722L48.9435 25.0162C49.0715 24.4935 49.2742 24.0615 49.5515 23.7202C49.8288 23.3788 50.1648 23.1282 50.5595 22.9682C50.9648 22.7975 51.4075 22.7122 51.8875 22.7122C52.4422 22.7122 52.9328 22.8188 53.3595 23.0322C53.7968 23.2455 54.1382 23.5708 54.3835 24.0082C54.6395 24.4348 54.7675 24.9735 54.7675 25.6242V30.8722H52.5755V26.2482C52.5755 25.5655 52.4422 25.0962 52.1755 24.8402C51.9088 24.5735 51.5622 24.4402 51.1355 24.4402C50.8368 24.4402 50.5435 24.5148 50.2555 24.6642C49.9782 24.8028 49.7488 25.0322 49.5675 25.3522C49.3968 25.6722 49.3115 26.0988 49.3115 26.6322V30.8722H47.1195Z" fill="black"/>
<path d="M40.0129 31.0321C39.4796 31.0321 38.9996 30.9361 38.5729 30.7441C38.1462 30.5521 37.8049 30.2481 37.5489 29.8321C37.3036 29.4054 37.1809 28.8561 37.1809 28.1841V22.8721H39.3729V27.6561C39.3729 28.2747 39.5009 28.7067 39.7569 28.9521C40.0129 29.1867 40.3809 29.3041 40.8609 29.3041C41.0849 29.3041 41.3036 29.2667 41.5169 29.1921C41.7302 29.1067 41.9169 28.9787 42.0769 28.8081C42.2476 28.6374 42.3809 28.4187 42.4769 28.1521C42.5729 27.8747 42.6209 27.5494 42.6209 27.1761V22.8721H44.8129V30.8721H42.8609L42.7809 29.4801C42.5142 30.0134 42.1462 30.4081 41.6769 30.6641C41.2182 30.9094 40.6636 31.0321 40.0129 31.0321Z" fill="black"/>
<path d="M31.2988 22.7122C32.1094 22.7122 32.8188 22.8775 33.4268 23.2082C34.0454 23.5388 34.5254 24.0135 34.8668 24.6322C35.2188 25.2508 35.3948 25.9975 35.3948 26.8722C35.3948 27.7362 35.2188 28.4828 34.8668 29.1122C34.5254 29.7308 34.0454 30.2055 33.4268 30.5362C32.8188 30.8668 32.1094 31.0322 31.2988 31.0322C30.4988 31.0322 29.7894 30.8668 29.1708 30.5362C28.5521 30.2055 28.0668 29.7308 27.7148 29.1122C27.3734 28.4828 27.2028 27.7362 27.2028 26.8722C27.2028 25.9975 27.3734 25.2508 27.7148 24.6322C28.0668 24.0135 28.5521 23.5388 29.1708 23.2082C29.7894 22.8775 30.4988 22.7122 31.2988 22.7122ZM31.2988 24.3442C30.8934 24.3442 30.5468 24.4402 30.2588 24.6322C29.9814 24.8135 29.7681 25.0908 29.6188 25.4642C29.4694 25.8375 29.3948 26.3068 29.3948 26.8722C29.3948 27.4375 29.4694 27.9068 29.6188 28.2802C29.7681 28.6535 29.9814 28.9362 30.2588 29.1282C30.5468 29.3095 30.8934 29.4002 31.2988 29.4002C31.6934 29.4002 32.0294 29.3095 32.3068 29.1282C32.5948 28.9362 32.8134 28.6535 32.9628 28.2802C33.1121 27.9068 33.1868 27.4375 33.1868 26.8722C33.1868 26.3068 33.1121 25.8375 32.9628 25.4642C32.8134 25.0908 32.5948 24.8135 32.3068 24.6322C32.0294 24.4402 31.6934 24.3442 31.2988 24.3442Z" fill="black"/>
<path d="M22.2515 22.7122C22.9662 22.7122 23.5688 22.8188 24.0595 23.0322C24.5608 23.2348 24.9608 23.5175 25.2595 23.8802C25.5688 24.2322 25.7875 24.6268 25.9155 25.0642L23.8675 25.8002C23.7608 25.3202 23.5795 24.9575 23.3235 24.7122C23.0675 24.4668 22.7208 24.3442 22.2835 24.3442C21.8782 24.3442 21.5315 24.4402 21.2435 24.6322C20.9555 24.8135 20.7368 25.0962 20.5875 25.4802C20.4382 25.8535 20.3635 26.3228 20.3635 26.8882C20.3635 27.4535 20.4382 27.9228 20.5875 28.2962C20.7475 28.6695 20.9715 28.9468 21.2595 29.1282C21.5582 29.3095 21.9048 29.4002 22.2995 29.4002C22.6195 29.4002 22.8915 29.3468 23.1155 29.2402C23.3395 29.1228 23.5208 28.9575 23.6595 28.7442C23.8088 28.5308 23.9102 28.2748 23.9635 27.9762L25.9475 28.6162C25.8302 29.0962 25.6115 29.5175 25.2915 29.8802C24.9715 30.2428 24.5608 30.5255 24.0595 30.7282C23.5582 30.9308 22.9768 31.0322 22.3155 31.0322C21.4942 31.0322 20.7688 30.8668 20.1395 30.5362C19.5102 30.2055 19.0248 29.7308 18.6835 29.1122C18.3422 28.4935 18.1715 27.7468 18.1715 26.8722C18.1715 25.9975 18.3422 25.2508 18.6835 24.6322C19.0248 24.0135 19.5048 23.5388 20.1235 23.2082C20.7422 22.8775 21.4515 22.7122 22.2515 22.7122Z" fill="black"/>
<path d="M13.2203 22.7122C13.9349 22.7122 14.5376 22.8188 15.0283 23.0322C15.5296 23.2348 15.9296 23.5175 16.2283 23.8802C16.5376 24.2322 16.7563 24.6268 16.8843 25.0642L14.8363 25.8002C14.7296 25.3202 14.5483 24.9575 14.2923 24.7122C14.0363 24.4668 13.6896 24.3442 13.2523 24.3442C12.8469 24.3442 12.5003 24.4402 12.2123 24.6322C11.9243 24.8135 11.7056 25.0962 11.5563 25.4802C11.4069 25.8535 11.3323 26.3228 11.3323 26.8882C11.3323 27.4535 11.4069 27.9228 11.5563 28.2962C11.7163 28.6695 11.9403 28.9468 12.2283 29.1282C12.5269 29.3095 12.8736 29.4002 13.2683 29.4002C13.5883 29.4002 13.8603 29.3468 14.0843 29.2402C14.3083 29.1228 14.4896 28.9575 14.6283 28.7442C14.7776 28.5308 14.8789 28.2748 14.9323 27.9762L16.9163 28.6162C16.7989 29.0962 16.5803 29.5175 16.2603 29.8802C15.9403 30.2428 15.5296 30.5255 15.0283 30.7282C14.5269 30.9308 13.9456 31.0322 13.2843 31.0322C12.4629 31.0322 11.7376 30.8668 11.1083 30.5362C10.4789 30.2055 9.99359 29.7308 9.65226 29.1122C9.31092 28.4935 9.14026 27.7468 9.14026 26.8722C9.14026 25.9975 9.31092 25.2508 9.65226 24.6322C9.99359 24.0135 10.4736 23.5388 11.0923 23.2082C11.7109 22.8775 12.4203 22.7122 13.2203 22.7122Z" fill="black"/>
<path d="M4.992 25.7682C4.992 25.3095 4.85867 24.9522 4.592 24.6962C4.336 24.4402 3.99467 24.3122 3.568 24.3122C3.17333 24.3122 2.82667 24.4135 2.528 24.6162C2.22933 24.8188 2.01067 25.1548 1.872 25.6242L0 25.0482C0.181333 24.3442 0.576 23.7788 1.184 23.3522C1.80267 22.9255 2.62933 22.7122 3.664 22.7122C4.368 22.7122 4.98133 22.8242 5.504 23.0482C6.02667 23.2615 6.432 23.5868 6.72 24.0242C7.01867 24.4615 7.168 25.0108 7.168 25.6722V28.9202C7.168 29.3255 7.36 29.5282 7.744 29.5282C7.92533 29.5282 8.096 29.5015 8.256 29.4482L8.128 30.8082C7.85067 30.9468 7.504 31.0162 7.088 31.0162C6.71467 31.0162 6.37867 30.9522 6.08 30.8242C5.78133 30.6962 5.54667 30.5042 5.376 30.2482C5.20533 29.9815 5.12 29.6508 5.12 29.2562V29.1922L5.504 29.1282C5.44 29.5335 5.264 29.8802 4.976 30.1682C4.688 30.4455 4.336 30.6588 3.92 30.8082C3.51467 30.9575 3.09333 31.0322 2.656 31.0322C2.112 31.0322 1.64267 30.9522 1.248 30.7922C0.853333 30.6215 0.549333 30.3762 0.336 30.0562C0.122667 29.7362 0.016 29.3415 0.016 28.8722C0.016 28.2748 0.208 27.7895 0.592 27.4162C0.976 27.0322 1.52533 26.7708 2.24 26.6322L5.248 26.0242L5.232 27.3842L3.312 27.7682C2.94933 27.8428 2.672 27.9442 2.48 28.0722C2.29867 28.1895 2.208 28.3868 2.208 28.6642C2.208 28.9308 2.304 29.1335 2.496 29.2722C2.69867 29.4108 2.93867 29.4802 3.216 29.4802C3.44 29.4802 3.65867 29.4535 3.872 29.4002C4.08533 29.3468 4.27733 29.2615 4.448 29.1442C4.61867 29.0268 4.752 28.8668 4.848 28.6642C4.944 28.4615 4.992 28.2162 4.992 27.9282V25.7682Z" fill="black"/>
<path d="M135.682 11.8722V3.87216H137.65L137.778 6.27216L137.506 6.01616C137.634 5.49349 137.837 5.06149 138.114 4.72016C138.391 4.37883 138.727 4.12816 139.122 3.96816C139.527 3.79749 139.97 3.71216 140.45 3.71216C141.005 3.71216 141.495 3.81883 141.922 4.03216C142.359 4.24549 142.701 4.57083 142.946 5.00816C143.202 5.43483 143.33 5.97349 143.33 6.62416V11.8722H141.138V7.24816C141.138 6.56549 141.005 6.09616 140.738 5.84016C140.471 5.57349 140.125 5.44016 139.698 5.44016C139.399 5.44016 139.106 5.51483 138.818 5.66416C138.541 5.80283 138.311 6.03216 138.13 6.35216C137.959 6.67216 137.874 7.09883 137.874 7.63216V11.8722H135.682Z" fill="black"/>
<path d="M131.055 6.76816C131.055 6.30949 130.921 5.95216 130.654 5.69616C130.398 5.44016 130.057 5.31216 129.63 5.31216C129.236 5.31216 128.889 5.41349 128.59 5.61616C128.292 5.81883 128.073 6.15483 127.934 6.62416L126.062 6.04816C126.244 5.34416 126.638 4.77883 127.246 4.35216C127.865 3.92549 128.692 3.71216 129.727 3.71216C130.431 3.71216 131.044 3.82416 131.566 4.04816C132.089 4.26149 132.495 4.58683 132.783 5.02416C133.081 5.46149 133.23 6.01082 133.23 6.67216V9.92016C133.23 10.3255 133.423 10.5282 133.807 10.5282C133.988 10.5282 134.158 10.5015 134.318 10.4482L134.191 11.8082C133.913 11.9468 133.566 12.0162 133.15 12.0162C132.777 12.0162 132.441 11.9522 132.143 11.8242C131.844 11.6962 131.609 11.5042 131.438 11.2482C131.268 10.9815 131.182 10.6508 131.182 10.2562V10.1922L131.566 10.1282C131.502 10.5335 131.326 10.8802 131.038 11.1682C130.75 11.4455 130.398 11.6588 129.982 11.8082C129.577 11.9575 129.156 12.0322 128.719 12.0322C128.175 12.0322 127.705 11.9522 127.311 11.7922C126.916 11.6215 126.612 11.3762 126.398 11.0562C126.185 10.7362 126.078 10.3415 126.078 9.87216C126.078 9.27483 126.27 8.78949 126.654 8.41616C127.038 8.03216 127.588 7.77083 128.303 7.63216L131.311 7.02416L131.294 8.38416L129.374 8.76816C129.012 8.84283 128.734 8.94416 128.542 9.07216C128.361 9.18949 128.27 9.38683 128.27 9.66416C128.27 9.93083 128.367 10.1335 128.559 10.2722C128.761 10.4108 129.001 10.4802 129.279 10.4802C129.503 10.4802 129.721 10.4535 129.934 10.4002C130.148 10.3468 130.34 10.2615 130.51 10.1442C130.681 10.0268 130.814 9.86683 130.91 9.66416C131.006 9.46149 131.055 9.21616 131.055 8.92816V6.76816Z" fill="black"/>
<path d="M116.05 12.0322C115.208 12.0322 114.472 11.8668 113.842 11.5362C113.224 11.2055 112.744 10.7308 112.402 10.1122C112.061 9.49349 111.89 8.74683 111.89 7.87216C111.89 6.99749 112.061 6.25083 112.402 5.63216C112.744 5.01349 113.218 4.53883 113.826 4.20816C114.445 3.87749 115.149 3.71216 115.938 3.71216C116.749 3.71216 117.437 3.87749 118.002 4.20816C118.568 4.52816 119 4.97083 119.298 5.53616C119.597 6.09083 119.746 6.72549 119.746 7.44016C119.746 7.65349 119.741 7.85616 119.73 8.04816C119.72 8.24016 119.704 8.41083 119.682 8.56016H113.298V7.04016H118.722L117.666 7.42416C117.666 6.75216 117.512 6.23483 117.202 5.87216C116.904 5.50949 116.477 5.32816 115.922 5.32816C115.517 5.32816 115.165 5.42416 114.866 5.61616C114.578 5.80816 114.36 6.09616 114.21 6.48016C114.061 6.85349 113.986 7.32816 113.986 7.90416C113.986 8.46949 114.066 8.93883 114.226 9.31216C114.397 9.67483 114.632 9.94683 114.93 10.1282C115.24 10.3095 115.608 10.4002 116.034 10.4002C116.504 10.4002 116.882 10.3095 117.17 10.1282C117.458 9.94683 117.682 9.69616 117.842 9.37616L119.586 10.0482C119.416 10.4642 119.154 10.8215 118.802 11.1202C118.461 11.4188 118.05 11.6482 117.57 11.8082C117.101 11.9575 116.594 12.0322 116.05 12.0322Z" fill="black"/>
<path d="M108.946 3.87207H111.218L108.178 11.8721H105.65L102.61 3.87207H104.946L106.93 10.1921L108.946 3.87207Z" fill="black"/>
<path d="M99.3826 6.76816C99.3826 6.30949 99.2493 5.95216 98.9826 5.69616C98.7266 5.44016 98.3853 5.31216 97.9586 5.31216C97.564 5.31216 97.2173 5.41349 96.9186 5.61616C96.62 5.81883 96.4013 6.15483 96.2626 6.62416L94.3906 6.04816C94.572 5.34416 94.9666 4.77883 95.5746 4.35216C96.1933 3.92549 97.02 3.71216 98.0546 3.71216C98.7586 3.71216 99.372 3.82416 99.8946 4.04816C100.417 4.26149 100.823 4.58683 101.111 5.02416C101.409 5.46149 101.559 6.01082 101.559 6.67216V9.92016C101.559 10.3255 101.751 10.5282 102.135 10.5282C102.316 10.5282 102.487 10.5015 102.647 10.4482L102.519 11.8082C102.241 11.9468 101.895 12.0162 101.479 12.0162C101.105 12.0162 100.769 11.9522 100.471 11.8242C100.172 11.6962 99.9373 11.5042 99.7666 11.2482C99.596 10.9815 99.5106 10.6508 99.5106 10.2562V10.1922L99.8946 10.1282C99.8306 10.5335 99.6546 10.8802 99.3666 11.1682C99.0786 11.4455 98.7266 11.6588 98.3106 11.8082C97.9053 11.9575 97.484 12.0322 97.0466 12.0322C96.5026 12.0322 96.0333 11.9522 95.6386 11.7922C95.244 11.6215 94.94 11.3762 94.7266 11.0562C94.5133 10.7362 94.4066 10.3415 94.4066 9.87216C94.4066 9.27483 94.5986 8.78949 94.9826 8.41616C95.3666 8.03216 95.916 7.77083 96.6306 7.63216L99.6386 7.02416L99.6226 8.38416L97.7026 8.76816C97.34 8.84283 97.0626 8.94416 96.8706 9.07216C96.6893 9.18949 96.5986 9.38683 96.5986 9.66416C96.5986 9.93083 96.6946 10.1335 96.8866 10.2722C97.0893 10.4108 97.3293 10.4802 97.6066 10.4802C97.8306 10.4802 98.0493 10.4535 98.2626 10.4002C98.476 10.3468 98.668 10.2615 98.8386 10.1442C99.0093 10.0268 99.1426 9.86683 99.2386 9.66416C99.3346 9.46149 99.3826 9.21616 99.3826 8.92816V6.76816Z" fill="black"/>
<path d="M84.9164 11.8722V0.368164H87.1084V5.23216C87.3644 4.72016 87.7164 4.3415 88.1644 4.09616C88.6124 3.84016 89.119 3.71216 89.6844 3.71216C90.239 3.71216 90.7297 3.81883 91.1564 4.03216C91.5937 4.2455 91.935 4.57083 92.1804 5.00816C92.4364 5.43483 92.5644 5.9735 92.5644 6.62416V11.8722H90.3724V7.26416C90.3724 6.57083 90.239 6.09617 89.9724 5.84017C89.7057 5.5735 89.3644 5.44016 88.9484 5.44016C88.639 5.44016 88.3404 5.51483 88.0524 5.66416C87.7751 5.80283 87.5457 6.0375 87.3644 6.36817C87.1937 6.68817 87.1084 7.11483 87.1084 7.64816V11.8722H84.9164Z" fill="black"/>
<path d="M72.9192 12.0321C72.3858 12.0321 71.9058 11.9361 71.4792 11.7441C71.0525 11.5521 70.7112 11.2481 70.4552 10.8321C70.2098 10.4054 70.0872 9.85607 70.0872 9.18407V3.87207H72.2792V8.65607C72.2792 9.27474 72.4072 9.70674 72.6632 9.95207C72.9192 10.1867 73.2872 10.3041 73.7672 10.3041C73.9912 10.3041 74.2098 10.2667 74.4232 10.1921C74.6365 10.1067 74.8232 9.97874 74.9832 9.80807C75.1538 9.6374 75.2872 9.41874 75.3832 9.15207C75.4792 8.87474 75.5272 8.5494 75.5272 8.17607V3.87207H77.7192V11.8721H75.7672L75.6872 10.4801C75.4205 11.0134 75.0525 11.4081 74.5832 11.6641C74.1245 11.9094 73.5698 12.0321 72.9192 12.0321Z" fill="black"/>
<path d="M64.205 3.71216C65.0157 3.71216 65.725 3.87749 66.333 4.20816C66.9517 4.53883 67.4317 5.01349 67.773 5.63216C68.125 6.25083 68.301 6.99749 68.301 7.87216C68.301 8.73616 68.125 9.48283 67.773 10.1122C67.4317 10.7308 66.9517 11.2055 66.333 11.5362C65.725 11.8668 65.0157 12.0322 64.205 12.0322C63.405 12.0322 62.6957 11.8668 62.077 11.5362C61.4583 11.2055 60.973 10.7308 60.621 10.1122C60.2797 9.48283 60.109 8.73616 60.109 7.87216C60.109 6.99749 60.2797 6.25083 60.621 5.63216C60.973 5.01349 61.4583 4.53883 62.077 4.20816C62.6957 3.87749 63.405 3.71216 64.205 3.71216ZM64.205 5.34416C63.7997 5.34416 63.453 5.44016 63.165 5.63216C62.8877 5.81349 62.6743 6.09082 62.525 6.46416C62.3757 6.83749 62.301 7.30683 62.301 7.87216C62.301 8.43749 62.3757 8.90683 62.525 9.28016C62.6743 9.65349 62.8877 9.93616 63.165 10.1282C63.453 10.3095 63.7997 10.4002 64.205 10.4002C64.5997 10.4002 64.9357 10.3095 65.213 10.1282C65.501 9.93616 65.7197 9.65349 65.869 9.28016C66.0183 8.90683 66.093 8.43749 66.093 7.87216C66.093 7.30683 66.0183 6.83749 65.869 6.46416C65.7197 6.09082 65.501 5.81349 65.213 5.63216C64.9357 5.44016 64.5997 5.34416 64.205 5.34416Z" fill="black"/>
<path d="M59.4364 3.87207L56.2044 12.3681C55.9484 13.0934 55.6604 13.6694 55.3404 14.0961C55.0311 14.5227 54.6684 14.8321 54.2524 15.0241C53.8471 15.2161 53.3617 15.3121 52.7964 15.3121C52.3804 15.3121 51.9964 15.2587 51.6444 15.1521C51.3031 15.0561 51.0044 14.9281 50.7484 14.7681L51.2124 13.1841C51.4151 13.3441 51.6284 13.4561 51.8524 13.5201C52.0764 13.5947 52.3324 13.6321 52.6204 13.6321C52.9191 13.6321 53.1751 13.5681 53.3884 13.4401C53.6124 13.3121 53.7991 13.0561 53.9484 12.6721L54.2204 11.9841L53.3404 9.90407L50.8924 3.87207H53.3244L54.8444 8.67207L55.2604 10.2721L55.7564 8.57607L57.2124 3.87207H59.4364Z" fill="black"/>
<path d="M43.2328 1.42407V9.26407C43.2328 9.64807 43.3288 9.93074 43.5208 10.1121C43.7235 10.2827 43.9955 10.3681 44.3368 10.3681C44.6035 10.3681 44.8382 10.3307 45.0408 10.2561C45.2435 10.1707 45.4248 10.0587 45.5848 9.92007L45.9368 11.3761C45.6808 11.5787 45.3608 11.7387 44.9768 11.8561C44.5928 11.9734 44.1875 12.0321 43.7608 12.0321C43.2275 12.0321 42.7528 11.9521 42.3368 11.7921C41.9315 11.6321 41.6115 11.3761 41.3768 11.0241C41.1528 10.6721 41.0408 10.2027 41.0408 9.61607V2.03207L43.2328 1.42407ZM45.7928 3.87207V5.50407H39.5688V3.87207H45.7928Z" fill="black"/>
<path d="M34.2644 0H36.3764L34.7764 2.72H33.1604L34.2644 0Z" fill="black"/>
<path d="M21.5101 11.8722V3.87216H23.4781L23.6061 6.27216L23.3341 6.01616C23.4621 5.49349 23.6648 5.06149 23.9421 4.72016C24.2195 4.37883 24.5555 4.12816 24.9501 3.96816C25.3555 3.79749 25.7981 3.71216 26.2781 3.71216C26.8328 3.71216 27.3235 3.81883 27.7501 4.03216C28.1875 4.24549 28.5288 4.57083 28.7741 5.00816C29.0301 5.43483 29.1581 5.97349 29.1581 6.62416V11.8722H26.9661V7.24816C26.9661 6.56549 26.8328 6.09616 26.5661 5.84016C26.2995 5.57349 25.9528 5.44016 25.5261 5.44016C25.2275 5.44016 24.9341 5.51483 24.6461 5.66416C24.3688 5.80283 24.1395 6.03216 23.9581 6.35216C23.7875 6.67216 23.7021 7.09883 23.7021 7.63216V11.8722H21.5101Z" fill="black"/>
<path d="M15.58 3.71216C16.3907 3.71216 17.1 3.87749 17.708 4.20816C18.3267 4.53883 18.8067 5.01349 19.148 5.63216C19.5 6.25083 19.676 6.99749 19.676 7.87216C19.676 8.73616 19.5 9.48283 19.148 10.1122C18.8067 10.7308 18.3267 11.2055 17.708 11.5362C17.1 11.8668 16.3907 12.0322 15.58 12.0322C14.78 12.0322 14.0707 11.8668 13.452 11.5362C12.8333 11.2055 12.348 10.7308 11.996 10.1122C11.6547 9.48283 11.484 8.73616 11.484 7.87216C11.484 6.99749 11.6547 6.25083 11.996 5.63216C12.348 5.01349 12.8333 4.53883 13.452 4.20816C14.0707 3.87749 14.78 3.71216 15.58 3.71216ZM15.58 5.34416C15.1747 5.34416 14.828 5.44016 14.54 5.63216C14.2627 5.81349 14.0493 6.09082 13.9 6.46416C13.7507 6.83749 13.676 7.30683 13.676 7.87216C13.676 8.43749 13.7507 8.90683 13.9 9.28016C14.0493 9.65349 14.2627 9.93616 14.54 10.1282C14.828 10.3095 15.1747 10.4002 15.58 10.4002C15.9747 10.4002 16.3107 10.3095 16.588 10.1282C16.876 9.93616 17.0947 9.65349 17.244 9.28016C17.3933 8.90683 17.468 8.43749 17.468 7.87216C17.468 7.30683 17.3933 6.83749 17.244 6.46416C17.0947 6.09082 16.876 5.81349 16.588 5.63216C16.3107 5.44016 15.9747 5.34416 15.58 5.34416Z" fill="black"/>
<path d="M4.73601 1.31201C6.38934 1.31201 7.66934 1.77068 8.57601 2.68801C9.48267 3.59468 9.93601 4.89601 9.93601 6.59201C9.93601 8.27734 9.48267 9.57868 8.57601 10.496C7.66934 11.4133 6.38934 11.872 4.73601 11.872H0.656006V1.31201H4.73601ZM4.62401 10.112C5.62667 10.112 6.37867 9.81334 6.88001 9.21601C7.39201 8.60801 7.64801 7.73335 7.64801 6.59201C7.64801 5.45068 7.39201 4.58135 6.88001 3.98401C6.37867 3.37601 5.62667 3.07201 4.62401 3.07201H2.86401V10.112H4.62401Z" fill="black"/>
</svg>
