<svg width="102" height="31" viewBox="0 0 102 31" fill="none" xmlns="http://www.w3.org/2000/svg">
<path d="M0 5C0 2.23858 2.23858 0 5 0H97C99.7614 0 102 2.23858 102 5V26C102 28.7614 99.7614 31 97 31H5C2.23858 31 0 28.7614 0 26V5Z" fill="white"/>
<path d="M97 30V31H5V30H97ZM101 26V5C101 2.79086 99.2091 1 97 1H5C2.79086 1 1 2.79086 1 5V26C1 28.2091 2.79086 30 5 30V31C2.23858 31 0 28.7614 0 26V5C5.15405e-07 2.23858 2.23858 0 5 0H97C99.7614 0 102 2.23858 102 5V26C102 28.7614 99.7614 31 97 31V30C99.2091 30 101 28.2091 101 26Z" fill="#C20F2F"/>
<path d="M84.6594 18.9999V13.9999H85.8894L85.9694 15.4999L85.7994 15.3399C85.8794 15.0132 86.0061 14.7432 86.1794 14.5299C86.3528 14.3166 86.5628 14.1599 86.8094 14.0599C87.0628 13.9532 87.3394 13.8999 87.6394 13.8999C87.9861 13.8999 88.2928 13.9666 88.5594 14.0999C88.8328 14.2332 89.0461 14.4366 89.1994 14.7099C89.3594 14.9766 89.4394 15.3132 89.4394 15.7199V18.9999H88.0694V16.1099C88.0694 15.6832 87.9861 15.3899 87.8194 15.2299C87.6528 15.0632 87.4361 14.9799 87.1694 14.9799C86.9828 14.9799 86.7994 15.0266 86.6194 15.1199C86.4461 15.2066 86.3028 15.3499 86.1894 15.5499C86.0828 15.7499 86.0294 16.0166 86.0294 16.3499V18.9999H84.6594Z" fill="black"/>
<path d="M80.9531 13.8999C81.4597 13.8999 81.9031 14.0032 82.2831 14.2099C82.6697 14.4166 82.9697 14.7132 83.1831 15.0999C83.4031 15.4866 83.5131 15.9532 83.5131 16.4999C83.5131 17.0399 83.4031 17.5066 83.1831 17.8999C82.9697 18.2866 82.6697 18.5832 82.2831 18.7899C81.9031 18.9966 81.4597 19.0999 80.9531 19.0999C80.4531 19.0999 80.0097 18.9966 79.6231 18.7899C79.2364 18.5832 78.9331 18.2866 78.7131 17.8999C78.4997 17.5066 78.3931 17.0399 78.3931 16.4999C78.3931 15.9532 78.4997 15.4866 78.7131 15.0999C78.9331 14.7132 79.2364 14.4166 79.6231 14.2099C80.0097 14.0032 80.4531 13.8999 80.9531 13.8999ZM80.9531 14.9199C80.6997 14.9199 80.4831 14.9799 80.3031 15.0999C80.1297 15.2132 79.9964 15.3866 79.9031 15.6199C79.8097 15.8532 79.7631 16.1466 79.7631 16.4999C79.7631 16.8532 79.8097 17.1466 79.9031 17.3799C79.9964 17.6132 80.1297 17.7899 80.3031 17.9099C80.4831 18.0232 80.6997 18.0799 80.9531 18.0799C81.1997 18.0799 81.4097 18.0232 81.5831 17.9099C81.7631 17.7899 81.8997 17.6132 81.9931 17.3799C82.0864 17.1466 82.1331 16.8532 82.1331 16.4999C82.1331 16.1466 82.0864 15.8532 81.9931 15.6199C81.8997 15.3866 81.7631 15.2132 81.5831 15.0999C81.4097 14.9799 81.1997 14.9199 80.9531 14.9199Z" fill="black"/>
<path d="M76.5409 13.2801C76.2543 13.2801 76.0409 13.2201 75.9009 13.1001C75.7609 12.9734 75.6909 12.7901 75.6909 12.5501C75.6909 12.3034 75.7609 12.1201 75.9009 12.0001C76.0409 11.8734 76.2543 11.8101 76.5409 11.8101C76.8276 11.8101 77.0409 11.8734 77.1809 12.0001C77.3209 12.1201 77.3909 12.3034 77.3909 12.5501C77.3909 12.7901 77.3209 12.9734 77.1809 13.1001C77.0409 13.2201 76.8276 13.2801 76.5409 13.2801ZM77.2209 14.0001V19.0001H75.8509V14.0001H77.2209Z" fill="black"/>
<path d="M73.3239 12.47V17.37C73.3239 17.61 73.3839 17.7866 73.5039 17.9C73.6306 18.0066 73.8006 18.06 74.0139 18.06C74.1806 18.06 74.3273 18.0366 74.4539 17.99C74.5806 17.9366 74.6939 17.8666 74.7939 17.78L75.0139 18.69C74.8539 18.8166 74.6539 18.9166 74.4139 18.99C74.1739 19.0633 73.9206 19.1 73.6539 19.1C73.3206 19.1 73.0239 19.05 72.7639 18.95C72.5106 18.85 72.3106 18.69 72.1639 18.47C72.0239 18.25 71.9539 17.9566 71.9539 17.59V12.85L73.3239 12.47ZM74.9239 14V15.02H71.0339V14H74.9239Z" fill="black"/>
<path d="M65.3333 21.0999V13.9999H66.5633L66.6533 15.5899L66.4832 15.4099C66.5432 15.1166 66.6533 14.8566 66.8133 14.6299C66.9799 14.4032 67.1899 14.2266 67.4433 14.0999C67.6966 13.9666 67.9799 13.8999 68.2933 13.8999C68.6999 13.8999 69.0633 14.0032 69.3833 14.2099C69.7033 14.4166 69.9533 14.7132 70.1333 15.0999C70.3199 15.4799 70.4132 15.9432 70.4132 16.4899C70.4132 17.0366 70.3199 17.5066 70.1333 17.8999C69.9466 18.2866 69.6899 18.5832 69.3633 18.7899C69.0433 18.9966 68.6766 19.0999 68.2633 19.0999C67.8233 19.0999 67.4566 18.9766 67.1632 18.7299C66.8766 18.4832 66.6799 18.1732 66.5732 17.7999L66.7033 17.5899V21.0999H65.3333ZM67.8633 18.0499C68.2299 18.0499 68.5166 17.9199 68.7233 17.6599C68.9366 17.3932 69.0433 17.0066 69.0433 16.4999C69.0433 15.9932 68.9399 15.6099 68.7332 15.3499C68.5332 15.0832 68.2499 14.9499 67.8833 14.9499C67.6499 14.9499 67.4433 15.0132 67.2633 15.1399C67.0899 15.2599 66.9533 15.4366 66.8533 15.6699C66.7533 15.8966 66.7033 16.1732 66.7033 16.4999C66.7033 16.8199 66.7499 17.0966 66.8433 17.3299C66.9366 17.5632 67.0699 17.7432 67.2433 17.8699C67.4233 17.9899 67.6299 18.0499 67.8633 18.0499Z" fill="black"/>
<path d="M63.2011 13.2801C62.9144 13.2801 62.7011 13.2201 62.5611 13.1001C62.4211 12.9734 62.3511 12.7901 62.3511 12.5501C62.3511 12.3034 62.4211 12.1201 62.5611 12.0001C62.7011 11.8734 62.9144 11.8101 63.2011 11.8101C63.4877 11.8101 63.7011 11.8734 63.8411 12.0001C63.9811 12.1201 64.0511 12.3034 64.0511 12.5501C64.0511 12.7901 63.9811 12.9734 63.8411 13.1001C63.7011 13.2201 63.4877 13.2801 63.2011 13.2801ZM63.8811 14.0001V19.0001H62.5111V14.0001H63.8811Z" fill="black"/>
<path d="M58.2922 18.9999V13.9999H59.4822L59.5722 14.9799C59.7056 14.6332 59.8989 14.3666 60.1522 14.1799C60.4122 13.9932 60.7356 13.8999 61.1222 13.8999C61.2356 13.8999 61.3389 13.9099 61.4322 13.9299C61.5256 13.9499 61.6022 13.9766 61.6622 14.0099L61.5022 15.1599C61.4356 15.1332 61.3522 15.1132 61.2522 15.0999C61.1589 15.0866 61.0356 15.0799 60.8822 15.0799C60.6822 15.0799 60.4889 15.1299 60.3022 15.2299C60.1156 15.3232 59.9622 15.4699 59.8422 15.6699C59.7222 15.8632 59.6622 16.1099 59.6622 16.4099V18.9999H58.2922Z" fill="black"/>
<path d="M54.9177 13.8999C55.3643 13.8999 55.741 13.9666 56.0477 14.0999C56.361 14.2266 56.611 14.4032 56.7977 14.6299C56.991 14.8499 57.1277 15.0966 57.2077 15.3699L55.9277 15.8299C55.861 15.5299 55.7477 15.3032 55.5877 15.1499C55.4277 14.9966 55.211 14.9199 54.9377 14.9199C54.6843 14.9199 54.4677 14.9799 54.2877 15.0999C54.1077 15.2132 53.971 15.3899 53.8777 15.6299C53.7843 15.8632 53.7377 16.1566 53.7377 16.5099C53.7377 16.8632 53.7843 17.1566 53.8777 17.3899C53.9777 17.6232 54.1177 17.7966 54.2977 17.9099C54.4843 18.0232 54.701 18.0799 54.9477 18.0799C55.1477 18.0799 55.3177 18.0466 55.4577 17.9799C55.5977 17.9066 55.711 17.8032 55.7977 17.6699C55.891 17.5366 55.9543 17.3766 55.9877 17.1899L57.2277 17.5899C57.1543 17.8899 57.0177 18.1532 56.8177 18.3799C56.6177 18.6066 56.361 18.7832 56.0477 18.9099C55.7343 19.0366 55.371 19.0999 54.9577 19.0999C54.4443 19.0999 53.991 18.9966 53.5977 18.7899C53.2043 18.5832 52.901 18.2866 52.6877 17.8999C52.4743 17.5132 52.3677 17.0466 52.3677 16.4999C52.3677 15.9532 52.4743 15.4866 52.6877 15.0999C52.901 14.7132 53.201 14.4166 53.5877 14.2099C53.9743 14.0032 54.4177 13.8999 54.9177 13.8999Z" fill="black"/>
<path d="M49.3548 19.0999C48.8482 19.0999 48.3848 19.0099 47.9648 18.8299C47.5515 18.6499 47.2148 18.3966 46.9548 18.0699L47.7448 17.2699C47.9048 17.5099 48.1182 17.7066 48.3848 17.8599C48.6515 18.0132 48.9682 18.0899 49.3348 18.0899C49.5948 18.0899 49.8015 18.0532 49.9548 17.9799C50.1148 17.8999 50.1948 17.7766 50.1948 17.6099C50.1948 17.5032 50.1582 17.4132 50.0848 17.3399C50.0115 17.2599 49.8648 17.1966 49.6448 17.1499L48.7648 16.9699C48.1848 16.8499 47.7715 16.6699 47.5248 16.4299C47.2848 16.1832 47.1648 15.8666 47.1648 15.4799C47.1648 15.2066 47.2448 14.9499 47.4048 14.7099C47.5715 14.4699 47.8182 14.2766 48.1448 14.1299C48.4715 13.9766 48.8782 13.8999 49.3648 13.8999C49.8648 13.8999 50.2982 13.9799 50.6648 14.1399C51.0382 14.2932 51.3315 14.5232 51.5448 14.8299L50.7248 15.6299C50.5782 15.3966 50.3848 15.2199 50.1448 15.0999C49.9115 14.9732 49.6648 14.9099 49.4048 14.9099C49.2182 14.9099 49.0582 14.9299 48.9248 14.9699C48.7915 15.0099 48.6915 15.0666 48.6248 15.1399C48.5582 15.2066 48.5248 15.2932 48.5248 15.3999C48.5248 15.5066 48.5715 15.5999 48.6648 15.6799C48.7582 15.7532 48.9282 15.8166 49.1748 15.8699L50.1948 16.0799C50.6882 16.1799 51.0415 16.3499 51.2548 16.5899C51.4682 16.8232 51.5748 17.1066 51.5748 17.4399C51.5748 17.7599 51.4882 18.0466 51.3148 18.2999C51.1482 18.5466 50.8982 18.7432 50.5648 18.8899C50.2382 19.0299 49.8348 19.0999 49.3548 19.0999Z" fill="black"/>
<path d="M43.8837 19.0999C43.357 19.0999 42.897 18.9966 42.5037 18.7899C42.117 18.5832 41.817 18.2866 41.6037 17.8999C41.3904 17.5132 41.2837 17.0466 41.2837 16.4999C41.2837 15.9532 41.3904 15.4866 41.6037 15.0999C41.817 14.7132 42.1137 14.4166 42.4937 14.2099C42.8804 14.0032 43.3204 13.8999 43.8137 13.8999C44.3204 13.8999 44.7504 14.0032 45.1037 14.2099C45.457 14.4099 45.727 14.6866 45.9137 15.0399C46.1004 15.3866 46.1937 15.7832 46.1937 16.2299C46.1937 16.3632 46.1904 16.4899 46.1837 16.6099C46.177 16.7299 46.167 16.8366 46.1537 16.9299H42.1637V15.9799H45.5537L44.8937 16.2199C44.8937 15.7999 44.797 15.4766 44.6037 15.2499C44.417 15.0232 44.1504 14.9099 43.8037 14.9099C43.5504 14.9099 43.3304 14.9699 43.1437 15.0899C42.9637 15.2099 42.827 15.3899 42.7337 15.6299C42.6404 15.8632 42.5937 16.1599 42.5937 16.5199C42.5937 16.8732 42.6437 17.1666 42.7437 17.3999C42.8504 17.6266 42.997 17.7966 43.1837 17.9099C43.377 18.0232 43.607 18.0799 43.8737 18.0799C44.167 18.0799 44.4037 18.0232 44.5837 17.9099C44.7637 17.7966 44.9037 17.6399 45.0037 17.4399L46.0937 17.8599C45.987 18.1199 45.8237 18.3432 45.6037 18.5299C45.3904 18.7166 45.1337 18.8599 44.8337 18.9599C44.5404 19.0532 44.2237 19.0999 43.8837 19.0999Z" fill="black"/>
<path d="M37.0664 12.3999C38.0997 12.3999 38.8997 12.6866 39.4664 13.2599C40.033 13.8266 40.3164 14.6399 40.3164 15.6999C40.3164 16.7532 40.033 17.5666 39.4664 18.1399C38.8997 18.7132 38.0997 18.9999 37.0664 18.9999H34.5164V12.3999H37.0664ZM36.9964 17.8999C37.623 17.8999 38.093 17.7132 38.4064 17.3399C38.7264 16.9599 38.8864 16.4132 38.8864 15.6999C38.8864 14.9866 38.7264 14.4432 38.4064 14.0699C38.093 13.6899 37.623 13.4999 36.9964 13.4999H35.8964V17.8999H36.9964Z" fill="black"/>
<path d="M28.7927 12.47V17.37C28.7927 17.61 28.8527 17.7866 28.9727 17.9C29.0994 18.0066 29.2694 18.06 29.4827 18.06C29.6494 18.06 29.796 18.0366 29.9227 17.99C30.0494 17.9366 30.1627 17.8666 30.2627 17.78L30.4827 18.69C30.3227 18.8166 30.1227 18.9166 29.8827 18.99C29.6427 19.0633 29.3894 19.1 29.1227 19.1C28.7894 19.1 28.4927 19.05 28.2327 18.95C27.9794 18.85 27.7794 18.69 27.6327 18.47C27.4927 18.25 27.4227 17.9566 27.4227 17.59V12.85L28.7927 12.47ZM30.3927 14V15.02H26.5027V14H30.3927Z" fill="black"/>
<path d="M24.8905 13.2801C24.6039 13.2801 24.3905 13.2201 24.2505 13.1001C24.1105 12.9734 24.0405 12.7901 24.0405 12.5501C24.0405 12.3034 24.1105 12.1201 24.2505 12.0001C24.3905 11.8734 24.6039 11.8101 24.8905 11.8101C25.1772 11.8101 25.3905 11.8734 25.5305 12.0001C25.6705 12.1201 25.7405 12.3034 25.7405 12.5501C25.7405 12.7901 25.6705 12.9734 25.5305 13.1001C25.3905 13.2201 25.1772 13.2801 24.8905 13.2801ZM25.5705 14.0001V19.0001H24.2005V14.0001H25.5705Z" fill="black"/>
<path d="M19.8209 19.1001C19.4076 19.1001 19.0376 18.9967 18.7109 18.7901C18.3909 18.5834 18.1376 18.2867 17.9509 17.9001C17.7709 17.5134 17.6809 17.0501 17.6809 16.5101C17.6809 15.9567 17.7776 15.4867 17.9709 15.1001C18.1642 14.7067 18.4242 14.4101 18.7509 14.2101C19.0842 14.0034 19.4576 13.9001 19.8709 13.9001C20.3109 13.9001 20.6742 14.0267 20.9609 14.2801C21.2476 14.5334 21.4342 14.8601 21.5209 15.2601L21.3909 15.4201V11.8101H22.7609V19.0001H21.5309L21.4409 17.4801L21.6109 17.5601C21.5642 17.8734 21.4576 18.1467 21.2909 18.3801C21.1242 18.6067 20.9142 18.7834 20.6609 18.9101C20.4076 19.0367 20.1276 19.1001 19.8209 19.1001ZM20.2209 18.0501C20.4609 18.0501 20.6676 17.9901 20.8409 17.8701C21.0142 17.7434 21.1476 17.5601 21.2409 17.3201C21.3409 17.0801 21.3909 16.7934 21.3909 16.4601C21.3909 16.1401 21.3442 15.8701 21.2509 15.6501C21.1576 15.4234 21.0242 15.2501 20.8509 15.1301C20.6776 15.0101 20.4742 14.9501 20.2409 14.9501C19.8676 14.9501 19.5742 15.0834 19.3609 15.3501C19.1542 15.6101 19.0509 15.9934 19.0509 16.5001C19.0509 17.0067 19.1542 17.3934 19.3609 17.6601C19.5676 17.9201 19.8542 18.0501 20.2209 18.0501Z" fill="black"/>
<path d="M11.8601 18.9999V12.3999H16.8101V13.5099H13.2401V15.1499H16.0501V16.2099H13.2401V17.8899H16.9501V18.9999H11.8601Z" fill="black"/>
</svg>
