<svg width="111" height="18" viewBox="0 0 111 18" fill="none" xmlns="http://www.w3.org/2000/svg">
<path d="M103.505 17.496C102.513 17.496 101.625 17.248 100.841 16.752C100.073 16.256 99.4647 15.544 99.0167 14.616C98.5847 13.688 98.3687 12.576 98.3687 11.28C98.3687 9.952 98.6007 8.824 99.0647 7.896C99.5287 6.952 100.153 6.24 100.937 5.76C101.737 5.264 102.633 5.016 103.625 5.016C104.681 5.016 105.553 5.32 106.241 5.928C106.929 6.536 107.377 7.32 107.585 8.28L107.273 8.664V0H110.561V17.256H107.609L107.393 13.608L107.801 13.8C107.689 14.552 107.433 15.208 107.033 15.768C106.633 16.312 106.129 16.736 105.521 17.04C104.913 17.344 104.241 17.496 103.505 17.496ZM104.465 14.976C105.041 14.976 105.537 14.832 105.953 14.544C106.369 14.24 106.689 13.8 106.913 13.224C107.153 12.648 107.273 11.96 107.273 11.16C107.273 10.392 107.161 9.744 106.937 9.216C106.713 8.672 106.393 8.256 105.977 7.968C105.561 7.68 105.073 7.536 104.513 7.536C103.617 7.536 102.913 7.856 102.401 8.496C101.905 9.12 101.657 10.04 101.657 11.256C101.657 12.472 101.905 13.4 102.401 14.04C102.897 14.664 103.585 14.976 104.465 14.976Z" fill="black"/>
<path d="M89.0781 17.2559V5.25587H91.9341L92.1501 7.60787C92.4701 6.77587 92.9341 6.13587 93.5421 5.68787C94.1661 5.23987 94.9421 5.01587 95.8701 5.01587C96.1421 5.01587 96.3901 5.03987 96.6141 5.08787C96.8381 5.13587 97.0221 5.19987 97.1661 5.27987L96.7821 8.03987C96.6221 7.97587 96.4221 7.92787 96.1821 7.89587C95.9581 7.86387 95.6621 7.84787 95.2941 7.84787C94.8141 7.84787 94.3501 7.96787 93.9021 8.20787C93.4541 8.43187 93.0861 8.78387 92.7981 9.26387C92.5101 9.72787 92.3661 10.3199 92.3661 11.0399V17.2559H89.0781Z" fill="black"/>
<path d="M80.1829 5.01587C81.3989 5.01587 82.4629 5.26387 83.3749 5.75987C84.3029 6.25587 85.0229 6.96787 85.5349 7.89587C86.0629 8.82387 86.3269 9.94387 86.3269 11.2559C86.3269 12.5519 86.0629 13.6719 85.5349 14.6159C85.0229 15.5439 84.3029 16.2559 83.3749 16.7519C82.4629 17.2479 81.3989 17.4959 80.1829 17.4959C78.9829 17.4959 77.9189 17.2479 76.9909 16.7519C76.0629 16.2559 75.3349 15.5439 74.8069 14.6159C74.2949 13.6719 74.0389 12.5519 74.0389 11.2559C74.0389 9.94387 74.2949 8.82387 74.8069 7.89587C75.3349 6.96787 76.0629 6.25587 76.9909 5.75987C77.9189 5.26387 78.9829 5.01587 80.1829 5.01587ZM80.1829 7.46387C79.5749 7.46387 79.0549 7.60787 78.6229 7.89587C78.2069 8.16787 77.8869 8.58387 77.6629 9.14387C77.4389 9.70387 77.3269 10.4079 77.3269 11.2559C77.3269 12.1039 77.4389 12.8079 77.6629 13.3679C77.8869 13.9279 78.2069 14.3519 78.6229 14.6399C79.0549 14.9119 79.5749 15.0479 80.1829 15.0479C80.7749 15.0479 81.2789 14.9119 81.6949 14.6399C82.1269 14.3519 82.4549 13.9279 82.6789 13.3679C82.9029 12.8079 83.0149 12.1039 83.0149 11.2559C83.0149 10.4079 82.9029 9.70387 82.6789 9.14387C82.4549 8.58387 82.1269 8.16787 81.6949 7.89587C81.2789 7.60787 80.7749 7.46387 80.1829 7.46387Z" fill="black"/>
<path d="M69.4956 5.25586H72.9996L69.1596 17.2559H65.3676L62.7516 9.09586L60.2316 17.2559H56.4396L52.5996 5.25586H56.1036L58.5036 14.4479L61.1676 5.25586H64.4316L67.1196 14.4479L69.4956 5.25586Z" fill="black"/>
<path d="M46.511 17.4959C45.295 17.4959 44.183 17.2799 43.175 16.8479C42.183 16.4159 41.375 15.8079 40.751 15.0239L42.647 13.1039C43.031 13.6799 43.543 14.1519 44.183 14.5199C44.823 14.8879 45.583 15.0719 46.463 15.0719C47.087 15.0719 47.583 14.9839 47.951 14.8079C48.335 14.6159 48.527 14.3199 48.527 13.9199C48.527 13.6639 48.439 13.4479 48.263 13.2719C48.087 13.0799 47.735 12.9279 47.207 12.8159L45.095 12.3839C43.703 12.0959 42.711 11.6639 42.119 11.0879C41.543 10.4959 41.255 9.73587 41.255 8.80787C41.255 8.15187 41.447 7.53587 41.831 6.95987C42.231 6.38387 42.823 5.91987 43.607 5.56787C44.391 5.19987 45.367 5.01587 46.535 5.01587C47.735 5.01587 48.775 5.20787 49.655 5.59187C50.551 5.95987 51.255 6.51187 51.767 7.24787L49.799 9.16787C49.447 8.60787 48.983 8.18387 48.407 7.89587C47.847 7.59187 47.255 7.43987 46.631 7.43987C46.183 7.43987 45.799 7.48787 45.479 7.58387C45.159 7.67987 44.919 7.81587 44.759 7.99187C44.599 8.15187 44.519 8.35987 44.519 8.61587C44.519 8.87187 44.631 9.09587 44.855 9.28787C45.079 9.46387 45.487 9.61587 46.079 9.74387L48.527 10.2479C49.711 10.4879 50.559 10.8959 51.071 11.4719C51.583 12.0319 51.839 12.7119 51.839 13.5119C51.839 14.2799 51.631 14.9679 51.215 15.5759C50.815 16.1679 50.215 16.6399 49.415 16.9919C48.631 17.3279 47.663 17.4959 46.511 17.4959Z" fill="black"/>
<path d="M33.761 17.4959C32.545 17.4959 31.433 17.2799 30.425 16.8479C29.433 16.4159 28.625 15.8079 28.001 15.0239L29.897 13.1039C30.281 13.6799 30.793 14.1519 31.433 14.5199C32.073 14.8879 32.833 15.0719 33.713 15.0719C34.337 15.0719 34.833 14.9839 35.201 14.8079C35.585 14.6159 35.777 14.3199 35.777 13.9199C35.777 13.6639 35.689 13.4479 35.513 13.2719C35.337 13.0799 34.985 12.9279 34.457 12.8159L32.345 12.3839C30.953 12.0959 29.961 11.6639 29.369 11.0879C28.793 10.4959 28.505 9.73587 28.505 8.80787C28.505 8.15187 28.697 7.53587 29.081 6.95987C29.481 6.38387 30.073 5.91987 30.857 5.56787C31.641 5.19987 32.617 5.01587 33.785 5.01587C34.985 5.01587 36.025 5.20787 36.905 5.59187C37.801 5.95987 38.505 6.51187 39.017 7.24787L37.049 9.16787C36.697 8.60787 36.233 8.18387 35.657 7.89587C35.097 7.59187 34.505 7.43987 33.881 7.43987C33.433 7.43987 33.049 7.48787 32.729 7.58387C32.409 7.67987 32.169 7.81587 32.009 7.99187C31.849 8.15187 31.769 8.35987 31.769 8.61587C31.769 8.87187 31.881 9.09587 32.105 9.28787C32.329 9.46387 32.737 9.61587 33.329 9.74387L35.777 10.2479C36.961 10.4879 37.809 10.8959 38.321 11.4719C38.833 12.0319 39.089 12.7119 39.089 13.5119C39.089 14.2799 38.881 14.9679 38.465 15.5759C38.065 16.1679 37.465 16.6399 36.665 16.9919C35.881 17.3279 34.913 17.4959 33.761 17.4959Z" fill="black"/>
<path d="M22.0196 9.59987C22.0196 8.91187 21.8196 8.37587 21.4196 7.99187C21.0356 7.60787 20.5236 7.41587 19.8836 7.41587C19.2916 7.41587 18.7716 7.56787 18.3236 7.87187C17.8756 8.17587 17.5476 8.67987 17.3396 9.38387L14.5316 8.51987C14.8036 7.46387 15.3956 6.61587 16.3076 5.97587C17.2356 5.33587 18.4756 5.01587 20.0276 5.01587C21.0836 5.01587 22.0036 5.18387 22.7876 5.51987C23.5716 5.83987 24.1796 6.32787 24.6116 6.98387C25.0596 7.63987 25.2836 8.46387 25.2836 9.45587V14.3279C25.2836 14.9359 25.5716 15.2399 26.1476 15.2399C26.4196 15.2399 26.6756 15.1999 26.9156 15.1199L26.7236 17.1599C26.3076 17.3679 25.7876 17.4719 25.1636 17.4719C24.6036 17.4719 24.0996 17.3759 23.6516 17.1839C23.2036 16.9919 22.8516 16.7039 22.5956 16.3199C22.3396 15.9199 22.2116 15.4239 22.2116 14.8319V14.7359L22.7876 14.6399C22.6916 15.2479 22.4276 15.7679 21.9956 16.1999C21.5636 16.6159 21.0356 16.9359 20.4116 17.1599C19.8036 17.3839 19.1716 17.4959 18.5156 17.4959C17.6996 17.4959 16.9956 17.3759 16.4036 17.1359C15.8116 16.8799 15.3556 16.5119 15.0356 16.0319C14.7156 15.5519 14.5556 14.9599 14.5556 14.2559C14.5556 13.3599 14.8436 12.6319 15.4196 12.0719C15.9956 11.4959 16.8196 11.1039 17.8916 10.8959L22.4036 9.98387L22.3796 12.0239L19.4996 12.5999C18.9556 12.7119 18.5396 12.8639 18.2516 13.0559C17.9796 13.2319 17.8436 13.5279 17.8436 13.9439C17.8436 14.3439 17.9876 14.6479 18.2756 14.8559C18.5796 15.0639 18.9396 15.1679 19.3556 15.1679C19.6916 15.1679 20.0196 15.1279 20.3396 15.0479C20.6596 14.9679 20.9476 14.8399 21.2036 14.6639C21.4596 14.4879 21.6596 14.2479 21.8036 13.9439C21.9476 13.6399 22.0196 13.2719 22.0196 12.8399V9.59987Z" fill="black"/>
<path d="M6.648 1.41577C7.864 1.41577 8.904 1.62377 9.768 2.03977C10.632 2.43977 11.296 3.02377 11.76 3.79177C12.24 4.54377 12.48 5.45577 12.48 6.52777C12.48 7.59977 12.24 8.51977 11.76 9.28777C11.296 10.0398 10.632 10.6238 9.768 11.0398C8.904 11.4398 7.864 11.6398 6.648 11.6398H3.312V17.2558H0V1.41577H6.648ZM6.144 9.02377C7.136 9.02377 7.88 8.81577 8.376 8.39977C8.872 7.96777 9.12 7.34377 9.12 6.52777C9.12 5.69577 8.872 5.07177 8.376 4.65577C7.88 4.23977 7.136 4.03177 6.144 4.03177H3.312V9.02377H6.144Z" fill="black"/>
</svg>
