<svg width="64" height="18" viewBox="0 0 64 18" fill="none" xmlns="http://www.w3.org/2000/svg">
<path d="M61.3337 0V13.56C61.3337 14.12 61.4297 14.512 61.6217 14.736C61.8137 14.96 62.1337 15.072 62.5817 15.072C62.8537 15.072 63.0777 15.056 63.2537 15.024C63.4297 14.976 63.6537 14.912 63.9257 14.832L63.6377 16.992C63.3657 17.152 63.0217 17.272 62.6057 17.352C62.2057 17.448 61.8057 17.496 61.4057 17.496C60.2377 17.496 59.3817 17.216 58.8377 16.656C58.3097 16.08 58.0457 15.168 58.0457 13.92V0H61.3337Z" fill="black"/>
<path d="M52.9763 3.528C52.2883 3.528 51.7763 3.384 51.4403 3.096C51.1043 2.792 50.9363 2.352 50.9363 1.776C50.9363 1.184 51.1043 0.743999 51.4403 0.455999C51.7763 0.151999 52.2883 0 52.9763 0C53.6643 0 54.1763 0.151999 54.5123 0.455999C54.8483 0.743999 55.0163 1.184 55.0163 1.776C55.0163 2.352 54.8483 2.792 54.5123 3.096C54.1763 3.384 53.6643 3.528 52.9763 3.528ZM54.6083 5.256V17.256H51.3203V5.256H54.6083Z" fill="black"/>
<path d="M44.3791 9.59963C44.3791 8.91163 44.1791 8.37563 43.7791 7.99163C43.3951 7.60763 42.8831 7.41563 42.2431 7.41563C41.6511 7.41563 41.1311 7.56763 40.6831 7.87163C40.2351 8.17563 39.9071 8.67963 39.6991 9.38363L36.8911 8.51963C37.1631 7.46363 37.7551 6.61563 38.6671 5.97563C39.5951 5.33563 40.8351 5.01562 42.3871 5.01562C43.4431 5.01562 44.3631 5.18363 45.1471 5.51963C45.9311 5.83963 46.5391 6.32763 46.9711 6.98363C47.4191 7.63963 47.6431 8.46363 47.6431 9.45563V14.3276C47.6431 14.9356 47.9311 15.2396 48.5071 15.2396C48.7791 15.2396 49.0351 15.1996 49.2751 15.1196L49.0831 17.1596C48.6671 17.3676 48.1471 17.4716 47.5231 17.4716C46.9631 17.4716 46.4591 17.3756 46.0111 17.1836C45.5631 16.9916 45.2111 16.7036 44.9551 16.3196C44.6991 15.9196 44.5711 15.4236 44.5711 14.8316V14.7356L45.1471 14.6396C45.0511 15.2476 44.7871 15.7676 44.3551 16.1996C43.9231 16.6156 43.3951 16.9356 42.7711 17.1596C42.1631 17.3836 41.5311 17.4956 40.8751 17.4956C40.0591 17.4956 39.3551 17.3756 38.7631 17.1356C38.1711 16.8796 37.7151 16.5116 37.3951 16.0316C37.0751 15.5516 36.9151 14.9596 36.9151 14.2556C36.9151 13.3596 37.2031 12.6316 37.7791 12.0716C38.3551 11.4956 39.1791 11.1036 40.2511 10.8956L44.7631 9.98363L44.7391 12.0236L41.8591 12.5996C41.3151 12.7116 40.8991 12.8636 40.6111 13.0556C40.3391 13.2316 40.2031 13.5276 40.2031 13.9436C40.2031 14.3436 40.3471 14.6476 40.6351 14.8556C40.9391 15.0636 41.2991 15.1676 41.7151 15.1676C42.0511 15.1676 42.3791 15.1276 42.6991 15.0476C43.0191 14.9676 43.3071 14.8396 43.5631 14.6636C43.8191 14.4876 44.0191 14.2476 44.1631 13.9436C44.3071 13.6396 44.3791 13.2716 44.3791 12.8396V9.59963Z" fill="black"/>
<path d="M14.8516 17.2556V5.25563H17.8036L17.9236 7.41563C18.3236 6.61563 18.8676 6.01563 19.5556 5.61563C20.2596 5.21563 21.0356 5.01562 21.8836 5.01562C22.7476 5.01562 23.5236 5.21563 24.2116 5.61563C24.9156 6.01563 25.4436 6.60763 25.7956 7.39163C26.0516 6.86363 26.3956 6.42363 26.8276 6.07163C27.2596 5.71963 27.7396 5.45563 28.2676 5.27963C28.7956 5.10363 29.3316 5.01562 29.8756 5.01562C30.6596 5.01562 31.3716 5.17563 32.0116 5.49563C32.6676 5.81563 33.1876 6.29563 33.5716 6.93563C33.9556 7.57563 34.1476 8.39162 34.1476 9.38363V17.2556H30.8596V10.0316C30.8596 9.15163 30.6676 8.52763 30.2836 8.15963C29.8996 7.79163 29.4036 7.60763 28.7956 7.60763C28.3156 7.60763 27.8676 7.72763 27.4516 7.96763C27.0516 8.20763 26.7316 8.56763 26.4916 9.04763C26.2676 9.51163 26.1556 10.0956 26.1556 10.7996V17.2556H22.8676V10.0316C22.8676 9.15163 22.6676 8.52763 22.2676 8.15963C21.8836 7.79163 21.3876 7.60763 20.7796 7.60763C20.3636 7.60763 19.9476 7.71963 19.5316 7.94363C19.1316 8.16763 18.7956 8.51963 18.5236 8.99963C18.2676 9.47963 18.1396 10.1116 18.1396 10.8956V17.2556H14.8516Z" fill="black"/>
<path d="M0 17.256V1.41602H11.88V4.08002H3.312V8.01602H10.056V10.56H3.312V14.592H12.216V17.256H0Z" fill="black"/>
</svg>
