<svg width="35" height="12" viewBox="0 0 35 12" fill="none" xmlns="http://www.w3.org/2000/svg">
<path d="M30.8695 11.6638C30.0268 11.6638 29.2908 11.4984 28.6615 11.1678C28.0428 10.8371 27.5628 10.3624 27.2215 9.74375C26.8801 9.12508 26.7095 8.37842 26.7095 7.50375C26.7095 6.62908 26.8801 5.88242 27.2215 5.26375C27.5628 4.64508 28.0375 4.17042 28.6455 3.83975C29.2641 3.50908 29.9681 3.34375 30.7575 3.34375C31.5681 3.34375 32.2561 3.50908 32.8215 3.83975C33.3868 4.15975 33.8188 4.60242 34.1175 5.16775C34.4161 5.72242 34.5655 6.35708 34.5655 7.07175C34.5655 7.28508 34.5601 7.48775 34.5495 7.67975C34.5388 7.87175 34.5228 8.04242 34.5015 8.19175H28.1175V6.67175H33.5415L32.4855 7.05575C32.4855 6.38375 32.3308 5.86642 32.0215 5.50375C31.7228 5.14108 31.2961 4.95975 30.7415 4.95975C30.3361 4.95975 29.9841 5.05575 29.6855 5.24775C29.3975 5.43975 29.1788 5.72775 29.0295 6.11175C28.8801 6.48508 28.8055 6.95975 28.8055 7.53575C28.8055 8.10108 28.8855 8.57042 29.0455 8.94375C29.2161 9.30642 29.4508 9.57842 29.7495 9.75975C30.0588 9.94108 30.4268 10.0318 30.8535 10.0318C31.3228 10.0318 31.7015 9.94108 31.9895 9.75975C32.2775 9.57842 32.5015 9.32775 32.6615 9.00775L34.4055 9.67975C34.2348 10.0958 33.9735 10.4531 33.6215 10.7518C33.2801 11.0504 32.8695 11.2798 32.3895 11.4398C31.9201 11.5891 31.4135 11.6638 30.8695 11.6638Z" fill="black"/>
<path d="M24.2081 0V9.04C24.2081 9.41333 24.2721 9.67467 24.4001 9.824C24.5281 9.97333 24.7414 10.048 25.0401 10.048C25.2214 10.048 25.3708 10.0373 25.4881 10.016C25.6054 9.984 25.7548 9.94133 25.9361 9.888L25.7441 11.328C25.5628 11.4347 25.3334 11.5147 25.0561 11.568C24.7894 11.632 24.5228 11.664 24.2561 11.664C23.4774 11.664 22.9068 11.4773 22.5441 11.104C22.1921 10.72 22.0161 10.112 22.0161 9.28V0H24.2081Z" fill="black"/>
<path d="M18.0052 1.05566V8.89567C18.0052 9.27966 18.1012 9.56233 18.2932 9.74366C18.4959 9.91433 18.7679 9.99967 19.1092 9.99967C19.3759 9.99967 19.6105 9.96233 19.8132 9.88766C20.0159 9.80233 20.1972 9.69033 20.3572 9.55167L20.7092 11.0077C20.4532 11.2103 20.1332 11.3703 19.7492 11.4877C19.3652 11.605 18.9599 11.6637 18.5332 11.6637C17.9999 11.6637 17.5252 11.5837 17.1092 11.4237C16.7039 11.2637 16.3839 11.0077 16.1492 10.6557C15.9252 10.3037 15.8132 9.83433 15.8132 9.24767V1.66366L18.0052 1.05566ZM20.5652 3.50366V5.13566H14.3412V3.50366H20.5652Z" fill="black"/>
<path d="M11.7615 2.352C11.3028 2.352 10.9615 2.256 10.7375 2.064C10.5135 1.86133 10.4015 1.568 10.4015 1.184C10.4015 0.789333 10.5135 0.496 10.7375 0.304C10.9615 0.101333 11.3028 0 11.7615 0C12.2202 0 12.5615 0.101333 12.7855 0.304C13.0095 0.496 13.1215 0.789333 13.1215 1.184C13.1215 1.568 13.0095 1.86133 12.7855 2.064C12.5615 2.256 12.2202 2.352 11.7615 2.352ZM12.8495 3.504V11.504H10.6575V3.504H12.8495Z" fill="black"/>
<path d="M9.296 0.943848V2.71985H5.76V11.5038H3.552V2.71985H0V0.943848H9.296Z" fill="black"/>
</svg>
