<svg width="93" height="88" viewBox="0 0 93 88" fill="none" xmlns="http://www.w3.org/2000/svg">
<g clip-path="url(#clip0_27_27)">
<path d="M4.11428 1.58436C-1.14335 15.5842 12.0407 22.1916 12.0407 22.1916C12.0407 22.1916 17.3975 8.45261 4.11428 1.58436Z" fill="#69C3E8"/>
<path d="M17.8337 31.4675C16.6302 46.3742 31.1239 49.1 31.1239 49.1C31.1239 49.1 32.4945 34.4167 17.8337 31.4675Z" fill="#69C3E8"/>
<path d="M41.022 57.0296C43.9806 71.6981 58.6722 70.3176 58.6722 70.3176C58.6722 70.3176 55.9361 55.8178 41.022 57.0296Z" fill="#69C3E8"/>
<path d="M69.8315 75.4278C76.9434 88.5859 90.5845 82.9758 90.5845 82.9758C90.5845 82.9758 83.7344 69.914 69.8315 75.4278Z" fill="#69C3E8"/>
</g>
<defs>
<clipPath id="clip0_27_27">
<rect width="92.06" height="87.136" fill="white"/>
</clipPath>
</defs>
</svg>
