<svg width="296" height="50" viewBox="0 0 296 50" fill="none" xmlns="http://www.w3.org/2000/svg">
<path d="M0 0H296V50H0V0Z" fill="white"/>
<path d="M74.7173 33.1998C73.704 33.1998 72.7773 33.0198 71.9373 32.6598C71.1107 32.2998 70.4373 31.7931 69.9173 31.1398L71.4973 29.5398C71.8173 30.0198 72.244 30.4131 72.7773 30.7198C73.3107 31.0265 73.944 31.1798 74.6773 31.1798C75.1973 31.1798 75.6107 31.1065 75.9173 30.9598C76.2373 30.7998 76.3973 30.5531 76.3973 30.2198C76.3973 30.0065 76.324 29.8265 76.1773 29.6798C76.0307 29.5198 75.7373 29.3931 75.2973 29.2998L73.5373 28.9398C72.3773 28.6998 71.5507 28.3398 71.0573 27.8598C70.5773 27.3665 70.3373 26.7331 70.3373 25.9598C70.3373 25.4131 70.4973 24.8998 70.8173 24.4198C71.1507 23.9398 71.644 23.5531 72.2973 23.2598C72.9507 22.9531 73.764 22.7998 74.7373 22.7998C75.7373 22.7998 76.604 22.9598 77.3373 23.2798C78.084 23.5865 78.6707 24.0465 79.0973 24.6598L77.4573 26.2598C77.164 25.7931 76.7773 25.4398 76.2973 25.1998C75.8307 24.9465 75.3373 24.8198 74.8173 24.8198C74.444 24.8198 74.124 24.8598 73.8573 24.9398C73.5907 25.0198 73.3907 25.1331 73.2573 25.2798C73.124 25.4131 73.0573 25.5865 73.0573 25.7998C73.0573 26.0131 73.1507 26.1998 73.3373 26.3598C73.524 26.5065 73.864 26.6331 74.3573 26.7398L76.3973 27.1598C77.384 27.3598 78.0907 27.6998 78.5173 28.1798C78.944 28.6465 79.1573 29.2131 79.1573 29.8798C79.1573 30.5198 78.984 31.0931 78.6373 31.5998C78.304 32.0931 77.804 32.4865 77.1373 32.7798C76.484 33.0598 75.6773 33.1998 74.7173 33.1998Z" fill="black"/>
<path d="M69.0028 23.0001L64.3828 27.8201L63.8428 28.0801L60.8428 31.3001L60.8028 28.3801L65.8828 23.0001H69.0028ZM61.5628 18.6201V33.0001H58.8228V18.6201H61.5628ZM64.7628 26.1801L69.2428 33.0001H66.1428L62.8828 27.7801L64.7628 26.1801Z" fill="black"/>
<path d="M51.4102 22.7998C52.4235 22.7998 53.3102 23.0065 54.0702 23.4198C54.8435 23.8331 55.4435 24.4265 55.8702 25.1998C56.3102 25.9731 56.5302 26.9065 56.5302 27.9998C56.5302 29.0798 56.3102 30.0131 55.8702 30.7998C55.4435 31.5731 54.8435 32.1665 54.0702 32.5798C53.3102 32.9931 52.4235 33.1998 51.4102 33.1998C50.4102 33.1998 49.5235 32.9931 48.7502 32.5798C47.9768 32.1665 47.3702 31.5731 46.9302 30.7998C46.5035 30.0131 46.2902 29.0798 46.2902 27.9998C46.2902 26.9065 46.5035 25.9731 46.9302 25.1998C47.3702 24.4265 47.9768 23.8331 48.7502 23.4198C49.5235 23.0065 50.4102 22.7998 51.4102 22.7998ZM51.4102 24.8398C50.9035 24.8398 50.4702 24.9598 50.1102 25.1998C49.7635 25.4265 49.4968 25.7731 49.3102 26.2398C49.1235 26.7065 49.0302 27.2931 49.0302 27.9998C49.0302 28.7065 49.1235 29.2931 49.3102 29.7598C49.4968 30.2265 49.7635 30.5798 50.1102 30.8198C50.4702 31.0465 50.9035 31.1598 51.4102 31.1598C51.9035 31.1598 52.3235 31.0465 52.6702 30.8198C53.0302 30.5798 53.3035 30.2265 53.4902 29.7598C53.6768 29.2931 53.7702 28.7065 53.7702 27.9998C53.7702 27.2931 53.6768 26.7065 53.4902 26.2398C53.3035 25.7731 53.0302 25.4265 52.6702 25.1998C52.3235 24.9598 51.9035 24.8398 51.4102 24.8398Z" fill="black"/>
<path d="M39.4375 22.7998C40.4508 22.7998 41.3375 23.0065 42.0975 23.4198C42.8708 23.8331 43.4708 24.4265 43.8975 25.1998C44.3375 25.9731 44.5575 26.9065 44.5575 27.9998C44.5575 29.0798 44.3375 30.0131 43.8975 30.7998C43.4708 31.5731 42.8708 32.1665 42.0975 32.5798C41.3375 32.9931 40.4508 33.1998 39.4375 33.1998C38.4375 33.1998 37.5508 32.9931 36.7775 32.5798C36.0042 32.1665 35.3975 31.5731 34.9575 30.7998C34.5308 30.0131 34.3175 29.0798 34.3175 27.9998C34.3175 26.9065 34.5308 25.9731 34.9575 25.1998C35.3975 24.4265 36.0042 23.8331 36.7775 23.4198C37.5508 23.0065 38.4375 22.7998 39.4375 22.7998ZM39.4375 24.8398C38.9308 24.8398 38.4975 24.9598 38.1375 25.1998C37.7908 25.4265 37.5242 25.7731 37.3375 26.2398C37.1508 26.7065 37.0575 27.2931 37.0575 27.9998C37.0575 28.7065 37.1508 29.2931 37.3375 29.7598C37.5242 30.2265 37.7908 30.5798 38.1375 30.8198C38.4975 31.0465 38.9308 31.1598 39.4375 31.1598C39.9308 31.1598 40.3508 31.0465 40.6975 30.8198C41.0575 30.5798 41.3308 30.2265 41.5175 29.7598C41.7042 29.2931 41.7975 28.7065 41.7975 27.9998C41.7975 27.2931 41.7042 26.7065 41.5175 26.2398C41.3308 25.7731 41.0575 25.4265 40.6975 25.1998C40.3508 24.9598 39.9308 24.8398 39.4375 24.8398Z" fill="black"/>
<path d="M21.72 32.9998V19.7998H27.5C29.1 19.7998 30.28 20.1131 31.04 20.7398C31.8 21.3665 32.18 22.2531 32.18 23.3998C32.18 24.1065 31.9667 24.7331 31.54 25.2798C31.1133 25.8265 30.4867 26.1731 29.66 26.3198V26.3398C30.58 26.4731 31.2867 26.8198 31.78 27.3798C32.2733 27.9398 32.52 28.6065 32.52 29.3798C32.52 30.5131 32.1067 31.3998 31.28 32.0398C30.4667 32.6798 29.2733 32.9998 27.7 32.9998H21.72ZM24.4 30.9198H27.46C28.2067 30.9198 28.76 30.7665 29.12 30.4598C29.48 30.1531 29.66 29.7265 29.66 29.1798C29.66 28.6198 29.48 28.1931 29.12 27.8998C28.76 27.6065 28.2067 27.4598 27.46 27.4598H24.4V30.9198ZM24.4 25.3398H27.14C28.5933 25.3398 29.32 24.7731 29.32 23.6398C29.32 22.5065 28.5933 21.9398 27.14 21.9398H24.4V25.3398Z" fill="black"/>
</svg>
