<svg width="296" height="50" viewBox="0 0 296 50" fill="none" xmlns="http://www.w3.org/2000/svg">
<path d="M0 0H296V50H0V0Z" fill="white"/>
<path d="M81.1431 33.1998C80.1298 33.1998 79.2031 33.0198 78.3631 32.6598C77.5365 32.2998 76.8631 31.7931 76.3431 31.1398L77.9231 29.5398C78.2431 30.0198 78.6698 30.4131 79.2031 30.7198C79.7365 31.0265 80.3698 31.1798 81.1031 31.1798C81.6231 31.1798 82.0365 31.1065 82.3431 30.9598C82.6631 30.7998 82.8231 30.5531 82.8231 30.2198C82.8231 30.0065 82.7498 29.8265 82.6031 29.6798C82.4565 29.5198 82.1631 29.3931 81.7231 29.2998L79.9631 28.9398C78.8031 28.6998 77.9765 28.3398 77.4831 27.8598C77.0031 27.3665 76.7631 26.7331 76.7631 25.9598C76.7631 25.4131 76.9231 24.8998 77.2431 24.4198C77.5765 23.9398 78.0698 23.5531 78.7231 23.2598C79.3765 22.9531 80.1898 22.7998 81.1631 22.7998C82.1631 22.7998 83.0298 22.9598 83.7631 23.2798C84.5098 23.5865 85.0965 24.0465 85.5231 24.6598L83.8831 26.2598C83.5898 25.7931 83.2031 25.4398 82.7231 25.1998C82.2565 24.9465 81.7631 24.8198 81.2431 24.8198C80.8698 24.8198 80.5498 24.8598 80.2831 24.9398C80.0165 25.0198 79.8165 25.1331 79.6831 25.2798C79.5498 25.4131 79.4831 25.5865 79.4831 25.7998C79.4831 26.0131 79.5765 26.1998 79.7631 26.3598C79.9498 26.5065 80.2898 26.6331 80.7831 26.7398L82.8231 27.1598C83.8098 27.3598 84.5165 27.6998 84.9431 28.1798C85.3698 28.6465 85.5831 29.2131 85.5831 29.8798C85.5831 30.5198 85.4098 31.0931 85.0631 31.5998C84.7298 32.0931 84.2298 32.4865 83.5631 32.7798C82.9098 33.0598 82.1031 33.1998 81.1431 33.1998Z" fill="black"/>
<path d="M68.9791 32.9998V22.9998H71.3591L71.5391 24.9598C71.8057 24.2665 72.1924 23.7331 72.6991 23.3598C73.2191 22.9865 73.8657 22.7998 74.6391 22.7998C74.8657 22.7998 75.0724 22.8198 75.2591 22.8598C75.4457 22.8998 75.5991 22.9531 75.7191 23.0198L75.3991 25.3198C75.2657 25.2665 75.0991 25.2265 74.8991 25.1998C74.7124 25.1731 74.4657 25.1598 74.1591 25.1598C73.7591 25.1598 73.3724 25.2598 72.9991 25.4598C72.6257 25.6465 72.3191 25.9398 72.0791 26.3398C71.8391 26.7265 71.7191 27.2198 71.7191 27.8198V32.9998H68.9791Z" fill="black"/>
<path d="M62.037 33.1998C60.9837 33.1998 60.0637 32.9931 59.277 32.5798C58.5037 32.1665 57.9037 31.5731 57.477 30.7998C57.0504 30.0265 56.837 29.0931 56.837 27.9998C56.837 26.9065 57.0504 25.9731 57.477 25.1998C57.9037 24.4265 58.497 23.8331 59.257 23.4198C60.0304 23.0065 60.9104 22.7998 61.897 22.7998C62.9104 22.7998 63.7704 23.0065 64.477 23.4198C65.1837 23.8198 65.7237 24.3731 66.097 25.0798C66.4704 25.7731 66.657 26.5665 66.657 27.4598C66.657 27.7265 66.6504 27.9798 66.637 28.2198C66.6237 28.4598 66.6037 28.6731 66.577 28.8598H58.597V26.9598H65.377L64.057 27.4398C64.057 26.5998 63.8637 25.9531 63.477 25.4998C63.1037 25.0465 62.5704 24.8198 61.877 24.8198C61.3704 24.8198 60.9304 24.9398 60.557 25.1798C60.197 25.4198 59.9237 25.7798 59.737 26.2598C59.5504 26.7265 59.457 27.3198 59.457 28.0398C59.457 28.7465 59.557 29.3331 59.757 29.7998C59.9704 30.2531 60.2637 30.5931 60.637 30.8198C61.0237 31.0465 61.4837 31.1598 62.017 31.1598C62.6037 31.1598 63.077 31.0465 63.437 30.8198C63.797 30.5931 64.077 30.2798 64.277 29.8798L66.457 30.7198C66.2437 31.2398 65.917 31.6865 65.477 32.0598C65.0504 32.4331 64.537 32.7198 63.937 32.9198C63.3504 33.1065 62.717 33.1998 62.037 33.1998Z" fill="black"/>
<path d="M45.0142 33.0001V18.6201H47.7542V24.7001C48.0742 24.0601 48.5142 23.5868 49.0742 23.2801C49.6342 22.9601 50.2676 22.8001 50.9742 22.8001C51.6676 22.8001 52.2809 22.9335 52.8142 23.2001C53.3609 23.4668 53.7876 23.8735 54.0942 24.4201C54.4142 24.9535 54.5742 25.6268 54.5742 26.4401V33.0001H51.8342V27.2401C51.8342 26.3735 51.6676 25.7801 51.3342 25.4601C51.0009 25.1268 50.5742 24.9601 50.0542 24.9601C49.6676 24.9601 49.2942 25.0535 48.9342 25.2401C48.5876 25.4135 48.3009 25.7068 48.0742 26.1201C47.8609 26.5201 47.7542 27.0535 47.7542 27.7201V33.0001H45.0142Z" fill="black"/>
<path d="M39.8042 19.9399V29.7399C39.8042 30.2199 39.9242 30.5733 40.1642 30.7999C40.4175 31.0133 40.7575 31.1199 41.1842 31.1199C41.5175 31.1199 41.8109 31.0733 42.0642 30.9799C42.3175 30.8733 42.5442 30.7333 42.7442 30.5599L43.1842 32.3799C42.8642 32.6333 42.4642 32.8333 41.9842 32.9799C41.5042 33.1266 40.9975 33.1999 40.4642 33.1999C39.7975 33.1999 39.2042 33.0999 38.6842 32.8999C38.1775 32.6999 37.7775 32.3799 37.4842 31.9399C37.2042 31.4999 37.0642 30.9133 37.0642 30.1799V20.6999L39.8042 19.9399ZM43.0042 22.9999V25.0399H35.2242V22.9999H43.0042Z" fill="black"/>
<path d="M27.42 19.6001C28.7267 19.6001 29.8533 19.8734 30.8 20.4201C31.7467 20.9668 32.4733 21.7468 32.98 22.7601C33.5 23.7734 33.76 24.9868 33.76 26.4001C33.76 27.8134 33.5 29.0268 32.98 30.0401C32.4733 31.0534 31.7467 31.8334 30.8 32.3801C29.8533 32.9268 28.7267 33.2001 27.42 33.2001C26.1133 33.2001 24.98 32.9268 24.02 32.3801C23.0733 31.8334 22.34 31.0534 21.82 30.0401C21.3133 29.0268 21.06 27.8134 21.06 26.4001C21.06 24.9868 21.3133 23.7734 21.82 22.7601C22.34 21.7468 23.0733 20.9668 24.02 20.4201C24.98 19.8734 26.1133 19.6001 27.42 19.6001ZM27.42 21.8601C26.6733 21.8601 26.04 22.0334 25.52 22.3801C25 22.7268 24.6 23.2401 24.32 23.9201C24.0533 24.5868 23.92 25.4134 23.92 26.4001C23.92 27.3734 24.0533 28.2001 24.32 28.8801C24.6 29.5601 25 30.0734 25.52 30.4201C26.04 30.7668 26.6733 30.9401 27.42 30.9401C28.1533 30.9401 28.78 30.7668 29.3 30.4201C29.82 30.0734 30.2133 29.5601 30.48 28.8801C30.76 28.2001 30.9 27.3734 30.9 26.4001C30.9 25.4134 30.76 24.5868 30.48 23.9201C30.2133 23.2401 29.82 22.7268 29.3 22.3801C28.78 22.0334 28.1533 21.8601 27.42 21.8601Z" fill="black"/>
</svg>
