<svg width="105" height="20" viewBox="0 0 105 20" fill="none" xmlns="http://www.w3.org/2000/svg">
<path d="M97.4059 8.43737V14.9999H95.7298V4.09078H97.3491V5.79532H97.4911C97.7468 5.24134 98.1351 4.79627 98.6559 4.46009C99.1767 4.11919 99.8491 3.94873 100.673 3.94873C101.412 3.94873 102.058 4.10025 102.612 4.40328C103.166 4.70157 103.597 5.15612 103.904 5.76691C104.212 6.37297 104.366 7.14002 104.366 8.06805V14.9999H102.69V8.18168C102.69 7.32468 102.467 6.65706 102.022 6.17884C101.577 5.69589 100.967 5.45441 100.19 5.45441C99.655 5.45441 99.1767 5.57042 98.7553 5.80242C98.3387 6.03443 98.0096 6.37297 97.7681 6.81805C97.5266 7.26312 97.4059 7.8029 97.4059 8.43737Z" fill="black"/>
<path d="M88.228 15.2271C87.2432 15.2271 86.379 14.9928 85.6357 14.524C84.897 14.0553 84.3194 13.3995 83.9027 12.5567C83.4908 11.7139 83.2848 10.729 83.2848 9.60214C83.2848 8.46577 83.4908 7.47382 83.9027 6.62629C84.3194 5.77875 84.897 5.12061 85.6357 4.65186C86.379 4.18311 87.2432 3.94873 88.228 3.94873C89.2129 3.94873 90.0746 4.18311 90.8132 4.65186C91.5566 5.12061 92.1342 5.77875 92.5462 6.62629C92.9628 7.47382 93.1712 8.46577 93.1712 9.60214C93.1712 10.729 92.9628 11.7139 92.5462 12.5567C92.1342 13.3995 91.5566 14.0553 90.8132 14.524C90.0746 14.9928 89.2129 15.2271 88.228 15.2271ZM88.228 13.7215C88.9761 13.7215 89.5916 13.5297 90.0746 13.1462C90.5575 12.7627 90.915 12.2584 91.147 11.6334C91.379 11.0084 91.495 10.3313 91.495 9.60214C91.495 8.87297 91.379 8.19352 91.147 7.56379C90.915 6.93405 90.5575 6.42506 90.0746 6.0368C89.5916 5.64854 88.9761 5.45441 88.228 5.45441C87.4799 5.45441 86.8644 5.64854 86.3814 6.0368C85.8985 6.42506 85.541 6.93405 85.309 7.56379C85.077 8.19352 84.961 8.87297 84.961 9.60214C84.961 10.3313 85.077 11.0084 85.309 11.6334C85.541 12.2584 85.8985 12.7627 86.3814 13.1462C86.8644 13.5297 87.4799 13.7215 88.228 13.7215Z" fill="black"/>
<path d="M79.0501 15V4.09091H80.7262V15H79.0501ZM79.9023 2.27273C79.5756 2.27273 79.2939 2.16146 79.0572 1.93892C78.8252 1.71638 78.7092 1.44886 78.7092 1.13636C78.7092 0.823864 78.8252 0.556344 79.0572 0.333806C79.2939 0.111269 79.5756 0 79.9023 0C80.229 0 80.5084 0.111269 80.7404 0.333806C80.9772 0.556344 81.0955 0.823864 81.0955 1.13636C81.0955 1.44886 80.9772 1.71638 80.7404 1.93892C80.5084 2.16146 80.229 2.27273 79.9023 2.27273Z" fill="black"/>
<path d="M76.5288 4.09093V5.51139H70.8754V4.09093H76.5288ZM72.5231 1.47729H74.1992V11.875C74.1992 12.3485 74.2679 12.7036 74.4052 12.9404C74.5472 13.1724 74.7272 13.3286 74.945 13.4091C75.1675 13.4849 75.4019 13.5228 75.6481 13.5228C75.8328 13.5228 75.9843 13.5133 76.1026 13.4943C76.221 13.4707 76.3157 13.4517 76.3867 13.4375L76.7276 14.9432C76.614 14.9858 76.4554 15.0284 76.2518 15.071C76.0482 15.1184 75.7901 15.1421 75.4776 15.1421C75.0042 15.1421 74.5401 15.0403 74.0856 14.8367C73.6358 14.6331 73.2617 14.3229 72.9634 13.9063C72.6699 13.4896 72.5231 12.964 72.5231 12.3296V1.47729Z" fill="black"/>
<path d="M59.597 19.0908V4.09078H61.2163V5.82373H61.4151C61.5382 5.63434 61.7087 5.39286 61.9265 5.0993C62.149 4.801 62.4663 4.53585 62.8782 4.30384C63.2949 4.0671 63.8583 3.94873 64.5685 3.94873C65.4871 3.94873 66.2968 4.17837 66.9975 4.63765C67.6983 5.09693 68.2452 5.74797 68.6381 6.59078C69.0311 7.43358 69.2276 8.4279 69.2276 9.57373C69.2276 10.729 69.0311 11.7305 68.6381 12.578C68.2452 13.4208 67.7006 14.0742 67.0046 14.5382C66.3086 14.9975 65.506 15.2271 64.597 15.2271C63.8962 15.2271 63.3351 15.1111 62.9137 14.8791C62.4923 14.6424 62.168 14.3749 61.9407 14.0766C61.7134 13.7735 61.5382 13.5226 61.4151 13.3237H61.2731V19.0908H59.597ZM61.2447 9.54532C61.2447 10.3692 61.3654 11.096 61.6069 11.7257C61.8484 12.3507 62.2011 12.8408 62.6651 13.1959C63.1291 13.5463 63.6973 13.7215 64.3697 13.7215C65.0704 13.7215 65.6552 13.5368 66.1239 13.1675C66.5974 12.7934 66.9525 12.2915 67.1893 11.6618C67.4308 11.0273 67.5515 10.3218 67.5515 9.54532C67.5515 8.77828 67.4331 8.08699 67.1964 7.47146C66.9644 6.85119 66.6116 6.36114 66.1381 6.00129C65.6694 5.6367 65.0799 5.45441 64.3697 5.45441C63.6879 5.45441 63.1149 5.62723 62.6509 5.97288C62.1869 6.31379 61.8365 6.79201 61.5998 7.40754C61.363 8.01833 61.2447 8.73093 61.2447 9.54532Z" fill="black"/>
<path d="M54.8509 15V4.09091H56.527V15H54.8509ZM55.7031 2.27273C55.3764 2.27273 55.0947 2.16146 54.858 1.93892C54.626 1.71638 54.5099 1.44886 54.5099 1.13636C54.5099 0.823864 54.626 0.556344 54.858 0.333806C55.0947 0.111269 55.3764 0 55.7031 0C56.0298 0 56.3092 0.111269 56.5412 0.333806C56.7779 0.556344 56.8963 0.823864 56.8963 1.13636C56.8963 1.44886 56.7779 1.71638 56.5412 1.93892C56.3092 2.16146 56.0298 2.27273 55.7031 2.27273Z" fill="black"/>
<path d="M47.4095 15V4.09087H49.0288V5.73859H49.1424C49.3413 5.19882 49.7011 4.76085 50.222 4.42467C50.7428 4.0885 51.3299 3.92041 51.9833 3.92041C52.1064 3.92041 52.2603 3.92278 52.445 3.92751C52.6296 3.93225 52.7693 3.93935 52.864 3.94882V5.65337C52.8072 5.63916 52.677 5.61785 52.4734 5.58944C52.2745 5.5563 52.0638 5.53973 51.8413 5.53973C51.311 5.53973 50.8375 5.651 50.4208 5.87354C50.0089 6.09134 49.6822 6.39437 49.4407 6.78263C49.204 7.16615 49.0856 7.60412 49.0856 8.09655V15H47.4095Z" fill="black"/>
<path d="M40.6694 15.2271C39.6467 15.2271 38.766 14.9857 38.0274 14.5027C37.2887 14.0198 36.7205 13.3545 36.3228 12.507C35.9251 11.6594 35.7262 10.6912 35.7262 9.60214C35.7262 8.49418 35.9298 7.51644 36.337 6.6689C36.749 5.81663 37.3219 5.15138 38.0558 4.67316C38.7944 4.19021 39.6562 3.94873 40.641 3.94873C41.408 3.94873 42.0993 4.09078 42.7149 4.37487C43.3304 4.65896 43.8347 5.05668 44.2276 5.56805C44.6206 6.07941 44.8645 6.676 44.9592 7.35782H43.283C43.1552 6.86066 42.8711 6.42032 42.4308 6.0368C41.9952 5.64854 41.408 5.45441 40.6694 5.45441C40.016 5.45441 39.4431 5.62487 38.9507 5.96578C38.463 6.30195 38.0818 6.7778 37.8072 7.39333C37.5373 8.00413 37.4024 8.72146 37.4024 9.54532C37.4024 10.3881 37.5349 11.122 37.8001 11.747C38.07 12.372 38.4488 12.8573 38.9365 13.203C39.4289 13.5486 40.0065 13.7215 40.6694 13.7215C41.105 13.7215 41.5004 13.6457 41.8555 13.4942C42.2106 13.3427 42.5113 13.1249 42.7575 12.8408C43.0037 12.5567 43.1789 12.2158 43.283 11.818H44.9592C44.8645 12.462 44.6301 13.042 44.2561 13.5581C43.8867 14.0695 43.3967 14.4767 42.7859 14.7797C42.1798 15.078 41.4743 15.2271 40.6694 15.2271Z" fill="black"/>
<path d="M33.5156 6.53396L32.01 6.96009C31.9153 6.70915 31.7756 6.4653 31.5909 6.22856C31.411 5.98708 31.1648 5.78822 30.8523 5.63197C30.5398 5.47572 30.1397 5.39759 29.652 5.39759C28.9844 5.39759 28.4281 5.55148 27.983 5.85924C27.5426 6.16227 27.3225 6.54816 27.3225 7.01691C27.3225 7.43358 27.474 7.76265 27.777 8.00413C28.08 8.2456 28.5535 8.44684 29.1975 8.60782L30.8168 9.00555C31.7922 9.24229 32.519 9.60451 32.9972 10.0922C33.4754 10.5752 33.7145 11.1978 33.7145 11.9601C33.7145 12.5851 33.5346 13.1438 33.1747 13.6362C32.8196 14.1287 32.3225 14.5169 31.6833 14.801C31.0441 15.0851 30.3007 15.2271 29.4531 15.2271C28.3405 15.2271 27.4195 14.9857 26.6904 14.5027C25.9612 14.0198 25.4995 13.3143 25.3054 12.3862L26.8963 11.9885C27.0478 12.5756 27.3343 13.016 27.7557 13.3095C28.1818 13.6031 28.7382 13.7499 29.4247 13.7499C30.206 13.7499 30.8263 13.5841 31.2855 13.2527C31.7495 12.9165 31.9816 12.5141 31.9816 12.0453C31.9816 11.6665 31.849 11.3493 31.5838 11.0936C31.3187 10.8332 30.9115 10.6391 30.3622 10.5112L28.5441 10.0851C27.545 9.84835 26.8111 9.4814 26.3424 8.98424C25.8783 8.48235 25.6463 7.85498 25.6463 7.10214C25.6463 6.48661 25.8192 5.9421 26.1648 5.46862C26.5152 4.99513 26.991 4.62345 27.5924 4.35356C28.1984 4.08367 28.885 3.94873 29.652 3.94873C30.7316 3.94873 31.5791 4.18547 32.1946 4.65896C32.8149 5.13244 33.2552 5.75744 33.5156 6.53396Z" fill="black"/>
<path d="M18.7216 15.2271C17.6705 15.2271 16.7638 14.9951 16.0014 14.5311C15.2439 14.0624 14.6591 13.409 14.2472 12.5709C13.84 11.7281 13.6364 10.748 13.6364 9.63055C13.6364 8.51312 13.84 7.52828 14.2472 6.676C14.6591 5.81899 15.232 5.15138 15.9659 4.67316C16.7046 4.19021 17.5663 3.94873 18.5512 3.94873C19.1193 3.94873 19.6804 4.04343 20.2344 4.23282C20.7884 4.42221 21.2926 4.72998 21.7472 5.15612C22.2017 5.57752 22.5639 6.13623 22.8338 6.83225C23.1037 7.52828 23.2387 8.38528 23.2387 9.40327V10.1135H14.8296V8.66464H21.5341C21.5341 8.04911 21.411 7.49987 21.1648 7.01691C20.9233 6.53396 20.5777 6.1528 20.1279 5.87345C19.6828 5.59409 19.1572 5.45441 18.5512 5.45441C17.8835 5.45441 17.3059 5.62013 16.8182 5.95157C16.3352 6.27828 15.9636 6.70441 15.7031 7.22998C15.4427 7.75555 15.3125 8.31899 15.3125 8.92032V9.88623C15.3125 10.7101 15.4546 11.4085 15.7387 11.9814C16.0275 12.5496 16.4276 12.9828 16.9389 13.2811C17.4503 13.5747 18.0445 13.7215 18.7216 13.7215C19.162 13.7215 19.5597 13.6599 19.9148 13.5368C20.2746 13.409 20.5848 13.2196 20.8452 12.9686C21.1056 12.7129 21.3068 12.3957 21.4489 12.0169L23.0682 12.4715C22.8977 13.0207 22.6113 13.5037 22.2088 13.9203C21.8064 14.3323 21.3092 14.6542 20.7173 14.8862C20.1255 15.1135 19.4602 15.2271 18.7216 15.2271Z" fill="black"/>
<path d="M4.48864 15H0V0.45459H4.6875C6.09848 0.45459 7.30587 0.745783 8.30966 1.32817C9.31345 1.90582 10.0829 2.73679 10.6179 3.82107C11.1529 4.90061 11.4205 6.19323 11.4205 7.69891C11.4205 9.21406 11.1506 10.5185 10.6108 11.6123C10.071 12.7013 9.28504 13.5393 8.25284 14.1265C7.22064 14.7089 5.96591 15 4.48864 15ZM1.76136 13.4375H4.375C5.57765 13.4375 6.57434 13.2055 7.36506 12.7415C8.15578 12.2775 8.74526 11.617 9.13352 10.76C9.52178 9.90298 9.71591 8.88262 9.71591 7.69891C9.71591 6.52467 9.52415 5.51378 9.14062 4.66624C8.7571 3.81397 8.18419 3.16056 7.42188 2.70601C6.65956 2.24673 5.71023 2.01709 4.57386 2.01709H1.76136V13.4375Z" fill="black"/>
</svg>
