<svg width="40" height="12" viewBox="0 0 40 12" fill="none" xmlns="http://www.w3.org/2000/svg">
<path d="M36.1115 8.748C35.6155 8.748 35.1715 8.624 34.7795 8.376C34.3955 8.128 34.0915 7.772 33.8675 7.308C33.6515 6.844 33.5435 6.288 33.5435 5.64C33.5435 4.976 33.6595 4.412 33.8915 3.948C34.1235 3.476 34.4355 3.12 34.8275 2.88C35.2275 2.632 35.6755 2.508 36.1715 2.508C36.6995 2.508 37.1355 2.66 37.4795 2.964C37.8235 3.268 38.0475 3.66 38.1515 4.14L37.9955 4.332V0H39.6395V8.628H38.1635L38.0555 6.804L38.2595 6.9C38.2035 7.276 38.0755 7.604 37.8755 7.884C37.6755 8.156 37.4235 8.368 37.1195 8.52C36.8155 8.672 36.4795 8.748 36.1115 8.748ZM36.5915 7.488C36.8795 7.488 37.1275 7.416 37.3355 7.272C37.5435 7.12 37.7035 6.9 37.8155 6.612C37.9355 6.324 37.9955 5.98 37.9955 5.58C37.9955 5.196 37.9395 4.872 37.8275 4.608C37.7155 4.336 37.5555 4.128 37.3475 3.984C37.1395 3.84 36.8955 3.768 36.6155 3.768C36.1675 3.768 35.8155 3.928 35.5595 4.248C35.3115 4.56 35.1875 5.02 35.1875 5.628C35.1875 6.236 35.3115 6.7 35.5595 7.02C35.8075 7.332 36.1515 7.488 36.5915 7.488Z" fill="white"/>
<path d="M30.3963 4.79981C30.3963 4.45581 30.2963 4.18781 30.0963 3.99581C29.9043 3.80381 29.6483 3.70781 29.3283 3.70781C29.0323 3.70781 28.7723 3.78381 28.5483 3.93581C28.3243 4.08781 28.1603 4.33981 28.0563 4.69181L26.6523 4.25981C26.7883 3.73181 27.0843 3.30781 27.5403 2.98781C28.0043 2.66781 28.6243 2.50781 29.4003 2.50781C29.9283 2.50781 30.3883 2.59181 30.7803 2.75981C31.1723 2.91981 31.4763 3.16381 31.6923 3.49181C31.9163 3.81981 32.0283 4.23181 32.0283 4.72781V7.16381C32.0283 7.46781 32.1723 7.61981 32.4603 7.61981C32.5963 7.61981 32.7243 7.59981 32.8443 7.55981L32.7483 8.57981C32.5403 8.68381 32.2803 8.73581 31.9683 8.73581C31.6883 8.73581 31.4363 8.68781 31.2123 8.59181C30.9883 8.49581 30.8123 8.35181 30.6843 8.15981C30.5563 7.95981 30.4923 7.71181 30.4923 7.41581V7.36781L30.7803 7.31981C30.7323 7.62381 30.6003 7.88381 30.3843 8.09981C30.1683 8.30781 29.9043 8.46781 29.5923 8.57981C29.2883 8.69181 28.9723 8.74781 28.6443 8.74781C28.2363 8.74781 27.8843 8.68781 27.5883 8.56781C27.2923 8.43981 27.0643 8.25581 26.9043 8.01581C26.7443 7.77581 26.6643 7.47981 26.6643 7.12781C26.6643 6.67981 26.8083 6.31581 27.0963 6.03581C27.3843 5.74781 27.7963 5.55181 28.3323 5.44781L30.5883 4.99181L30.5763 6.01181L29.1363 6.29981C28.8643 6.35581 28.6563 6.43181 28.5123 6.52781C28.3763 6.61581 28.3083 6.76381 28.3083 6.97181C28.3083 7.17181 28.3803 7.32381 28.5243 7.42781C28.6763 7.53181 28.8563 7.58381 29.0643 7.58381C29.2323 7.58381 29.3963 7.56381 29.5563 7.52381C29.7163 7.48381 29.8603 7.41981 29.9883 7.33181C30.1163 7.24381 30.2163 7.12381 30.2883 6.97181C30.3603 6.81981 30.3963 6.63581 30.3963 6.41981V4.79981Z" fill="white"/>
<path d="M22.5639 2.50781C23.1719 2.50781 23.7039 2.63181 24.1599 2.87981C24.6239 3.12781 24.9839 3.48381 25.2399 3.94781C25.5039 4.41181 25.6359 4.97181 25.6359 5.62781C25.6359 6.27581 25.5039 6.83581 25.2399 7.30781C24.9839 7.77181 24.6239 8.12781 24.1599 8.37581C23.7039 8.62381 23.1719 8.74781 22.5639 8.74781C21.9639 8.74781 21.4319 8.62381 20.9679 8.37581C20.5039 8.12781 20.1399 7.77181 19.8759 7.30781C19.6199 6.83581 19.4919 6.27581 19.4919 5.62781C19.4919 4.97181 19.6199 4.41181 19.8759 3.94781C20.1399 3.48381 20.5039 3.12781 20.9679 2.87981C21.4319 2.63181 21.9639 2.50781 22.5639 2.50781ZM22.5639 3.73181C22.2599 3.73181 21.9999 3.80381 21.7839 3.94781C21.5759 4.08381 21.4159 4.29181 21.3039 4.57181C21.1919 4.85181 21.1359 5.20381 21.1359 5.62781C21.1359 6.05181 21.1919 6.40381 21.3039 6.68381C21.4159 6.96381 21.5759 7.17581 21.7839 7.31981C21.9999 7.45581 22.2599 7.52381 22.5639 7.52381C22.8599 7.52381 23.1119 7.45581 23.3199 7.31981C23.5359 7.17581 23.6999 6.96381 23.8119 6.68381C23.9239 6.40381 23.9799 6.05181 23.9799 5.62781C23.9799 5.20381 23.9239 4.85181 23.8119 4.57181C23.6999 4.29181 23.5359 4.08381 23.3199 3.94781C23.1119 3.80381 22.8599 3.73181 22.5639 3.73181Z" fill="white"/>
<path d="M17.6158 0V6.78C17.6158 7.06 17.6638 7.256 17.7598 7.368C17.8558 7.48 18.0158 7.536 18.2398 7.536C18.3758 7.536 18.4878 7.528 18.5758 7.512C18.6638 7.488 18.7758 7.456 18.9118 7.416L18.7678 8.496C18.6318 8.576 18.4598 8.636 18.2518 8.676C18.0518 8.724 17.8518 8.748 17.6518 8.748C17.0678 8.748 16.6398 8.608 16.3678 8.328C16.1038 8.04 15.9718 7.584 15.9718 6.96V0H17.6158Z" fill="white"/>
<path d="M8.47241 11.1478V2.62781H9.94841L10.0564 4.53581L9.85241 4.31981C9.92441 3.96781 10.0564 3.65581 10.2484 3.38381C10.4484 3.11181 10.7004 2.89981 11.0044 2.74781C11.3084 2.58781 11.6484 2.50781 12.0244 2.50781C12.5124 2.50781 12.9484 2.63181 13.3324 2.87981C13.7164 3.12781 14.0164 3.48381 14.2324 3.94781C14.4564 4.40381 14.5684 4.95981 14.5684 5.61581C14.5684 6.27181 14.4564 6.83581 14.2324 7.30781C14.0084 7.77181 13.7004 8.12781 13.3084 8.37581C12.9244 8.62381 12.4844 8.74781 11.9884 8.74781C11.4604 8.74781 11.0204 8.59981 10.6684 8.30381C10.3244 8.00781 10.0884 7.63581 9.96041 7.18781L10.1164 6.93581V11.1478H8.47241ZM11.5084 7.48781C11.9484 7.48781 12.2924 7.33181 12.5404 7.01981C12.7964 6.69981 12.9244 6.23581 12.9244 5.62781C12.9244 5.01981 12.8004 4.55981 12.5524 4.24781C12.3124 3.92781 11.9724 3.76781 11.5324 3.76781C11.2524 3.76781 11.0044 3.84381 10.7884 3.99581C10.5804 4.13981 10.4164 4.35181 10.2964 4.63181C10.1764 4.90381 10.1164 5.23581 10.1164 5.62781C10.1164 6.01181 10.1724 6.34381 10.2844 6.62381C10.3964 6.90381 10.5564 7.11981 10.7644 7.27181C10.9804 7.41581 11.2284 7.48781 11.5084 7.48781Z" fill="white"/>
<path d="M6.768 0.708008V5.50801C6.768 6.58801 6.48 7.40001 5.904 7.94401C5.328 8.48001 4.488 8.74801 3.384 8.74801C2.28 8.74801 1.44 8.48001 0.864 7.94401C0.288 7.40001 0 6.58801 0 5.50801V0.708008H1.656V5.43601C1.656 6.10001 1.796 6.59201 2.076 6.91201C2.364 7.23201 2.8 7.39201 3.384 7.39201C3.968 7.39201 4.4 7.23201 4.68 6.91201C4.96 6.59201 5.1 6.10001 5.1 5.43601V0.708008H6.768Z" fill="white"/>
</svg>
