<svg width="130" height="34" viewBox="0 0 130 34" fill="none" xmlns="http://www.w3.org/2000/svg">
<path d="M121.444 30.5037V22.5037H123.412L123.54 24.9037L123.268 24.6477C123.396 24.1251 123.599 23.6931 123.876 23.3517C124.154 23.0104 124.49 22.7598 124.884 22.5998C125.29 22.4291 125.732 22.3438 126.212 22.3438C126.767 22.3438 127.258 22.4504 127.684 22.6637C128.122 22.8771 128.463 23.2024 128.708 23.6397C128.964 24.0664 129.092 24.6051 129.092 25.2557V30.5037H126.9V25.8797C126.9 25.1971 126.767 24.7278 126.5 24.4718C126.234 24.2051 125.887 24.0718 125.46 24.0718C125.162 24.0718 124.868 24.1464 124.58 24.2957C124.303 24.4344 124.074 24.6637 123.892 24.9837C123.722 25.3037 123.636 25.7304 123.636 26.2638V30.5037H121.444Z" fill="#69C3E8"/>
<path d="M118.033 21.352C117.574 21.352 117.233 21.256 117.009 21.064C116.785 20.8613 116.673 20.568 116.673 20.184C116.673 19.7893 116.785 19.496 117.009 19.304C117.233 19.1013 117.574 19 118.033 19C118.491 19 118.833 19.1013 119.057 19.304C119.281 19.496 119.393 19.7893 119.393 20.184C119.393 20.568 119.281 20.8613 119.057 21.064C118.833 21.256 118.491 21.352 118.033 21.352ZM119.121 22.504V30.504H116.929V22.504H119.121Z" fill="#69C3E8"/>
<path d="M102.132 30.5037V22.5037H104.1L104.228 24.9037L103.956 24.6477C104.084 24.1251 104.287 23.6931 104.564 23.3517C104.841 23.0104 105.177 22.7598 105.572 22.5998C105.977 22.4291 106.42 22.3438 106.9 22.3438C107.455 22.3438 107.945 22.4504 108.372 22.6637C108.809 22.8771 109.151 23.2024 109.396 23.6397C109.652 24.0664 109.78 24.6051 109.78 25.2557V30.5037H107.588V25.8797C107.588 25.1971 107.455 24.7278 107.188 24.4718C106.921 24.2051 106.575 24.0718 106.148 24.0718C105.849 24.0718 105.556 24.1464 105.268 24.2957C104.991 24.4344 104.761 24.6637 104.58 24.9837C104.409 25.3037 104.324 25.7304 104.324 26.2638V30.5037H102.132Z" fill="#69C3E8"/>
<path d="M100.727 20.6001L100.983 22.1681C100.94 22.1681 100.892 22.1681 100.839 22.1681C100.796 22.1574 100.748 22.1521 100.695 22.1521C100.204 22.1521 99.8359 22.2641 99.5906 22.4881C99.3453 22.7014 99.2226 23.0001 99.2226 23.3841L98.3266 23.0161C98.3266 22.5894 98.412 22.1948 98.5826 21.8321C98.7533 21.4588 99.004 21.1601 99.3346 20.9361C99.676 20.7121 100.081 20.6001 100.551 20.6001C100.572 20.6001 100.599 20.6001 100.631 20.6001C100.663 20.6001 100.695 20.6001 100.727 20.6001ZM98.1026 29.0001C98.9666 29.0001 99.6333 29.1868 100.103 29.5601C100.572 29.9334 100.807 30.4561 100.807 31.1281C100.807 31.7361 100.631 32.2481 100.279 32.6641C99.9266 33.0908 99.4306 33.4108 98.7906 33.6241C98.1613 33.8374 97.4306 33.9441 96.5986 33.9441C95.2226 33.9441 94.2146 33.7521 93.5746 33.3681C92.9453 32.9841 92.6306 32.4828 92.6306 31.8641C92.6306 31.4268 92.796 31.0588 93.1266 30.7601C93.468 30.4614 94.028 30.2961 94.8066 30.2641L94.7266 30.5201C94.1719 30.4241 93.7453 30.2428 93.4466 29.9761C93.1586 29.6988 93.0146 29.3201 93.0146 28.8401C93.0146 28.3494 93.2013 27.9494 93.5746 27.6401C93.9586 27.3201 94.476 27.1334 95.1266 27.0801L96.0866 27.5281H95.8626C95.404 27.5601 95.0786 27.6561 94.8866 27.8161C94.7053 27.9654 94.6146 28.1361 94.6146 28.3281C94.6146 28.5521 94.6999 28.7228 94.8706 28.8401C95.0519 28.9468 95.308 29.0001 95.6386 29.0001H98.1026ZM96.6146 32.4401C97.1693 32.4401 97.6226 32.3921 97.9746 32.2961C98.3373 32.2001 98.604 32.0774 98.7746 31.9281C98.956 31.7788 99.0466 31.6134 99.0466 31.4321C99.0466 31.2294 98.9666 31.0641 98.8066 30.9361C98.6466 30.8188 98.3586 30.7601 97.9426 30.7601H95.2386C94.9826 30.7601 94.7693 30.8241 94.5986 30.9521C94.4386 31.0801 94.3586 31.2561 94.3586 31.4801C94.3586 31.7788 94.5559 32.0134 94.9506 32.1841C95.3559 32.3548 95.9106 32.4401 96.6146 32.4401ZM96.6306 22.3441C97.3773 22.3441 98.0226 22.4561 98.5666 22.6801C99.1213 22.8934 99.5426 23.2028 99.8306 23.6081C100.129 24.0134 100.279 24.4988 100.279 25.0641C100.279 25.6188 100.129 26.0988 99.8306 26.5041C99.5426 26.9094 99.1213 27.2241 98.5666 27.4481C98.0226 27.6614 97.3773 27.7681 96.6306 27.7681C95.4466 27.7681 94.5399 27.5281 93.9106 27.0481C93.2919 26.5574 92.9826 25.8961 92.9826 25.0641C92.9826 24.4988 93.1266 24.0134 93.4146 23.6081C93.7133 23.2028 94.1346 22.8934 94.6786 22.6801C95.2226 22.4561 95.8733 22.3441 96.6306 22.3441ZM96.6306 23.7201C96.2039 23.7201 95.8519 23.8374 95.5746 24.0721C95.2973 24.3068 95.1586 24.6321 95.1586 25.0481C95.1586 25.4641 95.2973 25.7948 95.5746 26.0401C95.8519 26.2748 96.2039 26.3921 96.6306 26.3921C97.0573 26.3921 97.4039 26.2748 97.6706 26.0401C97.9479 25.7948 98.0866 25.4641 98.0866 25.0481C98.0866 24.6321 97.9479 24.3068 97.6706 24.0721C97.4039 23.8374 97.0573 23.7201 96.6306 23.7201Z" fill="#69C3E8"/>
<path d="M89.939 21.352C89.4803 21.352 89.139 21.256 88.915 21.064C88.691 20.8613 88.579 20.568 88.579 20.184C88.579 19.7893 88.691 19.496 88.915 19.304C89.139 19.1013 89.4803 19 89.939 19C90.3976 19 90.739 19.1013 90.963 19.304C91.187 19.496 91.299 19.7893 91.299 20.184C91.299 20.568 91.187 20.8613 90.963 21.064C90.739 21.256 90.3976 21.352 89.939 21.352ZM91.027 22.504V30.504H88.835V22.504H91.027Z" fill="#69C3E8"/>
<path d="M82.665 19.7842C83.625 19.7842 84.4677 19.9495 85.193 20.2802C85.9183 20.6108 86.537 21.1015 87.049 21.7522L85.817 23.1762C85.3797 22.6215 84.8997 22.2162 84.377 21.9602C83.865 21.6935 83.2677 21.5602 82.585 21.5602C82.137 21.5602 81.7637 21.6188 81.465 21.7362C81.177 21.8535 80.9637 22.0082 80.825 22.2002C80.697 22.3922 80.633 22.6055 80.633 22.8402C80.633 23.1282 80.745 23.3735 80.969 23.5762C81.193 23.7682 81.577 23.9282 82.121 24.0562L84.089 24.5042C85.1343 24.7388 85.881 25.0908 86.329 25.5602C86.7877 26.0188 87.017 26.6162 87.017 27.3522C87.017 28.0455 86.8357 28.6428 86.473 29.1442C86.1103 29.6348 85.6037 30.0135 84.953 30.2802C84.3023 30.5362 83.5557 30.6642 82.713 30.6642C81.977 30.6642 81.2997 30.5788 80.681 30.4082C80.073 30.2268 79.529 29.9815 79.049 29.6722C78.569 29.3628 78.169 29.0055 77.849 28.6002L79.097 27.1122C79.3423 27.4535 79.6463 27.7575 80.009 28.0242C80.3717 28.2908 80.7823 28.5042 81.241 28.6642C81.7103 28.8135 82.201 28.8882 82.713 28.8882C83.1503 28.8882 83.5183 28.8402 83.817 28.7442C84.1263 28.6375 84.3557 28.4935 84.505 28.3122C84.665 28.1202 84.745 27.8908 84.745 27.6242C84.745 27.3468 84.649 27.1122 84.457 26.9202C84.2757 26.7175 83.9343 26.5628 83.433 26.4562L81.289 25.9762C80.6703 25.8268 80.137 25.6348 79.689 25.4002C79.2517 25.1548 78.9157 24.8455 78.681 24.4722C78.457 24.0882 78.345 23.6348 78.345 23.1122C78.345 22.4828 78.5157 21.9175 78.857 21.4162C79.1983 20.9148 79.689 20.5202 80.329 20.2322C80.9797 19.9335 81.7583 19.7842 82.665 19.7842Z" fill="#69C3E8"/>
<path d="M67.9342 19.7842C68.6916 19.7842 69.3636 19.8962 69.9502 20.1202C70.5369 20.3442 70.9956 20.6748 71.3262 21.1122C71.6569 21.5388 71.8222 22.0668 71.8222 22.6962C71.8222 23.3362 71.6836 23.8642 71.4062 24.2802C71.1396 24.6855 70.7769 24.9948 70.3182 25.2082C69.8596 25.4108 69.3529 25.5442 68.7982 25.6082L68.6862 27.1122H66.6862L66.7022 24.6962C67.4169 24.6108 67.9716 24.4988 68.3662 24.3602C68.7716 24.2108 69.0542 24.0242 69.2142 23.8002C69.3849 23.5762 69.4702 23.3095 69.4702 23.0002C69.4702 22.7015 69.4062 22.4508 69.2782 22.2482C69.1609 22.0455 68.9796 21.8908 68.7342 21.7842C68.4889 21.6775 68.1742 21.6242 67.7902 21.6242C67.2356 21.6242 66.7929 21.7842 66.4622 22.1042C66.1316 22.4135 65.9289 22.8562 65.8542 23.4322L63.7742 22.6322C63.9022 22.0775 64.1369 21.5868 64.4782 21.1602C64.8196 20.7228 65.2729 20.3868 65.8382 20.1522C66.4142 19.9068 67.1129 19.7842 67.9342 19.7842ZM67.7102 28.1842C68.1262 28.1842 68.4569 28.2962 68.7022 28.5202C68.9476 28.7442 69.0702 29.0428 69.0702 29.4162C69.0702 29.8002 68.9476 30.1042 68.7022 30.3282C68.4569 30.5415 68.1262 30.6482 67.7102 30.6482C67.2942 30.6482 66.9636 30.5415 66.7182 30.3282C66.4729 30.1042 66.3502 29.8002 66.3502 29.4162C66.3502 29.0428 66.4729 28.7442 66.7182 28.5202C66.9636 28.2962 67.2942 28.1842 67.7102 28.1842Z" fill="black"/>
<path d="M60.3232 20.0557V27.8957C60.3232 28.2797 60.4192 28.5623 60.6112 28.7437C60.8139 28.9143 61.0859 28.9997 61.4272 28.9997C61.6939 28.9997 61.9286 28.9623 62.1312 28.8877C62.3339 28.8023 62.5152 28.6903 62.6752 28.5517L63.0272 30.0077C62.7712 30.2103 62.4512 30.3703 62.0672 30.4877C61.6832 30.605 61.2779 30.6637 60.8512 30.6637C60.3179 30.6637 59.8432 30.5837 59.4272 30.4237C59.0219 30.2637 58.7019 30.0077 58.4672 29.6557C58.2432 29.3037 58.1312 28.8343 58.1312 28.2477V20.6637L60.3232 20.0557ZM62.8832 22.5037V24.1357H56.6592V22.5037H62.8832Z" fill="black"/>
<path d="M47.6475 30.5037V22.5037H49.6155L49.7435 24.9037L49.4715 24.6477C49.5995 24.1251 49.8021 23.6931 50.0795 23.3517C50.3568 23.0104 50.6928 22.7598 51.0875 22.5998C51.4928 22.4291 51.9355 22.3438 52.4155 22.3438C52.9701 22.3438 53.4608 22.4504 53.8875 22.6637C54.3248 22.8771 54.6661 23.2024 54.9115 23.6397C55.1675 24.0664 55.2955 24.6051 55.2955 25.2557V30.5037H53.1035V25.8797C53.1035 25.1971 52.9701 24.7278 52.7035 24.4718C52.4368 24.2051 52.0901 24.0718 51.6635 24.0718C51.3648 24.0718 51.0715 24.1464 50.7835 24.2957C50.5061 24.4344 50.2768 24.6637 50.0955 24.9837C49.9248 25.3037 49.8395 25.7304 49.8395 26.2638V30.5037H47.6475Z" fill="black"/>
<path d="M40.5409 30.6639C40.0075 30.6639 39.5275 30.5679 39.1009 30.3759C38.6742 30.1839 38.3329 29.8799 38.0769 29.4639C37.8315 29.0372 37.7089 28.4879 37.7089 27.8159V22.5039H39.9009V27.2879C39.9009 27.9066 40.0289 28.3386 40.2849 28.5839C40.5409 28.8186 40.9089 28.9359 41.3889 28.9359C41.6129 28.9359 41.8315 28.8986 42.0449 28.8239C42.2582 28.7386 42.4449 28.6106 42.6049 28.4399C42.7755 28.2692 42.9089 28.0506 43.0049 27.7839C43.1009 27.5066 43.1489 27.1812 43.1489 26.8079V22.5039H45.3409V30.5039H43.3889L43.3089 29.1119C43.0422 29.6452 42.6742 30.0399 42.2049 30.2959C41.7462 30.5412 41.1915 30.6639 40.5409 30.6639Z" fill="black"/>
<path d="M31.8267 22.3438C32.6374 22.3438 33.3467 22.5091 33.9547 22.8397C34.5734 23.1704 35.0534 23.6451 35.3947 24.2638C35.7467 24.8824 35.9227 25.6291 35.9227 26.5037C35.9227 27.3677 35.7467 28.1144 35.3947 28.7438C35.0534 29.3624 34.5734 29.8371 33.9547 30.1678C33.3467 30.4984 32.6374 30.6637 31.8267 30.6637C31.0267 30.6637 30.3174 30.4984 29.6987 30.1678C29.08 29.8371 28.5947 29.3624 28.2427 28.7438C27.9014 28.1144 27.7307 27.3677 27.7307 26.5037C27.7307 25.6291 27.9014 24.8824 28.2427 24.2638C28.5947 23.6451 29.08 23.1704 29.6987 22.8397C30.3174 22.5091 31.0267 22.3438 31.8267 22.3438ZM31.8267 23.9757C31.4214 23.9757 31.0747 24.0718 30.7867 24.2638C30.5094 24.4451 30.296 24.7224 30.1467 25.0957C29.9974 25.4691 29.9227 25.9384 29.9227 26.5037C29.9227 27.0691 29.9974 27.5384 30.1467 27.9118C30.296 28.2851 30.5094 28.5678 30.7867 28.7598C31.0747 28.9411 31.4214 29.0317 31.8267 29.0317C32.2214 29.0317 32.5574 28.9411 32.8347 28.7598C33.1227 28.5678 33.3414 28.2851 33.4907 27.9118C33.64 27.5384 33.7147 27.0691 33.7147 26.5037C33.7147 25.9384 33.64 25.4691 33.4907 25.0957C33.3414 24.7224 33.1227 24.4451 32.8347 24.2638C32.5574 24.0718 32.2214 23.9757 31.8267 23.9757Z" fill="black"/>
<path d="M22.7795 22.3438C23.4941 22.3438 24.0968 22.4504 24.5875 22.6637C25.0888 22.8664 25.4888 23.1491 25.7875 23.5117C26.0968 23.8637 26.3155 24.2584 26.4435 24.6957L24.3955 25.4317C24.2888 24.9517 24.1075 24.5891 23.8515 24.3438C23.5955 24.0984 23.2488 23.9757 22.8115 23.9757C22.4061 23.9757 22.0595 24.0718 21.7715 24.2638C21.4835 24.4451 21.2648 24.7277 21.1155 25.1117C20.9661 25.4851 20.8915 25.9544 20.8915 26.5197C20.8915 27.0851 20.9661 27.5544 21.1155 27.9277C21.2755 28.3011 21.4995 28.5784 21.7875 28.7598C22.0861 28.9411 22.4328 29.0317 22.8275 29.0317C23.1475 29.0317 23.4195 28.9784 23.6435 28.8717C23.8675 28.7544 24.0488 28.5891 24.1875 28.3757C24.3368 28.1624 24.4381 27.9064 24.4915 27.6077L26.4755 28.2477C26.3581 28.7277 26.1395 29.1491 25.8195 29.5117C25.4995 29.8744 25.0888 30.1571 24.5875 30.3597C24.0861 30.5624 23.5048 30.6637 22.8435 30.6637C22.0221 30.6637 21.2968 30.4984 20.6675 30.1678C20.0381 29.8371 19.5528 29.3624 19.2115 28.7438C18.8701 28.1251 18.6995 27.3784 18.6995 26.5037C18.6995 25.6291 18.8701 24.8824 19.2115 24.2638C19.5528 23.6451 20.0328 23.1704 20.6515 22.8397C21.2701 22.5091 21.9795 22.3438 22.7795 22.3438Z" fill="black"/>
<path d="M13.7482 22.3438C14.4629 22.3438 15.0655 22.4504 15.5562 22.6637C16.0575 22.8664 16.4575 23.1491 16.7562 23.5117C17.0655 23.8637 17.2842 24.2584 17.4122 24.6957L15.3642 25.4317C15.2575 24.9517 15.0762 24.5891 14.8202 24.3438C14.5642 24.0984 14.2175 23.9757 13.7802 23.9757C13.3749 23.9757 13.0282 24.0718 12.7402 24.2638C12.4522 24.4451 12.2335 24.7277 12.0842 25.1117C11.9349 25.4851 11.8602 25.9544 11.8602 26.5197C11.8602 27.0851 11.9349 27.5544 12.0842 27.9277C12.2442 28.3011 12.4682 28.5784 12.7562 28.7598C13.0549 28.9411 13.4015 29.0317 13.7962 29.0317C14.1162 29.0317 14.3882 28.9784 14.6122 28.8717C14.8362 28.7544 15.0175 28.5891 15.1562 28.3757C15.3055 28.1624 15.4069 27.9064 15.4602 27.6077L17.4442 28.2477C17.3269 28.7277 17.1082 29.1491 16.7882 29.5117C16.4682 29.8744 16.0575 30.1571 15.5562 30.3597C15.0549 30.5624 14.4735 30.6637 13.8122 30.6637C12.9909 30.6637 12.2655 30.4984 11.6362 30.1678C11.0069 29.8371 10.5215 29.3624 10.1802 28.7438C9.83888 28.1251 9.66821 27.3784 9.66821 26.5037C9.66821 25.6291 9.83888 24.8824 10.1802 24.2638C10.5215 23.6451 11.0015 23.1704 11.6202 22.8397C12.2389 22.5091 12.9482 22.3438 13.7482 22.3438Z" fill="black"/>
<path d="M5.51995 25.3997C5.51995 24.9411 5.38662 24.5837 5.11995 24.3277C4.86395 24.0717 4.52262 23.9437 4.09595 23.9437C3.70129 23.9437 3.35462 24.0451 3.05595 24.2477C2.75729 24.4504 2.53862 24.7864 2.39995 25.2557L0.527954 24.6797C0.709287 23.9757 1.10395 23.4104 1.71195 22.9837C2.33062 22.5571 3.15729 22.3438 4.19195 22.3438C4.89595 22.3438 5.50929 22.4557 6.03195 22.6797C6.55462 22.8931 6.95995 23.2184 7.24795 23.6558C7.54662 24.0931 7.69595 24.6424 7.69595 25.3037V28.5518C7.69595 28.9571 7.88795 29.1597 8.27195 29.1597C8.45329 29.1597 8.62395 29.1331 8.78395 29.0798L8.65595 30.4398C8.37862 30.5784 8.03195 30.6478 7.61595 30.6478C7.24262 30.6478 6.90662 30.5837 6.60795 30.4557C6.30929 30.3277 6.07462 30.1357 5.90395 29.8797C5.73329 29.6131 5.64795 29.2824 5.64795 28.8877V28.8237L6.03195 28.7598C5.96795 29.1651 5.79195 29.5118 5.50395 29.7998C5.21595 30.0771 4.86395 30.2904 4.44795 30.4398C4.04262 30.5891 3.62129 30.6637 3.18395 30.6637C2.63995 30.6637 2.17062 30.5837 1.77595 30.4237C1.38129 30.2531 1.07729 30.0077 0.863954 29.6877C0.650621 29.3677 0.543954 28.9731 0.543954 28.5037C0.543954 27.9064 0.735954 27.4211 1.11995 27.0478C1.50395 26.6638 2.05329 26.4024 2.76795 26.2638L5.77595 25.6558L5.75995 27.0157L3.83995 27.3997C3.47729 27.4744 3.19995 27.5758 3.00795 27.7038C2.82662 27.8211 2.73595 28.0184 2.73595 28.2957C2.73595 28.5624 2.83195 28.7651 3.02395 28.9038C3.22662 29.0424 3.46662 29.1118 3.74395 29.1118C3.96795 29.1118 4.18662 29.0851 4.39995 29.0317C4.61329 28.9784 4.80529 28.8931 4.97595 28.7757C5.14662 28.6584 5.27995 28.4984 5.37595 28.2957C5.47195 28.0931 5.51995 27.8477 5.51995 27.5597V25.3997Z" fill="black"/>
<path d="M117.726 11.5038V3.50375H119.694L119.822 5.90375L119.55 5.64775C119.678 5.12508 119.88 4.69308 120.158 4.35175C120.435 4.01042 120.771 3.75975 121.166 3.59975C121.571 3.42908 122.014 3.34375 122.494 3.34375C123.048 3.34375 123.539 3.45042 123.966 3.66375C124.403 3.87708 124.744 4.20242 124.99 4.63975C125.246 5.06642 125.374 5.60508 125.374 6.25575V11.5038H123.182V6.87975C123.182 6.19708 123.048 5.72775 122.782 5.47175C122.515 5.20508 122.168 5.07175 121.742 5.07175C121.443 5.07175 121.15 5.14642 120.862 5.29575C120.584 5.43442 120.355 5.66375 120.174 5.98375C120.003 6.30375 119.918 6.73042 119.918 7.26375V11.5038H117.726Z" fill="black"/>
<path d="M113.098 6.39975C113.098 5.94108 112.965 5.58375 112.698 5.32775C112.442 5.07175 112.101 4.94375 111.674 4.94375C111.279 4.94375 110.933 5.04508 110.634 5.24775C110.335 5.45042 110.117 5.78642 109.978 6.25575L108.106 5.67975C108.287 4.97575 108.682 4.41042 109.29 3.98375C109.909 3.55708 110.735 3.34375 111.77 3.34375C112.474 3.34375 113.087 3.45575 113.61 3.67975C114.133 3.89308 114.538 4.21842 114.826 4.65575C115.125 5.09308 115.274 5.64242 115.274 6.30375V9.55175C115.274 9.95708 115.466 10.1598 115.85 10.1598C116.031 10.1598 116.202 10.1331 116.362 10.0798L116.234 11.4398C115.957 11.5784 115.61 11.6478 115.194 11.6478C114.821 11.6478 114.485 11.5838 114.186 11.4558C113.887 11.3278 113.653 11.1358 113.482 10.8798C113.311 10.6131 113.226 10.2824 113.226 9.88775V9.82375L113.61 9.75975C113.546 10.1651 113.37 10.5118 113.082 10.7998C112.794 11.0771 112.442 11.2904 112.026 11.4398C111.621 11.5891 111.199 11.6638 110.762 11.6638C110.218 11.6638 109.749 11.5838 109.354 11.4238C108.959 11.2531 108.655 11.0078 108.442 10.6878C108.229 10.3678 108.122 9.97308 108.122 9.50375C108.122 8.90642 108.314 8.42108 108.698 8.04775C109.082 7.66375 109.631 7.40242 110.346 7.26375L113.354 6.65575L113.338 8.01575L111.418 8.39975C111.055 8.47442 110.778 8.57575 110.586 8.70375C110.405 8.82108 110.314 9.01842 110.314 9.29575C110.314 9.56242 110.41 9.76508 110.602 9.90375C110.805 10.0424 111.045 10.1118 111.322 10.1118C111.546 10.1118 111.765 10.0851 111.978 10.0318C112.191 9.97842 112.383 9.89308 112.554 9.77575C112.725 9.65842 112.858 9.49842 112.954 9.29575C113.05 9.09308 113.098 8.84775 113.098 8.55975V6.39975Z" fill="black"/>
<path d="M98.0938 11.6638C97.2512 11.6638 96.5152 11.4984 95.8858 11.1678C95.2672 10.8371 94.7872 10.3624 94.4458 9.74375C94.1045 9.12508 93.9338 8.37842 93.9338 7.50375C93.9338 6.62908 94.1045 5.88242 94.4458 5.26375C94.7872 4.64508 95.2618 4.17042 95.8698 3.83975C96.4885 3.50908 97.1925 3.34375 97.9818 3.34375C98.7925 3.34375 99.4805 3.50908 100.046 3.83975C100.611 4.15975 101.043 4.60242 101.342 5.16775C101.641 5.72242 101.79 6.35708 101.79 7.07175C101.79 7.28508 101.785 7.48775 101.774 7.67975C101.763 7.87175 101.747 8.04242 101.726 8.19175H95.3418V6.67175H100.766L99.7098 7.05575C99.7098 6.38375 99.5552 5.86642 99.2458 5.50375C98.9472 5.14108 98.5205 4.95975 97.9658 4.95975C97.5605 4.95975 97.2085 5.05575 96.9098 5.24775C96.6218 5.43975 96.4032 5.72775 96.2538 6.11175C96.1045 6.48508 96.0298 6.95975 96.0298 7.53575C96.0298 8.10108 96.1098 8.57042 96.2698 8.94375C96.4405 9.30642 96.6752 9.57842 96.9738 9.75975C97.2832 9.94108 97.6512 10.0318 98.0778 10.0318C98.5472 10.0318 98.9258 9.94108 99.2138 9.75975C99.5018 9.57842 99.7258 9.32775 99.8858 9.00775L101.63 9.67975C101.459 10.0958 101.198 10.4531 100.846 10.7518C100.504 11.0504 100.094 11.2798 99.6138 11.4398C99.1445 11.5891 98.6378 11.6638 98.0938 11.6638Z" fill="black"/>
<path d="M90.9893 3.50391H93.2613L90.2213 11.5039H87.6933L84.6533 3.50391H86.9893L88.9733 9.82391L90.9893 3.50391Z" fill="black"/>
<path d="M81.4262 6.39975C81.4262 5.94108 81.2929 5.58375 81.0262 5.32775C80.7702 5.07175 80.4289 4.94375 80.0022 4.94375C79.6075 4.94375 79.2609 5.04508 78.9622 5.24775C78.6635 5.45042 78.4449 5.78642 78.3062 6.25575L76.4342 5.67975C76.6155 4.97575 77.0102 4.41042 77.6182 3.98375C78.2369 3.55708 79.0635 3.34375 80.0982 3.34375C80.8022 3.34375 81.4155 3.45575 81.9382 3.67975C82.4609 3.89308 82.8662 4.21842 83.1542 4.65575C83.4529 5.09308 83.6022 5.64242 83.6022 6.30375V9.55175C83.6022 9.95708 83.7942 10.1598 84.1782 10.1598C84.3595 10.1598 84.5302 10.1331 84.6902 10.0798L84.5622 11.4398C84.2849 11.5784 83.9382 11.6478 83.5222 11.6478C83.1489 11.6478 82.8129 11.5838 82.5142 11.4558C82.2155 11.3278 81.9809 11.1358 81.8102 10.8798C81.6395 10.6131 81.5542 10.2824 81.5542 9.88775V9.82375L81.9382 9.75975C81.8742 10.1651 81.6982 10.5118 81.4102 10.7998C81.1222 11.0771 80.7702 11.2904 80.3542 11.4398C79.9489 11.5891 79.5275 11.6638 79.0902 11.6638C78.5462 11.6638 78.0769 11.5838 77.6822 11.4238C77.2875 11.2531 76.9835 11.0078 76.7702 10.6878C76.5569 10.3678 76.4502 9.97308 76.4502 9.50375C76.4502 8.90642 76.6422 8.42108 77.0262 8.04775C77.4102 7.66375 77.9595 7.40242 78.6742 7.26375L81.6822 6.65575L81.6662 8.01575L79.7462 8.39975C79.3835 8.47442 79.1062 8.57575 78.9142 8.70375C78.7329 8.82108 78.6422 9.01842 78.6422 9.29575C78.6422 9.56242 78.7382 9.76508 78.9302 9.90375C79.1329 10.0424 79.3729 10.1118 79.6502 10.1118C79.8742 10.1118 80.0929 10.0851 80.3062 10.0318C80.5195 9.97842 80.7115 9.89308 80.8822 9.77575C81.0529 9.65842 81.1862 9.49842 81.2822 9.29575C81.3782 9.09308 81.4262 8.84775 81.4262 8.55975V6.39975Z" fill="black"/>
<path d="M74.3966 0.943848V11.5038H72.1886V0.943848H74.3966ZM67.5326 0.943848V11.5038H65.3246V0.943848H67.5326ZM73.3406 5.27985V7.05585H66.4286V5.27985H73.3406Z" fill="black"/>
<path d="M59.3706 3.50391L56.1386 11.9999C55.8826 12.7252 55.5946 13.3012 55.2746 13.7279C54.9653 14.1546 54.6026 14.4639 54.1866 14.6559C53.7813 14.8479 53.296 14.9439 52.7306 14.9439C52.3146 14.9439 51.9306 14.8906 51.5786 14.7839C51.2373 14.6879 50.9386 14.5599 50.6826 14.3999L51.1466 12.8159C51.3493 12.9759 51.5626 13.0879 51.7866 13.1519C52.0106 13.2266 52.2666 13.2639 52.5546 13.2639C52.8533 13.2639 53.1093 13.1999 53.3226 13.0719C53.5466 12.9439 53.7333 12.6879 53.8826 12.3039L54.1546 11.6159L53.2746 9.53591L50.8266 3.50391H53.2586L54.7786 8.30391L55.1946 9.90391L55.6906 8.20791L57.1466 3.50391H59.3706Z" fill="black"/>
<path d="M44.8434 11.664C44.182 11.664 43.59 11.4987 43.0674 11.168C42.5554 10.8373 42.15 10.3627 41.8514 9.744C41.5634 9.12533 41.4194 8.384 41.4194 7.52C41.4194 6.63467 41.574 5.88267 41.8834 5.264C42.1927 4.63467 42.6087 4.16 43.1314 3.84C43.6647 3.50933 44.262 3.344 44.9234 3.344C45.6274 3.344 46.2087 3.54667 46.6674 3.952C47.126 4.35733 47.4247 4.88 47.5634 5.52L47.3554 5.776V0H49.5474V11.504H47.5794L47.4354 9.072L47.7074 9.2C47.6327 9.70133 47.462 10.1387 47.1954 10.512C46.9287 10.8747 46.5927 11.1573 46.1874 11.36C45.782 11.5627 45.334 11.664 44.8434 11.664ZM45.4834 9.984C45.8674 9.984 46.198 9.888 46.4754 9.696C46.7527 9.49333 46.966 9.2 47.1154 8.816C47.2754 8.432 47.3554 7.97333 47.3554 7.44C47.3554 6.928 47.2807 6.496 47.1314 6.144C46.982 5.78133 46.7687 5.504 46.4914 5.312C46.214 5.12 45.8887 5.024 45.5154 5.024C44.918 5.024 44.4487 5.23733 44.1074 5.664C43.7767 6.08 43.6114 6.69333 43.6114 7.504C43.6114 8.31467 43.7767 8.93333 44.1074 9.36C44.438 9.776 44.8967 9.984 45.4834 9.984Z" fill="black"/>
<path d="M37.2231 6.39975C37.2231 5.94108 37.0897 5.58375 36.8231 5.32775C36.5671 5.07175 36.2257 4.94375 35.7991 4.94375C35.4044 4.94375 35.0577 5.04508 34.7591 5.24775C34.4604 5.45042 34.2417 5.78642 34.1031 6.25575L32.2311 5.67975C32.4124 4.97575 32.8071 4.41042 33.4151 3.98375C34.0337 3.55708 34.8604 3.34375 35.8951 3.34375C36.5991 3.34375 37.2124 3.45575 37.7351 3.67975C38.2577 3.89308 38.6631 4.21842 38.9511 4.65575C39.2497 5.09308 39.3991 5.64242 39.3991 6.30375V9.55175C39.3991 9.95708 39.5911 10.1598 39.9751 10.1598C40.1564 10.1598 40.3271 10.1331 40.4871 10.0798L40.3591 11.4398C40.0817 11.5784 39.7351 11.6478 39.3191 11.6478C38.9457 11.6478 38.6097 11.5838 38.3111 11.4558C38.0124 11.3278 37.7777 11.1358 37.6071 10.8798C37.4364 10.6131 37.3511 10.2824 37.3511 9.88775V9.82375L37.7351 9.75975C37.6711 10.1651 37.4951 10.5118 37.2071 10.7998C36.9191 11.0771 36.5671 11.2904 36.1511 11.4398C35.7457 11.5891 35.3244 11.6638 34.8871 11.6638C34.3431 11.6638 33.8737 11.5838 33.4791 11.4238C33.0844 11.2531 32.7804 11.0078 32.5671 10.6878C32.3537 10.3678 32.2471 9.97308 32.2471 9.50375C32.2471 8.90642 32.4391 8.42108 32.8231 8.04775C33.2071 7.66375 33.7564 7.40242 34.4711 7.26375L37.4791 6.65575L37.4631 8.01575L35.5431 8.39975C35.1804 8.47442 34.9031 8.57575 34.7111 8.70375C34.5297 8.82108 34.4391 9.01842 34.4391 9.29575C34.4391 9.56242 34.5351 9.76508 34.7271 9.90375C34.9297 10.0424 35.1697 10.1118 35.4471 10.1118C35.6711 10.1118 35.8897 10.0851 36.1031 10.0318C36.3164 9.97842 36.5084 9.89308 36.6791 9.77575C36.8497 9.65842 36.9831 9.49842 37.0791 9.29575C37.1751 9.09308 37.2231 8.84775 37.2231 8.55975V6.39975Z" fill="black"/>
<path d="M27.1095 11.6638C26.2668 11.6638 25.5308 11.4984 24.9015 11.1678C24.2828 10.8371 23.8028 10.3624 23.4615 9.74375C23.1201 9.12508 22.9495 8.37842 22.9495 7.50375C22.9495 6.62908 23.1201 5.88242 23.4615 5.26375C23.8028 4.64508 24.2775 4.17042 24.8855 3.83975C25.5041 3.50908 26.2081 3.34375 26.9975 3.34375C27.8081 3.34375 28.4961 3.50908 29.0615 3.83975C29.6268 4.15975 30.0588 4.60242 30.3575 5.16775C30.6561 5.72242 30.8055 6.35708 30.8055 7.07175C30.8055 7.28508 30.8001 7.48775 30.7895 7.67975C30.7788 7.87175 30.7628 8.04242 30.7415 8.19175H24.3575V6.67175H29.7815L28.7255 7.05575C28.7255 6.38375 28.5708 5.86642 28.2615 5.50375C27.9628 5.14108 27.5361 4.95975 26.9815 4.95975C26.5761 4.95975 26.2241 5.05575 25.9255 5.24775C25.6375 5.43975 25.4188 5.72775 25.2695 6.11175C25.1201 6.48508 25.0455 6.95975 25.0455 7.53575C25.0455 8.10108 25.1255 8.57042 25.2855 8.94375C25.4561 9.30642 25.6908 9.57842 25.9895 9.75975C26.2988 9.94108 26.6668 10.0318 27.0935 10.0318C27.5628 10.0318 27.9415 9.94108 28.2295 9.75975C28.5175 9.57842 28.7415 9.32775 28.9015 9.00775L30.6455 9.67975C30.4748 10.0958 30.2135 10.4531 29.8615 10.7518C29.5201 11.0504 29.1095 11.2798 28.6295 11.4398C28.1601 11.5891 27.6535 11.6638 27.1095 11.6638Z" fill="black"/>
<path d="M16.8037 11.5038V3.50375H18.7077L18.8517 5.07175C19.065 4.51708 19.3744 4.09042 19.7797 3.79175C20.1957 3.49308 20.713 3.34375 21.3317 3.34375C21.513 3.34375 21.6784 3.35975 21.8277 3.39175C21.977 3.42375 22.0997 3.46642 22.1957 3.51975L21.9397 5.35975C21.833 5.31708 21.6997 5.28508 21.5397 5.26375C21.3904 5.24242 21.193 5.23175 20.9477 5.23175C20.6277 5.23175 20.3184 5.31175 20.0197 5.47175C19.721 5.62108 19.4757 5.85575 19.2837 6.17575C19.0917 6.48508 18.9957 6.87975 18.9957 7.35975V11.5038H16.8037Z" fill="black"/>
<path d="M13.8544 0V9.04C13.8544 9.41333 13.9184 9.67467 14.0464 9.824C14.1744 9.97333 14.3877 10.048 14.6864 10.048C14.8677 10.048 15.017 10.0373 15.1344 10.016C15.2517 9.984 15.401 9.94133 15.5824 9.888L15.3904 11.328C15.209 11.4347 14.9797 11.5147 14.7024 11.568C14.4357 11.632 14.169 11.664 13.9024 11.664C13.1237 11.664 12.553 11.4773 12.1904 11.104C11.8384 10.72 11.6624 10.112 11.6624 9.28V0H13.8544Z" fill="black"/>
<path d="M10.352 11.5038H8.064L7.184 8.92785H3.136L2.256 11.5038H0L3.856 0.943848H6.496L10.352 11.5038ZM3.632 7.29585H6.688L5.152 2.68785L3.632 7.29585Z" fill="black"/>
</svg>
