<svg width="55" height="48" viewBox="0 0 55 48" fill="none" xmlns="http://www.w3.org/2000/svg">
<g clip-path="url(#clip0_31_302)">
<path d="M55 0H0V48H55V0Z" fill="#C20F2F"/>
<path d="M31.5422 23.3792C31.5422 19.8606 28.6897 17.0081 25.1711 17.0081C21.6525 17.0081 18.8 19.8605 18.8 23.3792C18.8001 26.8977 21.6526 29.7502 25.1711 29.7502C28.6897 29.7502 31.5422 26.8977 31.5422 23.3792ZM33.5422 23.3792C33.5422 28.0023 29.7942 31.7502 25.1711 31.7502C20.548 31.7502 16.8001 28.0023 16.8 23.3792C16.8 18.756 20.548 15.0081 25.1711 15.0081C29.7943 15.0081 33.5422 18.756 33.5422 23.3792Z" fill="white"/>
<path d="M30.3125 27.6634C30.6661 27.2393 31.2974 27.182 31.7217 27.5355L37.6299 32.4603C38.0541 32.8139 38.1114 33.4442 37.7578 33.8685C37.4042 34.2924 36.7737 34.3499 36.3496 33.9965L30.4404 29.0726C30.0162 28.719 29.959 28.0877 30.3125 27.6634Z" fill="white"/>
</g>
<defs>
<clipPath id="clip0_31_302">
<path d="M0 15C0 6.71573 6.71573 0 15 0H55V48H15C6.71573 48 0 41.2843 0 33V15Z" fill="white"/>
</clipPath>
</defs>
</svg>
