<svg width="130" height="34" viewBox="0 0 130 34" fill="none" xmlns="http://www.w3.org/2000/svg">
<path d="M121.444 30.504V22.504H123.412L123.54 24.904L123.268 24.648C123.396 24.1253 123.599 23.6933 123.876 23.352C124.154 23.0107 124.49 22.76 124.884 22.6C125.29 22.4293 125.732 22.344 126.212 22.344C126.767 22.344 127.258 22.4507 127.684 22.664C128.122 22.8773 128.463 23.2027 128.708 23.64C128.964 24.0667 129.092 24.6053 129.092 25.256V30.504H126.9V25.88C126.9 25.1973 126.767 24.728 126.5 24.472C126.234 24.2053 125.887 24.072 125.46 24.072C125.162 24.072 124.868 24.1467 124.58 24.296C124.303 24.4347 124.074 24.664 123.892 24.984C123.722 25.304 123.636 25.7307 123.636 26.264V30.504H121.444Z" fill="#69C3E8"/>
<path d="M118.033 21.352C117.574 21.352 117.233 21.256 117.009 21.064C116.785 20.8613 116.673 20.568 116.673 20.184C116.673 19.7893 116.785 19.496 117.009 19.304C117.233 19.1013 117.574 19 118.033 19C118.491 19 118.833 19.1013 119.057 19.304C119.281 19.496 119.393 19.7893 119.393 20.184C119.393 20.568 119.281 20.8613 119.057 21.064C118.833 21.256 118.491 21.352 118.033 21.352ZM119.121 22.504V30.504H116.929V22.504H119.121Z" fill="#69C3E8"/>
<path d="M102.132 30.504V22.504H104.1L104.228 24.904L103.956 24.648C104.084 24.1253 104.287 23.6933 104.564 23.352C104.841 23.0107 105.177 22.76 105.572 22.6C105.977 22.4293 106.42 22.344 106.9 22.344C107.455 22.344 107.945 22.4507 108.372 22.664C108.809 22.8773 109.151 23.2027 109.396 23.64C109.652 24.0667 109.78 24.6053 109.78 25.256V30.504H107.588V25.88C107.588 25.1973 107.455 24.728 107.188 24.472C106.921 24.2053 106.575 24.072 106.148 24.072C105.849 24.072 105.556 24.1467 105.268 24.296C104.991 24.4347 104.761 24.664 104.58 24.984C104.409 25.304 104.324 25.7307 104.324 26.264V30.504H102.132Z" fill="#69C3E8"/>
<path d="M100.727 20.5999L100.983 22.1679C100.94 22.1679 100.892 22.1679 100.839 22.1679C100.796 22.1572 100.748 22.1519 100.695 22.1519C100.204 22.1519 99.8359 22.2639 99.5906 22.4879C99.3453 22.7012 99.2226 22.9999 99.2226 23.3839L98.3266 23.0159C98.3266 22.5892 98.412 22.1945 98.5826 21.8319C98.7533 21.4585 99.004 21.1599 99.3346 20.9359C99.676 20.7119 100.081 20.5999 100.551 20.5999C100.572 20.5999 100.599 20.5999 100.631 20.5999C100.663 20.5999 100.695 20.5999 100.727 20.5999ZM98.1026 28.9999C98.9666 28.9999 99.6333 29.1865 100.103 29.5599C100.572 29.9332 100.807 30.4559 100.807 31.1279C100.807 31.7359 100.631 32.2479 100.279 32.6639C99.9266 33.0905 99.4306 33.4105 98.7906 33.6239C98.1613 33.8372 97.4306 33.9439 96.5986 33.9439C95.2226 33.9439 94.2146 33.7519 93.5746 33.3679C92.9453 32.9839 92.6306 32.4825 92.6306 31.8639C92.6306 31.4265 92.796 31.0585 93.1266 30.7599C93.468 30.4612 94.028 30.2959 94.8066 30.2639L94.7266 30.5199C94.1719 30.4239 93.7453 30.2425 93.4466 29.9759C93.1586 29.6985 93.0146 29.3199 93.0146 28.8399C93.0146 28.3492 93.2013 27.9492 93.5746 27.6399C93.9586 27.3199 94.476 27.1332 95.1266 27.0799L96.0866 27.5279H95.8626C95.404 27.5599 95.0786 27.6559 94.8866 27.8159C94.7053 27.9652 94.6146 28.1359 94.6146 28.3279C94.6146 28.5519 94.6999 28.7225 94.8706 28.8399C95.0519 28.9465 95.308 28.9999 95.6386 28.9999H98.1026ZM96.6146 32.4399C97.1693 32.4399 97.6226 32.3919 97.9746 32.2959C98.3373 32.1999 98.604 32.0772 98.7746 31.9279C98.956 31.7785 99.0466 31.6132 99.0466 31.4319C99.0466 31.2292 98.9666 31.0639 98.8066 30.9359C98.6466 30.8185 98.3586 30.7599 97.9426 30.7599H95.2386C94.9826 30.7599 94.7693 30.8239 94.5986 30.9519C94.4386 31.0799 94.3586 31.2559 94.3586 31.4799C94.3586 31.7785 94.5559 32.0132 94.9506 32.1839C95.3559 32.3545 95.9106 32.4399 96.6146 32.4399ZM96.6306 22.3439C97.3773 22.3439 98.0226 22.4559 98.5666 22.6799C99.1213 22.8932 99.5426 23.2025 99.8306 23.6079C100.129 24.0132 100.279 24.4985 100.279 25.0639C100.279 25.6185 100.129 26.0985 99.8306 26.5039C99.5426 26.9092 99.1213 27.2239 98.5666 27.4479C98.0226 27.6612 97.3773 27.7679 96.6306 27.7679C95.4466 27.7679 94.5399 27.5279 93.9106 27.0479C93.2919 26.5572 92.9826 25.8959 92.9826 25.0639C92.9826 24.4985 93.1266 24.0132 93.4146 23.6079C93.7133 23.2025 94.1346 22.8932 94.6786 22.6799C95.2226 22.4559 95.8733 22.3439 96.6306 22.3439ZM96.6306 23.7199C96.2039 23.7199 95.8519 23.8372 95.5746 24.0719C95.2973 24.3065 95.1586 24.6319 95.1586 25.0479C95.1586 25.4639 95.2973 25.7945 95.5746 26.0399C95.8519 26.2745 96.2039 26.3919 96.6306 26.3919C97.0573 26.3919 97.4039 26.2745 97.6706 26.0399C97.9479 25.7945 98.0866 25.4639 98.0866 25.0479C98.0866 24.6319 97.9479 24.3065 97.6706 24.0719C97.4039 23.8372 97.0573 23.7199 96.6306 23.7199Z" fill="#69C3E8"/>
<path d="M89.939 21.352C89.4803 21.352 89.139 21.256 88.915 21.064C88.691 20.8613 88.579 20.568 88.579 20.184C88.579 19.7893 88.691 19.496 88.915 19.304C89.139 19.1013 89.4803 19 89.939 19C90.3976 19 90.739 19.1013 90.963 19.304C91.187 19.496 91.299 19.7893 91.299 20.184C91.299 20.568 91.187 20.8613 90.963 21.064C90.739 21.256 90.3976 21.352 89.939 21.352ZM91.027 22.504V30.504H88.835V22.504H91.027Z" fill="#69C3E8"/>
<path d="M82.665 19.7839C83.625 19.7839 84.4677 19.9493 85.193 20.2799C85.9183 20.6106 86.537 21.1013 87.049 21.7519L85.817 23.1759C85.3797 22.6213 84.8997 22.2159 84.377 21.9599C83.865 21.6933 83.2677 21.5599 82.585 21.5599C82.137 21.5599 81.7637 21.6186 81.465 21.7359C81.177 21.8533 80.9637 22.0079 80.825 22.1999C80.697 22.3919 80.633 22.6053 80.633 22.8399C80.633 23.1279 80.745 23.3733 80.969 23.5759C81.193 23.7679 81.577 23.9279 82.121 24.0559L84.089 24.5039C85.1343 24.7386 85.881 25.0906 86.329 25.5599C86.7877 26.0186 87.017 26.6159 87.017 27.3519C87.017 28.0453 86.8357 28.6426 86.473 29.1439C86.1103 29.6346 85.6037 30.0133 84.953 30.2799C84.3023 30.5359 83.5557 30.6639 82.713 30.6639C81.977 30.6639 81.2997 30.5786 80.681 30.4079C80.073 30.2266 79.529 29.9813 79.049 29.6719C78.569 29.3626 78.169 29.0053 77.849 28.5999L79.097 27.1119C79.3423 27.4533 79.6463 27.7573 80.009 28.0239C80.3717 28.2906 80.7823 28.5039 81.241 28.6639C81.7103 28.8133 82.201 28.8879 82.713 28.8879C83.1503 28.8879 83.5183 28.8399 83.817 28.7439C84.1263 28.6373 84.3557 28.4933 84.505 28.3119C84.665 28.1199 84.745 27.8906 84.745 27.6239C84.745 27.3466 84.649 27.1119 84.457 26.9199C84.2757 26.7173 83.9343 26.5626 83.433 26.4559L81.289 25.9759C80.6703 25.8266 80.137 25.6346 79.689 25.3999C79.2517 25.1546 78.9157 24.8453 78.681 24.4719C78.457 24.0879 78.345 23.6346 78.345 23.1119C78.345 22.4826 78.5157 21.9173 78.857 21.4159C79.1983 20.9146 79.689 20.5199 80.329 20.2319C80.9797 19.9333 81.7583 19.7839 82.665 19.7839Z" fill="#69C3E8"/>
<path d="M67.9342 19.7839C68.6916 19.7839 69.3636 19.8959 69.9502 20.1199C70.5369 20.3439 70.9956 20.6746 71.3262 21.1119C71.6569 21.5386 71.8222 22.0666 71.8222 22.6959C71.8222 23.3359 71.6836 23.8639 71.4062 24.2799C71.1396 24.6853 70.7769 24.9946 70.3182 25.2079C69.8596 25.4106 69.3529 25.5439 68.7982 25.6079L68.6862 27.1119H66.6862L66.7022 24.6959C67.4169 24.6106 67.9716 24.4986 68.3662 24.3599C68.7716 24.2106 69.0542 24.0239 69.2142 23.7999C69.3849 23.5759 69.4702 23.3093 69.4702 22.9999C69.4702 22.7013 69.4062 22.4506 69.2782 22.2479C69.1609 22.0453 68.9796 21.8906 68.7342 21.7839C68.4889 21.6773 68.1742 21.6239 67.7902 21.6239C67.2356 21.6239 66.7929 21.7839 66.4622 22.1039C66.1316 22.4133 65.9289 22.8559 65.8542 23.4319L63.7742 22.6319C63.9022 22.0773 64.1369 21.5866 64.4782 21.1599C64.8196 20.7226 65.2729 20.3866 65.8382 20.1519C66.4142 19.9066 67.1129 19.7839 67.9342 19.7839ZM67.7102 28.1839C68.1262 28.1839 68.4569 28.2959 68.7022 28.5199C68.9476 28.7439 69.0702 29.0426 69.0702 29.4159C69.0702 29.7999 68.9476 30.1039 68.7022 30.3279C68.4569 30.5413 68.1262 30.6479 67.7102 30.6479C67.2942 30.6479 66.9636 30.5413 66.7182 30.3279C66.4729 30.1039 66.3502 29.7999 66.3502 29.4159C66.3502 29.0426 66.4729 28.7439 66.7182 28.5199C66.9636 28.2959 67.2942 28.1839 67.7102 28.1839Z" fill="black"/>
<path d="M60.3232 20.0559V27.8959C60.3232 28.2799 60.4192 28.5626 60.6112 28.7439C60.8139 28.9146 61.0859 28.9999 61.4272 28.9999C61.6939 28.9999 61.9286 28.9626 62.1312 28.8879C62.3339 28.8026 62.5152 28.6906 62.6752 28.5519L63.0272 30.0079C62.7712 30.2106 62.4512 30.3706 62.0672 30.4879C61.6832 30.6052 61.2779 30.6639 60.8512 30.6639C60.3179 30.6639 59.8432 30.5839 59.4272 30.4239C59.0219 30.2639 58.7019 30.0079 58.4672 29.6559C58.2432 29.3039 58.1312 28.8346 58.1312 28.2479V20.6639L60.3232 20.0559ZM62.8832 22.5039V24.1359H56.6592V22.5039H62.8832Z" fill="black"/>
<path d="M47.6475 30.504V22.504H49.6155L49.7435 24.904L49.4715 24.648C49.5995 24.1253 49.8021 23.6933 50.0795 23.352C50.3568 23.0107 50.6928 22.76 51.0875 22.6C51.4928 22.4293 51.9355 22.344 52.4155 22.344C52.9701 22.344 53.4608 22.4507 53.8875 22.664C54.3248 22.8773 54.6661 23.2027 54.9115 23.64C55.1675 24.0667 55.2955 24.6053 55.2955 25.256V30.504H53.1035V25.88C53.1035 25.1973 52.9701 24.728 52.7035 24.472C52.4368 24.2053 52.0901 24.072 51.6635 24.072C51.3648 24.072 51.0715 24.1467 50.7835 24.296C50.5061 24.4347 50.2768 24.664 50.0955 24.984C49.9248 25.304 49.8395 25.7307 49.8395 26.264V30.504H47.6475Z" fill="black"/>
<path d="M40.5409 30.6639C40.0075 30.6639 39.5275 30.5679 39.1009 30.3759C38.6742 30.1839 38.3329 29.8799 38.0769 29.4639C37.8315 29.0372 37.7089 28.4879 37.7089 27.8159V22.5039H39.9009V27.2879C39.9009 27.9066 40.0289 28.3386 40.2849 28.5839C40.5409 28.8186 40.9089 28.9359 41.3889 28.9359C41.6129 28.9359 41.8315 28.8986 42.0449 28.8239C42.2582 28.7386 42.4449 28.6106 42.6049 28.4399C42.7755 28.2692 42.9089 28.0506 43.0049 27.7839C43.1009 27.5066 43.1489 27.1812 43.1489 26.8079V22.5039H45.3409V30.5039H43.3889L43.3089 29.1119C43.0422 29.6452 42.6742 30.0399 42.2049 30.2959C41.7462 30.5412 41.1915 30.6639 40.5409 30.6639Z" fill="black"/>
<path d="M31.8267 22.344C32.6374 22.344 33.3467 22.5093 33.9547 22.84C34.5734 23.1707 35.0534 23.6453 35.3947 24.264C35.7467 24.8827 35.9227 25.6293 35.9227 26.504C35.9227 27.368 35.7467 28.1147 35.3947 28.744C35.0534 29.3627 34.5734 29.8373 33.9547 30.168C33.3467 30.4987 32.6374 30.664 31.8267 30.664C31.0267 30.664 30.3174 30.4987 29.6987 30.168C29.08 29.8373 28.5947 29.3627 28.2427 28.744C27.9014 28.1147 27.7307 27.368 27.7307 26.504C27.7307 25.6293 27.9014 24.8827 28.2427 24.264C28.5947 23.6453 29.08 23.1707 29.6987 22.84C30.3174 22.5093 31.0267 22.344 31.8267 22.344ZM31.8267 23.976C31.4214 23.976 31.0747 24.072 30.7867 24.264C30.5094 24.4453 30.296 24.7227 30.1467 25.096C29.9974 25.4693 29.9227 25.9387 29.9227 26.504C29.9227 27.0693 29.9974 27.5387 30.1467 27.912C30.296 28.2853 30.5094 28.568 30.7867 28.76C31.0747 28.9413 31.4214 29.032 31.8267 29.032C32.2214 29.032 32.5574 28.9413 32.8347 28.76C33.1227 28.568 33.3414 28.2853 33.4907 27.912C33.64 27.5387 33.7147 27.0693 33.7147 26.504C33.7147 25.9387 33.64 25.4693 33.4907 25.096C33.3414 24.7227 33.1227 24.4453 32.8347 24.264C32.5574 24.072 32.2214 23.976 31.8267 23.976Z" fill="black"/>
<path d="M22.7795 22.344C23.4941 22.344 24.0968 22.4507 24.5875 22.664C25.0888 22.8667 25.4888 23.1493 25.7875 23.512C26.0968 23.864 26.3155 24.2587 26.4435 24.696L24.3955 25.432C24.2888 24.952 24.1075 24.5893 23.8515 24.344C23.5955 24.0987 23.2488 23.976 22.8115 23.976C22.4061 23.976 22.0595 24.072 21.7715 24.264C21.4835 24.4453 21.2648 24.728 21.1155 25.112C20.9661 25.4853 20.8915 25.9547 20.8915 26.52C20.8915 27.0853 20.9661 27.5547 21.1155 27.928C21.2755 28.3013 21.4995 28.5787 21.7875 28.76C22.0861 28.9413 22.4328 29.032 22.8275 29.032C23.1475 29.032 23.4195 28.9787 23.6435 28.872C23.8675 28.7547 24.0488 28.5893 24.1875 28.376C24.3368 28.1627 24.4381 27.9067 24.4915 27.608L26.4755 28.248C26.3581 28.728 26.1395 29.1493 25.8195 29.512C25.4995 29.8747 25.0888 30.1573 24.5875 30.36C24.0861 30.5627 23.5048 30.664 22.8435 30.664C22.0221 30.664 21.2968 30.4987 20.6675 30.168C20.0381 29.8373 19.5528 29.3627 19.2115 28.744C18.8701 28.1253 18.6995 27.3787 18.6995 26.504C18.6995 25.6293 18.8701 24.8827 19.2115 24.264C19.5528 23.6453 20.0328 23.1707 20.6515 22.84C21.2701 22.5093 21.9795 22.344 22.7795 22.344Z" fill="black"/>
<path d="M13.7482 22.344C14.4629 22.344 15.0655 22.4507 15.5562 22.664C16.0575 22.8667 16.4575 23.1493 16.7562 23.512C17.0655 23.864 17.2842 24.2587 17.4122 24.696L15.3642 25.432C15.2575 24.952 15.0762 24.5893 14.8202 24.344C14.5642 24.0987 14.2175 23.976 13.7802 23.976C13.3749 23.976 13.0282 24.072 12.7402 24.264C12.4522 24.4453 12.2335 24.728 12.0842 25.112C11.9349 25.4853 11.8602 25.9547 11.8602 26.52C11.8602 27.0853 11.9349 27.5547 12.0842 27.928C12.2442 28.3013 12.4682 28.5787 12.7562 28.76C13.0549 28.9413 13.4015 29.032 13.7962 29.032C14.1162 29.032 14.3882 28.9787 14.6122 28.872C14.8362 28.7547 15.0175 28.5893 15.1562 28.376C15.3055 28.1627 15.4069 27.9067 15.4602 27.608L17.4442 28.248C17.3269 28.728 17.1082 29.1493 16.7882 29.512C16.4682 29.8747 16.0575 30.1573 15.5562 30.36C15.0549 30.5627 14.4735 30.664 13.8122 30.664C12.9909 30.664 12.2655 30.4987 11.6362 30.168C11.0069 29.8373 10.5215 29.3627 10.1802 28.744C9.83888 28.1253 9.66821 27.3787 9.66821 26.504C9.66821 25.6293 9.83888 24.8827 10.1802 24.264C10.5215 23.6453 11.0015 23.1707 11.6202 22.84C12.2389 22.5093 12.9482 22.344 13.7482 22.344Z" fill="black"/>
<path d="M5.51995 25.4C5.51995 24.9413 5.38662 24.584 5.11995 24.328C4.86395 24.072 4.52262 23.944 4.09595 23.944C3.70129 23.944 3.35462 24.0453 3.05595 24.248C2.75729 24.4507 2.53862 24.7867 2.39995 25.256L0.527954 24.68C0.709287 23.976 1.10395 23.4107 1.71195 22.984C2.33062 22.5573 3.15729 22.344 4.19195 22.344C4.89595 22.344 5.50929 22.456 6.03195 22.68C6.55462 22.8933 6.95995 23.2187 7.24795 23.656C7.54662 24.0933 7.69595 24.6427 7.69595 25.304V28.552C7.69595 28.9573 7.88795 29.16 8.27195 29.16C8.45329 29.16 8.62395 29.1333 8.78395 29.08L8.65595 30.44C8.37862 30.5787 8.03195 30.648 7.61595 30.648C7.24262 30.648 6.90662 30.584 6.60795 30.456C6.30929 30.328 6.07462 30.136 5.90395 29.88C5.73329 29.6133 5.64795 29.2827 5.64795 28.888V28.824L6.03195 28.76C5.96795 29.1653 5.79195 29.512 5.50395 29.8C5.21595 30.0773 4.86395 30.2907 4.44795 30.44C4.04262 30.5893 3.62129 30.664 3.18395 30.664C2.63995 30.664 2.17062 30.584 1.77595 30.424C1.38129 30.2533 1.07729 30.008 0.863954 29.688C0.650621 29.368 0.543954 28.9733 0.543954 28.504C0.543954 27.9067 0.735954 27.4213 1.11995 27.048C1.50395 26.664 2.05329 26.4027 2.76795 26.264L5.77595 25.656L5.75995 27.016L3.83995 27.4C3.47729 27.4747 3.19995 27.576 3.00795 27.704C2.82662 27.8213 2.73595 28.0187 2.73595 28.296C2.73595 28.5627 2.83195 28.7653 3.02395 28.904C3.22662 29.0427 3.46662 29.112 3.74395 29.112C3.96795 29.112 4.18662 29.0853 4.39995 29.032C4.61329 28.9787 4.80529 28.8933 4.97595 28.776C5.14662 28.6587 5.27995 28.4987 5.37595 28.296C5.47195 28.0933 5.51995 27.848 5.51995 27.56V25.4Z" fill="black"/>
<path d="M117.726 11.504V3.50399H119.694L119.822 5.90399L119.55 5.64799C119.678 5.12533 119.88 4.69333 120.158 4.35199C120.435 4.01066 120.771 3.75999 121.166 3.59999C121.571 3.42933 122.014 3.34399 122.494 3.34399C123.048 3.34399 123.539 3.45066 123.966 3.66399C124.403 3.87733 124.744 4.20266 124.99 4.63999C125.246 5.06666 125.374 5.60533 125.374 6.25599V11.504H123.182V6.87999C123.182 6.19733 123.048 5.728 122.782 5.472C122.515 5.20533 122.168 5.07199 121.742 5.07199C121.443 5.07199 121.15 5.14666 120.862 5.29599C120.584 5.43466 120.355 5.66399 120.174 5.98399C120.003 6.30399 119.918 6.73066 119.918 7.264V11.504H117.726Z" fill="black"/>
<path d="M113.098 6.39999C113.098 5.94133 112.965 5.58399 112.698 5.32799C112.442 5.07199 112.101 4.94399 111.674 4.94399C111.279 4.94399 110.933 5.04533 110.634 5.24799C110.335 5.45066 110.117 5.78666 109.978 6.25599L108.106 5.67999C108.287 4.97599 108.682 4.41066 109.29 3.98399C109.909 3.55733 110.735 3.34399 111.77 3.34399C112.474 3.34399 113.087 3.45599 113.61 3.67999C114.133 3.89333 114.538 4.21866 114.826 4.65599C115.125 5.09333 115.274 5.64266 115.274 6.30399V9.552C115.274 9.95733 115.466 10.16 115.85 10.16C116.031 10.16 116.202 10.1333 116.362 10.08L116.234 11.44C115.957 11.5787 115.61 11.648 115.194 11.648C114.821 11.648 114.485 11.584 114.186 11.456C113.887 11.328 113.653 11.136 113.482 10.88C113.311 10.6133 113.226 10.2827 113.226 9.88799V9.82399L113.61 9.75999C113.546 10.1653 113.37 10.512 113.082 10.8C112.794 11.0773 112.442 11.2907 112.026 11.44C111.621 11.5893 111.199 11.664 110.762 11.664C110.218 11.664 109.749 11.584 109.354 11.424C108.959 11.2533 108.655 11.008 108.442 10.688C108.229 10.368 108.122 9.97333 108.122 9.50399C108.122 8.90666 108.314 8.42133 108.698 8.04799C109.082 7.66399 109.631 7.40266 110.346 7.264L113.354 6.656L113.338 8.016L111.418 8.39999C111.055 8.47466 110.778 8.57599 110.586 8.70399C110.405 8.82133 110.314 9.01866 110.314 9.29599C110.314 9.56266 110.41 9.76533 110.602 9.90399C110.805 10.0427 111.045 10.112 111.322 10.112C111.546 10.112 111.765 10.0853 111.978 10.032C112.191 9.97866 112.383 9.89333 112.554 9.776C112.725 9.65866 112.858 9.49866 112.954 9.29599C113.05 9.09333 113.098 8.84799 113.098 8.55999V6.39999Z" fill="black"/>
<path d="M98.0938 11.664C97.2512 11.664 96.5152 11.4987 95.8858 11.168C95.2672 10.8373 94.7872 10.3627 94.4458 9.74399C94.1045 9.12533 93.9338 8.37866 93.9338 7.50399C93.9338 6.62933 94.1045 5.88266 94.4458 5.264C94.7872 4.64533 95.2618 4.17066 95.8698 3.83999C96.4885 3.50933 97.1925 3.34399 97.9818 3.34399C98.7925 3.34399 99.4805 3.50933 100.046 3.83999C100.611 4.15999 101.043 4.60266 101.342 5.16799C101.641 5.72266 101.79 6.35733 101.79 7.07199C101.79 7.28533 101.785 7.48799 101.774 7.67999C101.763 7.87199 101.747 8.04266 101.726 8.19199H95.3418V6.67199H100.766L99.7098 7.05599C99.7098 6.384 99.5552 5.86666 99.2458 5.50399C98.9472 5.14133 98.5205 4.95999 97.9658 4.95999C97.5605 4.95999 97.2085 5.05599 96.9098 5.24799C96.6218 5.43999 96.4032 5.72799 96.2538 6.11199C96.1045 6.48533 96.0298 6.95999 96.0298 7.53599C96.0298 8.10133 96.1098 8.57066 96.2698 8.94399C96.4405 9.30666 96.6752 9.57866 96.9738 9.75999C97.2832 9.94133 97.6512 10.032 98.0778 10.032C98.5472 10.032 98.9258 9.94133 99.2138 9.75999C99.5018 9.57866 99.7258 9.32799 99.8858 9.00799L101.63 9.67999C101.459 10.096 101.198 10.4533 100.846 10.752C100.504 11.0507 100.094 11.28 99.6138 11.44C99.1445 11.5893 98.6378 11.664 98.0938 11.664Z" fill="black"/>
<path d="M90.9893 3.50391H93.2613L90.2213 11.5039H87.6933L84.6533 3.50391H86.9893L88.9733 9.82391L90.9893 3.50391Z" fill="black"/>
<path d="M81.4262 6.39999C81.4262 5.94133 81.2929 5.58399 81.0262 5.32799C80.7702 5.07199 80.4289 4.94399 80.0022 4.94399C79.6075 4.94399 79.2609 5.04533 78.9622 5.24799C78.6635 5.45066 78.4449 5.78666 78.3062 6.25599L76.4342 5.67999C76.6155 4.97599 77.0102 4.41066 77.6182 3.98399C78.2369 3.55733 79.0635 3.34399 80.0982 3.34399C80.8022 3.34399 81.4155 3.45599 81.9382 3.67999C82.4609 3.89333 82.8662 4.21866 83.1542 4.65599C83.4529 5.09333 83.6022 5.64266 83.6022 6.30399V9.552C83.6022 9.95733 83.7942 10.16 84.1782 10.16C84.3595 10.16 84.5302 10.1333 84.6902 10.08L84.5622 11.44C84.2849 11.5787 83.9382 11.648 83.5222 11.648C83.1489 11.648 82.8129 11.584 82.5142 11.456C82.2155 11.328 81.9809 11.136 81.8102 10.88C81.6395 10.6133 81.5542 10.2827 81.5542 9.88799V9.82399L81.9382 9.75999C81.8742 10.1653 81.6982 10.512 81.4102 10.8C81.1222 11.0773 80.7702 11.2907 80.3542 11.44C79.9489 11.5893 79.5275 11.664 79.0902 11.664C78.5462 11.664 78.0769 11.584 77.6822 11.424C77.2875 11.2533 76.9835 11.008 76.7702 10.688C76.5569 10.368 76.4502 9.97333 76.4502 9.50399C76.4502 8.90666 76.6422 8.42133 77.0262 8.04799C77.4102 7.66399 77.9595 7.40266 78.6742 7.264L81.6822 6.656L81.6662 8.016L79.7462 8.39999C79.3835 8.47466 79.1062 8.57599 78.9142 8.70399C78.7329 8.82133 78.6422 9.01866 78.6422 9.29599C78.6422 9.56266 78.7382 9.76533 78.9302 9.90399C79.1329 10.0427 79.3729 10.112 79.6502 10.112C79.8742 10.112 80.0929 10.0853 80.3062 10.032C80.5195 9.97866 80.7115 9.89333 80.8822 9.776C81.0529 9.65866 81.1862 9.49866 81.2822 9.29599C81.3782 9.09333 81.4262 8.84799 81.4262 8.55999V6.39999Z" fill="black"/>
<path d="M74.3966 0.943848V11.5038H72.1886V0.943848H74.3966ZM67.5326 0.943848V11.5038H65.3246V0.943848H67.5326ZM73.3406 5.27985V7.05585H66.4286V5.27985H73.3406Z" fill="black"/>
<path d="M59.3706 3.50391L56.1386 11.9999C55.8826 12.7252 55.5946 13.3012 55.2746 13.7279C54.9653 14.1546 54.6026 14.4639 54.1866 14.6559C53.7813 14.8479 53.296 14.9439 52.7306 14.9439C52.3146 14.9439 51.9306 14.8906 51.5786 14.7839C51.2373 14.6879 50.9386 14.5599 50.6826 14.3999L51.1466 12.8159C51.3493 12.9759 51.5626 13.0879 51.7866 13.1519C52.0106 13.2266 52.2666 13.2639 52.5546 13.2639C52.8533 13.2639 53.1093 13.1999 53.3226 13.0719C53.5466 12.9439 53.7333 12.6879 53.8826 12.3039L54.1546 11.6159L53.2746 9.53591L50.8266 3.50391H53.2586L54.7786 8.30391L55.1946 9.90391L55.6906 8.20791L57.1466 3.50391H59.3706Z" fill="black"/>
<path d="M44.8434 11.664C44.182 11.664 43.59 11.4987 43.0674 11.168C42.5554 10.8373 42.15 10.3627 41.8514 9.744C41.5634 9.12533 41.4194 8.384 41.4194 7.52C41.4194 6.63467 41.574 5.88267 41.8834 5.264C42.1927 4.63467 42.6087 4.16 43.1314 3.84C43.6647 3.50933 44.262 3.344 44.9234 3.344C45.6274 3.344 46.2087 3.54667 46.6674 3.952C47.126 4.35733 47.4247 4.88 47.5634 5.52L47.3554 5.776V0H49.5474V11.504H47.5794L47.4354 9.072L47.7074 9.2C47.6327 9.70133 47.462 10.1387 47.1954 10.512C46.9287 10.8747 46.5927 11.1573 46.1874 11.36C45.782 11.5627 45.334 11.664 44.8434 11.664ZM45.4834 9.984C45.8674 9.984 46.198 9.888 46.4754 9.696C46.7527 9.49333 46.966 9.2 47.1154 8.816C47.2754 8.432 47.3554 7.97333 47.3554 7.44C47.3554 6.928 47.2807 6.496 47.1314 6.144C46.982 5.78133 46.7687 5.504 46.4914 5.312C46.214 5.12 45.8887 5.024 45.5154 5.024C44.918 5.024 44.4487 5.23733 44.1074 5.664C43.7767 6.08 43.6114 6.69333 43.6114 7.504C43.6114 8.31467 43.7767 8.93333 44.1074 9.36C44.438 9.776 44.8967 9.984 45.4834 9.984Z" fill="black"/>
<path d="M37.2231 6.39999C37.2231 5.94133 37.0897 5.58399 36.8231 5.32799C36.5671 5.07199 36.2257 4.94399 35.7991 4.94399C35.4044 4.94399 35.0577 5.04533 34.7591 5.24799C34.4604 5.45066 34.2417 5.78666 34.1031 6.25599L32.2311 5.67999C32.4124 4.97599 32.8071 4.41066 33.4151 3.98399C34.0337 3.55733 34.8604 3.34399 35.8951 3.34399C36.5991 3.34399 37.2124 3.45599 37.7351 3.67999C38.2577 3.89333 38.6631 4.21866 38.9511 4.65599C39.2497 5.09333 39.3991 5.64266 39.3991 6.30399V9.552C39.3991 9.95733 39.5911 10.16 39.9751 10.16C40.1564 10.16 40.3271 10.1333 40.4871 10.08L40.3591 11.44C40.0817 11.5787 39.7351 11.648 39.3191 11.648C38.9457 11.648 38.6097 11.584 38.3111 11.456C38.0124 11.328 37.7777 11.136 37.6071 10.88C37.4364 10.6133 37.3511 10.2827 37.3511 9.88799V9.82399L37.7351 9.75999C37.6711 10.1653 37.4951 10.512 37.2071 10.8C36.9191 11.0773 36.5671 11.2907 36.1511 11.44C35.7457 11.5893 35.3244 11.664 34.8871 11.664C34.3431 11.664 33.8737 11.584 33.4791 11.424C33.0844 11.2533 32.7804 11.008 32.5671 10.688C32.3537 10.368 32.2471 9.97333 32.2471 9.50399C32.2471 8.90666 32.4391 8.42133 32.8231 8.04799C33.2071 7.66399 33.7564 7.40266 34.4711 7.264L37.4791 6.656L37.4631 8.016L35.5431 8.39999C35.1804 8.47466 34.9031 8.57599 34.7111 8.70399C34.5297 8.82133 34.4391 9.01866 34.4391 9.29599C34.4391 9.56266 34.5351 9.76533 34.7271 9.90399C34.9297 10.0427 35.1697 10.112 35.4471 10.112C35.6711 10.112 35.8897 10.0853 36.1031 10.032C36.3164 9.97866 36.5084 9.89333 36.6791 9.776C36.8497 9.65866 36.9831 9.49866 37.0791 9.29599C37.1751 9.09333 37.2231 8.84799 37.2231 8.55999V6.39999Z" fill="black"/>
<path d="M27.1095 11.664C26.2668 11.664 25.5308 11.4987 24.9015 11.168C24.2828 10.8373 23.8028 10.3627 23.4615 9.74399C23.1201 9.12533 22.9495 8.37866 22.9495 7.50399C22.9495 6.62933 23.1201 5.88266 23.4615 5.264C23.8028 4.64533 24.2775 4.17066 24.8855 3.83999C25.5041 3.50933 26.2081 3.34399 26.9975 3.34399C27.8081 3.34399 28.4961 3.50933 29.0615 3.83999C29.6268 4.15999 30.0588 4.60266 30.3575 5.16799C30.6561 5.72266 30.8055 6.35733 30.8055 7.07199C30.8055 7.28533 30.8001 7.48799 30.7895 7.67999C30.7788 7.87199 30.7628 8.04266 30.7415 8.19199H24.3575V6.67199H29.7815L28.7255 7.05599C28.7255 6.384 28.5708 5.86666 28.2615 5.50399C27.9628 5.14133 27.5361 4.95999 26.9815 4.95999C26.5761 4.95999 26.2241 5.05599 25.9255 5.24799C25.6375 5.43999 25.4188 5.72799 25.2695 6.11199C25.1201 6.48533 25.0455 6.95999 25.0455 7.53599C25.0455 8.10133 25.1255 8.57066 25.2855 8.94399C25.4561 9.30666 25.6908 9.57866 25.9895 9.75999C26.2988 9.94133 26.6668 10.032 27.0935 10.032C27.5628 10.032 27.9415 9.94133 28.2295 9.75999C28.5175 9.57866 28.7415 9.32799 28.9015 9.00799L30.6455 9.67999C30.4748 10.096 30.2135 10.4533 29.8615 10.752C29.5201 11.0507 29.1095 11.28 28.6295 11.44C28.1601 11.5893 27.6535 11.664 27.1095 11.664Z" fill="black"/>
<path d="M16.8037 11.504V3.50399H18.7077L18.8517 5.07199C19.065 4.51733 19.3744 4.09066 19.7797 3.79199C20.1957 3.49333 20.713 3.34399 21.3317 3.34399C21.513 3.34399 21.6784 3.35999 21.8277 3.39199C21.977 3.42399 22.0997 3.46666 22.1957 3.51999L21.9397 5.35999C21.833 5.31733 21.6997 5.28533 21.5397 5.264C21.3904 5.24266 21.193 5.23199 20.9477 5.23199C20.6277 5.23199 20.3184 5.312 20.0197 5.472C19.721 5.62133 19.4757 5.85599 19.2837 6.17599C19.0917 6.48533 18.9957 6.87999 18.9957 7.35999V11.504H16.8037Z" fill="black"/>
<path d="M13.8544 0V9.04C13.8544 9.41333 13.9184 9.67467 14.0464 9.824C14.1744 9.97333 14.3877 10.048 14.6864 10.048C14.8677 10.048 15.017 10.0373 15.1344 10.016C15.2517 9.984 15.401 9.94133 15.5824 9.888L15.3904 11.328C15.209 11.4347 14.9797 11.5147 14.7024 11.568C14.4357 11.632 14.169 11.664 13.9024 11.664C13.1237 11.664 12.553 11.4773 12.1904 11.104C11.8384 10.72 11.6624 10.112 11.6624 9.28V0H13.8544Z" fill="black"/>
<path d="M10.352 11.5038H8.064L7.184 8.92785H3.136L2.256 11.5038H0L3.856 0.943848H6.496L10.352 11.5038ZM3.632 7.29585H6.688L5.152 2.68785L3.632 7.29585Z" fill="black"/>
</svg>
