<svg width="144" height="35" viewBox="0 0 144 35" fill="none" xmlns="http://www.w3.org/2000/svg">
<path d="M126.291 34.2319V22.8719H128.259L128.403 25.4159L128.131 25.1279C128.227 24.6586 128.403 24.2426 128.659 23.8799C128.926 23.5172 129.262 23.2346 129.667 23.0319C130.073 22.8186 130.526 22.7119 131.027 22.7119C131.678 22.7119 132.259 22.8772 132.771 23.2079C133.283 23.5386 133.683 24.0132 133.971 24.6319C134.27 25.2399 134.419 25.9812 134.419 26.8559C134.419 27.7306 134.27 28.4826 133.971 29.1119C133.673 29.7306 133.262 30.2052 132.739 30.5359C132.227 30.8666 131.641 31.0319 130.979 31.0319C130.275 31.0319 129.689 30.8346 129.219 30.4399C128.761 30.0452 128.446 29.5492 128.275 28.9519L128.483 28.6159V34.2319H126.291ZM130.339 29.3519C130.926 29.3519 131.385 29.1439 131.715 28.7279C132.057 28.3012 132.227 27.6826 132.227 26.8719C132.227 26.0612 132.062 25.4479 131.731 25.0319C131.411 24.6052 130.958 24.3919 130.371 24.3919C129.998 24.3919 129.667 24.4932 129.379 24.6959C129.102 24.8879 128.883 25.1706 128.723 25.5439C128.563 25.9066 128.483 26.3492 128.483 26.8719C128.483 27.3839 128.558 27.8266 128.707 28.1999C128.857 28.5732 129.07 28.8612 129.347 29.0639C129.635 29.2559 129.966 29.3519 130.339 29.3519Z" fill="#69C3E8"/>
<path d="M119.185 31.0321C118.651 31.0321 118.171 30.9361 117.745 30.7441C117.318 30.5521 116.977 30.2481 116.721 29.8321C116.475 29.4054 116.353 28.8561 116.353 28.1841V22.8721H118.545V27.6561C118.545 28.2747 118.673 28.7067 118.929 28.9521C119.185 29.1867 119.553 29.3041 120.033 29.3041C120.257 29.3041 120.475 29.2667 120.689 29.1921C120.902 29.1067 121.089 28.9787 121.249 28.8081C121.419 28.6374 121.553 28.4187 121.649 28.1521C121.745 27.8747 121.793 27.5494 121.793 27.1761V22.8721H123.985V30.8721H122.033L121.953 29.4801C121.686 30.0134 121.318 30.4081 120.849 30.6641C120.39 30.9094 119.835 31.0321 119.185 31.0321Z" fill="#69C3E8"/>
<path d="M101.604 30.8719V22.8719H103.572L103.7 25.2719L103.428 25.0159C103.556 24.4932 103.759 24.0612 104.036 23.7199C104.313 23.3786 104.649 23.1279 105.044 22.9679C105.449 22.7972 105.892 22.7119 106.372 22.7119C106.927 22.7119 107.417 22.8186 107.844 23.0319C108.281 23.2452 108.623 23.5706 108.868 24.0079C109.124 24.4346 109.252 24.9732 109.252 25.6239V30.8719H107.06V26.2479C107.06 25.5652 106.927 25.0959 106.66 24.8399C106.393 24.5732 106.047 24.4399 105.62 24.4399C105.321 24.4399 105.028 24.5146 104.74 24.6639C104.463 24.8026 104.233 25.0319 104.052 25.3519C103.881 25.6719 103.796 26.0986 103.796 26.6319V30.8719H101.604Z" fill="#69C3E8"/>
<path d="M100.199 20.9683L100.455 22.5363C100.412 22.5363 100.364 22.5363 100.311 22.5363C100.268 22.5256 100.22 22.5203 100.167 22.5203C99.676 22.5203 99.308 22.6323 99.0627 22.8563C98.8173 23.0696 98.6947 23.3683 98.6947 23.7523L97.7987 23.3843C97.7987 22.9576 97.884 22.5629 98.0547 22.2003C98.2253 21.8269 98.476 21.5283 98.8067 21.3043C99.148 21.0803 99.5533 20.9683 100.023 20.9683C100.044 20.9683 100.071 20.9683 100.103 20.9683C100.135 20.9683 100.167 20.9683 100.199 20.9683ZM97.5747 29.3683C98.4387 29.3683 99.1053 29.5549 99.5747 29.9283C100.044 30.3016 100.279 30.8243 100.279 31.4963C100.279 32.1043 100.103 32.6163 99.7507 33.0323C99.3987 33.4589 98.9027 33.7789 98.2627 33.9923C97.6333 34.2056 96.9027 34.3123 96.0707 34.3123C94.6947 34.3123 93.6867 34.1203 93.0467 33.7363C92.4173 33.3523 92.1027 32.8509 92.1027 32.2323C92.1027 31.7949 92.268 31.4269 92.5987 31.1283C92.94 30.8296 93.5 30.6643 94.2787 30.6323L94.1987 30.8883C93.644 30.7923 93.2173 30.6109 92.9187 30.3443C92.6307 30.0669 92.4867 29.6883 92.4867 29.2083C92.4867 28.7176 92.6733 28.3176 93.0467 28.0083C93.4307 27.6883 93.948 27.5016 94.5987 27.4483L95.5587 27.8963H95.3347C94.876 27.9283 94.5507 28.0243 94.3587 28.1843C94.1773 28.3336 94.0867 28.5043 94.0867 28.6963C94.0867 28.9203 94.172 29.0909 94.3427 29.2083C94.524 29.3149 94.78 29.3683 95.1107 29.3683H97.5747ZM96.0867 32.8083C96.6413 32.8083 97.0947 32.7603 97.4467 32.6643C97.8093 32.5683 98.076 32.4456 98.2467 32.2963C98.428 32.1469 98.5187 31.9816 98.5187 31.8003C98.5187 31.5976 98.4387 31.4323 98.2787 31.3043C98.1187 31.1869 97.8307 31.1283 97.4147 31.1283H94.7107C94.4547 31.1283 94.2413 31.1923 94.0707 31.3203C93.9107 31.4483 93.8307 31.6243 93.8307 31.8483C93.8307 32.1469 94.028 32.3816 94.4227 32.5523C94.828 32.7229 95.3827 32.8083 96.0867 32.8083ZM96.1027 22.7123C96.8493 22.7123 97.4947 22.8243 98.0387 23.0483C98.5933 23.2616 99.0147 23.5709 99.3027 23.9763C99.6013 24.3816 99.7507 24.8669 99.7507 25.4323C99.7507 25.9869 99.6013 26.4669 99.3027 26.8723C99.0147 27.2776 98.5933 27.5923 98.0387 27.8163C97.4947 28.0296 96.8493 28.1363 96.1027 28.1363C94.9187 28.1363 94.012 27.8963 93.3827 27.4163C92.764 26.9256 92.4547 26.2643 92.4547 25.4323C92.4547 24.8669 92.5987 24.3816 92.8867 23.9763C93.1853 23.5709 93.6067 23.2616 94.1507 23.0483C94.6947 22.8243 95.3453 22.7123 96.1027 22.7123ZM96.1027 24.0883C95.676 24.0883 95.324 24.2056 95.0467 24.4403C94.7693 24.6749 94.6307 25.0003 94.6307 25.4163C94.6307 25.8323 94.7693 26.1629 95.0467 26.4083C95.324 26.6429 95.676 26.7603 96.1027 26.7603C96.5293 26.7603 96.876 26.6429 97.1427 26.4083C97.42 26.1629 97.5587 25.8323 97.5587 25.4163C97.5587 25.0003 97.42 24.6749 97.1427 24.4403C96.876 24.2056 96.5293 24.0883 96.1027 24.0883Z" fill="#69C3E8"/>
<path d="M89.411 21.7202C88.9524 21.7202 88.611 21.6242 88.387 21.4322C88.163 21.2295 88.051 20.9362 88.051 20.5522C88.051 20.1575 88.163 19.8642 88.387 19.6722C88.611 19.4695 88.9524 19.3682 89.411 19.3682C89.8697 19.3682 90.211 19.4695 90.435 19.6722C90.659 19.8642 90.771 20.1575 90.771 20.5522C90.771 20.9362 90.659 21.2295 90.435 21.4322C90.211 21.6242 89.8697 21.7202 89.411 21.7202ZM90.499 22.8722V30.8722H88.307V22.8722H90.499Z" fill="#69C3E8"/>
<path d="M82.137 20.1523C83.097 20.1523 83.9397 20.3177 84.665 20.6483C85.3904 20.979 86.009 21.4697 86.521 22.1203L85.289 23.5443C84.8517 22.9897 84.3717 22.5843 83.849 22.3283C83.337 22.0617 82.7397 21.9283 82.057 21.9283C81.609 21.9283 81.2357 21.987 80.937 22.1043C80.649 22.2217 80.4357 22.3763 80.297 22.5683C80.169 22.7603 80.105 22.9737 80.105 23.2083C80.105 23.4963 80.217 23.7417 80.441 23.9443C80.665 24.1363 81.049 24.2963 81.593 24.4243L83.561 24.8723C84.6064 25.107 85.353 25.459 85.801 25.9283C86.2597 26.387 86.489 26.9843 86.489 27.7203C86.489 28.4137 86.3077 29.011 85.945 29.5123C85.5824 30.003 85.0757 30.3817 84.425 30.6483C83.7744 30.9043 83.0277 31.0323 82.185 31.0323C81.449 31.0323 80.7717 30.947 80.153 30.7763C79.545 30.595 79.001 30.3497 78.521 30.0403C78.041 29.731 77.641 29.3737 77.321 28.9683L78.569 27.4803C78.8144 27.8217 79.1184 28.1257 79.481 28.3923C79.8437 28.659 80.2544 28.8723 80.713 29.0323C81.1824 29.1817 81.673 29.2563 82.185 29.2563C82.6224 29.2563 82.9904 29.2083 83.289 29.1123C83.5984 29.0057 83.8277 28.8617 83.977 28.6803C84.137 28.4883 84.217 28.259 84.217 27.9923C84.217 27.715 84.121 27.4803 83.929 27.2883C83.7477 27.0857 83.4064 26.931 82.905 26.8243L80.761 26.3443C80.1424 26.195 79.609 26.003 79.161 25.7683C78.7237 25.523 78.3877 25.2137 78.153 24.8403C77.929 24.4563 77.817 24.003 77.817 23.4803C77.817 22.851 77.9877 22.2857 78.329 21.7843C78.6704 21.283 79.161 20.8883 79.801 20.6003C80.4517 20.3017 81.2304 20.1523 82.137 20.1523Z" fill="#69C3E8"/>
<path d="M67.4063 20.1523C68.1637 20.1523 68.8357 20.2643 69.4223 20.4883C70.009 20.7123 70.4677 21.043 70.7983 21.4803C71.129 21.907 71.2943 22.435 71.2943 23.0643C71.2943 23.7043 71.1557 24.2323 70.8783 24.6483C70.6117 25.0537 70.249 25.363 69.7903 25.5763C69.3317 25.779 68.825 25.9123 68.2703 25.9763L68.1583 27.4803H66.1583L66.1743 25.0643C66.889 24.979 67.4437 24.867 67.8383 24.7283C68.2437 24.579 68.5263 24.3923 68.6863 24.1683C68.857 23.9443 68.9423 23.6777 68.9423 23.3683C68.9423 23.0697 68.8783 22.819 68.7503 22.6163C68.633 22.4137 68.4517 22.259 68.2063 22.1523C67.961 22.0457 67.6463 21.9923 67.2623 21.9923C66.7077 21.9923 66.265 22.1523 65.9343 22.4723C65.6037 22.7817 65.401 23.2243 65.3263 23.8003L63.2463 23.0003C63.3743 22.4457 63.609 21.955 63.9503 21.5283C64.2917 21.091 64.745 20.755 65.3103 20.5203C65.8863 20.275 66.585 20.1523 67.4063 20.1523ZM67.1823 28.5523C67.5983 28.5523 67.929 28.6643 68.1743 28.8883C68.4197 29.1123 68.5423 29.411 68.5423 29.7843C68.5423 30.1683 68.4197 30.4723 68.1743 30.6963C67.929 30.9097 67.5983 31.0163 67.1823 31.0163C66.7663 31.0163 66.4357 30.9097 66.1903 30.6963C65.945 30.4723 65.8223 30.1683 65.8223 29.7843C65.8223 29.411 65.945 29.1123 66.1903 28.8883C66.4357 28.6643 66.7663 28.5523 67.1823 28.5523Z" fill="black"/>
<path d="M59.7953 20.4238V28.2638C59.7953 28.6478 59.8913 28.9305 60.0833 29.1118C60.286 29.2825 60.558 29.3678 60.8993 29.3678C61.166 29.3678 61.4007 29.3305 61.6033 29.2558C61.806 29.1705 61.9873 29.0585 62.1473 28.9198L62.4993 30.3758C62.2433 30.5785 61.9233 30.7385 61.5393 30.8558C61.1553 30.9732 60.75 31.0318 60.3233 31.0318C59.79 31.0318 59.3153 30.9518 58.8993 30.7918C58.494 30.6318 58.174 30.3758 57.9393 30.0238C57.7153 29.6718 57.6033 29.2025 57.6033 28.6158V21.0318L59.7953 20.4238ZM62.3553 22.8718V24.5038H56.1313V22.8718H62.3553Z" fill="black"/>
<path d="M47.1195 30.8719V22.8719H49.0875L49.2155 25.2719L48.9435 25.0159C49.0715 24.4932 49.2742 24.0612 49.5515 23.7199C49.8288 23.3786 50.1648 23.1279 50.5595 22.9679C50.9648 22.7972 51.4075 22.7119 51.8875 22.7119C52.4422 22.7119 52.9328 22.8186 53.3595 23.0319C53.7968 23.2452 54.1382 23.5706 54.3835 24.0079C54.6395 24.4346 54.7675 24.9732 54.7675 25.6239V30.8719H52.5755V26.2479C52.5755 25.5652 52.4422 25.0959 52.1755 24.8399C51.9088 24.5732 51.5622 24.4399 51.1355 24.4399C50.8368 24.4399 50.5435 24.5146 50.2555 24.6639C49.9782 24.8026 49.7488 25.0319 49.5675 25.3519C49.3968 25.6719 49.3115 26.0986 49.3115 26.6319V30.8719H47.1195Z" fill="black"/>
<path d="M40.0129 31.0321C39.4796 31.0321 38.9996 30.9361 38.5729 30.7441C38.1462 30.5521 37.8049 30.2481 37.5489 29.8321C37.3036 29.4054 37.1809 28.8561 37.1809 28.1841V22.8721H39.3729V27.6561C39.3729 28.2747 39.5009 28.7067 39.7569 28.9521C40.0129 29.1867 40.3809 29.3041 40.8609 29.3041C41.0849 29.3041 41.3036 29.2667 41.5169 29.1921C41.7302 29.1067 41.9169 28.9787 42.0769 28.8081C42.2476 28.6374 42.3809 28.4187 42.4769 28.1521C42.5729 27.8747 42.6209 27.5494 42.6209 27.1761V22.8721H44.8129V30.8721H42.8609L42.7809 29.4801C42.5142 30.0134 42.1462 30.4081 41.6769 30.6641C41.2182 30.9094 40.6636 31.0321 40.0129 31.0321Z" fill="black"/>
<path d="M31.2988 22.7119C32.1094 22.7119 32.8188 22.8772 33.4268 23.2079C34.0454 23.5386 34.5254 24.0132 34.8668 24.6319C35.2188 25.2506 35.3948 25.9972 35.3948 26.8719C35.3948 27.7359 35.2188 28.4826 34.8668 29.1119C34.5254 29.7306 34.0454 30.2052 33.4268 30.5359C32.8188 30.8666 32.1094 31.0319 31.2988 31.0319C30.4988 31.0319 29.7894 30.8666 29.1708 30.5359C28.5521 30.2052 28.0668 29.7306 27.7148 29.1119C27.3734 28.4826 27.2028 27.7359 27.2028 26.8719C27.2028 25.9972 27.3734 25.2506 27.7148 24.6319C28.0668 24.0132 28.5521 23.5386 29.1708 23.2079C29.7894 22.8772 30.4988 22.7119 31.2988 22.7119ZM31.2988 24.3439C30.8934 24.3439 30.5468 24.4399 30.2588 24.6319C29.9814 24.8132 29.7681 25.0906 29.6188 25.4639C29.4694 25.8372 29.3948 26.3066 29.3948 26.8719C29.3948 27.4372 29.4694 27.9066 29.6188 28.2799C29.7681 28.6532 29.9814 28.9359 30.2588 29.1279C30.5468 29.3092 30.8934 29.3999 31.2988 29.3999C31.6934 29.3999 32.0294 29.3092 32.3068 29.1279C32.5948 28.9359 32.8134 28.6532 32.9628 28.2799C33.1121 27.9066 33.1868 27.4372 33.1868 26.8719C33.1868 26.3066 33.1121 25.8372 32.9628 25.4639C32.8134 25.0906 32.5948 24.8132 32.3068 24.6319C32.0294 24.4399 31.6934 24.3439 31.2988 24.3439Z" fill="black"/>
<path d="M22.2515 22.7119C22.9662 22.7119 23.5688 22.8186 24.0595 23.0319C24.5608 23.2346 24.9608 23.5172 25.2595 23.8799C25.5688 24.2319 25.7875 24.6266 25.9155 25.0639L23.8675 25.7999C23.7608 25.3199 23.5795 24.9572 23.3235 24.7119C23.0675 24.4666 22.7208 24.3439 22.2835 24.3439C21.8782 24.3439 21.5315 24.4399 21.2435 24.6319C20.9555 24.8132 20.7368 25.0959 20.5875 25.4799C20.4382 25.8532 20.3635 26.3226 20.3635 26.8879C20.3635 27.4532 20.4382 27.9226 20.5875 28.2959C20.7475 28.6692 20.9715 28.9466 21.2595 29.1279C21.5582 29.3092 21.9048 29.3999 22.2995 29.3999C22.6195 29.3999 22.8915 29.3466 23.1155 29.2399C23.3395 29.1226 23.5208 28.9572 23.6595 28.7439C23.8088 28.5306 23.9102 28.2746 23.9635 27.9759L25.9475 28.6159C25.8302 29.0959 25.6115 29.5172 25.2915 29.8799C24.9715 30.2426 24.5608 30.5252 24.0595 30.7279C23.5582 30.9306 22.9768 31.0319 22.3155 31.0319C21.4942 31.0319 20.7688 30.8666 20.1395 30.5359C19.5102 30.2052 19.0248 29.7306 18.6835 29.1119C18.3422 28.4932 18.1715 27.7466 18.1715 26.8719C18.1715 25.9972 18.3422 25.2506 18.6835 24.6319C19.0248 24.0132 19.5048 23.5386 20.1235 23.2079C20.7422 22.8772 21.4515 22.7119 22.2515 22.7119Z" fill="black"/>
<path d="M13.2203 22.7119C13.9349 22.7119 14.5376 22.8186 15.0283 23.0319C15.5296 23.2346 15.9296 23.5172 16.2283 23.8799C16.5376 24.2319 16.7563 24.6266 16.8843 25.0639L14.8363 25.7999C14.7296 25.3199 14.5483 24.9572 14.2923 24.7119C14.0363 24.4666 13.6896 24.3439 13.2523 24.3439C12.8469 24.3439 12.5003 24.4399 12.2123 24.6319C11.9243 24.8132 11.7056 25.0959 11.5563 25.4799C11.4069 25.8532 11.3323 26.3226 11.3323 26.8879C11.3323 27.4532 11.4069 27.9226 11.5563 28.2959C11.7163 28.6692 11.9403 28.9466 12.2283 29.1279C12.5269 29.3092 12.8736 29.3999 13.2683 29.3999C13.5883 29.3999 13.8603 29.3466 14.0843 29.2399C14.3083 29.1226 14.4896 28.9572 14.6283 28.7439C14.7776 28.5306 14.8789 28.2746 14.9323 27.9759L16.9163 28.6159C16.7989 29.0959 16.5803 29.5172 16.2603 29.8799C15.9403 30.2426 15.5296 30.5252 15.0283 30.7279C14.5269 30.9306 13.9456 31.0319 13.2843 31.0319C12.4629 31.0319 11.7376 30.8666 11.1083 30.5359C10.4789 30.2052 9.99359 29.7306 9.65226 29.1119C9.31092 28.4932 9.14026 27.7466 9.14026 26.8719C9.14026 25.9972 9.31092 25.2506 9.65226 24.6319C9.99359 24.0132 10.4736 23.5386 11.0923 23.2079C11.7109 22.8772 12.4203 22.7119 13.2203 22.7119Z" fill="black"/>
<path d="M4.992 25.7679C4.992 25.3092 4.85867 24.9519 4.592 24.6959C4.336 24.4399 3.99467 24.3119 3.568 24.3119C3.17333 24.3119 2.82667 24.4132 2.528 24.6159C2.22933 24.8186 2.01067 25.1546 1.872 25.6239L0 25.0479C0.181333 24.3439 0.576 23.7786 1.184 23.3519C1.80267 22.9252 2.62933 22.7119 3.664 22.7119C4.368 22.7119 4.98133 22.8239 5.504 23.0479C6.02667 23.2612 6.432 23.5866 6.72 24.0239C7.01867 24.4612 7.168 25.0106 7.168 25.6719V28.9199C7.168 29.3252 7.36 29.5279 7.744 29.5279C7.92533 29.5279 8.096 29.5012 8.256 29.4479L8.128 30.8079C7.85067 30.9466 7.504 31.0159 7.088 31.0159C6.71467 31.0159 6.37867 30.9519 6.08 30.8239C5.78133 30.6959 5.54667 30.5039 5.376 30.2479C5.20533 29.9812 5.12 29.6506 5.12 29.2559V29.1919L5.504 29.1279C5.44 29.5332 5.264 29.8799 4.976 30.1679C4.688 30.4452 4.336 30.6586 3.92 30.8079C3.51467 30.9572 3.09333 31.0319 2.656 31.0319C2.112 31.0319 1.64267 30.9519 1.248 30.7919C0.853333 30.6212 0.549333 30.3759 0.336 30.0559C0.122667 29.7359 0.016 29.3412 0.016 28.8719C0.016 28.2746 0.208 27.7892 0.592 27.4159C0.976 27.0319 1.52533 26.7706 2.24 26.6319L5.248 26.0239L5.232 27.3839L3.312 27.7679C2.94933 27.8426 2.672 27.9439 2.48 28.0719C2.29867 28.1892 2.208 28.3866 2.208 28.6639C2.208 28.9306 2.304 29.1332 2.496 29.2719C2.69867 29.4106 2.93867 29.4799 3.216 29.4799C3.44 29.4799 3.65867 29.4532 3.872 29.3999C4.08533 29.3466 4.27733 29.2612 4.448 29.1439C4.61867 29.0266 4.752 28.8666 4.848 28.6639C4.944 28.4612 4.992 28.2159 4.992 27.9279V25.7679Z" fill="black"/>
<path d="M135.682 11.8719V3.87191H137.65L137.778 6.27191L137.506 6.01591C137.634 5.49325 137.837 5.06125 138.114 4.71991C138.391 4.37858 138.727 4.12791 139.122 3.96791C139.527 3.79725 139.97 3.71191 140.45 3.71191C141.005 3.71191 141.495 3.81858 141.922 4.03191C142.359 4.24525 142.701 4.57058 142.946 5.00791C143.202 5.43458 143.33 5.97325 143.33 6.62391V11.8719H141.138V7.24791C141.138 6.56525 141.005 6.09592 140.738 5.83992C140.471 5.57325 140.125 5.43991 139.698 5.43991C139.399 5.43991 139.106 5.51458 138.818 5.66391C138.541 5.80258 138.311 6.03191 138.13 6.35191C137.959 6.67191 137.874 7.09858 137.874 7.63192V11.8719H135.682Z" fill="black"/>
<path d="M131.055 6.76791C131.055 6.30925 130.921 5.95191 130.654 5.69591C130.398 5.43991 130.057 5.31191 129.63 5.31191C129.236 5.31191 128.889 5.41325 128.59 5.61591C128.292 5.81858 128.073 6.15458 127.934 6.62391L126.062 6.04791C126.244 5.34391 126.638 4.77858 127.246 4.35191C127.865 3.92525 128.692 3.71191 129.727 3.71191C130.431 3.71191 131.044 3.82391 131.566 4.04791C132.089 4.26125 132.495 4.58658 132.783 5.02391C133.081 5.46125 133.23 6.01058 133.23 6.67191V9.91992C133.23 10.3252 133.423 10.5279 133.807 10.5279C133.988 10.5279 134.158 10.5012 134.318 10.4479L134.191 11.8079C133.913 11.9466 133.566 12.0159 133.15 12.0159C132.777 12.0159 132.441 11.9519 132.143 11.8239C131.844 11.6959 131.609 11.5039 131.438 11.2479C131.268 10.9812 131.182 10.6506 131.182 10.2559V10.1919L131.566 10.1279C131.502 10.5332 131.326 10.8799 131.038 11.1679C130.75 11.4452 130.398 11.6586 129.982 11.8079C129.577 11.9572 129.156 12.0319 128.719 12.0319C128.175 12.0319 127.705 11.9519 127.311 11.7919C126.916 11.6212 126.612 11.3759 126.398 11.0559C126.185 10.7359 126.078 10.3412 126.078 9.87191C126.078 9.27458 126.27 8.78925 126.654 8.41591C127.038 8.03191 127.588 7.77058 128.303 7.63192L131.311 7.02392L131.294 8.38391L129.374 8.76791C129.012 8.84258 128.734 8.94391 128.542 9.07191C128.361 9.18925 128.27 9.38658 128.27 9.66391C128.27 9.93058 128.367 10.1332 128.559 10.2719C128.761 10.4106 129.001 10.4799 129.279 10.4799C129.503 10.4799 129.721 10.4532 129.934 10.3999C130.148 10.3466 130.34 10.2612 130.51 10.1439C130.681 10.0266 130.814 9.86658 130.91 9.66391C131.006 9.46125 131.055 9.21591 131.055 8.92791V6.76791Z" fill="black"/>
<path d="M116.05 12.0319C115.208 12.0319 114.472 11.8666 113.842 11.5359C113.224 11.2052 112.744 10.7306 112.402 10.1119C112.061 9.49325 111.89 8.74658 111.89 7.87191C111.89 6.99725 112.061 6.25058 112.402 5.63192C112.744 5.01325 113.218 4.53858 113.826 4.20791C114.445 3.87725 115.149 3.71191 115.938 3.71191C116.749 3.71191 117.437 3.87725 118.002 4.20791C118.568 4.52791 119 4.97058 119.298 5.53591C119.597 6.09058 119.746 6.72525 119.746 7.43991C119.746 7.65325 119.741 7.85591 119.73 8.04791C119.72 8.23991 119.704 8.41058 119.682 8.55991H113.298V7.03991H118.722L117.666 7.42391C117.666 6.75191 117.512 6.23458 117.202 5.87191C116.904 5.50925 116.477 5.32791 115.922 5.32791C115.517 5.32791 115.165 5.42391 114.866 5.61591C114.578 5.80791 114.36 6.09591 114.21 6.47991C114.061 6.85325 113.986 7.32791 113.986 7.90391C113.986 8.46925 114.066 8.93858 114.226 9.31191C114.397 9.67458 114.632 9.94658 114.93 10.1279C115.24 10.3092 115.608 10.3999 116.034 10.3999C116.504 10.3999 116.882 10.3092 117.17 10.1279C117.458 9.94658 117.682 9.69591 117.842 9.37591L119.586 10.0479C119.416 10.4639 119.154 10.8212 118.802 11.1199C118.461 11.4186 118.05 11.6479 117.57 11.8079C117.101 11.9572 116.594 12.0319 116.05 12.0319Z" fill="black"/>
<path d="M108.946 3.87207H111.218L108.178 11.8721H105.65L102.61 3.87207H104.946L106.93 10.1921L108.946 3.87207Z" fill="black"/>
<path d="M99.3826 6.76791C99.3826 6.30925 99.2493 5.95191 98.9826 5.69591C98.7266 5.43991 98.3853 5.31191 97.9586 5.31191C97.564 5.31191 97.2173 5.41325 96.9186 5.61591C96.62 5.81858 96.4013 6.15458 96.2626 6.62391L94.3906 6.04791C94.572 5.34391 94.9666 4.77858 95.5746 4.35191C96.1933 3.92525 97.02 3.71191 98.0546 3.71191C98.7586 3.71191 99.372 3.82391 99.8946 4.04791C100.417 4.26125 100.823 4.58658 101.111 5.02391C101.409 5.46125 101.559 6.01058 101.559 6.67191V9.91992C101.559 10.3252 101.751 10.5279 102.135 10.5279C102.316 10.5279 102.487 10.5012 102.647 10.4479L102.519 11.8079C102.241 11.9466 101.895 12.0159 101.479 12.0159C101.105 12.0159 100.769 11.9519 100.471 11.8239C100.172 11.6959 99.9373 11.5039 99.7666 11.2479C99.596 10.9812 99.5106 10.6506 99.5106 10.2559V10.1919L99.8946 10.1279C99.8306 10.5332 99.6546 10.8799 99.3666 11.1679C99.0786 11.4452 98.7266 11.6586 98.3106 11.8079C97.9053 11.9572 97.484 12.0319 97.0466 12.0319C96.5026 12.0319 96.0333 11.9519 95.6386 11.7919C95.244 11.6212 94.94 11.3759 94.7266 11.0559C94.5133 10.7359 94.4066 10.3412 94.4066 9.87191C94.4066 9.27458 94.5986 8.78925 94.9826 8.41591C95.3666 8.03191 95.916 7.77058 96.6306 7.63192L99.6386 7.02392L99.6226 8.38391L97.7026 8.76791C97.34 8.84258 97.0626 8.94391 96.8706 9.07191C96.6893 9.18925 96.5986 9.38658 96.5986 9.66391C96.5986 9.93058 96.6946 10.1332 96.8866 10.2719C97.0893 10.4106 97.3293 10.4799 97.6066 10.4799C97.8306 10.4799 98.0493 10.4532 98.2626 10.3999C98.476 10.3466 98.668 10.2612 98.8386 10.1439C99.0093 10.0266 99.1426 9.86658 99.2386 9.66391C99.3346 9.46125 99.3826 9.21591 99.3826 8.92791V6.76791Z" fill="black"/>
<path d="M84.9164 11.8722V0.368164H87.1084V5.23216C87.3644 4.72016 87.7164 4.3415 88.1644 4.09616C88.6124 3.84016 89.119 3.71216 89.6844 3.71216C90.239 3.71216 90.7297 3.81883 91.1564 4.03216C91.5937 4.2455 91.935 4.57083 92.1804 5.00816C92.4364 5.43483 92.5644 5.9735 92.5644 6.62416V11.8722H90.3724V7.26416C90.3724 6.57083 90.239 6.09617 89.9724 5.84017C89.7057 5.5735 89.3644 5.44016 88.9484 5.44016C88.639 5.44016 88.3404 5.51483 88.0524 5.66416C87.7751 5.80283 87.5457 6.0375 87.3644 6.36817C87.1937 6.68817 87.1084 7.11483 87.1084 7.64816V11.8722H84.9164Z" fill="black"/>
<path d="M72.9192 12.0321C72.3858 12.0321 71.9058 11.9361 71.4792 11.7441C71.0525 11.5521 70.7112 11.2481 70.4552 10.8321C70.2098 10.4054 70.0872 9.85607 70.0872 9.18407V3.87207H72.2792V8.65607C72.2792 9.27474 72.4072 9.70674 72.6632 9.95207C72.9192 10.1867 73.2872 10.3041 73.7672 10.3041C73.9912 10.3041 74.2098 10.2667 74.4232 10.1921C74.6365 10.1067 74.8232 9.97874 74.9832 9.80807C75.1538 9.6374 75.2872 9.41874 75.3832 9.15207C75.4792 8.87474 75.5272 8.5494 75.5272 8.17607V3.87207H77.7192V11.8721H75.7672L75.6872 10.4801C75.4205 11.0134 75.0525 11.4081 74.5832 11.6641C74.1245 11.9094 73.5698 12.0321 72.9192 12.0321Z" fill="black"/>
<path d="M64.205 3.71191C65.0157 3.71191 65.725 3.87725 66.333 4.20791C66.9517 4.53858 67.4317 5.01325 67.773 5.63192C68.125 6.25058 68.301 6.99725 68.301 7.87191C68.301 8.73591 68.125 9.48258 67.773 10.1119C67.4317 10.7306 66.9517 11.2052 66.333 11.5359C65.725 11.8666 65.0157 12.0319 64.205 12.0319C63.405 12.0319 62.6957 11.8666 62.077 11.5359C61.4583 11.2052 60.973 10.7306 60.621 10.1119C60.2797 9.48258 60.109 8.73591 60.109 7.87191C60.109 6.99725 60.2797 6.25058 60.621 5.63192C60.973 5.01325 61.4583 4.53858 62.077 4.20791C62.6957 3.87725 63.405 3.71191 64.205 3.71191ZM64.205 5.34391C63.7997 5.34391 63.453 5.43992 63.165 5.63192C62.8877 5.81325 62.6743 6.09058 62.525 6.46391C62.3757 6.83725 62.301 7.30658 62.301 7.87191C62.301 8.43725 62.3757 8.90658 62.525 9.27991C62.6743 9.65325 62.8877 9.93591 63.165 10.1279C63.453 10.3092 63.7997 10.3999 64.205 10.3999C64.5997 10.3999 64.9357 10.3092 65.213 10.1279C65.501 9.93591 65.7197 9.65325 65.869 9.27991C66.0183 8.90658 66.093 8.43725 66.093 7.87191C66.093 7.30658 66.0183 6.83725 65.869 6.46391C65.7197 6.09058 65.501 5.81325 65.213 5.63192C64.9357 5.43992 64.5997 5.34391 64.205 5.34391Z" fill="black"/>
<path d="M59.4364 3.87207L56.2044 12.3681C55.9484 13.0934 55.6604 13.6694 55.3404 14.0961C55.0311 14.5227 54.6684 14.8321 54.2524 15.0241C53.8471 15.2161 53.3617 15.3121 52.7964 15.3121C52.3804 15.3121 51.9964 15.2587 51.6444 15.1521C51.3031 15.0561 51.0044 14.9281 50.7484 14.7681L51.2124 13.1841C51.4151 13.3441 51.6284 13.4561 51.8524 13.5201C52.0764 13.5947 52.3324 13.6321 52.6204 13.6321C52.9191 13.6321 53.1751 13.5681 53.3884 13.4401C53.6124 13.3121 53.7991 13.0561 53.9484 12.6721L54.2204 11.9841L53.3404 9.90407L50.8924 3.87207H53.3244L54.8444 8.67207L55.2604 10.2721L55.7564 8.57607L57.2124 3.87207H59.4364Z" fill="black"/>
<path d="M43.2328 1.42383V9.26383C43.2328 9.64783 43.3288 9.9305 43.5208 10.1118C43.7235 10.2825 43.9955 10.3678 44.3368 10.3678C44.6035 10.3678 44.8382 10.3305 45.0408 10.2558C45.2435 10.1705 45.4248 10.0585 45.5848 9.91983L45.9368 11.3758C45.6808 11.5785 45.3608 11.7385 44.9768 11.8558C44.5928 11.9732 44.1875 12.0318 43.7608 12.0318C43.2275 12.0318 42.7528 11.9518 42.3368 11.7918C41.9315 11.6318 41.6115 11.3758 41.3768 11.0238C41.1528 10.6718 41.0408 10.2025 41.0408 9.61583V2.03183L43.2328 1.42383ZM45.7928 3.87183V5.50383H39.5688V3.87183H45.7928Z" fill="black"/>
<path d="M34.2644 0H36.3764L34.7764 2.72H33.1604L34.2644 0Z" fill="black"/>
<path d="M21.5101 11.8719V3.87191H23.4781L23.6061 6.27191L23.3341 6.01591C23.4621 5.49325 23.6648 5.06125 23.9421 4.71991C24.2195 4.37858 24.5555 4.12791 24.9501 3.96791C25.3555 3.79725 25.7981 3.71191 26.2781 3.71191C26.8328 3.71191 27.3235 3.81858 27.7501 4.03191C28.1875 4.24525 28.5288 4.57058 28.7741 5.00791C29.0301 5.43458 29.1581 5.97325 29.1581 6.62391V11.8719H26.9661V7.24791C26.9661 6.56525 26.8328 6.09592 26.5661 5.83992C26.2995 5.57325 25.9528 5.43991 25.5261 5.43991C25.2275 5.43991 24.9341 5.51458 24.6461 5.66391C24.3688 5.80258 24.1395 6.03191 23.9581 6.35191C23.7875 6.67191 23.7021 7.09858 23.7021 7.63192V11.8719H21.5101Z" fill="black"/>
<path d="M15.58 3.71191C16.3907 3.71191 17.1 3.87725 17.708 4.20791C18.3267 4.53858 18.8067 5.01325 19.148 5.63192C19.5 6.25058 19.676 6.99725 19.676 7.87191C19.676 8.73591 19.5 9.48258 19.148 10.1119C18.8067 10.7306 18.3267 11.2052 17.708 11.5359C17.1 11.8666 16.3907 12.0319 15.58 12.0319C14.78 12.0319 14.0707 11.8666 13.452 11.5359C12.8333 11.2052 12.348 10.7306 11.996 10.1119C11.6547 9.48258 11.484 8.73591 11.484 7.87191C11.484 6.99725 11.6547 6.25058 11.996 5.63192C12.348 5.01325 12.8333 4.53858 13.452 4.20791C14.0707 3.87725 14.78 3.71191 15.58 3.71191ZM15.58 5.34391C15.1747 5.34391 14.828 5.43992 14.54 5.63192C14.2627 5.81325 14.0493 6.09058 13.9 6.46391C13.7507 6.83725 13.676 7.30658 13.676 7.87191C13.676 8.43725 13.7507 8.90658 13.9 9.27991C14.0493 9.65325 14.2627 9.93591 14.54 10.1279C14.828 10.3092 15.1747 10.3999 15.58 10.3999C15.9747 10.3999 16.3107 10.3092 16.588 10.1279C16.876 9.93591 17.0947 9.65325 17.244 9.27991C17.3933 8.90658 17.468 8.43725 17.468 7.87191C17.468 7.30658 17.3933 6.83725 17.244 6.46391C17.0947 6.09058 16.876 5.81325 16.588 5.63192C16.3107 5.43992 15.9747 5.34391 15.58 5.34391Z" fill="black"/>
<path d="M4.73601 1.31201C6.38934 1.31201 7.66934 1.77068 8.57601 2.68801C9.48267 3.59468 9.93601 4.89601 9.93601 6.59201C9.93601 8.27734 9.48267 9.57868 8.57601 10.496C7.66934 11.4133 6.38934 11.872 4.73601 11.872H0.656006V1.31201H4.73601ZM4.62401 10.112C5.62667 10.112 6.37867 9.81334 6.88001 9.21601C7.39201 8.60801 7.64801 7.73335 7.64801 6.59201C7.64801 5.45068 7.39201 4.58135 6.88001 3.98401C6.37867 3.37601 5.62667 3.07201 4.62401 3.07201H2.86401V10.112H4.62401Z" fill="black"/>
</svg>
