<svg width="32" height="32" viewBox="0 0 32 32" fill="none" xmlns="http://www.w3.org/2000/svg">
<path d="M5.33335 26.6667C4.60002 26.6667 3.97224 26.4056 3.45002 25.8834C2.9278 25.3612 2.66669 24.7334 2.66669 24V8.00004C2.66669 7.26671 2.9278 6.63893 3.45002 6.11671C3.97224 5.59449 4.60002 5.33337 5.33335 5.33337H26.6667C27.4 5.33337 28.0278 5.59449 28.55 6.11671C29.0722 6.63893 29.3334 7.26671 29.3334 8.00004V24C29.3334 24.7334 29.0722 25.3612 28.55 25.8834C28.0278 26.4056 27.4 26.6667 26.6667 26.6667H5.33335ZM16 17.3334L5.33335 10.6667V24H26.6667V10.6667L16 17.3334ZM16 14.6667L26.6667 8.00004H5.33335L16 14.6667ZM5.33335 10.6667V8.00004V24V10.6667Z" fill="#FEF7FF"/>
</svg>
