<svg width="186" height="30" viewBox="0 0 186 30" fill="none" xmlns="http://www.w3.org/2000/svg">
<path d="M170.365 23.008V7.00799H174.301L174.557 11.808L174.012 11.296C174.268 10.2507 174.674 9.38666 175.229 8.70399C175.783 8.02132 176.455 7.51999 177.245 7.19999C178.055 6.85866 178.94 6.68799 179.9 6.68799C181.01 6.68799 181.991 6.90132 182.844 7.32799C183.719 7.75466 184.402 8.40532 184.893 9.27999C185.405 10.1333 185.661 11.2107 185.661 12.512V23.008H181.277V13.76C181.277 12.3947 181.01 11.456 180.477 10.944C179.943 10.4107 179.25 10.144 178.396 10.144C177.799 10.144 177.213 10.2933 176.637 10.592C176.082 10.8693 175.623 11.328 175.26 11.968C174.919 12.608 174.749 13.4613 174.749 14.528V23.008H170.365Z" fill="black"/>
<path d="M158.504 6.68799C160.126 6.68799 161.544 7.01866 162.76 7.67999C163.998 8.34132 164.958 9.29066 165.64 10.528C166.344 11.7653 166.696 13.2587 166.696 15.008C166.696 16.736 166.344 18.2293 165.64 19.488C164.958 20.7253 163.998 21.6747 162.76 22.336C161.544 22.9973 160.126 23.328 158.504 23.328C156.904 23.328 155.486 22.9973 154.248 22.336C153.011 21.6747 152.04 20.7253 151.336 19.488C150.654 18.2293 150.312 16.736 150.312 15.008C150.312 13.2587 150.654 11.7653 151.336 10.528C152.04 9.29066 153.011 8.34132 154.248 7.67999C155.486 7.01866 156.904 6.68799 158.504 6.68799ZM158.504 9.95199C157.694 9.95199 157 10.144 156.424 10.528C155.87 10.8907 155.443 11.4453 155.144 12.192C154.846 12.9387 154.696 13.8773 154.696 15.008C154.696 16.1387 154.846 17.0773 155.144 17.824C155.443 18.5707 155.87 19.136 156.424 19.52C157 19.8827 157.694 20.064 158.504 20.064C159.294 20.064 159.966 19.8827 160.52 19.52C161.096 19.136 161.534 18.5707 161.832 17.824C162.131 17.0773 162.28 16.1387 162.28 15.008C162.28 13.8773 162.131 12.9387 161.832 12.192C161.534 11.4453 161.096 10.8907 160.52 10.528C159.966 10.144 159.294 9.95199 158.504 9.95199Z" fill="black"/>
<path d="M144.385 4.704C143.468 4.704 142.785 4.512 142.337 4.128C141.889 3.72267 141.665 3.136 141.665 2.368C141.665 1.57867 141.889 0.992 142.337 0.608C142.785 0.202667 143.468 0 144.385 0C145.302 0 145.985 0.202667 146.433 0.608C146.881 0.992 147.105 1.57867 147.105 2.368C147.105 3.136 146.881 3.72267 146.433 4.128C145.985 4.512 145.302 4.704 144.385 4.704ZM146.561 7.008V23.008H142.177V7.008H146.561Z" fill="black"/>
<path d="M134.091 2.11206V17.7921C134.091 18.5601 134.283 19.1254 134.667 19.4881C135.072 19.8294 135.616 20.0001 136.299 20.0001C136.832 20.0001 137.302 19.9254 137.707 19.7761C138.112 19.6054 138.475 19.3814 138.795 19.1041L139.499 22.0161C138.987 22.4214 138.347 22.7414 137.579 22.9761C136.811 23.2107 136 23.3281 135.147 23.3281C134.08 23.3281 133.131 23.1681 132.299 22.8481C131.488 22.5281 130.848 22.0161 130.379 21.3121C129.931 20.6081 129.707 19.6694 129.707 18.4961V3.32806L134.091 2.11206ZM139.211 7.00806V10.2721H126.763V7.00806H139.211Z" fill="black"/>
<path d="M119.797 12.8C119.797 11.8827 119.53 11.168 118.997 10.656C118.485 10.144 117.802 9.88799 116.949 9.88799C116.16 9.88799 115.466 10.0907 114.869 10.496C114.272 10.9013 113.834 11.5733 113.557 12.512L109.813 11.36C110.176 9.95199 110.965 8.82132 112.181 7.96799C113.418 7.11466 115.072 6.68799 117.141 6.68799C118.549 6.68799 119.776 6.91199 120.821 7.35999C121.866 7.78666 122.677 8.43732 123.253 9.31199C123.85 10.1867 124.149 11.2853 124.149 12.608V19.104C124.149 19.9147 124.533 20.32 125.301 20.32C125.664 20.32 126.005 20.2667 126.325 20.16L126.069 22.88C125.514 23.1573 124.821 23.296 123.989 23.296C123.242 23.296 122.57 23.168 121.973 22.912C121.376 22.656 120.906 22.272 120.565 21.76C120.224 21.2267 120.053 20.5653 120.053 19.776V19.648L120.821 19.52C120.693 20.3307 120.341 21.024 119.765 21.6C119.189 22.1547 118.485 22.5813 117.653 22.88C116.842 23.1787 116 23.328 115.125 23.328C114.037 23.328 113.098 23.168 112.309 22.848C111.52 22.5067 110.912 22.016 110.485 21.376C110.058 20.736 109.845 19.9467 109.845 19.008C109.845 17.8133 110.229 16.8427 110.997 16.096C111.765 15.328 112.864 14.8053 114.293 14.528L120.309 13.312L120.277 16.032L116.437 16.8C115.712 16.9493 115.157 17.152 114.773 17.408C114.41 17.6427 114.229 18.0373 114.229 18.592C114.229 19.1253 114.421 19.5307 114.805 19.808C115.21 20.0853 115.69 20.224 116.245 20.224C116.693 20.224 117.13 20.1707 117.557 20.064C117.984 19.9573 118.368 19.7867 118.709 19.552C119.05 19.3173 119.317 18.9973 119.509 18.592C119.701 18.1867 119.797 17.696 119.797 17.12V12.8Z" fill="black"/>
<path d="M99.8785 6.68799C101.308 6.68799 102.513 6.90132 103.495 7.32799C104.497 7.73332 105.297 8.29866 105.895 9.02399C106.513 9.72799 106.951 10.5173 107.207 11.392L103.111 12.864C102.897 11.904 102.535 11.1787 102.023 10.688C101.511 10.1973 100.817 9.95199 99.9425 9.95199C99.1318 9.95199 98.4385 10.144 97.8625 10.528C97.2865 10.8907 96.8492 11.456 96.5505 12.224C96.2518 12.9707 96.1025 13.9093 96.1025 15.04C96.1025 16.1707 96.2518 17.1093 96.5505 17.856C96.8705 18.6027 97.3185 19.1573 97.8945 19.52C98.4918 19.8827 99.1852 20.064 99.9745 20.064C100.615 20.064 101.159 19.9573 101.607 19.744C102.055 19.5093 102.417 19.1787 102.695 18.752C102.993 18.3253 103.196 17.8133 103.303 17.216L107.271 18.496C107.036 19.456 106.599 20.2987 105.959 21.024C105.319 21.7493 104.497 22.3147 103.495 22.72C102.492 23.1253 101.329 23.328 100.007 23.328C98.3638 23.328 96.9132 22.9973 95.6545 22.336C94.3958 21.6747 93.4252 20.7253 92.7425 19.488C92.0598 18.2507 91.7185 16.7573 91.7185 15.008C91.7185 13.2587 92.0598 11.7653 92.7425 10.528C93.4252 9.29066 94.3852 8.34132 95.6225 7.67999C96.8598 7.01866 98.2785 6.68799 99.8785 6.68799Z" fill="black"/>
<path d="M80.7543 6.68799C82.3756 6.68799 83.7943 7.01866 85.0103 7.67999C86.2476 8.34132 87.2076 9.29066 87.8903 10.528C88.5943 11.7653 88.9463 13.2587 88.9463 15.008C88.9463 16.736 88.5943 18.2293 87.8903 19.488C87.2076 20.7253 86.2476 21.6747 85.0103 22.336C83.7943 22.9973 82.3756 23.328 80.7543 23.328C79.1543 23.328 77.7356 22.9973 76.4983 22.336C75.2609 21.6747 74.2903 20.7253 73.5863 19.488C72.9036 18.2293 72.5623 16.736 72.5623 15.008C72.5623 13.2587 72.9036 11.7653 73.5863 10.528C74.2903 9.29066 75.2609 8.34132 76.4983 7.67999C77.7356 7.01866 79.1543 6.68799 80.7543 6.68799ZM80.7543 9.95199C79.9436 9.95199 79.2503 10.144 78.6743 10.528C78.1196 10.8907 77.6929 11.4453 77.3943 12.192C77.0956 12.9387 76.9463 13.8773 76.9463 15.008C76.9463 16.1387 77.0956 17.0773 77.3943 17.824C77.6929 18.5707 78.1196 19.136 78.6743 19.52C79.2503 19.8827 79.9436 20.064 80.7543 20.064C81.5436 20.064 82.2156 19.8827 82.7703 19.52C83.3463 19.136 83.7836 18.5707 84.0823 17.824C84.3809 17.0773 84.5303 16.1387 84.5303 15.008C84.5303 13.8773 84.3809 12.9387 84.0823 12.192C83.7836 11.4453 83.3463 10.8907 82.7703 10.528C82.2156 10.144 81.5436 9.95199 80.7543 9.95199Z" fill="black"/>
<path d="M59.3848 19.4559H70.5208V23.0079H54.9688V1.88794H59.3848V19.4559Z" fill="black"/>
<path d="M43.0608 7.00806L36.5968 24.0001C36.0848 25.4507 35.5088 26.6027 34.8688 27.4561C34.2501 28.3094 33.5248 28.9281 32.6928 29.3121C31.8821 29.6961 30.9115 29.8881 29.7808 29.8881C28.9488 29.8881 28.1808 29.7814 27.4768 29.5681C26.7941 29.3761 26.1968 29.1201 25.6848 28.8001L26.6128 25.6321C27.0181 25.9521 27.4448 26.1761 27.8928 26.3041C28.3408 26.4534 28.8528 26.5281 29.4288 26.5281C30.0261 26.5281 30.5381 26.4001 30.9648 26.1441C31.4128 25.8881 31.7861 25.3761 32.0848 24.6081L32.6288 23.2321L30.8688 19.0721L25.9728 7.00806H30.8368L33.8768 16.6081L34.7088 19.8081L35.7008 16.4161L38.6128 7.00806H43.0608Z" fill="black"/>
<path d="M22.976 1.88794V23.0079H18.976V11.9999L19.2 5.82394H19.136L13.28 23.0079H9.664L3.84 5.82394H3.776L4 11.9999V23.0079H0V1.88794H6.4L10.208 13.4079L11.552 18.1759H11.616L12.992 13.4399L16.768 1.88794H22.976Z" fill="black"/>
</svg>
