<svg width="52" height="15" viewBox="0 0 52 15" fill="none" xmlns="http://www.w3.org/2000/svg">
<path d="M44.4595 4.37988L47.0995 8.75988L47.8395 8.73988L51.8395 14.3799H48.6595L45.9195 9.89988L45.1195 9.81988L41.2595 4.37988H44.4595ZM51.7795 4.37988L47.9195 9.75988L47.0995 9.69988L44.1795 14.3799H41.0795L45.2195 8.69988L45.9995 8.79988L48.6795 4.37988H51.7795Z" fill="black"/>
<path d="M35.3347 4.17969C36.348 4.17969 37.2347 4.38635 37.9947 4.79969C38.768 5.21302 39.368 5.80635 39.7947 6.57969C40.2347 7.35302 40.4547 8.28635 40.4547 9.37969C40.4547 10.4597 40.2347 11.393 39.7947 12.1797C39.368 12.953 38.768 13.5464 37.9947 13.9597C37.2347 14.373 36.348 14.5797 35.3347 14.5797C34.3347 14.5797 33.448 14.373 32.6747 13.9597C31.9014 13.5464 31.2947 12.953 30.8547 12.1797C30.428 11.393 30.2147 10.4597 30.2147 9.37969C30.2147 8.28635 30.428 7.35302 30.8547 6.57969C31.2947 5.80635 31.9014 5.21302 32.6747 4.79969C33.448 4.38635 34.3347 4.17969 35.3347 4.17969ZM35.3347 6.21969C34.828 6.21969 34.3947 6.33969 34.0347 6.57969C33.688 6.80635 33.4214 7.15302 33.2347 7.61969C33.048 8.08635 32.9547 8.67302 32.9547 9.37969C32.9547 10.0864 33.048 10.673 33.2347 11.1397C33.4214 11.6064 33.688 11.9597 34.0347 12.1997C34.3947 12.4264 34.828 12.5397 35.3347 12.5397C35.828 12.5397 36.248 12.4264 36.5947 12.1997C36.9547 11.9597 37.228 11.6064 37.4147 11.1397C37.6014 10.673 37.6947 10.0864 37.6947 9.37969C37.6947 8.67302 37.6014 8.08635 37.4147 7.61969C37.228 7.15302 36.9547 6.80635 36.5947 6.57969C36.248 6.33969 35.828 6.21969 35.3347 6.21969Z" fill="black"/>
<path d="M24.1156 14.58C23.5023 14.58 22.9423 14.4533 22.4356 14.2C21.9423 13.9333 21.529 13.5733 21.1956 13.12C20.8756 12.6533 20.6556 12.1333 20.5356 11.56L20.8156 11.2L20.6556 14.38H18.2356V0H20.9756V7.2L20.7156 6.78C20.929 6.03333 21.3356 5.41333 21.9356 4.92C22.5356 4.42667 23.289 4.18 24.1956 4.18C24.9823 4.18 25.6956 4.38667 26.3356 4.8C26.9756 5.21333 27.4756 5.80667 27.8356 6.58C28.209 7.35333 28.3956 8.29333 28.3956 9.4C28.3956 10.48 28.209 11.4067 27.8356 12.18C27.4756 12.9533 26.969 13.5467 26.3156 13.96C25.6756 14.3733 24.9423 14.58 24.1156 14.58ZM23.2956 12.48C24.029 12.48 24.6023 12.22 25.0156 11.7C25.4423 11.1667 25.6556 10.3933 25.6556 9.38C25.6556 8.36667 25.449 7.6 25.0356 7.08C24.6223 6.54667 24.049 6.28 23.3156 6.28C22.8356 6.28 22.4223 6.40667 22.0756 6.66C21.729 6.91333 21.4556 7.27333 21.2556 7.74C21.069 8.20667 20.9756 8.76 20.9756 9.4C20.9756 10.0533 21.069 10.6133 21.2556 11.08C21.4556 11.5333 21.729 11.88 22.0756 12.12C22.4356 12.36 22.8423 12.48 23.2956 12.48Z" fill="black"/>
<path d="M5.85281 14.3797V4.37969H8.31281L8.47281 7.37969L8.13281 7.05969C8.29281 6.40636 8.54615 5.86635 8.89281 5.43969C9.23948 5.01302 9.65948 4.69969 10.1528 4.49969C10.6595 4.28635 11.2128 4.17969 11.8128 4.17969C12.5061 4.17969 13.1195 4.31302 13.6528 4.57969C14.1995 4.84636 14.6261 5.25302 14.9328 5.79969C15.2528 6.33302 15.4128 7.00636 15.4128 7.81969V14.3797H12.6728V8.59969C12.6728 7.74635 12.5061 7.15969 12.1728 6.83969C11.8395 6.50635 11.4061 6.33969 10.8728 6.33969C10.4995 6.33969 10.1328 6.43302 9.77281 6.61969C9.42615 6.79302 9.13948 7.07969 8.91281 7.47969C8.69948 7.87969 8.59281 8.41302 8.59281 9.07969V14.3797H5.85281Z" fill="black"/>
<path d="M2.76 1.17969V14.3797H0V1.17969H2.76Z" fill="black"/>
</svg>
