<svg width="50" height="14" viewBox="0 0 50 14" fill="none" xmlns="http://www.w3.org/2000/svg">
<path d="M45.1394 10.935C44.5194 10.935 43.9644 10.78 43.4744 10.47C42.9944 10.16 42.6144 9.715 42.3344 9.135C42.0644 8.555 41.9294 7.86 41.9294 7.05C41.9294 6.22 42.0744 5.515 42.3644 4.935C42.6544 4.345 43.0444 3.9 43.5344 3.6C44.0344 3.29 44.5944 3.135 45.2144 3.135C45.8744 3.135 46.4194 3.325 46.8494 3.705C47.2794 4.085 47.5594 4.575 47.6894 5.175L47.4944 5.415V0H49.5494V10.785H47.7044L47.5694 8.505L47.8244 8.625C47.7544 9.095 47.5944 9.505 47.3444 9.855C47.0944 10.195 46.7794 10.46 46.3994 10.65C46.0194 10.84 45.5994 10.935 45.1394 10.935ZM45.7394 9.36C46.0994 9.36 46.4094 9.27 46.6694 9.09C46.9294 8.9 47.1294 8.625 47.2694 8.265C47.4194 7.905 47.4944 7.475 47.4944 6.975C47.4944 6.495 47.4244 6.09 47.2844 5.76C47.1444 5.42 46.9444 5.16 46.6844 4.98C46.4244 4.8 46.1194 4.71 45.7694 4.71C45.2094 4.71 44.7694 4.91 44.4494 5.31C44.1394 5.7 43.9844 6.275 43.9844 7.035C43.9844 7.795 44.1394 8.375 44.4494 8.775C44.7594 9.165 45.1894 9.36 45.7394 9.36Z" fill="white"/>
<path d="M37.9954 6.00001C37.9954 5.57001 37.8704 5.23501 37.6204 4.99501C37.3804 4.75501 37.0604 4.63501 36.6604 4.63501C36.2904 4.63501 35.9654 4.73001 35.6854 4.92001C35.4054 5.11001 35.2004 5.42501 35.0704 5.86501L33.3154 5.32501C33.4854 4.66501 33.8554 4.13501 34.4254 3.73501C35.0054 3.33501 35.7804 3.13501 36.7504 3.13501C37.4104 3.13501 37.9854 3.24001 38.4754 3.45001C38.9654 3.65001 39.3454 3.95501 39.6154 4.36501C39.8954 4.77501 40.0354 5.29001 40.0354 5.91001V8.95501C40.0354 9.33501 40.2154 9.52501 40.5754 9.52501C40.7454 9.52501 40.9054 9.50001 41.0554 9.45001L40.9354 10.725C40.6754 10.855 40.3504 10.92 39.9604 10.92C39.6104 10.92 39.2954 10.86 39.0154 10.74C38.7354 10.62 38.5154 10.44 38.3554 10.2C38.1954 9.95001 38.1154 9.64001 38.1154 9.27001V9.21001L38.4754 9.15001C38.4154 9.53001 38.2504 9.85501 37.9804 10.125C37.7104 10.385 37.3804 10.585 36.9904 10.725C36.6104 10.865 36.2154 10.935 35.8054 10.935C35.2954 10.935 34.8554 10.86 34.4854 10.71C34.1154 10.55 33.8304 10.32 33.6304 10.02C33.4304 9.72001 33.3304 9.35001 33.3304 8.91001C33.3304 8.35001 33.5104 7.89501 33.8704 7.54501C34.2304 7.18501 34.7454 6.94001 35.4154 6.81001L38.2354 6.24001L38.2204 7.51501L36.4204 7.87501C36.0804 7.94501 35.8204 8.04001 35.6404 8.16001C35.4704 8.27001 35.3854 8.45501 35.3854 8.71501C35.3854 8.96501 35.4754 9.15501 35.6554 9.28501C35.8454 9.41501 36.0704 9.48001 36.3304 9.48001C36.5404 9.48001 36.7454 9.45501 36.9454 9.40501C37.1454 9.35501 37.3254 9.27501 37.4854 9.16501C37.6454 9.05501 37.7704 8.90501 37.8604 8.71501C37.9504 8.52501 37.9954 8.29501 37.9954 8.02501V6.00001Z" fill="white"/>
<path d="M28.205 3.13501C28.965 3.13501 29.63 3.29001 30.2 3.60001C30.78 3.91001 31.23 4.35501 31.55 4.93501C31.88 5.51501 32.045 6.21501 32.045 7.03501C32.045 7.84501 31.88 8.54501 31.55 9.13501C31.23 9.71501 30.78 10.16 30.2 10.47C29.63 10.78 28.965 10.935 28.205 10.935C27.455 10.935 26.79 10.78 26.21 10.47C25.63 10.16 25.175 9.71501 24.845 9.13501C24.525 8.54501 24.365 7.84501 24.365 7.03501C24.365 6.21501 24.525 5.51501 24.845 4.93501C25.175 4.35501 25.63 3.91001 26.21 3.60001C26.79 3.29001 27.455 3.13501 28.205 3.13501ZM28.205 4.66501C27.825 4.66501 27.5 4.75501 27.23 4.93501C26.97 5.10501 26.77 5.36501 26.63 5.71501C26.49 6.06501 26.42 6.50501 26.42 7.03501C26.42 7.56501 26.49 8.00501 26.63 8.35501C26.77 8.70501 26.97 8.97001 27.23 9.15001C27.5 9.32001 27.825 9.40501 28.205 9.40501C28.575 9.40501 28.89 9.32001 29.15 9.15001C29.42 8.97001 29.625 8.70501 29.765 8.35501C29.905 8.00501 29.975 7.56501 29.975 7.03501C29.975 6.50501 29.905 6.06501 29.765 5.71501C29.625 5.36501 29.42 5.10501 29.15 4.93501C28.89 4.75501 28.575 4.66501 28.205 4.66501Z" fill="white"/>
<path d="M22.0198 0V8.475C22.0198 8.825 22.0798 9.07 22.1998 9.21C22.3198 9.35 22.5198 9.42 22.7998 9.42C22.9698 9.42 23.1098 9.41 23.2198 9.39C23.3298 9.36 23.4698 9.32 23.6398 9.27L23.4598 10.62C23.2898 10.72 23.0748 10.795 22.8148 10.845C22.5648 10.905 22.3148 10.935 22.0648 10.935C21.3348 10.935 20.7998 10.76 20.4598 10.41C20.1298 10.05 19.9648 9.48 19.9648 8.7V0H22.0198Z" fill="white"/>
<path d="M10.5906 13.935V3.28501H12.4356L12.5706 5.67001L12.3156 5.40001C12.4056 4.96001 12.5706 4.57001 12.8106 4.23001C13.0606 3.89001 13.3756 3.62501 13.7556 3.43501C14.1356 3.23501 14.5606 3.13501 15.0306 3.13501C15.6406 3.13501 16.1856 3.29001 16.6656 3.60001C17.1456 3.91001 17.5206 4.35501 17.7906 4.93501C18.0706 5.50501 18.2106 6.20001 18.2106 7.02001C18.2106 7.84001 18.0706 8.54501 17.7906 9.13501C17.5106 9.71501 17.1256 10.16 16.6356 10.47C16.1556 10.78 15.6056 10.935 14.9856 10.935C14.3256 10.935 13.7756 10.75 13.3356 10.38C12.9056 10.01 12.6106 9.54501 12.4506 8.98501L12.6456 8.67001V13.935H10.5906ZM14.3856 9.36001C14.9356 9.36001 15.3656 9.16501 15.6756 8.77501C15.9956 8.37501 16.1556 7.79501 16.1556 7.03501C16.1556 6.27501 16.0006 5.70001 15.6906 5.31001C15.3906 4.91001 14.9656 4.71001 14.4156 4.71001C14.0656 4.71001 13.7556 4.80501 13.4856 4.99501C13.2256 5.17501 13.0206 5.44001 12.8706 5.79001C12.7206 6.13001 12.6456 6.54501 12.6456 7.03501C12.6456 7.51501 12.7156 7.93001 12.8556 8.28001C12.9956 8.63001 13.1956 8.90001 13.4556 9.09001C13.7256 9.27001 14.0356 9.36001 14.3856 9.36001Z" fill="white"/>
<path d="M8.46 0.88501V6.88501C8.46 8.23501 8.1 9.25001 7.38 9.93001C6.66 10.6 5.61 10.935 4.23 10.935C2.85 10.935 1.8 10.6 1.08 9.93001C0.36 9.25001 0 8.23501 0 6.88501V0.88501H2.07V6.79501C2.07 7.62501 2.245 8.24001 2.595 8.64001C2.955 9.04001 3.5 9.24001 4.23 9.24001C4.96 9.24001 5.5 9.04001 5.85 8.64001C6.2 8.24001 6.375 7.62501 6.375 6.79501V0.88501H8.46Z" fill="white"/>
</svg>
