<svg width="40" height="11" viewBox="0 0 40 11" fill="none" xmlns="http://www.w3.org/2000/svg">
<path d="M34.81 10.0658V3.06578H36.476L36.602 4.43778C36.7887 3.95245 37.0593 3.57912 37.414 3.31778C37.778 3.05645 38.2307 2.92578 38.772 2.92578C38.9307 2.92578 39.0753 2.93978 39.206 2.96778C39.3367 2.99578 39.444 3.03312 39.528 3.07978L39.304 4.68978C39.2107 4.65245 39.094 4.62445 38.954 4.60578C38.8233 4.58712 38.6507 4.57778 38.436 4.57778C38.156 4.57778 37.8853 4.64778 37.624 4.78778C37.3627 4.91845 37.148 5.12378 36.98 5.40378C36.812 5.67445 36.728 6.01978 36.728 6.43978V10.0658H34.81Z" fill="white"/>
<path d="M29.9506 10.2058C29.2132 10.2058 28.5692 10.0611 28.0186 9.77178C27.4772 9.48245 27.0572 9.06712 26.7586 8.52578C26.4599 7.98445 26.3106 7.33112 26.3106 6.56578C26.3106 5.80045 26.4599 5.14712 26.7586 4.60578C27.0572 4.06445 27.4726 3.64912 28.0046 3.35978C28.5459 3.07045 29.1619 2.92578 29.8526 2.92578C30.5619 2.92578 31.1639 3.07045 31.6586 3.35978C32.1532 3.63978 32.5312 4.02711 32.7926 4.52178C33.0539 5.00711 33.1846 5.56245 33.1846 6.18778C33.1846 6.37445 33.1799 6.55178 33.1706 6.71978C33.1612 6.88778 33.1472 7.03712 33.1286 7.16778H27.5426V5.83778H32.2886L31.3646 6.17378C31.3646 5.58578 31.2292 5.13312 30.9586 4.81578C30.6972 4.49845 30.3239 4.33978 29.8386 4.33978C29.4839 4.33978 29.1759 4.42378 28.9146 4.59178C28.6626 4.75978 28.4712 5.01178 28.3406 5.34778C28.2099 5.67445 28.1446 6.08978 28.1446 6.59378C28.1446 7.08845 28.2146 7.49911 28.3546 7.82578C28.5039 8.14312 28.7092 8.38112 28.9706 8.53978C29.2412 8.69845 29.5632 8.77778 29.9366 8.77778C30.3472 8.77778 30.6786 8.69845 30.9306 8.53978C31.1826 8.38112 31.3786 8.16178 31.5186 7.88178L33.0446 8.46978C32.8952 8.83378 32.6666 9.14645 32.3586 9.40778C32.0599 9.66912 31.7006 9.86978 31.2806 10.0098C30.8699 10.1404 30.4266 10.2058 29.9506 10.2058Z" fill="white"/>
<path d="M24.1219 0V7.91C24.1219 8.23667 24.1779 8.46533 24.2899 8.596C24.4019 8.72667 24.5886 8.792 24.8499 8.792C25.0086 8.792 25.1392 8.78267 25.2419 8.764C25.3446 8.736 25.4752 8.69867 25.6339 8.652L25.4659 9.912C25.3072 10.0053 25.1066 10.0753 24.8639 10.122C24.6306 10.178 24.3972 10.206 24.1639 10.206C23.4826 10.206 22.9832 10.0427 22.6659 9.716C22.3579 9.38 22.2039 8.848 22.2039 8.12V0H24.1219Z" fill="white"/>
<path d="M19.6512 0V7.91C19.6512 8.23667 19.7072 8.46533 19.8192 8.596C19.9312 8.72667 20.1179 8.792 20.3792 8.792C20.5379 8.792 20.6685 8.78267 20.7712 8.764C20.8739 8.736 21.0045 8.69867 21.1632 8.652L20.9952 9.912C20.8365 10.0053 20.6359 10.0753 20.3932 10.122C20.1599 10.178 19.9265 10.206 19.6932 10.206C19.0119 10.206 18.5125 10.0427 18.1952 9.716C17.8872 9.38 17.7332 8.848 17.7332 8.12V0H19.6512Z" fill="white"/>
<path d="M12.9017 10.2058C12.1644 10.2058 11.5204 10.0611 10.9697 9.77178C10.4284 9.48245 10.0084 9.06712 9.70975 8.52578C9.41108 7.98445 9.26175 7.33112 9.26175 6.56578C9.26175 5.80045 9.41108 5.14712 9.70975 4.60578C10.0084 4.06445 10.4237 3.64912 10.9557 3.35978C11.4971 3.07045 12.1131 2.92578 12.8037 2.92578C13.5131 2.92578 14.1151 3.07045 14.6097 3.35978C15.1044 3.63978 15.4824 4.02711 15.7437 4.52178C16.0051 5.00711 16.1357 5.56245 16.1357 6.18778C16.1357 6.37445 16.1311 6.55178 16.1217 6.71978C16.1124 6.88778 16.0984 7.03712 16.0797 7.16778H10.4937V5.83778H15.2397L14.3157 6.17378C14.3157 5.58578 14.1804 5.13312 13.9097 4.81578C13.6484 4.49845 13.2751 4.33978 12.7897 4.33978C12.4351 4.33978 12.1271 4.42378 11.8657 4.59178C11.6137 4.75978 11.4224 5.01178 11.2917 5.34778C11.1611 5.67445 11.0957 6.08978 11.0957 6.59378C11.0957 7.08845 11.1657 7.49911 11.3057 7.82578C11.4551 8.14312 11.6604 8.38112 11.9217 8.53978C12.1924 8.69845 12.5144 8.77778 12.8877 8.77778C13.2984 8.77778 13.6297 8.69845 13.8817 8.53978C14.1337 8.38112 14.3297 8.16178 14.4697 7.88178L15.9957 8.46978C15.8464 8.83378 15.6177 9.14645 15.3097 9.40778C15.0111 9.66912 14.6517 9.86978 14.2317 10.0098C13.8211 10.1404 13.3777 10.2058 12.9017 10.2058Z" fill="white"/>
<path d="M4.214 0.686035C5.054 0.686035 5.79133 0.830702 6.426 1.12003C7.06067 1.40937 7.602 1.8387 8.05 2.40803L6.972 3.65404C6.58933 3.1687 6.16933 2.81403 5.712 2.59003C5.264 2.3567 4.74133 2.24004 4.144 2.24004C3.752 2.24004 3.42533 2.29137 3.164 2.39403C2.912 2.4967 2.72533 2.63204 2.604 2.80003C2.492 2.96803 2.436 3.1547 2.436 3.36003C2.436 3.61204 2.534 3.8267 2.73 4.00403C2.926 4.17203 3.262 4.31204 3.738 4.42404L5.46 4.81603C6.37467 5.02137 7.028 5.32937 7.42 5.74004C7.82133 6.14137 8.022 6.66403 8.022 7.30803C8.022 7.9147 7.86333 8.43737 7.546 8.87604C7.22867 9.30537 6.78533 9.6367 6.216 9.87004C5.64667 10.094 4.99333 10.206 4.256 10.206C3.612 10.206 3.01933 10.1314 2.478 9.98204C1.946 9.82337 1.47 9.6087 1.05 9.33804C0.63 9.06737 0.28 8.7547 0 8.40003L1.092 7.09803C1.30667 7.3967 1.57267 7.6627 1.89 7.89604C2.20733 8.12937 2.56667 8.31604 2.968 8.45604C3.37867 8.5867 3.808 8.65203 4.256 8.65203C4.63867 8.65203 4.96067 8.61004 5.222 8.52604C5.49267 8.4327 5.69333 8.3067 5.824 8.14804C5.964 7.98004 6.034 7.77937 6.034 7.54604C6.034 7.30337 5.95 7.09803 5.782 6.93004C5.62333 6.7527 5.32467 6.61737 4.886 6.52403L3.01 6.10403C2.46867 5.97337 2.002 5.80537 1.61 5.60004C1.22733 5.38537 0.933333 5.1147 0.728 4.78804C0.532 4.45204 0.434 4.05537 0.434 3.59804C0.434 3.04737 0.583333 2.5527 0.882 2.11404C1.18067 1.67537 1.61 1.33004 2.17 1.07804C2.73933 0.816702 3.42067 0.686035 4.214 0.686035Z" fill="white"/>
</svg>
