<svg width="296" height="50" viewBox="0 0 296 50" fill="none" xmlns="http://www.w3.org/2000/svg">
<path d="M0 0H296V50H0V0Z" fill="white"/>
<path d="M122.706 33.1998C121.692 33.1998 120.766 33.0198 119.926 32.6598C119.099 32.2998 118.426 31.7931 117.906 31.1398L119.486 29.5398C119.806 30.0198 120.232 30.4131 120.766 30.7198C121.299 31.0265 121.932 31.1798 122.666 31.1798C123.186 31.1798 123.599 31.1065 123.906 30.9598C124.226 30.7998 124.386 30.5531 124.386 30.2198C124.386 30.0065 124.312 29.8265 124.166 29.6798C124.019 29.5198 123.726 29.3931 123.286 29.2998L121.526 28.9398C120.366 28.6998 119.539 28.3398 119.046 27.8598C118.566 27.3665 118.326 26.7331 118.326 25.9598C118.326 25.4131 118.486 24.8998 118.806 24.4198C119.139 23.9398 119.632 23.5531 120.286 23.2598C120.939 22.9531 121.752 22.7998 122.726 22.7998C123.726 22.7998 124.592 22.9598 125.326 23.2798C126.072 23.5865 126.659 24.0465 127.086 24.6598L125.446 26.2598C125.152 25.7931 124.766 25.4398 124.286 25.1998C123.819 24.9465 123.326 24.8198 122.806 24.8198C122.432 24.8198 122.112 24.8598 121.846 24.9398C121.579 25.0198 121.379 25.1331 121.246 25.2798C121.112 25.4131 121.046 25.5865 121.046 25.7998C121.046 26.0131 121.139 26.1998 121.326 26.3598C121.512 26.5065 121.852 26.6331 122.346 26.7398L124.386 27.1598C125.372 27.3598 126.079 27.6998 126.506 28.1798C126.932 28.6465 127.146 29.2131 127.146 29.8798C127.146 30.5198 126.972 31.0931 126.626 31.5998C126.292 32.0931 125.792 32.4865 125.126 32.7798C124.472 33.0598 123.666 33.1998 122.706 33.1998Z" fill="black"/>
<path d="M111.764 33.1998C110.71 33.1998 109.79 32.9931 109.004 32.5798C108.23 32.1665 107.63 31.5731 107.204 30.7998C106.777 30.0265 106.564 29.0931 106.564 27.9998C106.564 26.9065 106.777 25.9731 107.204 25.1998C107.63 24.4265 108.224 23.8331 108.984 23.4198C109.757 23.0065 110.637 22.7998 111.624 22.7998C112.637 22.7998 113.497 23.0065 114.204 23.4198C114.91 23.8198 115.45 24.3731 115.824 25.0798C116.197 25.7731 116.384 26.5665 116.384 27.4598C116.384 27.7265 116.377 27.9798 116.364 28.2198C116.35 28.4598 116.33 28.6731 116.304 28.8598H108.324V26.9598H115.104L113.784 27.4398C113.784 26.5998 113.59 25.9531 113.204 25.4998C112.83 25.0465 112.297 24.8198 111.604 24.8198C111.097 24.8198 110.657 24.9398 110.284 25.1798C109.924 25.4198 109.65 25.7798 109.464 26.2598C109.277 26.7265 109.184 27.3198 109.184 28.0398C109.184 28.7465 109.284 29.3331 109.484 29.7998C109.697 30.2531 109.99 30.5931 110.364 30.8198C110.75 31.0465 111.21 31.1598 111.744 31.1598C112.33 31.1598 112.804 31.0465 113.164 30.8198C113.524 30.5931 113.804 30.2798 114.004 29.8798L116.184 30.7198C115.97 31.2398 115.644 31.6865 115.204 32.0598C114.777 32.4331 114.264 32.7198 113.664 32.9198C113.077 33.1065 112.444 33.1998 111.764 33.1998Z" fill="black"/>
<path d="M100.375 22.7998C101.268 22.7998 102.021 22.9331 102.635 23.1998C103.261 23.4531 103.761 23.8065 104.135 24.2598C104.521 24.6998 104.795 25.1931 104.955 25.7398L102.395 26.6598C102.261 26.0598 102.035 25.6065 101.715 25.2998C101.395 24.9931 100.961 24.8398 100.415 24.8398C99.9079 24.8398 99.4745 24.9598 99.1145 25.1998C98.7545 25.4265 98.4812 25.7798 98.2945 26.2598C98.1079 26.7265 98.0145 27.3131 98.0145 28.0198C98.0145 28.7265 98.1079 29.3131 98.2945 29.7798C98.4945 30.2465 98.7745 30.5931 99.1345 30.8198C99.5079 31.0465 99.9412 31.1598 100.435 31.1598C100.835 31.1598 101.175 31.0931 101.455 30.9598C101.735 30.8131 101.961 30.6065 102.135 30.3398C102.321 30.0731 102.448 29.7531 102.515 29.3798L104.995 30.1798C104.848 30.7798 104.575 31.3065 104.175 31.7598C103.775 32.2131 103.261 32.5665 102.635 32.8198C102.008 33.0731 101.281 33.1998 100.455 33.1998C99.4279 33.1998 98.5212 32.9931 97.7345 32.5798C96.9479 32.1665 96.3412 31.5731 95.9145 30.7998C95.4879 30.0265 95.2745 29.0931 95.2745 27.9998C95.2745 26.9065 95.4879 25.9731 95.9145 25.1998C96.3412 24.4265 96.9412 23.8331 97.7145 23.4198C98.4879 23.0065 99.3745 22.7998 100.375 22.7998Z" fill="black"/>
<path d="M83.4517 32.9998V22.9998H85.9117L86.0717 25.9998L85.7317 25.6798C85.8917 25.0265 86.145 24.4865 86.4917 24.0598C86.8383 23.6331 87.2583 23.3198 87.7517 23.1198C88.2583 22.9065 88.8117 22.7998 89.4117 22.7998C90.105 22.7998 90.7183 22.9331 91.2517 23.1998C91.7983 23.4665 92.225 23.8731 92.5317 24.4198C92.8517 24.9531 93.0117 25.6265 93.0117 26.4398V32.9998H90.2717V27.2198C90.2717 26.3665 90.105 25.7798 89.7717 25.4598C89.4383 25.1265 89.005 24.9598 88.4717 24.9598C88.0983 24.9598 87.7317 25.0531 87.3717 25.2398C87.025 25.4131 86.7383 25.6998 86.5117 26.0998C86.2983 26.4998 86.1917 27.0331 86.1917 27.6998V32.9998H83.4517Z" fill="black"/>
<path d="M77.6674 26.6198C77.6674 26.0465 77.5007 25.5998 77.1674 25.2798C76.8474 24.9598 76.4207 24.7998 75.8874 24.7998C75.394 24.7998 74.9607 24.9265 74.5874 25.1798C74.214 25.4331 73.9407 25.8531 73.7674 26.4398L71.4274 25.7198C71.654 24.8398 72.1474 24.1331 72.9074 23.5998C73.6807 23.0665 74.714 22.7998 76.0074 22.7998C76.8874 22.7998 77.654 22.9398 78.3074 23.2198C78.9607 23.4865 79.4674 23.8931 79.8274 24.4398C80.2007 24.9865 80.3874 25.6731 80.3874 26.4998V30.5598C80.3874 31.0665 80.6274 31.3198 81.1074 31.3198C81.334 31.3198 81.5474 31.2865 81.7474 31.2198L81.5874 32.9198C81.2407 33.0931 80.8074 33.1798 80.2874 33.1798C79.8207 33.1798 79.4007 33.0998 79.0274 32.9398C78.654 32.7798 78.3607 32.5398 78.1474 32.2198C77.934 31.8865 77.8274 31.4731 77.8274 30.9798V30.8998L78.3074 30.8198C78.2274 31.3265 78.0074 31.7598 77.6474 32.1198C77.2874 32.4665 76.8474 32.7331 76.3274 32.9198C75.8207 33.1065 75.294 33.1998 74.7474 33.1998C74.0674 33.1998 73.4807 33.0998 72.9874 32.8998C72.494 32.6865 72.114 32.3798 71.8474 31.9798C71.5807 31.5798 71.4474 31.0865 71.4474 30.4998C71.4474 29.7531 71.6874 29.1465 72.1674 28.6798C72.6474 28.1998 73.334 27.8731 74.2274 27.6998L77.9874 26.9398L77.9674 28.6398L75.5674 29.1198C75.114 29.2131 74.7674 29.3398 74.5274 29.4998C74.3007 29.6465 74.1874 29.8931 74.1874 30.2398C74.1874 30.5731 74.3074 30.8265 74.5474 30.9998C74.8007 31.1731 75.1007 31.2598 75.4474 31.2598C75.7274 31.2598 76.0007 31.2265 76.2674 31.1598C76.534 31.0931 76.774 30.9865 76.9874 30.8398C77.2007 30.6931 77.3674 30.4931 77.4874 30.2398C77.6074 29.9865 77.6674 29.6798 77.6674 29.3198V26.6198Z" fill="black"/>
<path d="M67.7028 21.5601C67.1295 21.5601 66.7028 21.4401 66.4228 21.2001C66.1428 20.9468 66.0028 20.5801 66.0028 20.1001C66.0028 19.6068 66.1428 19.2401 66.4228 19.0001C66.7028 18.7468 67.1295 18.6201 67.7028 18.6201C68.2761 18.6201 68.7028 18.7468 68.9828 19.0001C69.2628 19.2401 69.4028 19.6068 69.4028 20.1001C69.4028 20.5801 69.2628 20.9468 68.9828 21.2001C68.7028 21.4401 68.2761 21.5601 67.7028 21.5601ZM69.0628 23.0001V33.0001H66.3228V23.0001H69.0628Z" fill="black"/>
<path d="M62.6361 18.6201V29.9201C62.6361 30.3868 62.7161 30.7135 62.8761 30.9001C63.0361 31.0868 63.3028 31.1801 63.6761 31.1801C63.9028 31.1801 64.0895 31.1668 64.2361 31.1401C64.3828 31.1001 64.5694 31.0468 64.7961 30.9801L64.5561 32.7801C64.3295 32.9135 64.0428 33.0135 63.6961 33.0801C63.3628 33.1601 63.0295 33.2001 62.6961 33.2001C61.7228 33.2001 61.0095 32.9668 60.5561 32.5001C60.1161 32.0201 59.8961 31.2601 59.8961 30.2201V18.6201H62.6361Z" fill="black"/>
<path d="M47.397 37.1998V22.9998H49.857L50.037 26.1798L49.697 25.8198C49.817 25.2331 50.037 24.7131 50.357 24.2598C50.6903 23.8065 51.1103 23.4531 51.617 23.1998C52.1236 22.9331 52.6903 22.7998 53.317 22.7998C54.1303 22.7998 54.857 23.0065 55.497 23.4198C56.137 23.8331 56.637 24.4265 56.997 25.1998C57.3703 25.9598 57.557 26.8865 57.557 27.9798C57.557 29.0731 57.3703 30.0131 56.997 30.7998C56.6236 31.5731 56.1103 32.1665 55.457 32.5798C54.817 32.9931 54.0836 33.1998 53.257 33.1998C52.377 33.1998 51.6436 32.9531 51.057 32.4598C50.4836 31.9665 50.0903 31.3465 49.877 30.5998L50.137 30.1798V37.1998H47.397ZM52.457 31.0998C53.1903 31.0998 53.7636 30.8398 54.177 30.3198C54.6036 29.7865 54.817 29.0131 54.817 27.9998C54.817 26.9865 54.6103 26.2198 54.197 25.6998C53.797 25.1665 53.2303 24.8998 52.497 24.8998C52.0303 24.8998 51.617 25.0265 51.257 25.2798C50.9103 25.5198 50.637 25.8731 50.437 26.3398C50.237 26.7931 50.137 27.3465 50.137 27.9998C50.137 28.6398 50.2303 29.1931 50.417 29.6598C50.6036 30.1265 50.8703 30.4865 51.217 30.7398C51.577 30.9798 51.9903 31.0998 52.457 31.0998Z" fill="black"/>
<path d="M34.8579 37.1998V22.9998H37.3179L37.4979 26.1798L37.1579 25.8198C37.2779 25.2331 37.4979 24.7131 37.8179 24.2598C38.1512 23.8065 38.5712 23.4531 39.0779 23.1998C39.5846 22.9331 40.1512 22.7998 40.7779 22.7998C41.5912 22.7998 42.3179 23.0065 42.9579 23.4198C43.5979 23.8331 44.0979 24.4265 44.4579 25.1998C44.8312 25.9598 45.0179 26.8865 45.0179 27.9798C45.0179 29.0731 44.8312 30.0131 44.4579 30.7998C44.0846 31.5731 43.5712 32.1665 42.9179 32.5798C42.2779 32.9931 41.5446 33.1998 40.7179 33.1998C39.8379 33.1998 39.1046 32.9531 38.5179 32.4598C37.9446 31.9665 37.5512 31.3465 37.3379 30.5998L37.5979 30.1798V37.1998H34.8579ZM39.9179 31.0998C40.6512 31.0998 41.2246 30.8398 41.6379 30.3198C42.0646 29.7865 42.2779 29.0131 42.2779 27.9998C42.2779 26.9865 42.0712 26.2198 41.6579 25.6998C41.2579 25.1665 40.6912 24.8998 39.9579 24.8998C39.4912 24.8998 39.0779 25.0265 38.7179 25.2798C38.3712 25.5198 38.0979 25.8731 37.8979 26.3398C37.6979 26.7931 37.5979 27.3465 37.5979 27.9998C37.5979 28.6398 37.6912 29.1931 37.8779 29.6598C38.0646 30.1265 38.3312 30.4865 38.6779 30.7398C39.0379 30.9798 39.4512 31.0998 39.9179 31.0998Z" fill="black"/>
<path d="M33.18 32.9998H30.32L29.22 29.7798H24.16L23.06 32.9998H20.24L25.06 19.7998H28.36L33.18 32.9998ZM24.78 27.7398H28.6L26.68 21.9798L24.78 27.7398Z" fill="black"/>
</svg>
