<svg width="296" height="50" viewBox="0 0 296 50" fill="none" xmlns="http://www.w3.org/2000/svg">
<path d="M0 0H296V50H0V0Z" fill="white"/>
<path d="M150.85 33.1998C149.837 33.1998 148.91 33.0198 148.07 32.6598C147.243 32.2998 146.57 31.7931 146.05 31.1398L147.63 29.5398C147.95 30.0198 148.377 30.4131 148.91 30.7198C149.443 31.0265 150.077 31.1798 150.81 31.1798C151.33 31.1798 151.743 31.1065 152.05 30.9598C152.37 30.7998 152.53 30.5531 152.53 30.2198C152.53 30.0065 152.457 29.8265 152.31 29.6798C152.163 29.5198 151.87 29.3931 151.43 29.2998L149.67 28.9398C148.51 28.6998 147.683 28.3398 147.19 27.8598C146.71 27.3665 146.47 26.7331 146.47 25.9598C146.47 25.4131 146.63 24.8998 146.95 24.4198C147.283 23.9398 147.777 23.5531 148.43 23.2598C149.083 22.9531 149.897 22.7998 150.87 22.7998C151.87 22.7998 152.737 22.9598 153.47 23.2798C154.217 23.5865 154.803 24.0465 155.23 24.6598L153.59 26.2598C153.297 25.7931 152.91 25.4398 152.43 25.1998C151.963 24.9465 151.47 24.8198 150.95 24.8198C150.577 24.8198 150.257 24.8598 149.99 24.9398C149.723 25.0198 149.523 25.1331 149.39 25.2798C149.257 25.4131 149.19 25.5865 149.19 25.7998C149.19 26.0131 149.283 26.1998 149.47 26.3598C149.657 26.5065 149.997 26.6331 150.49 26.7398L152.53 27.1598C153.517 27.3598 154.223 27.6998 154.65 28.1798C155.077 28.6465 155.29 29.2131 155.29 29.8798C155.29 30.5198 155.117 31.0931 154.77 31.5998C154.437 32.0931 153.937 32.4865 153.27 32.7798C152.617 33.0598 151.81 33.1998 150.85 33.1998Z" fill="black"/>
<path d="M139.908 33.1998C138.855 33.1998 137.935 32.9931 137.148 32.5798C136.375 32.1665 135.775 31.5731 135.348 30.7998C134.921 30.0265 134.708 29.0931 134.708 27.9998C134.708 26.9065 134.921 25.9731 135.348 25.1998C135.775 24.4265 136.368 23.8331 137.128 23.4198C137.901 23.0065 138.781 22.7998 139.768 22.7998C140.781 22.7998 141.641 23.0065 142.348 23.4198C143.055 23.8198 143.595 24.3731 143.968 25.0798C144.341 25.7731 144.528 26.5665 144.528 27.4598C144.528 27.7265 144.521 27.9798 144.508 28.2198C144.495 28.4598 144.475 28.6731 144.448 28.8598H136.468V26.9598H143.248L141.928 27.4398C141.928 26.5998 141.735 25.9531 141.348 25.4998C140.975 25.0465 140.441 24.8198 139.748 24.8198C139.241 24.8198 138.801 24.9398 138.428 25.1798C138.068 25.4198 137.795 25.7798 137.608 26.2598C137.421 26.7265 137.328 27.3198 137.328 28.0398C137.328 28.7465 137.428 29.3331 137.628 29.7998C137.841 30.2531 138.135 30.5931 138.508 30.8198C138.895 31.0465 139.355 31.1598 139.888 31.1598C140.475 31.1598 140.948 31.0465 141.308 30.8198C141.668 30.5931 141.948 30.2798 142.148 29.8798L144.328 30.7198C144.115 31.2398 143.788 31.6865 143.348 32.0598C142.921 32.4331 142.408 32.7198 141.808 32.9198C141.221 33.1065 140.588 33.1998 139.908 33.1998Z" fill="black"/>
<path d="M131.004 21.5601C130.43 21.5601 130.004 21.4401 129.724 21.2001C129.444 20.9468 129.304 20.5801 129.304 20.1001C129.304 19.6068 129.444 19.2401 129.724 19.0001C130.004 18.7468 130.43 18.6201 131.004 18.6201C131.577 18.6201 132.004 18.7468 132.284 19.0001C132.564 19.2401 132.704 19.6068 132.704 20.1001C132.704 20.5801 132.564 20.9468 132.284 21.2001C132.004 21.4401 131.577 21.5601 131.004 21.5601ZM132.364 23.0001V33.0001H129.624V23.0001H132.364Z" fill="black"/>
<path d="M121.186 32.9998V22.9998H123.566L123.746 24.9598C124.013 24.2665 124.399 23.7331 124.906 23.3598C125.426 22.9865 126.073 22.7998 126.846 22.7998C127.073 22.7998 127.279 22.8198 127.466 22.8598C127.653 22.8998 127.806 22.9531 127.926 23.0198L127.606 25.3198C127.473 25.2665 127.306 25.2265 127.106 25.1998C126.919 25.1731 126.673 25.1598 126.366 25.1598C125.966 25.1598 125.579 25.2598 125.206 25.4598C124.833 25.6465 124.526 25.9398 124.286 26.3398C124.046 26.7265 123.926 27.2198 123.926 27.8198V32.9998H121.186Z" fill="black"/>
<path d="M113.773 22.7998C114.787 22.7998 115.673 23.0065 116.433 23.4198C117.207 23.8331 117.807 24.4265 118.233 25.1998C118.673 25.9731 118.893 26.9065 118.893 27.9998C118.893 29.0798 118.673 30.0131 118.233 30.7998C117.807 31.5731 117.207 32.1665 116.433 32.5798C115.673 32.9931 114.787 33.1998 113.773 33.1998C112.773 33.1998 111.887 32.9931 111.113 32.5798C110.34 32.1665 109.733 31.5731 109.293 30.7998C108.867 30.0131 108.653 29.0798 108.653 27.9998C108.653 26.9065 108.867 25.9731 109.293 25.1998C109.733 24.4265 110.34 23.8331 111.113 23.4198C111.887 23.0065 112.773 22.7998 113.773 22.7998ZM113.773 24.8398C113.267 24.8398 112.833 24.9598 112.473 25.1998C112.127 25.4265 111.86 25.7731 111.673 26.2398C111.487 26.7065 111.393 27.2931 111.393 27.9998C111.393 28.7065 111.487 29.2931 111.673 29.7598C111.86 30.2265 112.127 30.5798 112.473 30.8198C112.833 31.0465 113.267 31.1598 113.773 31.1598C114.267 31.1598 114.687 31.0465 115.033 30.8198C115.393 30.5798 115.667 30.2265 115.853 29.7598C116.04 29.2931 116.133 28.7065 116.133 27.9998C116.133 27.2931 116.04 26.7065 115.853 26.2398C115.667 25.7731 115.393 25.4265 115.033 25.1998C114.687 24.9598 114.267 24.8398 113.773 24.8398Z" fill="black"/>
<path d="M107.457 20.6201L107.777 22.5801C107.724 22.5801 107.664 22.5801 107.597 22.5801C107.544 22.5668 107.484 22.5601 107.417 22.5601C106.804 22.5601 106.344 22.7001 106.037 22.9801C105.73 23.2468 105.577 23.6201 105.577 24.1001L104.457 23.6401C104.457 23.1068 104.564 22.6135 104.777 22.1601C104.99 21.6935 105.304 21.3201 105.717 21.0401C106.144 20.7601 106.65 20.6201 107.237 20.6201C107.264 20.6201 107.297 20.6201 107.337 20.6201C107.377 20.6201 107.417 20.6201 107.457 20.6201ZM104.177 31.1201C105.257 31.1201 106.09 31.3535 106.677 31.8201C107.264 32.2868 107.557 32.9401 107.557 33.7801C107.557 34.5401 107.337 35.1801 106.897 35.7001C106.457 36.2335 105.837 36.6335 105.037 36.9001C104.25 37.1668 103.337 37.3001 102.297 37.3001C100.577 37.3001 99.3169 37.0601 98.5169 36.5801C97.7302 36.1001 97.3369 35.4735 97.3369 34.7001C97.3369 34.1535 97.5435 33.6934 97.9569 33.3201C98.3835 32.9468 99.0835 32.7401 100.057 32.7001L99.9569 33.0201C99.2635 32.9001 98.7302 32.6735 98.3569 32.3401C97.9969 31.9935 97.8169 31.5201 97.8169 30.9201C97.8169 30.3068 98.0502 29.8068 98.5169 29.4201C98.9969 29.0201 99.6435 28.7868 100.457 28.7201L101.657 29.2801H101.377C100.804 29.3201 100.397 29.4401 100.157 29.6401C99.9302 29.8268 99.8169 30.0401 99.8169 30.2801C99.8169 30.5601 99.9235 30.7735 100.137 30.9201C100.364 31.0535 100.684 31.1201 101.097 31.1201H104.177ZM102.317 35.4201C103.01 35.4201 103.577 35.3601 104.017 35.2401C104.47 35.1201 104.804 34.9668 105.017 34.7801C105.244 34.5935 105.357 34.3868 105.357 34.1601C105.357 33.9068 105.257 33.7001 105.057 33.5401C104.857 33.3935 104.497 33.3201 103.977 33.3201H100.597C100.277 33.3201 100.01 33.4001 99.7969 33.5601C99.5969 33.7201 99.4969 33.9401 99.4969 34.2201C99.4969 34.5934 99.7435 34.8868 100.237 35.1001C100.744 35.3135 101.437 35.4201 102.317 35.4201ZM102.337 22.8001C103.27 22.8001 104.077 22.9401 104.757 23.2201C105.45 23.4868 105.977 23.8735 106.337 24.3801C106.71 24.8868 106.897 25.4935 106.897 26.2001C106.897 26.8935 106.71 27.4935 106.337 28.0001C105.977 28.5068 105.45 28.9001 104.757 29.1801C104.077 29.4468 103.27 29.5801 102.337 29.5801C100.857 29.5801 99.7235 29.2801 98.9369 28.6801C98.1635 28.0668 97.7769 27.2401 97.7769 26.2001C97.7769 25.4935 97.9569 24.8868 98.3169 24.3801C98.6902 23.8735 99.2169 23.4868 99.8969 23.2201C100.577 22.9401 101.39 22.8001 102.337 22.8001ZM102.337 24.5201C101.804 24.5201 101.364 24.6668 101.017 24.9601C100.67 25.2535 100.497 25.6601 100.497 26.1801C100.497 26.7001 100.67 27.1135 101.017 27.4201C101.364 27.7135 101.804 27.8601 102.337 27.8601C102.87 27.8601 103.304 27.7135 103.637 27.4201C103.984 27.1135 104.157 26.7001 104.157 26.1801C104.157 25.6601 103.984 25.2535 103.637 24.9601C103.304 24.6668 102.87 24.5201 102.337 24.5201Z" fill="black"/>
<path d="M91.2948 33.1998C90.2415 33.1998 89.3215 32.9931 88.5348 32.5798C87.7615 32.1665 87.1615 31.5731 86.7348 30.7998C86.3082 30.0265 86.0948 29.0931 86.0948 27.9998C86.0948 26.9065 86.3082 25.9731 86.7348 25.1998C87.1615 24.4265 87.7548 23.8331 88.5148 23.4198C89.2882 23.0065 90.1682 22.7998 91.1548 22.7998C92.1682 22.7998 93.0282 23.0065 93.7348 23.4198C94.4415 23.8198 94.9815 24.3731 95.3548 25.0798C95.7282 25.7731 95.9148 26.5665 95.9148 27.4598C95.9148 27.7265 95.9082 27.9798 95.8948 28.2198C95.8815 28.4598 95.8615 28.6731 95.8348 28.8598H87.8548V26.9598H94.6348L93.3148 27.4398C93.3148 26.5998 93.1215 25.9531 92.7348 25.4998C92.3615 25.0465 91.8282 24.8198 91.1348 24.8198C90.6282 24.8198 90.1882 24.9398 89.8148 25.1798C89.4548 25.4198 89.1815 25.7798 88.9948 26.2598C88.8082 26.7265 88.7148 27.3198 88.7148 28.0398C88.7148 28.7465 88.8148 29.3331 89.0148 29.7998C89.2282 30.2531 89.5215 30.5931 89.8948 30.8198C90.2815 31.0465 90.7415 31.1598 91.2748 31.1598C91.8615 31.1598 92.3348 31.0465 92.6948 30.8198C93.0548 30.5931 93.3348 30.2798 93.5348 29.8798L95.7148 30.7198C95.5015 31.2398 95.1748 31.6865 94.7348 32.0598C94.3082 32.4331 93.7948 32.7198 93.1948 32.9198C92.6082 33.1065 91.9748 33.1998 91.2948 33.1998Z" fill="black"/>
<path d="M81.6011 19.9399V29.7399C81.6011 30.2199 81.7211 30.5733 81.9611 30.7999C82.2144 31.0133 82.5544 31.1199 82.9811 31.1199C83.3144 31.1199 83.6078 31.0733 83.8611 30.9799C84.1144 30.8733 84.3411 30.7333 84.5411 30.5599L84.9811 32.3799C84.6611 32.6333 84.2611 32.8333 83.7811 32.9799C83.3011 33.1266 82.7944 33.1999 82.2611 33.1999C81.5944 33.1999 81.0011 33.0999 80.4811 32.8999C79.9744 32.6999 79.5744 32.3799 79.2811 31.9399C79.0011 31.4999 78.8611 30.9133 78.8611 30.1799V20.6999L81.6011 19.9399ZM84.8011 22.9999V25.0399H77.0211V22.9999H84.8011Z" fill="black"/>
<path d="M72.6673 26.6198C72.6673 26.0465 72.5007 25.5998 72.1673 25.2798C71.8473 24.9598 71.4207 24.7998 70.8873 24.7998C70.394 24.7998 69.9607 24.9265 69.5873 25.1798C69.214 25.4331 68.9407 25.8531 68.7673 26.4398L66.4273 25.7198C66.654 24.8398 67.1473 24.1331 67.9073 23.5998C68.6807 23.0665 69.714 22.7998 71.0073 22.7998C71.8873 22.7998 72.654 22.9398 73.3073 23.2198C73.9607 23.4865 74.4673 23.8931 74.8273 24.4398C75.2007 24.9865 75.3873 25.6731 75.3873 26.4998V30.5598C75.3873 31.0665 75.6273 31.3198 76.1073 31.3198C76.334 31.3198 76.5473 31.2865 76.7473 31.2198L76.5873 32.9198C76.2407 33.0931 75.8073 33.1798 75.2873 33.1798C74.8207 33.1798 74.4007 33.0998 74.0273 32.9398C73.654 32.7798 73.3607 32.5398 73.1473 32.2198C72.934 31.8865 72.8273 31.4731 72.8273 30.9798V30.8998L73.3073 30.8198C73.2273 31.3265 73.0073 31.7598 72.6473 32.1198C72.2873 32.4665 71.8473 32.7331 71.3273 32.9198C70.8207 33.1065 70.294 33.1998 69.7473 33.1998C69.0673 33.1998 68.4807 33.0998 67.9873 32.8998C67.494 32.6865 67.114 32.3798 66.8473 31.9798C66.5807 31.5798 66.4473 31.0865 66.4473 30.4998C66.4473 29.7531 66.6873 29.1465 67.1673 28.6798C67.6473 28.1998 68.334 27.8731 69.2273 27.6998L72.9873 26.9398L72.9673 28.6398L70.5673 29.1198C70.114 29.2131 69.7673 29.3398 69.5273 29.4998C69.3007 29.6465 69.1873 29.8931 69.1873 30.2398C69.1873 30.5731 69.3073 30.8265 69.5473 30.9998C69.8007 31.1731 70.1007 31.2598 70.4473 31.2598C70.7273 31.2598 71.0007 31.2265 71.2673 31.1598C71.534 31.0931 71.774 30.9865 71.9873 30.8398C72.2007 30.6931 72.3673 30.4931 72.4873 30.2398C72.6073 29.9865 72.6673 29.6798 72.6673 29.3198V26.6198Z" fill="black"/>
<path d="M64.895 29.3601C64.6417 30.2134 64.2417 30.9268 63.695 31.5001C63.1483 32.0734 62.5017 32.5001 61.755 32.7801C61.0083 33.0601 60.1883 33.2001 59.295 33.2001C57.9883 33.2001 56.855 32.9268 55.895 32.3801C54.9483 31.8334 54.215 31.0534 53.695 30.0401C53.1883 29.0268 52.935 27.8134 52.935 26.4001C52.935 24.9868 53.1883 23.7734 53.695 22.7601C54.215 21.7468 54.9483 20.9668 55.895 20.4201C56.855 19.8734 57.975 19.6001 59.255 19.6001C60.1617 19.6001 60.9817 19.7268 61.715 19.9801C62.4483 20.2201 63.0683 20.5934 63.575 21.1001C64.095 21.6068 64.475 22.2468 64.715 23.0201L62.215 24.0801C61.9883 23.2801 61.6417 22.7134 61.175 22.3801C60.7083 22.0334 60.1083 21.8601 59.375 21.8601C58.655 21.8601 58.0217 22.0334 57.475 22.3801C56.9417 22.7268 56.5283 23.2401 56.235 23.9201C55.9417 24.5868 55.795 25.4134 55.795 26.4001C55.795 27.3734 55.9283 28.2001 56.195 28.8801C56.475 29.5601 56.8817 30.0734 57.415 30.4201C57.9483 30.7668 58.6017 30.9401 59.375 30.9401C60.095 30.9401 60.715 30.7468 61.235 30.3601C61.7683 29.9734 62.1417 29.3868 62.355 28.6001L64.895 29.3601Z" fill="black"/>
<path d="M43.9447 18.6201V29.9201C43.9447 30.3868 44.0247 30.7135 44.1847 30.9001C44.3447 31.0868 44.6113 31.1801 44.9847 31.1801C45.2113 31.1801 45.398 31.1668 45.5447 31.1401C45.6913 31.1001 45.878 31.0468 46.1047 30.9801L45.8647 32.7801C45.638 32.9135 45.3513 33.0135 45.0047 33.0801C44.6713 33.1601 44.338 33.2001 44.0047 33.2001C43.0313 33.2001 42.318 32.9668 41.8647 32.5001C41.4247 32.0201 41.2047 31.2601 41.2047 30.2201V18.6201H43.9447Z" fill="black"/>
<path d="M37.558 18.6201V29.9201C37.558 30.3868 37.638 30.7135 37.798 30.9001C37.958 31.0868 38.2246 31.1801 38.598 31.1801C38.8246 31.1801 39.0113 31.1668 39.158 31.1401C39.3046 31.1001 39.4913 31.0468 39.718 30.9801L39.478 32.7801C39.2513 32.9135 38.9646 33.0135 38.618 33.0801C38.2846 33.1601 37.9513 33.2001 37.618 33.2001C36.6446 33.2001 35.9313 32.9668 35.478 32.5001C35.038 32.0201 34.818 31.2601 34.818 30.2201V18.6201H37.558Z" fill="black"/>
<path d="M33.18 32.9998H30.32L29.22 29.7798H24.16L23.06 32.9998H20.24L25.06 19.7998H28.36L33.18 32.9998ZM24.78 27.7398H28.6L26.68 21.9798L24.78 27.7398Z" fill="black"/>
</svg>
