<svg width="66" height="17" viewBox="0 0 66 17" fill="none" xmlns="http://www.w3.org/2000/svg">
<path d="M60.5261 15.2401C58.8328 15.2401 57.5261 14.6668 56.6061 13.5201C55.6995 12.3735 55.2461 10.6801 55.2461 8.44014C55.2461 6.20014 55.6995 4.5068 56.6061 3.36014C57.5261 2.21347 58.8328 1.64014 60.5261 1.64014C62.2195 1.64014 63.5195 2.21347 64.4261 3.36014C65.3461 4.5068 65.8061 6.20014 65.8061 8.44014C65.8061 10.6801 65.3461 12.3735 64.4261 13.5201C63.5195 14.6668 62.2195 15.2401 60.5261 15.2401ZM60.5261 13.0201C61.0995 13.0201 61.5661 12.8601 61.9261 12.5401C62.2995 12.2068 62.5795 11.7068 62.7661 11.0401C62.9528 10.3601 63.0461 9.49347 63.0461 8.44014C63.0461 7.3868 62.9528 6.5268 62.7661 5.86014C62.5795 5.18014 62.2995 4.68014 61.9261 4.36014C61.5661 4.0268 61.0995 3.86014 60.5261 3.86014C59.9528 3.86014 59.4795 4.0268 59.1061 4.36014C58.7328 4.68014 58.4528 5.18014 58.2661 5.86014C58.0928 6.5268 58.0061 7.3868 58.0061 8.44014C58.0061 9.49347 58.0928 10.3601 58.2661 11.0401C58.4528 11.7068 58.7328 12.2068 59.1061 12.5401C59.4795 12.8601 59.9528 13.0201 60.5261 13.0201Z" fill="#F15A4F"/>
<path d="M47.8113 15.2401C46.1179 15.2401 44.8113 14.6668 43.8913 13.5201C42.9846 12.3735 42.5313 10.6801 42.5313 8.44014C42.5313 6.20014 42.9846 4.5068 43.8913 3.36014C44.8113 2.21347 46.1179 1.64014 47.8113 1.64014C49.5046 1.64014 50.8046 2.21347 51.7113 3.36014C52.6313 4.5068 53.0913 6.20014 53.0913 8.44014C53.0913 10.6801 52.6313 12.3735 51.7113 13.5201C50.8046 14.6668 49.5046 15.2401 47.8113 15.2401ZM47.8113 13.0201C48.3846 13.0201 48.8513 12.8601 49.2113 12.5401C49.5846 12.2068 49.8646 11.7068 50.0513 11.0401C50.2379 10.3601 50.3313 9.49347 50.3313 8.44014C50.3313 7.3868 50.2379 6.5268 50.0513 5.86014C49.8646 5.18014 49.5846 4.68014 49.2113 4.36014C48.8513 4.0268 48.3846 3.86014 47.8113 3.86014C47.2379 3.86014 46.7646 4.0268 46.3913 4.36014C46.0179 4.68014 45.7379 5.18014 45.5513 5.86014C45.3779 6.5268 45.2913 7.3868 45.2913 8.44014C45.2913 9.49347 45.3779 10.3601 45.5513 11.0401C45.7379 11.7068 46.0179 12.2068 46.3913 12.5401C46.7646 12.8601 47.2379 13.0201 47.8113 13.0201Z" fill="#F15A4F"/>
<path d="M38.9588 11.98C39.4921 11.98 39.9121 12.1266 40.2188 12.42C40.5388 12.7133 40.6988 13.1066 40.6988 13.6C40.6988 14.1066 40.5388 14.5066 40.2188 14.8C39.9121 15.08 39.4921 15.22 38.9588 15.22C38.4254 15.22 37.9988 15.08 37.6788 14.8C37.3721 14.5066 37.2188 14.1066 37.2188 13.6C37.2188 13.1066 37.3721 12.7133 37.6788 12.42C37.9988 12.1266 38.4254 11.98 38.9588 11.98Z" fill="#F15A4F"/>
<path d="M30.0964 15.2401C28.4031 15.2401 27.0964 14.6668 26.1764 13.5201C25.2697 12.3735 24.8164 10.6801 24.8164 8.44014C24.8164 6.20014 25.2697 4.5068 26.1764 3.36014C27.0964 2.21347 28.4031 1.64014 30.0964 1.64014C31.7897 1.64014 33.0897 2.21347 33.9964 3.36014C34.9164 4.5068 35.3764 6.20014 35.3764 8.44014C35.3764 10.6801 34.9164 12.3735 33.9964 13.5201C33.0897 14.6668 31.7897 15.2401 30.0964 15.2401ZM30.0964 13.0201C30.6697 13.0201 31.1364 12.8601 31.4964 12.5401C31.8697 12.2068 32.1497 11.7068 32.3364 11.0401C32.5231 10.3601 32.6164 9.49347 32.6164 8.44014C32.6164 7.3868 32.5231 6.5268 32.3364 5.86014C32.1497 5.18014 31.8697 4.68014 31.4964 4.36014C31.1364 4.0268 30.6697 3.86014 30.0964 3.86014C29.5231 3.86014 29.0497 4.0268 28.6764 4.36014C28.3031 4.68014 28.0231 5.18014 27.8364 5.86014C27.6631 6.5268 27.5764 7.3868 27.5764 8.44014C27.5764 9.49347 27.6631 10.3601 27.8364 11.0401C28.0231 11.7068 28.3031 12.2068 28.6764 12.5401C29.0497 12.8601 29.5231 13.0201 30.0964 13.0201Z" fill="#F15A4F"/>
<path d="M17.8158 15.2401C16.6558 15.2401 15.6758 15.0001 14.8758 14.5201C14.0891 14.0401 13.4425 13.3068 12.9358 12.3201L15.4158 11.0801C15.5891 11.6668 15.8625 12.1401 16.2358 12.5001C16.6091 12.8601 17.1558 13.0401 17.8758 13.0401C18.3691 13.0401 18.7891 12.9534 19.1358 12.7801C19.4825 12.6068 19.7491 12.3534 19.9358 12.0201C20.1358 11.6868 20.2358 11.2801 20.2358 10.8001C20.2358 10.3201 20.1425 9.92009 19.9558 9.60009C19.7825 9.26675 19.5291 9.02009 19.1958 8.86009C18.8625 8.68675 18.4425 8.60009 17.9358 8.60009C17.5891 8.60009 17.2625 8.63342 16.9558 8.70009C16.6625 8.76676 16.3958 8.87342 16.1558 9.02009C15.9158 9.15342 15.7025 9.33342 15.5158 9.56009L13.3558 9.16009L14.1758 1.84009H22.1558V4.06009H16.2558L15.8558 7.28009L15.7958 7.54009H15.8358C16.1158 7.22009 16.4958 6.97342 16.9758 6.80009C17.4691 6.62675 18.0291 6.54009 18.6558 6.54009C19.5225 6.54009 20.2625 6.71342 20.8758 7.06009C21.4891 7.40675 21.9625 7.89342 22.2958 8.52009C22.6291 9.13342 22.7958 9.84009 22.7958 10.6401C22.7958 11.4001 22.6691 12.0734 22.4158 12.6601C22.1625 13.2334 21.8025 13.7134 21.3358 14.1001C20.8825 14.4734 20.3558 14.7601 19.7558 14.9601C19.1558 15.1468 18.5091 15.2401 17.8158 15.2401Z" fill="#F15A4F"/>
<path d="M5.88 15.02C5 15.02 4.18667 14.9133 3.44 14.7C2.69333 14.4867 2.02667 14.1933 1.44 13.82C0.866667 13.4467 0.386667 13.0133 0 12.52L1.52 10.72C1.81333 11.1733 2.19333 11.5667 2.66 11.9C3.12667 12.22 3.65333 12.4733 4.24 12.66C4.82667 12.8333 5.42667 12.92 6.04 12.92C6.85333 12.92 7.49333 12.7867 7.96 12.52C8.42667 12.2533 8.66 11.86 8.66 11.34C8.66 11.0067 8.52667 10.72 8.26 10.48C8.00667 10.24 7.56 10.0467 6.92 9.9L4.12 9.26C3.37333 9.08667 2.73333 8.84667 2.2 8.54C1.66667 8.23333 1.26 7.86 0.98 7.42C0.713333 6.96667 0.58 6.44667 0.58 5.86C0.58 5.08667 0.786667 4.4 1.2 3.8C1.62667 3.2 2.22667 2.72 3 2.36C3.78667 2 4.73333 1.82 5.84 1.82C7 1.82 8.02 2.02 8.9 2.42C9.78 2.82 10.5267 3.41333 11.14 4.2L9.7 5.86C9.16667 5.18 8.57333 4.68667 7.92 4.38C7.28 4.06 6.52667 3.9 5.66 3.9C5.07333 3.9 4.59333 3.97333 4.22 4.12C3.84667 4.25333 3.56667 4.44 3.38 4.68C3.20667 4.92 3.12 5.19333 3.12 5.5C3.12 5.74 3.17333 5.96 3.28 6.16C3.38667 6.34667 3.58667 6.51333 3.88 6.66C4.18667 6.80667 4.62 6.94667 5.18 7.08L7.58 7.62C8.83333 7.9 9.73333 8.31333 10.28 8.86C10.84 9.39333 11.12 10.1067 11.12 11C11.12 11.8533 10.9 12.58 10.46 13.18C10.02 13.78 9.4 14.24 8.6 14.56C7.81333 14.8667 6.90667 15.02 5.88 15.02ZM4.94 16.88V0H6.8V16.88H4.94Z" fill="#F15A4F"/>
</svg>
