<svg width="296" height="50" viewBox="0 0 296 50" fill="none" xmlns="http://www.w3.org/2000/svg">
<path d="M0 0H296V50H0V0Z" fill="white"/>
<path d="M90.0689 33.1998C89.0556 33.1998 88.1289 33.0198 87.2889 32.6598C86.4623 32.2998 85.7889 31.7931 85.2689 31.1398L86.8489 29.5398C87.1689 30.0198 87.5956 30.4131 88.1289 30.7198C88.6623 31.0265 89.2956 31.1798 90.0289 31.1798C90.5489 31.1798 90.9623 31.1065 91.2689 30.9598C91.5889 30.7998 91.7489 30.5531 91.7489 30.2198C91.7489 30.0065 91.6756 29.8265 91.5289 29.6798C91.3823 29.5198 91.0889 29.3931 90.6489 29.2998L88.8889 28.9398C87.7289 28.6998 86.9023 28.3398 86.4089 27.8598C85.9289 27.3665 85.6889 26.7331 85.6889 25.9598C85.6889 25.4131 85.8489 24.8998 86.1689 24.4198C86.5023 23.9398 86.9956 23.5531 87.6489 23.2598C88.3023 22.9531 89.1156 22.7998 90.0889 22.7998C91.0889 22.7998 91.9556 22.9598 92.6889 23.2798C93.4356 23.5865 94.0223 24.0465 94.4489 24.6598L92.8089 26.2598C92.5156 25.7931 92.1289 25.4398 91.6489 25.1998C91.1823 24.9465 90.6889 24.8198 90.1689 24.8198C89.7956 24.8198 89.4756 24.8598 89.2089 24.9398C88.9423 25.0198 88.7423 25.1331 88.6089 25.2798C88.4756 25.4131 88.4089 25.5865 88.4089 25.7998C88.4089 26.0131 88.5023 26.1998 88.6889 26.3598C88.8756 26.5065 89.2156 26.6331 89.7089 26.7398L91.7489 27.1598C92.7356 27.3598 93.4423 27.6998 93.8689 28.1798C94.2956 28.6465 94.5089 29.2131 94.5089 29.8798C94.5089 30.5198 94.3356 31.0931 93.9889 31.5998C93.6556 32.0931 93.1556 32.4865 92.4889 32.7798C91.8356 33.0598 91.0289 33.1998 90.0689 33.1998Z" fill="black"/>
<path d="M79.1269 33.1998C78.0735 33.1998 77.1535 32.9931 76.3669 32.5798C75.5935 32.1665 74.9935 31.5731 74.5669 30.7998C74.1402 30.0265 73.9269 29.0931 73.9269 27.9998C73.9269 26.9065 74.1402 25.9731 74.5669 25.1998C74.9935 24.4265 75.5869 23.8331 76.3469 23.4198C77.1202 23.0065 78.0002 22.7998 78.9869 22.7998C80.0002 22.7998 80.8602 23.0065 81.5669 23.4198C82.2735 23.8198 82.8135 24.3731 83.1869 25.0798C83.5602 25.7731 83.7469 26.5665 83.7469 27.4598C83.7469 27.7265 83.7402 27.9798 83.7269 28.2198C83.7135 28.4598 83.6935 28.6731 83.6669 28.8598H75.6869V26.9598H82.4669L81.1469 27.4398C81.1469 26.5998 80.9535 25.9531 80.5669 25.4998C80.1935 25.0465 79.6602 24.8198 78.9669 24.8198C78.4602 24.8198 78.0202 24.9398 77.6469 25.1798C77.2869 25.4198 77.0135 25.7798 76.8269 26.2598C76.6402 26.7265 76.5469 27.3198 76.5469 28.0398C76.5469 28.7465 76.6469 29.3331 76.8469 29.7998C77.0602 30.2531 77.3535 30.5931 77.7269 30.8198C78.1135 31.0465 78.5735 31.1598 79.1069 31.1598C79.6935 31.1598 80.1669 31.0465 80.5269 30.8198C80.8869 30.5931 81.1669 30.2798 81.3669 29.8798L83.5469 30.7198C83.3335 31.2398 83.0069 31.6865 82.5669 32.0598C82.1402 32.4331 81.6269 32.7198 81.0269 32.9198C80.4402 33.1065 79.8069 33.1998 79.1269 33.1998Z" fill="black"/>
<path d="M62.104 33.0001V18.6201H64.844V24.7001C65.164 24.0601 65.604 23.5868 66.164 23.2801C66.724 22.9601 67.3573 22.8001 68.064 22.8001C68.7573 22.8001 69.3707 22.9335 69.904 23.2001C70.4507 23.4668 70.8773 23.8735 71.184 24.4201C71.504 24.9535 71.664 25.6268 71.664 26.4401V33.0001H68.924V27.2401C68.924 26.3735 68.7573 25.7801 68.424 25.4601C68.0907 25.1268 67.664 24.9601 67.144 24.9601C66.7573 24.9601 66.384 25.0535 66.024 25.2401C65.6773 25.4135 65.3907 25.7068 65.164 26.1201C64.9507 26.5201 64.844 27.0535 64.844 27.7201V33.0001H62.104Z" fill="black"/>
<path d="M56.8941 19.9399V29.7399C56.8941 30.2199 57.0141 30.5733 57.2541 30.7999C57.5074 31.0133 57.8474 31.1199 58.2741 31.1199C58.6074 31.1199 58.9008 31.0733 59.1541 30.9799C59.4074 30.8733 59.6341 30.7333 59.8341 30.5599L60.2741 32.3799C59.9541 32.6333 59.5541 32.8333 59.0741 32.9799C58.5941 33.1266 58.0874 33.1999 57.5541 33.1999C56.8874 33.1999 56.2941 33.0999 55.7741 32.8999C55.2674 32.6999 54.8674 32.3799 54.5741 31.9399C54.2941 31.4999 54.1541 30.9133 54.1541 30.1799V20.6999L56.8941 19.9399ZM60.0941 22.9999V25.0399H52.3141V22.9999H60.0941Z" fill="black"/>
<path d="M46.0391 22.7998C47.0524 22.7998 47.9391 23.0065 48.6991 23.4198C49.4724 23.8331 50.0724 24.4265 50.4991 25.1998C50.9391 25.9731 51.1591 26.9065 51.1591 27.9998C51.1591 29.0798 50.9391 30.0131 50.4991 30.7998C50.0724 31.5731 49.4724 32.1665 48.6991 32.5798C47.9391 32.9931 47.0524 33.1998 46.0391 33.1998C45.0391 33.1998 44.1524 32.9931 43.3791 32.5798C42.6057 32.1665 41.9991 31.5731 41.5591 30.7998C41.1324 30.0131 40.9191 29.0798 40.9191 27.9998C40.9191 26.9065 41.1324 25.9731 41.5591 25.1998C41.9991 24.4265 42.6057 23.8331 43.3791 23.4198C44.1524 23.0065 45.0391 22.7998 46.0391 22.7998ZM46.0391 24.8398C45.5324 24.8398 45.0991 24.9598 44.7391 25.1998C44.3924 25.4265 44.1257 25.7731 43.9391 26.2398C43.7524 26.7065 43.6591 27.2931 43.6591 27.9998C43.6591 28.7065 43.7524 29.2931 43.9391 29.7598C44.1257 30.2265 44.3924 30.5798 44.7391 30.8198C45.0991 31.0465 45.5324 31.1598 46.0391 31.1598C46.5324 31.1598 46.9524 31.0465 47.2991 30.8198C47.6591 30.5798 47.9324 30.2265 48.1191 29.7598C48.3057 29.2931 48.3991 28.7065 48.3991 27.9998C48.3991 27.2931 48.3057 26.7065 48.1191 26.2398C47.9324 25.7731 47.6591 25.4265 47.2991 25.1998C46.9524 24.9598 46.5324 24.8398 46.0391 24.8398Z" fill="black"/>
<path d="M37.7924 18.6201V29.9201C37.7924 30.3868 37.8724 30.7135 38.0324 30.9001C38.1924 31.0868 38.459 31.1801 38.8324 31.1801C39.059 31.1801 39.2457 31.1668 39.3924 31.1401C39.539 31.1001 39.7257 31.0468 39.9524 30.9801L39.7124 32.7801C39.4857 32.9135 39.199 33.0135 38.8524 33.0801C38.519 33.1601 38.1857 33.2001 37.8524 33.2001C36.879 33.2001 36.1657 32.9668 35.7124 32.5001C35.2724 32.0201 35.0524 31.2601 35.0524 30.2201V18.6201H37.7924Z" fill="black"/>
<path d="M33.0201 29.3601C32.7667 30.2134 32.3667 30.9268 31.8201 31.5001C31.2734 32.0734 30.6267 32.5001 29.8801 32.7801C29.1334 33.0601 28.3134 33.2001 27.4201 33.2001C26.1134 33.2001 24.9801 32.9268 24.0201 32.3801C23.0734 31.8334 22.3401 31.0534 21.8201 30.0401C21.3134 29.0268 21.0601 27.8134 21.0601 26.4001C21.0601 24.9868 21.3134 23.7734 21.8201 22.7601C22.3401 21.7468 23.0734 20.9668 24.0201 20.4201C24.9801 19.8734 26.1001 19.6001 27.3801 19.6001C28.2867 19.6001 29.1067 19.7268 29.8401 19.9801C30.5734 20.2201 31.1934 20.5934 31.7001 21.1001C32.2201 21.6068 32.6001 22.2468 32.8401 23.0201L30.3401 24.0801C30.1134 23.2801 29.7667 22.7134 29.3001 22.3801C28.8334 22.0334 28.2334 21.8601 27.5001 21.8601C26.7801 21.8601 26.1467 22.0334 25.6001 22.3801C25.0667 22.7268 24.6534 23.2401 24.3601 23.9201C24.0667 24.5868 23.9201 25.4134 23.9201 26.4001C23.9201 27.3734 24.0534 28.2001 24.3201 28.8801C24.6001 29.5601 25.0067 30.0734 25.5401 30.4201C26.0734 30.7668 26.7267 30.9401 27.5001 30.9401C28.2201 30.9401 28.8401 30.7468 29.3601 30.3601C29.8934 29.9734 30.2667 29.3868 30.4801 28.6001L33.0201 29.3601Z" fill="black"/>
</svg>
