<svg width="49" height="15" viewBox="0 0 49 15" fill="none" xmlns="http://www.w3.org/2000/svg">
<path d="M47.8817 1.5L48.1217 2.97C48.0817 2.97 48.0367 2.97 47.9867 2.97C47.9467 2.96 47.9017 2.955 47.8517 2.955C47.3917 2.955 47.0467 3.06 46.8167 3.27C46.5867 3.47 46.4717 3.75 46.4717 4.11L45.6317 3.765C45.6317 3.365 45.7118 2.995 45.8717 2.655C46.0317 2.305 46.2667 2.025 46.5767 1.815C46.8967 1.605 47.2768 1.5 47.7168 1.5C47.7368 1.5 47.7617 1.5 47.7917 1.5C47.8217 1.5 47.8517 1.5 47.8817 1.5ZM45.4217 9.375C46.2317 9.375 46.8567 9.55 47.2967 9.9C47.7367 10.25 47.9567 10.74 47.9567 11.37C47.9567 11.94 47.7918 12.42 47.4618 12.81C47.1318 13.21 46.6667 13.51 46.0667 13.71C45.4767 13.91 44.7917 14.01 44.0117 14.01C42.7217 14.01 41.7768 13.83 41.1768 13.47C40.5868 13.11 40.2917 12.64 40.2917 12.06C40.2917 11.65 40.4467 11.305 40.7567 11.025C41.0767 10.745 41.6017 10.59 42.3317 10.56L42.2567 10.8C41.7367 10.71 41.3367 10.54 41.0567 10.29C40.7867 10.03 40.6517 9.675 40.6517 9.225C40.6517 8.765 40.8268 8.39 41.1768 8.1C41.5368 7.8 42.0217 7.625 42.6317 7.575L43.5317 7.995H43.3218C42.8918 8.025 42.5867 8.115 42.4067 8.265C42.2367 8.405 42.1517 8.565 42.1517 8.745C42.1517 8.955 42.2318 9.115 42.3918 9.225C42.5618 9.325 42.8017 9.375 43.1117 9.375H45.4217ZM44.0267 12.6C44.5467 12.6 44.9717 12.555 45.3018 12.465C45.6417 12.375 45.8918 12.26 46.0518 12.12C46.2218 11.98 46.3068 11.825 46.3068 11.655C46.3068 11.465 46.2317 11.31 46.0817 11.19C45.9317 11.08 45.6618 11.025 45.2718 11.025H42.7367C42.4967 11.025 42.2967 11.085 42.1367 11.205C41.9867 11.325 41.9118 11.49 41.9118 11.7C41.9118 11.98 42.0968 12.2 42.4668 12.36C42.8468 12.52 43.3667 12.6 44.0267 12.6ZM44.0417 3.135C44.7417 3.135 45.3468 3.24 45.8568 3.45C46.3768 3.65 46.7717 3.94 47.0417 4.32C47.3217 4.7 47.4618 5.155 47.4618 5.685C47.4618 6.205 47.3217 6.655 47.0417 7.035C46.7717 7.415 46.3768 7.71 45.8568 7.92C45.3468 8.12 44.7417 8.22 44.0417 8.22C42.9317 8.22 42.0817 7.995 41.4917 7.545C40.9117 7.085 40.6217 6.465 40.6217 5.685C40.6217 5.155 40.7567 4.7 41.0267 4.32C41.3067 3.94 41.7018 3.65 42.2118 3.45C42.7218 3.24 43.3317 3.135 44.0417 3.135ZM44.0417 4.425C43.6417 4.425 43.3118 4.535 43.0518 4.755C42.7918 4.975 42.6618 5.28 42.6618 5.67C42.6618 6.06 42.7918 6.37 43.0518 6.6C43.3118 6.82 43.6417 6.93 44.0417 6.93C44.4417 6.93 44.7668 6.82 45.0168 6.6C45.2768 6.37 45.4067 6.06 45.4067 5.67C45.4067 5.28 45.2768 4.975 45.0168 4.755C44.7668 4.535 44.4417 4.425 44.0417 4.425Z" fill="black"/>
<path d="M31.6797 10.785V3.28501H33.5247L33.6447 5.53501L33.3897 5.29501C33.5097 4.80501 33.6997 4.40001 33.9597 4.08001C34.2197 3.76001 34.5347 3.52501 34.9047 3.37501C35.2847 3.21501 35.6997 3.13501 36.1497 3.13501C36.6697 3.13501 37.1297 3.23501 37.5297 3.43501C37.9397 3.63501 38.2597 3.94001 38.4897 4.35001C38.7297 4.75001 38.8497 5.25501 38.8497 5.86501V10.785H36.7947V6.45001C36.7947 5.81001 36.6697 5.37001 36.4197 5.13001C36.1697 4.88001 35.8447 4.75501 35.4447 4.75501C35.1647 4.75501 34.8897 4.82501 34.6197 4.96501C34.3597 5.09501 34.1447 5.31001 33.9747 5.61001C33.8147 5.91001 33.7347 6.31001 33.7347 6.81001V10.785H31.6797Z" fill="black"/>
<path d="M28.4812 2.205C28.0512 2.205 27.7312 2.115 27.5212 1.935C27.3112 1.745 27.2062 1.47 27.2062 1.11C27.2062 0.74 27.3112 0.465 27.5212 0.285C27.7312 0.0949999 28.0512 0 28.4812 0C28.9112 0 29.2312 0.0949999 29.4412 0.285C29.6512 0.465 29.7562 0.74 29.7562 1.11C29.7562 1.47 29.6512 1.745 29.4412 1.935C29.2312 2.115 28.9112 2.205 28.4812 2.205ZM29.5012 3.285V10.785H27.4462V3.285H29.5012Z" fill="black"/>
<path d="M23.6559 0.98999V8.33999C23.6559 8.69999 23.7459 8.96499 23.9259 9.13499C24.1159 9.29499 24.3709 9.37499 24.6909 9.37499C24.9409 9.37499 25.1609 9.33999 25.3509 9.26999C25.5409 9.18999 25.7109 9.08499 25.8609 8.95499L26.1909 10.32C25.9509 10.51 25.6509 10.66 25.2909 10.77C24.9309 10.88 24.5509 10.935 24.1509 10.935C23.6509 10.935 23.2059 10.86 22.8159 10.71C22.4359 10.56 22.1359 10.32 21.9159 9.98999C21.7059 9.65999 21.6009 9.21999 21.6009 8.66999V1.55999L23.6559 0.98999ZM26.0559 3.28499V4.81499H20.2209V3.28499H26.0559Z" fill="black"/>
<path d="M16.0321 10.935C15.2721 10.935 14.5771 10.8 13.9471 10.53C13.3271 10.26 12.8221 9.88001 12.4321 9.39001L13.6171 8.19001C13.8571 8.55001 14.1771 8.84501 14.5771 9.07501C14.9771 9.30501 15.4521 9.42001 16.0021 9.42001C16.3921 9.42001 16.7021 9.36501 16.9321 9.25501C17.1721 9.13501 17.2921 8.95001 17.2921 8.70001C17.2921 8.54001 17.2371 8.40501 17.1271 8.29501C17.0171 8.17501 16.7971 8.08001 16.4671 8.01001L15.1471 7.74001C14.2771 7.56001 13.6571 7.29001 13.2871 6.93001C12.9271 6.56001 12.7471 6.08501 12.7471 5.50501C12.7471 5.09501 12.8671 4.71001 13.1071 4.35001C13.3571 3.99001 13.7271 3.70001 14.2171 3.48001C14.7071 3.25001 15.3171 3.13501 16.0471 3.13501C16.7971 3.13501 17.4471 3.25501 17.9971 3.49501C18.5571 3.72501 18.9971 4.07001 19.3171 4.53001L18.0871 5.73001C17.8671 5.38001 17.5771 5.11501 17.2171 4.93501C16.8671 4.74501 16.4971 4.65001 16.1071 4.65001C15.8271 4.65001 15.5871 4.68001 15.3871 4.74001C15.1871 4.80001 15.0371 4.88501 14.9371 4.99501C14.8371 5.09501 14.7871 5.22501 14.7871 5.38501C14.7871 5.54501 14.8571 5.68501 14.9971 5.80501C15.1371 5.91501 15.3921 6.01001 15.7621 6.09001L17.2921 6.40501C18.0321 6.55501 18.5621 6.81001 18.8821 7.17001C19.2021 7.52001 19.3621 7.94501 19.3621 8.44501C19.3621 8.92501 19.2321 9.35501 18.9721 9.73501C18.7221 10.105 18.3471 10.4 17.8471 10.62C17.3571 10.83 16.7521 10.935 16.0321 10.935Z" fill="black"/>
<path d="M9.83372 2.205C9.40372 2.205 9.08372 2.115 8.87372 1.935C8.66372 1.745 8.55872 1.47 8.55872 1.11C8.55872 0.74 8.66372 0.465 8.87372 0.285C9.08372 0.0949999 9.40372 0 9.83372 0C10.2637 0 10.5837 0.0949999 10.7937 0.285C11.0037 0.465 11.1087 0.74 11.1087 1.11C11.1087 1.47 11.0037 1.745 10.7937 1.935C10.5837 2.115 10.2637 2.205 9.83372 2.205ZM10.8537 3.285V10.785H8.79872V3.285H10.8537Z" fill="black"/>
<path d="M2.07 9.12001H7.29V10.785H0V0.88501H2.07V9.12001Z" fill="black"/>
</svg>
