<svg width="69" height="15" viewBox="0 0 69 15" fill="none" xmlns="http://www.w3.org/2000/svg">
<path d="M68.8709 2.71973L65.6389 11.2157C65.3829 11.9411 65.0949 12.5171 64.7749 12.9437C64.4655 13.3704 64.1029 13.6797 63.6869 13.8717C63.2815 14.0637 62.7962 14.1597 62.2309 14.1597C61.8149 14.1597 61.4309 14.1064 61.0789 13.9997C60.7375 13.9037 60.4389 13.7757 60.1829 13.6157L60.6469 12.0317C60.8495 12.1917 61.0629 12.3037 61.2869 12.3677C61.5109 12.4424 61.7669 12.4797 62.0549 12.4797C62.3535 12.4797 62.6095 12.4157 62.8229 12.2877C63.0469 12.1597 63.2335 11.9037 63.3829 11.5197L63.6549 10.8317L62.7749 8.75173L60.3269 2.71973H62.7589L64.2789 7.51973L64.6949 9.11973L65.1909 7.42373L66.6469 2.71973H68.8709Z" fill="black"/>
<path d="M54.6008 10.7196V2.71957H56.5048L56.6488 4.28757C56.8622 3.7329 57.1715 3.30624 57.5768 3.00757C57.9928 2.7089 58.5102 2.55957 59.1288 2.55957C59.3102 2.55957 59.4755 2.57557 59.6248 2.60757C59.7742 2.63957 59.8968 2.68224 59.9928 2.73557L59.7368 4.57557C59.6302 4.5329 59.4968 4.5009 59.3368 4.47957C59.1875 4.45824 58.9902 4.44757 58.7448 4.44757C58.4248 4.44757 58.1155 4.52757 57.8168 4.68757C57.5182 4.8369 57.2728 5.07157 57.0808 5.39157C56.8888 5.7009 56.7928 6.09557 56.7928 6.57557V10.7196H54.6008Z" fill="black"/>
<path d="M48.6707 2.55957C49.4814 2.55957 50.1907 2.7249 50.7987 3.05557C51.4174 3.38624 51.8974 3.8609 52.2387 4.47957C52.5907 5.09824 52.7667 5.8449 52.7667 6.71957C52.7667 7.58357 52.5907 8.33024 52.2387 8.95957C51.8974 9.57824 51.4174 10.0529 50.7987 10.3836C50.1907 10.7142 49.4814 10.8796 48.6707 10.8796C47.8707 10.8796 47.1614 10.7142 46.5427 10.3836C45.924 10.0529 45.4387 9.57824 45.0867 8.95957C44.7454 8.33024 44.5747 7.58357 44.5747 6.71957C44.5747 5.8449 44.7454 5.09824 45.0867 4.47957C45.4387 3.8609 45.924 3.38624 46.5427 3.05557C47.1614 2.7249 47.8707 2.55957 48.6707 2.55957ZM48.6707 4.19157C48.2654 4.19157 47.9187 4.28757 47.6307 4.47957C47.3534 4.6609 47.14 4.93824 46.9907 5.31157C46.8414 5.6849 46.7667 6.15424 46.7667 6.71957C46.7667 7.2849 46.8414 7.75424 46.9907 8.12757C47.14 8.5009 47.3534 8.78357 47.6307 8.97557C47.9187 9.1569 48.2654 9.24757 48.6707 9.24757C49.0654 9.24757 49.4014 9.1569 49.6787 8.97557C49.9667 8.78357 50.1854 8.5009 50.3347 8.12757C50.484 7.75424 50.5587 7.2849 50.5587 6.71957C50.5587 6.15424 50.484 5.6849 50.3347 5.31157C50.1854 4.93824 49.9667 4.6609 49.6787 4.47957C49.4014 4.28757 49.0654 4.19157 48.6707 4.19157Z" fill="black"/>
<path d="M43.6175 0.815918L43.8735 2.38392C43.8308 2.38392 43.7828 2.38392 43.7295 2.38392C43.6868 2.37325 43.6388 2.36792 43.5855 2.36792C43.0948 2.36792 42.7268 2.47992 42.4815 2.70392C42.2362 2.91725 42.1135 3.21592 42.1135 3.59992L41.2175 3.23192C41.2175 2.80525 41.3028 2.41058 41.4735 2.04792C41.6442 1.67458 41.8948 1.37592 42.2255 1.15192C42.5668 0.927918 42.9722 0.815918 43.4415 0.815918C43.4628 0.815918 43.4895 0.815918 43.5215 0.815918C43.5535 0.815918 43.5855 0.815918 43.6175 0.815918ZM40.9935 9.21592C41.8575 9.21592 42.5242 9.40259 42.9935 9.77592C43.4628 10.1493 43.6975 10.6719 43.6975 11.3439C43.6975 11.9519 43.5215 12.4639 43.1695 12.8799C42.8175 13.3066 42.3215 13.6266 41.6815 13.8399C41.0522 14.0533 40.3215 14.1599 39.4895 14.1599C38.1135 14.1599 37.1055 13.9679 36.4655 13.5839C35.8362 13.1999 35.5215 12.6986 35.5215 12.0799C35.5215 11.6426 35.6868 11.2746 36.0175 10.9759C36.3588 10.6773 36.9188 10.5119 37.6975 10.4799L37.6175 10.7359C37.0628 10.6399 36.6362 10.4586 36.3375 10.1919C36.0495 9.91459 35.9055 9.53592 35.9055 9.05592C35.9055 8.56525 36.0922 8.16525 36.4655 7.85592C36.8495 7.53592 37.3668 7.34925 38.0175 7.29592L38.9775 7.74392H38.7535C38.2948 7.77592 37.9695 7.87192 37.7775 8.03192C37.5962 8.18125 37.5055 8.35192 37.5055 8.54392C37.5055 8.76792 37.5908 8.93859 37.7615 9.05592C37.9428 9.16259 38.1988 9.21592 38.5295 9.21592H40.9935ZM39.5055 12.6559C40.0602 12.6559 40.5135 12.6079 40.8655 12.5119C41.2282 12.4159 41.4948 12.2933 41.6655 12.1439C41.8468 11.9946 41.9375 11.8293 41.9375 11.6479C41.9375 11.4453 41.8575 11.2799 41.6975 11.1519C41.5375 11.0346 41.2495 10.9759 40.8335 10.9759H38.1295C37.8735 10.9759 37.6602 11.0399 37.4895 11.1679C37.3295 11.2959 37.2495 11.4719 37.2495 11.6959C37.2495 11.9946 37.4468 12.2293 37.8415 12.3999C38.2468 12.5706 38.8015 12.6559 39.5055 12.6559ZM39.5215 2.55992C40.2682 2.55992 40.9135 2.67192 41.4575 2.89592C42.0122 3.10925 42.4335 3.41858 42.7215 3.82392C43.0202 4.22925 43.1695 4.71458 43.1695 5.27992C43.1695 5.83458 43.0202 6.31458 42.7215 6.71992C42.4335 7.12525 42.0122 7.43992 41.4575 7.66392C40.9135 7.87725 40.2682 7.98392 39.5215 7.98392C38.3375 7.98392 37.4308 7.74392 36.8015 7.26392C36.1828 6.77325 35.8735 6.11192 35.8735 5.27992C35.8735 4.71458 36.0175 4.22925 36.3055 3.82392C36.6042 3.41858 37.0255 3.10925 37.5695 2.89592C38.1135 2.67192 38.7642 2.55992 39.5215 2.55992ZM39.5215 3.93592C39.0948 3.93592 38.7428 4.05325 38.4655 4.28792C38.1882 4.52258 38.0495 4.84792 38.0495 5.26392C38.0495 5.67992 38.1882 6.01058 38.4655 6.25592C38.7428 6.49058 39.0948 6.60792 39.5215 6.60792C39.9482 6.60792 40.2948 6.49058 40.5615 6.25592C40.8388 6.01058 40.9775 5.67992 40.9775 5.26392C40.9775 4.84792 40.8388 4.52258 40.5615 4.28792C40.2948 4.05325 39.9482 3.93592 39.5215 3.93592Z" fill="black"/>
<path d="M30.6878 10.8796C29.8452 10.8796 29.1092 10.7142 28.4798 10.3836C27.8612 10.0529 27.3812 9.57824 27.0398 8.95957C26.6985 8.3409 26.5278 7.59424 26.5278 6.71957C26.5278 5.8449 26.6985 5.09824 27.0398 4.47957C27.3812 3.8609 27.8558 3.38624 28.4638 3.05557C29.0825 2.7249 29.7865 2.55957 30.5758 2.55957C31.3865 2.55957 32.0745 2.7249 32.6398 3.05557C33.2052 3.37557 33.6372 3.81824 33.9358 4.38357C34.2345 4.93824 34.3838 5.5729 34.3838 6.28757C34.3838 6.5009 34.3785 6.70357 34.3678 6.89557C34.3572 7.08757 34.3412 7.25824 34.3198 7.40757H27.9358V5.88757H33.3598L32.3038 6.27157C32.3038 5.59957 32.1492 5.08224 31.8398 4.71957C31.5412 4.3569 31.1145 4.17557 30.5598 4.17557C30.1545 4.17557 29.8025 4.27157 29.5038 4.46357C29.2158 4.65557 28.9972 4.94357 28.8478 5.32757C28.6985 5.7009 28.6238 6.17557 28.6238 6.75157C28.6238 7.3169 28.7038 7.78624 28.8638 8.15957C29.0345 8.52224 29.2692 8.79424 29.5678 8.97557C29.8772 9.1569 30.2452 9.24757 30.6718 9.24757C31.1412 9.24757 31.5198 9.1569 31.8078 8.97557C32.0958 8.79424 32.3198 8.54357 32.4798 8.22357L34.2238 8.89557C34.0532 9.31157 33.7918 9.6689 33.4398 9.96757C33.0985 10.2662 32.6878 10.4956 32.2078 10.6556C31.7385 10.8049 31.2318 10.8796 30.6878 10.8796Z" fill="black"/>
<path d="M22.9329 0.271484V8.11149C22.9329 8.49549 23.0289 8.77815 23.2209 8.95949C23.4236 9.13015 23.6956 9.21549 24.0369 9.21549C24.3036 9.21549 24.5383 9.17815 24.7409 9.10349C24.9436 9.01815 25.1249 8.90615 25.2849 8.76749L25.6369 10.2235C25.3809 10.4262 25.0609 10.5862 24.6769 10.7035C24.2929 10.8208 23.8876 10.8795 23.4609 10.8795C22.9276 10.8795 22.4529 10.7995 22.0369 10.6395C21.6316 10.4795 21.3116 10.2235 21.0769 9.87149C20.8529 9.51949 20.7409 9.05015 20.7409 8.46349V0.879485L22.9329 0.271484ZM25.4929 2.71949V4.35148H19.2689V2.71949H25.4929Z" fill="black"/>
<path d="M15.7858 5.61557C15.7858 5.1569 15.6525 4.79957 15.3858 4.54357C15.1298 4.28757 14.7885 4.15957 14.3618 4.15957C13.9672 4.15957 13.6205 4.2609 13.3218 4.46357C13.0232 4.66624 12.8045 5.00224 12.6658 5.47157L10.7938 4.89557C10.9752 4.19157 11.3698 3.62624 11.9778 3.19957C12.5965 2.7729 13.4232 2.55957 14.4578 2.55957C15.1618 2.55957 15.7752 2.67157 16.2978 2.89557C16.8205 3.1089 17.2258 3.43424 17.5138 3.87157C17.8125 4.3089 17.9618 4.85824 17.9618 5.51957V8.76757C17.9618 9.1729 18.1538 9.37557 18.5378 9.37557C18.7192 9.37557 18.8898 9.3489 19.0498 9.29557L18.9218 10.6556C18.6445 10.7942 18.2978 10.8636 17.8818 10.8636C17.5085 10.8636 17.1725 10.7996 16.8738 10.6716C16.5752 10.5436 16.3405 10.3516 16.1698 10.0956C15.9992 9.8289 15.9138 9.49824 15.9138 9.10357V9.03957L16.2978 8.97557C16.2338 9.3809 16.0578 9.72757 15.7698 10.0156C15.4818 10.2929 15.1298 10.5062 14.7138 10.6556C14.3085 10.8049 13.8872 10.8796 13.4498 10.8796C12.9058 10.8796 12.4365 10.7996 12.0418 10.6396C11.6472 10.4689 11.3432 10.2236 11.1298 9.90357C10.9165 9.58357 10.8098 9.1889 10.8098 8.71957C10.8098 8.12224 11.0018 7.6369 11.3858 7.26357C11.7698 6.87957 12.3192 6.61824 13.0338 6.47957L16.0418 5.87157L16.0258 7.23157L14.1058 7.61557C13.7432 7.69024 13.4658 7.79157 13.2738 7.91957C13.0925 8.0369 13.0018 8.23424 13.0018 8.51157C13.0018 8.77824 13.0978 8.9809 13.2898 9.11957C13.4925 9.25824 13.7325 9.32757 14.0098 9.32757C14.2338 9.32757 14.4525 9.3009 14.6658 9.24757C14.8792 9.19424 15.0712 9.1089 15.2418 8.99157C15.4125 8.87424 15.5458 8.71424 15.6418 8.51157C15.7378 8.3089 15.7858 8.06357 15.7858 7.77557V5.61557Z" fill="black"/>
<path d="M9.568 7.808C9.36533 8.49067 9.04533 9.06133 8.608 9.52C8.17067 9.97867 7.65333 10.32 7.056 10.544C6.45867 10.768 5.80267 10.88 5.088 10.88C4.04267 10.88 3.136 10.6613 2.368 10.224C1.61067 9.78667 1.024 9.16267 0.608 8.352C0.202667 7.54133 0 6.57067 0 5.44C0 4.30933 0.202667 3.33867 0.608 2.528C1.024 1.71733 1.61067 1.09333 2.368 0.656C3.136 0.218667 4.032 0 5.056 0C5.78133 0 6.43733 0.101333 7.024 0.304C7.61067 0.496 8.10667 0.794667 8.512 1.2C8.928 1.60533 9.232 2.11733 9.424 2.736L7.424 3.584C7.24267 2.944 6.96533 2.49067 6.592 2.224C6.21867 1.94667 5.73867 1.808 5.152 1.808C4.576 1.808 4.06933 1.94667 3.632 2.224C3.20533 2.50133 2.87467 2.912 2.64 3.456C2.40533 3.98933 2.288 4.65067 2.288 5.44C2.288 6.21867 2.39467 6.88 2.608 7.424C2.832 7.968 3.15733 8.37867 3.584 8.656C4.01067 8.93333 4.53333 9.072 5.152 9.072C5.728 9.072 6.224 8.91733 6.64 8.608C7.06667 8.29867 7.36533 7.82933 7.536 7.2L9.568 7.808Z" fill="black"/>
</svg>
