<svg width="32" height="32" viewBox="0 0 32 32" fill="none" xmlns="http://www.w3.org/2000/svg">
<path d="M5.33335 26.6668C4.60002 26.6668 3.97224 26.4057 3.45002 25.8835C2.9278 25.3613 2.66669 24.7335 2.66669 24.0002V8.00016C2.66669 7.26683 2.9278 6.63905 3.45002 6.11683C3.97224 5.59461 4.60002 5.3335 5.33335 5.3335H26.6667C27.4 5.3335 28.0278 5.59461 28.55 6.11683C29.0722 6.63905 29.3334 7.26683 29.3334 8.00016V24.0002C29.3334 24.7335 29.0722 25.3613 28.55 25.8835C28.0278 26.4057 27.4 26.6668 26.6667 26.6668H5.33335ZM16 17.3335L5.33335 10.6668V24.0002H26.6667V10.6668L16 17.3335ZM16 14.6668L26.6667 8.00016H5.33335L16 14.6668ZM5.33335 10.6668V8.00016V24.0002V10.6668Z" fill="#FEF7FF"/>
</svg>
