<svg width="53" height="15" viewBox="0 0 53 15" fill="none" xmlns="http://www.w3.org/2000/svg">
<path d="M48.0576 14.7727C47.0065 14.7727 46.0998 14.5407 45.3375 14.0766C44.5799 13.6079 43.9951 12.9545 43.5832 12.1164C43.176 11.2736 42.9724 10.2935 42.9724 9.17608C42.9724 8.05866 43.176 7.07381 43.5832 6.22153C43.9951 5.36453 44.5681 4.69691 45.302 4.21869C46.0406 3.73574 46.9023 3.49426 47.8872 3.49426C48.4554 3.49426 49.0164 3.58896 49.5704 3.77835C50.1244 3.96775 50.6287 4.27551 51.0832 4.70165C51.5378 5.12305 51.9 5.68176 52.1699 6.37778C52.4397 7.07381 52.5747 7.93082 52.5747 8.94881V9.65903H44.1656V8.21017H50.8701C50.8701 7.59464 50.747 7.0454 50.5008 6.56244C50.2593 6.07949 49.9137 5.69833 49.4639 5.41898C49.0188 5.13962 48.4932 4.99994 47.8872 4.99994C47.2196 4.99994 46.6419 5.16566 46.1542 5.4971C45.6713 5.82381 45.2996 6.24994 45.0392 6.77551C44.7788 7.30108 44.6485 7.86453 44.6485 8.46585V9.43176C44.6485 10.2556 44.7906 10.954 45.0747 11.5269C45.3635 12.0951 45.7636 12.5284 46.275 12.8266C46.7863 13.1202 47.3806 13.267 48.0576 13.267C48.498 13.267 48.8957 13.2054 49.2508 13.0823C49.6107 12.9545 49.9208 12.7651 50.1812 12.5141C50.4416 12.2585 50.6429 11.9412 50.7849 11.5624L52.4042 12.017C52.2338 12.5662 51.9473 13.0492 51.5449 13.4659C51.1424 13.8778 50.6452 14.1998 50.0534 14.4318C49.4615 14.659 48.7963 14.7727 48.0576 14.7727Z" fill="black"/>
<path d="M26.1011 14.5454V3.63631H27.7204V5.34085H27.8624C28.0897 4.75847 28.4567 4.30629 28.9633 3.98432C29.4699 3.65761 30.0783 3.49426 30.7886 3.49426C31.5083 3.49426 32.1072 3.65761 32.5855 3.98432C33.0684 4.30629 33.4448 4.75847 33.7147 5.34085H33.8283C34.1077 4.77741 34.5267 4.32996 35.0855 3.99852C35.6442 3.66235 36.3141 3.49426 37.0954 3.49426C38.0708 3.49426 38.8686 3.79966 39.4889 4.41045C40.1091 5.01652 40.4193 5.96112 40.4193 7.24426V14.5454H38.7431V7.24426C38.7431 6.43934 38.523 5.86405 38.0826 5.51841C37.6423 5.17277 37.1238 4.99994 36.5272 4.99994C35.7602 4.99994 35.1659 5.23195 34.7445 5.69597C34.3231 6.15525 34.1124 6.73763 34.1124 7.44313V14.5454H32.4079V7.07381C32.4079 6.45354 32.2067 5.95402 31.8042 5.57523C31.4017 5.1917 30.8833 4.99994 30.2488 4.99994C29.8132 4.99994 29.406 5.11595 29.0272 5.34795C28.6532 5.57996 28.3501 5.90193 28.1181 6.31386C27.8908 6.72106 27.7772 7.19218 27.7772 7.72722V14.5454H26.1011Z" fill="black"/>
<path d="M18.0417 14.8011C17.3504 14.8011 16.723 14.6709 16.1596 14.4105C15.5961 14.1453 15.1487 13.7641 14.8172 13.267C14.4858 12.7651 14.3201 12.159 14.3201 11.4488C14.3201 10.8238 14.4432 10.3172 14.6894 9.92892C14.9356 9.53593 15.2647 9.22816 15.6766 9.00563C16.0885 8.78309 16.5431 8.61737 17.0402 8.50847C17.5421 8.39483 18.0464 8.30487 18.553 8.23858C19.2159 8.15335 19.7533 8.08943 20.1652 8.04682C20.5819 7.99947 20.8849 7.92135 21.0743 7.81244C21.2685 7.70354 21.3655 7.51415 21.3655 7.24426V7.18744C21.3655 6.48669 21.1738 5.94218 20.7902 5.55392C20.4115 5.16566 19.8362 4.97153 19.0644 4.97153C18.2642 4.97153 17.6368 5.14672 17.1823 5.4971C16.7277 5.84748 16.4081 6.22153 16.2235 6.61926L14.6326 6.05108C14.9167 5.3882 15.2954 4.8721 15.7689 4.50278C16.2472 4.12873 16.768 3.86831 17.3314 3.72153C17.8996 3.57002 18.4583 3.49426 19.0076 3.49426C19.3579 3.49426 19.7604 3.53688 20.215 3.6221C20.6742 3.7026 21.1169 3.87068 21.5431 4.12636C21.974 4.38205 22.3314 4.76794 22.6155 5.28403C22.8996 5.80013 23.0417 6.49142 23.0417 7.3579V14.5454H21.3655V13.0681H21.2803C21.1667 13.3049 20.9773 13.5582 20.7121 13.8281C20.447 14.098 20.0942 14.3276 19.6539 14.517C19.2135 14.7064 18.6761 14.8011 18.0417 14.8011ZM18.2973 13.2954C18.9602 13.2954 19.5189 13.1652 19.9735 12.9048C20.4328 12.6444 20.7784 12.3082 21.0104 11.8963C21.2472 11.4843 21.3655 11.0511 21.3655 10.5965V9.06244C21.2945 9.14767 21.1382 9.2258 20.8968 9.29682C20.66 9.36311 20.3854 9.42229 20.0729 9.47438C19.7651 9.52172 19.4645 9.56434 19.1709 9.60222C18.8821 9.63536 18.6477 9.66377 18.4678 9.68744C18.0322 9.74426 17.625 9.83659 17.2462 9.96443C16.8722 10.0875 16.5691 10.2746 16.3371 10.5255C16.1098 10.7717 15.9962 11.1079 15.9962 11.534C15.9962 12.1164 16.2116 12.5568 16.6425 12.8551C17.0781 13.1486 17.6297 13.2954 18.2973 13.2954Z" fill="black"/>
<path d="M11.5341 0V14.5455H9.82955L1.90341 3.125H1.76136V14.5455H0V0H1.70455L9.65909 11.4489H9.80114V0H11.5341Z" fill="black"/>
</svg>
