<svg width="296" height="50" viewBox="0 0 296 50" fill="none" xmlns="http://www.w3.org/2000/svg">
<path d="M0 0H296V50H0V0Z" fill="white"/>
<path d="M81.1431 33.2C80.1298 33.2 79.2031 33.02 78.3631 32.66C77.5365 32.3 76.8631 31.7934 76.3431 31.14L77.9231 29.54C78.2431 30.02 78.6698 30.4134 79.2031 30.72C79.7365 31.0267 80.3698 31.18 81.1031 31.18C81.6231 31.18 82.0365 31.1067 82.3431 30.96C82.6631 30.8 82.8231 30.5534 82.8231 30.22C82.8231 30.0067 82.7498 29.8267 82.6031 29.68C82.4565 29.5201 82.1631 29.3934 81.7231 29.3L79.9631 28.94C78.8031 28.7 77.9765 28.34 77.4831 27.86C77.0031 27.3667 76.7631 26.7334 76.7631 25.96C76.7631 25.4134 76.9231 24.9 77.2431 24.42C77.5765 23.94 78.0698 23.5534 78.7231 23.26C79.3765 22.9534 80.1898 22.8 81.1631 22.8C82.1631 22.8 83.0298 22.96 83.7631 23.28C84.5098 23.5867 85.0965 24.0467 85.5231 24.66L83.8831 26.26C83.5898 25.7934 83.2031 25.44 82.7231 25.2C82.2565 24.9467 81.7631 24.82 81.2431 24.82C80.8698 24.82 80.5498 24.86 80.2831 24.94C80.0165 25.02 79.8165 25.1334 79.6831 25.28C79.5498 25.4134 79.4831 25.5867 79.4831 25.8C79.4831 26.0134 79.5765 26.2 79.7631 26.36C79.9498 26.5067 80.2898 26.6334 80.7831 26.74L82.8231 27.16C83.8098 27.36 84.5165 27.7 84.9431 28.18C85.3698 28.6467 85.5831 29.2134 85.5831 29.88C85.5831 30.52 85.4098 31.0934 85.0631 31.6C84.7298 32.0934 84.2298 32.4867 83.5631 32.78C82.9098 33.06 82.1031 33.2 81.1431 33.2Z" fill="black"/>
<path d="M68.979 33V23H71.359L71.539 24.96C71.8057 24.2667 72.1923 23.7334 72.699 23.36C73.219 22.9867 73.8657 22.8 74.639 22.8C74.8657 22.8 75.0723 22.82 75.259 22.86C75.4457 22.9 75.599 22.9534 75.719 23.02L75.399 25.32C75.2657 25.2667 75.099 25.2267 74.899 25.2C74.7123 25.1734 74.4657 25.16 74.159 25.16C73.759 25.16 73.3723 25.26 72.999 25.46C72.6257 25.6467 72.319 25.94 72.079 26.34C71.839 26.7267 71.719 27.22 71.719 27.82V33H68.979Z" fill="black"/>
<path d="M62.037 33.2C60.9837 33.2 60.0637 32.9934 59.277 32.58C58.5037 32.1667 57.9037 31.5734 57.477 30.8C57.0504 30.0267 56.837 29.0934 56.837 28C56.837 26.9067 57.0504 25.9734 57.477 25.2C57.9037 24.4267 58.497 23.8334 59.257 23.42C60.0304 23.0067 60.9104 22.8 61.897 22.8C62.9104 22.8 63.7704 23.0067 64.477 23.42C65.1837 23.82 65.7237 24.3734 66.097 25.08C66.4704 25.7734 66.657 26.5667 66.657 27.46C66.657 27.7267 66.6504 27.9801 66.637 28.22C66.6237 28.46 66.6037 28.6734 66.577 28.86H58.597V26.96H65.377L64.057 27.44C64.057 26.6 63.8637 25.9534 63.477 25.5C63.1037 25.0467 62.5704 24.82 61.877 24.82C61.3704 24.82 60.9304 24.94 60.557 25.18C60.197 25.42 59.9237 25.78 59.737 26.26C59.5504 26.7267 59.457 27.32 59.457 28.04C59.457 28.7467 59.557 29.3334 59.757 29.8C59.9704 30.2534 60.2637 30.5934 60.637 30.82C61.0237 31.0467 61.4837 31.16 62.017 31.16C62.6037 31.16 63.077 31.0467 63.437 30.82C63.797 30.5934 64.077 30.28 64.277 29.88L66.457 30.72C66.2437 31.2401 65.917 31.6867 65.477 32.0601C65.0504 32.4334 64.537 32.72 63.937 32.92C63.3504 33.1067 62.717 33.2 62.037 33.2Z" fill="black"/>
<path d="M45.0142 33.0001V18.6201H47.7542V24.7001C48.0742 24.0601 48.5142 23.5868 49.0742 23.2801C49.6342 22.9601 50.2675 22.8001 50.9742 22.8001C51.6675 22.8001 52.2808 22.9335 52.8142 23.2001C53.3608 23.4668 53.7875 23.8735 54.0942 24.4201C54.4142 24.9535 54.5742 25.6268 54.5742 26.4401V33.0001H51.8342V27.2401C51.8342 26.3735 51.6675 25.7801 51.3342 25.4601C51.0008 25.1268 50.5742 24.9601 50.0542 24.9601C49.6675 24.9601 49.2942 25.0535 48.9342 25.2401C48.5875 25.4135 48.3008 25.7068 48.0742 26.1201C47.8608 26.5201 47.7542 27.0535 47.7542 27.7201V33.0001H45.0142Z" fill="black"/>
<path d="M39.8042 19.9399V29.7399C39.8042 30.2199 39.9242 30.5733 40.1642 30.7999C40.4176 31.0133 40.7576 31.1199 41.1842 31.1199C41.5176 31.1199 41.8109 31.0733 42.0642 30.9799C42.3176 30.8733 42.5442 30.7333 42.7442 30.5599L43.1842 32.3799C42.8642 32.6333 42.4642 32.8333 41.9842 32.9799C41.5042 33.1266 40.9976 33.1999 40.4642 33.1999C39.7976 33.1999 39.2042 33.0999 38.6842 32.8999C38.1776 32.6999 37.7776 32.3799 37.4842 31.9399C37.2042 31.4999 37.0642 30.9133 37.0642 30.1799V20.6999L39.8042 19.9399ZM43.0042 22.9999V25.0399H35.2242V22.9999H43.0042Z" fill="black"/>
<path d="M27.4201 19.6001C28.7267 19.6001 29.8534 19.8734 30.8001 20.4201C31.7467 20.9668 32.4734 21.7468 32.9801 22.7601C33.5001 23.7734 33.7601 24.9868 33.7601 26.4001C33.7601 27.8134 33.5001 29.0268 32.9801 30.0401C32.4734 31.0534 31.7467 31.8334 30.8001 32.3801C29.8534 32.9268 28.7267 33.2001 27.4201 33.2001C26.1134 33.2001 24.9801 32.9268 24.0201 32.3801C23.0734 31.8334 22.3401 31.0534 21.8201 30.0401C21.3134 29.0268 21.0601 27.8134 21.0601 26.4001C21.0601 24.9868 21.3134 23.7734 21.8201 22.7601C22.3401 21.7468 23.0734 20.9668 24.0201 20.4201C24.9801 19.8734 26.1134 19.6001 27.4201 19.6001ZM27.4201 21.8601C26.6734 21.8601 26.0401 22.0334 25.5201 22.3801C25.0001 22.7268 24.6001 23.2401 24.3201 23.9201C24.0534 24.5868 23.9201 25.4134 23.9201 26.4001C23.9201 27.3734 24.0534 28.2001 24.3201 28.8801C24.6001 29.5601 25.0001 30.0734 25.5201 30.4201C26.0401 30.7668 26.6734 30.9401 27.4201 30.9401C28.1534 30.9401 28.7801 30.7668 29.3001 30.4201C29.8201 30.0734 30.2134 29.5601 30.4801 28.8801C30.7601 28.2001 30.9001 27.3734 30.9001 26.4001C30.9001 25.4134 30.7601 24.5868 30.4801 23.9201C30.2134 23.2401 29.8201 22.7268 29.3001 22.3801C28.7801 22.0334 28.1534 21.8601 27.4201 21.8601Z" fill="black"/>
</svg>
