<svg width="86" height="10" viewBox="0 0 86 10" fill="none" xmlns="http://www.w3.org/2000/svg">
<path d="M85.3325 2.2998L82.9825 8.1398C82.8558 8.46647 82.7158 8.72314 82.5625 8.90981C82.4158 9.10314 82.2492 9.23981 82.0625 9.31981C81.8825 9.40647 81.6725 9.4498 81.4325 9.4498C81.2058 9.4498 80.9958 9.41647 80.8025 9.3498C80.6158 9.2898 80.4492 9.20647 80.3025 9.0998L80.5225 8.39981C80.6558 8.5198 80.7958 8.60647 80.9425 8.6598C81.0958 8.7198 81.2458 8.7498 81.3925 8.7498C81.5658 8.7498 81.7292 8.69647 81.8825 8.5898C82.0358 8.48314 82.1758 8.26647 82.3025 7.93981L82.5625 7.2898L82.0625 6.0998L80.4725 2.2998H81.3825L82.6325 5.5598L82.9425 6.4498L83.3025 5.4598L84.4725 2.2998H85.3325Z" fill="#555555"/>
<path d="M77.1406 7.29971V2.29971H77.7906L77.9006 3.11971C78.0406 2.81304 78.244 2.58304 78.5106 2.42971C78.784 2.27637 79.114 2.19971 79.5006 2.19971C79.5873 2.19971 79.6806 2.20637 79.7806 2.21971C79.8873 2.23304 79.9773 2.25971 80.0506 2.29971L79.9106 3.02971C79.8373 3.00304 79.7573 2.98304 79.6706 2.96971C79.584 2.95637 79.4606 2.94971 79.3006 2.94971C79.094 2.94971 78.884 3.00971 78.6706 3.12971C78.464 3.24971 78.2906 3.43304 78.1506 3.67971C78.0106 3.91971 77.9406 4.22637 77.9406 4.59971V7.29971H77.1406Z" fill="#555555"/>
<path d="M73.2144 2.19971C73.6878 2.19971 74.1044 2.30304 74.4644 2.50971C74.8311 2.71637 75.1178 3.01637 75.3244 3.40971C75.5311 3.79637 75.6344 4.25971 75.6344 4.79971C75.6344 5.33971 75.5311 5.80637 75.3244 6.19971C75.1178 6.58637 74.8311 6.88304 74.4644 7.08971C74.1044 7.29637 73.6878 7.39971 73.2144 7.39971C72.7478 7.39971 72.3311 7.29637 71.9644 7.08971C71.5978 6.88304 71.3111 6.58637 71.1044 6.19971C70.8978 5.80637 70.7944 5.33971 70.7944 4.79971C70.7944 4.25971 70.8978 3.79637 71.1044 3.40971C71.3111 3.01637 71.5978 2.71637 71.9644 2.50971C72.3311 2.30304 72.7478 2.19971 73.2144 2.19971ZM73.2144 2.88971C72.8744 2.88971 72.5844 2.96637 72.3444 3.11971C72.1044 3.27304 71.9178 3.49304 71.7844 3.77971C71.6578 4.05971 71.5944 4.39971 71.5944 4.79971C71.5944 5.19304 71.6578 5.53304 71.7844 5.81971C71.9178 6.10637 72.1044 6.32637 72.3444 6.47971C72.5844 6.63304 72.8744 6.70971 73.2144 6.70971C73.5544 6.70971 73.8444 6.63304 74.0844 6.47971C74.3244 6.32637 74.5078 6.10637 74.6344 5.81971C74.7678 5.53304 74.8344 5.19304 74.8344 4.79971C74.8344 4.39971 74.7678 4.05971 74.6344 3.77971C74.5078 3.49304 74.3244 3.27304 74.0844 3.11971C73.8444 2.96637 73.5544 2.88971 73.2144 2.88971Z" fill="#555555"/>
<path d="M70.032 1.37988L70.212 2.08988C70.2053 2.08988 70.1953 2.08988 70.182 2.08988C70.1686 2.08988 70.1553 2.08988 70.142 2.08988C69.8153 2.08988 69.562 2.15655 69.382 2.28988C69.2086 2.41655 69.122 2.62322 69.122 2.90988L68.632 2.65988C68.632 2.39988 68.692 2.17322 68.812 1.97988C68.932 1.78655 69.0953 1.63988 69.302 1.53988C69.5086 1.43322 69.7353 1.37988 69.9819 1.37988C69.9886 1.37988 69.9953 1.37988 70.002 1.37988C70.0153 1.37988 70.0253 1.37988 70.032 1.37988ZM68.512 6.65988C68.9853 6.65988 69.3553 6.76988 69.622 6.98988C69.8886 7.20322 70.0219 7.48988 70.0219 7.84988C70.0219 8.17655 69.912 8.45988 69.692 8.69988C69.4786 8.93988 69.1886 9.12322 68.822 9.24988C68.462 9.38322 68.0553 9.44988 67.602 9.44988C66.8153 9.44988 66.2253 9.31655 65.832 9.04988C65.4453 8.78322 65.252 8.46322 65.252 8.08988C65.252 7.82322 65.3386 7.58322 65.512 7.36988C65.692 7.16322 65.9919 7.04655 66.4119 7.01988L66.3419 7.16988C66.1153 7.10988 65.922 7.00988 65.762 6.86988C65.6086 6.72322 65.532 6.51322 65.532 6.23988C65.532 5.96655 65.632 5.73322 65.832 5.53988C66.0386 5.33988 66.342 5.21655 66.742 5.16988L67.2719 5.43988H67.172C66.8453 5.47322 66.612 5.55655 66.472 5.68988C66.3386 5.81655 66.2719 5.95655 66.2719 6.10988C66.2719 6.29655 66.3386 6.43655 66.472 6.52988C66.612 6.61655 66.8053 6.65988 67.052 6.65988H68.512ZM67.5919 8.77988C67.9786 8.77988 68.2953 8.73988 68.542 8.65988C68.7953 8.57988 68.982 8.47655 69.102 8.34988C69.222 8.22322 69.282 8.08655 69.282 7.93988C69.282 7.75988 69.2086 7.61655 69.062 7.50988C68.922 7.40322 68.6653 7.34988 68.292 7.34988H66.752C66.5386 7.34988 66.3586 7.40322 66.212 7.50988C66.0653 7.62322 65.992 7.77655 65.992 7.96988C65.992 8.21655 66.1319 8.41322 66.4119 8.55988C66.6986 8.70655 67.0919 8.77988 67.5919 8.77988ZM67.5219 2.19988C67.9219 2.19988 68.2753 2.27322 68.582 2.41988C68.8953 2.55988 69.1386 2.75655 69.312 3.00988C69.4853 3.26322 69.572 3.55655 69.572 3.88988C69.572 4.21655 69.4853 4.50988 69.312 4.76988C69.1386 5.02322 68.8953 5.22322 68.582 5.36988C68.2753 5.50988 67.9219 5.57988 67.5219 5.57988C66.8619 5.57988 66.3553 5.42322 66.002 5.10988C65.6486 4.78988 65.472 4.38322 65.472 3.88988C65.472 3.55655 65.5586 3.26322 65.7319 3.00988C65.9119 2.75655 66.1553 2.55988 66.462 2.41988C66.7686 2.27322 67.1219 2.19988 67.5219 2.19988ZM67.5219 2.84988C67.1753 2.84988 66.8853 2.94655 66.652 3.13988C66.4186 3.32655 66.302 3.57655 66.302 3.88988C66.302 4.19655 66.4186 4.44655 66.652 4.63988C66.8853 4.83322 67.1753 4.92988 67.5219 4.92988C67.8686 4.92988 68.1586 4.83322 68.392 4.63988C68.6253 4.44655 68.742 4.19655 68.742 3.88988C68.742 3.57655 68.6253 3.32655 68.392 3.13988C68.1586 2.94655 67.8686 2.84988 67.5219 2.84988Z" fill="#555555"/>
<path d="M62.1407 7.39971C61.6673 7.39971 61.244 7.29637 60.8707 7.08971C60.504 6.88304 60.2173 6.58637 60.0107 6.19971C59.804 5.80637 59.7007 5.33971 59.7007 4.79971C59.7007 4.25971 59.804 3.79637 60.0107 3.40971C60.2173 3.01637 60.5007 2.71637 60.8607 2.50971C61.2207 2.30304 61.6307 2.19971 62.0907 2.19971C62.5573 2.19971 62.954 2.29971 63.2807 2.49971C63.614 2.69971 63.8673 2.97304 64.0407 3.31971C64.214 3.65971 64.3007 4.04304 64.3007 4.46971C64.3007 4.58304 64.2973 4.68637 64.2907 4.77971C64.284 4.87304 64.274 4.95637 64.2607 5.02971H60.2207V4.31971H63.9107L63.5007 4.39971C63.5007 3.91971 63.3673 3.54971 63.1007 3.28971C62.8407 3.02971 62.4973 2.89971 62.0707 2.89971C61.744 2.89971 61.4607 2.97637 61.2207 3.12971C60.9873 3.27637 60.804 3.49304 60.6707 3.77971C60.544 4.05971 60.4807 4.39971 60.4807 4.79971C60.4807 5.19304 60.5473 5.53304 60.6807 5.81971C60.814 6.10637 61.0007 6.32637 61.2407 6.47971C61.4873 6.62637 61.7807 6.69971 62.1207 6.69971C62.4873 6.69971 62.784 6.62971 63.0107 6.48971C63.244 6.34971 63.4307 6.15971 63.5707 5.91971L64.2007 6.28971C64.074 6.51637 63.9107 6.71304 63.7107 6.87971C63.5174 7.04637 63.2873 7.17637 63.0207 7.26971C62.7607 7.35637 62.4673 7.39971 62.1407 7.39971Z" fill="#555555"/>
<path d="M57.0412 0.879883V5.91988C57.0412 6.16655 57.1112 6.34988 57.2512 6.46988C57.3912 6.58988 57.5712 6.64988 57.7912 6.64988C57.9845 6.64988 58.1512 6.61655 58.2912 6.54988C58.4312 6.48322 58.5579 6.39322 58.6712 6.27988L58.9512 6.94988C58.7979 7.08988 58.6145 7.19988 58.4012 7.27988C58.1945 7.35988 57.9545 7.39988 57.6812 7.39988C57.4279 7.39988 57.1912 7.35655 56.9712 7.26988C56.7512 7.17655 56.5745 7.03322 56.4412 6.83988C56.3145 6.63988 56.2479 6.37988 56.2412 6.05988V1.09988L57.0412 0.879883ZM58.8612 2.29988V2.98988H55.2412V2.29988H58.8612Z" fill="#555555"/>
<path d="M53.3123 4.06971C53.3123 3.69637 53.2123 3.40971 53.0123 3.20971C52.8123 3.00304 52.5289 2.89971 52.1623 2.89971C51.8156 2.89971 51.5223 2.97637 51.2823 3.12971C51.0423 3.27637 50.8656 3.51637 50.7523 3.84971L50.1023 3.44971C50.2356 3.07637 50.4823 2.77637 50.8423 2.54971C51.2023 2.31637 51.6489 2.19971 52.1823 2.19971C52.5423 2.19971 52.8689 2.26304 53.1623 2.38971C53.4556 2.50971 53.6856 2.69637 53.8523 2.94971C54.0256 3.19637 54.1123 3.51637 54.1123 3.90971V6.32971C54.1123 6.56971 54.2389 6.68971 54.4923 6.68971C54.6189 6.68971 54.7423 6.67304 54.8623 6.63971L54.8223 7.26971C54.6889 7.33637 54.5156 7.36971 54.3023 7.36971C54.1089 7.36971 53.9356 7.33304 53.7823 7.25971C53.6289 7.18637 53.5089 7.07637 53.4223 6.92971C53.3356 6.77637 53.2923 6.58637 53.2923 6.35971V6.25971L53.4923 6.28971C53.4123 6.54971 53.2756 6.76304 53.0823 6.92971C52.8889 7.08971 52.6723 7.20971 52.4323 7.28971C52.1923 7.36304 51.9556 7.39971 51.7223 7.39971C51.4289 7.39971 51.1556 7.34971 50.9023 7.24971C50.6489 7.14971 50.4456 6.99971 50.2923 6.79971C50.1456 6.59304 50.0723 6.33971 50.0723 6.03971C50.0723 5.66637 50.1956 5.35971 50.4423 5.11971C50.6956 4.87304 51.0456 4.70637 51.4923 4.61971L53.4723 4.22971V4.88971L51.8623 5.21971C51.5356 5.28637 51.2923 5.37971 51.1323 5.49971C50.9723 5.61971 50.8923 5.78637 50.8923 5.99971C50.8923 6.20637 50.9723 6.37637 51.1323 6.50971C51.2989 6.63637 51.5323 6.69971 51.8323 6.69971C52.0256 6.69971 52.2089 6.67637 52.3823 6.62971C52.5623 6.57637 52.7223 6.49971 52.8623 6.39971C53.0023 6.29304 53.1123 6.16304 53.1923 6.00971C53.2723 5.84971 53.3123 5.66304 53.3123 5.44971V4.06971Z" fill="#555555"/>
<path d="M49.0071 5.60961C48.8671 5.98294 48.6671 6.30628 48.4071 6.57961C48.1471 6.84628 47.8404 7.04961 47.4871 7.18961C47.1404 7.32961 46.7604 7.39961 46.3471 7.39961C45.7204 7.39961 45.1771 7.26294 44.7171 6.98961C44.2638 6.70961 43.9104 6.31628 43.6571 5.80961C43.4104 5.30294 43.2871 4.69961 43.2871 3.99961C43.2871 3.29961 43.4104 2.69628 43.6571 2.18961C43.9104 1.68294 44.2638 1.29294 44.7171 1.01961C45.1771 0.739609 45.7138 0.599609 46.3271 0.599609C46.7538 0.599609 47.1338 0.65961 47.4671 0.77961C47.8004 0.892943 48.0838 1.06628 48.3171 1.29961C48.5571 1.52628 48.7471 1.80628 48.8871 2.13961L48.0971 2.50961C47.9504 2.12961 47.7371 1.84294 47.4571 1.64961C47.1838 1.44961 46.8271 1.34961 46.3871 1.34961C45.9404 1.34961 45.5471 1.45628 45.2071 1.66961C44.8671 1.87628 44.6004 2.17628 44.4071 2.56961C44.2204 2.96294 44.1271 3.43961 44.1271 3.99961C44.1271 4.55294 44.2171 5.02961 44.3971 5.42961C44.5771 5.82294 44.8338 6.12628 45.1671 6.33961C45.5004 6.54628 45.8938 6.64961 46.3471 6.64961C46.7871 6.64961 47.1704 6.53961 47.4971 6.31961C47.8238 6.09294 48.0604 5.75628 48.2071 5.30961L49.0071 5.60961Z" fill="#555555"/>
<path d="M37.6189 4.06971C37.6189 3.69637 37.5189 3.40971 37.3189 3.20971C37.1189 3.00304 36.8356 2.89971 36.4689 2.89971C36.1222 2.89971 35.8289 2.97637 35.5889 3.12971C35.3489 3.27637 35.1722 3.51637 35.0589 3.84971L34.4089 3.44971C34.5422 3.07637 34.7889 2.77637 35.1489 2.54971C35.5089 2.31637 35.9556 2.19971 36.4889 2.19971C36.8489 2.19971 37.1756 2.26304 37.4689 2.38971C37.7622 2.50971 37.9922 2.69637 38.1589 2.94971C38.3322 3.19637 38.4189 3.51637 38.4189 3.90971V6.32971C38.4189 6.56971 38.5456 6.68971 38.7989 6.68971C38.9256 6.68971 39.0489 6.67304 39.1689 6.63971L39.1289 7.26971C38.9956 7.33637 38.8222 7.36971 38.6089 7.36971C38.4156 7.36971 38.2422 7.33304 38.0889 7.25971C37.9356 7.18637 37.8156 7.07637 37.7289 6.92971C37.6422 6.77637 37.5989 6.58637 37.5989 6.35971V6.25971L37.7989 6.28971C37.7189 6.54971 37.5822 6.76304 37.3889 6.92971C37.1956 7.08971 36.9789 7.20971 36.7389 7.28971C36.4989 7.36304 36.2622 7.39971 36.0289 7.39971C35.7356 7.39971 35.4622 7.34971 35.2089 7.24971C34.9556 7.14971 34.7522 6.99971 34.5989 6.79971C34.4522 6.59304 34.3789 6.33971 34.3789 6.03971C34.3789 5.66637 34.5022 5.35971 34.7489 5.11971C35.0022 4.87304 35.3522 4.70637 35.7989 4.61971L37.7789 4.22971V4.88971L36.1689 5.21971C35.8422 5.28637 35.5989 5.37971 35.4389 5.49971C35.2789 5.61971 35.1989 5.78637 35.1989 5.99971C35.1989 6.20637 35.2789 6.37637 35.4389 6.50971C35.6056 6.63637 35.8389 6.69971 36.1389 6.69971C36.3322 6.69971 36.5156 6.67637 36.6889 6.62971C36.8689 6.57637 37.0289 6.49971 37.1689 6.39971C37.3089 6.29304 37.4189 6.16304 37.4989 6.00971C37.5789 5.84971 37.6189 5.66304 37.6189 5.44971V4.06971Z" fill="#555555"/>
<path d="M28.2814 0.879883V5.91988C28.2814 6.16655 28.3514 6.34988 28.4914 6.46988C28.6314 6.58988 28.8114 6.64988 29.0314 6.64988C29.2248 6.64988 29.3914 6.61655 29.5314 6.54988C29.6714 6.48322 29.7981 6.39322 29.9114 6.27988L30.1914 6.94988C30.0381 7.08988 29.8548 7.19988 29.6414 7.27988C29.4348 7.35988 29.1948 7.39988 28.9214 7.39988C28.6681 7.39988 28.4314 7.35655 28.2114 7.26988C27.9914 7.17655 27.8148 7.03322 27.6814 6.83988C27.5548 6.63988 27.4881 6.37988 27.4814 6.05988V1.09988L28.2814 0.879883ZM30.1014 2.29988V2.98988H26.4814V2.29988H30.1014Z" fill="#555555"/>
<path d="M23.5758 2.19971C23.9224 2.19971 24.2258 2.25304 24.4858 2.35971C24.7524 2.46637 24.9824 2.61971 25.1758 2.81971C25.3691 3.01971 25.5258 3.25637 25.6458 3.52971L24.8858 3.88971C24.7791 3.56971 24.6158 3.32637 24.3958 3.15971C24.1824 2.98637 23.9024 2.89971 23.5558 2.89971C23.2224 2.89971 22.9358 2.97637 22.6958 3.12971C22.4558 3.27637 22.2724 3.49304 22.1458 3.77971C22.0191 4.05971 21.9558 4.39971 21.9558 4.79971C21.9558 5.19304 22.0191 5.53304 22.1458 5.81971C22.2724 6.10637 22.4558 6.32637 22.6958 6.47971C22.9358 6.62637 23.2224 6.69971 23.5558 6.69971C23.8158 6.69971 24.0391 6.65971 24.2258 6.57971C24.4191 6.49971 24.5758 6.38304 24.6958 6.22971C24.8224 6.07637 24.9091 5.88971 24.9558 5.66971L25.6958 5.92971C25.5824 6.23637 25.4258 6.49971 25.2258 6.71971C25.0324 6.93971 24.7958 7.10971 24.5158 7.22971C24.2424 7.34304 23.9291 7.39971 23.5758 7.39971C23.1091 7.39971 22.6924 7.29637 22.3258 7.08971C21.9591 6.88304 21.6724 6.58637 21.4658 6.19971C21.2591 5.80637 21.1558 5.33971 21.1558 4.79971C21.1558 4.25971 21.2591 3.79637 21.4658 3.40971C21.6724 3.01637 21.9591 2.71637 22.3258 2.50971C22.6924 2.30304 23.1091 2.19971 23.5758 2.19971Z" fill="#555555"/>
<path d="M17.8243 7.39971C17.3509 7.39971 16.9276 7.29637 16.5543 7.08971C16.1876 6.88304 15.9009 6.58637 15.6943 6.19971C15.4876 5.80637 15.3843 5.33971 15.3843 4.79971C15.3843 4.25971 15.4876 3.79637 15.6943 3.40971C15.9009 3.01637 16.1843 2.71637 16.5443 2.50971C16.9043 2.30304 17.3143 2.19971 17.7743 2.19971C18.2409 2.19971 18.6376 2.29971 18.9643 2.49971C19.2976 2.69971 19.5509 2.97304 19.7243 3.31971C19.8976 3.65971 19.9843 4.04304 19.9843 4.46971C19.9843 4.58304 19.9809 4.68637 19.9743 4.77971C19.9676 4.87304 19.9576 4.95637 19.9443 5.02971H15.9043V4.31971H19.5943L19.1843 4.39971C19.1843 3.91971 19.0509 3.54971 18.7843 3.28971C18.5243 3.02971 18.1809 2.89971 17.7543 2.89971C17.4276 2.89971 17.1443 2.97637 16.9043 3.12971C16.6709 3.27637 16.4876 3.49304 16.3543 3.77971C16.2276 4.05971 16.1643 4.39971 16.1643 4.79971C16.1643 5.19304 16.2309 5.53304 16.3643 5.81971C16.4976 6.10637 16.6843 6.32637 16.9243 6.47971C17.1709 6.62637 17.4643 6.69971 17.8043 6.69971C18.1709 6.69971 18.4676 6.62971 18.6943 6.48971C18.9276 6.34971 19.1143 6.15971 19.2543 5.91971L19.8843 6.28971C19.7576 6.51637 19.5943 6.71304 19.3943 6.87971C19.2009 7.04637 18.9709 7.17637 18.7043 7.26971C18.4443 7.35637 18.1509 7.39971 17.8243 7.39971Z" fill="#555555"/>
<path d="M13.4377 0V6.03C13.4377 6.28333 13.4844 6.46 13.5777 6.56C13.671 6.65333 13.821 6.7 14.0277 6.7C14.161 6.7 14.271 6.69 14.3577 6.67C14.4444 6.65 14.561 6.61333 14.7077 6.56L14.5777 7.26C14.471 7.30667 14.3544 7.34 14.2277 7.36C14.101 7.38667 13.971 7.4 13.8377 7.4C13.431 7.4 13.1277 7.29 12.9277 7.07C12.7344 6.85 12.6377 6.51333 12.6377 6.06V0H13.4377Z" fill="#555555"/>
<path d="M8.99615 7.39971C8.52282 7.39971 8.09949 7.29637 7.72615 7.08971C7.35949 6.88304 7.07282 6.58637 6.86615 6.19971C6.65949 5.80637 6.55615 5.33971 6.55615 4.79971C6.55615 4.25971 6.65949 3.79637 6.86615 3.40971C7.07282 3.01637 7.35615 2.71637 7.71615 2.50971C8.07615 2.30304 8.48615 2.19971 8.94615 2.19971C9.41282 2.19971 9.80949 2.29971 10.1362 2.49971C10.4695 2.69971 10.7228 2.97304 10.8962 3.31971C11.0695 3.65971 11.1562 4.04304 11.1562 4.46971C11.1562 4.58304 11.1528 4.68637 11.1462 4.77971C11.1395 4.87304 11.1295 4.95637 11.1162 5.02971H7.07615V4.31971H10.7662L10.3562 4.39971C10.3562 3.91971 10.2228 3.54971 9.95615 3.28971C9.69615 3.02971 9.35282 2.89971 8.92615 2.89971C8.59949 2.89971 8.31615 2.97637 8.07615 3.12971C7.84282 3.27637 7.65949 3.49304 7.52615 3.77971C7.39949 4.05971 7.33615 4.39971 7.33615 4.79971C7.33615 5.19304 7.40282 5.53304 7.53615 5.81971C7.66949 6.10637 7.85615 6.32637 8.09615 6.47971C8.34282 6.62637 8.63615 6.69971 8.97615 6.69971C9.34282 6.69971 9.63949 6.62971 9.86615 6.48971C10.0995 6.34971 10.2862 6.15971 10.4262 5.91971L11.0562 6.28971C10.9295 6.51637 10.7662 6.71304 10.5662 6.87971C10.3728 7.04637 10.1428 7.17637 9.87615 7.26971C9.61615 7.35637 9.32282 7.39971 8.99615 7.39971Z" fill="#555555"/>
<path d="M2.77 0.599609C3.35 0.599609 3.85 0.719609 4.27 0.95961C4.69 1.19294 5.04 1.53961 5.32 1.99961L4.65 2.51961C4.40333 2.09294 4.12333 1.79294 3.81 1.61961C3.50333 1.43961 3.13 1.34961 2.69 1.34961C2.33667 1.34961 2.04333 1.39961 1.81 1.49961C1.58333 1.59961 1.41667 1.73294 1.31 1.89961C1.20333 2.05961 1.15 2.24294 1.15 2.44961C1.15 2.68294 1.22333 2.88961 1.37 3.06961C1.51667 3.24294 1.81 3.37961 2.25 3.47961L3.68 3.79961C4.31333 3.93961 4.75333 4.15294 5 4.43961C5.25333 4.71961 5.38 5.06961 5.38 5.48961C5.38 5.86294 5.27333 6.19628 5.06 6.48961C4.85333 6.77628 4.56 6.99961 4.18 7.15961C3.8 7.31961 3.35333 7.39961 2.84 7.39961C2.36 7.39961 1.93667 7.33628 1.57 7.20961C1.21 7.07628 0.9 6.89961 0.64 6.67961C0.38 6.45961 0.166667 6.21294 0 5.93961L0.7 5.36961C0.826667 5.62294 0.99 5.84628 1.19 6.03961C1.39 6.23294 1.63 6.38294 1.91 6.48961C2.19667 6.59628 2.52333 6.64961 2.89 6.64961C3.23 6.64961 3.52333 6.60961 3.77 6.52961C4.02333 6.44294 4.21667 6.31961 4.35 6.15961C4.48333 5.99294 4.55 5.79294 4.55 5.55961C4.55 5.34628 4.48 5.15628 4.34 4.98961C4.2 4.81628 3.93667 4.68628 3.55 4.59961L2 4.24961C1.59333 4.15628 1.26333 4.02961 1.01 3.86961C0.763333 3.70294 0.583333 3.50961 0.47 3.28961C0.363333 3.06294 0.31 2.81961 0.31 2.55961C0.31 2.20628 0.406667 1.88294 0.6 1.58961C0.8 1.28961 1.08333 1.04961 1.45 0.86961C1.82333 0.68961 2.26333 0.599609 2.77 0.599609Z" fill="#555555"/>
</svg>
