<svg width="100" height="19" viewBox="0 0 100 19" fill="none" xmlns="http://www.w3.org/2000/svg">
<path d="M99.2453 4.37988L95.2053 14.9999C94.8853 15.9066 94.5253 16.6265 94.1253 17.1599C93.7386 17.6932 93.2853 18.0799 92.7653 18.3199C92.2586 18.5599 91.6519 18.6799 90.9453 18.6799C90.4253 18.6799 89.9452 18.6132 89.5052 18.4799C89.0786 18.3599 88.7053 18.1999 88.3853 17.9999L88.9652 16.0199C89.2186 16.2199 89.4853 16.3599 89.7653 16.4399C90.0453 16.5332 90.3653 16.5799 90.7253 16.5799C91.0986 16.5799 91.4186 16.4999 91.6852 16.3399C91.9652 16.1799 92.1986 15.8599 92.3853 15.3799L92.7253 14.5199L91.6253 11.9199L88.5653 4.37988H91.6052L93.5052 10.3799L94.0253 12.3799L94.6452 10.2599L96.4652 4.37988H99.2453Z" fill="black"/>
<path d="M84.7915 1.31982V11.1198C84.7915 11.5998 84.9116 11.9532 85.1516 12.1798C85.4049 12.3932 85.7449 12.4998 86.1715 12.4998C86.5049 12.4998 86.7982 12.4532 87.0515 12.3598C87.3049 12.2532 87.5315 12.1132 87.7315 11.9398L88.1715 13.7598C87.8515 14.0132 87.4516 14.2132 86.9715 14.3598C86.4916 14.5065 85.9849 14.5798 85.4515 14.5798C84.7849 14.5798 84.1915 14.4798 83.6715 14.2798C83.1649 14.0798 82.7649 13.7598 82.4715 13.3198C82.1916 12.8798 82.0515 12.2932 82.0515 11.5598V2.07983L84.7915 1.31982ZM87.9915 4.37983V6.41982H80.2115V4.37983H87.9915Z" fill="black"/>
<path d="M76.987 2.94C76.4137 2.94 75.987 2.82 75.707 2.58C75.427 2.32667 75.287 1.96 75.287 1.48C75.287 0.986667 75.427 0.62 75.707 0.38C75.987 0.126667 76.4137 0 76.987 0C77.5603 0 77.987 0.126667 78.267 0.38C78.547 0.62 78.687 0.986667 78.687 1.48C78.687 1.96 78.547 2.32667 78.267 2.58C77.987 2.82 77.5603 2.94 76.987 2.94ZM78.347 4.38V14.38H75.607V4.38H78.347Z" fill="black"/>
<path d="M73.5347 10.74C73.2814 11.5933 72.8814 12.3066 72.3347 12.88C71.788 13.4533 71.1414 13.88 70.3947 14.16C69.648 14.44 68.828 14.58 67.9347 14.58C66.628 14.58 65.4947 14.3066 64.5347 13.76C63.588 13.2133 62.8547 12.4333 62.3347 11.42C61.828 10.4066 61.5747 9.19331 61.5747 7.77998C61.5747 6.36665 61.828 5.15331 62.3347 4.13998C62.8547 3.12665 63.588 2.34665 64.5347 1.79998C65.4947 1.25331 66.6147 0.97998 67.8947 0.97998C68.8014 0.97998 69.6214 1.10665 70.3547 1.35998C71.088 1.59998 71.708 1.97331 72.2147 2.47998C72.7347 2.98665 73.1147 3.62665 73.3547 4.39998L70.8547 5.45998C70.628 4.65998 70.2814 4.09331 69.8147 3.75998C69.348 3.41331 68.748 3.23998 68.0147 3.23998C67.2947 3.23998 66.6614 3.41331 66.1147 3.75998C65.5814 4.10665 65.168 4.61998 64.8747 5.29998C64.5814 5.96665 64.4347 6.79331 64.4347 7.77998C64.4347 8.75331 64.568 9.57998 64.8347 10.26C65.1147 10.94 65.5214 11.4533 66.0547 11.8C66.588 12.1466 67.2414 12.32 68.0147 12.32C68.7347 12.32 69.3547 12.1266 69.8747 11.74C70.408 11.3533 70.7814 10.7666 70.9947 9.97998L73.5347 10.74Z" fill="black"/>
<path d="M60.5242 0L54.7242 15.78H52.1842L57.9642 0H60.5242Z" fill="black"/>
<path d="M40.8413 14.3799V4.37993H43.3013L43.4613 7.37993L43.1213 7.05993C43.2813 6.4066 43.5346 5.8666 43.8813 5.43993C44.228 5.01327 44.648 4.69993 45.1413 4.49993C45.648 4.2866 46.2013 4.17993 46.8013 4.17993C47.4946 4.17993 48.108 4.31326 48.6413 4.57993C49.188 4.8466 49.6146 5.25327 49.9213 5.79993C50.2413 6.33327 50.4013 7.0066 50.4013 7.81993V14.3799H47.6613V8.59993C47.6613 7.7466 47.4946 7.15993 47.1613 6.83993C46.828 6.5066 46.3946 6.33993 45.8613 6.33993C45.488 6.33993 45.1213 6.43327 44.7613 6.61993C44.4146 6.79327 44.128 7.07993 43.9013 7.47993C43.688 7.87993 43.5813 8.41327 43.5813 9.07993V14.3799H40.8413Z" fill="black"/>
<path d="M36.2218 4.37988H39.1418L35.9418 14.3799H32.7818L30.6018 7.57988L28.5018 14.3799H25.3418L22.1418 4.37988H25.0618L27.0618 12.0399L29.2818 4.37988H32.0018L34.2418 12.0399L36.2218 4.37988Z" fill="black"/>
<path d="M16.1826 4.17993C17.196 4.17993 18.0826 4.3866 18.8426 4.79993C19.616 5.21327 20.216 5.8066 20.6426 6.57993C21.0826 7.35327 21.3026 8.2866 21.3026 9.37993C21.3026 10.4599 21.0826 11.3933 20.6426 12.1799C20.216 12.9533 19.616 13.5466 18.8426 13.9599C18.0826 14.3733 17.196 14.5799 16.1826 14.5799C15.1826 14.5799 14.296 14.3733 13.5226 13.9599C12.7493 13.5466 12.1426 12.9533 11.7026 12.1799C11.276 11.3933 11.0626 10.4599 11.0626 9.37993C11.0626 8.2866 11.276 7.35327 11.7026 6.57993C12.1426 5.8066 12.7493 5.21327 13.5226 4.79993C14.296 4.3866 15.1826 4.17993 16.1826 4.17993ZM16.1826 6.21993C15.676 6.21993 15.2426 6.33993 14.8826 6.57993C14.536 6.8066 14.2693 7.15327 14.0826 7.61993C13.896 8.0866 13.8026 8.67327 13.8026 9.37993C13.8026 10.0866 13.896 10.6733 14.0826 11.1399C14.2693 11.6066 14.536 11.9599 14.8826 12.1999C15.2426 12.4266 15.676 12.5399 16.1826 12.5399C16.676 12.5399 17.096 12.4266 17.4426 12.1999C17.8026 11.9599 18.076 11.6066 18.2626 11.1399C18.4493 10.6733 18.5426 10.0866 18.5426 9.37993C18.5426 8.67327 18.4493 8.0866 18.2626 7.61993C18.076 7.15327 17.8026 6.8066 17.4426 6.57993C17.096 6.33993 16.676 6.21993 16.1826 6.21993Z" fill="black"/>
<path d="M11.62 1.17993V3.39993H7.2V14.3799H4.44V3.39993H0V1.17993H11.62Z" fill="black"/>
</svg>
