<svg width="78" height="18" viewBox="0 0 78 18" fill="none" xmlns="http://www.w3.org/2000/svg">
<path d="M77.1041 3.3999L73.0641 14.0199C72.7441 14.9266 72.3841 15.6466 71.9841 16.1799C71.5975 16.7132 71.1441 17.0999 70.6241 17.3399C70.1175 17.5799 69.5108 17.6999 68.8041 17.6999C68.2841 17.6999 67.8041 17.6332 67.3641 17.4999C66.9375 17.3799 66.5641 17.2199 66.2441 17.0199L66.8241 15.0399C67.0775 15.2399 67.3441 15.3799 67.6241 15.4599C67.9041 15.5532 68.2241 15.5999 68.5841 15.5999C68.9575 15.5999 69.2775 15.5199 69.5441 15.3599C69.8241 15.1999 70.0575 14.8799 70.2441 14.3999L70.5841 13.5399L69.4841 10.9399L66.4241 3.3999H69.4641L71.3641 9.3999L71.8841 11.3999L72.5041 9.2799L74.3241 3.3999H77.1041Z" fill="black"/>
<path d="M59.2666 13.4V3.39995H61.6466L61.8266 5.35995C62.0933 4.66662 62.4799 4.13328 62.9866 3.75995C63.5066 3.38662 64.1533 3.19995 64.9266 3.19995C65.1533 3.19995 65.3599 3.21995 65.5466 3.25995C65.7333 3.29995 65.8866 3.35328 66.0066 3.41995L65.6866 5.71995C65.5533 5.66662 65.3866 5.62662 65.1866 5.59995C64.9999 5.57329 64.7533 5.55995 64.4466 5.55995C64.0466 5.55995 63.6599 5.65995 63.2866 5.85995C62.9133 6.04662 62.6066 6.33995 62.3666 6.73995C62.1266 7.12662 62.0066 7.61995 62.0066 8.21995V13.4H59.2666Z" fill="black"/>
<path d="M54.2129 0.339844V10.1398C54.2129 10.6198 54.3329 10.9732 54.5729 11.1998C54.8263 11.4132 55.1663 11.5198 55.5929 11.5198C55.9263 11.5198 56.2196 11.4732 56.4729 11.3798C56.7263 11.2732 56.9529 11.1332 57.1529 10.9598L57.5929 12.7798C57.2729 13.0332 56.8729 13.2332 56.3929 13.3798C55.9129 13.5265 55.4063 13.5998 54.8729 13.5998C54.2063 13.5998 53.6129 13.4998 53.0929 13.2998C52.5863 13.0998 52.1863 12.7798 51.8929 12.3398C51.6129 11.8998 51.4729 11.3132 51.4729 10.5798V1.09984L54.2129 0.339844ZM57.4129 3.39985V5.43984H49.6329V3.39985H57.4129Z" fill="black"/>
<path d="M38.3682 13.4V3.39995H40.8282L40.9882 6.39995L40.6482 6.07995C40.8082 5.42662 41.0615 4.88662 41.4082 4.45995C41.7548 4.03328 42.1748 3.71995 42.6682 3.51995C43.1748 3.30662 43.7282 3.19995 44.3282 3.19995C45.0215 3.19995 45.6348 3.33328 46.1682 3.59995C46.7148 3.86662 47.1415 4.27329 47.4482 4.81995C47.7682 5.35329 47.9282 6.02662 47.9282 6.83995V13.4H45.1882V7.61995C45.1882 6.76662 45.0215 6.17995 44.6882 5.85995C44.3548 5.52662 43.9215 5.35995 43.3882 5.35995C43.0148 5.35995 42.6482 5.45328 42.2882 5.63995C41.9415 5.81328 41.6548 6.09995 41.4282 6.49995C41.2148 6.89995 41.1082 7.43328 41.1082 8.09995V13.4H38.3682Z" fill="black"/>
<path d="M29.4849 13.5999C28.8183 13.5999 28.2183 13.4799 27.6849 13.2399C27.1516 12.9999 26.7249 12.6199 26.4049 12.0999C26.0983 11.5666 25.9449 10.8799 25.9449 10.0399V3.3999H28.6849V9.3799C28.6849 10.1532 28.8449 10.6932 29.1649 10.9999C29.4849 11.2932 29.9449 11.4399 30.5449 11.4399C30.8249 11.4399 31.0983 11.3932 31.3649 11.2999C31.6316 11.1932 31.8649 11.0332 32.0649 10.8199C32.2783 10.6066 32.4449 10.3332 32.5649 9.9999C32.6849 9.65324 32.7449 9.24657 32.7449 8.7799V3.3999H35.4849V13.3999H33.0449L32.9449 11.6599C32.6116 12.3266 32.1516 12.8199 31.5649 13.1399C30.9916 13.4466 30.2983 13.5999 29.4849 13.5999Z" fill="black"/>
<path d="M18.5923 3.19995C19.6056 3.19995 20.4923 3.40662 21.2523 3.81995C22.0256 4.23328 22.6256 4.82662 23.0523 5.59995C23.4923 6.37329 23.7123 7.30662 23.7123 8.39995C23.7123 9.47995 23.4923 10.4133 23.0523 11.2C22.6256 11.9733 22.0256 12.5666 21.2523 12.98C20.4923 13.3933 19.6056 13.6 18.5923 13.6C17.5923 13.6 16.7056 13.3933 15.9323 12.98C15.159 12.5666 14.5523 11.9733 14.1123 11.2C13.6856 10.4133 13.4723 9.47995 13.4723 8.39995C13.4723 7.30662 13.6856 6.37329 14.1123 5.59995C14.5523 4.82662 15.159 4.23328 15.9323 3.81995C16.7056 3.40662 17.5923 3.19995 18.5923 3.19995ZM18.5923 5.23995C18.0856 5.23995 17.6523 5.35995 17.2923 5.59995C16.9456 5.82662 16.679 6.17329 16.4923 6.63995C16.3056 7.10662 16.2123 7.69328 16.2123 8.39995C16.2123 9.10662 16.3056 9.69329 16.4923 10.16C16.679 10.6266 16.9456 10.98 17.2923 11.22C17.6523 11.4466 18.0856 11.56 18.5923 11.56C19.0856 11.56 19.5056 11.4466 19.8523 11.22C20.2123 10.98 20.4856 10.6266 20.6723 10.16C20.859 9.69329 20.9523 9.10662 20.9523 8.39995C20.9523 7.69328 20.859 7.10662 20.6723 6.63995C20.4856 6.17329 20.2123 5.82662 19.8523 5.59995C19.5056 5.35995 19.0856 5.23995 18.5923 5.23995Z" fill="black"/>
<path d="M11.96 9.76C11.7067 10.6133 11.3067 11.3267 10.76 11.9C10.2133 12.4733 9.56667 12.9 8.82 13.18C8.07333 13.46 7.25333 13.6 6.36 13.6C5.05333 13.6 3.92 13.3267 2.96 12.78C2.01333 12.2333 1.28 11.4533 0.76 10.44C0.253333 9.42667 0 8.21333 0 6.8C0 5.38667 0.253333 4.17333 0.76 3.16C1.28 2.14667 2.01333 1.36667 2.96 0.820001C3.92 0.273334 5.04 0 6.32 0C7.22667 0 8.04667 0.126667 8.78 0.38C9.51333 0.62 10.1333 0.993334 10.64 1.5C11.16 2.00667 11.54 2.64667 11.78 3.42L9.28 4.48C9.05333 3.68 8.70667 3.11333 8.24 2.78C7.77333 2.43333 7.17333 2.26 6.44 2.26C5.72 2.26 5.08667 2.43333 4.54 2.78C4.00667 3.12667 3.59333 3.64 3.3 4.32C3.00667 4.98667 2.86 5.81333 2.86 6.8C2.86 7.77333 2.99333 8.6 3.26 9.28C3.54 9.96 3.94667 10.4733 4.48 10.82C5.01333 11.1667 5.66667 11.34 6.44 11.34C7.16 11.34 7.78 11.1467 8.3 10.76C8.83333 10.3733 9.20667 9.78667 9.42 9L11.96 9.76Z" fill="black"/>
</svg>
