<svg width="106" height="15" viewBox="0 0 106 15" fill="none" xmlns="http://www.w3.org/2000/svg">
<path d="M100.702 4.17993C101.716 4.17993 102.602 4.3866 103.362 4.79993C104.136 5.21327 104.736 5.8066 105.162 6.57993C105.602 7.35327 105.822 8.2866 105.822 9.37993C105.822 10.4599 105.602 11.3933 105.162 12.1799C104.736 12.9533 104.136 13.5466 103.362 13.9599C102.602 14.3733 101.716 14.5799 100.702 14.5799C99.7024 14.5799 98.8157 14.3733 98.0424 13.9599C97.2691 13.5466 96.6624 12.9533 96.2224 12.1799C95.7957 11.3933 95.5824 10.4599 95.5824 9.37993C95.5824 8.2866 95.7957 7.35327 96.2224 6.57993C96.6624 5.8066 97.2691 5.21327 98.0424 4.79993C98.8157 4.3866 99.7024 4.17993 100.702 4.17993ZM100.702 6.21993C100.196 6.21993 99.7624 6.33993 99.4024 6.57993C99.0557 6.8066 98.7891 7.15327 98.6024 7.61993C98.4157 8.0866 98.3224 8.67327 98.3224 9.37993C98.3224 10.0866 98.4157 10.6733 98.6024 11.1399C98.7891 11.6066 99.0557 11.9599 99.4024 12.1999C99.7624 12.4266 100.196 12.5399 100.702 12.5399C101.196 12.5399 101.616 12.4266 101.962 12.1999C102.322 11.9599 102.596 11.6066 102.782 11.1399C102.969 10.6733 103.062 10.0866 103.062 9.37993C103.062 8.67327 102.969 8.0866 102.782 7.61993C102.596 7.15327 102.322 6.8066 101.962 6.57993C101.616 6.33993 101.196 6.21993 100.702 6.21993Z" fill="black"/>
<path d="M91.0887 1.31982V11.1198C91.0887 11.5998 91.2087 11.9532 91.4487 12.1798C91.702 12.3932 92.042 12.4998 92.4687 12.4998C92.802 12.4998 93.0953 12.4532 93.3487 12.3598C93.602 12.2532 93.8287 12.1132 94.0287 11.9398L94.4687 13.7598C94.1487 14.0132 93.7487 14.2132 93.2687 14.3598C92.7887 14.5065 92.282 14.5798 91.7487 14.5798C91.082 14.5798 90.4887 14.4798 89.9687 14.2798C89.462 14.0798 89.062 13.7598 88.7687 13.3198C88.4887 12.8798 88.3487 12.2932 88.3487 11.5598V2.07983L91.0887 1.31982ZM94.2887 4.37983V6.41982H86.5087V4.37983H94.2887Z" fill="black"/>
<path d="M80.2337 4.17993C81.247 4.17993 82.1337 4.3866 82.8937 4.79993C83.667 5.21327 84.267 5.8066 84.6936 6.57993C85.1336 7.35327 85.3537 8.2866 85.3537 9.37993C85.3537 10.4599 85.1336 11.3933 84.6936 12.1799C84.267 12.9533 83.667 13.5466 82.8937 13.9599C82.1337 14.3733 81.247 14.5799 80.2337 14.5799C79.2337 14.5799 78.347 14.3733 77.5737 13.9599C76.8003 13.5466 76.1936 12.9533 75.7536 12.1799C75.327 11.3933 75.1136 10.4599 75.1136 9.37993C75.1136 8.2866 75.327 7.35327 75.7536 6.57993C76.1936 5.8066 76.8003 5.21327 77.5737 4.79993C78.347 4.3866 79.2337 4.17993 80.2337 4.17993ZM80.2337 6.21993C79.727 6.21993 79.2936 6.33993 78.9336 6.57993C78.587 6.8066 78.3203 7.15327 78.1337 7.61993C77.947 8.0866 77.8537 8.67327 77.8537 9.37993C77.8537 10.0866 77.947 10.6733 78.1337 11.1399C78.3203 11.6066 78.587 11.9599 78.9336 12.1999C79.2936 12.4266 79.727 12.5399 80.2337 12.5399C80.727 12.5399 81.147 12.4266 81.4937 12.1999C81.8537 11.9599 82.127 11.6066 82.3137 11.1399C82.5003 10.6733 82.5937 10.0866 82.5937 9.37993C82.5937 8.67327 82.5003 8.0866 82.3137 7.61993C82.127 7.15327 81.8537 6.8066 81.4937 6.57993C81.147 6.33993 80.727 6.21993 80.2337 6.21993Z" fill="black"/>
<path d="M63.2908 14.38V0H66.0308V6.08C66.3508 5.44 66.7908 4.96667 67.3508 4.66C67.9108 4.34 68.5441 4.18 69.2508 4.18C69.9441 4.18 70.5574 4.31333 71.0908 4.58C71.6374 4.84667 72.0641 5.25333 72.3708 5.8C72.6908 6.33333 72.8508 7.00667 72.8508 7.82V14.38H70.1108V8.62C70.1108 7.75333 69.9441 7.16 69.6108 6.84C69.2774 6.50667 68.8508 6.34 68.3308 6.34C67.9441 6.34 67.5708 6.43333 67.2108 6.62C66.8641 6.79333 66.5774 7.08667 66.3508 7.5C66.1374 7.9 66.0308 8.43333 66.0308 9.1V14.38H63.2908Z" fill="black"/>
<path d="M56.1811 1.17993C57.1944 1.17993 58.0611 1.35327 58.7811 1.69993C59.5011 2.03327 60.0544 2.51993 60.4411 3.15993C60.8411 3.7866 61.0411 4.5466 61.0411 5.43993C61.0411 6.33327 60.8411 7.09993 60.4411 7.73993C60.0544 8.3666 59.5011 8.85327 58.7811 9.19993C58.0611 9.53327 57.1944 9.69993 56.1811 9.69993H53.4011V14.3799H50.6411V1.17993H56.1811ZM55.7611 7.51993C56.5878 7.51993 57.2078 7.3466 57.6211 6.99993C58.0344 6.63993 58.2411 6.11993 58.2411 5.43993C58.2411 4.7466 58.0344 4.2266 57.6211 3.87993C57.2078 3.53327 56.5878 3.35993 55.7611 3.35993H53.4011V7.51993H55.7611Z" fill="black"/>
<path d="M36.1814 14.3799V4.37993H38.5614L38.7414 6.33993C39.0081 5.6466 39.3947 5.11327 39.9014 4.73993C40.4214 4.3666 41.0681 4.17993 41.8414 4.17993C42.0681 4.17993 42.2747 4.19993 42.4614 4.23993C42.6481 4.27993 42.8014 4.33327 42.9214 4.39993L42.6014 6.69993C42.4681 6.6466 42.3014 6.6066 42.1014 6.57993C41.9147 6.55327 41.6681 6.53993 41.3614 6.53993C40.9614 6.53993 40.5747 6.63993 40.2014 6.83993C39.8281 7.0266 39.5214 7.31993 39.2814 7.71993C39.0414 8.1066 38.9214 8.59993 38.9214 9.19993V14.3799H36.1814Z" fill="black"/>
<path d="M27.2982 14.5799C26.6315 14.5799 26.0315 14.4599 25.4982 14.2199C24.9648 13.9799 24.5382 13.5999 24.2182 13.0799C23.9115 12.5466 23.7582 11.8599 23.7582 11.0199V4.37988H26.4982V10.3599C26.4982 11.1332 26.6582 11.6732 26.9782 11.9799C27.2982 12.2732 27.7582 12.4199 28.3582 12.4199C28.6382 12.4199 28.9115 12.3732 29.1782 12.2799C29.4448 12.1732 29.6782 12.0132 29.8782 11.7999C30.0915 11.5865 30.2582 11.3132 30.3782 10.9799C30.4982 10.6332 30.5582 10.2265 30.5582 9.75988V4.37988H33.2982V14.3799H30.8582L30.7582 12.6399C30.4248 13.3066 29.9648 13.7999 29.3782 14.1199C28.8048 14.4265 28.1115 14.5799 27.2982 14.5799Z" fill="black"/>
<path d="M16.4055 4.17993C17.4189 4.17993 18.3055 4.3866 19.0655 4.79993C19.8389 5.21327 20.4389 5.8066 20.8655 6.57993C21.3055 7.35327 21.5255 8.2866 21.5255 9.37993C21.5255 10.4599 21.3055 11.3933 20.8655 12.1799C20.4389 12.9533 19.8389 13.5466 19.0655 13.9599C18.3055 14.3733 17.4189 14.5799 16.4055 14.5799C15.4055 14.5799 14.5189 14.3733 13.7455 13.9599C12.9722 13.5466 12.3655 12.9533 11.9255 12.1799C11.4989 11.3933 11.2855 10.4599 11.2855 9.37993C11.2855 8.2866 11.4989 7.35327 11.9255 6.57993C12.3655 5.8066 12.9722 5.21327 13.7455 4.79993C14.5189 4.3866 15.4055 4.17993 16.4055 4.17993ZM16.4055 6.21993C15.8989 6.21993 15.4655 6.33993 15.1055 6.57993C14.7589 6.8066 14.4922 7.15327 14.3055 7.61993C14.1189 8.0866 14.0255 8.67327 14.0255 9.37993C14.0255 10.0866 14.1189 10.6733 14.3055 11.1399C14.4922 11.6066 14.7589 11.9599 15.1055 12.1999C15.4655 12.4266 15.8989 12.5399 16.4055 12.5399C16.8989 12.5399 17.3189 12.4266 17.6655 12.1999C18.0255 11.9599 18.2989 11.6066 18.4855 11.1399C18.6722 10.6733 18.7655 10.0866 18.7655 9.37993C18.7655 8.67327 18.6722 8.0866 18.4855 7.61993C18.2989 7.15327 18.0255 6.8066 17.6655 6.57993C17.3189 6.33993 16.8989 6.21993 16.4055 6.21993Z" fill="black"/>
<path d="M12.12 1.17993L7.44 9.43993V14.3799H4.68V9.43993L0 1.17993H2.94L5.06 5.13993L6.06 7.19993L7.08 5.13993L9.2 1.17993H12.12Z" fill="black"/>
</svg>
