<svg width="296" height="50" viewBox="0 0 296 50" fill="none" xmlns="http://www.w3.org/2000/svg">
<path d="M0 0H296V50H0V0Z" fill="white"/>
<path d="M125.479 33.2C124.466 33.2 123.539 33.02 122.699 32.66C121.872 32.3 121.199 31.7934 120.679 31.14L122.259 29.54C122.579 30.02 123.006 30.4134 123.539 30.72C124.072 31.0267 124.706 31.18 125.439 31.18C125.959 31.18 126.372 31.1067 126.679 30.96C126.999 30.8 127.159 30.5534 127.159 30.22C127.159 30.0067 127.086 29.8267 126.939 29.68C126.792 29.5201 126.499 29.3934 126.059 29.3L124.299 28.94C123.139 28.7 122.312 28.34 121.819 27.86C121.339 27.3667 121.099 26.7334 121.099 25.96C121.099 25.4134 121.259 24.9 121.579 24.42C121.912 23.94 122.406 23.5534 123.059 23.26C123.712 22.9534 124.526 22.8 125.499 22.8C126.499 22.8 127.366 22.96 128.099 23.28C128.846 23.5867 129.432 24.0467 129.859 24.66L128.219 26.26C127.926 25.7934 127.539 25.44 127.059 25.2C126.592 24.9467 126.099 24.82 125.579 24.82C125.206 24.82 124.886 24.86 124.619 24.94C124.352 25.02 124.152 25.1334 124.019 25.28C123.886 25.4134 123.819 25.5867 123.819 25.8C123.819 26.0134 123.912 26.2 124.099 26.36C124.286 26.5067 124.626 26.6334 125.119 26.74L127.159 27.16C128.146 27.36 128.852 27.7 129.279 28.18C129.706 28.6467 129.919 29.2134 129.919 29.88C129.919 30.52 129.746 31.0934 129.399 31.6C129.066 32.0934 128.566 32.4867 127.899 32.78C127.246 33.06 126.439 33.2 125.479 33.2Z" fill="black"/>
<path d="M114.73 22.8C115.623 22.8 116.377 22.9334 116.99 23.2C117.617 23.4534 118.117 23.8067 118.49 24.26C118.877 24.7 119.15 25.1934 119.31 25.74L116.75 26.66C116.617 26.06 116.39 25.6067 116.07 25.3C115.75 24.9934 115.317 24.84 114.77 24.84C114.263 24.84 113.83 24.96 113.47 25.2C113.11 25.4267 112.837 25.78 112.65 26.26C112.463 26.7267 112.37 27.3134 112.37 28.02C112.37 28.7267 112.463 29.3134 112.65 29.78C112.85 30.2467 113.13 30.5934 113.49 30.82C113.863 31.0467 114.297 31.16 114.79 31.16C115.19 31.16 115.53 31.0934 115.81 30.96C116.09 30.8134 116.317 30.6067 116.49 30.34C116.677 30.0734 116.803 29.7534 116.87 29.38L119.35 30.18C119.203 30.78 118.93 31.3067 118.53 31.76C118.13 32.2134 117.617 32.5667 116.99 32.82C116.363 33.0734 115.637 33.2 114.81 33.2C113.783 33.2 112.877 32.9934 112.09 32.58C111.303 32.1667 110.697 31.5734 110.27 30.8C109.843 30.0267 109.63 29.0934 109.63 28C109.63 26.9067 109.843 25.9734 110.27 25.2C110.697 24.4267 111.297 23.8334 112.07 23.42C112.843 23.0067 113.73 22.8 114.73 22.8Z" fill="black"/>
<path d="M105.925 21.5601C105.352 21.5601 104.925 21.4401 104.645 21.2001C104.365 20.9468 104.225 20.5801 104.225 20.1001C104.225 19.6068 104.365 19.2401 104.645 19.0001C104.925 18.7468 105.352 18.6201 105.925 18.6201C106.499 18.6201 106.925 18.7468 107.205 19.0001C107.485 19.2401 107.625 19.6068 107.625 20.1001C107.625 20.5801 107.485 20.9468 107.205 21.2001C106.925 21.4401 106.499 21.5601 105.925 21.5601ZM107.285 23.0001V33.0001H104.545V23.0001H107.285Z" fill="black"/>
<path d="M92.1626 33V23H94.6226L94.7826 26L94.4426 25.68C94.6026 25.0267 94.8559 24.4867 95.2026 24.06C95.5493 23.6334 95.9693 23.32 96.4626 23.12C96.9693 22.9067 97.5226 22.8 98.1226 22.8C98.8159 22.8 99.4293 22.9334 99.9626 23.2C100.509 23.4667 100.936 23.8734 101.243 24.42C101.563 24.9534 101.723 25.6267 101.723 26.44V33H98.9826V27.22C98.9826 26.3667 98.8159 25.78 98.4826 25.46C98.1493 25.1267 97.7159 24.96 97.1826 24.96C96.8093 24.96 96.4426 25.0534 96.0826 25.24C95.7359 25.4134 95.4493 25.7 95.2226 26.1C95.0093 26.5 94.9026 27.0334 94.9026 27.7V33H92.1626Z" fill="black"/>
<path d="M84.75 22.8C85.7633 22.8 86.65 23.0067 87.41 23.42C88.1833 23.8334 88.7833 24.4267 89.21 25.2C89.65 25.9734 89.87 26.9067 89.87 28C89.87 29.08 89.65 30.0134 89.21 30.8C88.7833 31.5734 88.1833 32.1667 87.41 32.58C86.65 32.9934 85.7633 33.2 84.75 33.2C83.75 33.2 82.8633 32.9934 82.09 32.58C81.3167 32.1667 80.71 31.5734 80.27 30.8C79.8433 30.0134 79.63 29.08 79.63 28C79.63 26.9067 79.8433 25.9734 80.27 25.2C80.71 24.4267 81.3167 23.8334 82.09 23.42C82.8633 23.0067 83.75 22.8 84.75 22.8ZM84.75 24.84C84.2433 24.84 83.81 24.96 83.45 25.2C83.1033 25.4267 82.8367 25.7734 82.65 26.24C82.4633 26.7067 82.37 27.2934 82.37 28C82.37 28.7067 82.4633 29.2934 82.65 29.76C82.8367 30.2267 83.1033 30.58 83.45 30.82C83.81 31.0467 84.2433 31.16 84.75 31.16C85.2433 31.16 85.6633 31.0467 86.01 30.82C86.37 30.58 86.6433 30.2267 86.83 29.76C87.0167 29.2934 87.11 28.7067 87.11 28C87.11 27.2934 87.0167 26.7067 86.83 26.24C86.6433 25.7734 86.37 25.4267 86.01 25.2C85.6633 24.96 85.2433 24.84 84.75 24.84Z" fill="black"/>
<path d="M71.9478 33V23H74.3278L74.5078 24.96C74.7744 24.2667 75.1611 23.7334 75.6678 23.36C76.1878 22.9867 76.8344 22.8 77.6078 22.8C77.8344 22.8 78.0411 22.82 78.2278 22.86C78.4144 22.9 78.5678 22.9534 78.6878 23.02L78.3678 25.32C78.2344 25.2667 78.0678 25.2267 77.8678 25.2C77.6811 25.1734 77.4344 25.16 77.1278 25.16C76.7278 25.16 76.3411 25.26 75.9678 25.46C75.5944 25.6467 75.2878 25.94 75.0478 26.34C74.8078 26.7267 74.6878 27.22 74.6878 27.82V33H71.9478Z" fill="black"/>
<path d="M66.8941 19.9399V29.7399C66.8941 30.2199 67.0141 30.5733 67.2541 30.7999C67.5074 31.0133 67.8474 31.1199 68.2741 31.1199C68.6074 31.1199 68.9008 31.0733 69.1541 30.9799C69.4074 30.8733 69.6341 30.7333 69.8341 30.5599L70.2741 32.3799C69.9541 32.6333 69.5541 32.8333 69.0741 32.9799C68.5941 33.1266 68.0874 33.1999 67.5541 33.1999C66.8874 33.1999 66.2941 33.0999 65.7741 32.8999C65.2674 32.6999 64.8674 32.3799 64.5741 31.9399C64.2941 31.4999 64.1541 30.9133 64.1541 30.1799V20.6999L66.8941 19.9399ZM70.0941 22.9999V25.0399H62.3141V22.9999H70.0941Z" fill="black"/>
<path d="M56.605 22.8C57.4983 22.8 58.2517 22.9334 58.865 23.2C59.4917 23.4534 59.9917 23.8067 60.365 24.26C60.7517 24.7 61.025 25.1934 61.185 25.74L58.625 26.66C58.4917 26.06 58.265 25.6067 57.945 25.3C57.625 24.9934 57.1917 24.84 56.645 24.84C56.1383 24.84 55.705 24.96 55.345 25.2C54.985 25.4267 54.7117 25.78 54.525 26.26C54.3383 26.7267 54.245 27.3134 54.245 28.02C54.245 28.7267 54.3383 29.3134 54.525 29.78C54.725 30.2467 55.005 30.5934 55.365 30.82C55.7383 31.0467 56.1717 31.16 56.665 31.16C57.065 31.16 57.405 31.0934 57.685 30.96C57.965 30.8134 58.1917 30.6067 58.365 30.34C58.5517 30.0734 58.6783 29.7534 58.745 29.38L61.225 30.18C61.0783 30.78 60.805 31.3067 60.405 31.76C60.005 32.2134 59.4917 32.5667 58.865 32.82C58.2383 33.0734 57.5117 33.2 56.685 33.2C55.6583 33.2 54.7517 32.9934 53.965 32.58C53.1783 32.1667 52.5717 31.5734 52.145 30.8C51.7183 30.0267 51.505 29.0934 51.505 28C51.505 26.9067 51.7183 25.9734 52.145 25.2C52.5717 24.4267 53.1717 23.8334 53.945 23.42C54.7183 23.0067 55.605 22.8 56.605 22.8Z" fill="black"/>
<path d="M45.123 33.2C44.0696 33.2 43.1496 32.9934 42.363 32.58C41.5896 32.1667 40.9896 31.5734 40.563 30.8C40.1363 30.0267 39.923 29.0934 39.923 28C39.923 26.9067 40.1363 25.9734 40.563 25.2C40.9896 24.4267 41.583 23.8334 42.343 23.42C43.1163 23.0067 43.9963 22.8 44.983 22.8C45.9963 22.8 46.8563 23.0067 47.563 23.42C48.2696 23.82 48.8096 24.3734 49.183 25.08C49.5563 25.7734 49.743 26.5667 49.743 27.46C49.743 27.7267 49.7363 27.9801 49.723 28.22C49.7096 28.46 49.6896 28.6734 49.663 28.86H41.683V26.96H48.463L47.143 27.44C47.143 26.6 46.9496 25.9534 46.563 25.5C46.1896 25.0467 45.6563 24.82 44.963 24.82C44.4563 24.82 44.0163 24.94 43.643 25.18C43.283 25.42 43.0096 25.78 42.823 26.26C42.6363 26.7267 42.543 27.32 42.543 28.04C42.543 28.7467 42.643 29.3334 42.843 29.8C43.0563 30.2534 43.3496 30.5934 43.723 30.82C44.1096 31.0467 44.5696 31.16 45.103 31.16C45.6896 31.16 46.163 31.0467 46.523 30.82C46.883 30.5934 47.163 30.28 47.363 29.88L49.543 30.72C49.3296 31.2401 49.003 31.6867 48.563 32.0601C48.1363 32.4334 47.623 32.72 47.023 32.92C46.4363 33.1067 45.803 33.2 45.123 33.2Z" fill="black"/>
<path d="M36.7963 18.6201V29.9201C36.7963 30.3868 36.8763 30.7135 37.0363 30.9001C37.1963 31.0868 37.4629 31.1801 37.8363 31.1801C38.0629 31.1801 38.2496 31.1668 38.3963 31.1401C38.5429 31.1001 38.7296 31.0468 38.9563 30.9801L38.7163 32.7801C38.4896 32.9135 38.2029 33.0135 37.8563 33.0801C37.5229 33.1601 37.1896 33.2001 36.8563 33.2001C35.8829 33.2001 35.1696 32.9668 34.7163 32.5001C34.2763 32.0201 34.0563 31.2601 34.0563 30.2201V18.6201H36.7963Z" fill="black"/>
<path d="M21.72 33V19.8H31.62V22.02H24.48V25.3H30.1V27.42H24.48V30.78H31.9V33H21.72Z" fill="black"/>
</svg>
