<svg width="236" height="30" viewBox="0 0 236 30" fill="none" xmlns="http://www.w3.org/2000/svg">
<path d="M210.249 23.008V7.00799H214.185L214.345 9.88799C214.879 8.82132 215.604 8.02132 216.521 7.48799C217.46 6.95466 218.495 6.68799 219.625 6.68799C220.777 6.68799 221.812 6.95466 222.729 7.48799C223.668 8.02132 224.372 8.81066 224.841 9.85599C225.183 9.15199 225.641 8.56532 226.217 8.09599C226.793 7.62666 227.433 7.27466 228.137 7.03999C228.841 6.80532 229.556 6.68799 230.281 6.68799C231.327 6.68799 232.276 6.90132 233.129 7.32799C234.004 7.75466 234.697 8.39466 235.209 9.24799C235.721 10.1013 235.977 11.1893 235.977 12.512V23.008H231.593V13.376C231.593 12.2027 231.337 11.3707 230.825 10.88C230.313 10.3893 229.652 10.144 228.841 10.144C228.201 10.144 227.604 10.304 227.049 10.624C226.516 10.944 226.089 11.424 225.769 12.064C225.471 12.6827 225.321 13.4613 225.321 14.4V23.008H220.937V13.376C220.937 12.2027 220.671 11.3707 220.137 10.88C219.625 10.3893 218.964 10.144 218.153 10.144C217.599 10.144 217.044 10.2933 216.489 10.592C215.956 10.8907 215.508 11.36 215.145 12C214.804 12.64 214.633 13.4827 214.633 14.528V23.008H210.249Z" fill="black"/>
<path d="M199.142 23.328C197.457 23.328 195.985 22.9973 194.726 22.336C193.489 21.6747 192.529 20.7253 191.846 19.488C191.163 18.2507 190.822 16.7573 190.822 15.008C190.822 13.2587 191.163 11.7653 191.846 10.528C192.529 9.29066 193.478 8.34132 194.694 7.67999C195.931 7.01866 197.339 6.68799 198.918 6.68799C200.539 6.68799 201.915 7.01866 203.046 7.67999C204.177 8.31999 205.041 9.20532 205.638 10.336C206.235 11.4453 206.534 12.7147 206.534 14.144C206.534 14.5707 206.523 14.976 206.502 15.36C206.481 15.744 206.449 16.0853 206.406 16.384H193.638V13.344H204.486L202.374 14.112C202.374 12.768 202.065 11.7333 201.446 11.008C200.849 10.2827 199.995 9.91999 198.886 9.91999C198.075 9.91999 197.371 10.112 196.774 10.496C196.198 10.88 195.761 11.456 195.462 12.224C195.163 12.9707 195.014 13.92 195.014 15.072C195.014 16.2027 195.174 17.1413 195.494 17.888C195.835 18.6133 196.305 19.1573 196.902 19.52C197.521 19.8827 198.257 20.064 199.11 20.064C200.049 20.064 200.806 19.8827 201.382 19.52C201.958 19.1573 202.406 18.656 202.726 18.016L206.214 19.36C205.873 20.192 205.35 20.9067 204.646 21.504C203.963 22.1013 203.142 22.56 202.182 22.88C201.243 23.1787 200.23 23.328 199.142 23.328Z" fill="black"/>
<path d="M183.632 2.11182V17.7918C183.632 18.5598 183.824 19.1252 184.208 19.4878C184.613 19.8292 185.157 19.9998 185.84 19.9998C186.373 19.9998 186.843 19.9252 187.248 19.7758C187.653 19.6052 188.016 19.3812 188.336 19.1038L189.04 22.0158C188.528 22.4212 187.888 22.7411 187.12 22.9758C186.352 23.2105 185.541 23.3278 184.688 23.3278C183.621 23.3278 182.672 23.1678 181.84 22.8478C181.029 22.5278 180.389 22.0158 179.92 21.3118C179.472 20.6078 179.248 19.6692 179.248 18.4958V3.32782L183.632 2.11182ZM188.752 7.00782V10.2718H176.304V7.00782H188.752Z" fill="black"/>
<path d="M172.926 1.8877V23.0077H168.51V1.8877H172.926Z" fill="black"/>
<path d="M138.468 23.008V7.00799H142.404L142.66 11.808L142.116 11.296C142.372 10.2507 142.777 9.38666 143.332 8.70399C143.887 8.02132 144.559 7.51999 145.348 7.19999C146.159 6.85866 147.044 6.68799 148.004 6.68799C149.113 6.68799 150.095 6.90132 150.948 7.32799C151.823 7.75466 152.505 8.40532 152.996 9.27999C153.508 10.1333 153.764 11.2107 153.764 12.512V23.008H149.38V13.76C149.38 12.3947 149.113 11.456 148.58 10.944C148.047 10.4107 147.353 10.144 146.5 10.144C145.903 10.144 145.316 10.2933 144.74 10.592C144.185 10.8693 143.727 11.328 143.364 11.968C143.023 12.608 142.852 13.4613 142.852 14.528V23.008H138.468Z" fill="black"/>
<path d="M129.213 12.8C129.213 11.8827 128.946 11.168 128.413 10.656C127.901 10.144 127.218 9.88799 126.365 9.88799C125.576 9.88799 124.882 10.0907 124.285 10.496C123.688 10.9013 123.25 11.5733 122.973 12.512L119.229 11.36C119.592 9.95199 120.381 8.82132 121.597 7.96799C122.834 7.11466 124.488 6.68799 126.557 6.68799C127.965 6.68799 129.192 6.91199 130.237 7.35999C131.282 7.78666 132.093 8.43732 132.669 9.31199C133.266 10.1867 133.565 11.2853 133.565 12.608V19.104C133.565 19.9147 133.949 20.32 134.717 20.32C135.08 20.32 135.421 20.2667 135.741 20.16L135.485 22.88C134.93 23.1573 134.237 23.296 133.405 23.296C132.658 23.296 131.986 23.168 131.389 22.912C130.792 22.656 130.322 22.272 129.981 21.76C129.64 21.2267 129.469 20.5653 129.469 19.776V19.648L130.237 19.52C130.109 20.3307 129.757 21.024 129.181 21.6C128.605 22.1547 127.901 22.5813 127.069 22.88C126.258 23.1787 125.416 23.328 124.541 23.328C123.453 23.328 122.514 23.168 121.725 22.848C120.936 22.5067 120.328 22.016 119.901 21.376C119.474 20.736 119.261 19.9467 119.261 19.008C119.261 17.8133 119.645 16.8427 120.413 16.096C121.181 15.328 122.28 14.8053 123.709 14.528L129.725 13.312L129.693 16.032L125.853 16.8C125.128 16.9493 124.573 17.152 124.189 17.408C123.826 17.6427 123.645 18.0373 123.645 18.592C123.645 19.1253 123.837 19.5307 124.221 19.808C124.626 20.0853 125.106 20.224 125.661 20.224C126.109 20.224 126.546 20.1707 126.973 20.064C127.4 19.9573 127.784 19.7867 128.125 19.552C128.466 19.3173 128.733 18.9973 128.925 18.592C129.117 18.1867 129.213 17.696 129.213 17.12V12.8Z" fill="black"/>
<path d="M96.2973 23.328C94.9747 23.328 93.7907 22.9973 92.7453 22.336C91.7213 21.6747 90.9107 20.7253 90.3133 19.488C89.7373 18.2507 89.4493 16.768 89.4493 15.04C89.4493 13.2693 89.7587 11.7653 90.3773 10.528C90.996 9.26933 91.828 8.32 92.8733 7.68C93.94 7.01867 95.1347 6.688 96.4573 6.688C97.8653 6.688 99.028 7.09333 99.9453 7.904C100.863 8.71467 101.46 9.76 101.737 11.04L101.321 11.552V0H105.705V23.008H101.769L101.481 18.144L102.025 18.4C101.876 19.4027 101.535 20.2773 101.001 21.024C100.468 21.7493 99.796 22.3147 98.9853 22.72C98.1747 23.1253 97.2787 23.328 96.2973 23.328ZM97.5773 19.968C98.3453 19.968 99.0067 19.776 99.5613 19.392C100.116 18.9867 100.543 18.4 100.841 17.632C101.161 16.864 101.321 15.9467 101.321 14.88C101.321 13.856 101.172 12.992 100.873 12.288C100.575 11.5627 100.148 11.008 99.5933 10.624C99.0387 10.24 98.388 10.048 97.6413 10.048C96.4467 10.048 95.508 10.4747 94.8253 11.328C94.164 12.16 93.8333 13.3867 93.8333 15.008C93.8333 16.6293 94.164 17.8667 94.8253 18.72C95.4867 19.552 96.404 19.968 97.5773 19.968Z" fill="black"/>
<path d="M81.0568 12.8C81.0568 11.8827 80.7901 11.168 80.2568 10.656C79.7448 10.144 79.0621 9.88799 78.2088 9.88799C77.4194 9.88799 76.7261 10.0907 76.1288 10.496C75.5314 10.9013 75.0941 11.5733 74.8167 12.512L71.0728 11.36C71.4354 9.95199 72.2248 8.82132 73.4408 7.96799C74.6781 7.11466 76.3314 6.68799 78.4007 6.68799C79.8087 6.68799 81.0354 6.91199 82.0807 7.35999C83.1261 7.78666 83.9368 8.43732 84.5128 9.31199C85.1101 10.1867 85.4088 11.2853 85.4088 12.608V19.104C85.4088 19.9147 85.7928 20.32 86.5608 20.32C86.9234 20.32 87.2648 20.2667 87.5848 20.16L87.3288 22.88C86.7741 23.1573 86.0807 23.296 85.2487 23.296C84.5021 23.296 83.8301 23.168 83.2327 22.912C82.6354 22.656 82.1661 22.272 81.8248 21.76C81.4834 21.2267 81.3128 20.5653 81.3128 19.776V19.648L82.0807 19.52C81.9527 20.3307 81.6007 21.024 81.0247 21.6C80.4488 22.1547 79.7448 22.5813 78.9128 22.88C78.1021 23.1787 77.2594 23.328 76.3848 23.328C75.2968 23.328 74.3581 23.168 73.5687 22.848C72.7794 22.5067 72.1714 22.016 71.7448 21.376C71.3181 20.736 71.1048 19.9467 71.1048 19.008C71.1048 17.8133 71.4888 16.8427 72.2568 16.096C73.0248 15.328 74.1234 14.8053 75.5527 14.528L81.5688 13.312L81.5368 16.032L77.6968 16.8C76.9714 16.9493 76.4168 17.152 76.0328 17.408C75.6701 17.6427 75.4888 18.0373 75.4888 18.592C75.4888 19.1253 75.6808 19.5307 76.0648 19.808C76.4701 20.0853 76.9501 20.224 77.5048 20.224C77.9528 20.224 78.3901 20.1707 78.8167 20.064C79.2434 19.9573 79.6274 19.7867 79.9688 19.552C80.3101 19.3173 80.5768 18.9973 80.7688 18.592C80.9608 18.1867 81.0568 17.696 81.0568 17.12V12.8Z" fill="black"/>
<path d="M60.1703 6.68799C61.7916 6.68799 63.2103 7.01866 64.4263 7.67999C65.6636 8.34132 66.6236 9.29066 67.3063 10.528C68.0103 11.7653 68.3623 13.2587 68.3623 15.008C68.3623 16.736 68.0103 18.2293 67.3063 19.488C66.6236 20.7253 65.6636 21.6747 64.4263 22.336C63.2103 22.9973 61.7916 23.328 60.1703 23.328C58.5703 23.328 57.1516 22.9973 55.9143 22.336C54.6769 21.6747 53.7063 20.7253 53.0023 19.488C52.3196 18.2293 51.9783 16.736 51.9783 15.008C51.9783 13.2587 52.3196 11.7653 53.0023 10.528C53.7063 9.29066 54.6769 8.34132 55.9143 7.67999C57.1516 7.01866 58.5703 6.68799 60.1703 6.68799ZM60.1703 9.95199C59.3596 9.95199 58.6663 10.144 58.0903 10.528C57.5356 10.8907 57.1089 11.4453 56.8103 12.192C56.5116 12.9387 56.3623 13.8773 56.3623 15.008C56.3623 16.1387 56.5116 17.0773 56.8103 17.824C57.1089 18.5707 57.5356 19.136 58.0903 19.52C58.6663 19.8827 59.3596 20.064 60.1703 20.064C60.9596 20.064 61.6316 19.8827 62.1863 19.52C62.7623 19.136 63.1996 18.5707 63.4983 17.824C63.7969 17.0773 63.9463 16.1387 63.9463 15.008C63.9463 13.8773 63.7969 12.9387 63.4983 12.192C63.1996 11.4453 62.7623 10.8907 62.1863 10.528C61.6316 10.144 60.9596 9.95199 60.1703 9.95199Z" fill="black"/>
<path d="M46.9756 0V18.08C46.9756 18.8267 47.1036 19.3493 47.3596 19.648C47.6156 19.9467 48.0422 20.096 48.6396 20.096C49.0022 20.096 49.3009 20.0747 49.5355 20.032C49.7702 19.968 50.0689 19.8827 50.4316 19.776L50.0476 22.656C49.6849 22.8693 49.2262 23.0293 48.6716 23.136C48.1382 23.264 47.6049 23.328 47.0716 23.328C45.5142 23.328 44.3729 22.9547 43.6476 22.208C42.9436 21.44 42.5916 20.224 42.5916 18.56V0H46.9756Z" fill="black"/>
<path d="M22.593 29.728V7.00799H26.529L26.817 12.096L26.273 11.52C26.465 10.5813 26.817 9.74932 27.329 9.02399C27.8624 8.29866 28.5343 7.73332 29.345 7.32799C30.1557 6.90132 31.0624 6.68799 32.065 6.68799C33.3664 6.68799 34.529 7.01866 35.553 7.67999C36.577 8.34132 37.377 9.29066 37.953 10.528C38.5504 11.744 38.849 13.2267 38.849 14.976C38.849 16.7253 38.5504 18.2293 37.953 19.488C37.3557 20.7253 36.5344 21.6747 35.489 22.336C34.465 22.9973 33.2917 23.328 31.969 23.328C30.561 23.328 29.3877 22.9333 28.449 22.144C27.5317 21.3547 26.9023 20.3627 26.561 19.168L26.977 18.496V29.728H22.593ZM30.689 19.968C31.8624 19.968 32.7797 19.552 33.441 18.72C34.1237 17.8667 34.465 16.6293 34.465 15.008C34.465 13.3867 34.1344 12.16 33.473 11.328C32.833 10.4747 31.9264 10.048 30.753 10.048C30.0064 10.048 29.345 10.2507 28.769 10.656C28.2143 11.04 27.777 11.6053 27.457 12.352C27.137 13.0773 26.977 13.9627 26.977 15.008C26.977 16.032 27.1263 16.9173 27.425 17.664C27.7237 18.4107 28.1504 18.9867 28.705 19.392C29.281 19.776 29.9424 19.968 30.689 19.968Z" fill="black"/>
<path d="M18.048 1.8877V14.6877C18.048 17.5677 17.28 19.733 15.744 21.1837C14.208 22.613 11.968 23.3277 9.024 23.3277C6.08 23.3277 3.84 22.613 2.304 21.1837C0.768 19.733 0 17.5677 0 14.6877V1.8877H4.416V14.4957C4.416 16.2664 4.78933 17.5784 5.536 18.4317C6.304 19.285 7.46667 19.7117 9.024 19.7117C10.5813 19.7117 11.7333 19.285 12.48 18.4317C13.2267 17.5784 13.6 16.2664 13.6 14.4957V1.8877H18.048Z" fill="black"/>
</svg>
