<svg width="102" height="8" viewBox="0 0 102 8" fill="none" xmlns="http://www.w3.org/2000/svg">
<path d="M99.5051 0.879883V5.91988C99.5051 6.16655 99.5751 6.34988 99.7151 6.46988C99.8551 6.58988 100.035 6.64988 100.255 6.64988C100.448 6.64988 100.615 6.61655 100.755 6.54988C100.895 6.48322 101.022 6.39322 101.135 6.27988L101.415 6.94988C101.262 7.08988 101.078 7.19988 100.865 7.27988C100.658 7.35988 100.418 7.39988 100.145 7.39988C99.8917 7.39988 99.6551 7.35655 99.4351 7.26988C99.2151 7.17655 99.0384 7.03322 98.9051 6.83988C98.7784 6.63988 98.7117 6.37988 98.7051 6.05988V1.09988L99.5051 0.879883ZM101.325 2.29988V2.98988H97.7051V2.29988H101.325Z" fill="#555555"/>
<path d="M96.0687 1.33965C95.8887 1.33965 95.7421 1.28632 95.6287 1.17965C95.5221 1.06632 95.4688 0.919649 95.4688 0.739649C95.4688 0.559649 95.5221 0.416315 95.6287 0.309648C95.7421 0.196315 95.8887 0.139648 96.0687 0.139648C96.2487 0.139648 96.3921 0.196315 96.4987 0.309648C96.6121 0.416315 96.6687 0.559649 96.6687 0.739649C96.6687 0.919649 96.6121 1.06632 96.4987 1.17965C96.3921 1.28632 96.2487 1.33965 96.0687 1.33965ZM96.4688 2.29965V7.29965H95.6687V2.29965H96.4688Z" fill="#555555"/>
<path d="M89.2512 0.879883V5.91988C89.2512 6.16655 89.3212 6.34988 89.4612 6.46988C89.6012 6.58988 89.7812 6.64988 90.0012 6.64988C90.1945 6.64988 90.3612 6.61655 90.5012 6.54988C90.6412 6.48322 90.7678 6.39322 90.8812 6.27988L91.1612 6.94988C91.0078 7.08988 90.8245 7.19988 90.6112 7.27988C90.4045 7.35988 90.1645 7.39988 89.8912 7.39988C89.6378 7.39988 89.4012 7.35655 89.1812 7.26988C88.9612 7.17655 88.7845 7.03322 88.6512 6.83988C88.5245 6.63988 88.4578 6.37988 88.4512 6.05988V1.09988L89.2512 0.879883ZM91.0712 2.29988V2.98988H87.4512V2.29988H91.0712Z" fill="#555555"/>
<path d="M83.7091 7.39981C83.3891 7.39981 83.0858 7.3398 82.7991 7.2198C82.5191 7.0998 82.2891 6.90647 82.1091 6.6398C81.9358 6.36647 81.8491 6.01314 81.8491 5.5798V2.2998H82.6491V5.3698C82.6491 5.87647 82.7591 6.22647 82.9791 6.4198C83.1991 6.60647 83.5091 6.6998 83.9091 6.6998C84.0958 6.6998 84.2791 6.6698 84.4591 6.6098C84.6391 6.54314 84.7991 6.44314 84.9391 6.3098C85.0858 6.16981 85.1991 5.99314 85.2791 5.7798C85.3658 5.56647 85.4091 5.31314 85.4091 5.0198V2.2998H86.2091V7.2998H85.5091L85.4591 6.5398C85.2858 6.8398 85.0491 7.0598 84.7491 7.1998C84.4558 7.33314 84.1091 7.39981 83.7091 7.39981Z" fill="#555555"/>
<path d="M77.9732 2.19971C78.4466 2.19971 78.8632 2.30304 79.2232 2.50971C79.5899 2.71637 79.8766 3.01637 80.0832 3.40971C80.2899 3.79637 80.3932 4.25971 80.3932 4.79971C80.3932 5.33971 80.2899 5.80637 80.0832 6.19971C79.8766 6.58637 79.5899 6.88304 79.2232 7.08971C78.8632 7.29637 78.4466 7.39971 77.9732 7.39971C77.5066 7.39971 77.0899 7.29637 76.7232 7.08971C76.3566 6.88304 76.0699 6.58637 75.8632 6.19971C75.6566 5.80637 75.5532 5.33971 75.5532 4.79971C75.5532 4.25971 75.6566 3.79637 75.8632 3.40971C76.0699 3.01637 76.3566 2.71637 76.7232 2.50971C77.0899 2.30304 77.5066 2.19971 77.9732 2.19971ZM77.9732 2.88971C77.6332 2.88971 77.3432 2.96637 77.1032 3.11971C76.8632 3.27304 76.6766 3.49304 76.5432 3.77971C76.4166 4.05971 76.3532 4.39971 76.3532 4.79971C76.3532 5.19304 76.4166 5.53304 76.5432 5.81971C76.6766 6.10637 76.8632 6.32637 77.1032 6.47971C77.3432 6.63304 77.6332 6.70971 77.9732 6.70971C78.3132 6.70971 78.6032 6.63304 78.8432 6.47971C79.0832 6.32637 79.2666 6.10637 79.3932 5.81971C79.5266 5.53304 79.5932 5.19304 79.5932 4.79971C79.5932 4.39971 79.5266 4.05971 79.3932 3.77971C79.2666 3.49304 79.0832 3.27304 78.8432 3.11971C78.6032 2.96637 78.3132 2.88971 77.9732 2.88971Z" fill="#555555"/>
<path d="M72.0838 7.4C71.8038 7.4 71.5438 7.35 71.3038 7.25C71.0638 7.15 70.8571 7.01 70.6838 6.83C70.5105 6.65 70.3805 6.44667 70.2938 6.22L70.4038 6.08L70.3338 7.3H69.6338V0H70.4338V3.43L70.3338 3.28C70.4671 2.96667 70.6905 2.71 71.0038 2.51C71.3238 2.30333 71.6871 2.2 72.0938 2.2C72.5071 2.2 72.8871 2.30333 73.2338 2.51C73.5805 2.71667 73.8571 3.01333 74.0638 3.4C74.2705 3.78667 74.3738 4.25333 74.3738 4.8C74.3738 5.34 74.2671 5.80667 74.0538 6.2C73.8471 6.58667 73.5705 6.88333 73.2238 7.09C72.8771 7.29667 72.4971 7.4 72.0838 7.4ZM72.0038 6.7C72.4971 6.7 72.8805 6.52667 73.1538 6.18C73.4338 5.83333 73.5738 5.37333 73.5738 4.8C73.5738 4.22667 73.4371 3.76667 73.1638 3.42C72.8905 3.07333 72.5071 2.9 72.0138 2.9C71.7005 2.9 71.4238 2.98 71.1838 3.14C70.9505 3.3 70.7671 3.52333 70.6338 3.81C70.5005 4.09667 70.4338 4.43333 70.4338 4.82C70.4338 5.2 70.4971 5.53333 70.6238 5.82C70.7571 6.1 70.9405 6.31667 71.1738 6.47C71.4138 6.62333 71.6905 6.7 72.0038 6.7Z" fill="#555555"/>
<path d="M66.8894 4.06971C66.8894 3.69637 66.7894 3.40971 66.5894 3.20971C66.3894 3.00304 66.1061 2.89971 65.7394 2.89971C65.3927 2.89971 65.0994 2.97637 64.8594 3.12971C64.6194 3.27637 64.4427 3.51637 64.3294 3.84971L63.6794 3.44971C63.8127 3.07637 64.0594 2.77637 64.4194 2.54971C64.7794 2.31637 65.2261 2.19971 65.7594 2.19971C66.1194 2.19971 66.4461 2.26304 66.7394 2.38971C67.0327 2.50971 67.2627 2.69637 67.4294 2.94971C67.6027 3.19637 67.6894 3.51637 67.6894 3.90971V6.32971C67.6894 6.56971 67.8161 6.68971 68.0694 6.68971C68.1961 6.68971 68.3194 6.67304 68.4394 6.63971L68.3994 7.26971C68.2661 7.33637 68.0928 7.36971 67.8794 7.36971C67.6861 7.36971 67.5127 7.33304 67.3594 7.25971C67.2061 7.18637 67.0861 7.07637 66.9994 6.92971C66.9127 6.77637 66.8694 6.58637 66.8694 6.35971V6.25971L67.0694 6.28971C66.9894 6.54971 66.8527 6.76304 66.6594 6.92971C66.4661 7.08971 66.2494 7.20971 66.0094 7.28971C65.7694 7.36304 65.5327 7.39971 65.2994 7.39971C65.0061 7.39971 64.7327 7.34971 64.4794 7.24971C64.2261 7.14971 64.0227 6.99971 63.8694 6.79971C63.7227 6.59304 63.6494 6.33971 63.6494 6.03971C63.6494 5.66637 63.7728 5.35971 64.0194 5.11971C64.2728 4.87304 64.6227 4.70637 65.0694 4.61971L67.0494 4.22971V4.88971L65.4394 5.21971C65.1127 5.28637 64.8694 5.37971 64.7094 5.49971C64.5494 5.61971 64.4694 5.78637 64.4694 5.99971C64.4694 6.20637 64.5494 6.37637 64.7094 6.50971C64.8761 6.63637 65.1094 6.69971 65.4094 6.69971C65.6027 6.69971 65.7861 6.67637 65.9594 6.62971C66.1394 6.57637 66.2994 6.49971 66.4394 6.39971C66.5794 6.29304 66.6894 6.16304 66.7694 6.00971C66.8494 5.84971 66.8894 5.66304 66.8894 5.44971V4.06971Z" fill="#555555"/>
<path d="M56.8799 7.39971C56.4066 7.39971 55.9833 7.29637 55.6099 7.08971C55.2433 6.88304 54.9566 6.58637 54.7499 6.19971C54.5433 5.80637 54.4399 5.33971 54.4399 4.79971C54.4399 4.25971 54.5433 3.79637 54.7499 3.40971C54.9566 3.01637 55.2399 2.71637 55.5999 2.50971C55.9599 2.30304 56.3699 2.19971 56.8299 2.19971C57.2966 2.19971 57.6933 2.29971 58.0199 2.49971C58.3533 2.69971 58.6066 2.97304 58.7799 3.31971C58.9533 3.65971 59.0399 4.04304 59.0399 4.46971C59.0399 4.58304 59.0366 4.68637 59.0299 4.77971C59.0233 4.87304 59.0133 4.95637 58.9999 5.02971H54.9599V4.31971H58.6499L58.2399 4.39971C58.2399 3.91971 58.1066 3.54971 57.8399 3.28971C57.5799 3.02971 57.2366 2.89971 56.8099 2.89971C56.4833 2.89971 56.1999 2.97637 55.9599 3.12971C55.7266 3.27637 55.5433 3.49304 55.4099 3.77971C55.2833 4.05971 55.2199 4.39971 55.2199 4.79971C55.2199 5.19304 55.2866 5.53304 55.4199 5.81971C55.5533 6.10637 55.7399 6.32637 55.9799 6.47971C56.2266 6.62637 56.5199 6.69971 56.8599 6.69971C57.2266 6.69971 57.5233 6.62971 57.7499 6.48971C57.9833 6.34971 58.1699 6.15971 58.3099 5.91971L58.9399 6.28971C58.8133 6.51637 58.6499 6.71304 58.4499 6.87971C58.2566 7.04637 58.0266 7.17637 57.7599 7.26971C57.4999 7.35637 57.2066 7.39971 56.8799 7.39971Z" fill="#555555"/>
<path d="M50.8643 7.29971V2.29971H51.5143L51.6243 3.11971C51.7643 2.81304 51.9676 2.58304 52.2343 2.42971C52.5076 2.27637 52.8376 2.19971 53.2243 2.19971C53.3109 2.19971 53.4043 2.20637 53.5043 2.21971C53.6109 2.23304 53.7009 2.25971 53.7743 2.29971L53.6343 3.02971C53.5609 3.00304 53.4809 2.98304 53.3943 2.96971C53.3076 2.95637 53.1843 2.94971 53.0243 2.94971C52.8176 2.94971 52.6076 3.00971 52.3943 3.12971C52.1876 3.24971 52.0143 3.43304 51.8743 3.67971C51.7343 3.91971 51.6643 4.22637 51.6643 4.59971V7.29971H50.8643Z" fill="#555555"/>
<path d="M46.9381 2.19971C47.4114 2.19971 47.8281 2.30304 48.1881 2.50971C48.5547 2.71637 48.8414 3.01637 49.0481 3.40971C49.2547 3.79637 49.3581 4.25971 49.3581 4.79971C49.3581 5.33971 49.2547 5.80637 49.0481 6.19971C48.8414 6.58637 48.5547 6.88304 48.1881 7.08971C47.8281 7.29637 47.4114 7.39971 46.9381 7.39971C46.4714 7.39971 46.0547 7.29637 45.6881 7.08971C45.3214 6.88304 45.0347 6.58637 44.8281 6.19971C44.6214 5.80637 44.5181 5.33971 44.5181 4.79971C44.5181 4.25971 44.6214 3.79637 44.8281 3.40971C45.0347 3.01637 45.3214 2.71637 45.6881 2.50971C46.0547 2.30304 46.4714 2.19971 46.9381 2.19971ZM46.9381 2.88971C46.5981 2.88971 46.3081 2.96637 46.0681 3.11971C45.8281 3.27304 45.6414 3.49304 45.5081 3.77971C45.3814 4.05971 45.3181 4.39971 45.3181 4.79971C45.3181 5.19304 45.3814 5.53304 45.5081 5.81971C45.6414 6.10637 45.8281 6.32637 46.0681 6.47971C46.3081 6.63304 46.5981 6.70971 46.9381 6.70971C47.2781 6.70971 47.5681 6.63304 47.8081 6.47971C48.0481 6.32637 48.2314 6.10637 48.3581 5.81971C48.4914 5.53304 48.5581 5.19304 48.5581 4.79971C48.5581 4.39971 48.4914 4.05971 48.3581 3.77971C48.2314 3.49304 48.0481 3.27304 47.8081 3.11971C47.5681 2.96637 47.2781 2.88971 46.9381 2.88971Z" fill="#555555"/>
<path d="M35.3369 7.29971V2.29971H36.0369L36.0869 3.07971C36.2669 2.77304 36.5002 2.54971 36.7869 2.40971C37.0802 2.26971 37.3802 2.19971 37.6869 2.19971C38.0402 2.19971 38.3736 2.27971 38.6869 2.43971C39.0002 2.59971 39.2402 2.84637 39.4069 3.17971C39.5136 2.95304 39.6636 2.76971 39.8569 2.62971C40.0502 2.48304 40.2602 2.37637 40.4869 2.30971C40.7202 2.23637 40.9402 2.19971 41.1469 2.19971C41.4669 2.19971 41.7702 2.26637 42.0569 2.39971C42.3502 2.53304 42.5902 2.73971 42.7769 3.01971C42.9636 3.29971 43.0569 3.65971 43.0569 4.09971V7.29971H42.2569V4.17971C42.2569 3.72637 42.1436 3.39971 41.9169 3.19971C41.6902 2.99971 41.4102 2.89971 41.0769 2.89971C40.8169 2.89971 40.5736 2.96304 40.3469 3.08971C40.1202 3.21637 39.9369 3.40304 39.7969 3.64971C39.6636 3.89637 39.5969 4.19971 39.5969 4.55971V7.29971H38.7969V4.17971C38.7969 3.72637 38.6836 3.39971 38.4569 3.19971C38.2302 2.99971 37.9502 2.89971 37.6169 2.89971C37.3969 2.89971 37.1702 2.95971 36.9369 3.07971C36.7102 3.19304 36.5202 3.37637 36.3669 3.62971C36.2136 3.88304 36.1369 4.21637 36.1369 4.62971V7.29971H35.3369Z" fill="#555555"/>
<path d="M28.455 7.39971C27.9684 7.39971 27.5184 7.29637 27.105 7.08971C26.6984 6.88304 26.385 6.58971 26.165 6.20971L26.845 5.71971C26.9917 6.02637 27.205 6.26637 27.485 6.43971C27.7717 6.61304 28.115 6.69971 28.515 6.69971C28.8684 6.69971 29.145 6.63304 29.345 6.49971C29.545 6.35971 29.645 6.17971 29.645 5.95971C29.645 5.81971 29.5984 5.69304 29.505 5.57971C29.4184 5.45971 29.2484 5.37304 28.995 5.31971L27.795 5.06971C27.3084 4.96971 26.9584 4.80304 26.745 4.56971C26.5384 4.33637 26.435 4.04637 26.435 3.69971C26.435 3.42637 26.5117 3.17637 26.665 2.94971C26.825 2.72304 27.0484 2.54304 27.335 2.40971C27.6284 2.26971 27.9717 2.19971 28.365 2.19971C28.8584 2.19971 29.275 2.29637 29.615 2.48971C29.955 2.68304 30.2084 2.95637 30.375 3.30971L29.705 3.74971C29.5917 3.45637 29.4084 3.24304 29.155 3.10971C28.9017 2.96971 28.6384 2.89971 28.365 2.89971C28.125 2.89971 27.9184 2.93304 27.745 2.99971C27.5784 3.06637 27.4484 3.15971 27.355 3.27971C27.2684 3.39304 27.225 3.52304 27.225 3.66971C27.225 3.81637 27.275 3.95304 27.375 4.07971C27.475 4.19971 27.6617 4.28637 27.935 4.33971L29.185 4.59971C29.6517 4.69304 29.9784 4.84637 30.165 5.05971C30.3517 5.27304 30.445 5.53304 30.445 5.83971C30.445 6.15304 30.3617 6.42971 30.195 6.66971C30.0284 6.90304 29.795 7.08304 29.495 7.20971C29.195 7.33637 28.8484 7.39971 28.455 7.39971Z" fill="#555555"/>
<path d="M22.2931 7.39981C21.9731 7.39981 21.6698 7.3398 21.3831 7.2198C21.1031 7.0998 20.8731 6.90647 20.6931 6.6398C20.5198 6.36647 20.4331 6.01314 20.4331 5.5798V2.2998H21.2331V5.3698C21.2331 5.87647 21.3431 6.22647 21.5631 6.4198C21.7831 6.60647 22.0931 6.6998 22.4931 6.6998C22.6798 6.6998 22.8631 6.6698 23.0431 6.6098C23.2231 6.54314 23.3831 6.44314 23.5231 6.3098C23.6698 6.16981 23.7831 5.99314 23.8631 5.7798C23.9498 5.56647 23.9931 5.31314 23.9931 5.0198V2.2998H24.7931V7.2998H24.0931L24.0431 6.5398C23.8698 6.8398 23.6331 7.0598 23.3331 7.1998C23.0398 7.33314 22.6931 7.39981 22.2931 7.39981Z" fill="#555555"/>
<path d="M15.1301 0V6.03C15.1301 6.28333 15.1767 6.46 15.2701 6.56C15.3634 6.65333 15.5134 6.7 15.7201 6.7C15.8534 6.7 15.9634 6.69 16.0501 6.67C16.1367 6.65 16.2534 6.61333 16.4001 6.56L16.2701 7.26C16.1634 7.30667 16.0467 7.34 15.9201 7.36C15.7934 7.38667 15.6634 7.4 15.5301 7.4C15.1234 7.4 14.8201 7.29 14.6201 7.07C14.4267 6.85 14.3301 6.51333 14.3301 6.06V0H15.1301Z" fill="#555555"/>
<path d="M12.0734 0V6.03C12.0734 6.28333 12.1201 6.46 12.2134 6.56C12.3068 6.65333 12.4568 6.7 12.6634 6.7C12.7968 6.7 12.9068 6.69 12.9934 6.67C13.0801 6.65 13.1968 6.61333 13.3434 6.56L13.2134 7.26C13.1068 7.30667 12.9901 7.34 12.8634 7.36C12.7368 7.38667 12.6068 7.4 12.4734 7.4C12.0668 7.4 11.7634 7.29 11.5634 7.07C11.3701 6.85 11.2734 6.51333 11.2734 6.06V0H12.0734Z" fill="#555555"/>
<path d="M7.63189 7.39971C7.15856 7.39971 6.73523 7.29637 6.36189 7.08971C5.99523 6.88304 5.70856 6.58637 5.50189 6.19971C5.29523 5.80637 5.19189 5.33971 5.19189 4.79971C5.19189 4.25971 5.29523 3.79637 5.50189 3.40971C5.70856 3.01637 5.99189 2.71637 6.35189 2.50971C6.71189 2.30304 7.12189 2.19971 7.58189 2.19971C8.04856 2.19971 8.44523 2.29971 8.77189 2.49971C9.10523 2.69971 9.35856 2.97304 9.53189 3.31971C9.70523 3.65971 9.79189 4.04304 9.79189 4.46971C9.79189 4.58304 9.78856 4.68637 9.78189 4.77971C9.77523 4.87304 9.76523 4.95637 9.75189 5.02971H5.71189V4.31971H9.40189L8.99189 4.39971C8.99189 3.91971 8.85856 3.54971 8.5919 3.28971C8.3319 3.02971 7.98856 2.89971 7.56189 2.89971C7.23523 2.89971 6.95189 2.97637 6.71189 3.12971C6.47856 3.27637 6.29523 3.49304 6.16189 3.77971C6.03523 4.05971 5.97189 4.39971 5.97189 4.79971C5.97189 5.19304 6.03856 5.53304 6.17189 5.81971C6.30523 6.10637 6.49189 6.32637 6.73189 6.47971C6.97856 6.62637 7.27189 6.69971 7.61189 6.69971C7.97856 6.69971 8.27523 6.62971 8.50189 6.48971C8.73523 6.34971 8.92189 6.15971 9.06189 5.91971L9.69189 6.28971C9.56523 6.51637 9.40189 6.71304 9.20189 6.87971C9.00856 7.04637 8.77856 7.17637 8.5119 7.26971C8.2519 7.35637 7.95856 7.39971 7.63189 7.39971Z" fill="#555555"/>
<path d="M5.4 0.699707V1.44971H3.1V7.29971H2.3V1.44971H0V0.699707H5.4Z" fill="#555555"/>
</svg>
