<svg width="133" height="15" viewBox="0 0 133 15" fill="none" xmlns="http://www.w3.org/2000/svg">
<path d="M127.808 14.5799C126.795 14.5799 125.868 14.3999 125.028 14.0399C124.201 13.6799 123.528 13.1733 123.008 12.5199L124.588 10.9199C124.908 11.3999 125.335 11.7933 125.868 12.0999C126.401 12.4066 127.035 12.5599 127.768 12.5599C128.288 12.5599 128.701 12.4866 129.008 12.3399C129.328 12.1799 129.488 11.9333 129.488 11.5999C129.488 11.3866 129.415 11.2066 129.268 11.0599C129.121 10.8999 128.828 10.7733 128.388 10.6799L126.628 10.3199C125.468 10.0799 124.641 9.71993 124.148 9.23993C123.668 8.7466 123.428 8.11327 123.428 7.33993C123.428 6.79327 123.588 6.27993 123.908 5.79993C124.241 5.31993 124.735 4.93326 125.388 4.63993C126.041 4.33326 126.855 4.17993 127.828 4.17993C128.828 4.17993 129.695 4.33993 130.428 4.65993C131.175 4.9666 131.761 5.4266 132.188 6.03993L130.548 7.63993C130.255 7.17327 129.868 6.81993 129.388 6.57993C128.921 6.3266 128.428 6.19993 127.908 6.19993C127.535 6.19993 127.215 6.23993 126.948 6.31993C126.681 6.39993 126.481 6.51327 126.348 6.65993C126.215 6.79327 126.148 6.9666 126.148 7.17993C126.148 7.39327 126.241 7.57993 126.428 7.73993C126.615 7.8866 126.955 8.01327 127.448 8.11993L129.488 8.53993C130.475 8.73993 131.181 9.07993 131.608 9.55993C132.035 10.0266 132.248 10.5933 132.248 11.2599C132.248 11.8999 132.075 12.4733 131.728 12.9799C131.395 13.4733 130.895 13.8666 130.228 14.1599C129.575 14.4399 128.768 14.5799 127.808 14.5799Z" fill="black"/>
<path d="M116.866 14.5799C115.813 14.5799 114.893 14.3733 114.106 13.9599C113.333 13.5466 112.733 12.9533 112.306 12.1799C111.879 11.4066 111.666 10.4733 111.666 9.37993C111.666 8.2866 111.879 7.35327 112.306 6.57993C112.733 5.8066 113.326 5.21327 114.086 4.79993C114.859 4.3866 115.739 4.17993 116.726 4.17993C117.739 4.17993 118.599 4.3866 119.306 4.79993C120.013 5.19993 120.553 5.75327 120.926 6.45993C121.299 7.15327 121.486 7.9466 121.486 8.83993C121.486 9.1066 121.479 9.35993 121.466 9.59993C121.453 9.83993 121.433 10.0533 121.406 10.2399H113.426V8.33993H120.206L118.886 8.81993C118.886 7.97993 118.693 7.33326 118.306 6.87993C117.933 6.4266 117.399 6.19993 116.706 6.19993C116.199 6.19993 115.759 6.31993 115.386 6.55993C115.026 6.79993 114.753 7.15993 114.566 7.63993C114.379 8.1066 114.286 8.69993 114.286 9.41993C114.286 10.1266 114.386 10.7133 114.586 11.1799C114.799 11.6333 115.093 11.9733 115.466 12.1999C115.853 12.4266 116.313 12.5399 116.846 12.5399C117.433 12.5399 117.906 12.4266 118.266 12.1999C118.626 11.9733 118.906 11.6599 119.106 11.2599L121.286 12.0999C121.073 12.6199 120.746 13.0666 120.306 13.4399C119.879 13.8133 119.366 14.0999 118.766 14.2999C118.179 14.4866 117.546 14.5799 116.866 14.5799Z" fill="black"/>
<path d="M107.172 1.31982V11.1198C107.172 11.5998 107.292 11.9532 107.532 12.1798C107.786 12.3932 108.126 12.4998 108.552 12.4998C108.886 12.4998 109.179 12.4532 109.432 12.3598C109.686 12.2532 109.912 12.1132 110.112 11.9398L110.552 13.7598C110.232 14.0132 109.832 14.2132 109.352 14.3598C108.872 14.5065 108.366 14.5798 107.832 14.5798C107.166 14.5798 106.572 14.4798 106.052 14.2798C105.546 14.0798 105.146 13.7598 104.852 13.3198C104.572 12.8798 104.432 12.2932 104.432 11.5598V2.07983L107.172 1.31982ZM110.372 4.37983V6.41982H102.592V4.37983H110.372Z" fill="black"/>
<path d="M98.2385 7.99993C98.2385 7.4266 98.0719 6.97993 97.7385 6.65993C97.4185 6.33993 96.9919 6.17993 96.4585 6.17993C95.9652 6.17993 95.5319 6.3066 95.1585 6.55993C94.7852 6.81327 94.5119 7.23327 94.3385 7.81993L91.9985 7.09993C92.2252 6.21993 92.7185 5.51327 93.4785 4.97993C94.2519 4.4466 95.2852 4.17993 96.5785 4.17993C97.4585 4.17993 98.2252 4.31993 98.8785 4.59993C99.5319 4.8666 100.039 5.27327 100.399 5.81993C100.772 6.3666 100.959 7.05327 100.959 7.87993V11.9399C100.959 12.4466 101.199 12.6999 101.679 12.6999C101.905 12.6999 102.119 12.6666 102.319 12.5999L102.159 14.2999C101.812 14.4733 101.379 14.5599 100.859 14.5599C100.392 14.5599 99.9719 14.4799 99.5985 14.3199C99.2252 14.1599 98.9319 13.9199 98.7185 13.5999C98.5052 13.2666 98.3985 12.8533 98.3985 12.3599V12.2799L98.8785 12.1999C98.7985 12.7066 98.5785 13.1399 98.2185 13.4999C97.8585 13.8466 97.4185 14.1133 96.8985 14.2999C96.3919 14.4866 95.8652 14.5799 95.3185 14.5799C94.6385 14.5799 94.0519 14.4799 93.5585 14.2799C93.0652 14.0666 92.6852 13.7599 92.4185 13.3599C92.1519 12.9599 92.0185 12.4666 92.0185 11.8799C92.0185 11.1333 92.2585 10.5266 92.7385 10.0599C93.2185 9.57993 93.9052 9.25327 94.7985 9.07993L98.5585 8.31993L98.5385 10.0199L96.1385 10.4999C95.6852 10.5933 95.3385 10.7199 95.0985 10.8799C94.8719 11.0266 94.7585 11.2733 94.7585 11.6199C94.7585 11.9533 94.8785 12.2066 95.1185 12.3799C95.3719 12.5533 95.6719 12.6399 96.0185 12.6399C96.2985 12.6399 96.5719 12.6066 96.8385 12.5399C97.1052 12.4733 97.3452 12.3666 97.5585 12.2199C97.7719 12.0733 97.9385 11.8733 98.0585 11.6199C98.1785 11.3666 98.2385 11.0599 98.2385 10.6999V7.99993Z" fill="black"/>
<path d="M87.3871 1.31982V11.1198C87.3871 11.5998 87.5071 11.9532 87.7471 12.1798C88.0005 12.3932 88.3405 12.4998 88.7671 12.4998C89.1005 12.4998 89.3938 12.4532 89.6471 12.3598C89.9005 12.2532 90.1271 12.1132 90.3271 11.9398L90.7671 13.7598C90.4471 14.0132 90.0471 14.2132 89.5671 14.3598C89.0871 14.5065 88.5805 14.5798 88.0471 14.5798C87.3805 14.5798 86.7871 14.4798 86.2671 14.2798C85.7605 14.0798 85.3605 13.7598 85.0671 13.3198C84.7871 12.8798 84.6471 12.2932 84.6471 11.5598V2.07983L87.3871 1.31982ZM90.5871 4.37983V6.41982H82.8071V4.37983H90.5871Z" fill="black"/>
<path d="M76.0762 0.97998C77.2762 0.97998 78.3295 1.18665 79.2362 1.59998C80.1428 2.01331 80.9162 2.62665 81.5562 3.43998L80.0162 5.21998C79.4695 4.52665 78.8695 4.01998 78.2162 3.69998C77.5762 3.36665 76.8295 3.19998 75.9762 3.19998C75.4162 3.19998 74.9495 3.27331 74.5762 3.41998C74.2162 3.56665 73.9495 3.75998 73.7762 3.99998C73.6162 4.23998 73.5362 4.50665 73.5362 4.79998C73.5362 5.15998 73.6762 5.46665 73.9562 5.71998C74.2362 5.95998 74.7162 6.15998 75.3962 6.31998L77.8562 6.87998C79.1628 7.17331 80.0962 7.61331 80.6562 8.19998C81.2295 8.77331 81.5162 9.51998 81.5162 10.44C81.5162 11.3066 81.2895 12.0533 80.8362 12.68C80.3828 13.2933 79.7495 13.7666 78.9362 14.1C78.1228 14.42 77.1895 14.58 76.1362 14.58C75.2162 14.58 74.3695 14.4733 73.5962 14.26C72.8362 14.0333 72.1562 13.7266 71.5562 13.34C70.9562 12.9533 70.4562 12.5066 70.0562 12L71.6162 10.14C71.9228 10.5666 72.3028 10.9466 72.7562 11.28C73.2095 11.6133 73.7228 11.88 74.2962 12.08C74.8828 12.2666 75.4962 12.36 76.1362 12.36C76.6828 12.36 77.1428 12.3 77.5162 12.18C77.9028 12.0466 78.1895 11.8666 78.3762 11.64C78.5762 11.4 78.6762 11.1133 78.6762 10.78C78.6762 10.4333 78.5562 10.14 78.3162 9.89998C78.0895 9.64665 77.6628 9.45331 77.0362 9.31998L74.3562 8.71998C73.5828 8.53331 72.9162 8.29331 72.3562 7.99998C71.8095 7.69331 71.3895 7.30665 71.0962 6.83998C70.8162 6.35998 70.6762 5.79331 70.6762 5.13998C70.6762 4.35331 70.8895 3.64665 71.3162 3.01998C71.7428 2.39331 72.3562 1.89998 73.1562 1.53998C73.9695 1.16665 74.9428 0.97998 76.0762 0.97998Z" fill="black"/>
<path d="M56.1037 14.58C55.2771 14.58 54.5371 14.3733 53.8837 13.96C53.2437 13.5467 52.7371 12.9533 52.3637 12.18C52.0037 11.4067 51.8237 10.48 51.8237 9.4C51.8237 8.29333 52.0171 7.35333 52.4037 6.58C52.7904 5.79333 53.3104 5.2 53.9637 4.8C54.6304 4.38667 55.3771 4.18 56.2037 4.18C57.0837 4.18 57.8104 4.43333 58.3837 4.94C58.9571 5.44667 59.3304 6.1 59.5037 6.9L59.2437 7.22V0H61.9837V14.38H59.5237L59.3437 11.34L59.6837 11.5C59.5904 12.1267 59.3771 12.6733 59.0437 13.14C58.7104 13.5933 58.2904 13.9467 57.7837 14.2C57.2771 14.4533 56.7171 14.58 56.1037 14.58ZM56.9037 12.48C57.3837 12.48 57.7971 12.36 58.1437 12.12C58.4904 11.8667 58.7571 11.5 58.9437 11.02C59.1437 10.54 59.2437 9.96667 59.2437 9.3C59.2437 8.66 59.1504 8.12 58.9637 7.68C58.7771 7.22667 58.5104 6.88 58.1637 6.64C57.8171 6.4 57.4104 6.28 56.9437 6.28C56.1971 6.28 55.6104 6.54667 55.1837 7.08C54.7704 7.6 54.5637 8.36667 54.5637 9.38C54.5637 10.3933 54.7704 11.1667 55.1837 11.7C55.5971 12.22 56.1704 12.48 56.9037 12.48Z" fill="black"/>
<path d="M45.3816 14.5799C44.3283 14.5799 43.4083 14.3733 42.6216 13.9599C41.8483 13.5466 41.2483 12.9533 40.8216 12.1799C40.395 11.4066 40.1816 10.4733 40.1816 9.37993C40.1816 8.2866 40.395 7.35327 40.8216 6.57993C41.2483 5.8066 41.8416 5.21327 42.6016 4.79993C43.375 4.3866 44.255 4.17993 45.2416 4.17993C46.255 4.17993 47.115 4.3866 47.8216 4.79993C48.5283 5.19993 49.0683 5.75327 49.4416 6.45993C49.815 7.15327 50.0016 7.9466 50.0016 8.83993C50.0016 9.1066 49.995 9.35993 49.9816 9.59993C49.9683 9.83993 49.9483 10.0533 49.9216 10.2399H41.9416V8.33993H48.7216L47.4016 8.81993C47.4016 7.97993 47.2083 7.33326 46.8216 6.87993C46.4483 6.4266 45.915 6.19993 45.2216 6.19993C44.715 6.19993 44.275 6.31993 43.9016 6.55993C43.5416 6.79993 43.2683 7.15993 43.0816 7.63993C42.895 8.1066 42.8016 8.69993 42.8016 9.41993C42.8016 10.1266 42.9016 10.7133 43.1016 11.1799C43.315 11.6333 43.6083 11.9733 43.9816 12.1999C44.3683 12.4266 44.8283 12.5399 45.3616 12.5399C45.9483 12.5399 46.4216 12.4266 46.7816 12.1999C47.1416 11.9733 47.4216 11.6599 47.6216 11.2599L49.8016 12.0999C49.5883 12.6199 49.2616 13.0666 48.8216 13.4399C48.395 13.8133 47.8816 14.0999 47.2816 14.2999C46.695 14.4866 46.0616 14.5799 45.3816 14.5799Z" fill="black"/>
<path d="M35.6879 1.31982V11.1198C35.6879 11.5998 35.8079 11.9532 36.0479 12.1798C36.3012 12.3932 36.6412 12.4998 37.0679 12.4998C37.4012 12.4998 37.6946 12.4532 37.9479 12.3598C38.2012 12.2532 38.4279 12.1132 38.6279 11.9398L39.0679 13.7598C38.7479 14.0132 38.3479 14.2132 37.8679 14.3598C37.3879 14.5065 36.8812 14.5798 36.3479 14.5798C35.6812 14.5798 35.0879 14.4798 34.5679 14.2798C34.0612 14.0798 33.6612 13.7598 33.3679 13.3198C33.0879 12.8798 32.9479 12.2932 32.9479 11.5598V2.07983L35.6879 1.31982ZM38.8879 4.37983V6.41982H31.1079V4.37983H38.8879Z" fill="black"/>
<path d="M27.8836 2.94C27.3103 2.94 26.8836 2.82 26.6036 2.58C26.3236 2.32667 26.1836 1.96 26.1836 1.48C26.1836 0.986667 26.3236 0.62 26.6036 0.38C26.8836 0.126667 27.3103 0 27.8836 0C28.4569 0 28.8836 0.126667 29.1636 0.38C29.4436 0.62 29.5836 0.986667 29.5836 1.48C29.5836 1.96 29.4436 2.32667 29.1636 2.58C28.8836 2.82 28.4569 2.94 27.8836 2.94ZM29.2436 4.38V14.38H26.5036V4.38H29.2436Z" fill="black"/>
<path d="M14.1206 14.3799V4.37993H16.5806L16.7406 7.37993L16.4006 7.05993C16.5606 6.4066 16.8139 5.8666 17.1606 5.43993C17.5073 5.01327 17.9273 4.69993 18.4206 4.49993C18.9273 4.2866 19.4806 4.17993 20.0806 4.17993C20.7739 4.17993 21.3873 4.31326 21.9206 4.57993C22.4673 4.8466 22.8939 5.25327 23.2006 5.79993C23.5206 6.33327 23.6806 7.0066 23.6806 7.81993V14.3799H20.9406V8.59993C20.9406 7.7466 20.7739 7.15993 20.4406 6.83993C20.1073 6.5066 19.6739 6.33993 19.1406 6.33993C18.7673 6.33993 18.4006 6.43327 18.0406 6.61993C17.6939 6.79327 17.4073 7.07993 17.1806 7.47993C16.9673 7.87993 16.8606 8.41327 16.8606 9.07993V14.3799H14.1206Z" fill="black"/>
<path d="M11.28 1.17993V9.17993C11.28 10.9799 10.8 12.3333 9.84 13.2399C8.88 14.1333 7.48 14.5799 5.64 14.5799C3.8 14.5799 2.4 14.1333 1.44 13.2399C0.48 12.3333 0 10.9799 0 9.17993V1.17993H2.76V9.05993C2.76 10.1666 2.99333 10.9866 3.46 11.5199C3.94 12.0533 4.66667 12.3199 5.64 12.3199C6.61333 12.3199 7.33333 12.0533 7.8 11.5199C8.26667 10.9866 8.5 10.1666 8.5 9.05993V1.17993H11.28Z" fill="black"/>
</svg>
