<svg width="296" height="50" viewBox="0 0 296 50" fill="none" xmlns="http://www.w3.org/2000/svg">
<path d="M0 0H296V50H0V0Z" fill="white"/>
<path d="M70.3706 19.9399V29.7399C70.3706 30.2199 70.4906 30.5733 70.7306 30.7999C70.984 31.0133 71.324 31.1199 71.7506 31.1199C72.084 31.1199 72.3773 31.0733 72.6306 30.9799C72.884 30.8733 73.1106 30.7333 73.3106 30.5599L73.7506 32.3799C73.4306 32.6333 73.0306 32.8333 72.5506 32.9799C72.0706 33.1266 71.564 33.1999 71.0306 33.1999C70.364 33.1999 69.7706 33.0999 69.2506 32.8999C68.744 32.6999 68.344 32.3799 68.0506 31.9399C67.7706 31.4999 67.6306 30.9133 67.6306 30.1799V20.6999L70.3706 19.9399ZM73.5706 22.9999V25.0399H65.7906V22.9999H73.5706Z" fill="black"/>
<path d="M58.7642 32.9998V22.9998H61.1442L61.3242 24.9598C61.5908 24.2665 61.9775 23.7331 62.4842 23.3598C63.0042 22.9865 63.6508 22.7998 64.4242 22.7998C64.6508 22.7998 64.8575 22.8198 65.0442 22.8598C65.2308 22.8998 65.3842 22.9531 65.5042 23.0198L65.1842 25.3198C65.0508 25.2665 64.8842 25.2265 64.6842 25.1998C64.4975 25.1731 64.2508 25.1598 63.9442 25.1598C63.5442 25.1598 63.1575 25.2598 62.7842 25.4598C62.4108 25.6465 62.1042 25.9398 61.8642 26.3398C61.6242 26.7265 61.5042 27.2198 61.5042 27.8198V32.9998H58.7642Z" fill="black"/>
<path d="M51.3516 22.7998C52.3649 22.7998 53.2516 23.0065 54.0116 23.4198C54.7849 23.8331 55.3849 24.4265 55.8116 25.1998C56.2516 25.9731 56.4716 26.9065 56.4716 27.9998C56.4716 29.0798 56.2516 30.0131 55.8116 30.7998C55.3849 31.5731 54.7849 32.1665 54.0116 32.5798C53.2516 32.9931 52.3649 33.1998 51.3516 33.1998C50.3516 33.1998 49.4649 32.9931 48.6916 32.5798C47.9182 32.1665 47.3116 31.5731 46.8716 30.7998C46.4449 30.0131 46.2316 29.0798 46.2316 27.9998C46.2316 26.9065 46.4449 25.9731 46.8716 25.1998C47.3116 24.4265 47.9182 23.8331 48.6916 23.4198C49.4649 23.0065 50.3516 22.7998 51.3516 22.7998ZM51.3516 24.8398C50.8449 24.8398 50.4116 24.9598 50.0516 25.1998C49.7049 25.4265 49.4382 25.7731 49.2516 26.2398C49.0649 26.7065 48.9716 27.2931 48.9716 27.9998C48.9716 28.7065 49.0649 29.2931 49.2516 29.7598C49.4382 30.2265 49.7049 30.5798 50.0516 30.8198C50.4116 31.0465 50.8449 31.1598 51.3516 31.1598C51.8449 31.1598 52.2649 31.0465 52.6116 30.8198C52.9716 30.5798 53.2449 30.2265 53.4316 29.7598C53.6182 29.2931 53.7116 28.7065 53.7116 27.9998C53.7116 27.2931 53.6182 26.7065 53.4316 26.2398C53.2449 25.7731 52.9716 25.4265 52.6116 25.1998C52.2649 24.9598 51.8449 24.8398 51.3516 24.8398Z" fill="black"/>
<path d="M34.2524 37.1998V22.9998H36.7124L36.8924 26.1798L36.5524 25.8198C36.6724 25.2331 36.8924 24.7131 37.2124 24.2598C37.5458 23.8065 37.9658 23.4531 38.4724 23.1998C38.9791 22.9331 39.5458 22.7998 40.1724 22.7998C40.9858 22.7998 41.7124 23.0065 42.3524 23.4198C42.9924 23.8331 43.4924 24.4265 43.8524 25.1998C44.2258 25.9598 44.4124 26.8865 44.4124 27.9798C44.4124 29.0731 44.2258 30.0131 43.8524 30.7998C43.4791 31.5731 42.9658 32.1665 42.3124 32.5798C41.6724 32.9931 40.9391 33.1998 40.1124 33.1998C39.2324 33.1998 38.4991 32.9531 37.9124 32.4598C37.3391 31.9665 36.9458 31.3465 36.7324 30.5998L36.9924 30.1798V37.1998H34.2524ZM39.3124 31.0998C40.0458 31.0998 40.6191 30.8398 41.0324 30.3198C41.4591 29.7865 41.6724 29.0131 41.6724 27.9998C41.6724 26.9865 41.4658 26.2198 41.0524 25.6998C40.6524 25.1665 40.0858 24.8998 39.3524 24.8998C38.8858 24.8998 38.4724 25.0265 38.1124 25.2798C37.7658 25.5198 37.4924 25.8731 37.2924 26.3398C37.0924 26.7931 36.9924 27.3465 36.9924 27.9998C36.9924 28.6398 37.0858 29.1931 37.2724 29.6598C37.4591 30.1265 37.7258 30.4865 38.0724 30.7398C38.4324 30.9798 38.8458 31.0998 39.3124 31.0998Z" fill="black"/>
<path d="M26.54 19.6001C27.74 19.6001 28.7934 19.8068 29.7 20.2201C30.6067 20.6334 31.38 21.2468 32.02 22.0601L30.48 23.8401C29.9334 23.1468 29.3334 22.6401 28.68 22.3201C28.04 21.9868 27.2934 21.8201 26.44 21.8201C25.88 21.8201 25.4134 21.8934 25.04 22.0401C24.68 22.1868 24.4134 22.3801 24.24 22.6201C24.08 22.8601 24 23.1268 24 23.4201C24 23.7801 24.14 24.0868 24.42 24.3401C24.7 24.5801 25.18 24.7801 25.86 24.9401L28.32 25.5001C29.6267 25.7934 30.56 26.2334 31.12 26.8201C31.6934 27.3934 31.98 28.1401 31.98 29.0601C31.98 29.9268 31.7534 30.6734 31.3 31.3001C30.8467 31.9134 30.2134 32.3868 29.4 32.7201C28.5867 33.0401 27.6534 33.2001 26.6 33.2001C25.68 33.2001 24.8334 33.0934 24.06 32.8801C23.3 32.6534 22.62 32.3468 22.02 31.9601C21.42 31.5734 20.92 31.1268 20.52 30.6201L22.08 28.7601C22.3867 29.1868 22.7667 29.5668 23.22 29.9001C23.6734 30.2334 24.1867 30.5001 24.76 30.7001C25.3467 30.8868 25.96 30.9801 26.6 30.9801C27.1467 30.9801 27.6067 30.9201 27.98 30.8001C28.3667 30.6668 28.6534 30.4868 28.84 30.2601C29.04 30.0201 29.14 29.7334 29.14 29.4001C29.14 29.0534 29.02 28.7601 28.78 28.5201C28.5534 28.2668 28.1267 28.0734 27.5 27.9401L24.82 27.3401C24.0467 27.1534 23.38 26.9134 22.82 26.6201C22.2734 26.3134 21.8534 25.9268 21.56 25.4601C21.28 24.9801 21.14 24.4134 21.14 23.7601C21.14 22.9734 21.3534 22.2668 21.78 21.6401C22.2067 21.0134 22.82 20.5201 23.62 20.1601C24.4334 19.7868 25.4067 19.6001 26.54 19.6001Z" fill="black"/>
</svg>
