<svg width="25" height="25" viewBox="0 0 25 25" fill="none" xmlns="http://www.w3.org/2000/svg">
<path d="M19.7917 10.4165V12.4998C19.7917 14.4337 19.0235 16.2884 17.656 17.6558C16.2886 19.0233 14.4339 19.7915 12.5 19.7915M12.5 19.7915C10.5662 19.7915 8.71151 19.0233 7.34405 17.6558C5.9766 16.2884 5.20837 14.4337 5.20837 12.4998V10.4165M12.5 19.7915V23.9582M8.33337 23.9582H16.6667M12.5 1.0415C11.6712 1.0415 10.8764 1.37074 10.2903 1.9568C9.70428 2.54285 9.37504 3.3377 9.37504 4.1665V12.4998C9.37504 13.3286 9.70428 14.1235 10.2903 14.7095C10.8764 15.2956 11.6712 15.6248 12.5 15.6248C13.3288 15.6248 14.1237 15.2956 14.7097 14.7095C15.2958 14.1235 15.625 13.3286 15.625 12.4998V4.1665C15.625 3.3377 15.2958 2.54285 14.7097 1.9568C14.1237 1.37074 13.3288 1.0415 12.5 1.0415Z" stroke="#1E1E1E" stroke-width="1.6" stroke-linecap="round" stroke-linejoin="round"/>
</svg>
