<svg width="300" height="300" viewBox="0 0 300 300" fill="none" xmlns="http://www.w3.org/2000/svg">
<path d="M0 0H300V300H0V0Z" fill="#D9D9D9"/>
<path d="M8 13C8 10.2386 10.2386 8 13 8H287C289.761 8 292 10.2386 292 13V185C292 187.761 289.761 190 287 190H13C10.2386 190 8 187.761 8 185V13Z" fill="white"/>
<path d="M8 201C8 198.239 10.2386 196 13 196H287C289.761 196 292 198.239 292 201V285C292 287.761 289.761 290 287 290H13C10.2386 290 8 287.761 8 285V201Z" fill="#868686"/>
<path d="M172.781 94.7998C173.795 94.7998 174.681 95.0065 175.441 95.4198C176.215 95.8331 176.815 96.4265 177.241 97.1998C177.681 97.9731 177.901 98.9065 177.901 99.9998C177.901 101.08 177.681 102.013 177.241 102.8C176.815 103.573 176.215 104.166 175.441 104.58C174.681 104.993 173.795 105.2 172.781 105.2C171.781 105.2 170.895 104.993 170.121 104.58C169.348 104.166 168.741 103.573 168.301 102.8C167.875 102.013 167.661 101.08 167.661 99.9998C167.661 98.9065 167.875 97.9731 168.301 97.1998C168.741 96.4265 169.348 95.8331 170.121 95.4198C170.895 95.0065 171.781 94.7998 172.781 94.7998ZM172.781 96.8398C172.275 96.8398 171.841 96.9598 171.481 97.1998C171.135 97.4265 170.868 97.7731 170.681 98.2398C170.495 98.7065 170.401 99.2931 170.401 99.9998C170.401 100.706 170.495 101.293 170.681 101.76C170.868 102.226 171.135 102.58 171.481 102.82C171.841 103.046 172.275 103.16 172.781 103.16C173.275 103.16 173.695 103.046 174.041 102.82C174.401 102.58 174.675 102.226 174.861 101.76C175.048 101.293 175.141 100.706 175.141 99.9998C175.141 99.2931 175.048 98.7065 174.861 98.2398C174.675 97.7731 174.401 97.4265 174.041 97.1998C173.695 96.9598 173.275 96.8398 172.781 96.8398Z" fill="black"/>
<path d="M163.167 91.9399V101.74C163.167 102.22 163.287 102.573 163.527 102.8C163.781 103.013 164.121 103.12 164.547 103.12C164.881 103.12 165.174 103.073 165.427 102.98C165.681 102.873 165.907 102.733 166.107 102.56L166.547 104.38C166.227 104.633 165.827 104.833 165.347 104.98C164.867 105.127 164.361 105.2 163.827 105.2C163.161 105.2 162.567 105.1 162.047 104.9C161.541 104.7 161.141 104.38 160.847 103.94C160.567 103.5 160.427 102.913 160.427 102.18V92.6999L163.167 91.9399ZM166.367 94.9999V97.0399H158.587V94.9999H166.367Z" fill="black"/>
<path d="M152.313 94.7998C153.326 94.7998 154.213 95.0065 154.973 95.4198C155.746 95.8331 156.346 96.4265 156.773 97.1998C157.213 97.9731 157.433 98.9065 157.433 99.9998C157.433 101.08 157.213 102.013 156.773 102.8C156.346 103.573 155.746 104.166 154.973 104.58C154.213 104.993 153.326 105.2 152.313 105.2C151.313 105.2 150.426 104.993 149.653 104.58C148.879 104.166 148.273 103.573 147.833 102.8C147.406 102.013 147.193 101.08 147.193 99.9998C147.193 98.9065 147.406 97.9731 147.833 97.1998C148.273 96.4265 148.879 95.8331 149.653 95.4198C150.426 95.0065 151.313 94.7998 152.313 94.7998ZM152.313 96.8398C151.806 96.8398 151.373 96.9598 151.013 97.1998C150.666 97.4265 150.399 97.7731 150.213 98.2398C150.026 98.7065 149.933 99.2931 149.933 99.9998C149.933 100.706 150.026 101.293 150.213 101.76C150.399 102.226 150.666 102.58 151.013 102.82C151.373 103.046 151.806 103.16 152.313 103.16C152.806 103.16 153.226 103.046 153.573 102.82C153.933 102.58 154.206 102.226 154.393 101.76C154.579 101.293 154.673 100.706 154.673 99.9998C154.673 99.2931 154.579 98.7065 154.393 98.2398C154.206 97.7731 153.933 97.4265 153.573 97.1998C153.226 96.9598 152.806 96.8398 152.313 96.8398Z" fill="black"/>
<path d="M135.37 105V90.6201H138.11V96.7001C138.43 96.0601 138.87 95.5868 139.43 95.2801C139.99 94.9601 140.623 94.8001 141.33 94.8001C142.023 94.8001 142.636 94.9335 143.17 95.2001C143.716 95.4668 144.143 95.8735 144.45 96.4201C144.77 96.9535 144.93 97.6268 144.93 98.4401V105H142.19V99.2401C142.19 98.3735 142.023 97.7801 141.69 97.4601C141.356 97.1268 140.93 96.9601 140.41 96.9601C140.023 96.9601 139.65 97.0535 139.29 97.2401C138.943 97.4135 138.656 97.7068 138.43 98.1201C138.216 98.5201 138.11 99.0535 138.11 99.7201V105H135.37Z" fill="black"/>
<path d="M128.26 91.7998C129.273 91.7998 130.14 91.9731 130.86 92.3198C131.58 92.6531 132.133 93.1398 132.52 93.7798C132.92 94.4065 133.12 95.1665 133.12 96.0598C133.12 96.9531 132.92 97.7198 132.52 98.3598C132.133 98.9865 131.58 99.4731 130.86 99.8198C130.14 100.153 129.273 100.32 128.26 100.32H125.48V105H122.72V91.7998H128.26ZM127.84 98.1398C128.667 98.1398 129.287 97.9665 129.7 97.6198C130.113 97.2598 130.32 96.7398 130.32 96.0598C130.32 95.3665 130.113 94.8465 129.7 94.4998C129.287 94.1531 128.667 93.9798 127.84 93.9798H125.48V98.1398H127.84Z" fill="black"/>
<path d="M132.307 221.2C131.253 221.2 130.333 220.993 129.547 220.58C128.773 220.166 128.173 219.573 127.747 218.8C127.32 218.026 127.107 217.093 127.107 216C127.107 214.906 127.32 213.973 127.747 213.2C128.173 212.426 128.767 211.833 129.527 211.42C130.3 211.006 131.18 210.8 132.167 210.8C133.18 210.8 134.04 211.006 134.747 211.42C135.453 211.82 135.993 212.373 136.367 213.08C136.74 213.773 136.927 214.566 136.927 215.46C136.927 215.726 136.92 215.98 136.907 216.22C136.893 216.46 136.873 216.673 136.847 216.86H128.867V214.96H135.647L134.327 215.44C134.327 214.6 134.133 213.953 133.747 213.5C133.373 213.046 132.84 212.82 132.147 212.82C131.64 212.82 131.2 212.94 130.827 213.18C130.467 213.42 130.193 213.78 130.007 214.26C129.82 214.726 129.727 215.32 129.727 216.04C129.727 216.746 129.827 217.333 130.027 217.8C130.24 218.253 130.533 218.593 130.907 218.82C131.293 219.046 131.753 219.16 132.287 219.16C132.873 219.16 133.347 219.046 133.707 218.82C134.067 218.593 134.347 218.28 134.547 217.88L136.727 218.72C136.513 219.24 136.187 219.686 135.747 220.06C135.32 220.433 134.807 220.72 134.207 220.92C133.62 221.106 132.987 221.2 132.307 221.2Z" fill="white"/>
<path d="M123.98 206.62V217.92C123.98 218.387 124.06 218.713 124.22 218.9C124.38 219.087 124.647 219.18 125.02 219.18C125.247 219.18 125.433 219.167 125.58 219.14C125.727 219.1 125.913 219.047 126.14 218.98L125.9 220.78C125.673 220.913 125.386 221.013 125.04 221.08C124.706 221.16 124.373 221.2 124.04 221.2C123.066 221.2 122.353 220.967 121.9 220.5C121.46 220.02 121.24 219.26 121.24 218.22V206.62H123.98Z" fill="white"/>
<path d="M116.226 207.94V217.74C116.226 218.22 116.346 218.573 116.586 218.8C116.839 219.013 117.179 219.12 117.606 219.12C117.939 219.12 118.233 219.073 118.486 218.98C118.739 218.873 118.966 218.733 119.166 218.56L119.606 220.38C119.286 220.633 118.886 220.833 118.406 220.98C117.926 221.127 117.419 221.2 116.886 221.2C116.219 221.2 115.626 221.1 115.106 220.9C114.599 220.7 114.199 220.38 113.906 219.94C113.626 219.5 113.486 218.913 113.486 218.18V208.7L116.226 207.94ZM119.426 211V213.04H111.646V211H119.426Z" fill="white"/>
<path d="M108.422 209.56C107.848 209.56 107.422 209.44 107.142 209.2C106.862 208.947 106.722 208.58 106.722 208.1C106.722 207.607 106.862 207.24 107.142 207C107.422 206.747 107.848 206.62 108.422 206.62C108.995 206.62 109.422 206.747 109.702 207C109.982 207.24 110.122 207.607 110.122 208.1C110.122 208.58 109.982 208.947 109.702 209.2C109.422 209.44 108.995 209.56 108.422 209.56ZM109.782 211V221H107.042V211H109.782Z" fill="white"/>
<path d="M101.988 207.94V217.74C101.988 218.22 102.108 218.573 102.348 218.8C102.601 219.013 102.941 219.12 103.368 219.12C103.701 219.12 103.994 219.073 104.248 218.98C104.501 218.873 104.728 218.733 104.928 218.56L105.368 220.38C105.048 220.633 104.648 220.833 104.168 220.98C103.688 221.127 103.181 221.2 102.648 221.2C101.981 221.2 101.388 221.1 100.868 220.9C100.361 220.7 99.9611 220.38 99.6678 219.94C99.3878 219.5 99.2478 218.913 99.2478 218.18V208.7L101.988 207.94ZM105.188 211V213.04H97.4078V211H105.188Z" fill="white"/>
<path d="M85.9439 221.2C84.9306 221.2 84.0039 221.02 83.1639 220.66C82.3373 220.3 81.6639 219.793 81.1439 219.14L82.7239 217.54C83.0439 218.02 83.4706 218.413 84.0039 218.72C84.5373 219.026 85.1706 219.18 85.9039 219.18C86.4239 219.18 86.8373 219.106 87.1439 218.96C87.4639 218.8 87.6239 218.553 87.6239 218.22C87.6239 218.006 87.5506 217.826 87.4039 217.68C87.2573 217.52 86.9639 217.393 86.5239 217.3L84.7639 216.94C83.6039 216.7 82.7773 216.34 82.2839 215.86C81.8039 215.366 81.5639 214.733 81.5639 213.96C81.5639 213.413 81.7239 212.9 82.0439 212.42C82.3773 211.94 82.8706 211.553 83.5239 211.26C84.1773 210.953 84.9906 210.8 85.9639 210.8C86.9639 210.8 87.8306 210.96 88.5639 211.28C89.3106 211.586 89.8973 212.046 90.3239 212.66L88.6839 214.26C88.3906 213.793 88.0039 213.44 87.5239 213.2C87.0573 212.946 86.5639 212.82 86.0439 212.82C85.6706 212.82 85.3506 212.86 85.0839 212.94C84.8173 213.02 84.6173 213.133 84.4839 213.28C84.3506 213.413 84.2839 213.586 84.2839 213.8C84.2839 214.013 84.3773 214.2 84.5639 214.36C84.7506 214.506 85.0906 214.633 85.5839 214.74L87.6239 215.16C88.6106 215.36 89.3173 215.7 89.7439 216.18C90.1706 216.646 90.3839 217.213 90.3839 217.88C90.3839 218.52 90.2106 219.093 89.8639 219.6C89.5306 220.093 89.0306 220.486 88.3639 220.78C87.7106 221.06 86.9039 221.2 85.9439 221.2Z" fill="white"/>
<path d="M74.2734 206.16H76.9134L74.9134 209.56H72.8934L74.2734 206.16Z" fill="white"/>
<path d="M51.8072 221V211H54.2672L54.3672 212.8C54.7005 212.133 55.1539 211.633 55.7272 211.3C56.3139 210.966 56.9605 210.8 57.6672 210.8C58.3872 210.8 59.0339 210.966 59.6072 211.3C60.1939 211.633 60.6339 212.126 60.9272 212.78C61.1405 212.34 61.4272 211.973 61.7872 211.68C62.1472 211.386 62.5472 211.166 62.9872 211.02C63.4272 210.873 63.8739 210.8 64.3272 210.8C64.9805 210.8 65.5739 210.933 66.1072 211.2C66.6539 211.466 67.0872 211.866 67.4072 212.4C67.7272 212.933 67.8872 213.613 67.8872 214.44V221H65.1472V214.98C65.1472 214.246 64.9872 213.726 64.6672 213.42C64.3472 213.113 63.9339 212.96 63.4272 212.96C63.0272 212.96 62.6539 213.06 62.3072 213.26C61.9739 213.46 61.7072 213.76 61.5072 214.16C61.3205 214.546 61.2272 215.033 61.2272 215.62V221H58.4872V214.98C58.4872 214.246 58.3205 213.726 57.9872 213.42C57.6672 213.113 57.2539 212.96 56.7472 212.96C56.4005 212.96 56.0539 213.053 55.7072 213.24C55.3739 213.426 55.0939 213.72 54.8672 214.12C54.6539 214.52 54.5472 215.046 54.5472 215.7V221H51.8072Z" fill="white"/>
<path d="M44.8652 221.2C43.8118 221.2 42.8918 220.993 42.1052 220.58C41.3318 220.166 40.7318 219.573 40.3052 218.8C39.8785 218.026 39.6652 217.093 39.6652 216C39.6652 214.906 39.8785 213.973 40.3052 213.2C40.7318 212.426 41.3252 211.833 42.0852 211.42C42.8585 211.006 43.7385 210.8 44.7252 210.8C45.7385 210.8 46.5985 211.006 47.3052 211.42C48.0118 211.82 48.5518 212.373 48.9252 213.08C49.2985 213.773 49.4852 214.566 49.4852 215.46C49.4852 215.726 49.4785 215.98 49.4652 216.22C49.4518 216.46 49.4318 216.673 49.4052 216.86H41.4252V214.96H48.2052L46.8852 215.44C46.8852 214.6 46.6918 213.953 46.3052 213.5C45.9318 213.046 45.3985 212.82 44.7052 212.82C44.1985 212.82 43.7585 212.94 43.3852 213.18C43.0252 213.42 42.7518 213.78 42.5652 214.26C42.3785 214.726 42.2852 215.32 42.2852 216.04C42.2852 216.746 42.3852 217.333 42.5852 217.8C42.7985 218.253 43.0918 218.593 43.4652 218.82C43.8518 219.046 44.3118 219.16 44.8452 219.16C45.4318 219.16 45.9052 219.046 46.2652 218.82C46.6252 218.593 46.9052 218.28 47.1052 217.88L49.2852 218.72C49.0718 219.24 48.7452 219.686 48.3052 220.06C47.8785 220.433 47.3652 220.72 46.7652 220.92C46.1785 221.106 45.5452 221.2 44.8652 221.2Z" fill="white"/>
<path d="M35.1714 207.94V217.74C35.1714 218.22 35.2914 218.573 35.5314 218.8C35.7847 219.013 36.1247 219.12 36.5514 219.12C36.8847 219.12 37.1781 219.073 37.4314 218.98C37.6847 218.873 37.9114 218.733 38.1114 218.56L38.5514 220.38C38.2314 220.633 37.8314 220.833 37.3514 220.98C36.8714 221.127 36.3647 221.2 35.8314 221.2C35.1647 221.2 34.5714 221.1 34.0514 220.9C33.5447 220.7 33.1447 220.38 32.8514 219.94C32.5714 219.5 32.4314 218.913 32.4314 218.18V208.7L35.1714 207.94ZM38.3714 211V213.04H30.5914V211H38.3714Z" fill="white"/>
<path d="M28.48 207.8V221H25.72V207.8H28.48Z" fill="white"/>
<path d="M85.1061 250.2C83.4128 250.2 82.1061 249.627 81.1861 248.48C80.2794 247.333 79.8261 245.64 79.8261 243.4C79.8261 241.16 80.2794 239.467 81.1861 238.32C82.1061 237.173 83.4128 236.6 85.1061 236.6C86.7994 236.6 88.0994 237.173 89.0061 238.32C89.9261 239.467 90.3861 241.16 90.3861 243.4C90.3861 245.64 89.9261 247.333 89.0061 248.48C88.0994 249.627 86.7994 250.2 85.1061 250.2ZM85.1061 247.98C85.6794 247.98 86.1461 247.82 86.5061 247.5C86.8794 247.167 87.1594 246.667 87.3461 246C87.5328 245.32 87.6261 244.453 87.6261 243.4C87.6261 242.347 87.5328 241.487 87.3461 240.82C87.1594 240.14 86.8794 239.64 86.5061 239.32C86.1461 238.987 85.6794 238.82 85.1061 238.82C84.5328 238.82 84.0594 238.987 83.6861 239.32C83.3128 239.64 83.0328 240.14 82.8461 240.82C82.6728 241.487 82.5861 242.347 82.5861 243.4C82.5861 244.453 82.6728 245.32 82.8461 246C83.0328 246.667 83.3128 247.167 83.6861 247.5C84.0594 247.82 84.5328 247.98 85.1061 247.98Z" fill="#F15A4F"/>
<path d="M72.3913 250.2C70.6979 250.2 69.3913 249.627 68.4713 248.48C67.5646 247.333 67.1113 245.64 67.1113 243.4C67.1113 241.16 67.5646 239.467 68.4713 238.32C69.3913 237.173 70.6979 236.6 72.3913 236.6C74.0846 236.6 75.3846 237.173 76.2913 238.32C77.2113 239.467 77.6713 241.16 77.6713 243.4C77.6713 245.64 77.2113 247.333 76.2913 248.48C75.3846 249.627 74.0846 250.2 72.3913 250.2ZM72.3913 247.98C72.9646 247.98 73.4313 247.82 73.7913 247.5C74.1646 247.167 74.4446 246.667 74.6313 246C74.8179 245.32 74.9113 244.453 74.9113 243.4C74.9113 242.347 74.8179 241.487 74.6313 240.82C74.4446 240.14 74.1646 239.64 73.7913 239.32C73.4313 238.987 72.9646 238.82 72.3913 238.82C71.8179 238.82 71.3446 238.987 70.9713 239.32C70.5979 239.64 70.3179 240.14 70.1313 240.82C69.9579 241.487 69.8713 242.347 69.8713 243.4C69.8713 244.453 69.9579 245.32 70.1313 246C70.3179 246.667 70.5979 247.167 70.9713 247.5C71.3446 247.82 71.8179 247.98 72.3913 247.98Z" fill="#F15A4F"/>
<path d="M63.5388 246.94C64.0721 246.94 64.4921 247.087 64.7988 247.38C65.1188 247.673 65.2788 248.067 65.2788 248.56C65.2788 249.067 65.1188 249.467 64.7988 249.76C64.4921 250.04 64.0721 250.18 63.5388 250.18C63.0054 250.18 62.5788 250.04 62.2588 249.76C61.9521 249.467 61.7988 249.067 61.7988 248.56C61.7988 248.067 61.9521 247.673 62.2588 247.38C62.5788 247.087 63.0054 246.94 63.5388 246.94Z" fill="#F15A4F"/>
<path d="M54.6764 250.2C52.9831 250.2 51.6764 249.627 50.7564 248.48C49.8497 247.333 49.3964 245.64 49.3964 243.4C49.3964 241.16 49.8497 239.467 50.7564 238.32C51.6764 237.173 52.9831 236.6 54.6764 236.6C56.3697 236.6 57.6697 237.173 58.5764 238.32C59.4964 239.467 59.9564 241.16 59.9564 243.4C59.9564 245.64 59.4964 247.333 58.5764 248.48C57.6697 249.627 56.3697 250.2 54.6764 250.2ZM54.6764 247.98C55.2497 247.98 55.7164 247.82 56.0764 247.5C56.4497 247.167 56.7297 246.667 56.9164 246C57.1031 245.32 57.1964 244.453 57.1964 243.4C57.1964 242.347 57.1031 241.487 56.9164 240.82C56.7297 240.14 56.4497 239.64 56.0764 239.32C55.7164 238.987 55.2497 238.82 54.6764 238.82C54.1031 238.82 53.6297 238.987 53.2564 239.32C52.8831 239.64 52.6031 240.14 52.4164 240.82C52.2431 241.487 52.1564 242.347 52.1564 243.4C52.1564 244.453 52.2431 245.32 52.4164 246C52.6031 246.667 52.8831 247.167 53.2564 247.5C53.6297 247.82 54.1031 247.98 54.6764 247.98Z" fill="#F15A4F"/>
<path d="M42.3958 250.2C41.2358 250.2 40.2558 249.96 39.4558 249.48C38.6691 249 38.0224 248.266 37.5158 247.28L39.9958 246.04C40.1691 246.626 40.4424 247.1 40.8158 247.46C41.1891 247.82 41.7358 248 42.4558 248C42.9491 248 43.3691 247.913 43.7158 247.74C44.0624 247.566 44.3291 247.313 44.5158 246.98C44.7158 246.646 44.8158 246.24 44.8158 245.76C44.8158 245.28 44.7224 244.88 44.5358 244.56C44.3624 244.226 44.1091 243.98 43.7758 243.82C43.4424 243.646 43.0224 243.56 42.5158 243.56C42.1691 243.56 41.8424 243.593 41.5358 243.66C41.2424 243.726 40.9758 243.833 40.7358 243.98C40.4958 244.113 40.2824 244.293 40.0958 244.52L37.9358 244.12L38.7558 236.8H46.7358V239.02H40.8358L40.4358 242.24L40.3758 242.5H40.4158C40.6958 242.18 41.0758 241.933 41.5558 241.76C42.0491 241.586 42.6091 241.5 43.2358 241.5C44.1024 241.5 44.8424 241.673 45.4558 242.02C46.0691 242.366 46.5424 242.853 46.8758 243.48C47.2091 244.093 47.3758 244.8 47.3758 245.6C47.3758 246.36 47.2491 247.033 46.9958 247.62C46.7424 248.193 46.3824 248.673 45.9158 249.06C45.4624 249.433 44.9358 249.72 44.3358 249.92C43.7358 250.106 43.0891 250.2 42.3958 250.2Z" fill="#F15A4F"/>
<path d="M30.46 249.98C29.58 249.98 28.7667 249.873 28.02 249.66C27.2733 249.447 26.6067 249.153 26.02 248.78C25.4467 248.407 24.9667 247.973 24.58 247.48L26.1 245.68C26.3933 246.133 26.7733 246.527 27.24 246.86C27.7067 247.18 28.2333 247.433 28.82 247.62C29.4067 247.793 30.0067 247.88 30.62 247.88C31.4333 247.88 32.0733 247.747 32.54 247.48C33.0067 247.213 33.24 246.82 33.24 246.3C33.24 245.967 33.1067 245.68 32.84 245.44C32.5867 245.2 32.14 245.007 31.5 244.86L28.7 244.22C27.9533 244.047 27.3133 243.807 26.78 243.5C26.2467 243.193 25.84 242.82 25.56 242.38C25.2933 241.927 25.16 241.407 25.16 240.82C25.16 240.047 25.3667 239.36 25.78 238.76C26.2067 238.16 26.8067 237.68 27.58 237.32C28.3667 236.96 29.3133 236.78 30.42 236.78C31.58 236.78 32.6 236.98 33.48 237.38C34.36 237.78 35.1067 238.373 35.72 239.16L34.28 240.82C33.7467 240.14 33.1533 239.647 32.5 239.34C31.86 239.02 31.1067 238.86 30.24 238.86C29.6533 238.86 29.1733 238.933 28.8 239.08C28.4267 239.213 28.1467 239.4 27.96 239.64C27.7867 239.88 27.7 240.153 27.7 240.46C27.7 240.7 27.7533 240.92 27.86 241.12C27.9667 241.307 28.1667 241.473 28.46 241.62C28.7667 241.767 29.2 241.907 29.76 242.04L32.16 242.58C33.4133 242.86 34.3133 243.273 34.86 243.82C35.42 244.353 35.7 245.067 35.7 245.96C35.7 246.813 35.48 247.54 35.04 248.14C34.6 248.74 33.98 249.2 33.18 249.52C32.3933 249.827 31.4867 249.98 30.46 249.98ZM29.52 251.84V234.96H31.38V251.84H29.52Z" fill="#F15A4F"/>
<path d="M59.174 278V271H60.84L60.966 272.372C61.1527 271.887 61.4233 271.513 61.778 271.252C62.142 270.991 62.5947 270.86 63.136 270.86C63.2947 270.86 63.4393 270.874 63.57 270.902C63.7007 270.93 63.808 270.967 63.892 271.014L63.668 272.624C63.5747 272.587 63.458 272.559 63.318 272.54C63.1873 272.521 63.0147 272.512 62.8 272.512C62.52 272.512 62.2493 272.582 61.988 272.722C61.7267 272.853 61.512 273.058 61.344 273.338C61.176 273.609 61.092 273.954 61.092 274.374V278H59.174Z" fill="white"/>
<path d="M54.3146 278.14C53.5773 278.14 52.9333 277.995 52.3826 277.706C51.8413 277.417 51.4213 277.001 51.1226 276.46C50.8239 275.919 50.6746 275.265 50.6746 274.5C50.6746 273.735 50.8239 273.081 51.1226 272.54C51.4213 271.999 51.8366 271.583 52.3686 271.294C52.9099 271.005 53.5259 270.86 54.2166 270.86C54.9259 270.86 55.5279 271.005 56.0226 271.294C56.5173 271.574 56.8953 271.961 57.1566 272.456C57.4179 272.941 57.5486 273.497 57.5486 274.122C57.5486 274.309 57.5439 274.486 57.5346 274.654C57.5253 274.822 57.5113 274.971 57.4926 275.102H51.9066V273.772H56.6526L55.7286 274.108C55.7286 273.52 55.5933 273.067 55.3226 272.75C55.0613 272.433 54.6879 272.274 54.2026 272.274C53.8479 272.274 53.5399 272.358 53.2786 272.526C53.0266 272.694 52.8353 272.946 52.7046 273.282C52.5739 273.609 52.5086 274.024 52.5086 274.528C52.5086 275.023 52.5786 275.433 52.7186 275.76C52.8679 276.077 53.0733 276.315 53.3346 276.474C53.6053 276.633 53.9273 276.712 54.3006 276.712C54.7113 276.712 55.0426 276.633 55.2946 276.474C55.5466 276.315 55.7426 276.096 55.8826 275.816L57.4086 276.404C57.2593 276.768 57.0306 277.081 56.7226 277.342C56.4239 277.603 56.0646 277.804 55.6446 277.944C55.2339 278.075 54.7906 278.14 54.3146 278.14Z" fill="white"/>
<path d="M48.4859 267.934V275.844C48.4859 276.171 48.5419 276.399 48.6539 276.53C48.7659 276.661 48.9526 276.726 49.2139 276.726C49.3726 276.726 49.5032 276.717 49.6059 276.698C49.7086 276.67 49.8392 276.633 49.9979 276.586L49.8299 277.846C49.6712 277.939 49.4706 278.009 49.2279 278.056C48.9946 278.112 48.7612 278.14 48.5279 278.14C47.8466 278.14 47.3472 277.977 47.0299 277.65C46.7219 277.314 46.5679 276.782 46.5679 276.054V267.934H48.4859Z" fill="white"/>
<path d="M44.0152 267.934V275.844C44.0152 276.171 44.0712 276.399 44.1832 276.53C44.2952 276.661 44.4818 276.726 44.7432 276.726C44.9018 276.726 45.0325 276.717 45.1352 276.698C45.2379 276.67 45.3685 276.633 45.5272 276.586L45.3592 277.846C45.2005 277.939 44.9998 278.009 44.7572 278.056C44.5238 278.112 44.2905 278.14 44.0572 278.14C43.3759 278.14 42.8765 277.977 42.5592 277.65C42.2512 277.314 42.0972 276.782 42.0972 276.054V267.934H44.0152Z" fill="white"/>
<path d="M37.2658 278.14C36.5284 278.14 35.8844 277.995 35.3338 277.706C34.7924 277.417 34.3724 277.001 34.0738 276.46C33.7751 275.919 33.6258 275.265 33.6258 274.5C33.6258 273.735 33.7751 273.081 34.0738 272.54C34.3724 271.999 34.7878 271.583 35.3198 271.294C35.8611 271.005 36.4771 270.86 37.1678 270.86C37.8771 270.86 38.4791 271.005 38.9738 271.294C39.4684 271.574 39.8464 271.961 40.1078 272.456C40.3691 272.941 40.4998 273.497 40.4998 274.122C40.4998 274.309 40.4951 274.486 40.4858 274.654C40.4764 274.822 40.4624 274.971 40.4438 275.102H34.8578V273.772H39.6038L38.6798 274.108C38.6798 273.52 38.5444 273.067 38.2738 272.75C38.0124 272.433 37.6391 272.274 37.1538 272.274C36.7991 272.274 36.4911 272.358 36.2298 272.526C35.9778 272.694 35.7864 272.946 35.6558 273.282C35.5251 273.609 35.4598 274.024 35.4598 274.528C35.4598 275.023 35.5298 275.433 35.6698 275.76C35.8191 276.077 36.0244 276.315 36.2858 276.474C36.5564 276.633 36.8784 276.712 37.2518 276.712C37.6624 276.712 37.9938 276.633 38.2458 276.474C38.4978 276.315 38.6938 276.096 38.8338 275.816L40.3598 276.404C40.2104 276.768 39.9818 277.081 39.6738 277.342C39.3751 277.603 39.0158 277.804 38.5958 277.944C38.1851 278.075 37.7418 278.14 37.2658 278.14Z" fill="white"/>
<path d="M28.578 268.62C29.418 268.62 30.1553 268.765 30.79 269.054C31.4247 269.343 31.966 269.773 32.414 270.342L31.336 271.588C30.9533 271.103 30.5333 270.748 30.076 270.524C29.628 270.291 29.1053 270.174 28.508 270.174C28.116 270.174 27.7893 270.225 27.528 270.328C27.276 270.431 27.0893 270.566 26.968 270.734C26.856 270.902 26.8 271.089 26.8 271.294C26.8 271.546 26.898 271.761 27.094 271.938C27.29 272.106 27.626 272.246 28.102 272.358L29.824 272.75C30.7387 272.955 31.392 273.263 31.784 273.674C32.1853 274.075 32.386 274.598 32.386 275.242C32.386 275.849 32.2273 276.371 31.91 276.81C31.5927 277.239 31.1493 277.571 30.58 277.804C30.0107 278.028 29.3573 278.14 28.62 278.14C27.976 278.14 27.3833 278.065 26.842 277.916C26.31 277.757 25.834 277.543 25.414 277.272C24.994 277.001 24.644 276.689 24.364 276.334L25.456 275.032C25.6707 275.331 25.9367 275.597 26.254 275.83C26.5713 276.063 26.9307 276.25 27.332 276.39C27.7427 276.521 28.172 276.586 28.62 276.586C29.0027 276.586 29.3247 276.544 29.586 276.46C29.8567 276.367 30.0573 276.241 30.188 276.082C30.328 275.914 30.398 275.713 30.398 275.48C30.398 275.237 30.314 275.032 30.146 274.864C29.9873 274.687 29.6887 274.551 29.25 274.458L27.374 274.038C26.8327 273.907 26.366 273.739 25.974 273.534C25.5913 273.319 25.2973 273.049 25.092 272.722C24.896 272.386 24.798 271.989 24.798 271.532C24.798 270.981 24.9473 270.487 25.246 270.048C25.5447 269.609 25.974 269.264 26.534 269.012C27.1033 268.751 27.7847 268.62 28.578 268.62Z" fill="white"/>
<path d="M220.35 279.14C219.165 279.14 218.25 278.739 217.606 277.936C216.972 277.133 216.654 275.948 216.654 274.38C216.654 272.812 216.972 271.627 217.606 270.824C218.25 270.021 219.165 269.62 220.35 269.62C221.536 269.62 222.446 270.021 223.08 270.824C223.724 271.627 224.046 272.812 224.046 274.38C224.046 275.948 223.724 277.133 223.08 277.936C222.446 278.739 221.536 279.14 220.35 279.14ZM220.35 277.586C220.752 277.586 221.078 277.474 221.33 277.25C221.592 277.017 221.788 276.667 221.918 276.2C222.049 275.724 222.114 275.117 222.114 274.38C222.114 273.643 222.049 273.041 221.918 272.574C221.788 272.098 221.592 271.748 221.33 271.524C221.078 271.291 220.752 271.174 220.35 271.174C219.949 271.174 219.618 271.291 219.356 271.524C219.095 271.748 218.899 272.098 218.768 272.574C218.647 273.041 218.586 273.643 218.586 274.38C218.586 275.117 218.647 275.724 218.768 276.2C218.899 276.667 219.095 277.017 219.356 277.25C219.618 277.474 219.949 277.586 220.35 277.586Z" fill="white"/>
<path d="M211.45 279.14C210.265 279.14 209.35 278.739 208.706 277.936C208.071 277.133 207.754 275.948 207.754 274.38C207.754 272.812 208.071 271.627 208.706 270.824C209.35 270.021 210.265 269.62 211.45 269.62C212.635 269.62 213.545 270.021 214.18 270.824C214.824 271.627 215.146 272.812 215.146 274.38C215.146 275.948 214.824 277.133 214.18 277.936C213.545 278.739 212.635 279.14 211.45 279.14ZM211.45 277.586C211.851 277.586 212.178 277.474 212.43 277.25C212.691 277.017 212.887 276.667 213.018 276.2C213.149 275.724 213.214 275.117 213.214 274.38C213.214 273.643 213.149 273.041 213.018 272.574C212.887 272.098 212.691 271.748 212.43 271.524C212.178 271.291 211.851 271.174 211.45 271.174C211.049 271.174 210.717 271.291 210.456 271.524C210.195 271.748 209.999 272.098 209.868 272.574C209.747 273.041 209.686 273.643 209.686 274.38C209.686 275.117 209.747 275.724 209.868 276.2C209.999 276.667 210.195 277.017 210.456 277.25C210.717 277.474 211.049 277.586 211.45 277.586Z" fill="white"/>
<path d="M204.901 271.86C205.274 271.86 205.568 271.963 205.783 272.168C206.007 272.373 206.119 272.649 206.119 272.994C206.119 273.349 206.007 273.629 205.783 273.834C205.568 274.03 205.274 274.128 204.901 274.128C204.527 274.128 204.229 274.03 204.005 273.834C203.79 273.629 203.683 273.349 203.683 272.994C203.683 272.649 203.79 272.373 204.005 272.168C204.229 271.963 204.527 271.86 204.901 271.86ZM204.901 276.858C205.274 276.858 205.568 276.961 205.783 277.166C206.007 277.371 206.119 277.647 206.119 277.992C206.119 278.347 206.007 278.627 205.783 278.832C205.568 279.028 205.274 279.126 204.901 279.126C204.527 279.126 204.229 279.028 204.005 278.832C203.79 278.627 203.683 278.347 203.683 277.992C203.683 277.647 203.79 277.371 204.005 277.166C204.229 276.961 204.527 276.858 204.901 276.858Z" fill="white"/>
<path d="M198.352 279.14C197.167 279.14 196.252 278.739 195.608 277.936C194.974 277.133 194.656 275.948 194.656 274.38C194.656 272.812 194.974 271.627 195.608 270.824C196.252 270.021 197.167 269.62 198.352 269.62C199.538 269.62 200.448 270.021 201.082 270.824C201.726 271.627 202.048 272.812 202.048 274.38C202.048 275.948 201.726 277.133 201.082 277.936C200.448 278.739 199.538 279.14 198.352 279.14ZM198.352 277.586C198.754 277.586 199.08 277.474 199.332 277.25C199.594 277.017 199.79 276.667 199.92 276.2C200.051 275.724 200.116 275.117 200.116 274.38C200.116 273.643 200.051 273.041 199.92 272.574C199.79 272.098 199.594 271.748 199.332 271.524C199.08 271.291 198.754 271.174 198.352 271.174C197.951 271.174 197.62 271.291 197.358 271.524C197.097 271.748 196.901 272.098 196.77 272.574C196.649 273.041 196.588 273.643 196.588 274.38C196.588 275.117 196.649 275.724 196.77 276.2C196.901 276.667 197.097 277.017 197.358 277.25C197.62 277.474 197.951 277.586 198.352 277.586Z" fill="white"/>
<path d="M189.452 279.14C188.267 279.14 187.352 278.739 186.708 277.936C186.073 277.133 185.756 275.948 185.756 274.38C185.756 272.812 186.073 271.627 186.708 270.824C187.352 270.021 188.267 269.62 189.452 269.62C190.637 269.62 191.547 270.021 192.182 270.824C192.826 271.627 193.148 272.812 193.148 274.38C193.148 275.948 192.826 277.133 192.182 277.936C191.547 278.739 190.637 279.14 189.452 279.14ZM189.452 277.586C189.853 277.586 190.18 277.474 190.432 277.25C190.693 277.017 190.889 276.667 191.02 276.2C191.151 275.724 191.216 275.117 191.216 274.38C191.216 273.643 191.151 273.041 191.02 272.574C190.889 272.098 190.693 271.748 190.432 271.524C190.18 271.291 189.853 271.174 189.452 271.174C189.051 271.174 188.719 271.291 188.458 271.524C188.197 271.748 188.001 272.098 187.87 272.574C187.749 273.041 187.688 273.643 187.688 274.38C187.688 275.117 187.749 275.724 187.87 276.2C188.001 276.667 188.197 277.017 188.458 277.25C188.719 277.474 189.051 277.586 189.452 277.586Z" fill="white"/>
</svg>
