<svg width="201" height="23" viewBox="0 0 201 23" fill="none" xmlns="http://www.w3.org/2000/svg">
<path d="M193.387 17.496C192.395 17.496 191.507 17.248 190.723 16.752C189.955 16.256 189.347 15.544 188.899 14.616C188.467 13.688 188.251 12.576 188.251 11.28C188.251 9.952 188.483 8.824 188.947 7.896C189.411 6.952 190.035 6.24 190.819 5.76C191.619 5.264 192.515 5.016 193.507 5.016C194.563 5.016 195.435 5.32 196.123 5.928C196.811 6.536 197.259 7.32 197.467 8.28L197.155 8.664V0H200.443V17.256H197.491L197.275 13.608L197.683 13.8C197.571 14.552 197.315 15.208 196.915 15.768C196.515 16.312 196.011 16.736 195.403 17.04C194.795 17.344 194.123 17.496 193.387 17.496ZM194.347 14.976C194.923 14.976 195.419 14.832 195.835 14.544C196.251 14.24 196.571 13.8 196.795 13.224C197.035 12.648 197.155 11.96 197.155 11.16C197.155 10.392 197.043 9.744 196.819 9.216C196.595 8.672 196.275 8.256 195.859 7.968C195.443 7.68 194.955 7.536 194.395 7.536C193.499 7.536 192.795 7.856 192.283 8.496C191.787 9.12 191.539 10.04 191.539 11.256C191.539 12.472 191.787 13.4 192.283 14.04C192.779 14.664 193.467 14.976 194.347 14.976Z" fill="black"/>
<path d="M178.961 17.2559V5.25587H181.817L182.033 7.60787C182.353 6.77587 182.817 6.13587 183.425 5.68787C184.049 5.23987 184.825 5.01587 185.753 5.01587C186.025 5.01587 186.273 5.03987 186.497 5.08787C186.721 5.13587 186.905 5.19987 187.049 5.27987L186.665 8.03987C186.505 7.97587 186.305 7.92787 186.065 7.89587C185.841 7.86387 185.545 7.84787 185.177 7.84787C184.697 7.84787 184.233 7.96787 183.785 8.20787C183.337 8.43187 182.969 8.78387 182.681 9.26387C182.393 9.72787 182.249 10.3199 182.249 11.0399V17.2559H178.961Z" fill="black"/>
<path d="M170.066 5.01587C171.282 5.01587 172.346 5.26387 173.258 5.75987C174.186 6.25587 174.906 6.96787 175.418 7.89587C175.946 8.82387 176.21 9.94387 176.21 11.2559C176.21 12.5519 175.946 13.6719 175.418 14.6159C174.906 15.5439 174.186 16.2559 173.258 16.7519C172.346 17.2479 171.282 17.4959 170.066 17.4959C168.866 17.4959 167.802 17.2479 166.874 16.7519C165.946 16.2559 165.218 15.5439 164.69 14.6159C164.178 13.6719 163.922 12.5519 163.922 11.2559C163.922 9.94387 164.178 8.82387 164.69 7.89587C165.218 6.96787 165.946 6.25587 166.874 5.75987C167.802 5.26387 168.866 5.01587 170.066 5.01587ZM170.066 7.46387C169.458 7.46387 168.938 7.60787 168.506 7.89587C168.09 8.16787 167.77 8.58387 167.546 9.14387C167.322 9.70387 167.21 10.4079 167.21 11.2559C167.21 12.1039 167.322 12.8079 167.546 13.3679C167.77 13.9279 168.09 14.3519 168.506 14.6399C168.938 14.9119 169.458 15.0479 170.066 15.0479C170.658 15.0479 171.162 14.9119 171.578 14.6399C172.01 14.3519 172.338 13.9279 172.562 13.3679C172.786 12.8079 172.898 12.1039 172.898 11.2559C172.898 10.4079 172.786 9.70387 172.562 9.14387C172.338 8.58387 172.01 8.16787 171.578 7.89587C171.162 7.60787 170.658 7.46387 170.066 7.46387Z" fill="black"/>
<path d="M159.378 5.25586H162.882L159.042 17.2559H155.25L152.634 9.09586L150.114 17.2559H146.322L142.482 5.25586H145.986L148.386 14.4479L151.05 5.25586H154.314L157.002 14.4479L159.378 5.25586Z" fill="black"/>
<path d="M136.394 17.4959C135.178 17.4959 134.066 17.2799 133.058 16.8479C132.066 16.4159 131.258 15.8079 130.634 15.0239L132.53 13.1039C132.914 13.6799 133.426 14.1519 134.066 14.5199C134.706 14.8879 135.466 15.0719 136.346 15.0719C136.97 15.0719 137.466 14.9839 137.834 14.8079C138.218 14.6159 138.41 14.3199 138.41 13.9199C138.41 13.6639 138.322 13.4479 138.146 13.2719C137.97 13.0799 137.618 12.9279 137.09 12.8159L134.978 12.3839C133.586 12.0959 132.594 11.6639 132.002 11.0879C131.426 10.4959 131.138 9.73587 131.138 8.80787C131.138 8.15187 131.33 7.53587 131.714 6.95987C132.114 6.38387 132.706 5.91987 133.49 5.56787C134.274 5.19987 135.25 5.01587 136.418 5.01587C137.618 5.01587 138.658 5.20787 139.538 5.59187C140.434 5.95987 141.138 6.51187 141.65 7.24787L139.682 9.16787C139.33 8.60787 138.866 8.18387 138.29 7.89587C137.73 7.59187 137.138 7.43987 136.514 7.43987C136.066 7.43987 135.682 7.48787 135.362 7.58387C135.042 7.67987 134.802 7.81587 134.642 7.99187C134.482 8.15187 134.402 8.35987 134.402 8.61587C134.402 8.87187 134.514 9.09587 134.738 9.28787C134.962 9.46387 135.37 9.61587 135.962 9.74387L138.41 10.2479C139.594 10.4879 140.442 10.8959 140.954 11.4719C141.466 12.0319 141.722 12.7119 141.722 13.5119C141.722 14.2799 141.514 14.9679 141.098 15.5759C140.698 16.1679 140.098 16.6399 139.298 16.9919C138.514 17.3279 137.546 17.4959 136.394 17.4959Z" fill="black"/>
<path d="M123.644 17.4959C122.428 17.4959 121.316 17.2799 120.308 16.8479C119.316 16.4159 118.508 15.8079 117.884 15.0239L119.78 13.1039C120.164 13.6799 120.676 14.1519 121.316 14.5199C121.956 14.8879 122.716 15.0719 123.596 15.0719C124.22 15.0719 124.716 14.9839 125.084 14.8079C125.468 14.6159 125.66 14.3199 125.66 13.9199C125.66 13.6639 125.572 13.4479 125.396 13.2719C125.22 13.0799 124.868 12.9279 124.34 12.8159L122.228 12.3839C120.836 12.0959 119.844 11.6639 119.252 11.0879C118.676 10.4959 118.388 9.73587 118.388 8.80787C118.388 8.15187 118.58 7.53587 118.964 6.95987C119.364 6.38387 119.956 5.91987 120.74 5.56787C121.524 5.19987 122.5 5.01587 123.668 5.01587C124.868 5.01587 125.908 5.20787 126.788 5.59187C127.684 5.95987 128.388 6.51187 128.9 7.24787L126.932 9.16787C126.58 8.60787 126.116 8.18387 125.54 7.89587C124.98 7.59187 124.388 7.43987 123.764 7.43987C123.316 7.43987 122.932 7.48787 122.612 7.58387C122.292 7.67987 122.052 7.81587 121.892 7.99187C121.732 8.15187 121.652 8.35987 121.652 8.61587C121.652 8.87187 121.764 9.09587 121.988 9.28787C122.212 9.46387 122.62 9.61587 123.212 9.74387L125.66 10.2479C126.844 10.4879 127.692 10.8959 128.204 11.4719C128.716 12.0319 128.972 12.7119 128.972 13.5119C128.972 14.2799 128.764 14.9679 128.348 15.5759C127.948 16.1679 127.348 16.6399 126.548 16.9919C125.764 17.3279 124.796 17.4959 123.644 17.4959Z" fill="black"/>
<path d="M111.903 9.59987C111.903 8.91187 111.703 8.37587 111.303 7.99187C110.919 7.60787 110.407 7.41587 109.767 7.41587C109.175 7.41587 108.655 7.56787 108.207 7.87187C107.759 8.17587 107.431 8.67987 107.223 9.38387L104.415 8.51987C104.687 7.46387 105.279 6.61587 106.191 5.97587C107.119 5.33587 108.359 5.01587 109.911 5.01587C110.967 5.01587 111.887 5.18387 112.671 5.51987C113.455 5.83987 114.063 6.32787 114.495 6.98387C114.943 7.63987 115.167 8.46387 115.167 9.45587V14.3279C115.167 14.9359 115.455 15.2399 116.031 15.2399C116.303 15.2399 116.559 15.1999 116.799 15.1199L116.607 17.1599C116.191 17.3679 115.671 17.4719 115.047 17.4719C114.487 17.4719 113.983 17.3759 113.535 17.1839C113.087 16.9919 112.735 16.7039 112.479 16.3199C112.223 15.9199 112.095 15.4239 112.095 14.8319V14.7359L112.671 14.6399C112.575 15.2479 112.311 15.7679 111.879 16.1999C111.447 16.6159 110.919 16.9359 110.295 17.1599C109.687 17.3839 109.055 17.4959 108.399 17.4959C107.583 17.4959 106.879 17.3759 106.287 17.1359C105.695 16.8799 105.239 16.5119 104.919 16.0319C104.599 15.5519 104.439 14.9599 104.439 14.2559C104.439 13.3599 104.727 12.6319 105.303 12.0719C105.879 11.4959 106.703 11.1039 107.775 10.8959L112.287 9.98387L112.263 12.0239L109.383 12.5999C108.839 12.7119 108.423 12.8639 108.135 13.0559C107.863 13.2319 107.727 13.5279 107.727 13.9439C107.727 14.3439 107.871 14.6479 108.159 14.8559C108.463 15.0639 108.823 15.1679 109.239 15.1679C109.575 15.1679 109.903 15.1279 110.223 15.0479C110.543 14.9679 110.831 14.8399 111.087 14.6639C111.343 14.4879 111.543 14.2479 111.687 13.9439C111.831 13.6399 111.903 13.2719 111.903 12.8399V9.59987Z" fill="black"/>
<path d="M96.5308 1.41577C97.7468 1.41577 98.7868 1.62377 99.6508 2.03977C100.515 2.43977 101.179 3.02377 101.643 3.79177C102.123 4.54377 102.363 5.45577 102.363 6.52777C102.363 7.59977 102.123 8.51977 101.643 9.28777C101.179 10.0398 100.515 10.6238 99.6508 11.0398C98.7868 11.4398 97.7468 11.6398 96.5308 11.6398H93.1948V17.2558H89.8828V1.41577H96.5308ZM96.0268 9.02377C97.0188 9.02377 97.7628 8.81577 98.2588 8.39977C98.7548 7.96777 99.0028 7.34377 99.0028 6.52777C99.0028 5.69577 98.7548 5.07177 98.2588 4.65577C97.7628 4.23977 97.0188 4.03177 96.0268 4.03177H93.1948V9.02377H96.0268Z" fill="black"/>
<path d="M76.1464 1.58398V13.344C76.1464 13.92 76.2904 14.344 76.5784 14.616C76.8824 14.872 77.2904 15 77.8024 15C78.2024 15 78.5544 14.944 78.8584 14.832C79.1624 14.704 79.4344 14.536 79.6744 14.328L80.2024 16.512C79.8184 16.816 79.3384 17.056 78.7624 17.232C78.1864 17.408 77.5784 17.496 76.9384 17.496C76.1384 17.496 75.4264 17.376 74.8024 17.136C74.1944 16.896 73.7144 16.512 73.3624 15.984C73.0264 15.456 72.8584 14.752 72.8584 13.872V2.49599L76.1464 1.58398ZM79.9864 5.25599V7.70399H70.6504V5.25599H79.9864Z" fill="black"/>
<path d="M65.426 9.59987C65.426 8.91187 65.226 8.37587 64.826 7.99187C64.442 7.60787 63.93 7.41587 63.29 7.41587C62.698 7.41587 62.178 7.56787 61.73 7.87187C61.282 8.17587 60.954 8.67987 60.746 9.38387L57.938 8.51987C58.21 7.46387 58.802 6.61587 59.714 5.97587C60.642 5.33587 61.882 5.01587 63.434 5.01587C64.49 5.01587 65.41 5.18387 66.194 5.51987C66.978 5.83987 67.586 6.32787 68.018 6.98387C68.466 7.63987 68.69 8.46387 68.69 9.45587V14.3279C68.69 14.9359 68.978 15.2399 69.554 15.2399C69.826 15.2399 70.082 15.1999 70.322 15.1199L70.13 17.1599C69.714 17.3679 69.194 17.4719 68.57 17.4719C68.01 17.4719 67.506 17.3759 67.058 17.1839C66.61 16.9919 66.258 16.7039 66.002 16.3199C65.746 15.9199 65.618 15.4239 65.618 14.8319V14.7359L66.194 14.6399C66.098 15.2479 65.834 15.7679 65.402 16.1999C64.97 16.6159 64.442 16.9359 63.818 17.1599C63.21 17.3839 62.578 17.4959 61.922 17.4959C61.106 17.4959 60.402 17.3759 59.81 17.1359C59.218 16.8799 58.762 16.5119 58.442 16.0319C58.122 15.5519 57.962 14.9599 57.962 14.2559C57.962 13.3599 58.25 12.6319 58.826 12.0719C59.402 11.4959 60.226 11.1039 61.298 10.8959L65.81 9.98387L65.786 12.0239L62.906 12.5999C62.362 12.7119 61.946 12.8639 61.658 13.0559C61.386 13.2319 61.25 13.5279 61.25 13.9439C61.25 14.3439 61.394 14.6479 61.682 14.8559C61.986 15.0639 62.346 15.1679 62.762 15.1679C63.098 15.1679 63.426 15.1279 63.746 15.0479C64.066 14.9679 64.354 14.8399 64.61 14.6639C64.866 14.4879 65.066 14.2479 65.21 13.9439C65.354 13.6399 65.426 13.2719 65.426 12.8399V9.59987Z" fill="black"/>
<path d="M50.2555 17.4959C48.9915 17.4959 47.8875 17.2479 46.9435 16.7519C46.0155 16.2559 45.2955 15.5439 44.7835 14.6159C44.2715 13.6879 44.0155 12.5679 44.0155 11.2559C44.0155 9.94387 44.2715 8.82387 44.7835 7.89587C45.2955 6.96787 46.0075 6.25587 46.9195 5.75987C47.8475 5.26387 48.9035 5.01587 50.0875 5.01587C51.3035 5.01587 52.3355 5.26387 53.1835 5.75987C54.0315 6.23987 54.6795 6.90387 55.1275 7.75187C55.5755 8.58387 55.7995 9.53587 55.7995 10.6079C55.7995 10.9279 55.7915 11.2319 55.7755 11.5199C55.7595 11.8079 55.7355 12.0639 55.7035 12.2879H46.1275V10.0079H54.2635L52.6795 10.5839C52.6795 9.57587 52.4475 8.79987 51.9835 8.25587C51.5355 7.71187 50.8955 7.43987 50.0635 7.43987C49.4555 7.43987 48.9275 7.58387 48.4795 7.87187C48.0475 8.15987 47.7195 8.59187 47.4955 9.16787C47.2715 9.72787 47.1595 10.4399 47.1595 11.3039C47.1595 12.1519 47.2795 12.8559 47.5195 13.4159C47.7755 13.9599 48.1275 14.3679 48.5755 14.6399C49.0395 14.9119 49.5915 15.0479 50.2315 15.0479C50.9355 15.0479 51.5035 14.9119 51.9355 14.6399C52.3675 14.3679 52.7035 13.9919 52.9435 13.5119L55.5595 14.5199C55.3035 15.1439 54.9115 15.6799 54.3835 16.1279C53.8715 16.5759 53.2555 16.9199 52.5355 17.1599C51.8315 17.3839 51.0715 17.4959 50.2555 17.4959Z" fill="black"/>
<path d="M29.6406 22.2959V5.25587H32.5926L32.8086 9.07187L32.4006 8.63987C32.5446 7.93587 32.8086 7.31187 33.1926 6.76787C33.5926 6.22387 34.0966 5.79987 34.7046 5.49587C35.3126 5.17587 35.9926 5.01587 36.7446 5.01587C37.7206 5.01587 38.5926 5.26387 39.3606 5.75987C40.1286 6.25587 40.7286 6.96787 41.1606 7.89587C41.6086 8.80787 41.8326 9.91987 41.8326 11.2319C41.8326 12.5439 41.6086 13.6719 41.1606 14.6159C40.7126 15.5439 40.0966 16.2559 39.3126 16.7519C38.5446 17.2479 37.6646 17.4959 36.6726 17.4959C35.6166 17.4959 34.7366 17.1999 34.0326 16.6079C33.3446 16.0159 32.8726 15.2719 32.6166 14.3759L32.9286 13.8719V22.2959H29.6406ZM35.7126 14.9759C36.5926 14.9759 37.2806 14.6639 37.7766 14.0399C38.2886 13.3999 38.5446 12.4719 38.5446 11.2559C38.5446 10.0399 38.2966 9.11987 37.8006 8.49587C37.3206 7.85587 36.6406 7.53587 35.7606 7.53587C35.2006 7.53587 34.7046 7.68787 34.2726 7.99187C33.8566 8.27987 33.5286 8.70387 33.2886 9.26387C33.0486 9.80787 32.9286 10.4719 32.9286 11.2559C32.9286 12.0239 33.0406 12.6879 33.2646 13.2479C33.4886 13.8079 33.8086 14.2399 34.2246 14.5439C34.6566 14.8319 35.1526 14.9759 35.7126 14.9759Z" fill="black"/>
<path d="M21.3102 17.4959C20.0462 17.4959 18.9422 17.2479 17.9982 16.7519C17.0702 16.2559 16.3502 15.5439 15.8382 14.6159C15.3262 13.6879 15.0702 12.5679 15.0702 11.2559C15.0702 9.94387 15.3262 8.82387 15.8382 7.89587C16.3502 6.96787 17.0622 6.25587 17.9742 5.75987C18.9022 5.26387 19.9582 5.01587 21.1422 5.01587C22.3582 5.01587 23.3902 5.26387 24.2382 5.75987C25.0862 6.23987 25.7342 6.90387 26.1822 7.75187C26.6302 8.58387 26.8542 9.53587 26.8542 10.6079C26.8542 10.9279 26.8462 11.2319 26.8302 11.5199C26.8142 11.8079 26.7902 12.0639 26.7582 12.2879H17.1822V10.0079H25.3182L23.7342 10.5839C23.7342 9.57587 23.5022 8.79987 23.0382 8.25587C22.5902 7.71187 21.9502 7.43987 21.1182 7.43987C20.5102 7.43987 19.9822 7.58387 19.5342 7.87187C19.1022 8.15987 18.7742 8.59187 18.5502 9.16787C18.3262 9.72787 18.2142 10.4399 18.2142 11.3039C18.2142 12.1519 18.3342 12.8559 18.5742 13.4159C18.8302 13.9599 19.1822 14.3679 19.6302 14.6399C20.0942 14.9119 20.6462 15.0479 21.2862 15.0479C21.9902 15.0479 22.5582 14.9119 22.9902 14.6399C23.4222 14.3679 23.7582 13.9919 23.9982 13.5119L26.6142 14.5199C26.3582 15.1439 25.9662 15.6799 25.4382 16.1279C24.9262 16.5759 24.3102 16.9199 23.5902 17.1599C22.8862 17.3839 22.1262 17.4959 21.3102 17.4959Z" fill="black"/>
<path d="M6.984 1.41577C8.776 1.41577 10.184 1.84777 11.208 2.71177C12.232 3.57577 12.744 4.73577 12.744 6.19177C12.744 7.74377 12.232 8.93577 11.208 9.76777C10.184 10.5838 8.784 10.9918 7.008 10.9918L6.672 11.1838H3.264V17.2558H0V1.41577H6.984ZM6.6 8.66377C7.528 8.66377 8.216 8.47977 8.664 8.11177C9.128 7.72777 9.36 7.14377 9.36 6.35977C9.36 5.57577 9.128 4.99977 8.664 4.63177C8.216 4.24777 7.528 4.05577 6.6 4.05577H3.264V8.66377H6.6ZM8.544 9.35977L13.68 17.2558H9.96L5.712 10.3198L8.544 9.35977Z" fill="black"/>
</svg>
