<svg width="113" height="15" viewBox="0 0 113 15" fill="none" xmlns="http://www.w3.org/2000/svg">
<path d="M109.45 11.6638C108.639 11.6638 107.898 11.5198 107.226 11.2318C106.564 10.9438 106.026 10.5384 105.61 10.0158L106.874 8.73575C107.13 9.11975 107.471 9.43442 107.898 9.67975C108.324 9.92508 108.831 10.0478 109.418 10.0478C109.834 10.0478 110.164 9.98908 110.41 9.87175C110.666 9.74375 110.794 9.54642 110.794 9.27975C110.794 9.10908 110.735 8.96508 110.618 8.84775C110.5 8.71975 110.266 8.61842 109.914 8.54375L108.506 8.25575C107.578 8.06375 106.916 7.77575 106.522 7.39175C106.138 6.99708 105.946 6.49042 105.946 5.87175C105.946 5.43442 106.074 5.02375 106.33 4.63975C106.596 4.25575 106.991 3.94642 107.514 3.71175C108.036 3.46642 108.687 3.34375 109.466 3.34375C110.266 3.34375 110.959 3.47175 111.546 3.72775C112.143 3.97308 112.612 4.34108 112.954 4.83175L111.642 6.11175C111.407 5.73842 111.098 5.45575 110.714 5.26375C110.34 5.06108 109.946 4.95975 109.53 4.95975C109.231 4.95975 108.975 4.99175 108.762 5.05575C108.548 5.11975 108.388 5.21042 108.282 5.32775C108.175 5.43442 108.122 5.57308 108.122 5.74375C108.122 5.91442 108.196 6.06375 108.346 6.19175C108.495 6.30908 108.767 6.41042 109.162 6.49575L110.794 6.83175C111.583 6.99175 112.148 7.26375 112.49 7.64775C112.831 8.02108 113.002 8.47442 113.002 9.00775C113.002 9.51975 112.863 9.97842 112.586 10.3838C112.319 10.7784 111.919 11.0931 111.386 11.3278C110.863 11.5518 110.218 11.6638 109.45 11.6638Z" fill="black"/>
<path d="M100.32 3.34375C101.13 3.34375 101.84 3.50908 102.448 3.83975C103.066 4.17042 103.546 4.64508 103.888 5.26375C104.24 5.88242 104.416 6.62908 104.416 7.50375C104.416 8.36775 104.24 9.11442 103.888 9.74375C103.546 10.3624 103.066 10.8371 102.448 11.1678C101.84 11.4984 101.13 11.6638 100.32 11.6638C99.5196 11.6638 98.8103 11.4984 98.1916 11.1678C97.573 10.8371 97.0876 10.3624 96.7356 9.74375C96.3943 9.11442 96.2236 8.36775 96.2236 7.50375C96.2236 6.62908 96.3943 5.88242 96.7356 5.26375C97.0876 4.64508 97.573 4.17042 98.1916 3.83975C98.8103 3.50908 99.5196 3.34375 100.32 3.34375ZM100.32 4.97575C99.9143 4.97575 99.5676 5.07175 99.2796 5.26375C99.0023 5.44508 98.789 5.72242 98.6396 6.09575C98.4903 6.46908 98.4156 6.93842 98.4156 7.50375C98.4156 8.06908 98.4903 8.53842 98.6396 8.91175C98.789 9.28508 99.0023 9.56775 99.2796 9.75975C99.5676 9.94108 99.9143 10.0318 100.32 10.0318C100.714 10.0318 101.05 9.94108 101.328 9.75975C101.616 9.56775 101.834 9.28508 101.984 8.91175C102.133 8.53842 102.208 8.06908 102.208 7.50375C102.208 6.93842 102.133 6.46908 101.984 6.09575C101.834 5.72242 101.616 5.44508 101.328 5.26375C101.05 5.07175 100.714 4.97575 100.32 4.97575Z" fill="black"/>
<path d="M92.6286 1.05566V8.89567C92.6286 9.27966 92.7246 9.56233 92.9166 9.74366C93.1193 9.91433 93.3913 9.99967 93.7326 9.99967C93.9993 9.99967 94.2339 9.96233 94.4366 9.88766C94.6393 9.80233 94.8206 9.69033 94.9806 9.55167L95.3326 11.0077C95.0766 11.2103 94.7566 11.3703 94.3726 11.4877C93.9886 11.605 93.5833 11.6637 93.1566 11.6637C92.6233 11.6637 92.1486 11.5837 91.7326 11.4237C91.3273 11.2637 91.0073 11.0077 90.7726 10.6557C90.5486 10.3037 90.4366 9.83433 90.4366 9.24766V1.66366L92.6286 1.05566ZM95.1886 3.50366V5.13566H88.9646V3.50366H95.1886Z" fill="black"/>
<path d="M83.9446 3.34375C84.7553 3.34375 85.4646 3.50908 86.0726 3.83975C86.6913 4.17042 87.1713 4.64508 87.5126 5.26375C87.8646 5.88242 88.0406 6.62908 88.0406 7.50375C88.0406 8.36775 87.8646 9.11442 87.5126 9.74375C87.1713 10.3624 86.6913 10.8371 86.0726 11.1678C85.4646 11.4984 84.7553 11.6638 83.9446 11.6638C83.1446 11.6638 82.4353 11.4984 81.8166 11.1678C81.198 10.8371 80.7126 10.3624 80.3606 9.74375C80.0193 9.11442 79.8486 8.36775 79.8486 7.50375C79.8486 6.62908 80.0193 5.88242 80.3606 5.26375C80.7126 4.64508 81.198 4.17042 81.8166 3.83975C82.4353 3.50908 83.1446 3.34375 83.9446 3.34375ZM83.9446 4.97575C83.5393 4.97575 83.1926 5.07175 82.9046 5.26375C82.6273 5.44508 82.414 5.72242 82.2646 6.09575C82.1153 6.46908 82.0406 6.93842 82.0406 7.50375C82.0406 8.06908 82.1153 8.53842 82.2646 8.91175C82.414 9.28508 82.6273 9.56775 82.9046 9.75975C83.1926 9.94108 83.5393 10.0318 83.9446 10.0318C84.3393 10.0318 84.6753 9.94108 84.9526 9.75975C85.2406 9.56775 85.4593 9.28508 85.6086 8.91175C85.758 8.53842 85.8326 8.06908 85.8326 7.50375C85.8326 6.93842 85.758 6.46908 85.6086 6.09575C85.4593 5.72242 85.2406 5.44508 84.9526 5.26375C84.6753 5.07175 84.3393 4.97575 83.9446 4.97575Z" fill="black"/>
<path d="M70.3901 11.504V0H72.5821V4.864C72.8381 4.352 73.1901 3.97333 73.6381 3.728C74.0861 3.472 74.5928 3.344 75.1581 3.344C75.7128 3.344 76.2035 3.45067 76.6301 3.664C77.0675 3.87733 77.4088 4.20267 77.6541 4.64C77.9101 5.06667 78.0381 5.60533 78.0381 6.256V11.504H75.8461V6.896C75.8461 6.20267 75.7128 5.728 75.4461 5.472C75.1795 5.20533 74.8381 5.072 74.4221 5.072C74.1128 5.072 73.8141 5.14667 73.5261 5.296C73.2488 5.43467 73.0195 5.66933 72.8381 6C72.6675 6.32 72.5821 6.74667 72.5821 7.28V11.504H70.3901Z" fill="black"/>
<path d="M64.7025 0.943848C65.5132 0.943848 66.2065 1.08251 66.7825 1.35985C67.3585 1.62651 67.8012 2.01585 68.1105 2.52785C68.4305 3.02918 68.5905 3.63718 68.5905 4.35185C68.5905 5.06651 68.4305 5.67985 68.1105 6.19185C67.8012 6.69318 67.3585 7.08251 66.7825 7.35985C66.2065 7.62651 65.5132 7.75985 64.7025 7.75985H62.4785V11.5038H60.2705V0.943848H64.7025ZM64.3665 6.01585C65.0278 6.01585 65.5238 5.87718 65.8545 5.59985C66.1852 5.31185 66.3505 4.89585 66.3505 4.35185C66.3505 3.79718 66.1852 3.38118 65.8545 3.10385C65.5238 2.82651 65.0278 2.68785 64.3665 2.68785H62.4785V6.01585H64.3665Z" fill="black"/>
<path d="M48.1486 11.664C47.4873 11.664 46.8953 11.4987 46.3726 11.168C45.8606 10.8373 45.4553 10.3627 45.1566 9.744C44.8686 9.12533 44.7246 8.384 44.7246 7.52C44.7246 6.63467 44.8793 5.88267 45.1886 5.264C45.4979 4.63467 45.9139 4.16 46.4366 3.84C46.9699 3.50933 47.5673 3.344 48.2286 3.344C48.9326 3.344 49.5139 3.54667 49.9726 3.952C50.4313 4.35733 50.7299 4.88 50.8686 5.52L50.6606 5.776V0H52.8526V11.504H50.8846L50.7406 9.072L51.0126 9.2C50.9379 9.70133 50.7673 10.1387 50.5006 10.512C50.2339 10.8747 49.8979 11.1573 49.4926 11.36C49.0873 11.5627 48.6393 11.664 48.1486 11.664ZM48.7886 9.984C49.1726 9.984 49.5033 9.888 49.7806 9.696C50.0579 9.49333 50.2713 9.2 50.4206 8.816C50.5806 8.432 50.6606 7.97333 50.6606 7.44C50.6606 6.928 50.5859 6.496 50.4366 6.144C50.2873 5.78133 50.0739 5.504 49.7966 5.312C49.5193 5.12 49.1939 5.024 48.8206 5.024C48.2233 5.024 47.7539 5.23733 47.4126 5.664C47.0819 6.08 46.9166 6.69333 46.9166 7.504C46.9166 8.31467 47.0819 8.93333 47.4126 9.36C47.7433 9.776 48.2019 9.984 48.7886 9.984Z" fill="black"/>
<path d="M40.5284 6.39975C40.5284 5.94108 40.395 5.58375 40.1284 5.32775C39.8724 5.07175 39.531 4.94375 39.1044 4.94375C38.7097 4.94375 38.363 5.04508 38.0644 5.24775C37.7657 5.45042 37.547 5.78642 37.4084 6.25575L35.5364 5.67975C35.7177 4.97575 36.1124 4.41042 36.7204 3.98375C37.339 3.55708 38.1657 3.34375 39.2004 3.34375C39.9044 3.34375 40.5177 3.45575 41.0404 3.67975C41.563 3.89308 41.9684 4.21842 42.2564 4.65575C42.555 5.09308 42.7044 5.64242 42.7044 6.30375V9.55175C42.7044 9.95708 42.8964 10.1598 43.2804 10.1598C43.4617 10.1598 43.6324 10.1331 43.7924 10.0798L43.6644 11.4398C43.387 11.5784 43.0404 11.6478 42.6244 11.6478C42.251 11.6478 41.915 11.5838 41.6164 11.4558C41.3177 11.3278 41.083 11.1358 40.9124 10.8798C40.7417 10.6131 40.6564 10.2824 40.6564 9.88775V9.82375L41.0404 9.75975C40.9764 10.1651 40.8004 10.5118 40.5124 10.7998C40.2244 11.0771 39.8724 11.2904 39.4564 11.4398C39.051 11.5891 38.6297 11.6638 38.1924 11.6638C37.6484 11.6638 37.179 11.5838 36.7844 11.4238C36.3897 11.2531 36.0857 11.0078 35.8724 10.6878C35.659 10.3678 35.5524 9.97308 35.5524 9.50375C35.5524 8.90642 35.7444 8.42108 36.1284 8.04775C36.5124 7.66375 37.0617 7.40242 37.7764 7.26375L40.7844 6.65575L40.7684 8.01575L38.8484 8.39975C38.4857 8.47442 38.2084 8.57575 38.0164 8.70375C37.835 8.82108 37.7444 9.01842 37.7444 9.29575C37.7444 9.56242 37.8404 9.76508 38.0324 9.90375C38.235 10.0424 38.475 10.1118 38.7524 10.1118C38.9764 10.1118 39.195 10.0851 39.4084 10.0318C39.6217 9.97842 39.8137 9.89308 39.9844 9.77575C40.155 9.65842 40.2884 9.49842 40.3844 9.29575C40.4804 9.09308 40.5284 8.84775 40.5284 8.55975V6.39975Z" fill="black"/>
<path d="M30.0853 3.34375C30.8959 3.34375 31.6053 3.50908 32.2133 3.83975C32.8319 4.17042 33.3119 4.64508 33.6533 5.26375C34.0053 5.88242 34.1813 6.62908 34.1813 7.50375C34.1813 8.36775 34.0053 9.11442 33.6533 9.74375C33.3119 10.3624 32.8319 10.8371 32.2133 11.1678C31.6053 11.4984 30.8959 11.6638 30.0853 11.6638C29.2853 11.6638 28.5759 11.4984 27.9573 11.1678C27.3386 10.8371 26.8533 10.3624 26.5013 9.74375C26.1599 9.11442 25.9893 8.36775 25.9893 7.50375C25.9893 6.62908 26.1599 5.88242 26.5013 5.26375C26.8533 4.64508 27.3386 4.17042 27.9573 3.83975C28.5759 3.50908 29.2853 3.34375 30.0853 3.34375ZM30.0853 4.97575C29.6799 4.97575 29.3333 5.07175 29.0453 5.26375C28.7679 5.44508 28.5546 5.72242 28.4053 6.09575C28.2559 6.46908 28.1813 6.93842 28.1813 7.50375C28.1813 8.06908 28.2559 8.53842 28.4053 8.91175C28.5546 9.28508 28.7679 9.56775 29.0453 9.75975C29.3333 9.94108 29.6799 10.0318 30.0853 10.0318C30.4799 10.0318 30.8159 9.94108 31.0933 9.75975C31.3813 9.56775 31.5999 9.28508 31.7493 8.91175C31.8986 8.53842 31.9733 8.06908 31.9733 7.50375C31.9733 6.93842 31.8986 6.46908 31.7493 6.09575C31.5999 5.72242 31.3813 5.44508 31.0933 5.26375C30.8159 5.07175 30.4799 4.97575 30.0853 4.97575Z" fill="black"/>
<path d="M23.4879 0V9.04C23.4879 9.41333 23.5519 9.67467 23.6799 9.824C23.8079 9.97333 24.0212 10.048 24.3199 10.048C24.5012 10.048 24.6506 10.0373 24.7679 10.016C24.8852 9.984 25.0346 9.94133 25.2159 9.888L25.0239 11.328C24.8426 11.4347 24.6132 11.5147 24.3359 11.568C24.0692 11.632 23.8026 11.664 23.5359 11.664C22.7572 11.664 22.1866 11.4773 21.8239 11.104C21.4719 10.72 21.2959 10.112 21.2959 9.28V0H23.4879Z" fill="black"/>
<path d="M11.2964 14.8638V3.50375H13.2644L13.4084 6.04775L13.1364 5.75975C13.2324 5.29042 13.4084 4.87442 13.6644 4.51175C13.9311 4.14908 14.2671 3.86642 14.6724 3.66375C15.0777 3.45042 15.5311 3.34375 16.0324 3.34375C16.6831 3.34375 17.2644 3.50908 17.7764 3.83975C18.2884 4.17042 18.6884 4.64508 18.9764 5.26375C19.2751 5.87175 19.4244 6.61308 19.4244 7.48775C19.4244 8.36242 19.2751 9.11442 18.9764 9.74375C18.6777 10.3624 18.2671 10.8371 17.7444 11.1678C17.2324 11.4984 16.6457 11.6638 15.9844 11.6638C15.2804 11.6638 14.6937 11.4664 14.2244 11.0718C13.7657 10.6771 13.4511 10.1811 13.2804 9.58375L13.4884 9.24775V14.8638H11.2964ZM15.3444 9.98375C15.9311 9.98375 16.3897 9.77575 16.7204 9.35975C17.0617 8.93308 17.2324 8.31442 17.2324 7.50375C17.2324 6.69308 17.0671 6.07975 16.7364 5.66375C16.4164 5.23708 15.9631 5.02375 15.3764 5.02375C15.0031 5.02375 14.6724 5.12508 14.3844 5.32775C14.1071 5.51975 13.8884 5.80242 13.7284 6.17575C13.5684 6.53842 13.4884 6.98108 13.4884 7.50375C13.4884 8.01575 13.5631 8.45842 13.7124 8.83175C13.8617 9.20508 14.0751 9.49308 14.3524 9.69575C14.6404 9.88775 14.9711 9.98375 15.3444 9.98375Z" fill="black"/>
<path d="M9.024 0.943848V7.34385C9.024 8.78385 8.64 9.86652 7.872 10.5918C7.104 11.3065 5.984 11.6638 4.512 11.6638C3.04 11.6638 1.92 11.3065 1.152 10.5918C0.384 9.86652 0 8.78385 0 7.34385V0.943848H2.208V7.24785C2.208 8.13318 2.39467 8.78918 2.768 9.21585C3.152 9.64251 3.73333 9.85585 4.512 9.85585C5.29067 9.85585 5.86667 9.64251 6.24 9.21585C6.61333 8.78918 6.8 8.13318 6.8 7.24785V0.943848H9.024Z" fill="black"/>
</svg>
