<svg width="375" height="132" viewBox="0 0 375 132" fill="none" xmlns="http://www.w3.org/2000/svg">
<g clip-path="url(#clip0_27_46)">
<path d="M319.815 101.429C325.987 115.05 339.985 110.409 339.985 110.409C339.985 110.409 334.067 96.9023 319.815 101.429Z" fill="#69C3E8"/>
<path d="M164.39 108.726C175.741 118.463 186.466 108.341 186.466 108.341C186.466 108.341 175.394 98.6005 164.39 108.726Z" fill="#69C3E8"/>
<path d="M55.6677 59.0602C57.588 73.8908 72.3309 73.5453 72.3309 73.5453C72.3309 73.5453 70.6206 58.8985 55.6677 59.0602Z" fill="#69C3E8"/>
<path d="M28.085 30.8375C27.6616 45.7859 42.2771 47.751 42.2771 47.751C42.2771 47.751 42.879 33.0169 28.085 30.8375Z" fill="#69C3E8"/>
<path d="M3.3816 2.837C2.9582 17.7854 17.5737 19.7505 17.5737 19.7505C17.5737 19.7505 18.1757 5.01644 3.3816 2.837Z" fill="#69C3E8"/>
<path d="M353.817 115.369C357.023 129.976 371.68 128.347 371.68 128.347C371.68 128.347 368.699 113.905 353.817 115.369Z" fill="#69C3E8"/>
<path d="M89.6819 85.6861C95.3792 99.5218 109.538 95.3692 109.538 95.3692C109.538 95.3692 104.091 81.6568 89.6819 85.6861Z" fill="#69C3E8"/>
<path d="M125.589 100.397C133.375 113.165 146.703 106.853 146.703 106.853C146.703 106.853 139.183 94.1678 125.589 100.397Z" fill="#69C3E8"/>
<path d="M281.033 91.6479C289.691 103.841 302.546 96.6146 302.546 96.6146C302.546 96.6146 294.16 84.4852 281.033 91.6479Z" fill="#69C3E8"/>
<path d="M207.766 101.353C214.639 88.0759 228.379 93.4402 228.379 93.4402C228.379 93.4402 221.757 106.621 207.766 101.353Z" fill="#69C3E8"/>
<path d="M244.459 89.1436C255.973 79.6077 266.525 89.9142 266.525 89.9142C266.525 89.9142 255.28 99.4596 244.459 89.1436Z" fill="#69C3E8"/>
</g>
<defs>
<clipPath id="clip0_27_46">
<rect width="374.275" height="131.918" fill="white"/>
</clipPath>
</defs>
</svg>
