<svg width="43" height="15" viewBox="0 0 43 15" fill="none" xmlns="http://www.w3.org/2000/svg">
<path d="M36.6868 14.5454V3.63628H38.3061V5.284H38.4197C38.6186 4.74423 38.9784 4.30626 39.4993 3.97008C40.0201 3.63391 40.6072 3.46582 41.2606 3.46582C41.3837 3.46582 41.5376 3.46819 41.7223 3.47292C41.9069 3.47766 42.0466 3.48476 42.1413 3.49423V5.19878C42.0845 5.18457 41.9543 5.16326 41.7507 5.13485C41.5518 5.10171 41.3411 5.08514 41.1186 5.08514C40.5883 5.08514 40.1148 5.19641 39.6981 5.41895C39.2862 5.63675 38.9595 5.93978 38.718 6.32804C38.4813 6.71156 38.3629 7.14953 38.3629 7.64196V14.5454H36.6868Z" fill="black"/>
<path d="M29.62 14.7728C28.5689 14.7728 27.6622 14.5408 26.8998 14.0768C26.1423 13.608 25.5575 12.9546 25.1456 12.1165C24.7384 11.2737 24.5348 10.2936 24.5348 9.1762C24.5348 8.05878 24.7384 7.07393 25.1456 6.22166C25.5575 5.36465 26.1304 4.69704 26.8643 4.21882C27.603 3.73586 28.4647 3.49438 29.4496 3.49438C30.0177 3.49438 30.5788 3.58908 31.1328 3.77847C31.6868 3.96787 32.191 4.27563 32.6456 4.70177C33.1001 5.12317 33.4623 5.68188 33.7322 6.37791C34.0021 7.07393 34.1371 7.93094 34.1371 8.94893V9.65916H25.728V8.21029H32.4325C32.4325 7.59476 32.3094 7.04552 32.0632 6.56257C31.8217 6.07961 31.4761 5.69846 31.0263 5.4191C30.5812 5.13974 30.0556 5.00007 29.4496 5.00007C28.7819 5.00007 28.2043 5.16579 27.7166 5.49722C27.2337 5.82393 26.862 6.25007 26.6016 6.77563C26.3411 7.3012 26.2109 7.86465 26.2109 8.46597V9.43188C26.2109 10.2557 26.353 10.9541 26.6371 11.5271C26.9259 12.0952 27.326 12.5285 27.8373 12.8268C28.3487 13.1203 28.9429 13.2671 29.62 13.2671C30.0604 13.2671 30.4581 13.2056 30.8132 13.0825C31.173 12.9546 31.4832 12.7652 31.7436 12.5143C32.004 12.2586 32.2052 11.9414 32.3473 11.5626L33.9666 12.0171C33.7962 12.5664 33.5097 13.0493 33.1072 13.466C32.7048 13.8779 32.2076 14.1999 31.6158 14.4319C31.0239 14.6592 30.3587 14.7728 29.62 14.7728Z" fill="black"/>
<path d="M22.3242 6.07961L20.8186 6.50575C20.7239 6.2548 20.5842 6.01096 20.3995 5.77421C20.2196 5.53274 19.9734 5.33387 19.6609 5.17762C19.3484 5.02137 18.9483 4.94325 18.4606 4.94325C17.793 4.94325 17.2366 5.09713 16.7916 5.4049C16.3512 5.70793 16.1311 6.09382 16.1311 6.56257C16.1311 6.97923 16.2826 7.3083 16.5856 7.54978C16.8886 7.79126 17.3621 7.99249 18.0061 8.15347L19.6254 8.5512C20.6008 8.78794 21.3276 9.15016 21.8058 9.63785C22.284 10.1208 22.5231 10.7434 22.5231 11.5057C22.5231 12.1307 22.3432 12.6895 21.9833 13.1819C21.6282 13.6743 21.1311 14.0626 20.4919 14.3467C19.8527 14.6307 19.1093 14.7728 18.2617 14.7728C17.1491 14.7728 16.2281 14.5313 15.499 14.0484C14.7698 13.5654 14.3081 12.8599 14.114 11.9319L15.7049 11.5342C15.8564 12.1213 16.1429 12.5616 16.5643 12.8552C16.9904 13.1487 17.5468 13.2955 18.2333 13.2955C19.0146 13.2955 19.6348 13.1298 20.0941 12.7984C20.5581 12.4622 20.7902 12.0597 20.7902 11.591C20.7902 11.2122 20.6576 10.895 20.3924 10.6393C20.1273 10.3789 19.7201 10.1847 19.1708 10.0569L17.3526 9.63075C16.3536 9.39401 15.6197 9.02705 15.1509 8.5299C14.6869 8.028 14.4549 7.40063 14.4549 6.64779C14.4549 6.03226 14.6277 5.48776 14.9734 5.01427C15.3238 4.54079 15.7996 4.1691 16.4009 3.89921C17.007 3.62933 17.6936 3.49438 18.4606 3.49438C19.5402 3.49438 20.3877 3.73113 21.0032 4.20461C21.6235 4.6781 22.0638 5.3031 22.3242 6.07961Z" fill="black"/>
<path d="M9.54545 0H11.3068V9.63068C11.3068 10.625 11.0724 11.5128 10.6037 12.294C10.1397 13.0705 9.4839 13.6837 8.63636 14.1335C7.78883 14.5786 6.79451 14.8011 5.65341 14.8011C4.51231 14.8011 3.51799 14.5786 2.67045 14.1335C1.82292 13.6837 1.16477 13.0705 0.696023 12.294C0.232008 11.5128 0 10.625 0 9.63068V0H1.76136V9.48864C1.76136 10.1989 1.91761 10.831 2.23011 11.3849C2.54261 11.9342 2.98769 12.3674 3.56534 12.6847C4.14773 12.9972 4.84375 13.1534 5.65341 13.1534C6.46307 13.1534 7.15909 12.9972 7.74148 12.6847C8.32386 12.3674 8.76894 11.9342 9.0767 11.3849C9.3892 10.831 9.54545 10.1989 9.54545 9.48864V0Z" fill="black"/>
</svg>
