<svg width="116" height="18" viewBox="0 0 116 18" fill="none" xmlns="http://www.w3.org/2000/svg">
<path d="M110.396 17.4961C109.132 17.4961 108.028 17.2481 107.084 16.7521C106.156 16.2561 105.436 15.5441 104.924 14.6161C104.412 13.6881 104.156 12.5681 104.156 11.2561C104.156 9.94411 104.412 8.82411 104.924 7.89611C105.436 6.96811 106.148 6.25611 107.06 5.76011C107.988 5.26411 109.044 5.01611 110.228 5.01611C111.444 5.01611 112.476 5.26411 113.324 5.76011C114.172 6.24011 114.82 6.90411 115.268 7.75211C115.716 8.58411 115.94 9.53612 115.94 10.6081C115.94 10.9281 115.932 11.2321 115.916 11.5201C115.9 11.8081 115.876 12.0641 115.844 12.2881H106.268V10.0081H114.404L112.82 10.5841C112.82 9.57611 112.588 8.80012 112.124 8.25611C111.676 7.71212 111.036 7.44011 110.204 7.44011C109.596 7.44011 109.068 7.58411 108.62 7.87211C108.188 8.16011 107.86 8.59211 107.636 9.16811C107.412 9.72811 107.3 10.4401 107.3 11.3041C107.3 12.1521 107.42 12.8561 107.66 13.4161C107.916 13.9601 108.268 14.3681 108.716 14.6401C109.18 14.9121 109.732 15.0481 110.372 15.0481C111.076 15.0481 111.644 14.9121 112.076 14.6401C112.508 14.3681 112.844 13.9921 113.084 13.5121L115.7 14.5201C115.444 15.1441 115.052 15.6801 114.524 16.1281C114.012 16.5761 113.396 16.9201 112.676 17.1601C111.972 17.3841 111.212 17.4961 110.396 17.4961Z" fill="black"/>
<path d="M82.1406 17.2561V5.25611H85.0926L85.2126 7.41611C85.6126 6.61612 86.1566 6.01612 86.8446 5.61612C87.5486 5.21611 88.3246 5.01611 89.1726 5.01611C90.0366 5.01611 90.8126 5.21611 91.5006 5.61612C92.2046 6.01612 92.7326 6.60811 93.0846 7.39211C93.3406 6.86411 93.6846 6.42411 94.1166 6.07211C94.5486 5.72011 95.0286 5.45611 95.5566 5.28012C96.0846 5.10411 96.6206 5.01611 97.1646 5.01611C97.9486 5.01611 98.6606 5.17611 99.3006 5.49611C99.9566 5.81611 100.477 6.29611 100.861 6.93612C101.245 7.57612 101.437 8.39211 101.437 9.38411V17.2561H98.1486V10.0321C98.1486 9.15212 97.9566 8.52811 97.5726 8.16011C97.1886 7.79211 96.6926 7.60811 96.0846 7.60811C95.6046 7.60811 95.1566 7.72812 94.7406 7.96811C94.3406 8.20812 94.0206 8.56811 93.7806 9.04811C93.5566 9.51211 93.4446 10.0961 93.4446 10.8001V17.2561H90.1566V10.0321C90.1566 9.15212 89.9566 8.52811 89.5566 8.16011C89.1726 7.79211 88.6766 7.60811 88.0686 7.60811C87.6526 7.60811 87.2366 7.72011 86.8206 7.94411C86.4206 8.16811 86.0846 8.52011 85.8126 9.00011C85.5566 9.48011 85.4286 10.1121 85.4286 10.8961V17.2561H82.1406Z" fill="black"/>
<path d="M75.1994 9.60012C75.1994 8.91212 74.9994 8.37611 74.5994 7.99212C74.2154 7.60811 73.7034 7.41611 73.0634 7.41611C72.4714 7.41611 71.9514 7.56811 71.5034 7.87211C71.0554 8.17611 70.7274 8.68011 70.5194 9.38411L67.7114 8.52011C67.9834 7.46412 68.5754 6.61611 69.4874 5.97611C70.4154 5.33611 71.6554 5.01611 73.2074 5.01611C74.2634 5.01611 75.1834 5.18411 75.9674 5.52011C76.7514 5.84012 77.3594 6.32811 77.7914 6.98411C78.2394 7.64011 78.4634 8.46412 78.4634 9.45612V14.3281C78.4634 14.9361 78.7514 15.2401 79.3274 15.2401C79.5994 15.2401 79.8554 15.2001 80.0954 15.1201L79.9034 17.1601C79.4874 17.3681 78.9674 17.4721 78.3434 17.4721C77.7834 17.4721 77.2794 17.3761 76.8314 17.1841C76.3834 16.9921 76.0314 16.7041 75.7754 16.3201C75.5194 15.9201 75.3914 15.4241 75.3914 14.8321V14.7361L75.9674 14.6401C75.8714 15.2481 75.6074 15.7681 75.1754 16.2001C74.7434 16.6161 74.2154 16.9361 73.5914 17.1601C72.9834 17.3841 72.3514 17.4961 71.6954 17.4961C70.8794 17.4961 70.1754 17.3761 69.5834 17.1361C68.9914 16.8801 68.5354 16.5121 68.2154 16.0321C67.8954 15.5521 67.7354 14.9601 67.7354 14.2561C67.7354 13.3601 68.0234 12.6321 68.5994 12.0721C69.1754 11.4961 69.9994 11.1041 71.0714 10.8961L75.5834 9.98412L75.5594 12.0241L72.6794 12.6001C72.1354 12.7121 71.7194 12.8641 71.4314 13.0561C71.1594 13.2321 71.0234 13.5281 71.0234 13.9441C71.0234 14.3441 71.1674 14.6481 71.4554 14.8561C71.7594 15.0641 72.1194 15.1681 72.5354 15.1681C72.8714 15.1681 73.1994 15.1281 73.5194 15.0481C73.8394 14.9681 74.1274 14.8401 74.3834 14.6641C74.6394 14.4881 74.8394 14.2481 74.9834 13.9441C75.1274 13.6401 75.1994 13.2721 75.1994 12.8401V9.60012Z" fill="black"/>
<path d="M64.6549 1.41602V17.256H60.8629L55.3189 7.94402L53.9509 5.35201H53.9269L54.0229 8.08801V17.256H51.0469V1.41602H54.8149L60.3589 10.704L61.7269 13.32H61.7749L61.6789 10.584V1.41602H64.6549Z" fill="black"/>
<path d="M39.4665 0V13.56C39.4665 14.12 39.5625 14.512 39.7545 14.736C39.9465 14.96 40.2665 15.072 40.7145 15.072C40.9865 15.072 41.2105 15.056 41.3865 15.024C41.5625 14.976 41.7865 14.912 42.0585 14.832L41.7705 16.992C41.4985 17.152 41.1545 17.272 40.7385 17.352C40.3385 17.448 39.9385 17.496 39.5385 17.496C38.3705 17.496 37.5145 17.216 36.9705 16.656C36.4425 16.08 36.1785 15.168 36.1785 13.92V0H39.4665Z" fill="black"/>
<path d="M31.8024 0V13.56C31.8024 14.12 31.8984 14.512 32.0904 14.736C32.2824 14.96 32.6024 15.072 33.0504 15.072C33.3224 15.072 33.5464 15.056 33.7224 15.024C33.8984 14.976 34.1224 14.912 34.3944 14.832L34.1064 16.992C33.8344 17.152 33.4904 17.272 33.0744 17.352C32.6744 17.448 32.2744 17.496 31.8744 17.496C30.7064 17.496 29.8504 17.216 29.3064 16.656C28.7784 16.08 28.5144 15.168 28.5144 13.92V0H31.8024Z" fill="black"/>
<path d="M17.9025 17.4961C17.1025 17.4961 16.3825 17.3521 15.7425 17.0641C15.1025 16.7761 14.5905 16.3201 14.2065 15.6961C13.8385 15.0561 13.6545 14.2321 13.6545 13.2241V5.2561H16.9425V12.4321C16.9425 13.3601 17.1345 14.0081 17.5185 14.3761C17.9025 14.7281 18.4545 14.9041 19.1745 14.9041C19.5105 14.9041 19.8385 14.8481 20.1585 14.7361C20.4785 14.6081 20.7585 14.4161 20.9985 14.1601C21.2545 13.9041 21.4545 13.5761 21.5985 13.1761C21.7425 12.7601 21.8145 12.2721 21.8145 11.7121V5.2561H25.1025V17.2561H22.1745L22.0545 15.1681C21.6545 15.9681 21.1025 16.5601 20.3985 16.9441C19.7105 17.3121 18.8785 17.4961 17.9025 17.4961Z" fill="black"/>
<path d="M11.856 4.08002H3.312V8.11201H10.056V10.776H3.312V17.256H0V1.41602H11.856V4.08002Z" fill="black"/>
</svg>
