<svg width="34" height="10" viewBox="0 0 34 10" fill="none" xmlns="http://www.w3.org/2000/svg">
<path d="M30.0929 7.29C29.6795 7.29 29.3095 7.18667 28.9829 6.98C28.6629 6.77333 28.4095 6.47667 28.2229 6.09C28.0429 5.70333 27.9529 5.24 27.9529 4.7C27.9529 4.14667 28.0495 3.67667 28.2429 3.29C28.4362 2.89667 28.6962 2.6 29.0229 2.4C29.3562 2.19333 29.7295 2.09 30.1429 2.09C30.5829 2.09 30.9462 2.21667 31.2329 2.47C31.5195 2.72333 31.7062 3.05 31.7929 3.45L31.6629 3.61V0H33.0329V7.19H31.8029L31.7129 5.67L31.8829 5.75C31.8362 6.06333 31.7296 6.33667 31.5629 6.57C31.3962 6.79667 31.1862 6.97333 30.9329 7.1C30.6795 7.22667 30.3995 7.29 30.0929 7.29ZM30.4929 6.24C30.7329 6.24 30.9395 6.18 31.1129 6.06C31.2862 5.93333 31.4195 5.75 31.5129 5.51C31.6129 5.27 31.6629 4.98333 31.6629 4.65C31.6629 4.33 31.6162 4.06 31.5229 3.84C31.4295 3.61333 31.2962 3.44 31.1229 3.32C30.9495 3.2 30.7462 3.14 30.5129 3.14C30.1395 3.14 29.8462 3.27333 29.6329 3.54C29.4262 3.8 29.3229 4.18333 29.3229 4.69C29.3229 5.19667 29.4262 5.58333 29.6329 5.85C29.8395 6.11 30.1262 6.24 30.4929 6.24Z" fill="white"/>
<path d="M25.3302 3.99984C25.3302 3.71318 25.2469 3.48984 25.0802 3.32984C24.9202 3.16984 24.7069 3.08984 24.4402 3.08984C24.1935 3.08984 23.9769 3.15318 23.7902 3.27984C23.6035 3.40651 23.4669 3.61651 23.3802 3.90984L22.2102 3.54984C22.3235 3.10984 22.5702 2.75651 22.9502 2.48984C23.3369 2.22318 23.8535 2.08984 24.5002 2.08984C24.9402 2.08984 25.3235 2.15984 25.6502 2.29984C25.9769 2.43318 26.2302 2.63651 26.4102 2.90984C26.5969 3.18318 26.6902 3.52651 26.6902 3.93984V5.96984C26.6902 6.22318 26.8102 6.34984 27.0502 6.34984C27.1635 6.34984 27.2702 6.33318 27.3702 6.29984L27.2902 7.14984C27.1169 7.23651 26.9002 7.27984 26.6402 7.27984C26.4069 7.27984 26.1969 7.23984 26.0102 7.15984C25.8235 7.07984 25.6769 6.95984 25.5702 6.79984C25.4635 6.63318 25.4102 6.42651 25.4102 6.17984V6.13984L25.6502 6.09984C25.6102 6.35318 25.5002 6.56984 25.3202 6.74984C25.1402 6.92318 24.9202 7.05651 24.6602 7.14984C24.4069 7.24318 24.1435 7.28984 23.8702 7.28984C23.5302 7.28984 23.2369 7.23984 22.9902 7.13984C22.7435 7.03318 22.5535 6.87984 22.4202 6.67984C22.2869 6.47984 22.2202 6.23318 22.2202 5.93984C22.2202 5.56651 22.3402 5.26318 22.5802 5.02984C22.8202 4.78984 23.1635 4.62651 23.6102 4.53984L25.4902 4.15984L25.4802 5.00984L24.2802 5.24984C24.0535 5.29651 23.8802 5.35984 23.7602 5.43984C23.6469 5.51318 23.5902 5.63651 23.5902 5.80984C23.5902 5.97651 23.6502 6.10318 23.7702 6.18984C23.8969 6.27651 24.0469 6.31984 24.2202 6.31984C24.3602 6.31984 24.4969 6.30318 24.6302 6.26984C24.7635 6.23651 24.8835 6.18318 24.9902 6.10984C25.0969 6.03651 25.1802 5.93651 25.2402 5.80984C25.3002 5.68318 25.3302 5.52984 25.3302 5.34984V3.99984Z" fill="white"/>
<path d="M18.8032 2.08984C19.3098 2.08984 19.7532 2.19318 20.1332 2.39984C20.5198 2.60651 20.8198 2.90318 21.0332 3.28984C21.2532 3.67651 21.3632 4.14318 21.3632 4.68984C21.3632 5.22984 21.2532 5.69651 21.0332 6.08984C20.8198 6.47651 20.5198 6.77318 20.1332 6.97984C19.7532 7.18651 19.3098 7.28984 18.8032 7.28984C18.3032 7.28984 17.8598 7.18651 17.4732 6.97984C17.0865 6.77318 16.7832 6.47651 16.5632 6.08984C16.3498 5.69651 16.2432 5.22984 16.2432 4.68984C16.2432 4.14318 16.3498 3.67651 16.5632 3.28984C16.7832 2.90318 17.0865 2.60651 17.4732 2.39984C17.8598 2.19318 18.3032 2.08984 18.8032 2.08984ZM18.8032 3.10984C18.5498 3.10984 18.3332 3.16984 18.1532 3.28984C17.9798 3.40318 17.8465 3.57651 17.7532 3.80984C17.6598 4.04318 17.6132 4.33651 17.6132 4.68984C17.6132 5.04318 17.6598 5.33651 17.7532 5.56984C17.8465 5.80318 17.9798 5.97984 18.1532 6.09984C18.3332 6.21318 18.5498 6.26984 18.8032 6.26984C19.0498 6.26984 19.2598 6.21318 19.4332 6.09984C19.6132 5.97984 19.7498 5.80318 19.8432 5.56984C19.9365 5.33651 19.9832 5.04318 19.9832 4.68984C19.9832 4.33651 19.9365 4.04318 19.8432 3.80984C19.7498 3.57651 19.6132 3.40318 19.4332 3.28984C19.2598 3.16984 19.0498 3.10984 18.8032 3.10984Z" fill="white"/>
<path d="M14.6798 0V5.65C14.6798 5.88333 14.7198 6.04667 14.7998 6.14C14.8798 6.23333 15.0131 6.28 15.1998 6.28C15.3131 6.28 15.4065 6.27333 15.4798 6.26C15.5531 6.24 15.6465 6.21333 15.7598 6.18L15.6398 7.08C15.5265 7.14667 15.3831 7.19667 15.2098 7.23C15.0431 7.27 14.8765 7.29 14.7098 7.29C14.2231 7.29 13.8665 7.17333 13.6398 6.94C13.4198 6.7 13.3098 6.32 13.3098 5.8V0H14.6798Z" fill="white"/>
<path d="M7.0603 9.28984V2.18984H8.2903L8.3803 3.77984L8.2103 3.59984C8.2703 3.30651 8.3803 3.04651 8.5403 2.81984C8.70697 2.59318 8.91697 2.41651 9.1703 2.28984C9.42364 2.15651 9.70697 2.08984 10.0203 2.08984C10.427 2.08984 10.7903 2.19318 11.1103 2.39984C11.4303 2.60651 11.6803 2.90318 11.8603 3.28984C12.047 3.66984 12.1403 4.13318 12.1403 4.67984C12.1403 5.22651 12.047 5.69651 11.8603 6.08984C11.6736 6.47651 11.417 6.77318 11.0903 6.97984C10.7703 7.18651 10.4036 7.28984 9.9903 7.28984C9.5503 7.28984 9.18364 7.16651 8.8903 6.91984C8.60364 6.67318 8.40697 6.36318 8.3003 5.98984L8.4303 5.77984V9.28984H7.0603ZM9.5903 6.23984C9.95697 6.23984 10.2436 6.10984 10.4503 5.84984C10.6636 5.58318 10.7703 5.19651 10.7703 4.68984C10.7703 4.18318 10.667 3.79984 10.4603 3.53984C10.2603 3.27318 9.97697 3.13984 9.6103 3.13984C9.37697 3.13984 9.1703 3.20318 8.9903 3.32984C8.81697 3.44984 8.6803 3.62651 8.5803 3.85984C8.4803 4.08651 8.4303 4.36318 8.4303 4.68984C8.4303 5.00984 8.47697 5.28651 8.5703 5.51984C8.66364 5.75318 8.79697 5.93318 8.9703 6.05984C9.1503 6.17984 9.35697 6.23984 9.5903 6.23984Z" fill="white"/>
<path d="M5.64 0.589844V4.58984C5.64 5.48984 5.4 6.16651 4.92 6.61984C4.44 7.06651 3.74 7.28984 2.82 7.28984C1.9 7.28984 1.2 7.06651 0.72 6.61984C0.24 6.16651 0 5.48984 0 4.58984V0.589844H1.38V4.52984C1.38 5.08318 1.49667 5.49318 1.73 5.75984C1.97 6.02651 2.33333 6.15984 2.82 6.15984C3.30667 6.15984 3.66667 6.02651 3.9 5.75984C4.13333 5.49318 4.25 5.08318 4.25 4.52984V0.589844H5.64Z" fill="white"/>
</svg>
