<svg width="180" height="17" viewBox="0 0 180 17" fill="none" xmlns="http://www.w3.org/2000/svg">
<path d="M175.915 0.408203V12.1682C175.915 12.7442 176.059 13.1682 176.347 13.4402C176.651 13.6962 177.059 13.8242 177.571 13.8242C177.971 13.8242 178.323 13.7682 178.627 13.6562C178.931 13.5282 179.203 13.3602 179.443 13.1522L179.971 15.3362C179.587 15.6402 179.107 15.8802 178.531 16.0562C177.955 16.2322 177.347 16.3202 176.707 16.3202C175.907 16.3202 175.195 16.2002 174.571 15.9602C173.963 15.7202 173.483 15.3362 173.131 14.8082C172.795 14.2802 172.627 13.5762 172.627 12.6962V1.3202L175.915 0.408203ZM179.755 4.0802V6.5282H170.419V4.0802H179.755Z" fill="white"/>
<path d="M156.901 16.0801V4.08009H159.853L160.045 7.68009L159.637 7.29609C159.829 6.51209 160.133 5.86409 160.549 5.35209C160.965 4.84009 161.469 4.46409 162.061 4.22409C162.669 3.96809 163.333 3.84009 164.053 3.84009C164.885 3.84009 165.621 4.00009 166.261 4.32009C166.917 4.64009 167.429 5.12809 167.797 5.78409C168.181 6.42409 168.373 7.23209 168.373 8.20809V16.0801H165.085V9.14409C165.085 8.12009 164.885 7.41609 164.485 7.03209C164.085 6.63209 163.565 6.43209 162.925 6.43209C162.477 6.43209 162.037 6.54409 161.605 6.76809C161.189 6.97609 160.845 7.32009 160.573 7.80009C160.317 8.28009 160.189 8.92009 160.189 9.72009V16.0801H156.901Z" fill="white"/>
<path d="M146.241 16.3201C145.441 16.3201 144.721 16.1761 144.081 15.8881C143.441 15.6001 142.929 15.1441 142.545 14.5201C142.177 13.8801 141.993 13.0561 141.993 12.0481V4.08008H145.281V11.2561C145.281 12.1841 145.473 12.8321 145.857 13.2001C146.241 13.5521 146.793 13.7281 147.513 13.7281C147.849 13.7281 148.177 13.6721 148.497 13.5601C148.817 13.4321 149.097 13.2401 149.337 12.9841C149.593 12.7281 149.793 12.4001 149.937 12.0001C150.081 11.5841 150.153 11.0961 150.153 10.5361V4.08008H153.441V16.0801H150.513L150.393 13.9921C149.993 14.7921 149.441 15.3841 148.737 15.7681C148.049 16.1361 147.217 16.3201 146.241 16.3201Z" fill="white"/>
<path d="M133.17 3.84009C134.386 3.84009 135.45 4.08809 136.362 4.58409C137.29 5.08009 138.01 5.79209 138.522 6.72009C139.05 7.64809 139.314 8.76809 139.314 10.0801C139.314 11.3761 139.05 12.4961 138.522 13.4401C138.01 14.3681 137.29 15.0801 136.362 15.5761C135.45 16.0721 134.386 16.3201 133.17 16.3201C131.97 16.3201 130.906 16.0721 129.978 15.5761C129.05 15.0801 128.322 14.3681 127.794 13.4401C127.282 12.4961 127.026 11.3761 127.026 10.0801C127.026 8.76809 127.282 7.64809 127.794 6.72009C128.322 5.79209 129.05 5.08009 129.978 4.58409C130.906 4.08809 131.97 3.84009 133.17 3.84009ZM133.17 6.28809C132.562 6.28809 132.042 6.43209 131.61 6.72009C131.194 6.99209 130.874 7.40809 130.65 7.96809C130.426 8.52809 130.314 9.23209 130.314 10.0801C130.314 10.9281 130.426 11.6321 130.65 12.1921C130.874 12.7521 131.194 13.1761 131.61 13.4641C132.042 13.7361 132.562 13.8721 133.17 13.8721C133.762 13.8721 134.266 13.7361 134.682 13.4641C135.114 13.1761 135.442 12.7521 135.666 12.1921C135.89 11.6321 136.002 10.9281 136.002 10.0801C136.002 9.23209 135.89 8.52809 135.666 7.96809C135.442 7.40809 135.114 6.99209 134.682 6.72009C134.266 6.43209 133.762 6.28809 133.17 6.28809Z" fill="white"/>
<path d="M119.599 3.84009C120.671 3.84009 121.575 4.00009 122.311 4.32009C123.063 4.62409 123.663 5.04809 124.111 5.59209C124.575 6.12009 124.903 6.71209 125.095 7.36809L122.023 8.47209C121.863 7.75209 121.591 7.20809 121.207 6.84009C120.823 6.47209 120.303 6.28809 119.647 6.28809C119.039 6.28809 118.519 6.43209 118.087 6.72009C117.655 6.99209 117.327 7.41609 117.103 7.99209C116.879 8.55209 116.767 9.25609 116.767 10.1041C116.767 10.9521 116.879 11.6561 117.103 12.2161C117.343 12.7761 117.679 13.1921 118.111 13.4641C118.559 13.7361 119.079 13.8721 119.671 13.8721C120.151 13.8721 120.559 13.7921 120.895 13.6321C121.231 13.4561 121.503 13.2081 121.711 12.8881C121.935 12.5681 122.087 12.1841 122.167 11.7361L125.143 12.6961C124.967 13.4161 124.639 14.0481 124.159 14.5921C123.679 15.1361 123.063 15.5601 122.311 15.8641C121.559 16.1681 120.687 16.3201 119.695 16.3201C118.463 16.3201 117.375 16.0721 116.431 15.5761C115.487 15.0801 114.759 14.3681 114.247 13.4401C113.735 12.5121 113.479 11.3921 113.479 10.0801C113.479 8.76809 113.735 7.64809 114.247 6.72009C114.759 5.79209 115.479 5.08009 116.407 4.58409C117.335 4.08809 118.399 3.84009 119.599 3.84009Z" fill="white"/>
<path d="M106.052 3.84009C107.124 3.84009 108.028 4.00009 108.764 4.32009C109.516 4.62409 110.116 5.04809 110.564 5.59209C111.028 6.12009 111.356 6.71209 111.548 7.36809L108.476 8.47209C108.316 7.75209 108.044 7.20809 107.66 6.84009C107.276 6.47209 106.756 6.28809 106.1 6.28809C105.492 6.28809 104.972 6.43209 104.54 6.72009C104.108 6.99209 103.78 7.41609 103.556 7.99209C103.332 8.55209 103.22 9.25609 103.22 10.1041C103.22 10.9521 103.332 11.6561 103.556 12.2161C103.796 12.7761 104.132 13.1921 104.564 13.4641C105.012 13.7361 105.532 13.8721 106.124 13.8721C106.604 13.8721 107.012 13.7921 107.348 13.6321C107.684 13.4561 107.956 13.2081 108.164 12.8881C108.388 12.5681 108.54 12.1841 108.62 11.7361L111.596 12.6961C111.42 13.4161 111.092 14.0481 110.612 14.5921C110.132 15.1361 109.516 15.5601 108.764 15.8641C108.012 16.1681 107.14 16.3201 106.148 16.3201C104.916 16.3201 103.828 16.0721 102.884 15.5761C101.94 15.0801 101.212 14.3681 100.7 13.4401C100.188 12.5121 99.9325 11.3921 99.9325 10.0801C99.9325 8.76809 100.188 7.64809 100.7 6.72009C101.212 5.79209 101.932 5.08009 102.86 4.58409C103.788 4.08809 104.852 3.84009 106.052 3.84009Z" fill="white"/>
<path d="M98.8957 16.08H95.4637L94.1437 12.216H88.0717L86.7517 16.08H83.3677L89.1517 0.23999H93.1117L98.8957 16.08ZM88.8157 9.76799H93.3997L91.0957 2.85599L88.8157 9.76799Z" fill="white"/>
<path d="M69.8209 16.3201C68.5569 16.3201 67.4529 16.0721 66.5089 15.5761C65.5809 15.0801 64.8609 14.3681 64.3489 13.4401C63.8369 12.5121 63.5809 11.3921 63.5809 10.0801C63.5809 8.76809 63.8369 7.64809 64.3489 6.72009C64.8609 5.79209 65.5729 5.08009 66.4849 4.58409C67.4129 4.08809 68.4689 3.84009 69.6529 3.84009C70.8689 3.84009 71.9009 4.08809 72.7489 4.58409C73.5969 5.06409 74.2449 5.72809 74.6929 6.57609C75.1409 7.40809 75.3649 8.36009 75.3649 9.43209C75.3649 9.75209 75.3569 10.0561 75.3409 10.3441C75.3249 10.6321 75.3009 10.8881 75.2689 11.1121H65.6929V8.83209H73.8289L72.2449 9.40809C72.2449 8.40009 72.0129 7.62409 71.5489 7.08009C71.1009 6.53609 70.4609 6.26409 69.6289 6.26409C69.0209 6.26409 68.4929 6.40809 68.0449 6.69609C67.6129 6.98409 67.2849 7.41609 67.0609 7.99209C66.8369 8.55209 66.7249 9.26409 66.7249 10.1281C66.7249 10.9761 66.8449 11.6801 67.0849 12.2401C67.3409 12.7841 67.6929 13.1921 68.1409 13.4641C68.6049 13.7361 69.1569 13.8721 69.7969 13.8721C70.5009 13.8721 71.0689 13.7361 71.5009 13.4641C71.9329 13.1921 72.2689 12.8161 72.5089 12.3361L75.1249 13.3441C74.8689 13.9681 74.4769 14.5041 73.9489 14.9521C73.4369 15.4001 72.8209 15.7441 72.1009 15.9841C71.3969 16.2081 70.6369 16.3201 69.8209 16.3201Z" fill="white"/>
<path d="M58.1884 0.408203V12.1682C58.1884 12.7442 58.3324 13.1682 58.6204 13.4402C58.9244 13.6962 59.3324 13.8242 59.8444 13.8242C60.2444 13.8242 60.5964 13.7682 60.9004 13.6562C61.2044 13.5282 61.4764 13.3602 61.7164 13.1522L62.2444 15.3362C61.8604 15.6402 61.3804 15.8802 60.8044 16.0562C60.2284 16.2322 59.6204 16.3202 58.9804 16.3202C58.1804 16.3202 57.4684 16.2002 56.8444 15.9602C56.2364 15.7202 55.7564 15.3362 55.4044 14.8082C55.0684 14.2802 54.9004 13.5762 54.9004 12.6962V1.3202L58.1884 0.408203ZM62.0284 4.0802V6.5282H52.6924V4.0802H62.0284Z" fill="white"/>
<path d="M47.468 8.42409C47.468 7.73609 47.268 7.20009 46.868 6.81609C46.484 6.43209 45.972 6.24009 45.332 6.24009C44.74 6.24009 44.22 6.39209 43.772 6.69609C43.324 7.00009 42.996 7.50409 42.788 8.20809L39.98 7.34409C40.252 6.28809 40.844 5.44009 41.756 4.80009C42.684 4.16009 43.924 3.84009 45.476 3.84009C46.532 3.84009 47.452 4.00809 48.236 4.34409C49.02 4.66409 49.628 5.15209 50.06 5.80809C50.508 6.46409 50.732 7.28809 50.732 8.28009V13.1521C50.732 13.7601 51.02 14.0641 51.596 14.0641C51.868 14.0641 52.124 14.0241 52.364 13.9441L52.172 15.9841C51.756 16.1921 51.236 16.2961 50.612 16.2961C50.052 16.2961 49.548 16.2001 49.1 16.0081C48.652 15.8161 48.3 15.5281 48.044 15.1441C47.788 14.7441 47.66 14.2481 47.66 13.6561V13.5601L48.236 13.4641C48.14 14.0721 47.876 14.5921 47.444 15.0241C47.012 15.4401 46.484 15.7601 45.86 15.9841C45.252 16.2081 44.62 16.3201 43.964 16.3201C43.148 16.3201 42.444 16.2001 41.852 15.9601C41.26 15.7041 40.804 15.3361 40.484 14.8561C40.164 14.3761 40.004 13.7841 40.004 13.0801C40.004 12.1841 40.292 11.4561 40.868 10.8961C41.444 10.3201 42.268 9.92809 43.34 9.72009L47.852 8.80809L47.828 10.8481L44.948 11.4241C44.404 11.5361 43.988 11.6881 43.7 11.8801C43.428 12.0561 43.292 12.3521 43.292 12.7681C43.292 13.1681 43.436 13.4721 43.724 13.6801C44.028 13.8881 44.388 13.9921 44.804 13.9921C45.14 13.9921 45.468 13.9521 45.788 13.8721C46.108 13.7921 46.396 13.6641 46.652 13.4881C46.908 13.3121 47.108 13.0721 47.252 12.7681C47.396 12.4641 47.468 12.0961 47.468 11.6641V8.42409Z" fill="white"/>
<path d="M32.2975 16.3201C31.0335 16.3201 29.9295 16.0721 28.9855 15.5761C28.0575 15.0801 27.3375 14.3681 26.8255 13.4401C26.3135 12.5121 26.0575 11.3921 26.0575 10.0801C26.0575 8.76809 26.3135 7.64809 26.8255 6.72009C27.3375 5.79209 28.0495 5.08009 28.9615 4.58409C29.8895 4.08809 30.9455 3.84009 32.1295 3.84009C33.3455 3.84009 34.3775 4.08809 35.2255 4.58409C36.0735 5.06409 36.7215 5.72809 37.1695 6.57609C37.6175 7.40809 37.8415 8.36009 37.8415 9.43209C37.8415 9.75209 37.8335 10.0561 37.8175 10.3441C37.8015 10.6321 37.7775 10.8881 37.7455 11.1121H28.1695V8.83209H36.3055L34.7215 9.40809C34.7215 8.40009 34.4895 7.62409 34.0255 7.08009C33.5775 6.53609 32.9375 6.26409 32.1055 6.26409C31.4975 6.26409 30.9695 6.40809 30.5215 6.69609C30.0895 6.98409 29.7615 7.41609 29.5375 7.99209C29.3135 8.55209 29.2015 9.26409 29.2015 10.1281C29.2015 10.9761 29.3215 11.6801 29.5615 12.2401C29.8175 12.7841 30.1695 13.1921 30.6175 13.4641C31.0815 13.7361 31.6335 13.8721 32.2735 13.8721C32.9775 13.8721 33.5455 13.7361 33.9775 13.4641C34.4095 13.1921 34.7455 12.8161 34.9855 12.3361L37.6015 13.3441C37.3455 13.9681 36.9535 14.5041 36.4255 14.9521C35.9135 15.4001 35.2975 15.7441 34.5775 15.9841C33.8735 16.2081 33.1135 16.3201 32.2975 16.3201Z" fill="white"/>
<path d="M16.8389 16.0801V4.08009H19.6949L19.9109 6.43209C20.2309 5.60009 20.6949 4.96009 21.3029 4.51209C21.9269 4.06409 22.7029 3.84009 23.6309 3.84009C23.9029 3.84009 24.1509 3.86409 24.3749 3.91209C24.5989 3.96009 24.7829 4.02409 24.9269 4.10409L24.5429 6.86409C24.3829 6.80009 24.1829 6.75209 23.9429 6.72009C23.7189 6.68809 23.4229 6.67209 23.0549 6.67209C22.5749 6.67209 22.1109 6.79209 21.6629 7.03209C21.2149 7.25609 20.8469 7.60809 20.5589 8.08809C20.2709 8.55209 20.1269 9.14409 20.1269 9.86409V16.0801H16.8389Z" fill="white"/>
<path d="M14.352 11.712C14.048 12.736 13.568 13.592 12.912 14.28C12.256 14.968 11.48 15.48 10.584 15.816C9.688 16.152 8.704 16.32 7.632 16.32C6.064 16.32 4.704 15.992 3.552 15.336C2.416 14.68 1.536 13.744 0.912 12.528C0.304 11.312 0 9.856 0 8.16C0 6.464 0.304 5.008 0.912 3.792C1.536 2.576 2.416 1.64 3.552 0.984C4.704 0.328 6.048 0 7.584 0C8.672 0 9.656 0.152 10.536 0.456C11.416 0.744 12.16 1.192 12.768 1.8C13.392 2.408 13.848 3.176 14.136 4.104L11.136 5.376C10.864 4.416 10.448 3.736 9.888 3.336C9.328 2.92 8.608 2.712 7.728 2.712C6.864 2.712 6.104 2.92 5.448 3.336C4.808 3.752 4.312 4.368 3.96 5.184C3.608 5.984 3.432 6.976 3.432 8.16C3.432 9.328 3.592 10.32 3.912 11.136C4.248 11.952 4.736 12.568 5.376 12.984C6.016 13.4 6.8 13.608 7.728 13.608C8.592 13.608 9.336 13.376 9.96 12.912C10.6 12.448 11.048 11.744 11.304 10.8L14.352 11.712Z" fill="white"/>
</svg>
