<svg width="115" height="31" viewBox="0 0 115 31" fill="none" xmlns="http://www.w3.org/2000/svg">
<path d="M0 5C0 2.23858 2.23858 0 5 0H110C112.761 0 115 2.23858 115 5V26C115 28.7614 112.761 31 110 31H5C2.23858 31 0 28.7614 0 26V5Z" fill="white"/>
<path d="M110 30V31H5V30H110ZM114 26V5C114 2.79086 112.209 1 110 1H5C2.79086 1 1 2.79086 1 5V26C1 28.2091 2.79086 30 5 30V31L4.74316 30.9932C2.1011 30.8595 0 28.6753 0 26V5C5.15405e-07 2.23858 2.23858 0 5 0H110C112.761 0 115 2.23858 115 5V26C115 28.7614 112.761 31 110 31V30C112.209 30 114 28.2091 114 26Z" fill="#C20F2F"/>
<path d="M98.0673 19.0999C97.5406 19.0999 97.0806 18.9966 96.6873 18.7899C96.3006 18.5832 96.0006 18.2866 95.7873 17.8999C95.574 17.5132 95.4673 17.0466 95.4673 16.4999C95.4673 15.9532 95.574 15.4866 95.7873 15.0999C96.0006 14.7132 96.2973 14.4166 96.6773 14.2099C97.064 14.0032 97.504 13.8999 97.9973 13.8999C98.504 13.8999 98.934 14.0032 99.2873 14.2099C99.6406 14.4099 99.9106 14.6866 100.097 15.0399C100.284 15.3866 100.377 15.7832 100.377 16.2299C100.377 16.3632 100.374 16.4899 100.367 16.6099C100.361 16.7299 100.351 16.8366 100.337 16.9299H96.3473V15.9799H99.7373L99.0773 16.2199C99.0773 15.7999 98.9806 15.4766 98.7873 15.2499C98.6006 15.0232 98.3339 14.9099 97.9873 14.9099C97.7339 14.9099 97.514 14.9699 97.3273 15.0899C97.1473 15.2099 97.0106 15.3899 96.9173 15.6299C96.8239 15.8632 96.7773 16.1599 96.7773 16.5199C96.7773 16.8732 96.8273 17.1666 96.9273 17.3999C97.034 17.6266 97.1806 17.7966 97.3673 17.9099C97.5606 18.0232 97.7906 18.0799 98.0573 18.0799C98.3506 18.0799 98.5873 18.0232 98.7673 17.9099C98.9473 17.7966 99.0873 17.6399 99.1873 17.4399L100.277 17.8599C100.171 18.1199 100.007 18.3432 99.7873 18.5299C99.574 18.7166 99.3173 18.8599 99.0173 18.9599C98.7239 19.0532 98.4073 19.0999 98.0673 19.0999Z" fill="black"/>
<path d="M86.2942 18.9999V13.9999H87.5242L87.5742 14.8999C87.7409 14.5666 87.9675 14.3166 88.2542 14.1499C88.5475 13.9832 88.8709 13.8999 89.2242 13.8999C89.5842 13.8999 89.9075 13.9832 90.1942 14.1499C90.4875 14.3166 90.7075 14.5632 90.8542 14.8899C90.9609 14.6699 91.1042 14.4866 91.2842 14.3399C91.4642 14.1932 91.6642 14.0832 91.8842 14.0099C92.1042 13.9366 92.3275 13.8999 92.5542 13.8999C92.8809 13.8999 93.1775 13.9666 93.4442 14.0999C93.7175 14.2332 93.9342 14.4332 94.0942 14.6999C94.2542 14.9666 94.3342 15.3066 94.3342 15.7199V18.9999H92.9642V15.9899C92.9642 15.6232 92.8842 15.3632 92.7242 15.2099C92.5642 15.0566 92.3575 14.9799 92.1042 14.9799C91.9042 14.9799 91.7175 15.0299 91.5442 15.1299C91.3775 15.2299 91.2442 15.3799 91.1442 15.5799C91.0509 15.7732 91.0042 16.0166 91.0042 16.3099V18.9999H89.6342V15.9899C89.6342 15.6232 89.5509 15.3632 89.3842 15.2099C89.2242 15.0566 89.0175 14.9799 88.7642 14.9799C88.5909 14.9799 88.4175 15.0266 88.2442 15.1199C88.0775 15.2132 87.9375 15.3599 87.8242 15.5599C87.7175 15.7599 87.6642 16.0232 87.6642 16.3499V18.9999H86.2942Z" fill="black"/>
<path d="M83.402 15.8099C83.402 15.5232 83.3187 15.2999 83.152 15.1399C82.992 14.9799 82.7787 14.8999 82.512 14.8999C82.2653 14.8999 82.0487 14.9632 81.862 15.0899C81.6753 15.2166 81.5387 15.4266 81.452 15.7199L80.282 15.3599C80.3953 14.9199 80.642 14.5666 81.022 14.2999C81.4087 14.0332 81.9253 13.8999 82.572 13.8999C83.012 13.8999 83.3953 13.9699 83.722 14.1099C84.0487 14.2432 84.302 14.4466 84.482 14.7199C84.6687 14.9932 84.762 15.3366 84.762 15.7499V17.7799C84.762 18.0332 84.882 18.1599 85.122 18.1599C85.2353 18.1599 85.342 18.1432 85.442 18.1099L85.362 18.9599C85.1887 19.0466 84.972 19.0899 84.712 19.0899C84.4786 19.0899 84.2687 19.0499 84.082 18.9699C83.8953 18.8899 83.7486 18.7699 83.642 18.6099C83.5353 18.4432 83.482 18.2366 83.482 17.9899V17.9499L83.722 17.9099C83.682 18.1632 83.572 18.3799 83.392 18.5599C83.212 18.7332 82.992 18.8666 82.732 18.9599C82.4787 19.0532 82.2153 19.0999 81.942 19.0999C81.602 19.0999 81.3087 19.0499 81.062 18.9499C80.8153 18.8432 80.6253 18.6899 80.492 18.4899C80.3587 18.2899 80.292 18.0432 80.292 17.7499C80.292 17.3766 80.412 17.0732 80.652 16.8399C80.892 16.5999 81.2353 16.4366 81.682 16.3499L83.562 15.9699L83.552 16.8199L82.352 17.0599C82.1253 17.1066 81.952 17.1699 81.832 17.2499C81.7187 17.3232 81.662 17.4466 81.662 17.6199C81.662 17.7866 81.722 17.9132 81.842 17.9999C81.9687 18.0866 82.1187 18.1299 82.292 18.1299C82.432 18.1299 82.5687 18.1132 82.702 18.0799C82.8353 18.0466 82.9553 17.9932 83.062 17.9199C83.1687 17.8466 83.252 17.7466 83.312 17.6199C83.372 17.4932 83.402 17.3399 83.402 17.1599V15.8099Z" fill="black"/>
<path d="M74.3606 18.9999V13.9999H75.5906L75.6706 15.4999L75.5006 15.3399C75.5806 15.0132 75.7073 14.7432 75.8806 14.5299C76.0539 14.3166 76.2639 14.1599 76.5106 14.0599C76.7639 13.9532 77.0406 13.8999 77.3406 13.8999C77.6873 13.8999 77.9939 13.9666 78.2606 14.0999C78.5339 14.2332 78.7473 14.4366 78.9006 14.7099C79.0606 14.9766 79.1406 15.3132 79.1406 15.7199V18.9999H77.7706V16.1099C77.7706 15.6832 77.6873 15.3899 77.5206 15.2299C77.3539 15.0632 77.1373 14.9799 76.8706 14.9799C76.6839 14.9799 76.5006 15.0266 76.3206 15.1199C76.1473 15.2066 76.0039 15.3499 75.8906 15.5499C75.7839 15.7499 75.7306 16.0166 75.7306 16.3499V18.9999H74.3606Z" fill="black"/>
<path d="M70.1418 18.9999V13.9999H71.3318L71.4218 14.9799C71.5552 14.6332 71.7485 14.3666 72.0018 14.1799C72.2618 13.9932 72.5852 13.8999 72.9718 13.8999C73.0852 13.8999 73.1885 13.9099 73.2818 13.9299C73.3752 13.9499 73.4518 13.9766 73.5118 14.0099L73.3518 15.1599C73.2852 15.1332 73.2018 15.1132 73.1018 15.0999C73.0085 15.0866 72.8852 15.0799 72.7318 15.0799C72.5318 15.0799 72.3385 15.1299 72.1518 15.2299C71.9652 15.3232 71.8118 15.4699 71.6918 15.6699C71.5718 15.8632 71.5118 16.1099 71.5118 16.4099V18.9999H70.1418Z" fill="black"/>
<path d="M66.6708 19.0999C66.1441 19.0999 65.6841 18.9966 65.2908 18.7899C64.9041 18.5832 64.6041 18.2866 64.3908 17.8999C64.1775 17.5132 64.0708 17.0466 64.0708 16.4999C64.0708 15.9532 64.1775 15.4866 64.3908 15.0999C64.6041 14.7132 64.9008 14.4166 65.2808 14.2099C65.6675 14.0032 66.1075 13.8999 66.6008 13.8999C67.1075 13.8999 67.5375 14.0032 67.8908 14.2099C68.2441 14.4099 68.5141 14.6866 68.7008 15.0399C68.8875 15.3866 68.9808 15.7832 68.9808 16.2299C68.9808 16.3632 68.9775 16.4899 68.9708 16.6099C68.9641 16.7299 68.9541 16.8366 68.9408 16.9299H64.9508V15.9799H68.3408L67.6808 16.2199C67.6808 15.7999 67.5841 15.4766 67.3908 15.2499C67.2041 15.0232 66.9375 14.9099 66.5908 14.9099C66.3375 14.9099 66.1175 14.9699 65.9308 15.0899C65.7508 15.2099 65.6141 15.3899 65.5208 15.6299C65.4275 15.8632 65.3808 16.1599 65.3808 16.5199C65.3808 16.8732 65.4308 17.1666 65.5308 17.3999C65.6375 17.6266 65.7841 17.7966 65.9708 17.9099C66.1641 18.0232 66.3941 18.0799 66.6608 18.0799C66.9541 18.0799 67.1908 18.0232 67.3708 17.9099C67.5508 17.7966 67.6908 17.6399 67.7908 17.4399L68.8808 17.8599C68.7741 18.1199 68.6108 18.3432 68.3908 18.5299C68.1775 18.7166 67.9208 18.8599 67.6208 18.9599C67.3275 19.0532 67.0108 19.0999 66.6708 19.0999Z" fill="black"/>
<path d="M61.058 19.0999C60.5513 19.0999 60.088 19.0099 59.668 18.8299C59.2546 18.6499 58.918 18.3966 58.658 18.0699L59.448 17.2699C59.608 17.5099 59.8213 17.7066 60.088 17.8599C60.3546 18.0132 60.6713 18.0899 61.038 18.0899C61.298 18.0899 61.5046 18.0532 61.658 17.9799C61.818 17.8999 61.898 17.7766 61.898 17.6099C61.898 17.5032 61.8613 17.4132 61.788 17.3399C61.7146 17.2599 61.568 17.1966 61.348 17.1499L60.468 16.9699C59.888 16.8499 59.4746 16.6699 59.228 16.4299C58.988 16.1832 58.868 15.8666 58.868 15.4799C58.868 15.2066 58.948 14.9499 59.108 14.7099C59.2746 14.4699 59.5213 14.2766 59.848 14.1299C60.1746 13.9766 60.5813 13.8999 61.068 13.8999C61.568 13.8999 62.0013 13.9799 62.368 14.1399C62.7413 14.2932 63.0346 14.5232 63.248 14.8299L62.428 15.6299C62.2813 15.3966 62.088 15.2199 61.848 15.0999C61.6146 14.9732 61.368 14.9099 61.108 14.9099C60.9213 14.9099 60.7613 14.9299 60.628 14.9699C60.4946 15.0099 60.3946 15.0666 60.328 15.1399C60.2613 15.2066 60.228 15.2932 60.228 15.3999C60.228 15.5066 60.2746 15.5999 60.368 15.6799C60.4613 15.7532 60.6313 15.8166 60.878 15.8699L61.898 16.0799C62.3913 16.1799 62.7446 16.3499 62.958 16.5899C63.1713 16.8232 63.278 17.1066 63.278 17.4399C63.278 17.7599 63.1913 18.0466 63.018 18.2999C62.8513 18.5466 62.6013 18.7432 62.268 18.8899C61.9413 19.0299 61.538 19.0999 61.058 19.0999Z" fill="black"/>
<path d="M57.6571 12.3999V16.3999C57.6571 17.2999 57.4171 17.9766 56.9371 18.4299C56.4571 18.8766 55.7571 19.0999 54.8371 19.0999C53.9171 19.0999 53.2171 18.8766 52.7371 18.4299C52.2571 17.9766 52.0171 17.2999 52.0171 16.3999V12.3999H53.3971V16.3399C53.3971 16.8932 53.5138 17.3032 53.7471 17.5699C53.9871 17.8366 54.3504 17.9699 54.8371 17.9699C55.3238 17.9699 55.6838 17.8366 55.9171 17.5699C56.1504 17.3032 56.2671 16.8932 56.2671 16.3399V12.3999H57.6571Z" fill="black"/>
<path d="M45.4794 19.0999C44.9527 19.0999 44.4927 18.9966 44.0994 18.7899C43.7127 18.5832 43.4127 18.2866 43.1994 17.8999C42.9861 17.5132 42.8794 17.0466 42.8794 16.4999C42.8794 15.9532 42.9861 15.4866 43.1994 15.0999C43.4127 14.7132 43.7094 14.4166 44.0894 14.2099C44.4761 14.0032 44.9161 13.8999 45.4094 13.8999C45.9161 13.8999 46.3461 14.0032 46.6994 14.2099C47.0527 14.4099 47.3227 14.6866 47.5094 15.0399C47.6961 15.3866 47.7894 15.7832 47.7894 16.2299C47.7894 16.3632 47.7861 16.4899 47.7794 16.6099C47.7727 16.7299 47.7627 16.8366 47.7494 16.9299H43.7594V15.9799H47.1494L46.4894 16.2199C46.4894 15.7999 46.3927 15.4766 46.1994 15.2499C46.0127 15.0232 45.7461 14.9099 45.3994 14.9099C45.1461 14.9099 44.9261 14.9699 44.7394 15.0899C44.5594 15.2099 44.4227 15.3899 44.3294 15.6299C44.2361 15.8632 44.1894 16.1599 44.1894 16.5199C44.1894 16.8732 44.2394 17.1666 44.3394 17.3999C44.4461 17.6266 44.5927 17.7966 44.7794 17.9099C44.9727 18.0232 45.2027 18.0799 45.4694 18.0799C45.7627 18.0799 45.9994 18.0232 46.1794 17.9099C46.3594 17.7966 46.4994 17.6399 46.5994 17.4399L47.6894 17.8599C47.5827 18.1199 47.4194 18.3432 47.1994 18.5299C46.9861 18.7166 46.7294 18.8599 46.4294 18.9599C46.1361 19.0532 45.8194 19.0999 45.4794 19.0999Z" fill="black"/>
<path d="M42.2812 12.8101L42.4412 13.7901C42.4145 13.7901 42.3845 13.7901 42.3512 13.7901C42.3245 13.7834 42.2945 13.7801 42.2612 13.7801C41.9545 13.7801 41.7245 13.8501 41.5712 13.9901C41.4179 14.1234 41.3412 14.3101 41.3412 14.5501L40.7812 14.3201C40.7812 14.0534 40.8345 13.8067 40.9412 13.5801C41.0479 13.3467 41.2045 13.1601 41.4112 13.0201C41.6245 12.8801 41.8779 12.8101 42.1712 12.8101C42.1845 12.8101 42.2012 12.8101 42.2212 12.8101C42.2412 12.8101 42.2612 12.8101 42.2812 12.8101ZM40.6412 18.0601C41.1812 18.0601 41.5979 18.1767 41.8912 18.4101C42.1845 18.6434 42.3312 18.9701 42.3312 19.3901C42.3312 19.7701 42.2212 20.0901 42.0012 20.3501C41.7812 20.6167 41.4712 20.8167 41.0712 20.9501C40.6779 21.0834 40.2212 21.1501 39.7012 21.1501C38.8412 21.1501 38.2112 21.0301 37.8112 20.7901C37.4179 20.5501 37.2212 20.2367 37.2212 19.8501C37.2212 19.5767 37.3245 19.3467 37.5312 19.1601C37.7445 18.9734 38.0945 18.8701 38.5812 18.8501L38.5312 19.0101C38.1845 18.9501 37.9179 18.8367 37.7312 18.6701C37.5512 18.4967 37.4612 18.2601 37.4612 17.9601C37.4612 17.6534 37.5779 17.4034 37.8112 17.2101C38.0512 17.0101 38.3745 16.8934 38.7812 16.8601L39.3812 17.1401H39.2412C38.9545 17.1601 38.7512 17.2201 38.6312 17.3201C38.5179 17.4134 38.4612 17.5201 38.4612 17.6401C38.4612 17.7801 38.5145 17.8867 38.6212 17.9601C38.7345 18.0267 38.8945 18.0601 39.1012 18.0601H40.6412ZM39.7112 20.2101C40.0579 20.2101 40.3412 20.1801 40.5612 20.1201C40.7879 20.0601 40.9545 19.9834 41.0612 19.8901C41.1745 19.7967 41.2312 19.6934 41.2312 19.5801C41.2312 19.4534 41.1812 19.3501 41.0812 19.2701C40.9812 19.1967 40.8012 19.1601 40.5412 19.1601H38.8512C38.6912 19.1601 38.5579 19.2001 38.4512 19.2801C38.3512 19.3601 38.3012 19.4701 38.3012 19.6101C38.3012 19.7967 38.4245 19.9434 38.6712 20.0501C38.9245 20.1567 39.2712 20.2101 39.7112 20.2101ZM39.7212 13.9001C40.1879 13.9001 40.5912 13.9701 40.9312 14.1101C41.2779 14.2434 41.5412 14.4367 41.7212 14.6901C41.9079 14.9434 42.0012 15.2467 42.0012 15.6001C42.0012 15.9467 41.9079 16.2467 41.7212 16.5001C41.5412 16.7534 41.2779 16.9501 40.9312 17.0901C40.5912 17.2234 40.1879 17.2901 39.7212 17.2901C38.9812 17.2901 38.4145 17.1401 38.0212 16.8401C37.6345 16.5334 37.4412 16.1201 37.4412 15.6001C37.4412 15.2467 37.5312 14.9434 37.7112 14.6901C37.8979 14.4367 38.1612 14.2434 38.5012 14.1101C38.8412 13.9701 39.2479 13.9001 39.7212 13.9001ZM39.7212 14.7601C39.4545 14.7601 39.2345 14.8334 39.0612 14.9801C38.8879 15.1267 38.8012 15.3301 38.8012 15.5901C38.8012 15.8501 38.8879 16.0567 39.0612 16.2101C39.2345 16.3567 39.4545 16.4301 39.7212 16.4301C39.9879 16.4301 40.2045 16.3567 40.3712 16.2101C40.5445 16.0567 40.6312 15.8501 40.6312 15.5901C40.6312 15.3301 40.5445 15.1267 40.3712 14.9801C40.2045 14.8334 39.9879 14.7601 39.7212 14.7601Z" fill="black"/>
<path d="M31.4797 18.9999V13.9999H32.7097L32.7897 15.4999L32.6197 15.3399C32.6997 15.0132 32.8264 14.7432 32.9997 14.5299C33.1731 14.3166 33.3831 14.1599 33.6297 14.0599C33.8831 13.9532 34.1597 13.8999 34.4597 13.8999C34.8064 13.8999 35.1131 13.9666 35.3797 14.0999C35.6531 14.2332 35.8664 14.4366 36.0197 14.7099C36.1797 14.9766 36.2597 15.3132 36.2597 15.7199V18.9999H34.8897V16.1099C34.8897 15.6832 34.8064 15.3899 34.6397 15.2299C34.4731 15.0632 34.2564 14.9799 33.9897 14.9799C33.8031 14.9799 33.6197 15.0266 33.4397 15.1199C33.2664 15.2066 33.1231 15.3499 33.0097 15.5499C32.9031 15.7499 32.8497 16.0166 32.8497 16.3499V18.9999H31.4797Z" fill="black"/>
<path d="M28.5875 15.8099C28.5875 15.5232 28.5042 15.2999 28.3375 15.1399C28.1775 14.9799 27.9642 14.8999 27.6975 14.8999C27.4509 14.8999 27.2342 14.9632 27.0475 15.0899C26.8609 15.2166 26.7242 15.4266 26.6375 15.7199L25.4675 15.3599C25.5809 14.9199 25.8275 14.5666 26.2075 14.2999C26.5942 14.0332 27.1109 13.8999 27.7575 13.8999C28.1975 13.8999 28.5809 13.9699 28.9075 14.1099C29.2342 14.2432 29.4875 14.4466 29.6675 14.7199C29.8542 14.9932 29.9475 15.3366 29.9475 15.7499V17.7799C29.9475 18.0332 30.0675 18.1599 30.3075 18.1599C30.4209 18.1599 30.5275 18.1432 30.6275 18.1099L30.5475 18.9599C30.3742 19.0466 30.1575 19.0899 29.8975 19.0899C29.6642 19.0899 29.4542 19.0499 29.2675 18.9699C29.0809 18.8899 28.9342 18.7699 28.8275 18.6099C28.7209 18.4432 28.6675 18.2366 28.6675 17.9899V17.9499L28.9075 17.9099C28.8675 18.1632 28.7575 18.3799 28.5775 18.5599C28.3975 18.7332 28.1775 18.8666 27.9175 18.9599C27.6642 19.0532 27.4009 19.0999 27.1275 19.0999C26.7875 19.0999 26.4942 19.0499 26.2475 18.9499C26.0009 18.8432 25.8109 18.6899 25.6775 18.4899C25.5442 18.2899 25.4775 18.0432 25.4775 17.7499C25.4775 17.3766 25.5975 17.0732 25.8375 16.8399C26.0775 16.5999 26.4209 16.4366 26.8675 16.3499L28.7475 15.9699L28.7375 16.8199L27.5375 17.0599C27.3109 17.1066 27.1375 17.1699 27.0175 17.2499C26.9042 17.3232 26.8475 17.4466 26.8475 17.6199C26.8475 17.7866 26.9075 17.9132 27.0275 17.9999C27.1542 18.0866 27.3042 18.1299 27.4775 18.1299C27.6175 18.1299 27.7542 18.1132 27.8875 18.0799C28.0209 18.0466 28.1409 17.9932 28.2475 17.9199C28.3542 17.8466 28.4375 17.7466 28.4975 17.6199C28.5575 17.4932 28.5875 17.3399 28.5875 17.1599V15.8099Z" fill="black"/>
<path d="M19.5461 19.0001V11.8101H20.9161V14.8501C21.0761 14.5301 21.2961 14.2934 21.5761 14.1401C21.8561 13.9801 22.1728 13.9001 22.5261 13.9001C22.8728 13.9001 23.1795 13.9667 23.4461 14.1001C23.7195 14.2334 23.9328 14.4367 24.0861 14.7101C24.2461 14.9767 24.3261 15.3134 24.3261 15.7201V19.0001H22.9561V16.1201C22.9561 15.6867 22.8728 15.3901 22.7061 15.2301C22.5395 15.0634 22.3261 14.9801 22.0661 14.9801C21.8728 14.9801 21.6861 15.0267 21.5061 15.1201C21.3328 15.2067 21.1895 15.3534 21.0761 15.5601C20.9695 15.7601 20.9161 16.0267 20.9161 16.3601V19.0001H19.5461Z" fill="black"/>
<path d="M18.51 17.18C18.3834 17.6067 18.1834 17.9634 17.91 18.25C17.6367 18.5367 17.3134 18.75 16.94 18.89C16.5667 19.03 16.1567 19.1 15.71 19.1C15.0567 19.1 14.49 18.9634 14.01 18.69C13.5367 18.4167 13.17 18.0267 12.91 17.52C12.6567 17.0134 12.53 16.4067 12.53 15.7C12.53 14.9934 12.6567 14.3867 12.91 13.88C13.17 13.3734 13.5367 12.9834 14.01 12.71C14.49 12.4367 15.05 12.3 15.69 12.3C16.1434 12.3 16.5534 12.3634 16.92 12.49C17.2867 12.61 17.5967 12.7967 17.85 13.05C18.11 13.3034 18.3 13.6234 18.42 14.01L17.17 14.54C17.0567 14.14 16.8834 13.8567 16.65 13.69C16.4167 13.5167 16.1167 13.43 15.75 13.43C15.39 13.43 15.0734 13.5167 14.8 13.69C14.5334 13.8634 14.3267 14.12 14.18 14.46C14.0334 14.7934 13.96 15.2067 13.96 15.7C13.96 16.1867 14.0267 16.6 14.16 16.94C14.3 17.28 14.5034 17.5367 14.77 17.71C15.0367 17.8834 15.3634 17.97 15.75 17.97C16.11 17.97 16.42 17.8734 16.68 17.68C16.9467 17.4867 17.1334 17.1934 17.24 16.8L18.51 17.18Z" fill="black"/>
</svg>
