<svg width="88" height="15" viewBox="0 0 88 15" fill="none" xmlns="http://www.w3.org/2000/svg">
<path d="M80.2291 11.5038V3.50375H82.1971L82.3251 5.90375L82.0531 5.64775C82.1811 5.12508 82.3838 4.69308 82.6611 4.35175C82.9385 4.01042 83.2745 3.75975 83.6691 3.59975C84.0745 3.42908 84.5171 3.34375 84.9971 3.34375C85.5518 3.34375 86.0425 3.45042 86.4691 3.66375C86.9065 3.87708 87.2478 4.20242 87.4931 4.63975C87.7491 5.06642 87.8771 5.60508 87.8771 6.25575V11.5038H85.6851V6.87975C85.6851 6.19708 85.5518 5.72775 85.2851 5.47175C85.0185 5.20508 84.6718 5.07175 84.2451 5.07175C83.9465 5.07175 83.6531 5.14642 83.3651 5.29575C83.0878 5.43442 82.8585 5.66375 82.6771 5.98375C82.5065 6.30375 82.4211 6.73042 82.4211 7.26375V11.5038H80.2291Z" fill="black"/>
<path d="M74.299 3.34375C75.1097 3.34375 75.819 3.50908 76.427 3.83975C77.0457 4.17042 77.5257 4.64508 77.867 5.26375C78.219 5.88242 78.395 6.62908 78.395 7.50375C78.395 8.36775 78.219 9.11442 77.867 9.74375C77.5257 10.3624 77.0457 10.8371 76.427 11.1678C75.819 11.4984 75.1097 11.6638 74.299 11.6638C73.499 11.6638 72.7897 11.4984 72.171 11.1678C71.5523 10.8371 71.067 10.3624 70.715 9.74375C70.3737 9.11442 70.203 8.36775 70.203 7.50375C70.203 6.62908 70.3737 5.88242 70.715 5.26375C71.067 4.64508 71.5523 4.17042 72.171 3.83975C72.7897 3.50908 73.499 3.34375 74.299 3.34375ZM74.299 4.97575C73.8937 4.97575 73.547 5.07175 73.259 5.26375C72.9817 5.44508 72.7683 5.72242 72.619 6.09575C72.4697 6.46908 72.395 6.93842 72.395 7.50375C72.395 8.06908 72.4697 8.53842 72.619 8.91175C72.7683 9.28508 72.9817 9.56775 73.259 9.75975C73.547 9.94108 73.8937 10.0318 74.299 10.0318C74.6937 10.0318 75.0297 9.94108 75.307 9.75975C75.595 9.56775 75.8137 9.28508 75.963 8.91175C76.1123 8.53842 76.187 8.06908 76.187 7.50375C76.187 6.93842 76.1123 6.46908 75.963 6.09575C75.8137 5.72242 75.595 5.44508 75.307 5.26375C75.0297 5.07175 74.6937 4.97575 74.299 4.97575Z" fill="black"/>
<path d="M67.2394 2.352C66.7807 2.352 66.4394 2.256 66.2154 2.064C65.9914 1.86133 65.8794 1.568 65.8794 1.184C65.8794 0.789333 65.9914 0.496 66.2154 0.304C66.4394 0.101333 66.7807 0 67.2394 0C67.6981 0 68.0394 0.101333 68.2634 0.304C68.4874 0.496 68.5994 0.789333 68.5994 1.184C68.5994 1.568 68.4874 1.86133 68.2634 2.064C68.0394 2.256 67.6981 2.352 67.2394 2.352ZM68.3274 3.504V11.504H66.1354V3.504H68.3274Z" fill="black"/>
<path d="M62.0925 1.05566V8.89567C62.0925 9.27966 62.1885 9.56233 62.3805 9.74366C62.5831 9.91433 62.8551 9.99967 63.1965 9.99967C63.4631 9.99967 63.6978 9.96233 63.9005 9.88766C64.1031 9.80233 64.2845 9.69033 64.4445 9.55167L64.7965 11.0077C64.5405 11.2103 64.2205 11.3703 63.8365 11.4877C63.4525 11.605 63.0471 11.6637 62.6205 11.6637C62.0871 11.6637 61.6125 11.5837 61.1965 11.4237C60.7911 11.2637 60.4711 11.0077 60.2365 10.6557C60.0125 10.3037 59.9005 9.83433 59.9005 9.24767V1.66366L62.0925 1.05566ZM64.6525 3.50366V5.13566H58.4285V3.50366H64.6525Z" fill="black"/>
<path d="M49.3073 14.8638V3.50375H51.2752L51.4193 6.04775L51.1473 5.75975C51.2433 5.29042 51.4193 4.87442 51.6753 4.51175C51.9419 4.14908 52.2779 3.86642 52.6833 3.66375C53.0886 3.45042 53.5419 3.34375 54.0433 3.34375C54.6939 3.34375 55.2753 3.50908 55.7873 3.83975C56.2993 4.17042 56.6993 4.64508 56.9873 5.26375C57.2859 5.87175 57.4352 6.61308 57.4352 7.48775C57.4352 8.36242 57.2859 9.11442 56.9873 9.74375C56.6886 10.3624 56.2779 10.8371 55.7552 11.1678C55.2432 11.4984 54.6566 11.6638 53.9953 11.6638C53.2913 11.6638 52.7046 11.4664 52.2353 11.0718C51.7766 10.6771 51.4619 10.1811 51.2913 9.58375L51.4993 9.24775V14.8638H49.3073ZM53.3553 9.98375C53.9419 9.98375 54.4006 9.77575 54.7313 9.35975C55.0726 8.93308 55.2433 8.31442 55.2433 7.50375C55.2433 6.69308 55.0779 6.07975 54.7472 5.66375C54.4272 5.23708 53.9739 5.02375 53.3873 5.02375C53.0139 5.02375 52.6833 5.12508 52.3953 5.32775C52.1179 5.51975 51.8993 5.80242 51.7393 6.17575C51.5793 6.53842 51.4993 6.98108 51.4993 7.50375C51.4993 8.01575 51.5739 8.45842 51.7233 8.83175C51.8726 9.20508 52.0859 9.49308 52.3633 9.69575C52.6513 9.88775 52.9819 9.98375 53.3553 9.98375Z" fill="black"/>
<path d="M45.8956 2.352C45.437 2.352 45.0956 2.256 44.8716 2.064C44.6476 1.86133 44.5356 1.568 44.5356 1.184C44.5356 0.789333 44.6476 0.496 44.8716 0.304C45.0956 0.101333 45.437 0 45.8956 0C46.3543 0 46.6956 0.101333 46.9196 0.304C47.1436 0.496 47.2556 0.789333 47.2556 1.184C47.2556 1.568 47.1436 1.86133 46.9196 2.064C46.6956 2.256 46.3543 2.352 45.8956 2.352ZM46.9836 3.504V11.504H44.7916V3.504H46.9836Z" fill="black"/>
<path d="M38.0416 11.5038V3.50375H39.9456L40.0896 5.07175C40.303 4.51708 40.6123 4.09042 41.0176 3.79175C41.4336 3.49308 41.951 3.34375 42.5696 3.34375C42.751 3.34375 42.9163 3.35975 43.0656 3.39175C43.215 3.42375 43.3376 3.46642 43.4336 3.51975L43.1776 5.35975C43.071 5.31708 42.9376 5.28508 42.7776 5.26375C42.6283 5.24242 42.431 5.23175 42.1856 5.23175C41.8656 5.23175 41.5563 5.31175 41.2576 5.47175C40.959 5.62108 40.7136 5.85575 40.5216 6.17575C40.3296 6.48508 40.2336 6.87975 40.2336 7.35975V11.5038H38.0416Z" fill="black"/>
<path d="M32.6424 3.34375C33.357 3.34375 33.9597 3.45042 34.4504 3.66375C34.9517 3.86642 35.3517 4.14908 35.6504 4.51175C35.9597 4.86375 36.1784 5.25842 36.3064 5.69575L34.2584 6.43175C34.1517 5.95175 33.9704 5.58908 33.7144 5.34375C33.4584 5.09842 33.1117 4.97575 32.6744 4.97575C32.269 4.97575 31.9224 5.07175 31.6344 5.26375C31.3464 5.44508 31.1277 5.72775 30.9784 6.11175C30.829 6.48508 30.7544 6.95442 30.7544 7.51975C30.7544 8.08508 30.829 8.55442 30.9784 8.92775C31.1384 9.30108 31.3624 9.57842 31.6504 9.75975C31.949 9.94108 32.2957 10.0318 32.6904 10.0318C33.0104 10.0318 33.2824 9.97842 33.5064 9.87175C33.7304 9.75442 33.9117 9.58908 34.0504 9.37575C34.1997 9.16242 34.301 8.90642 34.3544 8.60775L36.3384 9.24775C36.221 9.72775 36.0024 10.1491 35.6824 10.5118C35.3624 10.8744 34.9517 11.1571 34.4504 11.3598C33.949 11.5624 33.3677 11.6638 32.7064 11.6638C31.885 11.6638 31.1597 11.4984 30.5304 11.1678C29.901 10.8371 29.4157 10.3624 29.0744 9.74375C28.733 9.12508 28.5624 8.37842 28.5624 7.50375C28.5624 6.62908 28.733 5.88242 29.0744 5.26375C29.4157 4.64508 29.8957 4.17042 30.5144 3.83975C31.133 3.50908 31.8424 3.34375 32.6424 3.34375Z" fill="black"/>
<path d="M23.7416 11.6638C22.9309 11.6638 22.1896 11.5198 21.5176 11.2318C20.8563 10.9438 20.3176 10.5384 19.9016 10.0158L21.1656 8.73575C21.4216 9.11975 21.7629 9.43442 22.1896 9.67975C22.6163 9.92508 23.1229 10.0478 23.7096 10.0478C24.1256 10.0478 24.4563 9.98908 24.7016 9.87175C24.9576 9.74375 25.0856 9.54642 25.0856 9.27975C25.0856 9.10908 25.0269 8.96508 24.9096 8.84775C24.7923 8.71975 24.5576 8.61842 24.2056 8.54375L22.7976 8.25575C21.8696 8.06375 21.2083 7.77575 20.8136 7.39175C20.4296 6.99708 20.2376 6.49042 20.2376 5.87175C20.2376 5.43442 20.3656 5.02375 20.6216 4.63975C20.8883 4.25575 21.2829 3.94642 21.8056 3.71175C22.3283 3.46642 22.9789 3.34375 23.7576 3.34375C24.5576 3.34375 25.2509 3.47175 25.8376 3.72775C26.4349 3.97308 26.9043 4.34108 27.2456 4.83175L25.9336 6.11175C25.6989 5.73842 25.3896 5.45575 25.0056 5.26375C24.6323 5.06108 24.2376 4.95975 23.8216 4.95975C23.5229 4.95975 23.2669 4.99175 23.0536 5.05575C22.8403 5.11975 22.6803 5.21042 22.5736 5.32775C22.4669 5.43442 22.4136 5.57308 22.4136 5.74375C22.4136 5.91442 22.4883 6.06375 22.6376 6.19175C22.7869 6.30908 23.0589 6.41042 23.4536 6.49575L25.0856 6.83175C25.8749 6.99175 26.4403 7.26375 26.7816 7.64775C27.1229 8.02108 27.2936 8.47442 27.2936 9.00775C27.2936 9.51975 27.1549 9.97842 26.8776 10.3838C26.6109 10.7784 26.2109 11.0931 25.6776 11.3278C25.1549 11.5518 24.5096 11.6638 23.7416 11.6638Z" fill="black"/>
<path d="M14.988 11.6638C14.1453 11.6638 13.4093 11.4984 12.78 11.1678C12.1613 10.8371 11.6813 10.3624 11.34 9.74375C10.9987 9.12508 10.828 8.37842 10.828 7.50375C10.828 6.62908 10.9987 5.88242 11.34 5.26375C11.6813 4.64508 12.156 4.17042 12.764 3.83975C13.3827 3.50908 14.0867 3.34375 14.876 3.34375C15.6867 3.34375 16.3747 3.50908 16.94 3.83975C17.5053 4.15975 17.9373 4.60242 18.236 5.16775C18.5347 5.72242 18.684 6.35708 18.684 7.07175C18.684 7.28508 18.6787 7.48775 18.668 7.67975C18.6573 7.87175 18.6413 8.04242 18.62 8.19175H12.236V6.67175H17.66L16.604 7.05575C16.604 6.38375 16.4493 5.86642 16.14 5.50375C15.8413 5.14108 15.4147 4.95975 14.86 4.95975C14.4547 4.95975 14.1027 5.05575 13.804 5.24775C13.516 5.43975 13.2973 5.72775 13.148 6.11175C12.9987 6.48508 12.924 6.95975 12.924 7.53575C12.924 8.10108 13.004 8.57042 13.164 8.94375C13.3347 9.30642 13.5693 9.57842 13.868 9.75975C14.1773 9.94108 14.5453 10.0318 14.972 10.0318C15.4413 10.0318 15.82 9.94108 16.108 9.75975C16.396 9.57842 16.62 9.32775 16.78 9.00775L18.524 9.67975C18.3533 10.0958 18.092 10.4531 17.74 10.7518C17.3987 11.0504 16.988 11.2798 16.508 11.4398C16.0387 11.5891 15.532 11.6638 14.988 11.6638Z" fill="black"/>
<path d="M4.08 0.943848C5.73333 0.943848 7.01333 1.40251 7.92 2.31985C8.82667 3.22651 9.28 4.52785 9.28 6.22385C9.28 7.90918 8.82667 9.21051 7.92 10.1278C7.01333 11.0452 5.73333 11.5038 4.08 11.5038H0V0.943848H4.08ZM3.968 9.74385C4.97067 9.74385 5.72267 9.44518 6.224 8.84785C6.736 8.23985 6.992 7.36518 6.992 6.22385C6.992 5.08251 6.736 4.21318 6.224 3.61585C5.72267 3.00785 4.97067 2.70385 3.968 2.70385H2.208V9.74385H3.968Z" fill="black"/>
</svg>
