<svg width="53" height="15" viewBox="0 0 53 15" fill="none" xmlns="http://www.w3.org/2000/svg">
<path d="M48.0575 14.7725C47.0064 14.7725 46.0997 14.5405 45.3374 14.0765C44.5798 13.6078 43.995 12.9544 43.5831 12.1163C43.1759 11.2735 42.9723 10.2934 42.9723 9.17596C42.9723 8.05853 43.1759 7.07369 43.5831 6.22141C43.995 5.36441 44.568 4.69679 45.3019 4.21857C46.0405 3.73562 46.9022 3.49414 47.8871 3.49414C48.4553 3.49414 49.0164 3.58884 49.5703 3.77823C50.1243 3.96762 50.6286 4.27539 51.0831 4.70153C51.5377 5.12293 51.8999 5.68164 52.1698 6.37766C52.4397 7.07369 52.5746 7.93069 52.5746 8.94868V9.65891H44.1655V8.21005H50.87C50.87 7.59452 50.7469 7.04528 50.5007 6.56232C50.2593 6.07937 49.9136 5.69821 49.4638 5.41886C49.0187 5.1395 48.4932 4.99982 47.8871 4.99982C47.2195 4.99982 46.6418 5.16554 46.1541 5.49698C45.6712 5.82369 45.2995 6.24982 45.0391 6.77539C44.7787 7.30096 44.6485 7.8644 44.6485 8.46573V9.43164C44.6485 10.2555 44.7905 10.9539 45.0746 11.5268C45.3634 12.095 45.7635 12.5282 46.2749 12.8265C46.7862 13.1201 47.3805 13.2669 48.0575 13.2669C48.4979 13.2669 48.8956 13.2053 49.2507 13.0822C49.6106 12.9544 49.9207 12.765 50.1811 12.514C50.4415 12.2583 50.6428 11.9411 50.7848 11.5623L52.4041 12.0169C52.2337 12.5661 51.9472 13.0491 51.5448 13.4657C51.1423 13.8777 50.6451 14.1996 50.0533 14.4316C49.4614 14.6589 48.7962 14.7725 48.0575 14.7725Z" fill="black"/>
<path d="M26.1009 14.5453V3.63619H27.7202V5.34073H27.8622C28.0895 4.75834 28.4564 4.30617 28.9631 3.9842C29.4697 3.65749 30.0781 3.49414 30.7884 3.49414C31.5081 3.49414 32.107 3.65749 32.5852 3.9842C33.0682 4.30617 33.4446 4.75834 33.7145 5.34073H33.8281C34.1075 4.77728 34.5265 4.32984 35.0852 3.9984C35.6439 3.66223 36.3139 3.49414 37.0952 3.49414C38.0706 3.49414 38.8684 3.79954 39.4886 4.41033C40.1089 5.01639 40.419 5.961 40.419 7.24414V14.5453H38.7429V7.24414C38.7429 6.43922 38.5227 5.86393 38.0824 5.51829C37.6421 5.17264 37.1236 4.99982 36.527 4.99982C35.76 4.99982 35.1657 5.23183 34.7443 5.69584C34.3229 6.15512 34.1122 6.73751 34.1122 7.443V14.5453H32.4077V7.07368C32.4077 6.45342 32.2064 5.95389 31.804 5.57511C31.4015 5.19158 30.8831 4.99982 30.2486 4.99982C29.813 4.99982 29.4058 5.11583 29.027 5.34783C28.6529 5.57984 28.3499 5.90181 28.1179 6.31374C27.8906 6.72094 27.777 7.19206 27.777 7.72709V14.5453H26.1009Z" fill="black"/>
<path d="M18.0416 14.801C17.3503 14.801 16.7229 14.6708 16.1595 14.4103C15.596 14.1452 15.1486 13.764 14.8171 13.2669C14.4857 12.765 14.32 12.1589 14.32 11.4487C14.32 10.8237 14.4431 10.3171 14.6893 9.9288C14.9355 9.53581 15.2646 9.22804 15.6765 9.0055C16.0884 8.78296 16.543 8.61725 17.0401 8.50834C17.542 8.39471 18.0463 8.30475 18.5529 8.23846C19.2158 8.15323 19.7532 8.08931 20.1651 8.0467C20.5818 7.99935 20.8848 7.92122 21.0742 7.81232C21.2684 7.70342 21.3654 7.51403 21.3654 7.24414V7.18732C21.3654 6.48656 21.1737 5.94206 20.7901 5.5538C20.4114 5.16554 19.8361 4.97141 19.0643 4.97141C18.2641 4.97141 17.6367 5.1466 17.1822 5.49698C16.7276 5.84736 16.408 6.22141 16.2234 6.61914L14.6325 6.05096C14.9166 5.38808 15.2954 4.87198 15.7688 4.50266C16.2471 4.12861 16.7679 3.86819 17.3313 3.72141C17.8995 3.5699 18.4582 3.49414 19.0075 3.49414C19.3579 3.49414 19.7603 3.53675 20.2149 3.62198C20.6741 3.70247 21.1169 3.87056 21.543 4.12624C21.9739 4.38192 22.3313 4.76781 22.6154 5.28391C22.8995 5.80001 23.0416 6.4913 23.0416 7.35778V14.5453H21.3654V13.068H21.2802C21.1666 13.3047 20.9772 13.5581 20.712 13.8279C20.4469 14.0978 20.0941 14.3275 19.6538 14.5169C19.2134 14.7063 18.676 14.801 18.0416 14.801ZM18.2972 13.2953C18.9601 13.2953 19.5188 13.1651 19.9734 12.9047C20.4327 12.6442 20.7783 12.3081 21.0103 11.8961C21.2471 11.4842 21.3654 11.051 21.3654 10.5964V9.06232C21.2944 9.14755 21.1382 9.22567 20.8967 9.2967C20.6599 9.36298 20.3853 9.42217 20.0728 9.47425C19.7651 9.5216 19.4644 9.56422 19.1708 9.60209C18.882 9.63524 18.6476 9.66365 18.4677 9.68732C18.0321 9.74414 17.6249 9.83647 17.2461 9.96431C16.8721 10.0874 16.569 10.2744 16.337 10.5254C16.1097 10.7716 15.9961 11.1078 15.9961 11.5339C15.9961 12.1163 16.2115 12.5566 16.6424 12.8549C17.078 13.1485 17.6296 13.2953 18.2972 13.2953Z" fill="black"/>
<path d="M11.5341 0V14.5455H9.82955L1.90341 3.125H1.76136V14.5455H0V0H1.70455L9.65909 11.4489H9.80114V0H11.5341Z" fill="black"/>
</svg>
