<svg width="45" height="16" viewBox="0 0 45 16" fill="none" xmlns="http://www.w3.org/2000/svg">
<path d="M40.4013 15.2271C39.3502 15.2271 38.4434 14.9951 37.6811 14.5311C36.9235 14.0624 36.3388 13.409 35.9269 12.5709C35.5197 11.7281 35.3161 10.748 35.3161 9.63055C35.3161 8.51312 35.5197 7.52828 35.9269 6.676C36.3388 5.81899 36.9117 5.15138 37.6456 4.67316C38.3843 4.19021 39.246 3.94873 40.2308 3.94873C40.799 3.94873 41.3601 4.04343 41.9141 4.23282C42.4681 4.42221 42.9723 4.72998 43.4269 5.15612C43.8814 5.57752 44.2436 6.13623 44.5135 6.83225C44.7834 7.52828 44.9183 8.38528 44.9183 9.40327V10.1135H36.5093V8.66464H43.2138C43.2138 8.04911 43.0907 7.49987 42.8445 7.01691C42.603 6.53396 42.2574 6.1528 41.8075 5.87345C41.3625 5.59409 40.8369 5.45441 40.2308 5.45441C39.5632 5.45441 38.9856 5.62013 38.4979 5.95157C38.0149 6.27828 37.6432 6.70441 37.3828 7.22998C37.1224 7.75555 36.9922 8.31899 36.9922 8.92032V9.88623C36.9922 10.7101 37.1343 11.4085 37.4183 11.9814C37.7072 12.5496 38.1073 12.9828 38.6186 13.2811C39.13 13.5747 39.7242 13.7215 40.4013 13.7215C40.8416 13.7215 41.2394 13.6599 41.5945 13.5368C41.9543 13.409 42.2645 13.2196 42.5249 12.9686C42.7853 12.7129 42.9865 12.3957 43.1286 12.0169L44.7479 12.4715C44.5774 13.0207 44.291 13.5037 43.8885 13.9203C43.486 14.3323 42.9889 14.6542 42.397 14.8862C41.8052 15.1135 41.1399 15.2271 40.4013 15.2271Z" fill="#F15A4F"/>
<path d="M29.0874 15.2271C28.0647 15.2271 27.184 14.9857 26.4453 14.5027C25.7067 14.0198 25.1385 13.3545 24.7408 12.507C24.3431 11.6594 24.1442 10.6912 24.1442 9.60214C24.1442 8.49418 24.3478 7.51644 24.755 6.6689C25.1669 5.81663 25.7398 5.15138 26.4737 4.67316C27.2124 4.19021 28.0741 3.94873 29.059 3.94873C29.826 3.94873 30.5173 4.09078 31.1328 4.37487C31.7484 4.65896 32.2526 5.05668 32.6456 5.56805C33.0386 6.07941 33.2825 6.676 33.3772 7.35782H31.701C31.5732 6.86066 31.2891 6.42032 30.8487 6.0368C30.4131 5.64854 29.826 5.45441 29.0874 5.45441C28.434 5.45441 27.8611 5.62487 27.3686 5.96578C26.8809 6.30195 26.4998 6.7778 26.2252 7.39333C25.9553 8.00413 25.8203 8.72146 25.8203 9.54532C25.8203 10.3881 25.9529 11.122 26.2181 11.747C26.4879 12.372 26.8667 12.8573 27.3544 13.203C27.8468 13.5486 28.4245 13.7215 29.0874 13.7215C29.523 13.7215 29.9183 13.6457 30.2735 13.4942C30.6286 13.3427 30.9292 13.1249 31.1754 12.8408C31.4217 12.5567 31.5968 12.2158 31.701 11.818H33.3772C33.2825 12.462 33.0481 13.042 32.674 13.5581C32.3047 14.0695 31.8146 14.4767 31.2039 14.7797C30.5978 15.078 29.8923 15.2271 29.0874 15.2271Z" fill="#F15A4F"/>
<path d="M19.9095 15V4.09091H21.5856V15H19.9095ZM20.7617 2.27273C20.435 2.27273 20.1533 2.16146 19.9166 1.93892C19.6845 1.71638 19.5685 1.44886 19.5685 1.13636C19.5685 0.823864 19.6845 0.556344 19.9166 0.333806C20.1533 0.111269 20.435 0 20.7617 0C21.0884 0 21.3678 0.111269 21.5998 0.333806C21.8365 0.556344 21.9549 0.823864 21.9549 1.13636C21.9549 1.44886 21.8365 1.71638 21.5998 1.93892C21.3678 2.16146 21.0884 2.27273 20.7617 2.27273Z" fill="#F15A4F"/>
<path d="M12.468 15V4.09087H14.0874V5.73859H14.201C14.3999 5.19882 14.7597 4.76085 15.2805 4.42467C15.8014 4.0885 16.3885 3.92041 17.0419 3.92041C17.165 3.92041 17.3189 3.92278 17.5036 3.92751C17.6882 3.93225 17.8279 3.93935 17.9226 3.94882V5.65337C17.8658 5.63916 17.7356 5.61785 17.532 5.58944C17.3331 5.5563 17.1224 5.53973 16.8999 5.53973C16.3696 5.53973 15.8961 5.651 15.4794 5.87354C15.0675 6.09134 14.7408 6.39437 14.4993 6.78263C14.2626 7.16615 14.1442 7.60412 14.1442 8.09655V15H12.468Z" fill="#F15A4F"/>
<path d="M0 15V0.45459H4.91477C6.05587 0.45459 6.98864 0.660556 7.71307 1.07249C8.44223 1.47969 8.98201 2.03129 9.33239 2.72732C9.68277 3.42334 9.85795 4.19985 9.85795 5.05686C9.85795 5.91387 9.68277 6.69275 9.33239 7.39351C8.98674 8.09427 8.4517 8.65298 7.72727 9.06965C7.00284 9.48158 6.07481 9.68754 4.94318 9.68754H1.42045V8.12504H4.88636C5.66761 8.12504 6.29498 7.9901 6.76847 7.72021C7.24195 7.45033 7.58523 7.08575 7.7983 6.62646C8.0161 6.16245 8.125 5.63925 8.125 5.05686C8.125 4.47448 8.0161 3.95364 7.7983 3.49436C7.58523 3.03508 7.23958 2.67523 6.76136 2.41482C6.28314 2.14967 5.64867 2.01709 4.85795 2.01709H1.76136V15H0Z" fill="#F15A4F"/>
</svg>
