<svg width="98" height="15" viewBox="0 0 98 15" fill="none" xmlns="http://www.w3.org/2000/svg">
<path d="M91.5941 14.5799C90.9274 14.5799 90.3274 14.4599 89.7941 14.2199C89.2607 13.9799 88.8341 13.5999 88.5141 13.0799C88.2074 12.5466 88.0541 11.8599 88.0541 11.0199V4.37988H90.7941V10.3599C90.7941 11.1332 90.9541 11.6732 91.2741 11.9799C91.5941 12.2732 92.0541 12.4199 92.6541 12.4199C92.9341 12.4199 93.2074 12.3732 93.4741 12.2799C93.7407 12.1732 93.9741 12.0132 94.1741 11.7999C94.3874 11.5865 94.5541 11.3132 94.6741 10.9799C94.7941 10.6332 94.8541 10.2265 94.8541 9.75988V4.37988H97.5941V14.3799H95.1541L95.0541 12.6399C94.7207 13.3066 94.2607 13.7999 93.6741 14.1199C93.1007 14.4265 92.4074 14.5799 91.5941 14.5799Z" fill="black"/>
<path d="M80.7014 4.17993C81.7148 4.17993 82.6014 4.3866 83.3614 4.79993C84.1348 5.21327 84.7348 5.8066 85.1614 6.57993C85.6014 7.35327 85.8214 8.2866 85.8214 9.37993C85.8214 10.4599 85.6014 11.3933 85.1614 12.1799C84.7348 12.9533 84.1348 13.5466 83.3614 13.9599C82.6014 14.3733 81.7148 14.5799 80.7014 14.5799C79.7014 14.5799 78.8148 14.3733 78.0414 13.9599C77.2681 13.5466 76.6614 12.9533 76.2214 12.1799C75.7948 11.3933 75.5814 10.4599 75.5814 9.37993C75.5814 8.2866 75.7948 7.35327 76.2214 6.57993C76.6614 5.8066 77.2681 5.21327 78.0414 4.79993C78.8148 4.3866 79.7014 4.17993 80.7014 4.17993ZM80.7014 6.21993C80.1948 6.21993 79.7614 6.33993 79.4014 6.57993C79.0548 6.8066 78.7881 7.15327 78.6014 7.61993C78.4148 8.0866 78.3214 8.67327 78.3214 9.37993C78.3214 10.0866 78.4148 10.6733 78.6014 11.1399C78.7881 11.6066 79.0548 11.9599 79.4014 12.1999C79.7614 12.4266 80.1948 12.5399 80.7014 12.5399C81.1948 12.5399 81.6148 12.4266 81.9614 12.1999C82.3214 11.9599 82.5948 11.6066 82.7814 11.1399C82.9681 10.6733 83.0614 10.0866 83.0614 9.37993C83.0614 8.67327 82.9681 8.0866 82.7814 7.61993C82.5948 7.15327 82.3214 6.8066 81.9614 6.57993C81.6148 6.33993 81.1948 6.21993 80.7014 6.21993Z" fill="black"/>
<path d="M76.4159 1.17993L71.7359 9.43993V14.3799H68.9759V9.43993L64.2959 1.17993H67.2359L69.3559 5.13993L70.3559 7.19993L71.3759 5.13993L73.4959 1.17993H76.4159Z" fill="black"/>
<path d="M55.033 1.31982V11.1198C55.033 11.5998 55.153 11.9532 55.393 12.1798C55.6463 12.3932 55.9863 12.4998 56.413 12.4998C56.7463 12.4998 57.0397 12.4532 57.293 12.3598C57.5463 12.2532 57.773 12.1132 57.973 11.9398L58.413 13.7598C58.093 14.0132 57.693 14.2132 57.213 14.3598C56.733 14.5065 56.2263 14.5798 55.693 14.5798C55.0263 14.5798 54.433 14.4798 53.913 14.2798C53.4063 14.0798 53.0063 13.7598 52.713 13.3198C52.433 12.8798 52.293 12.2932 52.293 11.5598V2.07983L55.033 1.31982ZM58.233 4.37983V6.41982H50.453V4.37983H58.233Z" fill="black"/>
<path d="M42.6097 14.5799C41.943 14.5799 41.343 14.4599 40.8097 14.2199C40.2764 13.9799 39.8497 13.5999 39.5297 13.0799C39.223 12.5466 39.0697 11.8599 39.0697 11.0199V4.37988H41.8097V10.3599C41.8097 11.1332 41.9697 11.6732 42.2897 11.9799C42.6097 12.2732 43.0697 12.4199 43.6697 12.4199C43.9497 12.4199 44.223 12.3732 44.4897 12.2799C44.7564 12.1732 44.9897 12.0132 45.1897 11.7999C45.403 11.5865 45.5697 11.3132 45.6897 10.9799C45.8097 10.6332 45.8697 10.2265 45.8697 9.75988V4.37988H48.6097V14.3799H46.1697L46.0697 12.6399C45.7364 13.3066 45.2764 13.7999 44.6897 14.1199C44.1164 14.4265 43.423 14.5799 42.6097 14.5799Z" fill="black"/>
<path d="M31.717 4.17993C32.7304 4.17993 33.617 4.3866 34.377 4.79993C35.1504 5.21327 35.7504 5.8066 36.177 6.57993C36.617 7.35327 36.837 8.2866 36.837 9.37993C36.837 10.4599 36.617 11.3933 36.177 12.1799C35.7504 12.9533 35.1504 13.5466 34.377 13.9599C33.617 14.3733 32.7304 14.5799 31.717 14.5799C30.717 14.5799 29.8304 14.3733 29.057 13.9599C28.2837 13.5466 27.677 12.9533 27.237 12.1799C26.8104 11.3933 26.597 10.4599 26.597 9.37993C26.597 8.2866 26.8104 7.35327 27.237 6.57993C27.677 5.8066 28.2837 5.21327 29.057 4.79993C29.8304 4.3866 30.717 4.17993 31.717 4.17993ZM31.717 6.21993C31.2104 6.21993 30.777 6.33993 30.417 6.57993C30.0704 6.8066 29.8037 7.15327 29.617 7.61993C29.4304 8.0866 29.337 8.67327 29.337 9.37993C29.337 10.0866 29.4304 10.6733 29.617 11.1399C29.8037 11.6066 30.0704 11.9599 30.417 12.1999C30.777 12.4266 31.2104 12.5399 31.717 12.5399C32.2104 12.5399 32.6304 12.4266 32.977 12.1999C33.337 11.9599 33.6104 11.6066 33.797 11.1399C33.9837 10.6733 34.077 10.0866 34.077 9.37993C34.077 8.67327 33.9837 8.0866 33.797 7.61993C33.6104 7.15327 33.337 6.8066 32.977 6.57993C32.6304 6.33993 32.2104 6.21993 31.717 6.21993Z" fill="black"/>
<path d="M20.4979 14.58C19.8846 14.58 19.3246 14.4533 18.8179 14.2C18.3246 13.9333 17.9113 13.5733 17.5779 13.12C17.2579 12.6533 17.0379 12.1333 16.9179 11.56L17.1979 11.2L17.0379 14.38H14.6179V0H17.3579V7.2L17.0979 6.78C17.3113 6.03333 17.7179 5.41333 18.3179 4.92C18.9179 4.42667 19.6713 4.18 20.5779 4.18C21.3646 4.18 22.0779 4.38667 22.7179 4.8C23.3579 5.21333 23.8579 5.80667 24.2179 6.58C24.5913 7.35333 24.7779 8.29333 24.7779 9.4C24.7779 10.48 24.5913 11.4067 24.2179 12.18C23.8579 12.9533 23.3513 13.5467 22.6979 13.96C22.0579 14.3733 21.3246 14.58 20.4979 14.58ZM19.6779 12.48C20.4113 12.48 20.9846 12.22 21.3979 11.7C21.8246 11.1667 22.0379 10.3933 22.0379 9.38C22.0379 8.36667 21.8313 7.6 21.4179 7.08C21.0046 6.54667 20.4313 6.28 19.6979 6.28C19.2179 6.28 18.8046 6.40667 18.4579 6.66C18.1113 6.91333 17.8379 7.27333 17.6379 7.74C17.4513 8.20667 17.3579 8.76 17.3579 9.4C17.3579 10.0533 17.4513 10.6133 17.6379 11.08C17.8379 11.5333 18.1113 11.88 18.4579 12.12C18.8179 12.36 19.2246 12.48 19.6779 12.48Z" fill="black"/>
<path d="M12.94 14.3799H10.08L8.98 11.1599H3.92L2.82 14.3799H0L4.82 1.17993H8.12L12.94 14.3799ZM4.54 9.11993H8.36L6.44 3.35993L4.54 9.11993Z" fill="black"/>
</svg>
