<svg width="296" height="50" viewBox="0 0 296 50" fill="none" xmlns="http://www.w3.org/2000/svg">
<path d="M0 0H296V50H0V0Z" fill="white"/>
<path d="M150.85 33.2C149.837 33.2 148.91 33.02 148.07 32.66C147.243 32.3 146.57 31.7934 146.05 31.14L147.63 29.54C147.95 30.02 148.377 30.4134 148.91 30.72C149.443 31.0267 150.077 31.18 150.81 31.18C151.33 31.18 151.743 31.1067 152.05 30.96C152.37 30.8 152.53 30.5534 152.53 30.22C152.53 30.0067 152.457 29.8267 152.31 29.68C152.163 29.5201 151.87 29.3934 151.43 29.3L149.67 28.94C148.51 28.7 147.683 28.34 147.19 27.86C146.71 27.3667 146.47 26.7334 146.47 25.96C146.47 25.4134 146.63 24.9 146.95 24.42C147.283 23.94 147.777 23.5534 148.43 23.26C149.083 22.9534 149.897 22.8 150.87 22.8C151.87 22.8 152.737 22.96 153.47 23.28C154.217 23.5867 154.803 24.0467 155.23 24.66L153.59 26.26C153.297 25.7934 152.91 25.44 152.43 25.2C151.963 24.9467 151.47 24.82 150.95 24.82C150.577 24.82 150.257 24.86 149.99 24.94C149.723 25.02 149.523 25.1334 149.39 25.28C149.257 25.4134 149.19 25.5867 149.19 25.8C149.19 26.0134 149.283 26.2 149.47 26.36C149.657 26.5067 149.997 26.6334 150.49 26.74L152.53 27.16C153.517 27.36 154.223 27.7 154.65 28.18C155.077 28.6467 155.29 29.2134 155.29 29.88C155.29 30.52 155.117 31.0934 154.77 31.6C154.437 32.0934 153.937 32.4867 153.27 32.78C152.617 33.06 151.81 33.2 150.85 33.2Z" fill="black"/>
<path d="M139.908 33.2C138.855 33.2 137.935 32.9934 137.148 32.58C136.375 32.1667 135.775 31.5734 135.348 30.8C134.921 30.0267 134.708 29.0934 134.708 28C134.708 26.9067 134.921 25.9734 135.348 25.2C135.775 24.4267 136.368 23.8334 137.128 23.42C137.901 23.0067 138.781 22.8 139.768 22.8C140.781 22.8 141.641 23.0067 142.348 23.42C143.055 23.82 143.595 24.3734 143.968 25.08C144.341 25.7734 144.528 26.5667 144.528 27.46C144.528 27.7267 144.521 27.9801 144.508 28.22C144.495 28.46 144.475 28.6734 144.448 28.86H136.468V26.96H143.248L141.928 27.44C141.928 26.6 141.735 25.9534 141.348 25.5C140.975 25.0467 140.441 24.82 139.748 24.82C139.241 24.82 138.801 24.94 138.428 25.18C138.068 25.42 137.795 25.78 137.608 26.26C137.421 26.7267 137.328 27.32 137.328 28.04C137.328 28.7467 137.428 29.3334 137.628 29.8C137.841 30.2534 138.135 30.5934 138.508 30.82C138.895 31.0467 139.355 31.16 139.888 31.16C140.475 31.16 140.948 31.0467 141.308 30.82C141.668 30.5934 141.948 30.28 142.148 29.88L144.328 30.72C144.115 31.2401 143.788 31.6867 143.348 32.0601C142.921 32.4334 142.408 32.72 141.808 32.92C141.221 33.1067 140.588 33.2 139.908 33.2Z" fill="black"/>
<path d="M131.004 21.56C130.43 21.56 130.004 21.44 129.724 21.2C129.444 20.9467 129.304 20.58 129.304 20.1C129.304 19.6067 129.444 19.24 129.724 19C130.004 18.7467 130.43 18.62 131.004 18.62C131.577 18.62 132.004 18.7467 132.284 19C132.564 19.24 132.704 19.6067 132.704 20.1C132.704 20.58 132.564 20.9467 132.284 21.2C132.004 21.44 131.577 21.56 131.004 21.56ZM132.364 23V33H129.624V23H132.364Z" fill="black"/>
<path d="M121.186 33V23H123.566L123.746 24.96C124.013 24.2667 124.399 23.7334 124.906 23.36C125.426 22.9867 126.073 22.8 126.846 22.8C127.073 22.8 127.279 22.82 127.466 22.86C127.653 22.9 127.806 22.9534 127.926 23.02L127.606 25.32C127.473 25.2667 127.306 25.2267 127.106 25.2C126.919 25.1734 126.673 25.16 126.366 25.16C125.966 25.16 125.579 25.26 125.206 25.46C124.833 25.6467 124.526 25.94 124.286 26.34C124.046 26.7267 123.926 27.22 123.926 27.82V33H121.186Z" fill="black"/>
<path d="M113.773 22.8C114.787 22.8 115.673 23.0067 116.433 23.42C117.207 23.8334 117.807 24.4267 118.233 25.2C118.673 25.9734 118.893 26.9067 118.893 28C118.893 29.08 118.673 30.0134 118.233 30.8C117.807 31.5734 117.207 32.1667 116.433 32.58C115.673 32.9934 114.787 33.2 113.773 33.2C112.773 33.2 111.887 32.9934 111.113 32.58C110.34 32.1667 109.733 31.5734 109.293 30.8C108.867 30.0134 108.653 29.08 108.653 28C108.653 26.9067 108.867 25.9734 109.293 25.2C109.733 24.4267 110.34 23.8334 111.113 23.42C111.887 23.0067 112.773 22.8 113.773 22.8ZM113.773 24.84C113.267 24.84 112.833 24.96 112.473 25.2C112.127 25.4267 111.86 25.7734 111.673 26.24C111.487 26.7067 111.393 27.2934 111.393 28C111.393 28.7067 111.487 29.2934 111.673 29.76C111.86 30.2267 112.127 30.58 112.473 30.82C112.833 31.0467 113.267 31.16 113.773 31.16C114.267 31.16 114.687 31.0467 115.033 30.82C115.393 30.58 115.667 30.2267 115.853 29.76C116.04 29.2934 116.133 28.7067 116.133 28C116.133 27.2934 116.04 26.7067 115.853 26.24C115.667 25.7734 115.393 25.4267 115.033 25.2C114.687 24.96 114.267 24.84 113.773 24.84Z" fill="black"/>
<path d="M107.457 20.62L107.777 22.58C107.724 22.58 107.664 22.58 107.597 22.58C107.544 22.5667 107.484 22.56 107.417 22.56C106.804 22.56 106.344 22.7 106.037 22.98C105.73 23.2467 105.577 23.62 105.577 24.1L104.457 23.64C104.457 23.1067 104.564 22.6133 104.777 22.16C104.99 21.6933 105.304 21.32 105.717 21.04C106.144 20.76 106.65 20.62 107.237 20.62C107.264 20.62 107.297 20.62 107.337 20.62C107.377 20.62 107.417 20.62 107.457 20.62ZM104.177 31.12C105.257 31.12 106.09 31.3533 106.677 31.82C107.264 32.2867 107.557 32.94 107.557 33.78C107.557 34.54 107.337 35.18 106.897 35.7C106.457 36.2333 105.837 36.6333 105.037 36.9C104.25 37.1667 103.337 37.3 102.297 37.3C100.577 37.3 99.3169 37.06 98.5169 36.58C97.7302 36.1 97.3369 35.4733 97.3369 34.7C97.3369 34.1533 97.5435 33.6933 97.9569 33.32C98.3835 32.9467 99.0835 32.74 100.057 32.7L99.9569 33.02C99.2635 32.9 98.7302 32.6733 98.3569 32.34C97.9969 31.9933 97.8169 31.52 97.8169 30.92C97.8169 30.3067 98.0502 29.8067 98.5169 29.42C98.9969 29.02 99.6435 28.7867 100.457 28.72L101.657 29.28H101.377C100.804 29.32 100.397 29.44 100.157 29.64C99.9302 29.8267 99.8169 30.04 99.8169 30.28C99.8169 30.56 99.9235 30.7733 100.137 30.92C100.364 31.0533 100.684 31.12 101.097 31.12H104.177ZM102.317 35.42C103.01 35.42 103.577 35.36 104.017 35.24C104.47 35.12 104.804 34.9667 105.017 34.78C105.244 34.5933 105.357 34.3867 105.357 34.16C105.357 33.9067 105.257 33.7 105.057 33.54C104.857 33.3933 104.497 33.32 103.977 33.32H100.597C100.277 33.32 100.01 33.4 99.7969 33.56C99.5969 33.72 99.4969 33.94 99.4969 34.22C99.4969 34.5933 99.7435 34.8867 100.237 35.1C100.744 35.3133 101.437 35.42 102.317 35.42ZM102.337 22.8C103.27 22.8 104.077 22.94 104.757 23.22C105.45 23.4867 105.977 23.8733 106.337 24.38C106.71 24.8867 106.897 25.4933 106.897 26.2C106.897 26.8933 106.71 27.4933 106.337 28C105.977 28.5067 105.45 28.9 104.757 29.18C104.077 29.4467 103.27 29.58 102.337 29.58C100.857 29.58 99.7235 29.28 98.9369 28.68C98.1635 28.0667 97.7769 27.24 97.7769 26.2C97.7769 25.4933 97.9569 24.8867 98.3169 24.38C98.6902 23.8733 99.2169 23.4867 99.8969 23.22C100.577 22.94 101.39 22.8 102.337 22.8ZM102.337 24.52C101.804 24.52 101.364 24.6667 101.017 24.96C100.67 25.2533 100.497 25.66 100.497 26.18C100.497 26.7 100.67 27.1133 101.017 27.42C101.364 27.7133 101.804 27.86 102.337 27.86C102.87 27.86 103.304 27.7133 103.637 27.42C103.984 27.1133 104.157 26.7 104.157 26.18C104.157 25.66 103.984 25.2533 103.637 24.96C103.304 24.6667 102.87 24.52 102.337 24.52Z" fill="black"/>
<path d="M91.2948 33.2C90.2415 33.2 89.3215 32.9934 88.5348 32.58C87.7615 32.1667 87.1615 31.5734 86.7348 30.8C86.3082 30.0267 86.0948 29.0934 86.0948 28C86.0948 26.9067 86.3082 25.9734 86.7348 25.2C87.1615 24.4267 87.7548 23.8334 88.5148 23.42C89.2882 23.0067 90.1682 22.8 91.1548 22.8C92.1682 22.8 93.0282 23.0067 93.7348 23.42C94.4415 23.82 94.9815 24.3734 95.3548 25.08C95.7282 25.7734 95.9148 26.5667 95.9148 27.46C95.9148 27.7267 95.9082 27.9801 95.8948 28.22C95.8815 28.46 95.8615 28.6734 95.8348 28.86H87.8548V26.96H94.6348L93.3148 27.44C93.3148 26.6 93.1215 25.9534 92.7348 25.5C92.3615 25.0467 91.8282 24.82 91.1348 24.82C90.6282 24.82 90.1882 24.94 89.8148 25.18C89.4548 25.42 89.1815 25.78 88.9948 26.26C88.8082 26.7267 88.7148 27.32 88.7148 28.04C88.7148 28.7467 88.8148 29.3334 89.0148 29.8C89.2282 30.2534 89.5215 30.5934 89.8948 30.82C90.2815 31.0467 90.7415 31.16 91.2748 31.16C91.8615 31.16 92.3348 31.0467 92.6948 30.82C93.0548 30.5934 93.3348 30.28 93.5348 29.88L95.7148 30.72C95.5015 31.2401 95.1748 31.6867 94.7348 32.0601C94.3082 32.4334 93.7948 32.72 93.1948 32.92C92.6082 33.1067 91.9748 33.2 91.2948 33.2Z" fill="black"/>
<path d="M81.6011 19.9399V29.7399C81.6011 30.2199 81.7211 30.5733 81.9611 30.7999C82.2144 31.0133 82.5544 31.1199 82.9811 31.1199C83.3144 31.1199 83.6078 31.0733 83.8611 30.9799C84.1144 30.8733 84.3411 30.7333 84.5411 30.5599L84.9811 32.3799C84.6611 32.6333 84.2611 32.8333 83.7811 32.9799C83.3011 33.1266 82.7944 33.1999 82.2611 33.1999C81.5944 33.1999 81.0011 33.0999 80.4811 32.8999C79.9744 32.6999 79.5744 32.3799 79.2811 31.9399C79.0011 31.4999 78.8611 30.9133 78.8611 30.1799V20.6999L81.6011 19.9399ZM84.8011 22.9999V25.0399H77.0211V22.9999H84.8011Z" fill="black"/>
<path d="M72.6673 26.62C72.6673 26.0467 72.5007 25.6 72.1673 25.28C71.8473 24.96 71.4207 24.8 70.8873 24.8C70.394 24.8 69.9607 24.9267 69.5873 25.18C69.214 25.4334 68.9407 25.8534 68.7673 26.44L66.4273 25.72C66.654 24.84 67.1473 24.1334 67.9073 23.6C68.6807 23.0667 69.714 22.8 71.0073 22.8C71.8873 22.8 72.654 22.94 73.3073 23.22C73.9607 23.4867 74.4673 23.8934 74.8273 24.44C75.2007 24.9867 75.3873 25.6734 75.3873 26.5V30.56C75.3873 31.0667 75.6273 31.32 76.1073 31.32C76.334 31.32 76.5473 31.2867 76.7473 31.22L76.5873 32.92C76.2407 33.0934 75.8073 33.18 75.2873 33.18C74.8207 33.18 74.4007 33.1 74.0273 32.94C73.654 32.78 73.3607 32.54 73.1473 32.22C72.934 31.8867 72.8273 31.4734 72.8273 30.98V30.9L73.3073 30.82C73.2273 31.3267 73.0073 31.76 72.6473 32.12C72.2873 32.4667 71.8473 32.7334 71.3273 32.92C70.8207 33.1067 70.294 33.2 69.7473 33.2C69.0673 33.2 68.4807 33.1 67.9873 32.9C67.494 32.6867 67.114 32.38 66.8473 31.98C66.5807 31.58 66.4473 31.0867 66.4473 30.5C66.4473 29.7534 66.6873 29.1467 67.1673 28.68C67.6473 28.2 68.334 27.8734 69.2273 27.7L72.9873 26.94L72.9673 28.64L70.5673 29.12C70.114 29.2134 69.7673 29.34 69.5273 29.5C69.3007 29.6467 69.1873 29.8934 69.1873 30.24C69.1873 30.5734 69.3073 30.8267 69.5473 31C69.8007 31.1734 70.1007 31.26 70.4473 31.26C70.7273 31.26 71.0007 31.2267 71.2673 31.16C71.534 31.0934 71.774 30.9867 71.9873 30.84C72.2007 30.6934 72.3673 30.4934 72.4873 30.24C72.6073 29.9867 72.6673 29.68 72.6673 29.32V26.62Z" fill="black"/>
<path d="M64.895 29.36C64.6417 30.2133 64.2417 30.9266 63.695 31.5C63.1483 32.0733 62.5017 32.5 61.755 32.78C61.0083 33.06 60.1883 33.2 59.295 33.2C57.9883 33.2 56.855 32.9266 55.895 32.38C54.9483 31.8333 54.215 31.0533 53.695 30.04C53.1883 29.0266 52.935 27.8133 52.935 26.4C52.935 24.9866 53.1883 23.7733 53.695 22.76C54.215 21.7466 54.9483 20.9666 55.895 20.42C56.855 19.8733 57.975 19.6 59.255 19.6C60.1617 19.6 60.9817 19.7266 61.715 19.98C62.4483 20.22 63.0683 20.5933 63.575 21.1C64.095 21.6066 64.475 22.2466 64.715 23.02L62.215 24.08C61.9883 23.28 61.6417 22.7133 61.175 22.38C60.7083 22.0333 60.1083 21.86 59.375 21.86C58.655 21.86 58.0217 22.0333 57.475 22.38C56.9417 22.7266 56.5283 23.24 56.235 23.92C55.9417 24.5866 55.795 25.4133 55.795 26.4C55.795 27.3733 55.9283 28.2 56.195 28.88C56.475 29.56 56.8817 30.0733 57.415 30.42C57.9483 30.7666 58.6017 30.94 59.375 30.94C60.095 30.94 60.715 30.7466 61.235 30.36C61.7683 29.9733 62.1417 29.3866 62.355 28.6L64.895 29.36Z" fill="black"/>
<path d="M43.9447 18.62V29.92C43.9447 30.3867 44.0247 30.7133 44.1847 30.9C44.3447 31.0867 44.6113 31.18 44.9847 31.18C45.2113 31.18 45.398 31.1667 45.5447 31.14C45.6913 31.1 45.878 31.0467 46.1047 30.98L45.8647 32.78C45.638 32.9133 45.3513 33.0133 45.0047 33.08C44.6713 33.16 44.338 33.2 44.0047 33.2C43.0313 33.2 42.318 32.9667 41.8647 32.5C41.4247 32.02 41.2047 31.26 41.2047 30.22V18.62H43.9447Z" fill="black"/>
<path d="M37.558 18.62V29.92C37.558 30.3867 37.638 30.7133 37.798 30.9C37.958 31.0867 38.2246 31.18 38.598 31.18C38.8246 31.18 39.0113 31.1667 39.158 31.14C39.3046 31.1 39.4913 31.0467 39.718 30.98L39.478 32.78C39.2513 32.9133 38.9646 33.0133 38.618 33.08C38.2846 33.16 37.9513 33.2 37.618 33.2C36.6446 33.2 35.9313 32.9667 35.478 32.5C35.038 32.02 34.818 31.26 34.818 30.22V18.62H37.558Z" fill="black"/>
<path d="M33.18 33H30.32L29.22 29.78H24.16L23.06 33H20.24L25.06 19.8H28.36L33.18 33ZM24.78 27.74H28.6L26.68 21.98L24.78 27.74Z" fill="black"/>
</svg>
