<svg width="296" height="50" viewBox="0 0 296 50" fill="none" xmlns="http://www.w3.org/2000/svg">
<path d="M0 0H296V50H0V0Z" fill="white"/>
<path d="M125.479 33.1998C124.466 33.1998 123.539 33.0198 122.699 32.6598C121.872 32.2998 121.199 31.7931 120.679 31.1398L122.259 29.5398C122.579 30.0198 123.006 30.4131 123.539 30.7198C124.072 31.0265 124.706 31.1798 125.439 31.1798C125.959 31.1798 126.372 31.1065 126.679 30.9598C126.999 30.7998 127.159 30.5531 127.159 30.2198C127.159 30.0065 127.086 29.8265 126.939 29.6798C126.792 29.5198 126.499 29.3931 126.059 29.2998L124.299 28.9398C123.139 28.6998 122.312 28.3398 121.819 27.8598C121.339 27.3665 121.099 26.7331 121.099 25.9598C121.099 25.4131 121.259 24.8998 121.579 24.4198C121.912 23.9398 122.406 23.5531 123.059 23.2598C123.712 22.9531 124.526 22.7998 125.499 22.7998C126.499 22.7998 127.366 22.9598 128.099 23.2798C128.846 23.5865 129.432 24.0465 129.859 24.6598L128.219 26.2598C127.926 25.7931 127.539 25.4398 127.059 25.1998C126.592 24.9465 126.099 24.8198 125.579 24.8198C125.206 24.8198 124.886 24.8598 124.619 24.9398C124.352 25.0198 124.152 25.1331 124.019 25.2798C123.886 25.4131 123.819 25.5865 123.819 25.7998C123.819 26.0131 123.912 26.1998 124.099 26.3598C124.286 26.5065 124.626 26.6331 125.119 26.7398L127.159 27.1598C128.146 27.3598 128.852 27.6998 129.279 28.1798C129.706 28.6465 129.919 29.2131 129.919 29.8798C129.919 30.5198 129.746 31.0931 129.399 31.5998C129.066 32.0931 128.566 32.4865 127.899 32.7798C127.246 33.0598 126.439 33.1998 125.479 33.1998Z" fill="black"/>
<path d="M114.73 22.7998C115.623 22.7998 116.377 22.9331 116.99 23.1998C117.617 23.4531 118.117 23.8065 118.49 24.2598C118.877 24.6998 119.15 25.1931 119.31 25.7398L116.75 26.6598C116.617 26.0598 116.39 25.6065 116.07 25.2998C115.75 24.9931 115.317 24.8398 114.77 24.8398C114.263 24.8398 113.83 24.9598 113.47 25.1998C113.11 25.4265 112.837 25.7798 112.65 26.2598C112.463 26.7265 112.37 27.3131 112.37 28.0198C112.37 28.7265 112.463 29.3131 112.65 29.7798C112.85 30.2465 113.13 30.5931 113.49 30.8198C113.863 31.0465 114.297 31.1598 114.79 31.1598C115.19 31.1598 115.53 31.0931 115.81 30.9598C116.09 30.8131 116.317 30.6065 116.49 30.3398C116.677 30.0731 116.803 29.7531 116.87 29.3798L119.35 30.1798C119.203 30.7798 118.93 31.3065 118.53 31.7598C118.13 32.2131 117.617 32.5665 116.99 32.8198C116.363 33.0731 115.637 33.1998 114.81 33.1998C113.783 33.1998 112.877 32.9931 112.09 32.5798C111.303 32.1665 110.697 31.5731 110.27 30.7998C109.843 30.0265 109.63 29.0931 109.63 27.9998C109.63 26.9065 109.843 25.9731 110.27 25.1998C110.697 24.4265 111.297 23.8331 112.07 23.4198C112.843 23.0065 113.73 22.7998 114.73 22.7998Z" fill="black"/>
<path d="M105.925 21.5601C105.352 21.5601 104.925 21.4401 104.645 21.2001C104.365 20.9468 104.225 20.5801 104.225 20.1001C104.225 19.6068 104.365 19.2401 104.645 19.0001C104.925 18.7468 105.352 18.6201 105.925 18.6201C106.499 18.6201 106.925 18.7468 107.205 19.0001C107.485 19.2401 107.625 19.6068 107.625 20.1001C107.625 20.5801 107.485 20.9468 107.205 21.2001C106.925 21.4401 106.499 21.5601 105.925 21.5601ZM107.285 23.0001V33.0001H104.545V23.0001H107.285Z" fill="black"/>
<path d="M92.1627 32.9998V22.9998H94.6227L94.7827 25.9998L94.4427 25.6798C94.6027 25.0265 94.856 24.4865 95.2027 24.0598C95.5493 23.6331 95.9693 23.3198 96.4627 23.1198C96.9693 22.9065 97.5227 22.7998 98.1227 22.7998C98.816 22.7998 99.4293 22.9331 99.9627 23.1998C100.509 23.4665 100.936 23.8731 101.243 24.4198C101.563 24.9531 101.723 25.6265 101.723 26.4398V32.9998H98.9827V27.2198C98.9827 26.3665 98.816 25.7798 98.4827 25.4598C98.1493 25.1265 97.716 24.9598 97.1827 24.9598C96.8093 24.9598 96.4427 25.0531 96.0827 25.2398C95.736 25.4131 95.4493 25.6998 95.2227 26.0998C95.0093 26.4998 94.9027 27.0331 94.9027 27.6998V32.9998H92.1627Z" fill="black"/>
<path d="M84.75 22.7998C85.7633 22.7998 86.65 23.0065 87.41 23.4198C88.1833 23.8331 88.7833 24.4265 89.21 25.1998C89.65 25.9731 89.87 26.9065 89.87 27.9998C89.87 29.0798 89.65 30.0131 89.21 30.7998C88.7833 31.5731 88.1833 32.1665 87.41 32.5798C86.65 32.9931 85.7633 33.1998 84.75 33.1998C83.75 33.1998 82.8633 32.9931 82.09 32.5798C81.3167 32.1665 80.71 31.5731 80.27 30.7998C79.8433 30.0131 79.63 29.0798 79.63 27.9998C79.63 26.9065 79.8433 25.9731 80.27 25.1998C80.71 24.4265 81.3167 23.8331 82.09 23.4198C82.8633 23.0065 83.75 22.7998 84.75 22.7998ZM84.75 24.8398C84.2433 24.8398 83.81 24.9598 83.45 25.1998C83.1033 25.4265 82.8367 25.7731 82.65 26.2398C82.4633 26.7065 82.37 27.2931 82.37 27.9998C82.37 28.7065 82.4633 29.2931 82.65 29.7598C82.8367 30.2265 83.1033 30.5798 83.45 30.8198C83.81 31.0465 84.2433 31.1598 84.75 31.1598C85.2433 31.1598 85.6633 31.0465 86.01 30.8198C86.37 30.5798 86.6433 30.2265 86.83 29.7598C87.0167 29.2931 87.11 28.7065 87.11 27.9998C87.11 27.2931 87.0167 26.7065 86.83 26.2398C86.6433 25.7731 86.37 25.4265 86.01 25.1998C85.6633 24.9598 85.2433 24.8398 84.75 24.8398Z" fill="black"/>
<path d="M71.9478 32.9998V22.9998H74.3278L74.5078 24.9598C74.7745 24.2665 75.1611 23.7331 75.6678 23.3598C76.1878 22.9865 76.8345 22.7998 77.6078 22.7998C77.8345 22.7998 78.0412 22.8198 78.2278 22.8598C78.4145 22.8998 78.5678 22.9531 78.6878 23.0198L78.3678 25.3198C78.2345 25.2665 78.0678 25.2265 77.8678 25.1998C77.6811 25.1731 77.4345 25.1598 77.1278 25.1598C76.7278 25.1598 76.3411 25.2598 75.9678 25.4598C75.5945 25.6465 75.2878 25.9398 75.0478 26.3398C74.8078 26.7265 74.6878 27.2198 74.6878 27.8198V32.9998H71.9478Z" fill="black"/>
<path d="M66.8941 19.9399V29.7399C66.8941 30.2199 67.0141 30.5733 67.2541 30.7999C67.5074 31.0133 67.8474 31.1199 68.2741 31.1199C68.6074 31.1199 68.9007 31.0733 69.1541 30.9799C69.4074 30.8733 69.6341 30.7333 69.8341 30.5599L70.2741 32.3799C69.9541 32.6333 69.5541 32.8333 69.0741 32.9799C68.5941 33.1266 68.0874 33.1999 67.5541 33.1999C66.8874 33.1999 66.2941 33.0999 65.7741 32.8999C65.2674 32.6999 64.8674 32.3799 64.5741 31.9399C64.2941 31.4999 64.1541 30.9133 64.1541 30.1799V20.6999L66.8941 19.9399ZM70.0941 22.9999V25.0399H62.3141V22.9999H70.0941Z" fill="black"/>
<path d="M56.605 22.7998C57.4983 22.7998 58.2517 22.9331 58.865 23.1998C59.4917 23.4531 59.9917 23.8065 60.365 24.2598C60.7517 24.6998 61.025 25.1931 61.185 25.7398L58.625 26.6598C58.4917 26.0598 58.265 25.6065 57.945 25.2998C57.625 24.9931 57.1917 24.8398 56.645 24.8398C56.1383 24.8398 55.705 24.9598 55.345 25.1998C54.985 25.4265 54.7117 25.7798 54.525 26.2598C54.3383 26.7265 54.245 27.3131 54.245 28.0198C54.245 28.7265 54.3383 29.3131 54.525 29.7798C54.725 30.2465 55.005 30.5931 55.365 30.8198C55.7383 31.0465 56.1717 31.1598 56.665 31.1598C57.065 31.1598 57.405 31.0931 57.685 30.9598C57.965 30.8131 58.1917 30.6065 58.365 30.3398C58.5517 30.0731 58.6783 29.7531 58.745 29.3798L61.225 30.1798C61.0783 30.7798 60.805 31.3065 60.405 31.7598C60.005 32.2131 59.4917 32.5665 58.865 32.8198C58.2383 33.0731 57.5117 33.1998 56.685 33.1998C55.6583 33.1998 54.7517 32.9931 53.965 32.5798C53.1783 32.1665 52.5717 31.5731 52.145 30.7998C51.7183 30.0265 51.505 29.0931 51.505 27.9998C51.505 26.9065 51.7183 25.9731 52.145 25.1998C52.5717 24.4265 53.1717 23.8331 53.945 23.4198C54.7183 23.0065 55.605 22.7998 56.605 22.7998Z" fill="black"/>
<path d="M45.123 33.1998C44.0696 33.1998 43.1496 32.9931 42.363 32.5798C41.5896 32.1665 40.9896 31.5731 40.563 30.7998C40.1363 30.0265 39.923 29.0931 39.923 27.9998C39.923 26.9065 40.1363 25.9731 40.563 25.1998C40.9896 24.4265 41.583 23.8331 42.343 23.4198C43.1163 23.0065 43.9963 22.7998 44.983 22.7998C45.9963 22.7998 46.8563 23.0065 47.563 23.4198C48.2696 23.8198 48.8096 24.3731 49.183 25.0798C49.5563 25.7731 49.743 26.5665 49.743 27.4598C49.743 27.7265 49.7363 27.9798 49.723 28.2198C49.7096 28.4598 49.6896 28.6731 49.663 28.8598H41.683V26.9598H48.463L47.143 27.4398C47.143 26.5998 46.9496 25.9531 46.563 25.4998C46.1896 25.0465 45.6563 24.8198 44.963 24.8198C44.4563 24.8198 44.0163 24.9398 43.643 25.1798C43.283 25.4198 43.0096 25.7798 42.823 26.2598C42.6363 26.7265 42.543 27.3198 42.543 28.0398C42.543 28.7465 42.643 29.3331 42.843 29.7998C43.0563 30.2531 43.3496 30.5931 43.723 30.8198C44.1096 31.0465 44.5696 31.1598 45.103 31.1598C45.6896 31.1598 46.163 31.0465 46.523 30.8198C46.883 30.5931 47.163 30.2798 47.363 29.8798L49.543 30.7198C49.3296 31.2398 49.003 31.6865 48.563 32.0598C48.1363 32.4331 47.623 32.7198 47.023 32.9198C46.4363 33.1065 45.803 33.1998 45.123 33.1998Z" fill="black"/>
<path d="M36.7962 18.6201V29.9201C36.7962 30.3868 36.8762 30.7135 37.0362 30.9001C37.1962 31.0868 37.4629 31.1801 37.8362 31.1801C38.0629 31.1801 38.2496 31.1668 38.3962 31.1401C38.5429 31.1001 38.7296 31.0468 38.9562 30.9801L38.7162 32.7801C38.4896 32.9135 38.2029 33.0135 37.8562 33.0801C37.5229 33.1601 37.1896 33.2001 36.8562 33.2001C35.8829 33.2001 35.1696 32.9668 34.7162 32.5001C34.2762 32.0201 34.0562 31.2601 34.0562 30.2201V18.6201H36.7962Z" fill="black"/>
<path d="M21.72 32.9998V19.7998H31.62V22.0198H24.48V25.2998H30.1V27.4198H24.48V30.7798H31.9V32.9998H21.72Z" fill="black"/>
</svg>
