<svg width="296" height="50" viewBox="0 0 296 50" fill="none" xmlns="http://www.w3.org/2000/svg">
<path d="M0 0H296V50H0V0Z" fill="white"/>
<path d="M90.0689 33.2C89.0556 33.2 88.1289 33.02 87.2889 32.66C86.4623 32.3 85.7889 31.7934 85.2689 31.14L86.8489 29.54C87.1689 30.02 87.5956 30.4134 88.1289 30.72C88.6623 31.0267 89.2956 31.18 90.0289 31.18C90.5489 31.18 90.9623 31.1067 91.2689 30.96C91.5889 30.8 91.7489 30.5534 91.7489 30.22C91.7489 30.0067 91.6756 29.8267 91.5289 29.68C91.3823 29.5201 91.0889 29.3934 90.6489 29.3L88.8889 28.94C87.7289 28.7 86.9023 28.34 86.4089 27.86C85.9289 27.3667 85.6889 26.7334 85.6889 25.96C85.6889 25.4134 85.8489 24.9 86.1689 24.42C86.5023 23.94 86.9956 23.5534 87.6489 23.26C88.3023 22.9534 89.1156 22.8 90.0889 22.8C91.0889 22.8 91.9556 22.96 92.6889 23.28C93.4356 23.5867 94.0223 24.0467 94.4489 24.66L92.8089 26.26C92.5156 25.7934 92.1289 25.44 91.6489 25.2C91.1823 24.9467 90.6889 24.82 90.1689 24.82C89.7956 24.82 89.4756 24.86 89.2089 24.94C88.9423 25.02 88.7423 25.1334 88.6089 25.28C88.4756 25.4134 88.4089 25.5867 88.4089 25.8C88.4089 26.0134 88.5023 26.2 88.6889 26.36C88.8756 26.5067 89.2156 26.6334 89.7089 26.74L91.7489 27.16C92.7356 27.36 93.4423 27.7 93.8689 28.18C94.2956 28.6467 94.5089 29.2134 94.5089 29.88C94.5089 30.52 94.3356 31.0934 93.9889 31.6C93.6556 32.0934 93.1556 32.4867 92.4889 32.78C91.8356 33.06 91.0289 33.2 90.0689 33.2Z" fill="black"/>
<path d="M79.1269 33.2C78.0735 33.2 77.1535 32.9934 76.3669 32.58C75.5935 32.1667 74.9935 31.5734 74.5669 30.8C74.1402 30.0267 73.9269 29.0934 73.9269 28C73.9269 26.9067 74.1402 25.9734 74.5669 25.2C74.9935 24.4267 75.5869 23.8334 76.3469 23.42C77.1202 23.0067 78.0002 22.8 78.9869 22.8C80.0002 22.8 80.8602 23.0067 81.5669 23.42C82.2735 23.82 82.8135 24.3734 83.1869 25.08C83.5602 25.7734 83.7469 26.5667 83.7469 27.46C83.7469 27.7267 83.7402 27.9801 83.7269 28.22C83.7135 28.46 83.6935 28.6734 83.6669 28.86H75.6869V26.96H82.4669L81.1469 27.44C81.1469 26.6 80.9535 25.9534 80.5669 25.5C80.1935 25.0467 79.6602 24.82 78.9669 24.82C78.4602 24.82 78.0202 24.94 77.6469 25.18C77.2869 25.42 77.0135 25.78 76.8269 26.26C76.6402 26.7267 76.5469 27.32 76.5469 28.04C76.5469 28.7467 76.6469 29.3334 76.8469 29.8C77.0602 30.2534 77.3535 30.5934 77.7269 30.82C78.1135 31.0467 78.5735 31.16 79.1069 31.16C79.6935 31.16 80.1669 31.0467 80.5269 30.82C80.8869 30.5934 81.1669 30.28 81.3669 29.88L83.5469 30.72C83.3335 31.2401 83.0069 31.6867 82.5669 32.0601C82.1402 32.4334 81.6269 32.72 81.0269 32.92C80.4402 33.1067 79.8069 33.2 79.1269 33.2Z" fill="black"/>
<path d="M62.104 33.0001V18.6201H64.844V24.7001C65.164 24.0601 65.604 23.5868 66.164 23.2801C66.724 22.9601 67.3573 22.8001 68.064 22.8001C68.7573 22.8001 69.3707 22.9335 69.904 23.2001C70.4507 23.4668 70.8773 23.8735 71.184 24.4201C71.504 24.9535 71.664 25.6268 71.664 26.4401V33.0001H68.924V27.2401C68.924 26.3735 68.7573 25.7801 68.424 25.4601C68.0907 25.1268 67.664 24.9601 67.144 24.9601C66.7573 24.9601 66.384 25.0535 66.024 25.2401C65.6773 25.4135 65.3907 25.7068 65.164 26.1201C64.9507 26.5201 64.844 27.0535 64.844 27.7201V33.0001H62.104Z" fill="black"/>
<path d="M56.8941 19.9399V29.7399C56.8941 30.2199 57.0141 30.5733 57.2541 30.7999C57.5074 31.0133 57.8474 31.1199 58.2741 31.1199C58.6074 31.1199 58.9008 31.0733 59.1541 30.9799C59.4074 30.8733 59.6341 30.7333 59.8341 30.5599L60.2741 32.3799C59.9541 32.6333 59.5541 32.8333 59.0741 32.9799C58.5941 33.1266 58.0874 33.1999 57.5541 33.1999C56.8874 33.1999 56.2941 33.0999 55.7741 32.8999C55.2674 32.6999 54.8674 32.3799 54.5741 31.9399C54.2941 31.4999 54.1541 30.9133 54.1541 30.1799V20.6999L56.8941 19.9399ZM60.0941 22.9999V25.0399H52.3141V22.9999H60.0941Z" fill="black"/>
<path d="M46.0391 22.8C47.0524 22.8 47.9391 23.0067 48.6991 23.42C49.4724 23.8334 50.0724 24.4267 50.4991 25.2C50.9391 25.9734 51.1591 26.9067 51.1591 28C51.1591 29.08 50.9391 30.0134 50.4991 30.8C50.0724 31.5734 49.4724 32.1667 48.6991 32.58C47.9391 32.9934 47.0524 33.2 46.0391 33.2C45.0391 33.2 44.1524 32.9934 43.3791 32.58C42.6057 32.1667 41.9991 31.5734 41.5591 30.8C41.1324 30.0134 40.9191 29.08 40.9191 28C40.9191 26.9067 41.1324 25.9734 41.5591 25.2C41.9991 24.4267 42.6057 23.8334 43.3791 23.42C44.1524 23.0067 45.0391 22.8 46.0391 22.8ZM46.0391 24.84C45.5324 24.84 45.0991 24.96 44.7391 25.2C44.3924 25.4267 44.1257 25.7734 43.9391 26.24C43.7524 26.7067 43.6591 27.2934 43.6591 28C43.6591 28.7067 43.7524 29.2934 43.9391 29.76C44.1257 30.2267 44.3924 30.58 44.7391 30.82C45.0991 31.0467 45.5324 31.16 46.0391 31.16C46.5324 31.16 46.9524 31.0467 47.2991 30.82C47.6591 30.58 47.9324 30.2267 48.1191 29.76C48.3057 29.2934 48.3991 28.7067 48.3991 28C48.3991 27.2934 48.3057 26.7067 48.1191 26.24C47.9324 25.7734 47.6591 25.4267 47.2991 25.2C46.9524 24.96 46.5324 24.84 46.0391 24.84Z" fill="black"/>
<path d="M37.7924 18.6201V29.9201C37.7924 30.3868 37.8724 30.7135 38.0324 30.9001C38.1924 31.0868 38.459 31.1801 38.8324 31.1801C39.059 31.1801 39.2457 31.1668 39.3924 31.1401C39.539 31.1001 39.7257 31.0468 39.9524 30.9801L39.7124 32.7801C39.4857 32.9135 39.199 33.0135 38.8524 33.0801C38.519 33.1601 38.1857 33.2001 37.8524 33.2001C36.879 33.2001 36.1657 32.9668 35.7124 32.5001C35.2724 32.0201 35.0524 31.2601 35.0524 30.2201V18.6201H37.7924Z" fill="black"/>
<path d="M33.0201 29.3601C32.7667 30.2134 32.3667 30.9268 31.8201 31.5001C31.2734 32.0734 30.6267 32.5001 29.8801 32.7801C29.1334 33.0601 28.3134 33.2001 27.4201 33.2001C26.1134 33.2001 24.9801 32.9268 24.0201 32.3801C23.0734 31.8334 22.3401 31.0534 21.8201 30.0401C21.3134 29.0268 21.0601 27.8134 21.0601 26.4001C21.0601 24.9868 21.3134 23.7734 21.8201 22.7601C22.3401 21.7468 23.0734 20.9668 24.0201 20.4201C24.9801 19.8734 26.1001 19.6001 27.3801 19.6001C28.2867 19.6001 29.1067 19.7268 29.8401 19.9801C30.5734 20.2201 31.1934 20.5934 31.7001 21.1001C32.2201 21.6068 32.6001 22.2468 32.8401 23.0201L30.3401 24.0801C30.1134 23.2801 29.7667 22.7134 29.3001 22.3801C28.8334 22.0334 28.2334 21.8601 27.5001 21.8601C26.7801 21.8601 26.1467 22.0334 25.6001 22.3801C25.0667 22.7268 24.6534 23.2401 24.3601 23.9201C24.0667 24.5868 23.9201 25.4134 23.9201 26.4001C23.9201 27.3734 24.0534 28.2001 24.3201 28.8801C24.6001 29.5601 25.0067 30.0734 25.5401 30.4201C26.0734 30.7668 26.7267 30.9401 27.5001 30.9401C28.2201 30.9401 28.8401 30.7468 29.3601 30.3601C29.8934 29.9734 30.2667 29.3868 30.4801 28.6001L33.0201 29.3601Z" fill="black"/>
</svg>
