<svg width="132" height="18" viewBox="0 0 132 18" fill="none" xmlns="http://www.w3.org/2000/svg">
<path d="M129.36 0V13.56C129.36 14.12 129.456 14.512 129.648 14.736C129.84 14.96 130.16 15.072 130.608 15.072C130.88 15.072 131.104 15.056 131.28 15.024C131.456 14.976 131.68 14.912 131.952 14.832L131.664 16.992C131.392 17.152 131.048 17.272 130.632 17.352C130.232 17.448 129.832 17.496 129.432 17.496C128.264 17.496 127.408 17.216 126.864 16.656C126.336 16.08 126.072 15.168 126.072 13.92V0H129.36Z" fill="white"/>
<path d="M121.002 3.528C120.314 3.528 119.802 3.384 119.466 3.096C119.13 2.792 118.962 2.352 118.962 1.776C118.962 1.184 119.13 0.744 119.466 0.456C119.802 0.152 120.314 0 121.002 0C121.69 0 122.202 0.152 122.538 0.456C122.874 0.744 123.042 1.184 123.042 1.776C123.042 2.352 122.874 2.792 122.538 3.096C122.202 3.384 121.69 3.528 121.002 3.528ZM122.634 5.256V17.256H119.346V5.256H122.634Z" fill="white"/>
<path d="M112.405 9.59963C112.405 8.91163 112.205 8.37563 111.805 7.99163C111.421 7.60763 110.909 7.41563 110.269 7.41563C109.677 7.41563 109.157 7.56763 108.709 7.87163C108.261 8.17563 107.933 8.67963 107.725 9.38363L104.917 8.51963C105.189 7.46363 105.781 6.61563 106.693 5.97563C107.621 5.33563 108.861 5.01562 110.413 5.01562C111.469 5.01562 112.389 5.18363 113.173 5.51963C113.957 5.83963 114.565 6.32763 114.997 6.98363C115.445 7.63963 115.669 8.46363 115.669 9.45563V14.3276C115.669 14.9356 115.957 15.2396 116.533 15.2396C116.805 15.2396 117.061 15.1996 117.301 15.1196L117.109 17.1596C116.693 17.3676 116.173 17.4716 115.549 17.4716C114.989 17.4716 114.485 17.3756 114.037 17.1836C113.589 16.9916 113.237 16.7036 112.981 16.3196C112.725 15.9196 112.597 15.4236 112.597 14.8316V14.7356L113.173 14.6396C113.077 15.2476 112.813 15.7676 112.381 16.1996C111.949 16.6156 111.421 16.9356 110.797 17.1596C110.189 17.3836 109.557 17.4956 108.901 17.4956C108.085 17.4956 107.381 17.3756 106.789 17.1356C106.197 16.8796 105.741 16.5116 105.421 16.0316C105.101 15.5516 104.941 14.9596 104.941 14.2556C104.941 13.3596 105.229 12.6316 105.805 12.0716C106.381 11.4956 107.205 11.1036 108.277 10.8956L112.789 9.98363L112.765 12.0236L109.885 12.5996C109.341 12.7116 108.925 12.8636 108.637 13.0556C108.365 13.2316 108.229 13.5276 108.229 13.9436C108.229 14.3436 108.373 14.6476 108.661 14.8556C108.965 15.0636 109.325 15.1676 109.741 15.1676C110.077 15.1676 110.405 15.1276 110.725 15.0476C111.045 14.9676 111.333 14.8396 111.589 14.6636C111.845 14.4876 112.045 14.2476 112.189 13.9436C112.333 13.6396 112.405 13.2716 112.405 12.8396V9.59963Z" fill="white"/>
<path d="M82.8774 17.2556V5.25563H85.8294L85.9494 7.41563C86.3494 6.61563 86.8934 6.01563 87.5814 5.61563C88.2854 5.21563 89.0614 5.01562 89.9094 5.01562C90.7734 5.01562 91.5494 5.21563 92.2374 5.61563C92.9414 6.01563 93.4694 6.60763 93.8214 7.39163C94.0774 6.86363 94.4214 6.42363 94.8534 6.07163C95.2854 5.71963 95.7654 5.45563 96.2934 5.27963C96.8214 5.10363 97.3574 5.01562 97.9014 5.01562C98.6854 5.01562 99.3974 5.17563 100.037 5.49563C100.693 5.81563 101.213 6.29563 101.597 6.93563C101.981 7.57563 102.173 8.39163 102.173 9.38363V17.2556H98.8854V10.0316C98.8854 9.15163 98.6934 8.52763 98.3094 8.15963C97.9254 7.79163 97.4294 7.60763 96.8214 7.60763C96.3414 7.60763 95.8934 7.72763 95.4774 7.96763C95.0774 8.20763 94.7574 8.56763 94.5174 9.04763C94.2934 9.51163 94.1814 10.0956 94.1814 10.7996V17.2556H90.8934V10.0316C90.8934 9.15163 90.6934 8.52763 90.2934 8.15963C89.9094 7.79163 89.4134 7.60763 88.8054 7.60763C88.3894 7.60763 87.9734 7.71963 87.5574 7.94363C87.1574 8.16763 86.8214 8.51963 86.5494 8.99963C86.2934 9.47963 86.1654 10.1116 86.1654 10.8956V17.2556H82.8774Z" fill="white"/>
<path d="M68.0259 17.256V1.41602H79.9059V4.08002H71.3379V8.01602H78.0819V10.56H71.3379V14.592H80.2419V17.256H68.0259Z" fill="white"/>
<path d="M49.843 17.496C48.851 17.496 47.963 17.248 47.179 16.752C46.411 16.256 45.803 15.544 45.355 14.616C44.923 13.688 44.707 12.576 44.707 11.28C44.707 9.952 44.939 8.824 45.403 7.896C45.867 6.952 46.491 6.24 47.275 5.76C48.075 5.264 48.971 5.016 49.963 5.016C51.019 5.016 51.891 5.32 52.579 5.928C53.267 6.536 53.715 7.32 53.923 8.28L53.611 8.664V0H56.899V17.256H53.947L53.731 13.608L54.139 13.8C54.027 14.552 53.771 15.208 53.371 15.768C52.971 16.312 52.467 16.736 51.859 17.04C51.251 17.344 50.579 17.496 49.843 17.496ZM50.803 14.976C51.379 14.976 51.875 14.832 52.291 14.544C52.707 14.24 53.027 13.8 53.251 13.224C53.491 12.648 53.611 11.96 53.611 11.16C53.611 10.392 53.499 9.744 53.275 9.216C53.051 8.672 52.731 8.256 52.315 7.968C51.899 7.68 51.411 7.536 50.851 7.536C49.955 7.536 49.251 7.856 48.739 8.496C48.243 9.12 47.995 10.04 47.995 11.256C47.995 12.472 48.243 13.4 48.739 14.04C49.235 14.664 49.923 14.976 50.803 14.976Z" fill="white"/>
<path d="M30.4478 17.2556V5.25563H33.3998L33.5918 8.85563L33.1838 8.47163C33.3758 7.68763 33.6798 7.03963 34.0958 6.52763C34.5118 6.01563 35.0158 5.63963 35.6078 5.39963C36.2158 5.14363 36.8798 5.01562 37.5998 5.01562C38.4318 5.01562 39.1678 5.17563 39.8078 5.49563C40.4638 5.81563 40.9758 6.30363 41.3438 6.95963C41.7278 7.59963 41.9198 8.40763 41.9198 9.38363V17.2556H38.6318V10.3196C38.6318 9.29563 38.4318 8.59163 38.0318 8.20763C37.6318 7.80763 37.1118 7.60763 36.4718 7.60763C36.0238 7.60763 35.5838 7.71963 35.1518 7.94363C34.7358 8.15163 34.3918 8.49563 34.1198 8.97563C33.8638 9.45563 33.7358 10.0956 33.7358 10.8956V17.2556H30.4478Z" fill="white"/>
<path d="M22.1173 17.4956C20.8533 17.4956 19.7493 17.2476 18.8053 16.7516C17.8773 16.2556 17.1573 15.5436 16.6453 14.6156C16.1333 13.6876 15.8773 12.5676 15.8773 11.2556C15.8773 9.94363 16.1333 8.82363 16.6453 7.89563C17.1573 6.96763 17.8693 6.25563 18.7813 5.75963C19.7093 5.26363 20.7653 5.01562 21.9493 5.01562C23.1653 5.01562 24.1973 5.26363 25.0453 5.75963C25.8933 6.23963 26.5413 6.90363 26.9893 7.75163C27.4373 8.58363 27.6613 9.53563 27.6613 10.6076C27.6613 10.9276 27.6533 11.2316 27.6373 11.5196C27.6213 11.8076 27.5973 12.0636 27.5653 12.2876H17.9893V10.0076H26.1253L24.5413 10.5836C24.5413 9.57563 24.3093 8.79963 23.8453 8.25563C23.3973 7.71163 22.7573 7.43963 21.9253 7.43963C21.3173 7.43963 20.7893 7.58363 20.3413 7.87163C19.9093 8.15963 19.5813 8.59163 19.3573 9.16763C19.1333 9.72763 19.0213 10.4396 19.0213 11.3036C19.0213 12.1516 19.1413 12.8556 19.3813 13.4156C19.6373 13.9596 19.9893 14.3676 20.4373 14.6396C20.9013 14.9116 21.4533 15.0476 22.0933 15.0476C22.7973 15.0476 23.3653 14.9116 23.7973 14.6396C24.2293 14.3676 24.5653 13.9916 24.8053 13.5116L27.4213 14.5196C27.1653 15.1436 26.7733 15.6796 26.2453 16.1276C25.7333 16.5756 25.1173 16.9196 24.3973 17.1596C23.6933 17.3836 22.9333 17.4956 22.1173 17.4956Z" fill="white"/>
<path d="M7.224 1.17578C8.664 1.17578 9.928 1.42378 11.016 1.91978C12.104 2.41578 13.032 3.15178 13.8 4.12778L11.952 6.26378C11.296 5.43178 10.576 4.82378 9.792 4.43978C9.024 4.03978 8.128 3.83978 7.104 3.83978C6.432 3.83978 5.872 3.92778 5.424 4.10378C4.992 4.27978 4.672 4.51178 4.464 4.79978C4.272 5.08778 4.176 5.40778 4.176 5.75978C4.176 6.19178 4.344 6.55978 4.68 6.86378C5.016 7.15178 5.592 7.39178 6.408 7.58378L9.36 8.25578C10.928 8.60778 12.048 9.13578 12.72 9.83978C13.408 10.5278 13.752 11.4238 13.752 12.5278C13.752 13.5678 13.48 14.4638 12.936 15.2158C12.392 15.9518 11.632 16.5198 10.656 16.9198C9.68 17.3038 8.56 17.4958 7.296 17.4958C6.192 17.4958 5.176 17.3678 4.248 17.1118C3.336 16.8398 2.52 16.4718 1.8 16.0078C1.08 15.5438 0.48 15.0078 0 14.3998L1.872 12.1678C2.24 12.6798 2.696 13.1358 3.24 13.5358C3.784 13.9358 4.4 14.2558 5.088 14.4958C5.792 14.7198 6.528 14.8318 7.296 14.8318C7.952 14.8318 8.504 14.7598 8.952 14.6158C9.416 14.4558 9.76 14.2398 9.984 13.9678C10.224 13.6798 10.344 13.3358 10.344 12.9358C10.344 12.5198 10.2 12.1678 9.912 11.8798C9.64 11.5758 9.128 11.3438 8.376 11.1838L5.16 10.4638C4.232 10.2398 3.432 9.95178 2.76 9.59978C2.104 9.23178 1.6 8.76778 1.248 8.20778C0.912 7.63178 0.744 6.95178 0.744 6.16778C0.744 5.22378 1 4.37578 1.512 3.62378C2.024 2.87178 2.76 2.27978 3.72 1.84778C4.696 1.39978 5.864 1.17578 7.224 1.17578Z" fill="white"/>
</svg>
