<svg width="263" height="24" viewBox="0 0 263 24" fill="none" xmlns="http://www.w3.org/2000/svg">
<path d="M255.108 23.328C253.487 23.328 252.004 23.04 250.66 22.464C249.338 21.888 248.26 21.0773 247.428 20.032L249.956 17.472C250.468 18.24 251.151 18.8693 252.004 19.36C252.858 19.8507 253.871 20.096 255.044 20.096C255.876 20.096 256.538 19.9787 257.028 19.744C257.54 19.488 257.796 19.0933 257.796 18.56C257.796 18.2187 257.679 17.9307 257.444 17.696C257.21 17.44 256.74 17.2373 256.036 17.088L253.22 16.512C251.364 16.128 250.042 15.552 249.252 14.784C248.484 13.9947 248.1 12.9813 248.1 11.744C248.1 10.8693 248.356 10.048 248.868 9.27999C249.402 8.51199 250.191 7.89332 251.236 7.42399C252.282 6.93332 253.583 6.68799 255.14 6.68799C256.74 6.68799 258.127 6.94399 259.3 7.45599C260.495 7.94665 261.434 8.68265 262.116 9.66399L259.492 12.224C259.023 11.4773 258.404 10.912 257.636 10.528C256.89 10.1227 256.1 9.91999 255.268 9.91999C254.671 9.91999 254.159 9.98399 253.732 10.112C253.306 10.24 252.986 10.4213 252.772 10.656C252.559 10.8693 252.452 11.1467 252.452 11.488C252.452 11.8293 252.602 12.128 252.9 12.384C253.199 12.6187 253.743 12.8213 254.532 12.992L257.796 13.664C259.375 13.984 260.506 14.528 261.188 15.296C261.871 16.0427 262.212 16.9493 262.212 18.016C262.212 19.04 261.935 19.9573 261.38 20.768C260.847 21.5573 260.047 22.1867 258.98 22.656C257.935 23.104 256.644 23.328 255.108 23.328Z" fill="black"/>
<path d="M218.458 23.008V7.00799H222.394L222.554 9.88799C223.088 8.82132 223.813 8.02132 224.73 7.48799C225.669 6.95466 226.704 6.68799 227.834 6.68799C228.986 6.68799 230.021 6.95466 230.938 7.48799C231.877 8.02132 232.581 8.81066 233.05 9.85599C233.392 9.15199 233.85 8.56532 234.426 8.09599C235.002 7.62666 235.642 7.27466 236.346 7.03999C237.05 6.80532 237.765 6.68799 238.49 6.68799C239.536 6.68799 240.485 6.90132 241.338 7.32799C242.213 7.75466 242.906 8.39466 243.418 9.24799C243.93 10.1013 244.186 11.1893 244.186 12.512V23.008H239.802V13.376C239.802 12.2027 239.546 11.3707 239.034 10.88C238.522 10.3893 237.861 10.144 237.05 10.144C236.41 10.144 235.813 10.304 235.258 10.624C234.725 10.944 234.298 11.424 233.978 12.064C233.68 12.6827 233.53 13.4613 233.53 14.4V23.008H229.146V13.376C229.146 12.2027 228.88 11.3707 228.346 10.88C227.834 10.3893 227.173 10.144 226.362 10.144C225.808 10.144 225.253 10.2933 224.698 10.592C224.165 10.8907 223.717 11.36 223.354 12C223.013 12.64 222.842 13.4827 222.842 14.528V23.008H218.458Z" fill="black"/>
<path d="M207.351 23.328C205.666 23.328 204.194 22.9973 202.935 22.336C201.698 21.6747 200.738 20.7253 200.055 19.488C199.372 18.2507 199.031 16.7573 199.031 15.008C199.031 13.2587 199.372 11.7653 200.055 10.528C200.738 9.29066 201.687 8.34132 202.903 7.67999C204.14 7.01866 205.548 6.68799 207.127 6.68799C208.748 6.68799 210.124 7.01866 211.255 7.67999C212.386 8.31999 213.25 9.20532 213.847 10.336C214.444 11.4453 214.743 12.7147 214.743 14.144C214.743 14.5707 214.732 14.976 214.711 15.36C214.69 15.744 214.658 16.0853 214.615 16.384H201.847V13.344H212.695L210.583 14.112C210.583 12.768 210.274 11.7333 209.655 11.008C209.058 10.2827 208.204 9.91999 207.095 9.91999C206.284 9.91999 205.58 10.112 204.983 10.496C204.407 10.88 203.97 11.456 203.671 12.224C203.372 12.9707 203.223 13.92 203.223 15.072C203.223 16.2027 203.383 17.1413 203.703 17.888C204.044 18.6133 204.514 19.1573 205.111 19.52C205.73 19.8827 206.466 20.064 207.319 20.064C208.258 20.064 209.015 19.8827 209.591 19.52C210.167 19.1573 210.615 18.656 210.935 18.016L214.423 19.36C214.082 20.192 213.559 20.9067 212.855 21.504C212.172 22.1013 211.351 22.56 210.391 22.88C209.452 23.1787 208.439 23.328 207.351 23.328Z" fill="black"/>
<path d="M191.841 2.11182V17.7918C191.841 18.5598 192.033 19.1252 192.417 19.4878C192.822 19.8292 193.366 19.9998 194.049 19.9998C194.582 19.9998 195.052 19.9252 195.457 19.7758C195.862 19.6052 196.225 19.3812 196.545 19.1038L197.249 22.0158C196.737 22.4212 196.097 22.7411 195.329 22.9758C194.561 23.2105 193.75 23.3278 192.897 23.3278C191.83 23.3278 190.881 23.1678 190.049 22.8478C189.238 22.5278 188.598 22.0158 188.129 21.3118C187.681 20.6078 187.457 19.6692 187.457 18.4958V3.32782L191.841 2.11182ZM196.961 7.00782V10.2718H184.513V7.00782H196.961Z" fill="black"/>
<path d="M181.135 1.8877V23.0077H176.719V1.8877H181.135Z" fill="black"/>
<path d="M152.475 23.328C151.152 23.328 149.968 22.9973 148.923 22.336C147.899 21.6747 147.088 20.7253 146.491 19.488C145.915 18.2507 145.627 16.768 145.627 15.04C145.627 13.2693 145.936 11.7653 146.555 10.528C147.174 9.26933 148.006 8.32 149.051 7.68C150.118 7.01867 151.312 6.688 152.635 6.688C154.043 6.688 155.206 7.09333 156.123 7.904C157.04 8.71467 157.638 9.76 157.915 11.04L157.499 11.552V0H161.883V23.008H157.947L157.659 18.144L158.203 18.4C158.054 19.4027 157.712 20.2773 157.179 21.024C156.646 21.7493 155.974 22.3147 155.163 22.72C154.352 23.1253 153.456 23.328 152.475 23.328ZM153.755 19.968C154.523 19.968 155.184 19.776 155.739 19.392C156.294 18.9867 156.72 18.4 157.019 17.632C157.339 16.864 157.499 15.9467 157.499 14.88C157.499 13.856 157.35 12.992 157.051 12.288C156.752 11.5627 156.326 11.008 155.771 10.624C155.216 10.24 154.566 10.048 153.819 10.048C152.624 10.048 151.686 10.4747 151.003 11.328C150.342 12.16 150.011 13.3867 150.011 15.008C150.011 16.6293 150.342 17.8667 151.003 18.72C151.664 19.552 152.582 19.968 153.755 19.968Z" fill="black"/>
<path d="M135.32 23.328C133.634 23.328 132.162 22.9973 130.904 22.336C129.666 21.6747 128.706 20.7253 128.024 19.488C127.341 18.2507 127 16.7573 127 15.008C127 13.2587 127.341 11.7653 128.024 10.528C128.706 9.29066 129.656 8.34132 130.872 7.67999C132.109 7.01866 133.517 6.68799 135.096 6.68799C136.717 6.68799 138.093 7.01866 139.224 7.67999C140.354 8.31999 141.218 9.20532 141.816 10.336C142.413 11.4453 142.712 12.7147 142.712 14.144C142.712 14.5707 142.701 14.976 142.68 15.36C142.658 15.744 142.626 16.0853 142.584 16.384H129.816V13.344H140.664L138.552 14.112C138.552 12.768 138.242 11.7333 137.624 11.008C137.026 10.2827 136.173 9.91999 135.064 9.91999C134.253 9.91999 133.549 10.112 132.952 10.496C132.376 10.88 131.938 11.456 131.64 12.224C131.341 12.9707 131.192 13.92 131.192 15.072C131.192 16.2027 131.352 17.1413 131.672 17.888C132.013 18.6133 132.482 19.1573 133.08 19.52C133.698 19.8827 134.434 20.064 135.288 20.064C136.226 20.064 136.984 19.8827 137.56 19.52C138.136 19.1573 138.584 18.656 138.904 18.016L142.392 19.36C142.05 20.192 141.528 20.9067 140.824 21.504C140.141 22.1013 139.32 22.56 138.36 22.88C137.421 23.1787 136.408 23.328 135.32 23.328Z" fill="black"/>
<path d="M119.81 2.11182V17.7918C119.81 18.5598 120.002 19.1252 120.386 19.4878C120.791 19.8292 121.335 19.9998 122.018 19.9998C122.551 19.9998 123.02 19.9252 123.426 19.7758C123.831 19.6052 124.194 19.3812 124.514 19.1038L125.218 22.0158C124.706 22.4212 124.066 22.7411 123.298 22.9758C122.53 23.2105 121.719 23.3278 120.866 23.3278C119.799 23.3278 118.85 23.1678 118.018 22.8478C117.207 22.5278 116.567 22.0158 116.098 21.3118C115.65 20.6078 115.426 19.6692 115.426 18.4958V3.32782L119.81 2.11182ZM124.93 7.00782V10.2718H112.482V7.00782H124.93Z" fill="black"/>
<path d="M107.322 4.704C106.405 4.704 105.722 4.512 105.274 4.128C104.826 3.72267 104.602 3.136 104.602 2.368C104.602 1.57867 104.826 0.992 105.274 0.608C105.722 0.202667 106.405 0 107.322 0C108.24 0 108.922 0.202667 109.37 0.608C109.818 0.992 110.042 1.57867 110.042 2.368C110.042 3.136 109.818 3.72267 109.37 4.128C108.922 4.512 108.24 4.704 107.322 4.704ZM109.498 7.008V23.008H105.114V7.008H109.498Z" fill="black"/>
<path d="M91.6145 23.008V7.00799H95.4225L95.7105 10.144C96.1372 9.03466 96.7558 8.18132 97.5665 7.58399C98.3985 6.98666 99.4332 6.68799 100.671 6.68799C101.033 6.68799 101.364 6.71999 101.662 6.78399C101.961 6.84799 102.206 6.93332 102.398 7.03999L101.887 10.72C101.673 10.6347 101.407 10.5707 101.087 10.528C100.788 10.4853 100.393 10.464 99.9025 10.464C99.2625 10.464 98.6438 10.624 98.0465 10.944C97.4492 11.2427 96.9585 11.712 96.5745 12.352C96.1905 12.9707 95.9985 13.76 95.9985 14.72V23.008H91.6145Z" fill="black"/>
<path d="M77.4012 23.3278C76.3346 23.3278 75.3746 23.1358 74.5212 22.7518C73.6679 22.3678 72.9852 21.7598 72.4732 20.9278C71.9826 20.0745 71.7372 18.9758 71.7372 17.6318V7.00781H76.1212V16.5758C76.1212 17.8131 76.3772 18.6771 76.8892 19.1678C77.4012 19.6371 78.1372 19.8718 79.0972 19.8718C79.5452 19.8718 79.9826 19.7971 80.4092 19.6478C80.8359 19.4771 81.2092 19.2211 81.5292 18.8798C81.8706 18.5385 82.1372 18.1011 82.3292 17.5678C82.5212 17.0131 82.6172 16.3625 82.6172 15.6158V7.00781H87.0012V23.0078H83.0972L82.9372 20.2238C82.4039 21.2905 81.6679 22.0798 80.7292 22.5918C79.8119 23.0825 78.7026 23.3278 77.4012 23.3278Z" fill="black"/>
<path d="M59.973 6.68799C61.5943 6.68799 63.013 7.01866 64.229 7.67999C65.4663 8.34132 66.4263 9.29066 67.109 10.528C67.813 11.7653 68.165 13.2587 68.165 15.008C68.165 16.736 67.813 18.2293 67.109 19.488C66.4263 20.7253 65.4663 21.6747 64.229 22.336C63.013 22.9973 61.5943 23.328 59.973 23.328C58.373 23.328 56.9543 22.9973 55.717 22.336C54.4796 21.6747 53.509 20.7253 52.805 19.488C52.1223 18.2293 51.781 16.736 51.781 15.008C51.781 13.2587 52.1223 11.7653 52.805 10.528C53.509 9.29066 54.4796 8.34132 55.717 7.67999C56.9543 7.01866 58.373 6.68799 59.973 6.68799ZM59.973 9.95199C59.1623 9.95199 58.469 10.144 57.893 10.528C57.3383 10.8907 56.9116 11.4453 56.613 12.192C56.3143 12.9387 56.165 13.8773 56.165 15.008C56.165 16.1387 56.3143 17.0773 56.613 17.824C56.9116 18.5707 57.3383 19.136 57.893 19.52C58.469 19.8827 59.1623 20.064 59.973 20.064C60.7623 20.064 61.4343 19.8827 61.989 19.52C62.565 19.136 63.0023 18.5707 63.301 17.824C63.5996 17.0773 63.749 16.1387 63.749 15.008C63.749 13.8773 63.5996 12.9387 63.301 12.192C63.0023 11.4453 62.565 10.8907 61.989 10.528C61.4343 10.144 60.7623 9.95199 59.973 9.95199Z" fill="black"/>
<path d="M45.8917 7.00781H50.4357L44.3557 23.0078H39.2997L33.2197 7.00781H37.8917L41.8597 19.6478L45.8917 7.00781Z" fill="black"/>
<path d="M26.7657 12.8C26.7657 11.8827 26.4991 11.168 25.9657 10.656C25.4537 10.144 24.7711 9.88799 23.9177 9.88799C23.1284 9.88799 22.4351 10.0907 21.8377 10.496C21.2404 10.9013 20.8031 11.5733 20.5257 12.512L16.7817 11.36C17.1444 9.95199 17.9337 8.82132 19.1497 7.96799C20.3871 7.11466 22.0404 6.68799 24.1097 6.68799C25.5177 6.68799 26.7444 6.91199 27.7897 7.35999C28.8351 7.78666 29.6457 8.43732 30.2217 9.31199C30.8191 10.1867 31.1177 11.2853 31.1177 12.608V19.104C31.1177 19.9147 31.5017 20.32 32.2697 20.32C32.6324 20.32 32.9737 20.2667 33.2937 20.16L33.0377 22.88C32.4831 23.1573 31.7897 23.296 30.9577 23.296C30.2111 23.296 29.5391 23.168 28.9417 22.912C28.3444 22.656 27.8751 22.272 27.5337 21.76C27.1924 21.2267 27.0217 20.5653 27.0217 19.776V19.648L27.7897 19.52C27.6617 20.3307 27.3097 21.024 26.7337 21.6C26.1577 22.1547 25.4537 22.5813 24.6217 22.88C23.8111 23.1787 22.9684 23.328 22.0937 23.328C21.0057 23.328 20.0671 23.168 19.2777 22.848C18.4884 22.5067 17.8804 22.016 17.4537 21.376C17.0271 20.736 16.8137 19.9467 16.8137 19.008C16.8137 17.8133 17.1977 16.8427 17.9657 16.096C18.7337 15.328 19.8324 14.8053 21.2617 14.528L27.2777 13.312L27.2457 16.032L23.4057 16.8C22.6804 16.9493 22.1257 17.152 21.7417 17.408C21.3791 17.6427 21.1977 18.0373 21.1977 18.592C21.1977 19.1253 21.3897 19.5307 21.7737 19.808C22.1791 20.0853 22.6591 20.224 23.2137 20.224C23.6617 20.224 24.0991 20.1707 24.5257 20.064C24.9524 19.9573 25.3364 19.7867 25.6777 19.552C26.0191 19.3173 26.2857 18.9973 26.4777 18.592C26.6697 18.1867 26.7657 17.696 26.7657 17.12V12.8Z" fill="black"/>
<path d="M15.808 5.4397H4.416V10.8157H13.408V14.3677H4.416V23.0077H0V1.8877H15.808V5.4397Z" fill="black"/>
</svg>
