<svg width="296" height="50" viewBox="0 0 296 50" fill="none" xmlns="http://www.w3.org/2000/svg">
<path d="M0 0H296V50H0V0Z" fill="white"/>
<path d="M74.7173 33.2C73.704 33.2 72.7773 33.02 71.9373 32.66C71.1107 32.3 70.4373 31.7934 69.9173 31.14L71.4973 29.54C71.8173 30.02 72.244 30.4134 72.7773 30.72C73.3107 31.0267 73.944 31.18 74.6773 31.18C75.1973 31.18 75.6107 31.1067 75.9173 30.96C76.2373 30.8 76.3973 30.5534 76.3973 30.22C76.3973 30.0067 76.324 29.8267 76.1773 29.68C76.0307 29.5201 75.7373 29.3934 75.2973 29.3L73.5373 28.94C72.3773 28.7 71.5507 28.34 71.0573 27.86C70.5773 27.3667 70.3373 26.7334 70.3373 25.96C70.3373 25.4134 70.4973 24.9 70.8173 24.42C71.1507 23.94 71.644 23.5534 72.2973 23.26C72.9507 22.9534 73.764 22.8 74.7373 22.8C75.7373 22.8 76.604 22.96 77.3373 23.28C78.084 23.5867 78.6707 24.0467 79.0973 24.66L77.4573 26.26C77.164 25.7934 76.7773 25.44 76.2973 25.2C75.8307 24.9467 75.3373 24.82 74.8173 24.82C74.444 24.82 74.124 24.86 73.8573 24.94C73.5907 25.02 73.3907 25.1334 73.2573 25.28C73.124 25.4134 73.0573 25.5867 73.0573 25.8C73.0573 26.0134 73.1507 26.2 73.3373 26.36C73.524 26.5067 73.864 26.6334 74.3573 26.74L76.3973 27.16C77.384 27.36 78.0907 27.7 78.5173 28.18C78.944 28.6467 79.1573 29.2134 79.1573 29.88C79.1573 30.52 78.984 31.0934 78.6373 31.6C78.304 32.0934 77.804 32.4867 77.1373 32.78C76.484 33.06 75.6773 33.2 74.7173 33.2Z" fill="black"/>
<path d="M69.0028 23.0001L64.3828 27.8201L63.8428 28.0801L60.8428 31.3001L60.8028 28.3801L65.8828 23.0001H69.0028ZM61.5628 18.6201V33.0001H58.8228V18.6201H61.5628ZM64.7628 26.1801L69.2428 33.0001H66.1428L62.8828 27.7801L64.7628 26.1801Z" fill="black"/>
<path d="M51.4102 22.8C52.4235 22.8 53.3102 23.0067 54.0702 23.42C54.8435 23.8334 55.4435 24.4267 55.8702 25.2C56.3102 25.9734 56.5302 26.9067 56.5302 28C56.5302 29.08 56.3102 30.0134 55.8702 30.8C55.4435 31.5734 54.8435 32.1667 54.0702 32.58C53.3102 32.9934 52.4235 33.2 51.4102 33.2C50.4102 33.2 49.5235 32.9934 48.7502 32.58C47.9768 32.1667 47.3702 31.5734 46.9302 30.8C46.5035 30.0134 46.2902 29.08 46.2902 28C46.2902 26.9067 46.5035 25.9734 46.9302 25.2C47.3702 24.4267 47.9768 23.8334 48.7502 23.42C49.5235 23.0067 50.4102 22.8 51.4102 22.8ZM51.4102 24.84C50.9035 24.84 50.4702 24.96 50.1102 25.2C49.7635 25.4267 49.4968 25.7734 49.3102 26.24C49.1235 26.7067 49.0302 27.2934 49.0302 28C49.0302 28.7067 49.1235 29.2934 49.3102 29.76C49.4968 30.2267 49.7635 30.58 50.1102 30.82C50.4702 31.0467 50.9035 31.16 51.4102 31.16C51.9035 31.16 52.3235 31.0467 52.6702 30.82C53.0302 30.58 53.3035 30.2267 53.4902 29.76C53.6768 29.2934 53.7702 28.7067 53.7702 28C53.7702 27.2934 53.6768 26.7067 53.4902 26.24C53.3035 25.7734 53.0302 25.4267 52.6702 25.2C52.3235 24.96 51.9035 24.84 51.4102 24.84Z" fill="black"/>
<path d="M39.4375 22.8C40.4508 22.8 41.3375 23.0067 42.0975 23.42C42.8708 23.8334 43.4708 24.4267 43.8975 25.2C44.3375 25.9734 44.5575 26.9067 44.5575 28C44.5575 29.08 44.3375 30.0134 43.8975 30.8C43.4708 31.5734 42.8708 32.1667 42.0975 32.58C41.3375 32.9934 40.4508 33.2 39.4375 33.2C38.4375 33.2 37.5508 32.9934 36.7775 32.58C36.0042 32.1667 35.3975 31.5734 34.9575 30.8C34.5308 30.0134 34.3175 29.08 34.3175 28C34.3175 26.9067 34.5308 25.9734 34.9575 25.2C35.3975 24.4267 36.0042 23.8334 36.7775 23.42C37.5508 23.0067 38.4375 22.8 39.4375 22.8ZM39.4375 24.84C38.9308 24.84 38.4975 24.96 38.1375 25.2C37.7908 25.4267 37.5242 25.7734 37.3375 26.24C37.1508 26.7067 37.0575 27.2934 37.0575 28C37.0575 28.7067 37.1508 29.2934 37.3375 29.76C37.5242 30.2267 37.7908 30.58 38.1375 30.82C38.4975 31.0467 38.9308 31.16 39.4375 31.16C39.9308 31.16 40.3508 31.0467 40.6975 30.82C41.0575 30.58 41.3308 30.2267 41.5175 29.76C41.7042 29.2934 41.7975 28.7067 41.7975 28C41.7975 27.2934 41.7042 26.7067 41.5175 26.24C41.3308 25.7734 41.0575 25.4267 40.6975 25.2C40.3508 24.96 39.9308 24.84 39.4375 24.84Z" fill="black"/>
<path d="M21.72 33V19.8H27.5C29.1 19.8 30.28 20.1134 31.04 20.74C31.8 21.3667 32.18 22.2534 32.18 23.4C32.18 24.1067 31.9667 24.7334 31.54 25.28C31.1133 25.8267 30.4867 26.1734 29.66 26.32V26.34C30.58 26.4734 31.2867 26.82 31.78 27.38C32.2733 27.94 32.52 28.6067 32.52 29.38C32.52 30.5134 32.1067 31.4 31.28 32.04C30.4667 32.68 29.2733 33 27.7 33H21.72ZM24.4 30.92H27.46C28.2067 30.92 28.76 30.7667 29.12 30.46C29.48 30.1534 29.66 29.7267 29.66 29.18C29.66 28.62 29.48 28.1934 29.12 27.9C28.76 27.6067 28.2067 27.46 27.46 27.46H24.4V30.92ZM24.4 25.34H27.14C28.5933 25.34 29.32 24.7734 29.32 23.64C29.32 22.5067 28.5933 21.94 27.14 21.94H24.4V25.34Z" fill="black"/>
</svg>
