<svg width="59" height="11" viewBox="0 0 59 11" fill="none" xmlns="http://www.w3.org/2000/svg">
<path d="M55.2313 10.935C54.4713 10.935 53.7763 10.8 53.1463 10.53C52.5263 10.26 52.0213 9.88001 51.6313 9.39001L52.8163 8.19001C53.0563 8.55001 53.3763 8.84501 53.7763 9.07501C54.1763 9.30501 54.6513 9.42001 55.2013 9.42001C55.5913 9.42001 55.9013 9.36501 56.1313 9.25501C56.3713 9.13501 56.4913 8.95001 56.4913 8.70001C56.4913 8.54001 56.4363 8.40501 56.3263 8.29501C56.2163 8.17501 55.9963 8.08001 55.6663 8.01001L54.3463 7.74001C53.4763 7.56001 52.8563 7.29001 52.4863 6.93001C52.1263 6.56001 51.9463 6.08501 51.9463 5.50501C51.9463 5.09501 52.0663 4.71001 52.3063 4.35001C52.5563 3.99001 52.9263 3.70001 53.4163 3.48001C53.9063 3.25001 54.5163 3.13501 55.2463 3.13501C55.9963 3.13501 56.6463 3.25501 57.1964 3.49501C57.7564 3.72501 58.1963 4.07001 58.5163 4.53001L57.2863 5.73001C57.0663 5.38001 56.7763 5.11501 56.4163 4.93501C56.0663 4.74501 55.6963 4.65001 55.3063 4.65001C55.0263 4.65001 54.7863 4.68001 54.5863 4.74001C54.3863 4.80001 54.2363 4.88501 54.1363 4.99501C54.0363 5.09501 53.9863 5.22501 53.9863 5.38501C53.9863 5.54501 54.0564 5.68501 54.1964 5.80501C54.3363 5.91501 54.5913 6.01001 54.9613 6.09001L56.4913 6.40501C57.2313 6.55501 57.7613 6.81001 58.0813 7.17001C58.4013 7.52001 58.5613 7.94501 58.5613 8.44501C58.5613 8.92501 58.4313 9.35501 58.1713 9.73501C57.9213 10.105 57.5463 10.4 57.0463 10.62C56.5563 10.83 55.9513 10.935 55.2313 10.935Z" fill="black"/>
<path d="M48.8693 3.28491H51.0593L48.6593 10.7849H46.2893L44.6543 5.68491L43.0793 10.7849H40.7093L38.3093 3.28491H40.4993L41.9993 9.02991L43.6643 3.28491H45.7043L47.3843 9.02991L48.8693 3.28491Z" fill="black"/>
<path d="M34.1928 10.935C33.4028 10.935 32.7128 10.78 32.1228 10.47C31.5428 10.16 31.0928 9.71501 30.7728 9.13501C30.4528 8.55501 30.2928 7.85501 30.2928 7.03501C30.2928 6.21501 30.4528 5.51501 30.7728 4.93501C31.0928 4.35501 31.5378 3.91001 32.1078 3.60001C32.6878 3.29001 33.3478 3.13501 34.0878 3.13501C34.8478 3.13501 35.4928 3.29001 36.0228 3.60001C36.5528 3.90001 36.9578 4.31501 37.2378 4.84501C37.5178 5.36501 37.6578 5.96001 37.6578 6.63001C37.6578 6.83001 37.6528 7.02001 37.6428 7.20001C37.6328 7.38001 37.6178 7.54001 37.5978 7.68001H31.6128V6.25501H36.6978L35.7078 6.61501C35.7078 5.98501 35.5628 5.50001 35.2728 5.16001C34.9928 4.82001 34.5928 4.65001 34.0728 4.65001C33.6928 4.65001 33.3628 4.74001 33.0828 4.92001C32.8128 5.10001 32.6078 5.37001 32.4678 5.73001C32.3278 6.08001 32.2578 6.52501 32.2578 7.06501C32.2578 7.59501 32.3328 8.03501 32.4828 8.38501C32.6428 8.72501 32.8628 8.98001 33.1428 9.15001C33.4328 9.32001 33.7778 9.40501 34.1778 9.40501C34.6178 9.40501 34.9728 9.32001 35.2428 9.15001C35.5128 8.98001 35.7228 8.74501 35.8728 8.44501L37.5078 9.07501C37.3478 9.46501 37.1028 9.80001 36.7728 10.08C36.4528 10.36 36.0678 10.575 35.6178 10.725C35.1778 10.865 34.7028 10.935 34.1928 10.935Z" fill="black"/>
<path d="M27.5144 2.205C27.0844 2.205 26.7644 2.115 26.5544 1.935C26.3444 1.745 26.2394 1.47 26.2394 1.11C26.2394 0.74 26.3444 0.465 26.5544 0.285C26.7644 0.095 27.0844 0 27.5144 0C27.9444 0 28.2644 0.095 28.4744 0.285C28.6844 0.465 28.7894 0.74 28.7894 1.11C28.7894 1.47 28.6844 1.745 28.4744 1.935C28.2644 2.115 27.9444 2.205 27.5144 2.205ZM28.5344 3.285V10.785H26.4794V3.285H28.5344Z" fill="black"/>
<path d="M23.211 3.28491H25.341L22.491 10.7849H20.121L17.271 3.28491H19.461L21.321 9.20991L23.211 3.28491Z" fill="black"/>
<path d="M13.3188 10.935C12.5288 10.935 11.8388 10.78 11.2488 10.47C10.6688 10.16 10.2188 9.71501 9.89882 9.13501C9.57882 8.55501 9.41882 7.85501 9.41882 7.03501C9.41882 6.21501 9.57882 5.51501 9.89882 4.93501C10.2188 4.35501 10.6638 3.91001 11.2338 3.60001C11.8138 3.29001 12.4738 3.13501 13.2138 3.13501C13.9738 3.13501 14.6188 3.29001 15.1488 3.60001C15.6788 3.90001 16.0838 4.31501 16.3638 4.84501C16.6438 5.36501 16.7838 5.96001 16.7838 6.63001C16.7838 6.83001 16.7788 7.02001 16.7688 7.20001C16.7588 7.38001 16.7438 7.54001 16.7238 7.68001H10.7388V6.25501H15.8238L14.8338 6.61501C14.8338 5.98501 14.6888 5.50001 14.3988 5.16001C14.1188 4.82001 13.7188 4.65001 13.1988 4.65001C12.8188 4.65001 12.4888 4.74001 12.2088 4.92001C11.9388 5.10001 11.7338 5.37001 11.5938 5.73001C11.4538 6.08001 11.3838 6.52501 11.3838 7.06501C11.3838 7.59501 11.4588 8.03501 11.6088 8.38501C11.7688 8.72501 11.9888 8.98001 12.2688 9.15001C12.5588 9.32001 12.9038 9.40501 13.3038 9.40501C13.7438 9.40501 14.0988 9.32001 14.3688 9.15001C14.6388 8.98001 14.8488 8.74501 14.9988 8.44501L16.6338 9.07501C16.4738 9.46501 16.2288 9.80001 15.8988 10.08C15.5788 10.36 15.1938 10.575 14.7438 10.725C14.3038 10.865 13.8288 10.935 13.3188 10.935Z" fill="black"/>
<path d="M4.365 0.88501C5.485 0.88501 6.365 1.15501 7.005 1.69501C7.645 2.23501 7.965 2.96001 7.965 3.87001C7.965 4.84001 7.645 5.58501 7.005 6.10501C6.365 6.61501 5.49 6.87001 4.38 6.87001L4.17 6.99001H2.04V10.785H0V0.88501H4.365ZM4.125 5.41501C4.705 5.41501 5.135 5.30001 5.415 5.07001C5.705 4.83001 5.85 4.46501 5.85 3.97501C5.85 3.48501 5.705 3.12501 5.415 2.89501C5.135 2.65501 4.705 2.53501 4.125 2.53501H2.04V5.41501H4.125ZM5.34 5.85001L8.55 10.785H6.225L3.57 6.45001L5.34 5.85001Z" fill="black"/>
</svg>
