<svg width="56" height="15" viewBox="0 0 56 15" fill="none" xmlns="http://www.w3.org/2000/svg">
<path d="M50.0613 4.18005C51.0746 4.18005 51.9613 4.38672 52.7213 4.80005C53.4946 5.21339 54.0946 5.80672 54.5213 6.58005C54.9613 7.35339 55.1813 8.28672 55.1813 9.38005C55.1813 10.4601 54.9613 11.3934 54.5213 12.1801C54.0946 12.9534 53.4946 13.5467 52.7213 13.9601C51.9613 14.3734 51.0746 14.5801 50.0613 14.5801C49.0613 14.5801 48.1746 14.3734 47.4013 13.9601C46.6279 13.5467 46.0213 12.9534 45.5813 12.1801C45.1546 11.3934 44.9413 10.4601 44.9413 9.38005C44.9413 8.28672 45.1546 7.35339 45.5813 6.58005C46.0213 5.80672 46.6279 5.21339 47.4013 4.80005C48.1746 4.38672 49.0613 4.18005 50.0613 4.18005ZM50.0613 6.22005C49.5546 6.22005 49.1213 6.34005 48.7613 6.58005C48.4146 6.80672 48.1479 7.15339 47.9613 7.62005C47.7746 8.08672 47.6813 8.67339 47.6813 9.38005C47.6813 10.0867 47.7746 10.6734 47.9613 11.1401C48.1479 11.6067 48.4146 11.9601 48.7613 12.2001C49.1213 12.4267 49.5546 12.5401 50.0613 12.5401C50.5546 12.5401 50.9746 12.4267 51.3213 12.2001C51.6813 11.9601 51.9546 11.6067 52.1413 11.1401C52.3279 10.6734 52.4213 10.0867 52.4213 9.38005C52.4213 8.67339 52.3279 8.08672 52.1413 7.62005C51.9546 7.15339 51.6813 6.80672 51.3213 6.58005C50.9746 6.34005 50.5546 6.22005 50.0613 6.22005Z" fill="black"/>
<path d="M40.4475 1.31995V11.1199C40.4475 11.5999 40.5675 11.9533 40.8075 12.1799C41.0609 12.3933 41.4009 12.4999 41.8275 12.4999C42.1609 12.4999 42.4542 12.4533 42.7075 12.3599C42.9609 12.2533 43.1875 12.1133 43.3875 11.9399L43.8275 13.7599C43.5075 14.0133 43.1075 14.2133 42.6275 14.3599C42.1475 14.5066 41.6409 14.5799 41.1075 14.5799C40.4409 14.5799 39.8475 14.4799 39.3275 14.2799C38.8209 14.0799 38.4209 13.7599 38.1275 13.3199C37.8475 12.8799 37.7075 12.2933 37.7075 11.5599V2.07995L40.4475 1.31995ZM43.6475 4.37995V6.41995H35.8675V4.37995H43.6475Z" fill="black"/>
<path d="M29.5925 4.18005C30.6058 4.18005 31.4925 4.38672 32.2525 4.80005C33.0258 5.21339 33.6258 5.80672 34.0525 6.58005C34.4925 7.35339 34.7125 8.28672 34.7125 9.38005C34.7125 10.4601 34.4925 11.3934 34.0525 12.1801C33.6258 12.9534 33.0258 13.5467 32.2525 13.9601C31.4925 14.3734 30.6058 14.5801 29.5925 14.5801C28.5925 14.5801 27.7058 14.3734 26.9325 13.9601C26.1592 13.5467 25.5525 12.9534 25.1125 12.1801C24.6858 11.3934 24.4725 10.4601 24.4725 9.38005C24.4725 8.28672 24.6858 7.35339 25.1125 6.58005C25.5525 5.80672 26.1592 5.21339 26.9325 4.80005C27.7058 4.38672 28.5925 4.18005 29.5925 4.18005ZM29.5925 6.22005C29.0858 6.22005 28.6525 6.34005 28.2925 6.58005C27.9458 6.80672 27.6792 7.15339 27.4925 7.62005C27.3058 8.08672 27.2125 8.67339 27.2125 9.38005C27.2125 10.0867 27.3058 10.6734 27.4925 11.1401C27.6792 11.6067 27.9458 11.9601 28.2925 12.2001C28.6525 12.4267 29.0858 12.5401 29.5925 12.5401C30.0858 12.5401 30.5058 12.4267 30.8525 12.2001C31.2125 11.9601 31.4858 11.6067 31.6725 11.1401C31.8592 10.6734 31.9525 10.0867 31.9525 9.38005C31.9525 8.67339 31.8592 8.08672 31.6725 7.62005C31.4858 7.15339 31.2125 6.80672 30.8525 6.58005C30.5058 6.34005 30.0858 6.22005 29.5925 6.22005Z" fill="black"/>
<path d="M12.6497 14.38V0H15.3897V6.08C15.7097 5.44 16.1497 4.96667 16.7097 4.66C17.2697 4.34 17.903 4.18 18.6097 4.18C19.303 4.18 19.9164 4.31333 20.4497 4.58C20.9964 4.84667 21.423 5.25333 21.7297 5.8C22.0497 6.33333 22.2097 7.00667 22.2097 7.82V14.38H19.4697V8.62C19.4697 7.75333 19.303 7.16 18.9697 6.84C18.6364 6.50667 18.2097 6.34 17.6897 6.34C17.303 6.34 16.9297 6.43333 16.5697 6.62C16.223 6.79333 15.9364 7.08667 15.7097 7.5C15.4964 7.9 15.3897 8.43333 15.3897 9.1V14.38H12.6497Z" fill="black"/>
<path d="M5.54 1.18005C6.55333 1.18005 7.42 1.35339 8.14 1.70005C8.86 2.03339 9.41333 2.52005 9.8 3.16005C10.2 3.78672 10.4 4.54672 10.4 5.44005C10.4 6.33339 10.2 7.10005 9.8 7.74005C9.41333 8.36672 8.86 8.85339 8.14 9.20005C7.42 9.53339 6.55333 9.70005 5.54 9.70005H2.76V14.3801H0V1.18005H5.54ZM5.12 7.52005C5.94667 7.52005 6.56667 7.34672 6.98 7.00005C7.39333 6.64005 7.6 6.12005 7.6 5.44005C7.6 4.74672 7.39333 4.22672 6.98 3.88005C6.56667 3.53339 5.94667 3.36005 5.12 3.36005H2.76V7.52005H5.12Z" fill="black"/>
</svg>
