<svg width="96" height="31" viewBox="0 0 96 31" fill="none" xmlns="http://www.w3.org/2000/svg">
<path d="M0 5C0 2.23858 2.23858 0 5 0H91C93.7614 0 96 2.23858 96 5V26C96 28.7614 93.7614 31 91 31H5C2.23857 31 0 28.7614 0 26V5Z" fill="white"/>
<path d="M91 30V31H5V30H91ZM95 26V5C95 2.79086 93.2091 1 91 1H5C2.79086 1 1 2.79086 1 5V26C1 28.2091 2.79086 30 5 30V31L4.74316 30.9932C2.1011 30.8595 0 28.6753 0 26V5C5.15405e-07 2.23858 2.23858 0 5 0H91C93.7614 0 96 2.23858 96 5V26C96 28.7614 93.7614 31 91 31V30C93.2091 30 95 28.2091 95 26Z" fill="#C20F2F"/>
<path d="M78.8261 13.8999C79.3328 13.8999 79.7761 14.0032 80.1561 14.2099C80.5428 14.4166 80.8428 14.7132 81.0561 15.0999C81.2761 15.4866 81.3861 15.9532 81.3861 16.4999C81.3861 17.0399 81.2761 17.5066 81.0561 17.8999C80.8428 18.2866 80.5428 18.5832 80.1561 18.7899C79.7761 18.9966 79.3328 19.0999 78.8261 19.0999C78.3261 19.0999 77.8828 18.9966 77.4961 18.7899C77.1094 18.5832 76.8061 18.2866 76.5861 17.8999C76.3728 17.5066 76.2661 17.0399 76.2661 16.4999C76.2661 15.9532 76.3728 15.4866 76.5861 15.0999C76.8061 14.7132 77.1094 14.4166 77.4961 14.2099C77.8828 14.0032 78.3261 13.8999 78.8261 13.8999ZM78.8261 14.9199C78.5728 14.9199 78.3561 14.9799 78.1761 15.0999C78.0028 15.2132 77.8694 15.3866 77.7761 15.6199C77.6828 15.8532 77.6361 16.1466 77.6361 16.4999C77.6361 16.8532 77.6828 17.1466 77.7761 17.3799C77.8694 17.6132 78.0028 17.7899 78.1761 17.9099C78.3561 18.0232 78.5728 18.0799 78.8261 18.0799C79.0728 18.0799 79.2828 18.0232 79.4561 17.9099C79.6361 17.7899 79.7728 17.6132 79.8661 17.3799C79.9594 17.1466 80.0061 16.8532 80.0061 16.4999C80.0061 16.1466 79.9594 15.8532 79.8661 15.6199C79.7728 15.3866 79.6361 15.2132 79.4561 15.0999C79.2828 14.9799 79.0728 14.9199 78.8261 14.9199Z" fill="black"/>
<path d="M74.0192 12.47V17.37C74.0192 17.61 74.0792 17.7866 74.1992 17.9C74.3259 18.0066 74.4959 18.06 74.7092 18.06C74.8759 18.06 75.0226 18.0366 75.1492 17.99C75.2759 17.9366 75.3892 17.8666 75.4892 17.78L75.7092 18.69C75.5492 18.8166 75.3492 18.9166 75.1092 18.99C74.8692 19.0633 74.6159 19.1 74.3492 19.1C74.0159 19.1 73.7192 19.05 73.4592 18.95C73.2059 18.85 73.0059 18.69 72.8592 18.47C72.7192 18.25 72.6492 17.9566 72.6492 17.59V12.85L74.0192 12.47ZM75.6192 14V15.02H71.7292V14H75.6192Z" fill="black"/>
<path d="M68.5917 13.8999C69.0984 13.8999 69.5417 14.0032 69.9217 14.2099C70.3084 14.4166 70.6084 14.7132 70.8217 15.0999C71.0417 15.4866 71.1517 15.9532 71.1517 16.4999C71.1517 17.0399 71.0417 17.5066 70.8217 17.8999C70.6084 18.2866 70.3084 18.5832 69.9217 18.7899C69.5417 18.9966 69.0984 19.0999 68.5917 19.0999C68.0917 19.0999 67.6484 18.9966 67.2617 18.7899C66.8751 18.5832 66.5717 18.2866 66.3517 17.8999C66.1384 17.5066 66.0317 17.0399 66.0317 16.4999C66.0317 15.9532 66.1384 15.4866 66.3517 15.0999C66.5717 14.7132 66.8751 14.4166 67.2617 14.2099C67.6484 14.0032 68.0917 13.8999 68.5917 13.8999ZM68.5917 14.9199C68.3384 14.9199 68.1217 14.9799 67.9417 15.0999C67.7684 15.2132 67.6351 15.3866 67.5417 15.6199C67.4484 15.8532 67.4017 16.1466 67.4017 16.4999C67.4017 16.8532 67.4484 17.1466 67.5417 17.3799C67.6351 17.6132 67.7684 17.7899 67.9417 17.9099C68.1217 18.0232 68.3384 18.0799 68.5917 18.0799C68.8384 18.0799 69.0484 18.0232 69.2217 17.9099C69.4017 17.7899 69.5384 17.6132 69.6317 17.3799C69.7251 17.1466 69.7717 16.8532 69.7717 16.4999C69.7717 16.1466 69.7251 15.8532 69.6317 15.6199C69.5384 15.3866 69.4017 15.2132 69.2217 15.0999C69.0484 14.9799 68.8384 14.9199 68.5917 14.9199Z" fill="black"/>
<path d="M60.1204 19.0001V11.8101H61.4904V14.8501C61.6504 14.5301 61.8704 14.2934 62.1504 14.1401C62.4304 13.9801 62.747 13.9001 63.1004 13.9001C63.447 13.9001 63.7537 13.9667 64.0204 14.1001C64.2937 14.2334 64.507 14.4367 64.6604 14.7101C64.8204 14.9767 64.9004 15.3134 64.9004 15.7201V19.0001H63.5304V16.1201C63.5304 15.6867 63.447 15.3901 63.2804 15.2301C63.1137 15.0634 62.9004 14.9801 62.6404 14.9801C62.447 14.9801 62.2604 15.0267 62.0804 15.1201C61.907 15.2067 61.7637 15.3534 61.6504 15.5601C61.5437 15.7601 61.4904 16.0267 61.4904 16.3601V19.0001H60.1204Z" fill="black"/>
<path d="M53.8508 21.0999V13.9999H55.0808L55.1708 15.5899L55.0008 15.4099C55.0608 15.1166 55.1708 14.8566 55.3308 14.6299C55.4975 14.4032 55.7075 14.2266 55.9608 14.0999C56.2142 13.9666 56.4975 13.8999 56.8108 13.8999C57.2175 13.8999 57.5808 14.0032 57.9008 14.2099C58.2208 14.4166 58.4708 14.7132 58.6508 15.0999C58.8375 15.4799 58.9308 15.9432 58.9308 16.4899C58.9308 17.0366 58.8375 17.5066 58.6508 17.8999C58.4642 18.2866 58.2075 18.5832 57.8808 18.7899C57.5608 18.9966 57.1942 19.0999 56.7808 19.0999C56.3408 19.0999 55.9742 18.9766 55.6808 18.7299C55.3942 18.4832 55.1975 18.1732 55.0908 17.7999L55.2208 17.5899V21.0999H53.8508ZM56.3808 18.0499C56.7475 18.0499 57.0342 17.9199 57.2408 17.6599C57.4542 17.3932 57.5608 17.0066 57.5608 16.4999C57.5608 15.9932 57.4575 15.6099 57.2508 15.3499C57.0508 15.0832 56.7675 14.9499 56.4008 14.9499C56.1675 14.9499 55.9608 15.0132 55.7808 15.1399C55.6075 15.2599 55.4708 15.4366 55.3708 15.6699C55.2708 15.8966 55.2208 16.1732 55.2208 16.4999C55.2208 16.8199 55.2675 17.0966 55.3608 17.3299C55.4542 17.5632 55.5875 17.7432 55.7608 17.8699C55.9408 17.9899 56.1475 18.0499 56.3808 18.0499Z" fill="black"/>
<path d="M47.3231 19.0999C46.7965 19.0999 46.3365 18.9966 45.9431 18.7899C45.5565 18.5832 45.2565 18.2866 45.0431 17.8999C44.8298 17.5132 44.7231 17.0466 44.7231 16.4999C44.7231 15.9532 44.8298 15.4866 45.0431 15.0999C45.2565 14.7132 45.5531 14.4166 45.9331 14.2099C46.3198 14.0032 46.7598 13.8999 47.2531 13.8999C47.7598 13.8999 48.1898 14.0032 48.5431 14.2099C48.8965 14.4099 49.1665 14.6866 49.3531 15.0399C49.5398 15.3866 49.6331 15.7832 49.6331 16.2299C49.6331 16.3632 49.6298 16.4899 49.6231 16.6099C49.6165 16.7299 49.6065 16.8366 49.5931 16.9299H45.6031V15.9799H48.9931L48.3331 16.2199C48.3331 15.7999 48.2365 15.4766 48.0431 15.2499C47.8565 15.0232 47.5898 14.9099 47.2431 14.9099C46.9898 14.9099 46.7698 14.9699 46.5831 15.0899C46.4031 15.2099 46.2665 15.3899 46.1731 15.6299C46.0798 15.8632 46.0331 16.1599 46.0331 16.5199C46.0331 16.8732 46.0831 17.1666 46.1831 17.3999C46.2898 17.6266 46.4365 17.7966 46.6231 17.9099C46.8165 18.0232 47.0465 18.0799 47.3131 18.0799C47.6065 18.0799 47.8431 18.0232 48.0231 17.9099C48.2031 17.7966 48.3431 17.6399 48.4431 17.4399L49.5331 17.8599C49.4265 18.1199 49.2631 18.3432 49.0431 18.5299C48.8298 18.7166 48.5731 18.8599 48.2731 18.9599C47.9798 19.0532 47.6631 19.0999 47.3231 19.0999Z" fill="black"/>
<path d="M41.7103 19.0999C41.2036 19.0999 40.7403 19.0099 40.3203 18.8299C39.907 18.6499 39.5703 18.3966 39.3103 18.0699L40.1003 17.2699C40.2603 17.5099 40.4736 17.7066 40.7403 17.8599C41.007 18.0132 41.3236 18.0899 41.6903 18.0899C41.9503 18.0899 42.157 18.0532 42.3103 17.9799C42.4703 17.8999 42.5503 17.7766 42.5503 17.6099C42.5503 17.5032 42.5136 17.4132 42.4403 17.3399C42.367 17.2599 42.2203 17.1966 42.0003 17.1499L41.1203 16.9699C40.5403 16.8499 40.127 16.6699 39.8803 16.4299C39.6403 16.1832 39.5203 15.8666 39.5203 15.4799C39.5203 15.2066 39.6003 14.9499 39.7603 14.7099C39.927 14.4699 40.1736 14.2766 40.5003 14.1299C40.827 13.9766 41.2336 13.8999 41.7203 13.8999C42.2203 13.8999 42.6536 13.9799 43.0203 14.1399C43.3936 14.2932 43.687 14.5232 43.9003 14.8299L43.0803 15.6299C42.9336 15.3966 42.7403 15.2199 42.5003 15.0999C42.267 14.9732 42.0203 14.9099 41.7603 14.9099C41.5736 14.9099 41.4136 14.9299 41.2803 14.9699C41.147 15.0099 41.047 15.0666 40.9803 15.1399C40.9136 15.2066 40.8803 15.2932 40.8803 15.3999C40.8803 15.5066 40.927 15.5999 41.0203 15.6799C41.1136 15.7532 41.2836 15.8166 41.5303 15.8699L42.5503 16.0799C43.0436 16.1799 43.397 16.3499 43.6103 16.5899C43.8236 16.8232 43.9303 17.1066 43.9303 17.4399C43.9303 17.7599 43.8436 18.0466 43.6703 18.2999C43.5036 18.5466 43.2536 18.7432 42.9203 18.8899C42.5936 19.0299 42.1903 19.0999 41.7103 19.0999Z" fill="black"/>
<path d="M36.0038 13.8999C36.5105 13.8999 36.9538 14.0032 37.3338 14.2099C37.7205 14.4166 38.0205 14.7132 38.2338 15.0999C38.4538 15.4866 38.5638 15.9532 38.5638 16.4999C38.5638 17.0399 38.4538 17.5066 38.2338 17.8999C38.0205 18.2866 37.7205 18.5832 37.3338 18.7899C36.9538 18.9966 36.5105 19.0999 36.0038 19.0999C35.5038 19.0999 35.0605 18.9966 34.6738 18.7899C34.2872 18.5832 33.9838 18.2866 33.7638 17.8999C33.5505 17.5066 33.4438 17.0399 33.4438 16.4999C33.4438 15.9532 33.5505 15.4866 33.7638 15.0999C33.9838 14.7132 34.2872 14.4166 34.6738 14.2099C35.0605 14.0032 35.5038 13.8999 36.0038 13.8999ZM36.0038 14.9199C35.7505 14.9199 35.5338 14.9799 35.3538 15.0999C35.1805 15.2132 35.0472 15.3866 34.9538 15.6199C34.8605 15.8532 34.8138 16.1466 34.8138 16.4999C34.8138 16.8532 34.8605 17.1466 34.9538 17.3799C35.0472 17.6132 35.1805 17.7899 35.3538 17.9099C35.5338 18.0232 35.7505 18.0799 36.0038 18.0799C36.2505 18.0799 36.4605 18.0232 36.6338 17.9099C36.8138 17.7899 36.9505 17.6132 37.0438 17.3799C37.1372 17.1466 37.1838 16.8532 37.1838 16.4999C37.1838 16.1466 37.1372 15.8532 37.0438 15.6199C36.9505 15.3866 36.8138 15.2132 36.6338 15.0999C36.4605 14.9799 36.2505 14.9199 36.0038 14.9199Z" fill="black"/>
<path d="M30.0175 13.8999C30.5242 13.8999 30.9675 14.0032 31.3475 14.2099C31.7342 14.4166 32.0342 14.7132 32.2475 15.0999C32.4675 15.4866 32.5775 15.9532 32.5775 16.4999C32.5775 17.0399 32.4675 17.5066 32.2475 17.8999C32.0342 18.2866 31.7342 18.5832 31.3475 18.7899C30.9675 18.9966 30.5242 19.0999 30.0175 19.0999C29.5175 19.0999 29.0742 18.9966 28.6875 18.7899C28.3009 18.5832 27.9975 18.2866 27.7775 17.8999C27.5642 17.5066 27.4575 17.0399 27.4575 16.4999C27.4575 15.9532 27.5642 15.4866 27.7775 15.0999C27.9975 14.7132 28.3009 14.4166 28.6875 14.2099C29.0742 14.0032 29.5175 13.8999 30.0175 13.8999ZM30.0175 14.9199C29.7642 14.9199 29.5475 14.9799 29.3675 15.0999C29.1942 15.2132 29.0609 15.3866 28.9675 15.6199C28.8742 15.8532 28.8275 16.1466 28.8275 16.4999C28.8275 16.8532 28.8742 17.1466 28.9675 17.3799C29.0609 17.6132 29.1942 17.7899 29.3675 17.9099C29.5475 18.0232 29.7642 18.0799 30.0175 18.0799C30.2642 18.0799 30.4742 18.0232 30.6475 17.9099C30.8275 17.7899 30.9642 17.6132 31.0575 17.3799C31.1509 17.1466 31.1975 16.8532 31.1975 16.4999C31.1975 16.1466 31.1509 15.8532 31.0575 15.6199C30.9642 15.3866 30.8275 15.2132 30.6475 15.0999C30.4742 14.9799 30.2642 14.9199 30.0175 14.9199Z" fill="black"/>
<path d="M21.5461 19.0001V11.8101H22.9161V14.8501C23.0761 14.5301 23.2961 14.2934 23.5761 14.1401C23.8561 13.9801 24.1728 13.9001 24.5261 13.9001C24.8728 13.9001 25.1795 13.9667 25.4461 14.1001C25.7195 14.2334 25.9328 14.4367 26.0861 14.7101C26.2461 14.9767 26.3261 15.3134 26.3261 15.7201V19.0001H24.9561V16.1201C24.9561 15.6867 24.8728 15.3901 24.7061 15.2301C24.5395 15.0634 24.3261 14.9801 24.0661 14.9801C23.8728 14.9801 23.6861 15.0267 23.5061 15.1201C23.3328 15.2067 23.1895 15.3534 23.0761 15.5601C22.9695 15.7601 22.9161 16.0267 22.9161 16.3601V19.0001H21.5461Z" fill="black"/>
<path d="M20.51 17.18C20.3834 17.6067 20.1834 17.9634 19.91 18.25C19.6367 18.5367 19.3134 18.75 18.94 18.89C18.5667 19.03 18.1567 19.1 17.71 19.1C17.0567 19.1 16.49 18.9634 16.01 18.69C15.5367 18.4167 15.17 18.0267 14.91 17.52C14.6567 17.0134 14.53 16.4067 14.53 15.7C14.53 14.9934 14.6567 14.3867 14.91 13.88C15.17 13.3734 15.5367 12.9834 16.01 12.71C16.49 12.4367 17.05 12.3 17.69 12.3C18.1434 12.3 18.5534 12.3634 18.92 12.49C19.2867 12.61 19.5967 12.7967 19.85 13.05C20.11 13.3034 20.3 13.6234 20.42 14.01L19.17 14.54C19.0567 14.14 18.8834 13.8567 18.65 13.69C18.4167 13.5167 18.1167 13.43 17.75 13.43C17.39 13.43 17.0734 13.5167 16.8 13.69C16.5334 13.8634 16.3267 14.12 16.18 14.46C16.0334 14.7934 15.96 15.2067 15.96 15.7C15.96 16.1867 16.0267 16.6 16.16 16.94C16.3 17.28 16.5034 17.5367 16.77 17.71C17.0367 17.8834 17.3634 17.97 17.75 17.97C18.11 17.97 18.42 17.8734 18.68 17.68C18.9467 17.4867 19.1334 17.1934 19.24 16.8L20.51 17.18Z" fill="black"/>
</svg>
