<svg width="39" height="10" viewBox="0 0 39 10" fill="none" xmlns="http://www.w3.org/2000/svg">
<path d="M34.5944 9.52C33.4091 9.52 32.4944 9.11867 31.8504 8.316C31.2158 7.51333 30.8984 6.328 30.8984 4.76C30.8984 3.192 31.2158 2.00667 31.8504 1.204C32.4944 0.401333 33.4091 0 34.5944 0C35.7798 0 36.6898 0.401333 37.3244 1.204C37.9684 2.00667 38.2904 3.192 38.2904 4.76C38.2904 6.328 37.9684 7.51333 37.3244 8.316C36.6898 9.11867 35.7798 9.52 34.5944 9.52ZM34.5944 7.966C34.9958 7.966 35.3224 7.854 35.5744 7.63C35.8358 7.39667 36.0318 7.04667 36.1624 6.58C36.2931 6.104 36.3584 5.49733 36.3584 4.76C36.3584 4.02267 36.2931 3.42067 36.1624 2.954C36.0318 2.478 35.8358 2.128 35.5744 1.904C35.3224 1.67067 34.9958 1.554 34.5944 1.554C34.1931 1.554 33.8618 1.67067 33.6004 1.904C33.3391 2.128 33.1431 2.478 33.0124 2.954C32.8911 3.42067 32.8304 4.02267 32.8304 4.76C32.8304 5.49733 32.8911 6.104 33.0124 6.58C33.1431 7.04667 33.3391 7.39667 33.6004 7.63C33.8618 7.854 34.1931 7.966 34.5944 7.966Z" fill="white"/>
<path d="M25.694 9.52C24.5087 9.52 23.594 9.11867 22.95 8.316C22.3154 7.51333 21.998 6.328 21.998 4.76C21.998 3.192 22.3154 2.00667 22.95 1.204C23.594 0.401333 24.5087 0 25.694 0C26.8794 0 27.7894 0.401333 28.424 1.204C29.068 2.00667 29.39 3.192 29.39 4.76C29.39 6.328 29.068 7.51333 28.424 8.316C27.7894 9.11867 26.8794 9.52 25.694 9.52ZM25.694 7.966C26.0954 7.966 26.422 7.854 26.674 7.63C26.9354 7.39667 27.1314 7.04667 27.262 6.58C27.3927 6.104 27.458 5.49733 27.458 4.76C27.458 4.02267 27.3927 3.42067 27.262 2.954C27.1314 2.478 26.9354 2.128 26.674 1.904C26.422 1.67067 26.0954 1.554 25.694 1.554C25.2927 1.554 24.9614 1.67067 24.7 1.904C24.4387 2.128 24.2427 2.478 24.112 2.954C23.9907 3.42067 23.93 4.02267 23.93 4.76C23.93 5.49733 23.9907 6.104 24.112 6.58C24.2427 7.04667 24.4387 7.39667 24.7 7.63C24.9614 7.854 25.2927 7.966 25.694 7.966Z" fill="white"/>
<path d="M19.1448 2.23975C19.5182 2.23975 19.8122 2.34241 20.0268 2.54775C20.2508 2.75308 20.3628 3.02841 20.3628 3.37375C20.3628 3.72841 20.2508 4.00841 20.0268 4.21375C19.8122 4.40975 19.5182 4.50775 19.1448 4.50775C18.7715 4.50775 18.4728 4.40975 18.2488 4.21375C18.0342 4.00841 17.9268 3.72841 17.9268 3.37375C17.9268 3.02841 18.0342 2.75308 18.2488 2.54775C18.4728 2.34241 18.7715 2.23975 19.1448 2.23975ZM19.1448 7.23775C19.5182 7.23775 19.8122 7.34041 20.0268 7.54575C20.2508 7.75108 20.3628 8.02641 20.3628 8.37175C20.3628 8.72641 20.2508 9.00641 20.0268 9.21175C19.8122 9.40775 19.5182 9.50575 19.1448 9.50575C18.7715 9.50575 18.4728 9.40775 18.2488 9.21175C18.0342 9.00641 17.9268 8.72641 17.9268 8.37175C17.9268 8.02641 18.0342 7.75108 18.2488 7.54575C18.4728 7.34041 18.7715 7.23775 19.1448 7.23775Z" fill="white"/>
<path d="M12.5964 9.52C11.4111 9.52 10.4964 9.11867 9.85239 8.316C9.21772 7.51333 8.90039 6.328 8.90039 4.76C8.90039 3.192 9.21772 2.00667 9.85239 1.204C10.4964 0.401333 11.4111 0 12.5964 0C13.7817 0 14.6917 0.401333 15.3264 1.204C15.9704 2.00667 16.2924 3.192 16.2924 4.76C16.2924 6.328 15.9704 7.51333 15.3264 8.316C14.6917 9.11867 13.7817 9.52 12.5964 9.52ZM12.5964 7.966C12.9977 7.966 13.3244 7.854 13.5764 7.63C13.8377 7.39667 14.0337 7.04667 14.1644 6.58C14.2951 6.104 14.3604 5.49733 14.3604 4.76C14.3604 4.02267 14.2951 3.42067 14.1644 2.954C14.0337 2.478 13.8377 2.128 13.5764 1.904C13.3244 1.67067 12.9977 1.554 12.5964 1.554C12.1951 1.554 11.8637 1.67067 11.6024 1.904C11.3411 2.128 11.1451 2.478 11.0144 2.954C10.8931 3.42067 10.8324 4.02267 10.8324 4.76C10.8324 5.49733 10.8931 6.104 11.0144 6.58C11.1451 7.04667 11.3411 7.39667 11.6024 7.63C11.8637 7.854 12.1951 7.966 12.5964 7.966Z" fill="white"/>
<path d="M3.696 9.52C2.51067 9.52 1.596 9.11867 0.952 8.316C0.317333 7.51333 0 6.328 0 4.76C0 3.192 0.317333 2.00667 0.952 1.204C1.596 0.401333 2.51067 0 3.696 0C4.88133 0 5.79133 0.401333 6.426 1.204C7.07 2.00667 7.392 3.192 7.392 4.76C7.392 6.328 7.07 7.51333 6.426 8.316C5.79133 9.11867 4.88133 9.52 3.696 9.52ZM3.696 7.966C4.09733 7.966 4.424 7.854 4.676 7.63C4.93733 7.39667 5.13333 7.04667 5.264 6.58C5.39467 6.104 5.46 5.49733 5.46 4.76C5.46 4.02267 5.39467 3.42067 5.264 2.954C5.13333 2.478 4.93733 2.128 4.676 1.904C4.424 1.67067 4.09733 1.554 3.696 1.554C3.29467 1.554 2.96333 1.67067 2.702 1.904C2.44067 2.128 2.24467 2.478 2.114 2.954C1.99267 3.42067 1.932 4.02267 1.932 4.76C1.932 5.49733 1.99267 6.104 2.114 6.58C2.24467 7.04667 2.44067 7.39667 2.702 7.63C2.96333 7.854 3.29467 7.966 3.696 7.966Z" fill="white"/>
</svg>
