<svg width="78" height="19" viewBox="0 0 78 19" fill="none" xmlns="http://www.w3.org/2000/svg">
<path d="M77.0651 2L77.3851 3.96C77.3317 3.96 77.2717 3.96 77.2051 3.96C77.1517 3.94667 77.0917 3.94 77.0251 3.94C76.4117 3.94 75.9517 4.08 75.6451 4.36C75.3384 4.62667 75.1851 5 75.1851 5.48L74.0651 5.02C74.0651 4.48667 74.1717 3.99333 74.3851 3.54C74.5984 3.07333 74.9117 2.7 75.3251 2.42C75.7517 2.14 76.2584 2 76.8451 2C76.8717 2 76.9051 2 76.9451 2C76.9851 2 77.0251 2 77.0651 2ZM73.7851 12.5C74.8651 12.5 75.6984 12.7333 76.2851 13.2C76.8717 13.6667 77.1651 14.32 77.1651 15.16C77.1651 15.92 76.9451 16.56 76.5051 17.08C76.0651 17.6133 75.4451 18.0133 74.6451 18.28C73.8584 18.5467 72.9451 18.68 71.9051 18.68C70.1851 18.68 68.9251 18.44 68.1251 17.96C67.3384 17.48 66.9451 16.8533 66.9451 16.08C66.9451 15.5333 67.1517 15.0733 67.5651 14.7C67.9917 14.3267 68.6917 14.12 69.6651 14.08L69.5651 14.4C68.8717 14.28 68.3384 14.0533 67.9651 13.72C67.6051 13.3733 67.4251 12.9 67.4251 12.3C67.4251 11.6867 67.6584 11.1867 68.1251 10.8C68.6051 10.4 69.2517 10.1667 70.0651 10.1L71.2651 10.66H70.9851C70.4117 10.7 70.0051 10.82 69.7651 11.02C69.5384 11.2067 69.4251 11.42 69.4251 11.66C69.4251 11.94 69.5317 12.1533 69.7451 12.3C69.9717 12.4333 70.2917 12.5 70.7051 12.5H73.7851ZM71.9251 16.8C72.6184 16.8 73.1851 16.74 73.6251 16.62C74.0784 16.5 74.4117 16.3467 74.6251 16.16C74.8517 15.9733 74.9651 15.7667 74.9651 15.54C74.9651 15.2867 74.8651 15.08 74.6651 14.92C74.4651 14.7733 74.1051 14.7 73.5851 14.7H70.2051C69.8851 14.7 69.6184 14.78 69.4051 14.94C69.2051 15.1 69.1051 15.32 69.1051 15.6C69.1051 15.9733 69.3517 16.2667 69.8451 16.48C70.3517 16.6933 71.0451 16.8 71.9251 16.8ZM71.9451 4.18C72.8784 4.18 73.6851 4.32 74.3651 4.6C75.0584 4.86667 75.5851 5.25333 75.9451 5.76C76.3184 6.26667 76.5051 6.87333 76.5051 7.58C76.5051 8.27333 76.3184 8.87333 75.9451 9.38C75.5851 9.88667 75.0584 10.28 74.3651 10.56C73.6851 10.8267 72.8784 10.96 71.9451 10.96C70.4651 10.96 69.3317 10.66 68.5451 10.06C67.7717 9.44667 67.3851 8.62 67.3851 7.58C67.3851 6.87333 67.5651 6.26667 67.9251 5.76C68.2984 5.25333 68.8251 4.86667 69.5051 4.6C70.1851 4.32 70.9984 4.18 71.9451 4.18ZM71.9451 5.9C71.4117 5.9 70.9717 6.04667 70.6251 6.34C70.2784 6.63333 70.1051 7.04 70.1051 7.56C70.1051 8.08 70.2784 8.49333 70.6251 8.8C70.9717 9.09333 71.4117 9.24 71.9451 9.24C72.4784 9.24 72.9117 9.09333 73.2451 8.8C73.5917 8.49333 73.7651 8.08 73.7651 7.56C73.7651 7.04 73.5917 6.63333 73.2451 6.34C72.9117 6.04667 72.4784 5.9 71.9451 5.9Z" fill="black"/>
<path d="M55.4622 14.3797V4.37969H57.9222L58.0822 7.37969L57.7422 7.05969C57.9022 6.40635 58.1556 5.86635 58.5022 5.43969C58.8489 5.01302 59.2689 4.69969 59.7622 4.49969C60.2689 4.28635 60.8222 4.17969 61.4222 4.17969C62.1156 4.17969 62.7289 4.31302 63.2622 4.57969C63.8089 4.84635 64.2356 5.25302 64.5422 5.79969C64.8622 6.33302 65.0222 7.00635 65.0222 7.81969V14.3797H62.2822V8.59969C62.2822 7.74636 62.1156 7.15969 61.7822 6.83969C61.4489 6.50635 61.0156 6.33969 60.4822 6.33969C60.1089 6.33969 59.7422 6.43302 59.3822 6.61969C59.0356 6.79302 58.7489 7.07969 58.5222 7.47969C58.3089 7.87969 58.2022 8.41302 58.2022 9.07969V14.3797H55.4622Z" fill="black"/>
<path d="M51.1977 2.94C50.6243 2.94 50.1977 2.82 49.9177 2.58C49.6377 2.32667 49.4977 1.96 49.4977 1.48C49.4977 0.986667 49.6377 0.62 49.9177 0.38C50.1977 0.126667 50.6243 0 51.1977 0C51.771 0 52.1977 0.126667 52.4777 0.38C52.7577 0.62 52.8977 0.986667 52.8977 1.48C52.8977 1.96 52.7577 2.32667 52.4777 2.58C52.1977 2.82 51.771 2.94 51.1977 2.94ZM52.5577 4.38V14.38H49.8177V4.38H52.5577Z" fill="black"/>
<path d="M41.0586 14.58C40.232 14.58 39.492 14.3733 38.8386 13.96C38.1986 13.5467 37.692 12.9533 37.3186 12.18C36.9586 11.4067 36.7786 10.48 36.7786 9.4C36.7786 8.29333 36.972 7.35333 37.3586 6.58C37.7453 5.79333 38.2653 5.2 38.9186 4.8C39.5853 4.38667 40.332 4.18 41.1586 4.18C42.0386 4.18 42.7653 4.43333 43.3386 4.94C43.912 5.44667 44.2853 6.1 44.4586 6.9L44.1986 7.22V0H46.9386V14.38H44.4786L44.2986 11.34L44.6386 11.5C44.5453 12.1267 44.332 12.6733 43.9986 13.14C43.6653 13.5933 43.2453 13.9467 42.7386 14.2C42.232 14.4533 41.672 14.58 41.0586 14.58ZM41.8586 12.48C42.3386 12.48 42.752 12.36 43.0986 12.12C43.4453 11.8667 43.712 11.5 43.8986 11.02C44.0986 10.54 44.1986 9.96667 44.1986 9.3C44.1986 8.66 44.1053 8.12 43.9186 7.68C43.732 7.22667 43.4653 6.88 43.1186 6.64C42.772 6.4 42.3653 6.28 41.8986 6.28C41.152 6.28 40.5653 6.54667 40.1386 7.08C39.7253 7.6 39.5186 8.36667 39.5186 9.38C39.5186 10.3933 39.7253 11.1667 40.1386 11.7C40.552 12.22 41.1253 12.48 41.8586 12.48Z" fill="black"/>
<path d="M28.5196 14.58C27.6929 14.58 26.9529 14.3733 26.2996 13.96C25.6596 13.5467 25.1529 12.9533 24.7796 12.18C24.4196 11.4067 24.2396 10.48 24.2396 9.4C24.2396 8.29333 24.4329 7.35333 24.8196 6.58C25.2062 5.79333 25.7262 5.2 26.3796 4.8C27.0462 4.38667 27.7929 4.18 28.6196 4.18C29.4996 4.18 30.2262 4.43333 30.7996 4.94C31.3729 5.44667 31.7462 6.1 31.9196 6.9L31.6596 7.22V0H34.3996V14.38H31.9396L31.7596 11.34L32.0996 11.5C32.0062 12.1267 31.7929 12.6733 31.4596 13.14C31.1262 13.5933 30.7062 13.9467 30.1996 14.2C29.6929 14.4533 29.1329 14.58 28.5196 14.58ZM29.3196 12.48C29.7996 12.48 30.2129 12.36 30.5596 12.12C30.9062 11.8667 31.1729 11.5 31.3596 11.02C31.5596 10.54 31.6596 9.96667 31.6596 9.3C31.6596 8.66 31.5662 8.12 31.3796 7.68C31.1929 7.22667 30.9262 6.88 30.5796 6.64C30.2329 6.4 29.8262 6.28 29.3596 6.28C28.6129 6.28 28.0262 6.54667 27.5996 7.08C27.1862 7.6 26.9796 8.36667 26.9796 9.38C26.9796 10.3933 27.1862 11.1667 27.5996 11.7C28.0129 12.22 28.5862 12.48 29.3196 12.48Z" fill="black"/>
<path d="M17.7975 14.5797C16.7442 14.5797 15.8242 14.373 15.0375 13.9597C14.2642 13.5464 13.6642 12.953 13.2375 12.1797C12.8109 11.4064 12.5975 10.473 12.5975 9.37969C12.5975 8.28635 12.8109 7.35302 13.2375 6.57969C13.6642 5.80635 14.2575 5.21302 15.0175 4.79969C15.7909 4.38635 16.6709 4.17969 17.6575 4.17969C18.6709 4.17969 19.5309 4.38635 20.2375 4.79969C20.9442 5.19969 21.4842 5.75302 21.8575 6.45969C22.2309 7.15302 22.4175 7.94635 22.4175 8.83969C22.4175 9.10636 22.4109 9.35969 22.3975 9.59969C22.3842 9.83969 22.3642 10.053 22.3375 10.2397H14.3575V8.33969H21.1375L19.8175 8.81969C19.8175 7.97969 19.6242 7.33302 19.2375 6.87969C18.8642 6.42635 18.3309 6.19969 17.6375 6.19969C17.1309 6.19969 16.6909 6.31969 16.3175 6.55969C15.9575 6.79969 15.6842 7.15969 15.4975 7.63969C15.3109 8.10636 15.2175 8.69969 15.2175 9.41969C15.2175 10.1264 15.3175 10.713 15.5175 11.1797C15.7309 11.633 16.0242 11.973 16.3975 12.1997C16.7842 12.4264 17.2442 12.5397 17.7775 12.5397C18.3642 12.5397 18.8375 12.4264 19.1975 12.1997C19.5575 11.973 19.8375 11.6597 20.0375 11.2597L22.2175 12.0997C22.0042 12.6197 21.6775 13.0664 21.2375 13.4397C20.8109 13.813 20.2975 14.0997 19.6975 14.2997C19.1109 14.4864 18.4775 14.5797 17.7975 14.5797Z" fill="black"/>
<path d="M0 14.3797V1.17969H5.78C7.38 1.17969 8.56 1.49302 9.32 2.11969C10.08 2.74635 10.46 3.63302 10.46 4.77969C10.46 5.48635 10.2467 6.11302 9.82 6.65969C9.39333 7.20635 8.76667 7.55302 7.94 7.69969V7.71969C8.86 7.85302 9.56667 8.19969 10.06 8.75969C10.5533 9.31969 10.8 9.98635 10.8 10.7597C10.8 11.893 10.3867 12.7797 9.56 13.4197C8.74667 14.0597 7.55333 14.3797 5.98 14.3797H0ZM2.68 12.2997H5.74C6.48667 12.2997 7.04 12.1464 7.4 11.8397C7.76 11.533 7.94 11.1064 7.94 10.5597C7.94 9.99969 7.76 9.57302 7.4 9.27969C7.04 8.98635 6.48667 8.83969 5.74 8.83969H2.68V12.2997ZM2.68 6.71969H5.42C6.87333 6.71969 7.6 6.15302 7.6 5.01969C7.6 3.88635 6.87333 3.31969 5.42 3.31969H2.68V6.71969Z" fill="black"/>
</svg>
