<svg width="296" height="50" viewBox="0 0 296 50" fill="none" xmlns="http://www.w3.org/2000/svg">
<path d="M0 0H296V50H0V0Z" fill="white"/>
<path d="M105.826 33.2C104.773 33.2 103.853 32.9934 103.066 32.58C102.293 32.1667 101.693 31.5734 101.266 30.8C100.839 30.0267 100.626 29.0934 100.626 28C100.626 26.9067 100.839 25.9734 101.266 25.2C101.693 24.4267 102.286 23.8334 103.046 23.42C103.819 23.0067 104.699 22.8 105.686 22.8C106.699 22.8 107.559 23.0067 108.266 23.42C108.973 23.82 109.513 24.3734 109.886 25.08C110.259 25.7734 110.446 26.5667 110.446 27.46C110.446 27.7267 110.439 27.9801 110.426 28.22C110.413 28.46 110.393 28.6734 110.366 28.86H102.386V26.96H109.166L107.846 27.44C107.846 26.6 107.653 25.9534 107.266 25.5C106.893 25.0467 106.359 24.82 105.666 24.82C105.159 24.82 104.719 24.94 104.346 25.18C103.986 25.42 103.713 25.78 103.526 26.26C103.339 26.7267 103.246 27.32 103.246 28.04C103.246 28.7467 103.346 29.3334 103.546 29.8C103.759 30.2534 104.053 30.5934 104.426 30.82C104.813 31.0467 105.273 31.16 105.806 31.16C106.393 31.16 106.866 31.0467 107.226 30.82C107.586 30.5934 107.866 30.28 108.066 29.88L110.246 30.72C110.033 31.2401 109.706 31.6867 109.266 32.0601C108.839 32.4334 108.326 32.72 107.726 32.92C107.139 33.1067 106.506 33.2 105.826 33.2Z" fill="black"/>
<path d="M92.9439 33V23H95.3239L95.5039 24.96C95.7706 24.2667 96.1572 23.7334 96.6639 23.36C97.1839 22.9867 97.8306 22.8 98.6039 22.8C98.8306 22.8 99.0372 22.82 99.2239 22.86C99.4106 22.9 99.5639 22.9534 99.6839 23.02L99.3639 25.32C99.2306 25.2667 99.0639 25.2267 98.8639 25.2C98.6772 25.1734 98.4306 25.16 98.1239 25.16C97.7239 25.16 97.3372 25.26 96.9639 25.46C96.5906 25.6467 96.2839 25.94 96.0439 26.34C95.8039 26.7267 95.6839 27.22 95.6839 27.82V33H92.9439Z" fill="black"/>
<path d="M84.0606 33.2C83.394 33.2 82.794 33.08 82.2606 32.84C81.7273 32.6 81.3006 32.22 80.9806 31.7C80.674 31.1667 80.5206 30.48 80.5206 29.64V23H83.2606V28.98C83.2606 29.7533 83.4206 30.2933 83.7406 30.6C84.0606 30.8933 84.5206 31.04 85.1206 31.04C85.4006 31.04 85.674 30.9933 85.9406 30.9C86.2073 30.7933 86.4406 30.6333 86.6406 30.42C86.854 30.2067 87.0206 29.9333 87.1406 29.6C87.2606 29.2533 87.3206 28.8467 87.3206 28.38V23H90.0606V33H87.6206L87.5206 31.26C87.1873 31.9267 86.7273 32.42 86.1406 32.74C85.5673 33.0467 84.874 33.2 84.0606 33.2Z" fill="black"/>
<path d="M75.5269 19.9399V29.7399C75.5269 30.2199 75.6469 30.5733 75.8869 30.7999C76.1402 31.0133 76.4802 31.1199 76.9069 31.1199C77.2402 31.1199 77.5335 31.0733 77.7869 30.9799C78.0402 30.8733 78.2669 30.7333 78.4669 30.5599L78.9069 32.3799C78.5869 32.6333 78.1869 32.8333 77.7069 32.9799C77.2269 33.1266 76.7202 33.1999 76.1869 33.1999C75.5202 33.1999 74.9269 33.0999 74.4069 32.8999C73.9002 32.6999 73.5002 32.3799 73.2069 31.9399C72.9269 31.4999 72.7869 30.9133 72.7869 30.1799V20.6999L75.5269 19.9399ZM78.7269 22.9999V25.0399H70.9469V22.9999H78.7269Z" fill="black"/>
<path d="M67.7223 21.5601C67.149 21.5601 66.7223 21.4401 66.4423 21.2001C66.1623 20.9468 66.0223 20.5801 66.0223 20.1001C66.0223 19.6068 66.1623 19.2401 66.4423 19.0001C66.7223 18.7468 67.149 18.6201 67.7223 18.6201C68.2957 18.6201 68.7223 18.7468 69.0023 19.0001C69.2823 19.2401 69.4223 19.6068 69.4223 20.1001C69.4223 20.5801 69.2823 20.9468 69.0023 21.2001C68.7223 21.4401 68.2957 21.5601 67.7223 21.5601ZM69.0823 23.0001V33.0001H66.3423V23.0001H69.0823Z" fill="black"/>
<path d="M53.9595 33V23H56.4195L56.5795 26L56.2395 25.68C56.3995 25.0267 56.6529 24.4867 56.9995 24.06C57.3462 23.6334 57.7662 23.32 58.2595 23.12C58.7662 22.9067 59.3195 22.8 59.9195 22.8C60.6129 22.8 61.2262 22.9334 61.7595 23.2C62.3062 23.4667 62.7329 23.8734 63.0395 24.42C63.3595 24.9534 63.5195 25.6267 63.5195 26.44V33H60.7795V27.22C60.7795 26.3667 60.6129 25.78 60.2795 25.46C59.9462 25.1267 59.5129 24.96 58.9795 24.96C58.6062 24.96 58.2395 25.0534 57.8795 25.24C57.5329 25.4134 57.2462 25.7 57.0195 26.1C56.8062 26.5 56.6995 27.0334 56.6995 27.7V33H53.9595Z" fill="black"/>
<path d="M45.522 33V23H47.902L48.082 24.96C48.3487 24.2667 48.7354 23.7334 49.242 23.36C49.762 22.9867 50.4087 22.8 51.182 22.8C51.4087 22.8 51.6154 22.82 51.802 22.86C51.9887 22.9 52.142 22.9534 52.262 23.02L51.942 25.32C51.8087 25.2667 51.642 25.2267 51.442 25.2C51.2554 25.1734 51.0087 25.16 50.702 25.16C50.302 25.16 49.9154 25.26 49.542 25.46C49.1687 25.6467 48.862 25.94 48.622 26.34C48.382 26.7267 48.262 27.22 48.262 27.82V33H45.522Z" fill="black"/>
<path d="M36.6388 33.2C35.9721 33.2 35.3721 33.08 34.8388 32.84C34.3054 32.6 33.8788 32.22 33.5588 31.7C33.2521 31.1667 33.0988 30.48 33.0988 29.64V23H35.8388V28.98C35.8388 29.7533 35.9988 30.2933 36.3188 30.6C36.6388 30.8933 37.0988 31.04 37.6988 31.04C37.9788 31.04 38.2521 30.9933 38.5188 30.9C38.7854 30.7933 39.0188 30.6333 39.2188 30.42C39.4321 30.2067 39.5988 29.9333 39.7188 29.6C39.8388 29.2533 39.8988 28.8467 39.8988 28.38V23H42.6388V33H40.1988L40.0988 31.26C39.7654 31.9267 39.3054 32.42 38.7188 32.74C38.1454 33.0467 37.4521 33.2 36.6388 33.2Z" fill="black"/>
<path d="M31.6 22.02H24.48V25.38H30.1V27.6H24.48V33H21.72V19.8H31.6V22.02Z" fill="black"/>
</svg>
