<svg width="50" height="14" viewBox="0 0 50 14" fill="none" xmlns="http://www.w3.org/2000/svg">
<path d="M45.1393 10.935C44.5193 10.935 43.9643 10.78 43.4743 10.47C42.9943 10.16 42.6143 9.715 42.3343 9.135C42.0643 8.555 41.9293 7.86 41.9293 7.05C41.9293 6.22 42.0743 5.515 42.3643 4.935C42.6543 4.345 43.0443 3.9 43.5343 3.6C44.0343 3.29 44.5943 3.135 45.2143 3.135C45.8743 3.135 46.4193 3.325 46.8493 3.705C47.2793 4.085 47.5593 4.575 47.6893 5.175L47.4943 5.415V0H49.5493V10.785H47.7043L47.5693 8.505L47.8243 8.625C47.7543 9.095 47.5943 9.505 47.3443 9.855C47.0943 10.195 46.7793 10.46 46.3993 10.65C46.0193 10.84 45.5993 10.935 45.1393 10.935ZM45.7393 9.36C46.0993 9.36 46.4093 9.27 46.6693 9.09C46.9293 8.9 47.1293 8.625 47.2693 8.265C47.4193 7.905 47.4943 7.475 47.4943 6.975C47.4943 6.495 47.4243 6.09 47.2843 5.76C47.1443 5.42 46.9443 5.16 46.6843 4.98C46.4243 4.8 46.1193 4.71 45.7693 4.71C45.2093 4.71 44.7693 4.91 44.4493 5.31C44.1393 5.7 43.9843 6.275 43.9843 7.035C43.9843 7.795 44.1393 8.375 44.4493 8.775C44.7593 9.165 45.1893 9.36 45.7393 9.36Z" fill="white"/>
<path d="M37.9954 6.00025C37.9954 5.57025 37.8704 5.23525 37.6204 4.99525C37.3804 4.75525 37.0604 4.63525 36.6604 4.63525C36.2904 4.63525 35.9654 4.73025 35.6854 4.92025C35.4054 5.11025 35.2004 5.42525 35.0704 5.86525L33.3154 5.32525C33.4854 4.66525 33.8554 4.13525 34.4254 3.73525C35.0054 3.33525 35.7804 3.13525 36.7504 3.13525C37.4104 3.13525 37.9854 3.24025 38.4754 3.45025C38.9654 3.65025 39.3454 3.95525 39.6154 4.36525C39.8954 4.77525 40.0354 5.29025 40.0354 5.91025V8.95525C40.0354 9.33525 40.2154 9.52525 40.5754 9.52525C40.7454 9.52525 40.9054 9.50025 41.0554 9.45025L40.9354 10.7253C40.6754 10.8553 40.3504 10.9203 39.9604 10.9203C39.6104 10.9203 39.2954 10.8603 39.0154 10.7403C38.7354 10.6203 38.5154 10.4403 38.3554 10.2003C38.1954 9.95025 38.1154 9.64025 38.1154 9.27025V9.21025L38.4754 9.15025C38.4154 9.53025 38.2504 9.85525 37.9804 10.1253C37.7104 10.3853 37.3804 10.5853 36.9904 10.7253C36.6104 10.8653 36.2154 10.9353 35.8054 10.9353C35.2954 10.9353 34.8554 10.8603 34.4854 10.7103C34.1154 10.5503 33.8304 10.3203 33.6304 10.0203C33.4304 9.72025 33.3304 9.35025 33.3304 8.91025C33.3304 8.35025 33.5104 7.89525 33.8704 7.54525C34.2304 7.18525 34.7454 6.94025 35.4154 6.81025L38.2354 6.24025L38.2204 7.51525L36.4204 7.87525C36.0804 7.94525 35.8204 8.04025 35.6404 8.16025C35.4704 8.27025 35.3854 8.45526 35.3854 8.71525C35.3854 8.96525 35.4754 9.15525 35.6554 9.28525C35.8454 9.41525 36.0704 9.48025 36.3304 9.48025C36.5404 9.48025 36.7454 9.45525 36.9454 9.40525C37.1454 9.35525 37.3254 9.27525 37.4854 9.16525C37.6454 9.05525 37.7704 8.90525 37.8604 8.71525C37.9504 8.52525 37.9954 8.29525 37.9954 8.02525V6.00025Z" fill="white"/>
<path d="M28.2049 3.13525C28.9649 3.13525 29.6299 3.29025 30.1999 3.60025C30.7799 3.91025 31.2299 4.35525 31.5499 4.93525C31.8799 5.51525 32.0449 6.21525 32.0449 7.03525C32.0449 7.84525 31.8799 8.54525 31.5499 9.13525C31.2299 9.71525 30.7799 10.1603 30.1999 10.4703C29.6299 10.7803 28.9649 10.9353 28.2049 10.9353C27.4549 10.9353 26.7899 10.7803 26.2099 10.4703C25.6299 10.1603 25.1749 9.71525 24.8449 9.13525C24.5249 8.54525 24.3649 7.84525 24.3649 7.03525C24.3649 6.21525 24.5249 5.51525 24.8449 4.93525C25.1749 4.35525 25.6299 3.91025 26.2099 3.60025C26.7899 3.29025 27.4549 3.13525 28.2049 3.13525ZM28.2049 4.66525C27.8249 4.66525 27.4999 4.75525 27.2299 4.93525C26.9699 5.10525 26.7699 5.36525 26.6299 5.71525C26.4899 6.06525 26.4199 6.50525 26.4199 7.03525C26.4199 7.56525 26.4899 8.00525 26.6299 8.35525C26.7699 8.70525 26.9699 8.97025 27.2299 9.15025C27.4999 9.32025 27.8249 9.40525 28.2049 9.40525C28.5749 9.40525 28.8899 9.32025 29.1499 9.15025C29.4199 8.97025 29.6249 8.70525 29.7649 8.35525C29.9049 8.00525 29.9749 7.56525 29.9749 7.03525C29.9749 6.50525 29.9049 6.06525 29.7649 5.71525C29.6249 5.36525 29.4199 5.10525 29.1499 4.93525C28.8899 4.75525 28.5749 4.66525 28.2049 4.66525Z" fill="white"/>
<path d="M22.0198 0V8.475C22.0198 8.825 22.0798 9.07 22.1998 9.21C22.3198 9.35 22.5198 9.42 22.7998 9.42C22.9698 9.42 23.1098 9.41 23.2198 9.39C23.3298 9.36 23.4698 9.32 23.6398 9.27L23.4598 10.62C23.2898 10.72 23.0748 10.795 22.8148 10.845C22.5648 10.905 22.3148 10.935 22.0648 10.935C21.3348 10.935 20.7998 10.76 20.4598 10.41C20.1298 10.05 19.9648 9.48 19.9648 8.7V0H22.0198Z" fill="white"/>
<path d="M10.5905 13.9353V3.28525H12.4355L12.5705 5.67025L12.3155 5.40025C12.4055 4.96025 12.5705 4.57025 12.8105 4.23025C13.0605 3.89025 13.3755 3.62525 13.7555 3.43525C14.1355 3.23525 14.5605 3.13525 15.0305 3.13525C15.6405 3.13525 16.1855 3.29025 16.6655 3.60025C17.1455 3.91025 17.5205 4.35525 17.7905 4.93525C18.0705 5.50525 18.2105 6.20025 18.2105 7.02025C18.2105 7.84025 18.0705 8.54525 17.7905 9.13525C17.5105 9.71525 17.1255 10.1603 16.6355 10.4703C16.1555 10.7803 15.6055 10.9353 14.9855 10.9353C14.3255 10.9353 13.7755 10.7503 13.3355 10.3803C12.9055 10.0103 12.6105 9.54525 12.4505 8.98525L12.6455 8.67025V13.9353H10.5905ZM14.3855 9.36025C14.9355 9.36025 15.3655 9.16525 15.6755 8.77525C15.9955 8.37525 16.1555 7.79525 16.1555 7.03525C16.1555 6.27525 16.0005 5.70025 15.6905 5.31025C15.3905 4.91025 14.9655 4.71025 14.4155 4.71025C14.0655 4.71025 13.7555 4.80525 13.4855 4.99525C13.2255 5.17525 13.0205 5.44025 12.8705 5.79025C12.7205 6.13025 12.6455 6.54525 12.6455 7.03525C12.6455 7.51525 12.7155 7.93025 12.8555 8.28025C12.9955 8.63025 13.1955 8.90025 13.4555 9.09025C13.7255 9.27025 14.0355 9.36025 14.3855 9.36025Z" fill="white"/>
<path d="M8.46 0.885254V6.88525C8.46 8.23525 8.1 9.25025 7.38 9.93025C6.66 10.6003 5.61 10.9353 4.23 10.9353C2.85 10.9353 1.8 10.6003 1.08 9.93025C0.36 9.25025 0 8.23525 0 6.88525V0.885254H2.07V6.79525C2.07 7.62525 2.245 8.24025 2.595 8.64025C2.955 9.04025 3.5 9.24025 4.23 9.24025C4.96 9.24025 5.5 9.04025 5.85 8.64025C6.2 8.24025 6.375 7.62525 6.375 6.79525V0.885254H8.46Z" fill="white"/>
</svg>
