<svg width="296" height="50" viewBox="0 0 296 50" fill="none" xmlns="http://www.w3.org/2000/svg">
<path d="M0 0H296V50H0V0Z" fill="white"/>
<path d="M70.3706 19.9399V29.7399C70.3706 30.2199 70.4906 30.5733 70.7306 30.7999C70.984 31.0133 71.324 31.1199 71.7506 31.1199C72.084 31.1199 72.3773 31.0733 72.6306 30.9799C72.884 30.8733 73.1106 30.7333 73.3106 30.5599L73.7506 32.3799C73.4306 32.6333 73.0306 32.8333 72.5506 32.9799C72.0706 33.1266 71.564 33.1999 71.0306 33.1999C70.364 33.1999 69.7706 33.0999 69.2506 32.8999C68.744 32.6999 68.344 32.3799 68.0506 31.9399C67.7706 31.4999 67.6306 30.9133 67.6306 30.1799V20.6999L70.3706 19.9399ZM73.5706 22.9999V25.0399H65.7906V22.9999H73.5706Z" fill="black"/>
<path d="M58.7642 33V23H61.1442L61.3242 24.96C61.5909 24.2667 61.9776 23.7334 62.4842 23.36C63.0042 22.9867 63.6509 22.8 64.4242 22.8C64.6509 22.8 64.8576 22.82 65.0442 22.86C65.2309 22.9 65.3842 22.9534 65.5042 23.02L65.1842 25.32C65.0509 25.2667 64.8842 25.2267 64.6842 25.2C64.4976 25.1734 64.2509 25.16 63.9442 25.16C63.5442 25.16 63.1576 25.26 62.7842 25.46C62.4109 25.6467 62.1042 25.94 61.8642 26.34C61.6242 26.7267 61.5042 27.22 61.5042 27.82V33H58.7642Z" fill="black"/>
<path d="M51.3516 22.8C52.3649 22.8 53.2516 23.0067 54.0116 23.42C54.7849 23.8334 55.3849 24.4267 55.8116 25.2C56.2516 25.9734 56.4716 26.9067 56.4716 28C56.4716 29.08 56.2516 30.0134 55.8116 30.8C55.3849 31.5734 54.7849 32.1667 54.0116 32.58C53.2516 32.9934 52.3649 33.2 51.3516 33.2C50.3516 33.2 49.4649 32.9934 48.6916 32.58C47.9182 32.1667 47.3116 31.5734 46.8716 30.8C46.4449 30.0134 46.2316 29.08 46.2316 28C46.2316 26.9067 46.4449 25.9734 46.8716 25.2C47.3116 24.4267 47.9182 23.8334 48.6916 23.42C49.4649 23.0067 50.3516 22.8 51.3516 22.8ZM51.3516 24.84C50.8449 24.84 50.4116 24.96 50.0516 25.2C49.7049 25.4267 49.4382 25.7734 49.2516 26.24C49.0649 26.7067 48.9716 27.2934 48.9716 28C48.9716 28.7067 49.0649 29.2934 49.2516 29.76C49.4382 30.2267 49.7049 30.58 50.0516 30.82C50.4116 31.0467 50.8449 31.16 51.3516 31.16C51.8449 31.16 52.2649 31.0467 52.6116 30.82C52.9716 30.58 53.2449 30.2267 53.4316 29.76C53.6182 29.2934 53.7116 28.7067 53.7116 28C53.7116 27.2934 53.6182 26.7067 53.4316 26.24C53.2449 25.7734 52.9716 25.4267 52.6116 25.2C52.2649 24.96 51.8449 24.84 51.3516 24.84Z" fill="black"/>
<path d="M34.2525 37.2001V23H36.7125L36.8925 26.18L36.5525 25.82C36.6725 25.2334 36.8925 24.7134 37.2125 24.26C37.5458 23.8067 37.9658 23.4534 38.4725 23.2C38.9792 22.9334 39.5458 22.8 40.1725 22.8C40.9858 22.8 41.7125 23.0067 42.3525 23.42C42.9925 23.8334 43.4925 24.4267 43.8525 25.2C44.2258 25.96 44.4125 26.8867 44.4125 27.98C44.4125 29.0734 44.2258 30.0134 43.8525 30.8C43.4792 31.5734 42.9658 32.1667 42.3125 32.58C41.6725 32.9934 40.9392 33.2 40.1125 33.2C39.2325 33.2 38.4992 32.9534 37.9125 32.46C37.3392 31.9667 36.9458 31.3467 36.7325 30.6L36.9925 30.18V37.2001H34.2525ZM39.3125 31.1C40.0458 31.1 40.6192 30.84 41.0325 30.32C41.4592 29.7867 41.6725 29.0134 41.6725 28C41.6725 26.9867 41.4658 26.22 41.0525 25.7C40.6525 25.1667 40.0858 24.9 39.3525 24.9C38.8858 24.9 38.4725 25.0267 38.1125 25.28C37.7658 25.52 37.4925 25.8734 37.2925 26.34C37.0925 26.7934 36.9925 27.3467 36.9925 28C36.9925 28.64 37.0858 29.1934 37.2725 29.66C37.4592 30.1267 37.7258 30.4867 38.0725 30.74C38.4325 30.98 38.8458 31.1 39.3125 31.1Z" fill="black"/>
<path d="M26.54 19.6001C27.74 19.6001 28.7933 19.8068 29.7 20.2201C30.6067 20.6334 31.38 21.2468 32.02 22.0601L30.48 23.8401C29.9333 23.1468 29.3333 22.6401 28.68 22.3201C28.04 21.9868 27.2933 21.8201 26.44 21.8201C25.88 21.8201 25.4133 21.8934 25.04 22.0401C24.68 22.1868 24.4133 22.3801 24.24 22.6201C24.08 22.8601 24 23.1268 24 23.4201C24 23.7801 24.14 24.0868 24.42 24.3401C24.7 24.5801 25.18 24.7801 25.86 24.9401L28.32 25.5001C29.6267 25.7934 30.56 26.2334 31.12 26.8201C31.6933 27.3934 31.98 28.1401 31.98 29.0601C31.98 29.9268 31.7533 30.6734 31.3 31.3001C30.8467 31.9134 30.2133 32.3868 29.4 32.7201C28.5867 33.0401 27.6533 33.2001 26.6 33.2001C25.68 33.2001 24.8333 33.0934 24.06 32.8801C23.3 32.6534 22.62 32.3468 22.02 31.9601C21.42 31.5734 20.92 31.1268 20.52 30.6201L22.08 28.7601C22.3867 29.1868 22.7667 29.5668 23.22 29.9001C23.6733 30.2334 24.1867 30.5001 24.76 30.7001C25.3467 30.8868 25.96 30.9801 26.6 30.9801C27.1467 30.9801 27.6067 30.9201 27.98 30.8001C28.3667 30.6668 28.6533 30.4868 28.84 30.2601C29.04 30.0201 29.14 29.7334 29.14 29.4001C29.14 29.0534 29.02 28.7601 28.78 28.5201C28.5533 28.2668 28.1267 28.0734 27.5 27.9401L24.82 27.3401C24.0467 27.1534 23.38 26.9134 22.82 26.6201C22.2733 26.3134 21.8533 25.9268 21.56 25.4601C21.28 24.9801 21.14 24.4134 21.14 23.7601C21.14 22.9734 21.3533 22.2668 21.78 21.6401C22.2067 21.0134 22.82 20.5201 23.62 20.1601C24.4333 19.7868 25.4067 19.6001 26.54 19.6001Z" fill="black"/>
</svg>
