<svg width="38" height="12" viewBox="0 0 38 12" fill="none" xmlns="http://www.w3.org/2000/svg">
<path d="M34.1286 11.6638C33.286 11.6638 32.55 11.4984 31.9206 11.1678C31.302 10.8371 30.822 10.3624 30.4806 9.74375C30.1393 9.12508 29.9686 8.37842 29.9686 7.50375C29.9686 6.62908 30.1393 5.88242 30.4806 5.26375C30.822 4.64508 31.2966 4.17042 31.9046 3.83975C32.5233 3.50908 33.2273 3.34375 34.0166 3.34375C34.8273 3.34375 35.5153 3.50908 36.0806 3.83975C36.646 4.15975 37.078 4.60242 37.3766 5.16775C37.6753 5.72242 37.8246 6.35708 37.8246 7.07175C37.8246 7.28508 37.8193 7.48775 37.8086 7.67975C37.798 7.87175 37.782 8.04242 37.7606 8.19175H31.3766V6.67175H36.8006L35.7446 7.05575C35.7446 6.38375 35.59 5.86642 35.2806 5.50375C34.982 5.14108 34.5553 4.95975 34.0006 4.95975C33.5953 4.95975 33.2433 5.05575 32.9446 5.24775C32.6566 5.43975 32.438 5.72775 32.2886 6.11175C32.1393 6.48508 32.0646 6.95975 32.0646 7.53575C32.0646 8.10108 32.1446 8.57042 32.3046 8.94375C32.4753 9.30642 32.71 9.57842 33.0086 9.75975C33.318 9.94108 33.686 10.0318 34.1126 10.0318C34.582 10.0318 34.9606 9.94108 35.2486 9.75975C35.5366 9.57842 35.7606 9.32775 35.9206 9.00775L37.6646 9.67975C37.494 10.0958 37.2326 10.4531 36.8806 10.7518C36.5393 11.0504 36.1286 11.2798 35.6486 11.4398C35.1793 11.5891 34.6726 11.6638 34.1286 11.6638Z" fill="black"/>
<path d="M25.0174 3.34375C25.732 3.34375 26.3347 3.45042 26.8254 3.66375C27.3267 3.86642 27.7267 4.14908 28.0254 4.51175C28.3347 4.86375 28.5534 5.25842 28.6814 5.69575L26.6334 6.43175C26.5267 5.95175 26.3454 5.58908 26.0894 5.34375C25.8334 5.09842 25.4867 4.97575 25.0494 4.97575C24.644 4.97575 24.2974 5.07175 24.0094 5.26375C23.7214 5.44508 23.5027 5.72775 23.3534 6.11175C23.204 6.48508 23.1294 6.95442 23.1294 7.51975C23.1294 8.08508 23.204 8.55442 23.3534 8.92775C23.5134 9.30108 23.7374 9.57842 24.0254 9.75975C24.324 9.94108 24.6707 10.0318 25.0654 10.0318C25.3854 10.0318 25.6574 9.97842 25.8814 9.87175C26.1054 9.75442 26.2867 9.58908 26.4254 9.37575C26.5747 9.16242 26.676 8.90642 26.7294 8.60775L28.7134 9.24775C28.596 9.72775 28.3774 10.1491 28.0574 10.5118C27.7374 10.8744 27.3267 11.1571 26.8254 11.3598C26.324 11.5624 25.7427 11.6638 25.0814 11.6638C24.26 11.6638 23.5347 11.4984 22.9054 11.1678C22.276 10.8371 21.7907 10.3624 21.4494 9.74375C21.108 9.12508 20.9374 8.37842 20.9374 7.50375C20.9374 6.62908 21.108 5.88242 21.4494 5.26375C21.7907 4.64508 22.2707 4.17042 22.8894 3.83975C23.508 3.50908 24.2174 3.34375 25.0174 3.34375Z" fill="black"/>
<path d="M17.9738 2.352C17.5151 2.352 17.1738 2.256 16.9498 2.064C16.7258 1.86133 16.6138 1.568 16.6138 1.184C16.6138 0.789333 16.7258 0.496 16.9498 0.304C17.1738 0.101333 17.5151 0 17.9738 0C18.4324 0 18.7738 0.101333 18.9978 0.304C19.2218 0.496 19.3338 0.789333 19.3338 1.184C19.3338 1.568 19.2218 1.86133 18.9978 2.064C18.7738 2.256 18.4324 2.352 17.9738 2.352ZM19.0618 3.504V11.504H16.8698V3.504H19.0618Z" fill="black"/>
<path d="M10.1198 11.5038V3.50375H12.0238L12.1678 5.07175C12.3811 4.51708 12.6904 4.09042 13.0958 3.79175C13.5118 3.49308 14.0291 3.34375 14.6478 3.34375C14.8291 3.34375 14.9944 3.35975 15.1438 3.39175C15.2931 3.42375 15.4158 3.46642 15.5118 3.51975L15.2558 5.35975C15.1491 5.31708 15.0158 5.28508 14.8558 5.26375C14.7064 5.24242 14.5091 5.23175 14.2638 5.23175C13.9438 5.23175 13.6344 5.31175 13.3358 5.47175C13.0371 5.62108 12.7918 5.85575 12.5998 6.17575C12.4078 6.48508 12.3118 6.87975 12.3118 7.35975V11.5038H10.1198Z" fill="black"/>
<path d="M4.432 0.943848C5.24267 0.943848 5.936 1.08251 6.512 1.35985C7.088 1.62651 7.53067 2.01585 7.84 2.52785C8.16 3.02918 8.32 3.63718 8.32 4.35185C8.32 5.06651 8.16 5.67985 7.84 6.19185C7.53067 6.69318 7.088 7.08251 6.512 7.35985C5.936 7.62651 5.24267 7.75985 4.432 7.75985H2.208V11.5038H0V0.943848H4.432ZM4.096 6.01585C4.75733 6.01585 5.25333 5.87718 5.584 5.59985C5.91467 5.31185 6.08 4.89585 6.08 4.35185C6.08 3.79718 5.91467 3.38118 5.584 3.10385C5.25333 2.82651 4.75733 2.68785 4.096 2.68785H2.208V6.01585H4.096Z" fill="black"/>
</svg>
