<svg width="58" height="15" viewBox="0 0 58 15" fill="none" xmlns="http://www.w3.org/2000/svg">
<path d="M52.9974 14.5797C51.9841 14.5797 51.0574 14.3997 50.2174 14.0397C49.3907 13.6797 48.7174 13.173 48.1974 12.5197L49.7774 10.9197C50.0974 11.3997 50.5241 11.793 51.0574 12.0997C51.5907 12.4064 52.2241 12.5597 52.9574 12.5597C53.4774 12.5597 53.8907 12.4864 54.1974 12.3397C54.5174 12.1797 54.6774 11.933 54.6774 11.5997C54.6774 11.3864 54.6041 11.2064 54.4574 11.0597C54.3107 10.8997 54.0174 10.773 53.5774 10.6797L51.8174 10.3197C50.6574 10.0797 49.8307 9.71969 49.3374 9.23969C48.8574 8.74635 48.6174 8.11302 48.6174 7.33969C48.6174 6.79302 48.7774 6.27969 49.0974 5.79969C49.4307 5.31969 49.9241 4.93302 50.5774 4.63969C51.2307 4.33302 52.0441 4.17969 53.0174 4.17969C54.0174 4.17969 54.8841 4.33969 55.6174 4.65969C56.3641 4.96635 56.9507 5.42635 57.3774 6.03969L55.7374 7.63969C55.4441 7.17302 55.0574 6.81969 54.5774 6.57969C54.1107 6.32635 53.6174 6.19969 53.0974 6.19969C52.7241 6.19969 52.4041 6.23969 52.1374 6.31969C51.8707 6.39969 51.6707 6.51302 51.5374 6.65969C51.4041 6.79302 51.3374 6.96635 51.3374 7.17969C51.3374 7.39302 51.4307 7.57969 51.6174 7.73969C51.8041 7.88635 52.1441 8.01302 52.6374 8.11969L54.6774 8.53969C55.6641 8.73969 56.3707 9.07969 56.7974 9.55969C57.2241 10.0264 57.4374 10.593 57.4374 11.2597C57.4374 11.8997 57.2641 12.473 56.9174 12.9797C56.5841 13.473 56.0841 13.8664 55.4174 14.1597C54.7641 14.4397 53.9574 14.5797 52.9974 14.5797Z" fill="black"/>
<path d="M47.2828 4.38L42.6628 9.2L42.1228 9.46L39.1228 12.68L39.0828 9.76L44.1628 4.38H47.2828ZM39.8428 0V14.38H37.1028V0H39.8428ZM43.0428 7.56L47.5228 14.38H44.4228L41.1628 9.16L43.0428 7.56Z" fill="black"/>
<path d="M29.6902 4.17969C30.7035 4.17969 31.5902 4.38635 32.3502 4.79969C33.1235 5.21302 33.7235 5.80635 34.1502 6.57969C34.5902 7.35302 34.8102 8.28635 34.8102 9.37969C34.8102 10.4597 34.5902 11.393 34.1502 12.1797C33.7235 12.953 33.1235 13.5464 32.3502 13.9597C31.5902 14.373 30.7035 14.5797 29.6902 14.5797C28.6902 14.5797 27.8035 14.373 27.0302 13.9597C26.2569 13.5464 25.6502 12.953 25.2102 12.1797C24.7835 11.393 24.5702 10.4597 24.5702 9.37969C24.5702 8.28635 24.7835 7.35302 25.2102 6.57969C25.6502 5.80635 26.2569 5.21302 27.0302 4.79969C27.8035 4.38635 28.6902 4.17969 29.6902 4.17969ZM29.6902 6.21969C29.1835 6.21969 28.7502 6.33969 28.3902 6.57969C28.0435 6.80635 27.7769 7.15302 27.5902 7.61969C27.4035 8.08635 27.3102 8.67302 27.3102 9.37969C27.3102 10.0864 27.4035 10.673 27.5902 11.1397C27.7769 11.6064 28.0435 11.9597 28.3902 12.1997C28.7502 12.4264 29.1835 12.5397 29.6902 12.5397C30.1835 12.5397 30.6035 12.4264 30.9502 12.1997C31.3102 11.9597 31.5835 11.6064 31.7702 11.1397C31.9569 10.673 32.0502 10.0864 32.0502 9.37969C32.0502 8.67302 31.9569 8.08635 31.7702 7.61969C31.5835 7.15302 31.3102 6.80635 30.9502 6.57969C30.6035 6.33969 30.1835 6.21969 29.6902 6.21969Z" fill="black"/>
<path d="M17.7175 4.17969C18.7309 4.17969 19.6175 4.38635 20.3775 4.79969C21.1509 5.21302 21.7509 5.80635 22.1775 6.57969C22.6175 7.35302 22.8375 8.28635 22.8375 9.37969C22.8375 10.4597 22.6175 11.393 22.1775 12.1797C21.7509 12.953 21.1509 13.5464 20.3775 13.9597C19.6175 14.373 18.7309 14.5797 17.7175 14.5797C16.7175 14.5797 15.8309 14.373 15.0575 13.9597C14.2842 13.5464 13.6775 12.953 13.2375 12.1797C12.8109 11.393 12.5975 10.4597 12.5975 9.37969C12.5975 8.28635 12.8109 7.35302 13.2375 6.57969C13.6775 5.80635 14.2842 5.21302 15.0575 4.79969C15.8309 4.38635 16.7175 4.17969 17.7175 4.17969ZM17.7175 6.21969C17.2109 6.21969 16.7775 6.33969 16.4175 6.57969C16.0709 6.80635 15.8042 7.15302 15.6175 7.61969C15.4309 8.08635 15.3375 8.67302 15.3375 9.37969C15.3375 10.0864 15.4309 10.673 15.6175 11.1397C15.8042 11.6064 16.0709 11.9597 16.4175 12.1997C16.7775 12.4264 17.2109 12.5397 17.7175 12.5397C18.2109 12.5397 18.6309 12.4264 18.9775 12.1997C19.3375 11.9597 19.6109 11.6064 19.7975 11.1397C19.9842 10.673 20.0775 10.0864 20.0775 9.37969C20.0775 8.67302 19.9842 8.08635 19.7975 7.61969C19.6109 7.15302 19.3375 6.80635 18.9775 6.57969C18.6309 6.33969 18.2109 6.21969 17.7175 6.21969Z" fill="black"/>
<path d="M0 14.3797V1.17969H5.78C7.38 1.17969 8.56 1.49302 9.32 2.11969C10.08 2.74635 10.46 3.63302 10.46 4.77969C10.46 5.48635 10.2467 6.11302 9.82 6.65969C9.39333 7.20635 8.76667 7.55302 7.94 7.69969V7.71969C8.86 7.85302 9.56667 8.19969 10.06 8.75969C10.5533 9.31969 10.8 9.98635 10.8 10.7597C10.8 11.893 10.3867 12.7797 9.56 13.4197C8.74667 14.0597 7.55333 14.3797 5.98 14.3797H0ZM2.68 12.2997H5.74C6.48667 12.2997 7.04 12.1464 7.4 11.8397C7.76 11.533 7.94 11.1064 7.94 10.5597C7.94 9.99969 7.76 9.57302 7.4 9.27969C7.04 8.98635 6.48667 8.83969 5.74 8.83969H2.68V12.2997ZM2.68 6.71969H5.42C6.87333 6.71969 7.6 6.15302 7.6 5.01969C7.6 3.88635 6.87333 3.31969 5.42 3.31969H2.68V6.71969Z" fill="black"/>
</svg>
