<svg width="112" height="16" viewBox="0 0 112 16" fill="none" xmlns="http://www.w3.org/2000/svg">
<path d="M106.587 15.0401C105.533 15.0401 104.613 14.8335 103.827 14.4201C103.053 14.0068 102.453 13.4135 102.027 12.6401C101.6 11.8668 101.387 10.9335 101.387 9.84014C101.387 8.7468 101.6 7.81347 102.027 7.04014C102.453 6.2668 103.047 5.67347 103.807 5.26014C104.58 4.8468 105.46 4.64014 106.447 4.64014C107.46 4.64014 108.32 4.8468 109.027 5.26014C109.733 5.66014 110.273 6.21347 110.647 6.92014C111.02 7.61347 111.207 8.4068 111.207 9.30014C111.207 9.5668 111.2 9.82014 111.187 10.0601C111.173 10.3001 111.153 10.5135 111.127 10.7001H103.147V8.80014H109.927L108.607 9.28014C108.607 8.44014 108.413 7.79347 108.027 7.34014C107.653 6.8868 107.12 6.66014 106.427 6.66014C105.92 6.66014 105.48 6.78014 105.107 7.02014C104.747 7.26014 104.473 7.62014 104.287 8.10014C104.1 8.5668 104.007 9.16014 104.007 9.88014C104.007 10.5868 104.107 11.1735 104.307 11.6401C104.52 12.0935 104.813 12.4335 105.187 12.6601C105.573 12.8868 106.033 13.0001 106.567 13.0001C107.153 13.0001 107.627 12.8868 107.987 12.6601C108.347 12.4335 108.627 12.1201 108.827 11.7201L111.007 12.5601C110.793 13.0801 110.467 13.5268 110.027 13.9001C109.6 14.2735 109.087 14.5601 108.487 14.7601C107.9 14.9468 107.267 15.0401 106.587 15.0401Z" fill="white"/>
<path d="M98.2598 0.460205V11.7602C98.2598 12.2269 98.3398 12.5535 98.4998 12.7402C98.6598 12.9269 98.9265 13.0202 99.2998 13.0202C99.5265 13.0202 99.7132 13.0069 99.8598 12.9802C100.006 12.9402 100.193 12.8869 100.42 12.8202L100.18 14.6202C99.9532 14.7535 99.6665 14.8535 99.3198 14.9202C98.9865 15.0002 98.6532 15.0402 98.3198 15.0402C97.3465 15.0402 96.6332 14.8069 96.1798 14.3402C95.7398 13.8602 95.5198 13.1002 95.5198 12.0602V0.460205H98.2598Z" fill="white"/>
<path d="M90.5061 1.78003V11.58C90.5061 12.06 90.6261 12.4134 90.8661 12.64C91.1194 12.8534 91.4594 12.96 91.8861 12.96C92.2194 12.96 92.5127 12.9134 92.7661 12.82C93.0194 12.7134 93.2461 12.5734 93.4461 12.4L93.8861 14.22C93.5661 14.4734 93.1661 14.6734 92.6861 14.82C92.2061 14.9667 91.6994 15.04 91.1661 15.04C90.4994 15.04 89.9061 14.94 89.3861 14.74C88.8794 14.54 88.4794 14.22 88.1861 13.78C87.9061 13.34 87.7661 12.7534 87.7661 12.02V2.54003L90.5061 1.78003ZM93.7061 4.84003V6.88003H85.9261V4.84003H93.7061Z" fill="white"/>
<path d="M82.7016 3.40021C82.1282 3.40021 81.7016 3.28021 81.4216 3.04021C81.1416 2.78687 81.0016 2.42021 81.0016 1.94021C81.0016 1.44687 81.1416 1.08021 81.4216 0.840205C81.7016 0.586872 82.1282 0.460205 82.7016 0.460205C83.2749 0.460205 83.7016 0.586872 83.9816 0.840205C84.2616 1.08021 84.4016 1.44687 84.4016 1.94021C84.4016 2.42021 84.2616 2.78687 83.9816 3.04021C83.7016 3.28021 83.2749 3.40021 82.7016 3.40021ZM84.0616 4.84021V14.8402H81.3216V4.84021H84.0616Z" fill="white"/>
<path d="M76.2678 1.78003V11.58C76.2678 12.06 76.3878 12.4134 76.6278 12.64C76.8811 12.8534 77.2211 12.96 77.6478 12.96C77.9811 12.96 78.2745 12.9134 78.5278 12.82C78.7811 12.7134 79.0078 12.5734 79.2078 12.4L79.6478 14.22C79.3278 14.4734 78.9278 14.6734 78.4478 14.82C77.9678 14.9667 77.4611 15.04 76.9278 15.04C76.2611 15.04 75.6678 14.94 75.1478 14.74C74.6411 14.54 74.2411 14.22 73.9478 13.78C73.6678 13.34 73.5278 12.7534 73.5278 12.02V2.54003L76.2678 1.78003ZM79.4678 4.84003V6.88003H71.6878V4.84003H79.4678Z" fill="white"/>
<path d="M60.2239 15.0401C59.2106 15.0401 58.2839 14.8601 57.4439 14.5001C56.6173 14.1401 55.9439 13.6335 55.4239 12.9801L57.0039 11.3801C57.3239 11.8601 57.7506 12.2535 58.2839 12.5601C58.8173 12.8668 59.4506 13.0201 60.1839 13.0201C60.7039 13.0201 61.1173 12.9468 61.4239 12.8001C61.7439 12.6401 61.9039 12.3935 61.9039 12.0601C61.9039 11.8468 61.8306 11.6668 61.6839 11.5201C61.5373 11.3601 61.2439 11.2335 60.8039 11.1401L59.0439 10.7801C57.8839 10.5401 57.0573 10.1801 56.5639 9.70014C56.0839 9.2068 55.8439 8.57347 55.8439 7.80014C55.8439 7.25347 56.0039 6.74014 56.3239 6.26014C56.6573 5.78014 57.1506 5.39347 57.8039 5.10014C58.4573 4.79347 59.2706 4.64014 60.2439 4.64014C61.2439 4.64014 62.1106 4.80014 62.8439 5.12014C63.5906 5.4268 64.1773 5.8868 64.6039 6.50014L62.9639 8.10014C62.6706 7.63347 62.2839 7.28014 61.8039 7.04014C61.3373 6.7868 60.8439 6.66014 60.3239 6.66014C59.9506 6.66014 59.6306 6.70014 59.3639 6.78014C59.0973 6.86014 58.8973 6.97347 58.7639 7.12014C58.6306 7.25347 58.5639 7.4268 58.5639 7.64014C58.5639 7.85347 58.6573 8.04014 58.8439 8.20014C59.0306 8.3468 59.3706 8.47347 59.8639 8.58014L61.9039 9.00014C62.8906 9.20014 63.5973 9.54014 64.0239 10.0201C64.4506 10.4868 64.6639 11.0535 64.6639 11.7201C64.6639 12.3601 64.4906 12.9335 64.1439 13.4401C63.8106 13.9335 63.3106 14.3268 62.6439 14.6201C61.9906 14.9001 61.1839 15.0401 60.2239 15.0401Z" fill="white"/>
<path d="M48.5534 0H51.1934L49.1934 3.4H47.1734L48.5534 0Z" fill="white"/>
<path d="M26.0872 14.8401V4.84014H28.5472L28.6472 6.64014C28.9805 5.97347 29.4339 5.47347 30.0072 5.14014C30.5939 4.8068 31.2405 4.64014 31.9472 4.64014C32.6672 4.64014 33.3139 4.8068 33.8872 5.14014C34.4739 5.47347 34.9139 5.9668 35.2072 6.62014C35.4205 6.18014 35.7072 5.81347 36.0672 5.52014C36.4272 5.2268 36.8272 5.0068 37.2672 4.86014C37.7072 4.71347 38.1539 4.64014 38.6072 4.64014C39.2605 4.64014 39.8539 4.77347 40.3872 5.04014C40.9339 5.3068 41.3672 5.7068 41.6872 6.24014C42.0072 6.77347 42.1672 7.45347 42.1672 8.28014V14.8401H39.4272V8.82014C39.4272 8.0868 39.2672 7.5668 38.9472 7.26014C38.6272 6.95347 38.2139 6.80014 37.7072 6.80014C37.3072 6.80014 36.9339 6.90014 36.5872 7.10014C36.2539 7.30014 35.9872 7.60014 35.7872 8.00014C35.6005 8.3868 35.5072 8.87347 35.5072 9.46014V14.8401H32.7672V8.82014C32.7672 8.0868 32.6005 7.5668 32.2672 7.26014C31.9472 6.95347 31.5339 6.80014 31.0272 6.80014C30.6805 6.80014 30.3339 6.89347 29.9872 7.08014C29.6539 7.2668 29.3739 7.56014 29.1472 7.96014C28.9339 8.36014 28.8272 8.8868 28.8272 9.54014V14.8401H26.0872Z" fill="white"/>
<path d="M19.1452 15.0401C18.0918 15.0401 17.1718 14.8335 16.3852 14.4201C15.6118 14.0068 15.0118 13.4135 14.5852 12.6401C14.1585 11.8668 13.9452 10.9335 13.9452 9.84014C13.9452 8.7468 14.1585 7.81347 14.5852 7.04014C15.0118 6.2668 15.6052 5.67347 16.3652 5.26014C17.1385 4.8468 18.0185 4.64014 19.0052 4.64014C20.0185 4.64014 20.8785 4.8468 21.5852 5.26014C22.2918 5.66014 22.8318 6.21347 23.2052 6.92014C23.5785 7.61347 23.7652 8.4068 23.7652 9.30014C23.7652 9.5668 23.7585 9.82014 23.7452 10.0601C23.7318 10.3001 23.7118 10.5135 23.6852 10.7001H15.7052V8.80014H22.4852L21.1652 9.28014C21.1652 8.44014 20.9718 7.79347 20.5852 7.34014C20.2118 6.8868 19.6785 6.66014 18.9852 6.66014C18.4785 6.66014 18.0385 6.78014 17.6652 7.02014C17.3052 7.26014 17.0318 7.62014 16.8452 8.10014C16.6585 8.5668 16.5652 9.16014 16.5652 9.88014C16.5652 10.5868 16.6652 11.1735 16.8652 11.6401C17.0785 12.0935 17.3718 12.4335 17.7452 12.6601C18.1318 12.8868 18.5918 13.0001 19.1252 13.0001C19.7118 13.0001 20.1852 12.8868 20.5452 12.6601C20.9052 12.4335 21.1852 12.1201 21.3852 11.7201L23.5652 12.5601C23.3518 13.0801 23.0252 13.5268 22.5852 13.9001C22.1585 14.2735 21.6452 14.5601 21.0452 14.7601C20.4585 14.9468 19.8252 15.0401 19.1452 15.0401Z" fill="white"/>
<path d="M9.4514 1.78003V11.58C9.4514 12.06 9.5714 12.4134 9.8114 12.64C10.0647 12.8534 10.4047 12.96 10.8314 12.96C11.1647 12.96 11.4581 12.9134 11.7114 12.82C11.9647 12.7134 12.1914 12.5734 12.3914 12.4L12.8314 14.22C12.5114 14.4734 12.1114 14.6734 11.6314 14.82C11.1514 14.9667 10.6447 15.04 10.1114 15.04C9.44473 15.04 8.8514 14.94 8.3314 14.74C7.82473 14.54 7.42473 14.22 7.1314 13.78C6.8514 13.34 6.7114 12.7534 6.7114 12.02V2.54003L9.4514 1.78003ZM12.6514 4.84003V6.88003H4.8714V4.84003H12.6514Z" fill="white"/>
<path d="M2.76 1.64014V14.8401H0V1.64014H2.76Z" fill="white"/>
</svg>
