<svg width="64" height="18" viewBox="0 0 64 18" fill="none" xmlns="http://www.w3.org/2000/svg">
<path d="M61.3337 0V13.56C61.3337 14.12 61.4297 14.512 61.6217 14.736C61.8137 14.96 62.1337 15.072 62.5817 15.072C62.8537 15.072 63.0777 15.056 63.2537 15.024C63.4297 14.976 63.6537 14.912 63.9257 14.832L63.6377 16.992C63.3657 17.152 63.0217 17.272 62.6057 17.352C62.2057 17.448 61.8057 17.496 61.4057 17.496C60.2377 17.496 59.3817 17.216 58.8377 16.656C58.3097 16.08 58.0457 15.168 58.0457 13.92V0H61.3337Z" fill="black"/>
<path d="M52.9763 3.528C52.2883 3.528 51.7763 3.384 51.4403 3.096C51.1043 2.792 50.9363 2.352 50.9363 1.776C50.9363 1.184 51.1043 0.743999 51.4403 0.455999C51.7763 0.151999 52.2883 0 52.9763 0C53.6643 0 54.1763 0.151999 54.5123 0.455999C54.8483 0.743999 55.0163 1.184 55.0163 1.776C55.0163 2.352 54.8483 2.792 54.5123 3.096C54.1763 3.384 53.6643 3.528 52.9763 3.528ZM54.6083 5.256V17.256H51.3203V5.256H54.6083Z" fill="black"/>
<path d="M44.3791 9.60012C44.3791 8.91212 44.1791 8.37611 43.7791 7.99212C43.3951 7.60811 42.8831 7.41611 42.2431 7.41611C41.6511 7.41611 41.1311 7.56811 40.6831 7.87211C40.2351 8.17611 39.9071 8.68011 39.6991 9.38411L36.8911 8.52011C37.1631 7.46412 37.7551 6.61611 38.6671 5.97611C39.5951 5.33611 40.8351 5.01611 42.3871 5.01611C43.4431 5.01611 44.3631 5.18411 45.1471 5.52011C45.9311 5.84012 46.5391 6.32811 46.9711 6.98411C47.4191 7.64011 47.6431 8.46412 47.6431 9.45612V14.3281C47.6431 14.9361 47.9311 15.2401 48.5071 15.2401C48.7791 15.2401 49.0351 15.2001 49.2751 15.1201L49.0831 17.1601C48.6671 17.3681 48.1471 17.4721 47.5231 17.4721C46.9631 17.4721 46.4591 17.3761 46.0111 17.1841C45.5631 16.9921 45.2111 16.7041 44.9551 16.3201C44.6991 15.9201 44.5711 15.4241 44.5711 14.8321V14.7361L45.1471 14.6401C45.0511 15.2481 44.7871 15.7681 44.3551 16.2001C43.9231 16.6161 43.3951 16.9361 42.7711 17.1601C42.1631 17.3841 41.5311 17.4961 40.8751 17.4961C40.0591 17.4961 39.3551 17.3761 38.7631 17.1361C38.1711 16.8801 37.7151 16.5121 37.3951 16.0321C37.0751 15.5521 36.9151 14.9601 36.9151 14.2561C36.9151 13.3601 37.2031 12.6321 37.7791 12.0721C38.3551 11.4961 39.1791 11.1041 40.2511 10.8961L44.7631 9.98412L44.7391 12.0241L41.8591 12.6001C41.3151 12.7121 40.8991 12.8641 40.6111 13.0561C40.3391 13.2321 40.2031 13.5281 40.2031 13.9441C40.2031 14.3441 40.3471 14.6481 40.6351 14.8561C40.9391 15.0641 41.2991 15.1681 41.7151 15.1681C42.0511 15.1681 42.3791 15.1281 42.6991 15.0481C43.0191 14.9681 43.3071 14.8401 43.5631 14.6641C43.8191 14.4881 44.0191 14.2481 44.1631 13.9441C44.3071 13.6401 44.3791 13.2721 44.3791 12.8401V9.60012Z" fill="black"/>
<path d="M14.8516 17.2561V5.25611H17.8036L17.9236 7.41611C18.3236 6.61612 18.8676 6.01612 19.5556 5.61612C20.2596 5.21611 21.0356 5.01611 21.8836 5.01611C22.7476 5.01611 23.5236 5.21611 24.2116 5.61612C24.9156 6.01612 25.4436 6.60811 25.7956 7.39211C26.0516 6.86411 26.3956 6.42411 26.8276 6.07211C27.2596 5.72011 27.7396 5.45611 28.2676 5.28012C28.7956 5.10411 29.3316 5.01611 29.8756 5.01611C30.6596 5.01611 31.3716 5.17611 32.0116 5.49611C32.6676 5.81611 33.1876 6.29611 33.5716 6.93612C33.9556 7.57612 34.1476 8.39211 34.1476 9.38411V17.2561H30.8596V10.0321C30.8596 9.15212 30.6676 8.52811 30.2836 8.16011C29.8996 7.79211 29.4036 7.60811 28.7956 7.60811C28.3156 7.60811 27.8676 7.72812 27.4516 7.96811C27.0516 8.20812 26.7316 8.56811 26.4916 9.04811C26.2676 9.51211 26.1556 10.0961 26.1556 10.8001V17.2561H22.8676V10.0321C22.8676 9.15212 22.6676 8.52811 22.2676 8.16011C21.8836 7.79211 21.3876 7.60811 20.7796 7.60811C20.3636 7.60811 19.9476 7.72011 19.5316 7.94411C19.1316 8.16811 18.7956 8.52011 18.5236 9.00011C18.2676 9.48011 18.1396 10.1121 18.1396 10.8961V17.2561H14.8516Z" fill="black"/>
<path d="M0 17.256V1.41602H11.88V4.08002H3.312V8.01602H10.056V10.56H3.312V14.592H12.216V17.256H0Z" fill="black"/>
</svg>
