<svg width="142" height="12" viewBox="0 0 142 12" fill="none" xmlns="http://www.w3.org/2000/svg">
<path d="M136.753 11.664C136.092 11.664 135.5 11.4987 134.977 11.168C134.465 10.8373 134.06 10.3627 133.761 9.744C133.473 9.12533 133.329 8.384 133.329 7.52C133.329 6.63467 133.484 5.88267 133.793 5.264C134.103 4.63467 134.519 4.16 135.041 3.84C135.575 3.50933 136.172 3.344 136.833 3.344C137.537 3.344 138.118 3.54667 138.577 3.952C139.036 4.35733 139.334 4.88 139.473 5.52L139.265 5.776V0H141.457V11.504H139.489L139.345 9.072L139.617 9.2C139.542 9.70133 139.372 10.1387 139.105 10.512C138.838 10.8747 138.503 11.1573 138.097 11.36C137.692 11.5627 137.244 11.664 136.753 11.664ZM137.393 9.984C137.777 9.984 138.108 9.888 138.385 9.696C138.662 9.49333 138.876 9.2 139.025 8.816C139.185 8.432 139.265 7.97333 139.265 7.44C139.265 6.928 139.191 6.496 139.041 6.144C138.892 5.78133 138.679 5.504 138.401 5.312C138.124 5.12 137.799 5.024 137.425 5.024C136.828 5.024 136.358 5.23733 136.017 5.664C135.686 6.08 135.521 6.69333 135.521 7.504C135.521 8.31467 135.686 8.93333 136.017 9.36C136.348 9.776 136.806 9.984 137.393 9.984Z" fill="#69C3E8"/>
<path d="M127.135 11.504V3.50399H129.039L129.183 5.07199C129.397 4.51733 129.706 4.09066 130.111 3.79199C130.527 3.49333 131.045 3.34399 131.663 3.34399C131.845 3.34399 132.01 3.35999 132.159 3.39199C132.309 3.42399 132.431 3.46666 132.527 3.51999L132.271 5.35999C132.165 5.31733 132.031 5.28533 131.871 5.264C131.722 5.24266 131.525 5.23199 131.279 5.23199C130.959 5.23199 130.65 5.312 130.351 5.472C130.053 5.62133 129.807 5.85599 129.615 6.17599C129.423 6.48533 129.327 6.87999 129.327 7.35999V11.504H127.135Z" fill="#69C3E8"/>
<path d="M121.205 3.34399C122.016 3.34399 122.725 3.50933 123.333 3.83999C123.952 4.17066 124.432 4.64533 124.773 5.264C125.125 5.88266 125.301 6.62933 125.301 7.50399C125.301 8.36799 125.125 9.11466 124.773 9.74399C124.432 10.3627 123.952 10.8373 123.333 11.168C122.725 11.4987 122.016 11.664 121.205 11.664C120.405 11.664 119.696 11.4987 119.077 11.168C118.459 10.8373 117.973 10.3627 117.621 9.74399C117.28 9.11466 117.109 8.36799 117.109 7.50399C117.109 6.62933 117.28 5.88266 117.621 5.264C117.973 4.64533 118.459 4.17066 119.077 3.83999C119.696 3.50933 120.405 3.34399 121.205 3.34399ZM121.205 4.976C120.8 4.976 120.453 5.072 120.165 5.264C119.888 5.44533 119.675 5.72266 119.525 6.09599C119.376 6.46933 119.301 6.93866 119.301 7.50399C119.301 8.06933 119.376 8.53866 119.525 8.91199C119.675 9.28533 119.888 9.56799 120.165 9.75999C120.453 9.94133 120.8 10.032 121.205 10.032C121.6 10.032 121.936 9.94133 122.213 9.75999C122.501 9.56799 122.72 9.28533 122.869 8.91199C123.019 8.53866 123.093 8.06933 123.093 7.50399C123.093 6.93866 123.019 6.46933 122.869 6.09599C122.72 5.72266 122.501 5.44533 122.213 5.264C121.936 5.072 121.6 4.976 121.205 4.976Z" fill="#69C3E8"/>
<path d="M114.08 3.50391H116.416L113.856 11.5039H111.328L109.584 6.06391L107.904 11.5039H105.376L102.816 3.50391H105.152L106.752 9.63191L108.528 3.50391H110.704L112.496 9.63191L114.08 3.50391Z" fill="#69C3E8"/>
<path d="M98.7573 11.664C97.9466 11.664 97.2053 11.52 96.5333 11.232C95.872 10.944 95.3333 10.5387 94.9173 10.016L96.1813 8.736C96.4373 9.12 96.7786 9.43466 97.2053 9.67999C97.632 9.92533 98.1386 10.048 98.7253 10.048C99.1413 10.048 99.472 9.98933 99.7173 9.87199C99.9733 9.74399 100.101 9.54666 100.101 9.27999C100.101 9.10933 100.043 8.96533 99.9253 8.84799C99.808 8.72 99.5733 8.61866 99.2213 8.54399L97.8133 8.25599C96.8853 8.06399 96.224 7.776 95.8293 7.392C95.4453 6.99733 95.2533 6.49066 95.2533 5.87199C95.2533 5.43466 95.3813 5.02399 95.6373 4.63999C95.904 4.25599 96.2986 3.94666 96.8213 3.71199C97.344 3.46666 97.9946 3.34399 98.7733 3.34399C99.5733 3.34399 100.267 3.47199 100.853 3.72799C101.451 3.97333 101.92 4.34133 102.261 4.83199L100.949 6.11199C100.715 5.73866 100.405 5.456 100.021 5.264C99.648 5.06133 99.2533 4.95999 98.8373 4.95999C98.5386 4.95999 98.2826 4.992 98.0693 5.05599C97.856 5.12 97.696 5.21066 97.5893 5.32799C97.4826 5.43466 97.4293 5.57333 97.4293 5.74399C97.4293 5.91466 97.504 6.06399 97.6533 6.19199C97.8026 6.30933 98.0746 6.41066 98.4693 6.49599L100.101 6.83199C100.891 6.99199 101.456 7.26399 101.797 7.64799C102.139 8.02133 102.309 8.47466 102.309 9.00799C102.309 9.51999 102.171 9.97866 101.893 10.384C101.627 10.7787 101.227 11.0933 100.693 11.328C100.171 11.552 99.5253 11.664 98.7573 11.664Z" fill="#69C3E8"/>
<path d="M90.2573 11.664C89.4466 11.664 88.7053 11.52 88.0333 11.232C87.372 10.944 86.8333 10.5387 86.4173 10.016L87.6813 8.736C87.9373 9.12 88.2786 9.43466 88.7053 9.67999C89.132 9.92533 89.6386 10.048 90.2253 10.048C90.6413 10.048 90.972 9.98933 91.2173 9.87199C91.4733 9.74399 91.6013 9.54666 91.6013 9.27999C91.6013 9.10933 91.5426 8.96533 91.4253 8.84799C91.308 8.72 91.0733 8.61866 90.7213 8.54399L89.3133 8.25599C88.3853 8.06399 87.724 7.776 87.3293 7.392C86.9453 6.99733 86.7533 6.49066 86.7533 5.87199C86.7533 5.43466 86.8813 5.02399 87.1373 4.63999C87.404 4.25599 87.7986 3.94666 88.3213 3.71199C88.844 3.46666 89.4946 3.34399 90.2733 3.34399C91.0733 3.34399 91.7666 3.47199 92.3533 3.72799C92.9506 3.97333 93.42 4.34133 93.7613 4.83199L92.4493 6.11199C92.2146 5.73866 91.9053 5.456 91.5213 5.264C91.148 5.06133 90.7533 4.95999 90.3373 4.95999C90.0386 4.95999 89.7826 4.992 89.5693 5.05599C89.356 5.12 89.196 5.21066 89.0893 5.32799C88.9826 5.43466 88.9293 5.57333 88.9293 5.74399C88.9293 5.91466 89.004 6.06399 89.1533 6.19199C89.3026 6.30933 89.5746 6.41066 89.9693 6.49599L91.6013 6.83199C92.3906 6.99199 92.956 7.26399 93.2973 7.64799C93.6386 8.02133 93.8093 8.47466 93.8093 9.00799C93.8093 9.51999 93.6706 9.97866 93.3933 10.384C93.1266 10.7787 92.7266 11.0933 92.1933 11.328C91.6706 11.552 91.0253 11.664 90.2573 11.664Z" fill="#69C3E8"/>
<path d="M82.4297 6.39999C82.4297 5.94133 82.2964 5.58399 82.0297 5.32799C81.7737 5.07199 81.4324 4.94399 81.0057 4.94399C80.6111 4.94399 80.2644 5.04533 79.9657 5.24799C79.6671 5.45066 79.4484 5.78666 79.3097 6.25599L77.4377 5.67999C77.6191 4.97599 78.0137 4.41066 78.6217 3.98399C79.2404 3.55733 80.0671 3.34399 81.1017 3.34399C81.8057 3.34399 82.4191 3.45599 82.9417 3.67999C83.4644 3.89333 83.8697 4.21866 84.1577 4.65599C84.4564 5.09333 84.6057 5.64266 84.6057 6.30399V9.552C84.6057 9.95733 84.7977 10.16 85.1817 10.16C85.3631 10.16 85.5337 10.1333 85.6937 10.08L85.5657 11.44C85.2884 11.5787 84.9417 11.648 84.5257 11.648C84.1524 11.648 83.8164 11.584 83.5177 11.456C83.2191 11.328 82.9844 11.136 82.8137 10.88C82.6431 10.6133 82.5577 10.2827 82.5577 9.88799V9.82399L82.9417 9.75999C82.8777 10.1653 82.7017 10.512 82.4137 10.8C82.1257 11.0773 81.7737 11.2907 81.3577 11.44C80.9524 11.5893 80.5311 11.664 80.0937 11.664C79.5497 11.664 79.0804 11.584 78.6857 11.424C78.2911 11.2533 77.9871 11.008 77.7737 10.688C77.5604 10.368 77.4537 9.97333 77.4537 9.50399C77.4537 8.90666 77.6457 8.42133 78.0297 8.04799C78.4137 7.66399 78.9631 7.40266 79.6777 7.264L82.6857 6.656L82.6697 8.016L80.7497 8.39999C80.3871 8.47466 80.1097 8.57599 79.9177 8.70399C79.7364 8.82133 79.6457 9.01866 79.6457 9.29599C79.6457 9.56266 79.7417 9.76533 79.9337 9.90399C80.1364 10.0427 80.3764 10.112 80.6537 10.112C80.8777 10.112 81.0964 10.0853 81.3097 10.032C81.5231 9.97866 81.7151 9.89333 81.8857 9.776C82.0564 9.65866 82.1897 9.49866 82.2857 9.29599C82.3817 9.09333 82.4297 8.84799 82.4297 8.55999V6.39999Z" fill="#69C3E8"/>
<path d="M72.182 0.943848C72.9927 0.943848 73.686 1.08251 74.262 1.35985C74.838 1.62651 75.2807 2.01585 75.59 2.52785C75.91 3.02918 76.07 3.63718 76.07 4.35185C76.07 5.06651 75.91 5.67985 75.59 6.19185C75.2807 6.69318 74.838 7.08251 74.262 7.35985C73.686 7.62651 72.9927 7.75985 72.182 7.75985H69.958V11.5038H67.75V0.943848H72.182ZM71.846 6.01585C72.5073 6.01585 73.0033 5.87718 73.334 5.59985C73.6647 5.31185 73.83 4.89585 73.83 4.35185C73.83 3.79718 73.6647 3.38118 73.334 3.10385C73.0033 2.82651 72.5073 2.68785 71.846 2.68785H69.958V6.01585H71.846Z" fill="#69C3E8"/>
<path d="M56.1823 11.504V3.50399H58.0863L58.2303 5.07199C58.4436 4.51733 58.7529 4.09066 59.1582 3.79199C59.5742 3.49333 60.0916 3.34399 60.7103 3.34399C60.8916 3.34399 61.0569 3.35999 61.2062 3.39199C61.3556 3.42399 61.4782 3.46666 61.5742 3.51999L61.3183 5.35999C61.2116 5.31733 61.0783 5.28533 60.9183 5.264C60.7689 5.24266 60.5716 5.23199 60.3263 5.23199C60.0063 5.23199 59.6969 5.312 59.3983 5.472C59.0996 5.62133 58.8543 5.85599 58.6623 6.17599C58.4703 6.48533 58.3743 6.87999 58.3743 7.35999V11.504H56.1823Z" fill="#69C3E8"/>
<path d="M50.6286 11.664C49.786 11.664 49.05 11.4987 48.4206 11.168C47.802 10.8373 47.322 10.3627 46.9806 9.74399C46.6393 9.12533 46.4686 8.37866 46.4686 7.50399C46.4686 6.62933 46.6393 5.88266 46.9806 5.264C47.322 4.64533 47.7966 4.17066 48.4046 3.83999C49.0233 3.50933 49.7273 3.34399 50.5166 3.34399C51.3273 3.34399 52.0153 3.50933 52.5806 3.83999C53.146 4.15999 53.578 4.60266 53.8766 5.16799C54.1753 5.72266 54.3246 6.35733 54.3246 7.07199C54.3246 7.28533 54.3193 7.48799 54.3086 7.67999C54.298 7.87199 54.282 8.04266 54.2606 8.19199H47.8766V6.67199H53.3006L52.2446 7.05599C52.2446 6.384 52.09 5.86666 51.7806 5.50399C51.482 5.14133 51.0553 4.95999 50.5006 4.95999C50.0953 4.95999 49.7433 5.05599 49.4446 5.24799C49.1566 5.43999 48.938 5.72799 48.7886 6.11199C48.6393 6.48533 48.5646 6.95999 48.5646 7.53599C48.5646 8.10133 48.6446 8.57066 48.8046 8.94399C48.9753 9.30666 49.21 9.57866 49.5086 9.75999C49.818 9.94133 50.186 10.032 50.6126 10.032C51.082 10.032 51.4606 9.94133 51.7486 9.75999C52.0366 9.57866 52.2606 9.32799 52.4206 9.00799L54.1646 9.67999C53.994 10.096 53.7326 10.4533 53.3806 10.752C53.0393 11.0507 52.6286 11.28 52.1486 11.44C51.6793 11.5893 51.1726 11.664 50.6286 11.664Z" fill="#69C3E8"/>
<path d="M43.5241 3.50391H45.7961L42.7561 11.5039H40.2281L37.188 3.50391H39.5241L41.508 9.82391L43.5241 3.50391Z" fill="#69C3E8"/>
<path d="M32.4396 3.34399C33.2503 3.34399 33.9596 3.50933 34.5676 3.83999C35.1863 4.17066 35.6663 4.64533 36.0076 5.264C36.3596 5.88266 36.5356 6.62933 36.5356 7.50399C36.5356 8.36799 36.3596 9.11466 36.0076 9.74399C35.6663 10.3627 35.1863 10.8373 34.5676 11.168C33.9596 11.4987 33.2503 11.664 32.4396 11.664C31.6396 11.664 30.9303 11.4987 30.3116 11.168C29.693 10.8373 29.2076 10.3627 28.8556 9.74399C28.5143 9.11466 28.3436 8.36799 28.3436 7.50399C28.3436 6.62933 28.5143 5.88266 28.8556 5.264C29.2076 4.64533 29.693 4.17066 30.3116 3.83999C30.9303 3.50933 31.6396 3.34399 32.4396 3.34399ZM32.4396 4.976C32.0343 4.976 31.6876 5.072 31.3996 5.264C31.1223 5.44533 30.909 5.72266 30.7596 6.09599C30.6103 6.46933 30.5356 6.93866 30.5356 7.50399C30.5356 8.06933 30.6103 8.53866 30.7596 8.91199C30.909 9.28533 31.1223 9.56799 31.3996 9.75999C31.6876 9.94133 32.0343 10.032 32.4396 10.032C32.8343 10.032 33.1703 9.94133 33.4476 9.75999C33.7356 9.56799 33.9543 9.28533 34.1036 8.91199C34.253 8.53866 34.3276 8.06933 34.3276 7.50399C34.3276 6.93866 34.253 6.46933 34.1036 6.09599C33.9543 5.72266 33.7356 5.44533 33.4476 5.264C33.1703 5.072 32.8343 4.976 32.4396 4.976Z" fill="#69C3E8"/>
<path d="M23.3924 3.34399C24.107 3.34399 24.7097 3.45066 25.2004 3.66399C25.7017 3.86666 26.1017 4.14933 26.4004 4.51199C26.7097 4.86399 26.9284 5.25866 27.0564 5.69599L25.0084 6.43199C24.9017 5.95199 24.7204 5.58933 24.4644 5.344C24.2084 5.09866 23.8617 4.976 23.4244 4.976C23.019 4.976 22.6724 5.072 22.3844 5.264C22.0964 5.44533 21.8777 5.72799 21.7284 6.11199C21.579 6.48533 21.5044 6.95466 21.5044 7.51999C21.5044 8.08533 21.579 8.55466 21.7284 8.92799C21.8884 9.30133 22.1124 9.57866 22.4004 9.75999C22.699 9.94133 23.0457 10.032 23.4404 10.032C23.7604 10.032 24.0324 9.97866 24.2564 9.87199C24.4804 9.75466 24.6617 9.58933 24.8004 9.37599C24.9497 9.16266 25.051 8.90666 25.1044 8.608L27.0884 9.24799C26.971 9.72799 26.7524 10.1493 26.4324 10.512C26.1124 10.8747 25.7017 11.1573 25.2004 11.36C24.699 11.5627 24.1177 11.664 23.4564 11.664C22.635 11.664 21.9097 11.4987 21.2804 11.168C20.651 10.8373 20.1657 10.3627 19.8244 9.74399C19.483 9.12533 19.3124 8.37866 19.3124 7.50399C19.3124 6.62933 19.483 5.88266 19.8244 5.264C20.1657 4.64533 20.6457 4.17066 21.2644 3.83999C21.883 3.50933 22.5924 3.34399 23.3924 3.34399Z" fill="#69C3E8"/>
<path d="M14.2068 11.664C13.3641 11.664 12.6281 11.4987 11.9988 11.168C11.3801 10.8373 10.9001 10.3627 10.5588 9.74399C10.2174 9.12533 10.0468 8.37866 10.0468 7.50399C10.0468 6.62933 10.2174 5.88266 10.5588 5.264C10.9001 4.64533 11.3748 4.17066 11.9828 3.83999C12.6014 3.50933 13.3054 3.34399 14.0948 3.34399C14.9054 3.34399 15.5934 3.50933 16.1588 3.83999C16.7241 4.15999 17.1561 4.60266 17.4548 5.16799C17.7534 5.72266 17.9028 6.35733 17.9028 7.07199C17.9028 7.28533 17.8974 7.48799 17.8868 7.67999C17.8761 7.87199 17.8601 8.04266 17.8388 8.19199H11.4548V6.67199H16.8788L15.8228 7.05599C15.8228 6.384 15.6681 5.86666 15.3588 5.50399C15.0601 5.14133 14.6334 4.95999 14.0788 4.95999C13.6734 4.95999 13.3214 5.05599 13.0228 5.24799C12.7348 5.43999 12.5161 5.72799 12.3668 6.11199C12.2174 6.48533 12.1428 6.95999 12.1428 7.53599C12.1428 8.10133 12.2228 8.57066 12.3828 8.94399C12.5534 9.30666 12.7881 9.57866 13.0868 9.75999C13.3961 9.94133 13.7641 10.032 14.1908 10.032C14.6601 10.032 15.0388 9.94133 15.3268 9.75999C15.6148 9.57866 15.8388 9.32799 15.9988 9.00799L17.7428 9.67999C17.5721 10.096 17.3108 10.4533 16.9588 10.752C16.6174 11.0507 16.2068 11.28 15.7268 11.44C15.2574 11.5893 14.7508 11.664 14.2068 11.664Z" fill="#69C3E8"/>
<path d="M4.656 0.943848C5.85067 0.943848 6.78933 1.23185 7.472 1.80785C8.15467 2.38385 8.496 3.15718 8.496 4.12785C8.496 5.16251 8.15467 5.95718 7.472 6.51185C6.78933 7.05585 5.856 7.32785 4.672 7.32785L4.448 7.45585H2.176V11.5038H0V0.943848H4.656ZM4.4 5.77585C5.01867 5.77585 5.47733 5.65318 5.776 5.40785C6.08533 5.15185 6.24 4.76251 6.24 4.23985C6.24 3.71718 6.08533 3.33318 5.776 3.08785C5.47733 2.83185 5.01867 2.70385 4.4 2.70385H2.176V5.77585H4.4ZM5.696 6.23985L9.12 11.5038H6.64L3.808 6.87985L5.696 6.23985Z" fill="#69C3E8"/>
</svg>
