<svg width="60" height="23" viewBox="0 0 60 23" fill="none" xmlns="http://www.w3.org/2000/svg">
<path d="M48.0859 17.2559V5.25587H51.0379L51.2299 8.85587L50.8219 8.47187C51.0139 7.68787 51.3179 7.03987 51.7339 6.52787C52.1499 6.01587 52.6539 5.63987 53.2459 5.39987C53.8539 5.14387 54.5179 5.01587 55.2379 5.01587C56.0699 5.01587 56.8059 5.17587 57.4459 5.49587C58.1019 5.81587 58.6139 6.30387 58.9819 6.95987C59.3659 7.59987 59.5579 8.40787 59.5579 9.38387V17.2559H56.2699V10.3199C56.2699 9.29587 56.0699 8.59187 55.6699 8.20787C55.2699 7.80787 54.7499 7.60787 54.1099 7.60787C53.6619 7.60787 53.2219 7.71987 52.7899 7.94387C52.3739 8.15187 52.0299 8.49587 51.7579 8.97587C51.5019 9.45587 51.3739 10.0959 51.3739 10.8959V17.2559H48.0859Z" fill="white"/>
<path d="M42.9685 3.528C42.2805 3.528 41.7685 3.384 41.4325 3.096C41.0965 2.792 40.9285 2.352 40.9285 1.776C40.9285 1.184 41.0965 0.744 41.4325 0.456C41.7685 0.152 42.2805 0 42.9685 0C43.6565 0 44.1685 0.152 44.5045 0.456C44.8405 0.744 45.0085 1.184 45.0085 1.776C45.0085 2.352 44.8405 2.792 44.5045 3.096C44.1685 3.384 43.6565 3.528 42.9685 3.528ZM44.6005 5.256V17.256H41.3125V5.256H44.6005Z" fill="white"/>
<path d="M39.2045 2.3999L39.5885 4.7519C39.5245 4.7519 39.4525 4.7519 39.3725 4.7519C39.3085 4.7359 39.2365 4.7279 39.1565 4.7279C38.4205 4.7279 37.8685 4.8959 37.5005 5.2319C37.1325 5.5519 36.9485 5.9999 36.9485 6.5759L35.6045 6.0239C35.6045 5.3839 35.7325 4.7919 35.9885 4.2479C36.2445 3.6879 36.6205 3.2399 37.1165 2.9039C37.6285 2.5679 38.2365 2.3999 38.9405 2.3999C38.9725 2.3999 39.0125 2.3999 39.0605 2.3999C39.1085 2.3999 39.1565 2.3999 39.2045 2.3999ZM35.2685 14.9999C36.5645 14.9999 37.5645 15.2799 38.2685 15.8399C38.9725 16.3999 39.3245 17.1839 39.3245 18.1919C39.3245 19.1039 39.0605 19.8719 38.5325 20.4959C38.0045 21.1359 37.2605 21.6159 36.3005 21.9359C35.3565 22.2559 34.2605 22.4159 33.0125 22.4159C30.9485 22.4159 29.4365 22.1279 28.4765 21.5519C27.5325 20.9759 27.0605 20.2239 27.0605 19.2959C27.0605 18.6399 27.3085 18.0879 27.8045 17.6399C28.3165 17.1919 29.1565 16.9439 30.3245 16.8959L30.2045 17.2799C29.3725 17.1359 28.7325 16.8639 28.2845 16.4639C27.8525 16.0479 27.6365 15.4799 27.6365 14.7599C27.6365 14.0239 27.9165 13.4239 28.4765 12.9599C29.0525 12.4799 29.8285 12.1999 30.8045 12.1199L32.2445 12.7919H31.9085C31.2205 12.8399 30.7325 12.9839 30.4445 13.2239C30.1725 13.4479 30.0365 13.7039 30.0365 13.9919C30.0365 14.3279 30.1645 14.5839 30.4205 14.7599C30.6925 14.9199 31.0765 14.9999 31.5725 14.9999H35.2685ZM33.0365 20.1599C33.8685 20.1599 34.5485 20.0879 35.0765 19.9439C35.6205 19.7999 36.0205 19.6159 36.2765 19.3919C36.5485 19.1679 36.6845 18.9199 36.6845 18.6479C36.6845 18.3439 36.5645 18.0959 36.3245 17.9039C36.0845 17.7279 35.6525 17.6399 35.0285 17.6399H30.9725C30.5885 17.6399 30.2685 17.7359 30.0125 17.9279C29.7725 18.1199 29.6525 18.3839 29.6525 18.7199C29.6525 19.1679 29.9485 19.5199 30.5405 19.7759C31.1485 20.0319 31.9805 20.1599 33.0365 20.1599ZM33.0605 5.0159C34.1805 5.0159 35.1485 5.1839 35.9645 5.5199C36.7965 5.8399 37.4285 6.3039 37.8605 6.9119C38.3085 7.5199 38.5325 8.2479 38.5325 9.0959C38.5325 9.9279 38.3085 10.6479 37.8605 11.2559C37.4285 11.8639 36.7965 12.3359 35.9645 12.6719C35.1485 12.9919 34.1805 13.1519 33.0605 13.1519C31.2845 13.1519 29.9245 12.7919 28.9805 12.0719C28.0525 11.3359 27.5885 10.3439 27.5885 9.0959C27.5885 8.2479 27.8045 7.5199 28.2365 6.9119C28.6845 6.3039 29.3165 5.8399 30.1325 5.5199C30.9485 5.1839 31.9245 5.0159 33.0605 5.0159ZM33.0605 7.0799C32.4205 7.0799 31.8925 7.2559 31.4765 7.6079C31.0605 7.9599 30.8525 8.4479 30.8525 9.0719C30.8525 9.6959 31.0605 10.1919 31.4765 10.5599C31.8925 10.9119 32.4205 11.0879 33.0605 11.0879C33.7005 11.0879 34.2205 10.9119 34.6205 10.5599C35.0365 10.1919 35.2445 9.6959 35.2445 9.0719C35.2445 8.4479 35.0365 7.9599 34.6205 7.6079C34.2205 7.2559 33.7005 7.0799 33.0605 7.0799Z" fill="white"/>
<path d="M19.3392 5.01587C20.5552 5.01587 21.6192 5.26387 22.5312 5.75987C23.4592 6.25587 24.1792 6.96787 24.6912 7.89587C25.2192 8.82387 25.4832 9.94387 25.4832 11.2559C25.4832 12.5519 25.2192 13.6719 24.6912 14.6159C24.1792 15.5439 23.4592 16.2559 22.5312 16.7519C21.6192 17.2479 20.5552 17.4959 19.3392 17.4959C18.1392 17.4959 17.0752 17.2479 16.1472 16.7519C15.2192 16.2559 14.4912 15.5439 13.9632 14.6159C13.4512 13.6719 13.1952 12.5519 13.1952 11.2559C13.1952 9.94387 13.4512 8.82387 13.9632 7.89587C14.4912 6.96787 15.2192 6.25587 16.1472 5.75987C17.0752 5.26387 18.1392 5.01587 19.3392 5.01587ZM19.3392 7.46387C18.7312 7.46387 18.2112 7.60787 17.7792 7.89587C17.3632 8.16787 17.0432 8.58387 16.8192 9.14387C16.5952 9.70387 16.4832 10.4079 16.4832 11.2559C16.4832 12.1039 16.5952 12.8079 16.8192 13.3679C17.0432 13.9279 17.3632 14.3519 17.7792 14.6399C18.2112 14.9119 18.7312 15.0479 19.3392 15.0479C19.9312 15.0479 20.4352 14.9119 20.8512 14.6399C21.2832 14.3519 21.6112 13.9279 21.8352 13.3679C22.0592 12.8079 22.1712 12.1039 22.1712 11.2559C22.1712 10.4079 22.0592 9.70387 21.8352 9.14387C21.6112 8.58387 21.2832 8.16787 20.8512 7.89587C20.4352 7.60787 19.9312 7.46387 19.3392 7.46387Z" fill="white"/>
<path d="M3.312 14.5918H11.664V17.2558H0V1.41577H3.312V14.5918Z" fill="white"/>
</svg>
