<svg xmlns="http://www.w3.org/2000/svg" width="80.01" height="95.32" viewBox="0 0 80.01 95.32"><g transform="translate(-0.1 0.37)"><path d="M20.11,85.32l20,9.63,20-9.63c12.16-5.86,20-18,20-31V-.37H.1V53.46a35.56,35.56,0,0,0,20,31.86" fill="#fff"/><path d="M2.8,2.34V53.46A32.84,32.84,0,0,0,21.28,82.88L40.1,92l18.82-9.07C70.14,77.47,77.4,66.24,77.4,54.27V2.34ZM8.12,7.66H33.27a92.138,92.138,0,0,0-8.86,14.11C18.9,32.74,22.33,38,22.33,38c-2.52,11.77-9.2,22.3-12,26.29A27.18,27.18,0,0,1,8.12,53.46ZM58.31,28.84" fill="#182d4d"/><path d="M56.91,48.31C52,46.38,51,43.94,51,43.94c-8.31.14-10.74,6-10.74,6s5.64-5.6,16.63-1.62" fill="#fff"/><path d="M24.41,21.77A89.18,89.18,0,0,1,31.3,10.36H10.82v43.1a26.51,26.51,0,0,0,1.37,8C15.4,56.43,20.26,47.61,22.33,38c0,0-3.43-5.21,2.08-16.19M58.28,48.23s5.58,1.71,5.43,11.54c0,0,3.81-5.4-4-15.3a3.9,3.9,0,0,1-1.45,3.76M47.67,67.92a21.05,21.05,0,0,0,5.67-9.73c1.89-6.53,5-6.5,6.27-5.24S63.18,61.46,55,66.72a13.81,13.81,0,0,0,1.68-5.43s-2.48,4.14-9,6.62M42.62,37.63c10.17,5,11.08-.55,11.08-.55,4.24,2.87,6.79,2.4,7.94,1.85a64.88,64.88,0,0,1-3.9-5.45,14.69,14.69,0,0,0-6.18-5.41,9.83,9.83,0,0,1,.59-4.86,20.2,20.2,0,0,1,2.67,4.06,16.22,16.22,0,0,0-3-9.54c-.62,2.06-3.17,9.21-3.17,9.21-7.25-2.18-14.22,1.13-14.22,1.13a10.31,10.31,0,0,1,2-7.67l2.36,4c1.34-8.62-2.56-12.08-2.56-12.08S21.79,25.77,28.77,43.59a7.47,7.47,0,0,1-3.64-2,82.58,82.58,0,0,1-9.58,28.8s5.27,9,21.65,12.2c0,0-10.33-5.46-12.07-16.87a22,22,0,0,0-4.32,6C20.66,68.1,21.48,59.84,31.3,56c0,0-2.78,5.31.87,9.05,2.93,3,11.06,5.63,16.73-5.77s8-10.95,8-10.95C52,46.38,51,43.94,51,43.94c-8.31.14-10.74,6-10.74,6-5.61-4.88,2.34-8,2.34-8a20.517,20.517,0,0,0-1.88-1,2.23,2.23,0,0,1-2.08,1.9,2.72,2.72,0,0,1-2.78-2.35,2.46,2.46,0,0,1,.1-1.1,7.4,7.4,0,0,0-4.68.52s1.15-7.27,11.32-2.28" fill="#c4c6c9"/><path d="M28.77,43.59c-.19-18.68,7.41-31.25,7.41-31.25S21.79,25.77,28.77,43.59M51.56,28.07a9.83,9.83,0,0,1,.59-4.86,20.21,20.21,0,0,1,2.67,4.06,16.22,16.22,0,0,0-3-9.54c-.62,2.06-3.17,9.21-3.17,9.21-7.25-2.18-14.22,1.13-14.22,1.13s12.82-1.85,23.46,5.59l-.11-.17a14.68,14.68,0,0,0-6.18-5.41M56.35,57.3c.87-2.87,2-4.11,2.92-4.64-1.43-.94-4.19-.49-5.93,5.52a21.05,21.05,0,0,1-5.67,9.73A19.73,19.73,0,0,0,56.35,57.3M25.13,41.57a82.57,82.57,0,0,1-9.58,28.8A62.93,62.93,0,0,0,28.77,43.59a7.47,7.47,0,0,1-3.64-2M39.05,44.4A9.75,9.75,0,0,1,42.62,42a20.518,20.518,0,0,0-1.88-1,2.23,2.23,0,0,1-2.08,1.9,2.72,2.72,0,0,1-2.78-2.35,2.46,2.46,0,0,1,.1-1.1,10.41,10.41,0,0,0-2.18-.1v.69a5.24,5.24,0,0,0,5.22,4.41" fill="#fff"/><path d="M45.91,22.22c1.25-3.14,3.32-8.87,3.36-9A2.06,2.06,0,0,1,50.77,12a2.27,2.27,0,0,1,1.93.58c.3.27,6.52,7.92,6.75,17.53a68.17,68.17,0,0,1,4.25,6,5,5,0,0,1,1.24,3.43,3.64,3.64,0,0,1-.28,1l-1.2,3a25.25,25.25,0,0,1,3.76,7.6,13.18,13.18,0,0,1,.47,6.89c-1.18,7-7.45,12.57-16,14.08-.91,1.24-1.12,4.77-.39,8.46l5.26-2.54A26.67,26.67,0,0,0,72.07,54.27V7.66H39a26.34,26.34,0,0,1,5,14.41,8,8,0,0,1,1.85.16" fill="#c31632"/></g></svg>