<svg xmlns="http://www.w3.org/2000/svg" xmlns:xlink="http://www.w3.org/1999/xlink" width="430" height="300" viewBox="0 0 430 300"><defs><clipPath id="a"><path d="M0,0H430V300H0Z" transform="translate(1284 3884)" fill="#69c3e8"/></clipPath></defs><g transform="translate(-1284 -3884)" clip-path="url(#a)"><g transform="translate(1351.169 3894.907)" opacity="0.2"><path d="M153.659,58.375c-3.625-27.884-21.443-46.539-49.1-59.282-27.689,12.743-45.48,31.4-49.133,59.282H.768V226.155H83.641a24.79,24.79,0,0,0,20.886,12.6,24.789,24.789,0,0,0,20.886-12.6h82.929V58.375Zm-49.1-41.827c19.742,10.485,31.2,25.6,33.266,43.806a48.352,48.352,0,0,0-33.266,26.853A48.352,48.352,0,0,0,71.288,60.327C73.351,42.146,84.812,27.033,104.554,16.548Zm87.781,193.964h-79.22v5.1a8,8,0,0,1-8.588,8.365,8,8,0,0,1-8.588-8.365v-5.1H16.885V74.157H54.92V184.385L70.926,172.7V76.555c18.627,5.577,25.626,19.324,25.626,49.439v71.022h15.978V125.995c0-30.115,7.027-43.751,25.626-49.439V172.7l15.978,11.739V74.157h38.2Z" transform="translate(43.063 20)" fill="#fff"/><path d="M128.609,35.462c18.515,20.83,0,41.157,0,41.157S110.094,56.292,128.609,35.462Z" transform="translate(19.009 12.686)" fill="#fff"/></g></g></svg>